<?xml version="1.0" standalone="no"?>
<!DOCTYPE svg PUBLIC "-//W3C//DTD SVG 1.1//EN" "http://www.w3.org/Graphics/SVG/1.1/DTD/svg11.dtd" >
<svg>
<metadata>
Created by FontForge 20131121 at Thu Nov 27 16:32:35 2014

Copyright 2013 (c) Tate
</metadata>
<defs>
<font id="TateNewPro-Bold" horiz-adv-x="588" >
  <font-face 
    font-family="Tate New Pro"
    font-weight="700"
    font-stretch="normal"
    units-per-em="1000"
    panose-1="2 11 8 4 2 2 2 2 2 4"
    ascent="800"
    descent="-200"
    x-height="532"
    cap-height="718"
    bbox="-147 -354 1115 980"
    underline-thickness="50"
    underline-position="-50"
    unicode-range="U+0020-FB02"
  />
<missing-glyph horiz-adv-x="1000" 
 />
    <glyph glyph-name="fi" unicode="fi" horiz-adv-x="595" 
d="M366 705q0 -20 -11.5 -35.5t-31.5 -18.5q-9 -2 -27 -2.5t-27 -0.5q-17 0 -28 -9.5t-11 -28.5v-78h47q31 0 50 -14t19 -46q0 -31 -19.5 -45t-49.5 -14h-47v-342q0 -35 -19 -56t-49 -21t-49.5 21t-19.5 56v342h-33q-28 0 -44 16t-16 43q0 26 17 43t43 17h33v86
q0 42 12.5 71t34.5 47.5t51 26.5t61 8q27 0 49.5 -4t37.5 -12q27 -15 27 -50zM550 684q0 -42 -20 -64t-55 -22q-33 0 -54 22t-21 63q0 39 21 61t54 22t54 -21.5t21 -60.5zM544 71q0 -35 -19 -56t-50 -21q-30 0 -49 21t-19 56v390q0 35 19 56t49 21q31 0 50 -21t19 -56v-390z
" />
    <glyph glyph-name="fl" unicode="fl" horiz-adv-x="589" 
d="M366 705q0 -20 -11.5 -35.5t-31.5 -18.5q-9 -2 -27 -2.5t-27 -0.5q-17 0 -28 -9.5t-11 -28.5v-78h47q31 0 50 -14t19 -46q0 -31 -19.5 -45t-49.5 -14h-47v-342q0 -35 -19 -56t-49 -21t-49.5 21t-19.5 56v342h-33q-28 0 -44 16t-16 43q0 26 17 43t43 17h33v86
q0 42 12.5 71t34.5 47.5t51 26.5t61 8q27 0 49.5 -4t37.5 -12q27 -15 27 -50zM544 71q0 -35 -19 -56t-49 -21t-49.5 21t-19.5 56v623q0 35 19.5 55.5t49.5 20.5t49 -20.5t19 -55.5v-623v0z" />
    <glyph glyph-name=".notdef" horiz-adv-x="1000" 
 />
    <glyph glyph-name=".null" horiz-adv-x="0" 
 />
    <glyph glyph-name="nonmarkingreturn" horiz-adv-x="265" 
 />
    <glyph glyph-name="space" unicode=" " horiz-adv-x="265" 
 />
    <glyph glyph-name="numbersign" unicode="#" horiz-adv-x="640" 
d="M615 462q0 -18 -11.5 -32.5t-35.5 -14.5h-95l-18 -118h83q24 0 35.5 -14.5t11.5 -31.5q0 -18 -11.5 -32.5t-35.5 -14.5h-96l-24 -160q-7 -50 -50 -50q-20 0 -32 11t-12 28q0 5 1.5 15.5t3.5 25.5l20 130h-100l-24 -160q-7 -50 -50 -50q-20 0 -32 11t-12 28q0 5 1.5 15.5
t3.5 25.5l21 130h-84q-24 0 -36 14.5t-12 31.5q0 18 12 32.5t36 14.5h97l17 118h-84q-24 0 -36 14.5t-12 31.5q0 18 12 32.5t36 14.5h97l23 160q7 50 50 50q20 0 32 -11t12 -28q0 -5 -1.5 -15.5t-3.5 -25.5l-19 -130h100l23 160q7 50 50 50q20 0 32 -11t12 -28
q0 -5 -1.5 -15.5t-3.5 -25.5l-19 -130h82q24 0 35.5 -14.5t11.5 -31.5zM280 415l-17 -118h100l17 118h-100z" />
    <glyph glyph-name="dollar" unicode="$" 
d="M517 199q0 -82 -47.5 -134t-122.5 -69v-39q0 -19 -11 -29.5t-28 -10.5t-28 10.5t-11 29.5v32q-41 1 -83 6t-71 20q-20 11 -32 27t-12 39q0 30 18.5 48.5t48.5 18.5q11 0 26.5 -3t33.5 -8q17 -5 38 -8.5t38 -3.5q47 0 69 16.5t22 52.5q0 18 -7 31.5t-23.5 27.5t-43.5 30
t-68 40q-27 16 -53 34t-46 41t-32.5 52.5t-12.5 67.5q0 45 14.5 80.5t40 61t61.5 41t79 20.5v39q0 18 11 29t28 11t28 -11t11 -29v-38q25 -2 47.5 -5.5t41.5 -11.5q23 -10 36.5 -25t13.5 -39q0 -30 -18 -48.5t-48 -18.5q-11 0 -24 2t-28 5q-16 3 -29.5 4.5t-27.5 1.5
q-18 0 -34 -2t-28 -9t-19 -19t-7 -32q0 -32 33.5 -55.5t88.5 -52.5q30 -16 60 -35.5t53.5 -45.5t38.5 -60t15 -77z" />
    <glyph glyph-name="percent" unicode="%" horiz-adv-x="724" 
d="M317 560q0 -33 -8 -62.5t-25 -51.5t-43.5 -35t-64.5 -13t-64.5 13t-43.5 35t-25 51.5t-8 62.5t8 63t25 52t43.5 35t64.5 13q37 0 64 -13t44 -35t25 -52t8 -63zM579 683q0 -14 -4 -24.5t-7 -16.5l-324 -628q-8 -17 -19.5 -24.5t-29.5 -7.5q-19 0 -34.5 11t-15.5 36
q0 14 4 24.5t7 16.5l324 628q8 17 19.5 24.5t29.5 7.5q19 0 34.5 -11t15.5 -36zM689 151q0 -33 -8 -62.5t-25 -51.5t-43.5 -35t-64.5 -13t-64.5 13t-43.5 35t-25 51.5t-8 62.5t8 63t25 52t43.5 35t64.5 13q37 0 64 -13t44 -35t25 -52t8 -63zM228 560q0 15 -1.5 28.5t-7 24
t-16 16.5t-27.5 6t-27 -6t-15.5 -16.5t-7 -24t-1.5 -28.5q0 -14 1.5 -27t6.5 -23t15.5 -16t27.5 -6q18 0 28 6t15.5 16t7 23t1.5 27zM600 151q0 15 -1.5 28.5t-7 24t-16 16.5t-27.5 6t-27 -6t-15.5 -16.5t-7 -24t-1.5 -28.5q0 -14 1.5 -27t6.5 -23t15.5 -16t27.5 -6
q18 0 28 6t15.5 16t7 23t1.5 27z" />
    <glyph glyph-name="ampersand.sc" horiz-adv-x="539" 
d="M367 228q13 32 26 53.5t42 21.5q23 0 40 -15.5t17 -37.5q0 -25 -12 -54t-26 -50l53 -52q10 -11 14.5 -21t4.5 -24q0 -23 -16.5 -41t-45.5 -18q-14 0 -24.5 4t-21.5 15l-37 37q-38 -31 -76.5 -44t-90.5 -13q-37 0 -70.5 11t-58.5 32t-39.5 51.5t-14.5 70.5q0 52 26.5 89.5
t66.5 65.5q-19 23 -29 47t-10 53q0 34 15 59.5t39.5 42t55.5 24.5t63 8q42 0 80 -9.5t56 -24.5q11 -10 15.5 -20t4.5 -24q0 -26 -16 -42.5t-42 -16.5q-12 0 -28 6q-13 4 -29.5 9.5t-36.5 5.5q-23 0 -36.5 -8t-13.5 -24q0 -11 7 -20.5t26 -28.5zM201 231q-18 -14 -30.5 -29.5
t-12.5 -38.5q0 -27 21 -44t50 -17q20 0 40.5 8.5t34.5 22.5z" />
    <glyph glyph-name="quoteright" unicode="&#x2019;" horiz-adv-x="245" 
d="M230 661q0 -11 -4 -21t-9 -19l-81 -147q-18 -33 -55 -33q-26 0 -46 18.5t-20 43.5q0 11 4 21t9 19l81 147q18 33 55 33q26 0 46 -18.5t20 -43.5z" />
    <glyph glyph-name="parenleft" unicode="(" horiz-adv-x="268" 
d="M238 -93q0 -25 -15 -40t-39 -15q-23 0 -40 20q-23 29 -40.5 78.5t-29.5 108t-18 119t-6 111.5t6 111.5t18 119t29.5 108t40.5 78.5q17 20 40 20q24 0 39 -15t15 -40q0 -11 -7 -32.5t-13 -37.5q-25 -70 -36.5 -151.5t-11.5 -160.5t11.5 -160.5t36.5 -151.5q6 -16 13 -37.5
t7 -32.5z" />
    <glyph glyph-name="parenright" unicode=")" horiz-adv-x="268" 
d="M218 289q0 -51 -6.5 -111.5t-18.5 -119t-29.5 -108t-39.5 -78.5q-17 -20 -40 -20q-24 0 -39 15t-15 40q0 11 7 32.5t13 37.5q25 70 36.5 151.5t11.5 160.5t-11.5 160.5t-36.5 151.5q-6 16 -13 37.5t-7 32.5q0 25 15 40t39 15q23 0 40 -20q22 -29 39.5 -78.5t29.5 -108
t18.5 -119t6.5 -111.5z" />
    <glyph glyph-name="asterisk" unicode="*" horiz-adv-x="400" 
d="M365 463q0 -21 -14 -35.5t-33 -14.5q-14 0 -30 11l-48 34l4 -28q2 -9 3 -21t1 -18q0 -22 -13.5 -32.5t-34.5 -10.5t-34.5 10.5t-13.5 32.5q0 6 1 18t3 21l4 28l-48 -34q-16 -11 -30 -11q-19 0 -33 14.5t-14 35.5q0 32 24 42l65 26l-65 26q-24 10 -24 42q0 21 14 35.5
t33 14.5q14 0 30 -11l48 -34l-4 28q-2 9 -3 21t-1 18q0 22 13.5 32.5t34.5 10.5t34.5 -10.5t13.5 -32.5q0 -6 -1 -18t-3 -21l-4 -28l48 34q16 11 30 11q19 0 33 -14.5t14 -35.5q0 -32 -24 -42l-65 -26l65 -26q24 -10 24 -42z" />
    <glyph glyph-name="plus" unicode="+" 
d="M558 253q0 -26 -15.5 -41.5t-41.5 -15.5h-149v-149q0 -26 -15.5 -42t-42.5 -16q-26 0 -41.5 16t-15.5 42v149h-149q-26 0 -41.5 15.5t-15.5 41.5t15.5 41.5t41.5 15.5h149v149q0 26 15.5 42t41.5 16q27 0 42.5 -16t15.5 -42v-149h149q26 0 41.5 -15.5t15.5 -41.5z" />
    <glyph glyph-name="comma" unicode="," horiz-adv-x="270" 
d="M210 87q0 -11 -4 -21t-9 -19l-81 -147q-18 -33 -55 -33q-26 0 -46 18.5t-20 43.5q0 11 4 21t9 19l81 147q18 33 55 33q26 0 46 -18.5t20 -43.5z" />
    <glyph glyph-name="hyphen" unicode="-" horiz-adv-x="391" 
d="M356 287q0 -25 -14.5 -42t-40.5 -17h-211q-27 0 -41 17t-14 42q0 26 14 43.5t41 17.5h211q26 0 40.5 -17.5t14.5 -43.5z" />
    <glyph glyph-name="period" unicode="." horiz-adv-x="262" 
d="M207 75q0 -42 -20.5 -64t-55.5 -22q-33 0 -54.5 22t-21.5 64q0 38 21.5 60.5t54.5 22.5t54.5 -22t21.5 -61z" />
    <glyph glyph-name="slash" unicode="/" horiz-adv-x="410" 
d="M398 673q0 -11 -8 -30l-266 -618q-8 -17 -19.5 -26.5t-34.5 -9.5q-24 0 -40.5 13.5t-16.5 36.5q0 11 8 30l266 618q8 17 19.5 26.5t34.5 9.5q24 0 40.5 -13.5t16.5 -36.5z" />
    <glyph glyph-name="zero.posf" horiz-adv-x="589" 
d="M540 265q0 -64 -16 -115t-47.5 -87t-77 -55t-105.5 -19q-62 0 -108 19t-76.5 55t-45.5 87t-15 115q0 62 16.5 113t48 88t77 57t103.5 20q62 0 108 -20t77 -57t46 -88t15 -113zM405 265q0 34 -6.5 62.5t-20 49.5t-34.5 32.5t-50 11.5t-49.5 -11.5t-34 -32.5t-20 -49.5
t-6.5 -62.5q0 -68 26.5 -111.5t83.5 -43.5q29 0 50 11.5t34.5 32t20 49t6.5 62.5z" />
    <glyph glyph-name="one.posf" horiz-adv-x="384" 
d="M302 69q0 -36 -20 -55.5t-51 -19.5t-51 19.5t-20 55.5v332h-62q-35 0 -50 20.5t-15 45.5t17 45t48 20h140q31 0 47.5 -19t16.5 -48v-396v0z" />
    <glyph glyph-name="two.posf" horiz-adv-x="548" 
d="M503 63q0 -32 -20.5 -47.5t-48.5 -15.5h-320q-32 0 -48.5 18.5t-16.5 52.5q0 20 10.5 38t26.5 30l164 118q21 17 38 29.5t29 24t18.5 23t6.5 25.5q0 8 -4 17.5t-13.5 17.5t-24.5 13.5t-37 5.5q-33 0 -58 -7t-45 -15q-23 -9 -41 -9q-26 0 -41.5 16.5t-15.5 40.5
q0 14 4.5 26.5t15.5 23.5q22 23 71.5 38.5t118.5 15.5q45 0 84.5 -11.5t68 -33.5t45 -54.5t16.5 -73.5q0 -35 -13.5 -63.5t-34.5 -52t-47 -42.5t-52 -35l-80 -50v-2h170q31 0 52.5 -15t21.5 -47z" />
    <glyph glyph-name="three.posf" horiz-adv-x="513" 
d="M463 35q0 -47 -16.5 -88t-48 -72t-77.5 -48.5t-106 -17.5q-51 0 -94 8t-64 24q-13 9 -20.5 20.5t-7.5 29.5q0 30 18.5 47t45.5 17q8 0 17.5 -2t20.5 -5q39 -10 83 -10q52 0 78.5 27t26.5 71q0 48 -30 69.5t-85 21.5h-22q-29 0 -47.5 17t-18.5 45q0 31 18.5 49.5
t47.5 18.5h22q51 0 76.5 25t25.5 64q0 32 -19 49.5t-61 17.5q-19 0 -42 -5t-44 -13q-22 -8 -38 -8q-26 0 -42 16.5t-16 44.5q0 41 44 64q27 14 66 22.5t76 8.5q57 0 97.5 -15t65.5 -40.5t36.5 -59.5t11.5 -73q0 -19 -5.5 -40.5t-16.5 -41.5t-28 -37.5t-41 -28.5v-2
q113 -46 113 -170z" />
    <glyph glyph-name="four.posf" horiz-adv-x="575" 
d="M559 63q0 -27 -18.5 -45t-47.5 -18h-23v-111q0 -75 -67 -75t-67 75v111h-241q-35 0 -50.5 17.5t-15.5 49.5q0 15 5 31t17 36l235 359q14 22 36.5 36t54.5 14q93 0 93 -91v-326h22q30 0 48.5 -18t18.5 -45zM336 379h-2l-161 -251v-2h163v253z" />
    <glyph glyph-name="five.posf" horiz-adv-x="538" 
d="M498 57q0 -56 -16.5 -101.5t-49.5 -78t-82 -50.5t-114 -18q-50 0 -95.5 10t-67.5 27q-11 9 -18 20t-7 28q0 30 18 47.5t46 17.5q7 0 13 -1t11 -3q20 -6 45 -11t54 -5q57 0 87 27t30 83q0 47 -30 71.5t-87 24.5h-92q-28 0 -46 17.5t-18 43.5v247q0 43 18.5 61t54.5 18h246
q32 0 50 -18.5t18 -45.5q0 -29 -17 -47t-50 -18h-187v-130h50q114 0 175 -53.5t61 -162.5z" />
    <glyph glyph-name="six.posf" 
d="M531 226q0 -49 -15 -92t-45.5 -75.5t-75.5 -51t-105 -18.5q-75 0 -120.5 26.5t-69.5 67.5t-32 90t-8 94q0 76 19 157t58 147.5t99 109.5t143 43q31 0 51 -16.5t20 -47.5t-18 -45t-45 -19q-30 -5 -56 -19t-46 -35t-34 -48t-21 -57l1 -2q23 12 51.5 17t47.5 5q53 0 91 -17
t62.5 -47.5t36 -73t11.5 -93.5zM390 228q0 50 -21 79t-72 29q-46 0 -71.5 -25.5t-25.5 -79.5q0 -53 22 -85t73 -32q45 0 70 26.5t25 87.5z" />
    <glyph glyph-name="seven.posf" horiz-adv-x="548" 
d="M512 464q0 -15 -5.5 -33t-13.5 -36l-238 -510q-9 -20 -17.5 -34t-17.5 -22t-20.5 -11.5t-27.5 -3.5q-38 0 -56 19.5t-18 40.5q0 14 3 24t8 21l240 482h-251q-38 0 -54.5 20.5t-16.5 45.5t16 45t55 20h344q38 0 54 -19.5t16 -48.5z" />
    <glyph glyph-name="eight.posf" horiz-adv-x="600" 
d="M545 210q0 -100 -60.5 -158.5t-184.5 -58.5q-125 0 -185 59t-60 158q0 70 27 111.5t87 65.5v1q-37 17 -61.5 52.5t-24.5 95.5q0 91 56.5 137t160.5 46t160.5 -46t56.5 -137q0 -60 -24 -95.5t-61 -52.5v-1q59 -24 86 -65t27 -112zM381 521q0 42 -22.5 58t-58.5 16
q-35 0 -58 -16t-23 -58q0 -36 20 -58t61 -22t61 22t20 58zM400 221q0 48 -23.5 74t-76.5 26t-76.5 -26t-23.5 -74q0 -49 24 -76t76 -27t76 27t24 76z" />
    <glyph glyph-name="nine.posf" 
d="M528 265q0 -76 -19 -157t-58 -147.5t-99.5 -109.5t-142.5 -43q-30 0 -50.5 16.5t-20.5 47.5t18 45t45 19q30 5 56 19t46 35t34 48t21 57l-1 2q-23 -12 -51 -17t-48 -5q-53 0 -91 17t-62.5 47.5t-36 73t-11.5 93.5q0 49 15.5 92t45.5 75t75 51t105 19q75 0 120.5 -26.5
t69.5 -67.5t32 -90t8 -94zM388 301q0 53 -22 85t-73 32q-45 0 -70 -26.5t-25 -87.5q0 -50 21 -79t73 -29q45 0 70.5 25.5t25.5 79.5z" />
    <glyph glyph-name="colon" unicode=":" horiz-adv-x="262" 
d="M207 378q0 -42 -20.5 -64t-55.5 -22q-33 0 -54.5 22.5t-21.5 63.5q0 39 21.5 61t54.5 22t54.5 -21.5t21.5 -61.5zM207 75q0 -42 -20.5 -64t-55.5 -22q-33 0 -54.5 22.5t-21.5 63.5q0 39 21.5 61t54.5 22t54.5 -21.5t21.5 -61.5z" />
    <glyph glyph-name="semicolon" unicode=";" horiz-adv-x="271" 
d="M211 378q0 -42 -20.5 -64t-55.5 -22q-33 0 -54.5 22.5t-21.5 63.5q0 39 21.5 61t54.5 22t54.5 -21.5t21.5 -61.5zM210 87q0 -11 -4 -21t-9 -19l-81 -147q-18 -33 -55 -33q-26 0 -46 18.5t-20 43.5q0 11 4 21t9 19l81 147q18 33 55 33q26 0 46 -18.5t20 -43.5z" />
    <glyph glyph-name="less" unicode="&#x3c;" 
d="M561 54q0 -29 -17.5 -41t-35.5 -12q-7 0 -16.5 2t-29.5 12l-398 183q-17 8 -26.5 20.5t-9.5 34.5t9.5 34.5t26.5 20.5l398 183q20 10 29.5 12t16.5 2q18 0 35.5 -12t17.5 -41q0 -16 -9.5 -31t-30.5 -24l-338 -144l338 -144q21 -9 30.5 -24t9.5 -31z" />
    <glyph glyph-name="equal" unicode="=" 
d="M558 364q0 -26 -15.5 -42t-41.5 -16h-413q-26 0 -41.5 16t-15.5 42t15.5 41.5t41.5 15.5h413q26 0 41.5 -15.5t15.5 -41.5zM558 143q0 -26 -15.5 -42t-41.5 -16h-413q-26 0 -41.5 16t-15.5 42t15.5 41.5t41.5 15.5h413q26 0 41.5 -15.5t15.5 -41.5z" />
    <glyph glyph-name="greater" unicode="&#x3e;" 
d="M561 253q0 -22 -9.5 -34.5t-26.5 -20.5l-398 -183q-20 -10 -29.5 -12t-16.5 -2q-18 0 -35.5 12t-17.5 41q0 16 9.5 31t30.5 24l338 144l-338 144q-21 9 -30.5 24t-9.5 31q0 29 17.5 41t35.5 12q7 0 16.5 -2t29.5 -12l398 -183q17 -8 26.5 -20.5t9.5 -34.5z" />
    <glyph glyph-name="question" unicode="?" horiz-adv-x="487" 
d="M447 545q0 -38 -8.5 -66t-23 -50t-32.5 -39t-36 -33q-23 -21 -44 -43.5t-32 -54.5q-8 -21 -21 -38.5t-43 -17.5q-32 0 -50.5 18.5t-18.5 47.5q0 30 8.5 53.5t22 42.5t30 35t33.5 30q27 23 47.5 45t20.5 51q0 28 -18.5 47t-70.5 19q-28 0 -50 -7t-43 -16
q-11 -5 -21.5 -6.5t-19.5 -1.5q-25 0 -41 17t-16 41q0 29 20 50q22 23 71 38.5t112 15.5q47 0 88 -9.5t71 -30.5t47.5 -55t17.5 -83zM276 68q0 -38 -19.5 -58.5t-52.5 -20.5q-32 0 -51.5 20.5t-19.5 58.5q0 35 19.5 55.5t51.5 20.5t52 -20t20 -56z" />
    <glyph glyph-name="at" unicode="@" horiz-adv-x="803" 
d="M750 419q0 -70 -26.5 -119.5t-63 -81t-74.5 -46t-62 -14.5q-29 0 -49.5 12.5t-25.5 34.5h-2q-18 -23 -47 -34.5t-59 -11.5q-31 0 -55.5 13.5t-42 36.5t-26.5 53t-9 63q0 40 12 79.5t35 70t56 49.5t74 19q34 0 62 -16t48 -49h2v14q0 46 51 46q18 0 30 -8.5t12 -26.5
q0 -5 -1 -11.5t-3 -14.5l-36 -175q-2 -6 -3 -15t-1 -17q0 -9 5 -15.5t17 -6.5q13 0 30.5 11t33 33t26 53t10.5 72q0 51 -19 91.5t-53 69t-81.5 44t-103.5 15.5q-61 0 -112 -24t-87.5 -65t-56.5 -95t-20 -115q0 -65 19 -114.5t54 -82.5t84 -49.5t109 -16.5q54 0 106 9.5
t97 35.5l27 18q18 15 33 15q18 0 28 -10t10 -24q0 -20 -19 -39q-25 -26 -58.5 -43t-70.5 -28t-76.5 -15.5t-76.5 -4.5q-77 0 -141 23t-110 67.5t-72 109t-26 147.5q0 79 28 149t76.5 123t114 84t140.5 31q70 0 132 -22.5t108 -63t72.5 -96.5t26.5 -122zM464 382
q0 35 -23.5 51.5t-53.5 16.5q-38 0 -61.5 -32.5t-23.5 -80.5q0 -42 15 -65t53 -23q37 0 57.5 18.5t25.5 46.5l8 42q3 15 3 26z" />
    <glyph glyph-name="A" unicode="A" horiz-adv-x="650" 
d="M635 56q0 -27 -21 -44.5t-47 -17.5q-30 0 -48.5 14t-25.5 36l-36 116h-272l-36 -115q-7 -23 -22.5 -37t-44.5 -14t-48 18.5t-19 47.5q0 11 2.5 19t4.5 13l196 552q11 32 37 55.5t71 23.5q47 0 72 -22.5t37 -56.5l192 -551q5 -12 6.5 -22t1.5 -15zM323 596h-2l-98 -315
h197z" />
    <glyph glyph-name="B" unicode="B" horiz-adv-x="573" 
d="M533 210q0 -105 -58.5 -157.5t-162.5 -52.5h-176q-34 0 -55 19t-21 53v569q0 34 20.5 52.5t54.5 18.5h186q82 0 131 -47.5t49 -127.5q0 -51 -18.5 -89t-66.5 -60v-2q62 -18 89.5 -61t27.5 -115zM359 511q0 45 -21.5 60.5t-57.5 15.5h-78v-159h80q37 0 57 19t20 64z
M386 218q0 38 -21.5 61.5t-70.5 23.5h-92v-178h102q43 0 62.5 23.5t19.5 69.5z" />
    <glyph glyph-name="C" unicode="C" horiz-adv-x="537" 
d="M517 73q0 -29 -18.5 -46t-52.5 -25q-15 -4 -29 -6.5t-28.5 -4t-31 -2t-37.5 -0.5q-72 0 -126.5 27t-91 76t-54.5 116.5t-18 148.5q0 83 21.5 150.5t62.5 115.5t99.5 74t132.5 26q37 0 73.5 -5.5t61.5 -19.5q35 -19 35 -53q0 -29 -16.5 -46.5t-44.5 -17.5q-8 0 -23 2
t-28 4q-18 2 -32 3t-31 1q-45 0 -76 -17.5t-50.5 -48.5t-28 -74t-8.5 -94q0 -50 8.5 -93.5t27.5 -75t50 -49.5t76 -18q34 0 71 8q11 2 23.5 4t20.5 2q29 0 45.5 -16.5t16.5 -45.5z" />
    <glyph glyph-name="D" unicode="D" horiz-adv-x="629" 
d="M599 357q0 -82 -21 -148t-61.5 -112.5t-99 -71.5t-133.5 -25h-149q-12 0 -25.5 3.5t-24.5 11.5t-18 22t-7 34v568q0 33 20 53t53 20h152q82 0 141 -23.5t97.5 -69t57 -111.5t18.5 -151zM451 354q0 51 -6.5 93t-25 72t-51.5 46t-85 16h-81v-450h83q50 0 82 16.5t51 46
t26 70.5t7 90z" />
    <glyph glyph-name="E" unicode="E" horiz-adv-x="478" 
d="M458 65q0 -24 -17 -44.5t-51 -20.5h-257q-32 0 -52.5 19.5t-20.5 51.5v567q0 37 20.5 55.5t53.5 18.5h247q35 0 51.5 -20t16.5 -45t-17 -45.5t-51 -20.5h-179v-157h167q35 0 52.5 -20t17.5 -45t-17.5 -45.5t-52.5 -20.5h-167v-162h188q35 0 51.5 -20t16.5 -46z" />
    <glyph glyph-name="F" unicode="F" horiz-adv-x="473" 
d="M453 647q0 -25 -17 -45.5t-51 -20.5h-183v-157h159q34 0 51 -20t17 -44q0 -26 -17 -46.5t-51 -20.5h-159v-224q0 -36 -20 -55.5t-51 -19.5t-51 19.5t-20 55.5v569q0 29 19 51.5t55 22.5h251q35 0 51.5 -20t16.5 -45z" />
    <glyph glyph-name="G" unicode="G" horiz-adv-x="619" 
d="M574 110q0 -26 -10.5 -42t-22.5 -24q-36 -26 -94 -40.5t-121 -14.5q-78 0 -134 26t-92 74t-53 115.5t-17 151.5q0 83 21.5 150.5t62.5 115.5t99.5 74.5t133.5 26.5q18 0 39 -1.5t42 -4.5t39.5 -7.5t32.5 -11.5q17 -9 27.5 -21.5t10.5 -32.5q0 -29 -16.5 -47t-44.5 -18
q-8 0 -23.5 2t-31.5 4q-20 3 -41.5 4.5t-38.5 1.5q-45 0 -76.5 -17.5t-51 -48.5t-28 -74.5t-8.5 -94.5q0 -49 8 -91.5t26.5 -74.5t49.5 -50.5t77 -18.5q21 0 36 2t35 6q11 2 16.5 8t5.5 12v124h-58q-35 0 -51.5 20t-16.5 46q0 24 17 44.5t51 20.5h127q32 0 52.5 -19.5
t20.5 -51.5v-223v0z" />
    <glyph glyph-name="H" unicode="H" horiz-adv-x="646" 
d="M586 69q0 -36 -20 -55.5t-51 -19.5t-51.5 19.5t-20.5 55.5v225h-241v-225q0 -36 -20 -55.5t-51 -19.5t-51 19.5t-20 55.5v574q0 36 20 55.5t51 19.5t51 -19.5t20 -55.5v-218h241v218q0 36 20 55.5t51 19.5t51.5 -19.5t20.5 -55.5v-574v0z" />
    <glyph glyph-name="I" unicode="I" horiz-adv-x="262" 
d="M202 69q0 -36 -20 -55.5t-51 -19.5t-51 19.5t-20 55.5v574q0 36 20 55.5t51 19.5t51 -19.5t20 -55.5v-574v0z" />
    <glyph glyph-name="J" unicode="J" horiz-adv-x="430" 
d="M370 196q0 -62 -18 -102.5t-47 -63.5t-64.5 -32t-71.5 -9q-32 0 -69.5 5t-63.5 20q-17 10 -26.5 24t-9.5 35q0 29 16.5 46.5t45.5 17.5q24 0 51 -8q14 -4 28.5 -6.5t27.5 -2.5q21 0 33 8.5t18 21t7 27.5t1 28v438q0 36 20 55.5t51 19.5t51 -19.5t20 -55.5v-447v0z" />
    <glyph glyph-name="K" unicode="K" horiz-adv-x="587" 
d="M557 58q0 -33 -21.5 -48.5t-47.5 -15.5q-28 0 -45.5 13t-37.5 40l-203 272v-256q0 -29 -19.5 -49t-51.5 -20q-31 0 -51 18.5t-20 50.5v584q0 30 19.5 50.5t51.5 20.5q31 0 51 -19t20 -52v-251l217 285q11 15 27 26t39 11q28 0 46.5 -18t18.5 -47q0 -17 -9 -34.5
t-27 -39.5l-172 -212l186 -243q14 -17 21.5 -33t7.5 -33z" />
    <glyph glyph-name="L" unicode="L" horiz-adv-x="459" 
d="M449 67q0 -26 -17.5 -46.5t-50.5 -20.5h-248q-35 0 -54 21t-19 56v566q0 36 20 55.5t51 19.5t51 -19.5t20 -55.5v-512h179q35 0 51.5 -20.5t16.5 -43.5z" />
    <glyph glyph-name="M" unicode="M" horiz-adv-x="889" 
d="M839 63q0 -32 -20 -50.5t-48 -18.5q-71 0 -74 67l-25 470h-2l-145 -479q-7 -23 -26.5 -40.5t-57.5 -17.5t-58 17.5t-27 40.5l-138 478h-2l-24 -464q-3 -72 -74 -72q-28 0 -48 18.5t-20 50.5q0 4 0.5 13t1.5 17l49 538q1 14 8 29.5t19.5 28t31.5 21t45 8.5
q54 0 80.5 -23.5t35.5 -56.5l121 -448h2l136 447q4 15 12.5 29.5t22 26t33 18.5t46.5 7q25 0 43 -8.5t30 -21t18.5 -28t7.5 -29.5l44 -536q1 -10 1.5 -19t0.5 -13z" />
    <glyph glyph-name="N" unicode="N" horiz-adv-x="666" 
d="M606 62q0 -37 -22 -52.5t-52 -15.5q-29 0 -49.5 9.5t-33.5 31.5l-256 431h-2v-397q0 -36 -17.5 -55.5t-48.5 -19.5t-48 19.5t-17 55.5v575q0 39 23.5 56.5t56.5 17.5q38 0 55.5 -13.5t28.5 -32.5l250 -426h2v397q0 36 17 55.5t48 19.5t48 -19.5t17 -55.5v-581v0z" />
    <glyph glyph-name="O" unicode="O" horiz-adv-x="662" 
d="M632 356q0 -79 -16.5 -146.5t-53.5 -116.5t-95 -76.5t-140 -27.5t-138.5 27.5t-92 76.5t-51 116.5t-15.5 146.5t17 146.5t53.5 116.5t94 76.5t139.5 27.5q81 0 137.5 -28t92.5 -77.5t52 -116.5t16 -145zM484 357q0 53 -7 96t-24 73t-47 46t-75 16t-75 -16t-47 -46
t-24 -73t-7 -96q0 -54 6.5 -97t24 -73.5t47 -46.5t75.5 -16t75.5 16.5t47 46.5t24 73t6.5 97z" />
    <glyph glyph-name="P" unicode="P" horiz-adv-x="557" 
d="M527 489q0 -111 -59.5 -168.5t-162.5 -57.5h-103v-194q0 -36 -20 -55.5t-51 -19.5t-51 19.5t-20 55.5v569q0 34 19.5 54t54.5 20h165q118 0 173 -58t55 -165zM379 488q0 48 -20 73.5t-70 25.5h-87v-199h87q51 0 70.5 25.5t19.5 74.5z" />
    <glyph glyph-name="Q" unicode="Q" horiz-adv-x="662" 
d="M673 63q0 -24 -17 -43.5t-49 -19.5h-279q-81 0 -138 26.5t-92.5 74.5t-51.5 114.5t-16 145.5t17 145.5t53.5 114.5t94 75t139.5 27q79 0 135.5 -26t92.5 -72t53 -109.5t17 -137.5q0 -78 -21 -144.5t-72 -111.5l2 -2q39 6 67 6q35 0 50 -19.5t15 -43.5zM484 362
q0 53 -7 95t-24 71t-47 44.5t-75 15.5t-74.5 -15.5t-47 -44.5t-24.5 -71t-7 -95q0 -54 6.5 -96t24 -71.5t47 -44.5t75.5 -15q44 0 73.5 16.5t47 46.5t25 71.5t7.5 92.5z" />
    <glyph glyph-name="R" unicode="R" horiz-adv-x="565" 
d="M530 62q0 -33 -20 -50t-46 -17q-29 0 -44 10t-25 29l-134 257h-59v-222q0 -36 -20 -55.5t-51 -19.5t-51 19.5t-20 55.5v569q0 35 19 54.5t55 19.5h153q112 0 172.5 -49.5t60.5 -159.5q0 -72 -33 -123t-94 -68l124 -210q13 -22 13 -40zM372 502q0 45 -20 65t-62 20h-88
v-175h88q44 0 63 23.5t19 66.5z" />
    <glyph glyph-name="S" unicode="S" horiz-adv-x="516" 
d="M481 199q0 -50 -18 -89t-50 -66t-75.5 -41t-94.5 -14q-42 0 -87 4.5t-77 21.5q-20 11 -32 27t-12 39q0 30 18.5 48.5t48.5 18.5q11 0 26.5 -3t33.5 -8q17 -5 38 -8.5t38 -3.5q47 0 72 16.5t25 52.5q0 18 -7 31.5t-23.5 27.5t-43.5 30t-68 40q-27 16 -54 34t-48 41
t-34.5 52.5t-13.5 67.5q0 50 17.5 88.5t49 64.5t74 39t93.5 13q35 0 68.5 -3.5t59.5 -14.5q23 -10 36.5 -25t13.5 -39q0 -30 -18 -48.5t-48 -18.5q-11 0 -24 2t-28 5q-16 3 -29.5 4.5t-27.5 1.5q-18 0 -35 -2t-30 -9t-21 -19t-8 -32q0 -32 33.5 -55.5t88.5 -52.5
q30 -16 61 -35.5t55.5 -45.5t40.5 -60t16 -77z" />
    <glyph glyph-name="T" unicode="T" horiz-adv-x="526" 
d="M511 647q0 -25 -15.5 -45.5t-49.5 -20.5h-112v-512q0 -36 -20 -55.5t-51 -19.5t-51 19.5t-20 55.5v512h-112q-35 0 -50 20.5t-15 45.5t17 45t48 20h366q31 0 48 -20t17 -45z" />
    <glyph glyph-name="U" unicode="U" horiz-adv-x="661" 
d="M606 266q0 -63 -17 -114t-51.5 -87t-86.5 -56t-122 -20q-71 0 -122.5 19.5t-85.5 55.5t-50 87.5t-16 114.5v377q0 36 20 55.5t51 19.5t51 -19.5t20 -55.5v-382q0 -71 31 -106.5t103 -35.5q70 0 101.5 37t31.5 105v382q0 36 20 55.5t51 19.5t51 -19.5t20 -55.5v-377v0z
" />
    <glyph glyph-name="V" unicode="V" horiz-adv-x="633" 
d="M618 654q0 -12 -3 -22t-5 -15l-192 -545q-11 -32 -36.5 -55t-70.5 -23t-70.5 22.5t-36.5 55.5l-181 545q-5 14 -6.5 22t-1.5 16q0 28 21 45.5t48 17.5q29 0 48 -14t26 -36l157 -520h1l168 519q8 23 23.5 37t44.5 14t47.5 -17.5t18.5 -46.5z" />
    <glyph glyph-name="W" unicode="W" horiz-adv-x="940" 
d="M910 659q0 -17 -5 -39l-133 -548q-8 -31 -30.5 -54.5t-69.5 -23.5q-42 0 -67 21.5t-33 51.5l-103 426h-2l-121 -426q-8 -30 -33.5 -51.5t-67.5 -21.5q-46 0 -70 23.5t-30 54.5l-111 549q-2 10 -3 16.5t-1 17.5q0 23 18 43t50 20q34 0 53.5 -18t24.5 -50l77 -477h2
l138 488q8 26 27 41.5t54 15.5t54 -15.5t25 -41.5l117 -488h2l101 476q7 32 24.5 50.5t50.5 18.5q32 0 47 -18t15 -41z" />
    <glyph glyph-name="X" unicode="X" horiz-adv-x="622" 
d="M597 60q0 -29 -20.5 -47.5t-51.5 -18.5q-38 0 -60 32l-155 231l-156 -231q-22 -32 -59 -32q-32 0 -51 18.5t-19 47.5q0 15 5 28t11 21l185 257l-173 241q-16 21 -16 42q0 32 21 50.5t51 18.5q21 0 36.5 -10.5t25.5 -24.5l140 -208l138 207q11 15 26 25.5t36 10.5
q30 0 51 -18.5t21 -49.5q0 -22 -16 -43l-173 -241l186 -257q6 -8 11.5 -21t5.5 -28z" />
    <glyph glyph-name="Y" unicode="Y" horiz-adv-x="568" 
d="M558 650q0 -24 -15 -46l-188 -270v-270q0 -27 -16.5 -48.5t-54.5 -21.5t-54.5 21.5t-16.5 48.5v270l-189 270q-14 20 -14 45q0 29 19 49t48 20q40 0 60 -29l147 -217l147 217q20 29 59 29q30 0 49 -20t19 -48z" />
    <glyph glyph-name="Z" unicode="Z" horiz-adv-x="563" 
d="M528 63q0 -27 -18 -45t-51 -18h-347q-39 0 -58 19.5t-19 49.5q0 28 18 58l283 460h-220q-33 0 -51 16t-18 46q0 27 18 45t51 18h319q41 0 58.5 -21.5t17.5 -45.5q0 -20 -5 -34.5t-13 -27.5l-284 -458h250q33 0 51 -16t18 -46z" />
    <glyph glyph-name="bracketleft" unicode="[" horiz-adv-x="287" 
d="M277 -90q0 -29 -14.5 -41.5t-35.5 -12.5h-97q-32 0 -51 18.5t-19 49.5v731q0 32 19 50t51 18h96q22 0 36.5 -12.5t14.5 -41.5t-14.5 -41.5t-35.5 -12.5h-46v-651h45q22 0 36.5 -12.5t14.5 -41.5z" />
    <glyph glyph-name="backslash" unicode="\" horiz-adv-x="424" 
d="M404 41q0 -23 -16.5 -37.5t-40.5 -14.5q-23 0 -34.5 9.5t-18.5 25.5l-266 619q-5 11 -6.5 18.5t-1.5 9.5q0 23 16 37.5t40 14.5q23 0 35 -9.5t19 -25.5l266 -619q5 -11 6.5 -18.5t1.5 -9.5z" />
    <glyph glyph-name="bracketright" unicode="]" horiz-adv-x="287" 
d="M227 -76q0 -31 -19 -49.5t-50 -18.5h-97q-22 0 -36.5 12.5t-14.5 41.5t14.5 41.5t36.5 12.5h45v651h-45q-22 0 -36.5 12.5t-14.5 41.5t14.5 41.5t36.5 12.5h97q31 0 50 -18t19 -50v-731v0z" />
    <glyph glyph-name="asciicircum" unicode="^" 
d="M523 348q0 -20 -14.5 -31t-34.5 -11q-36 0 -50 27l-130 240l-130 -240q-14 -27 -50 -27q-20 0 -34.5 11t-14.5 31q0 9 3.5 18.5t9.5 20.5l166 302q8 16 22 22.5t28 6.5t28 -6.5t22 -22.5l166 -302q6 -11 9.5 -20.5t3.5 -18.5z" />
    <glyph glyph-name="underscore" unicode="_" horiz-adv-x="498" 
d="M528 -100q0 -12 -8.5 -18.5t-20.5 -6.5h-500q-12 0 -20.5 6.5t-8.5 18.5t8.5 18.5t20.5 6.5h500q12 0 20.5 -6.5t8.5 -18.5z" />
    <glyph glyph-name="quoteleft" unicode="&#x2018;" horiz-adv-x="245" 
d="M230 661q0 -11 -4 -21t-9 -19l-81 -147q-18 -33 -55 -33q-26 0 -46 18.5t-20 43.5q0 11 4 21t9 19l81 147q18 33 55 33q26 0 46 -18.5t20 -43.5z" />
    <glyph glyph-name="a" unicode="a" horiz-adv-x="520" 
d="M475 83q0 -14 -1.5 -29.5t-8 -29t-19.5 -22t-37 -8.5q-27 0 -41.5 14.5t-16.5 37.5l-1 10q-19 -30 -57.5 -49t-94.5 -19q-32 0 -62 7.5t-53.5 25.5t-38 48t-14.5 75q0 37 13 67.5t40.5 53t70 35.5t102.5 15l82 3v16q0 48 -24.5 68t-77.5 20q-19 0 -31.5 -1.5t-26.5 -3.5
t-26.5 -4t-26.5 -2q-27 0 -41.5 15t-14.5 42q0 17 9 30t25 21q26 14 67.5 18.5t86.5 4.5q116 0 167 -54t51 -157v-248zM338 231l-73 -3q-57 -2 -79.5 -20t-22.5 -54t22 -51t50 -15q44 0 73.5 23t29.5 79v41z" />
    <glyph glyph-name="b" unicode="b" horiz-adv-x="582" 
d="M552 269q0 -58 -15 -109t-43.5 -89t-71 -60t-96.5 -22q-17 0 -36.5 3.5t-39 11.5t-37 21t-30.5 31h-1l-2 -9q-6 -26 -23.5 -39.5t-43.5 -13.5q-30 0 -49 21t-19 56v623q0 35 19 55.5t49 20.5t49.5 -20.5t19.5 -55.5v-216h2q29 34 68.5 49.5t77.5 15.5q64 0 107 -23.5
t68.5 -62t36 -88t10.5 -100.5zM410 264q0 33 -5 62.5t-17 52t-33 35.5t-53 13q-25 0 -46.5 -8.5t-38 -24.5t-26 -40.5t-9.5 -55.5v-62q0 -26 9 -49t24.5 -39.5t36.5 -26t46 -9.5q31 0 52.5 12t35 32.5t19 48t5.5 59.5z" />
    <glyph glyph-name="c" unicode="c" horiz-adv-x="456" 
d="M436 69q0 -27 -16.5 -42.5t-40.5 -24t-51 -11t-48 -2.5q-64 0 -111 21t-78 58.5t-46 87.5t-15 109q0 61 17 112t50 88t80.5 57.5t109.5 20.5q21 0 46.5 -3t48 -11t37.5 -23t15 -39t-16 -41t-42 -17q-6 0 -17 1.5t-23 3.5t-22 3t-21 1q-34 0 -58 -12t-39 -32.5t-22 -48.5
t-7 -60q0 -30 7 -57.5t21.5 -48.5t38 -33.5t56.5 -12.5q11 0 23 1t23 3q31 6 47 6q20 0 36.5 -14t16.5 -40z" />
    <glyph glyph-name="d" unicode="d" horiz-adv-x="582" 
d="M537 71q0 -35 -19 -56t-49 -21q-26 0 -43.5 13.5t-23.5 39.5l-2 8h-2q-13 -17 -31 -29.5t-37.5 -20.5t-39.5 -12t-38 -4q-63 0 -105.5 23.5t-68.5 62t-37 88t-11 101.5q0 58 14.5 108.5t43 88.5t70 60t96.5 22q38 0 78.5 -15.5t65.5 -50.5h2v217q0 35 19.5 55.5
t49.5 20.5t49 -20.5t19 -55.5v-623zM401 301q0 28 -9.5 50t-25 37.5t-37 24t-45.5 8.5q-33 0 -54.5 -13t-34.5 -35.5t-18 -53t-5 -66.5q0 -31 6.5 -58t19.5 -46.5t33.5 -31t48.5 -11.5q25 0 47 8t38.5 23.5t26 37.5t9.5 51v75z" />
    <glyph glyph-name="e" unicode="e" horiz-adv-x="532" 
d="M502 309q0 -18 -2 -33t-9 -26.5t-19 -18t-33 -6.5h-269q2 -31 14.5 -53t31 -36.5t41 -21t44.5 -6.5q16 0 34 1t35 4q11 2 22 3t19 1q26 0 42 -16t16 -42q0 -21 -12 -33q-21 -22 -60.5 -29.5t-99.5 -7.5q-61 0 -110 19t-84 54.5t-54 86.5t-19 116q0 60 13.5 111t43 88
t75.5 58t112 21q58 0 101 -17.5t71.5 -48.5t42 -74t13.5 -94zM367 318q0 28 -4 50.5t-14.5 38t-29.5 23.5t-49 8q-55 0 -78.5 -32.5t-24.5 -87.5h200z" />
    <glyph glyph-name="f" unicode="f" horiz-adv-x="345" 
d="M366 705q0 -20 -11.5 -35.5t-31.5 -18.5q-9 -2 -27 -2.5t-27 -0.5q-17 0 -28 -9.5t-11 -28.5v-78h47q31 0 50 -14t19 -46q0 -31 -19.5 -45t-49.5 -14h-47v-342q0 -35 -19 -56t-49 -21t-49.5 21t-19.5 56v342h-33q-28 0 -44 16t-16 43q0 26 17 43t43 17h33v86
q0 42 12.5 71t34.5 47.5t51 26.5t61 8q27 0 49.5 -4t37.5 -12q27 -15 27 -50z" />
    <glyph glyph-name="g" unicode="g" horiz-adv-x="552" 
d="M547 481q0 -20 -13 -31t-33 -11h-34q13 -17 17 -38t4 -44q0 -89 -57 -132t-166 -43q-23 0 -42 2t-37 6q-6 -4 -8.5 -12t-2.5 -19q0 -6 1.5 -12.5t6.5 -12t15 -8.5t27 -3h99q55 0 92.5 -9t60 -27t32 -44.5t9.5 -60.5q0 -43 -16.5 -79.5t-49.5 -63.5t-83 -42t-117 -15
q-63 0 -105.5 12t-68.5 33.5t-37 51.5t-11 66q0 37 14.5 70.5t43.5 57.5q-16 17 -21.5 35.5t-5.5 41.5q0 21 7.5 43.5t27.5 37.5q-31 22 -45 53t-14 80q0 33 10.5 65t35 57.5t66 41t103.5 15.5q32 0 65 -3.5t56 -11.5h122q29 0 40.5 -13.5t11.5 -33.5zM359 361
q0 49 -26.5 66.5t-68.5 17.5t-68.5 -17.5t-26.5 -66.5q0 -48 26.5 -64t68.5 -16q21 0 38.5 3t30 12t19.5 24.5t7 40.5zM384 -30q0 26 -16.5 38.5t-68.5 12.5h-118q-12 -8 -18.5 -25t-6.5 -37q0 -16 4 -29t15.5 -22.5t31 -14.5t50.5 -5q127 0 127 82z" />
    <glyph glyph-name="h" unicode="h" horiz-adv-x="557" 
d="M512 71q0 -35 -19 -56t-49 -21t-49.5 21t-19.5 56v254q0 45 -17 71t-61 26q-19 0 -39 -4.5t-37 -13t-28 -20.5t-11 -27v-286q0 -35 -19 -56t-50 -21q-30 0 -49 21t-19 56v623q0 35 19 55.5t49 20.5q31 0 50 -20.5t19 -55.5v-198q41 26 78 36.5t79 10.5q77 0 125 -46
t48 -136v-290v0z" />
    <glyph glyph-name="i" unicode="i" horiz-adv-x="240" 
d="M195 684q0 -42 -20 -64t-55 -22q-33 0 -54 22t-21 63q0 39 21 61t54 22t54 -21.5t21 -60.5zM189 71q0 -35 -19 -56t-50 -21q-30 0 -49 21t-19 56v390q0 35 19 56t49 21q31 0 50 -21t19 -56v-390z" />
    <glyph glyph-name="j" unicode="j" horiz-adv-x="240" 
d="M195 684q0 -42 -20 -64t-55 -22q-33 0 -54 22t-21 63q0 39 21 61t54 22t54 -21.5t21 -60.5zM188 17q0 -66 -18.5 -113t-60.5 -86q-22 -20 -41 -28.5t-36 -8.5q-33 0 -48 19t-15 44q0 16 7.5 29t18.5 24q18 18 29.5 33t17.5 31.5t8 36t2 45.5v418q0 35 19 56t49 21t49 -21
t19 -56v-444z" />
    <glyph glyph-name="k" unicode="k" horiz-adv-x="503" 
d="M483 59q0 -29 -19 -44.5t-45 -15.5q-20 0 -36.5 10t-34.5 31l-166 198v-167q0 -35 -19 -56t-50 -21q-30 0 -49 21t-19 56v623q0 35 19 55.5t49 20.5q31 0 50 -20.5t19 -55.5v-348l178 169q9 8 21.5 15.5t32.5 7.5q25 0 44 -16t19 -44q0 -18 -9.5 -33t-32.5 -35l-137 -116
l157 -173q15 -17 21.5 -31t6.5 -31z" />
    <glyph glyph-name="l" unicode="l" horiz-adv-x="227" 
d="M182 71q0 -35 -19 -56t-49 -21t-49.5 21t-19.5 56v623q0 35 19.5 55.5t49.5 20.5t49 -20.5t19 -55.5v-623v0z" />
    <glyph glyph-name="m" unicode="m" horiz-adv-x="853" 
d="M808 71q0 -35 -19.5 -56t-49.5 -21q-31 0 -49.5 21t-18.5 56v255q0 44 -14 70t-57 26q-20 0 -39 -5t-33.5 -13t-23.5 -18.5t-9 -21.5v-293q0 -35 -19 -56t-50 -21t-49.5 21t-18.5 56v255q0 44 -14 70t-57 26q-45 0 -75 -18.5t-30 -43.5v-289q0 -35 -19 -56t-50 -21
q-30 0 -49 21t-19 56v390q0 35 19 56t49 21q26 0 43.5 -14t19.5 -35v-3q35 30 77 43.5t77 13.5q45 0 80 -16t56 -50q43 36 87 51t90 15q74 0 119.5 -45.5t45.5 -136.5v-290v0z" />
    <glyph glyph-name="n" unicode="n" horiz-adv-x="557" 
d="M512 71q0 -35 -19 -56t-49 -21t-49.5 21t-19.5 56v254q0 45 -17 71t-61 26q-21 0 -41.5 -5t-37 -13.5t-26.5 -20.5t-10 -26v-286q0 -35 -19 -56t-50 -21q-30 0 -49 21t-19 56v390q0 35 19 56t49 21q26 0 44 -15t18 -34v-2q34 29 77 42.5t87 13.5q77 0 125 -46t48 -136
v-290v0z" />
    <glyph glyph-name="o" unicode="o" horiz-adv-x="551" 
d="M521 265q0 -129 -61.5 -202.5t-184.5 -73.5q-128 0 -186.5 73.5t-58.5 202.5q0 63 16 114t46.5 87.5t76.5 56.5t106 20q64 0 110.5 -20t76.5 -56.5t44.5 -87.5t14.5 -114zM386 265q0 33 -5 61.5t-18 49.5t-34 33t-54 12q-32 0 -53.5 -12t-34 -33t-17.5 -49.5t-5 -61.5
q0 -32 5 -60.5t18 -49.5t34 -33t53 -12t53.5 12t34 33t18 49.5t5.5 60.5z" />
    <glyph glyph-name="p" unicode="p" horiz-adv-x="582" 
d="M552 268q0 -58 -14.5 -108.5t-42.5 -88.5t-70 -60t-96 -22q-19 0 -39.5 3.5t-40 11.5t-36.5 20.5t-29 30.5h-2v-196q0 -35 -19.5 -56t-49.5 -21t-49 21t-19 56v602q0 35 19 56t49 21q26 0 43.5 -13.5t23.5 -39.5l2 -8h2q13 17 31 29.5t37.5 20.5t39.5 12t38 4
q63 0 105.5 -23.5t68.5 -62t37 -88t11 -101.5zM410 279q0 31 -6.5 58t-19.5 46.5t-33.5 31t-48.5 11.5q-25 0 -46.5 -8t-38 -23.5t-26 -38t-9.5 -50.5v-75q0 -28 9 -50t25 -37.5t37 -24t45 -8.5q33 0 54.5 12.5t34.5 35t18 53.5t5 67z" />
    <glyph glyph-name="q" unicode="q" horiz-adv-x="582" 
d="M537 -141q0 -35 -19 -56t-49 -21t-49.5 21t-19.5 56v195h-2q-29 -34 -68.5 -49.5t-77.5 -15.5q-64 0 -107 23.5t-68.5 62t-36 88t-10.5 100.5q0 58 15 109t43.5 89t71 60t96.5 22q35 0 76 -15t67 -52h1l2 9q6 26 23.5 39.5t43.5 13.5q30 0 49 -21t19 -56v-602zM401 296
q0 26 -9 49t-25 39.5t-37 26t-46 9.5q-32 0 -53 -12t-34.5 -32.5t-19 -48t-5.5 -59.5q0 -33 5 -62.5t17 -52t33 -35.5t53 -13q25 0 47 8.5t38.5 24.5t26 40t9.5 56v62z" />
    <glyph glyph-name="r" unicode="r" horiz-adv-x="386" 
d="M381 474q0 -38 -20 -53.5t-64 -20.5q-31 -3 -53 -9t-35.5 -17t-20 -28t-6.5 -42v-233q0 -35 -19 -56t-49 -21q-31 0 -50 21t-19 56v395q0 35 19 56t50 21q30 0 49 -21t19 -50v-5h2q27 39 58 54.5t69 15.5q29 0 49.5 -16.5t20.5 -46.5z" />
    <glyph glyph-name="s" unicode="s" horiz-adv-x="438" 
d="M408 155q0 -74 -51 -120t-145 -46q-39 0 -76 3.5t-63 14.5q-20 8 -31.5 21.5t-11.5 35.5q0 26 18 41.5t47 15.5q8 0 17 -1.5t20 -3.5q14 -3 32.5 -5.5t43.5 -2.5q61 0 61 35q0 22 -24 37t-57 32q-25 12 -51.5 26.5t-48.5 34.5t-36 46.5t-14 62.5q0 73 47.5 117.5
t135.5 44.5q34 0 69 -4.5t61 -16.5q18 -8 28.5 -20.5t10.5 -32.5q0 -28 -16 -43.5t-42 -15.5q-10 0 -20.5 1.5t-22.5 3.5q-17 3 -34.5 5.5t-35.5 2.5q-51 0 -51 -32q0 -22 24.5 -37.5t59.5 -32.5q26 -12 53.5 -27t50.5 -34.5t37.5 -45t14.5 -60.5z" />
    <glyph glyph-name="t" unicode="t" horiz-adv-x="370" 
d="M355 472q0 -31 -19 -45t-46 -14h-41v-337q0 -35 -19 -56t-50 -21q-30 0 -49 21t-19 56v337h-38q-28 0 -43.5 16t-15.5 43q0 26 16.5 43t42.5 17h38v89q0 35 19 56t50 21q30 0 49 -21t19 -56v-89h41q27 0 46 -14t19 -46z" />
    <glyph glyph-name="u" unicode="u" horiz-adv-x="557" 
d="M512 200q0 -96 -60 -153.5t-174 -57.5t-173.5 57.5t-59.5 153.5v261q0 35 19 56t49 21t49 -21t19 -56v-266q0 -47 27 -67.5t70 -20.5q44 0 70.5 20.5t26.5 67.5v266q0 35 19 56t49 21t49.5 -21t19.5 -56v-261v0z" />
    <glyph glyph-name="v" unicode="v" horiz-adv-x="491" 
d="M476 472q0 -10 -2.5 -18.5t-7.5 -21.5l-147 -381q-11 -27 -28.5 -42t-52.5 -15t-52.5 14.5t-26.5 40.5l-136 385q-5 12 -6.5 21t-1.5 18q0 32 22.5 48.5t50.5 16.5t41.5 -17t18.5 -34l92 -320h2l101 322q5 17 18.5 33t42.5 16q28 0 50 -17t22 -49z" />
    <glyph glyph-name="w" unicode="w" horiz-adv-x="763" 
d="M733 476q0 -14 -3 -28t-8 -35l-93 -357q-16 -62 -87 -62q-69 0 -86 65l-75 278h-2l-82 -279q-9 -31 -28.5 -47.5t-52.5 -16.5q-38 0 -58.5 15t-28.5 47l-88 357q-5 21 -8 35t-3 29q0 26 20 43.5t49 17.5q28 0 46.5 -15.5t22.5 -39.5l53 -310h2l82 308q8 28 28 42.5
t49 14.5q30 0 52 -14.5t29 -42.5l74 -308h2l62 310q5 24 23 39.5t45 15.5q30 0 47 -17.5t17 -44.5z" />
    <glyph glyph-name="x" unicode="x" horiz-adv-x="528" 
d="M503 60q0 -29 -19 -47.5t-48 -18.5q-23 0 -35 8.5t-23 22.5l-114 142l-115 -142q-11 -14 -22.5 -22.5t-34.5 -8.5q-30 0 -48.5 18.5t-18.5 47.5q0 12 5.5 24.5t13.5 22.5l135 162l-127 153q-9 11 -15 24t-6 26t6 25t15.5 21t22 14.5t25.5 5.5q17 0 29 -7t23 -21l112 -139
l111 139q11 14 23 21t29 7q13 0 25.5 -5.5t22.5 -14.5t16 -21t6 -25t-6.5 -26t-14.5 -24l-128 -153l135 -162q8 -10 14 -22.5t6 -24.5z" />
    <glyph glyph-name="y" unicode="y" horiz-adv-x="507" 
d="M492 479q0 -11 -2 -19t-5 -16l-245 -618q-9 -23 -25 -36t-44 -13q-22 0 -43 15t-21 44q0 11 2 19t5 16l67 168l-159 404q-3 8 -5 16.5t-2 19.5q0 26 19.5 42.5t44.5 16.5q28 0 44.5 -13t24.5 -36l101 -284h2l107 284q19 49 69 49q26 0 45.5 -16.5t19.5 -42.5z" />
    <glyph glyph-name="z" unicode="z" horiz-adv-x="481" 
d="M461 60q0 -29 -18 -44.5t-44 -15.5h-303q-34 0 -52.5 16.5t-18.5 49.5q0 17 7 32t15 26l221 288h-175q-26 0 -44.5 15.5t-18.5 44.5t18.5 44.5t44.5 15.5h289q7 0 18 -2t21 -8.5t17.5 -18t7.5 -30.5q0 -20 -6.5 -34.5t-17.5 -28.5l-221 -290h198q26 0 44 -15.5t18 -44.5z
" />
    <glyph glyph-name="braceleft" unicode="{" horiz-adv-x="351" 
d="M346 -90q0 -29 -15.5 -41.5t-37.5 -12.5h-53q-65 0 -99.5 31t-34.5 101v171q0 24 -3.5 38t-10 21.5t-15.5 10.5t-19 4q-22 2 -37.5 14.5t-15.5 41.5t15.5 41.5t36.5 14.5q10 1 19 4t15.5 11t10.5 22t4 38v162q0 75 37 108t106 33h44q22 0 37.5 -12.5t15.5 -41.5
t-15.5 -41.5t-36.5 -12.5h-28q-21 0 -30.5 -12.5t-9.5 -43.5v-163q0 -27 -8.5 -46.5t-21.5 -32t-27.5 -19t-27.5 -7.5v-2q12 -2 27 -8.5t28 -19t21.5 -32t8.5 -46.5v-163q0 -31 9.5 -43.5t30.5 -12.5h28q21 0 36.5 -12.5t15.5 -41.5z" />
    <glyph glyph-name="bar" unicode="|" horiz-adv-x="235" 
d="M175 46q0 -26 -15.5 -41.5t-42.5 -15.5q-26 0 -41.5 15.5t-15.5 41.5v666q0 26 15.5 42t41.5 16q27 0 42.5 -16t15.5 -42v-666v0z" />
    <glyph glyph-name="braceright" unicode="}" horiz-adv-x="351" 
d="M346 291q0 -29 -15.5 -41.5t-36.5 -14.5q-10 -1 -19 -4t-15.5 -11t-10.5 -22t-4 -38v-162q0 -75 -37 -108t-106 -33h-44q-22 0 -37.5 12.5t-15.5 41.5t15.5 41.5t36.5 12.5h28q21 0 30.5 12.5t9.5 43.5v163q0 27 8.5 46.5t21 32t27.5 19t28 7.5v2q-12 1 -27 8t-28 19.5
t-21.5 32t-8.5 46.5v163q0 31 -9.5 43.5t-30.5 12.5h-28q-21 0 -36.5 12.5t-15.5 41.5t15.5 41.5t37.5 12.5h53q65 0 99.5 -31t34.5 -101v-171q0 -24 3.5 -38t10 -21.5t15.5 -10.5t19 -4q22 -2 37.5 -14.5t15.5 -41.5z" />
    <glyph glyph-name="asciitilde" unicode="~" 
d="M552 288q0 -22 -10.5 -44.5t-30 -40.5t-47.5 -29.5t-64 -11.5q-28 0 -56.5 10t-57.5 24q-27 14 -51.5 24.5t-44.5 10.5q-22 0 -35.5 -9t-27.5 -26q-10 -12 -21 -20t-26 -8q-23 0 -33.5 13.5t-10.5 36.5q0 22 10.5 44.5t30 40.5t47.5 29.5t64 11.5q28 0 56.5 -10t57.5 -24
q27 -14 51.5 -24.5t44.5 -10.5q22 0 35.5 9t27.5 26q10 12 21 20t26 8q23 0 33.5 -13.5t10.5 -36.5z" />
    <glyph glyph-name="exclamdown" unicode="&#xa1;" horiz-adv-x="253" 
d="M198 464q0 -35 -19.5 -55.5t-51.5 -20.5t-52 20t-20 56q0 38 19.5 58.5t52.5 20.5q32 0 51.5 -20.5t19.5 -58.5zM195 -126q0 -30 -19.5 -47.5t-48.5 -17.5t-49 17.5t-20 47.5v389q0 30 20 48t49 18t48.5 -17.5t19.5 -48.5v-389z" />
    <glyph glyph-name="cent" unicode="&#xa2;" 
d="M497 69q0 -24 -13.5 -39t-34 -24t-45 -12.5t-45.5 -4.5v-28q0 -19 -11 -29.5t-28 -10.5t-28 10.5t-11 29.5v32l6 1q-50 8 -87 32t-61 59.5t-36 81.5t-12 98q0 53 13 98.5t38.5 81t62 59.5t84.5 33v39q0 18 11 29t28 11t28 -11t11 -29v-34q21 -1 43.5 -4.5t41 -12t31 -23
t12.5 -35.5q0 -24 -16 -41t-42 -17q-6 0 -17 1.5t-23 3.5t-22 3t-21 1q-34 0 -58 -12t-39 -32.5t-22 -48.5t-7 -60q0 -30 7 -57.5t21.5 -48.5t38 -33.5t56.5 -12.5q11 0 23 1t23 3q31 6 47 6q20 0 36.5 -14t16.5 -40z" />
    <glyph glyph-name="sterling.sc" 
d="M508 61q0 -29 -17.5 -45t-45.5 -16h-284q-27 0 -43 16t-16 43q0 17 8.5 34t20.5 32q13 15 24 35t13 47h-22q-26 0 -45 15.5t-19 45.5q0 25 17 41t47 18q-7 12 -12 28.5t-5 42.5q0 37 14.5 64.5t39 45.5t56 27t65.5 9q180 0 180 -82q0 -26 -18 -42t-45 -16q-24 0 -46 7
t-57 7q-26 0 -42 -11t-16 -36q0 -9 3.5 -17.5t11.5 -25.5h116q26 0 44.5 -15.5t18.5 -44.5t-17.5 -45t-45.5 -16h-94q-1 -25 -12.5 -47.5t-25.5 -38.5h186q26 0 44.5 -16t18.5 -44z" />
    <glyph glyph-name="fraction" unicode="&#x2044;" horiz-adv-x="169" 
d="M302 677q0 -6 -2 -14t-8 -19l-320 -620q-10 -19 -21.5 -27t-28.5 -8q-22 0 -38.5 12.5t-16.5 35.5q0 6 2 14t8 19l320 620q10 19 21.5 27t28.5 8q22 0 38.5 -12.5t16.5 -35.5z" />
    <glyph glyph-name="yen" unicode="&#xa5;" 
d="M569 652q0 -25 -17 -48l-146 -194h100q18 0 30.5 -11t12.5 -29q0 -19 -12 -30t-30 -11h-143v-57h142q18 0 30.5 -11t12.5 -29q0 -19 -12 -30t-30 -11h-142v-128q0 -26 -16.5 -47.5t-54.5 -21.5t-54.5 21.5t-16.5 47.5v128h-142q-18 0 -30.5 11t-12.5 30q0 18 12 29t30 11
h143v57h-142q-18 0 -30.5 11t-12.5 30q0 18 12 29t30 11h101l-146 194q-16 20 -16 45q0 29 19 49t49 20q17 0 33.5 -7.5t25.5 -21.5l147 -217l147 217q20 29 59 29q30 0 50 -19t20 -47z" />
    <glyph glyph-name="florin" unicode="&#x192;" 
d="M543 664q0 -34 -22 -45t-52 -11h-7q-21 0 -30.5 -16t-14.5 -42l-22 -121h40q27 0 45.5 -13t18.5 -42q0 -37 -22 -50.5t-67 -13.5h-37l-63 -348q-7 -39 -20 -71t-33 -55t-49 -35.5t-68 -12.5q-17 0 -32.5 1.5t-29.5 6.5q-14 6 -23 20t-9 34q0 26 16 42t39 16h25q12 0 20 7
t13.5 17.5t9 22.5t5.5 23l61 332h-27q-64 0 -64 58q0 61 70 61h42l28 148q14 72 52.5 111.5t110.5 39.5q18 0 35 -2.5t30.5 -9t22 -19t8.5 -33.5z" />
    <glyph glyph-name="section" unicode="&#xa7;" horiz-adv-x="561" 
d="M506 227q0 -46 -18.5 -83t-47.5 -63q22 -23 36.5 -45.5t14.5 -57.5q0 -47 -18.5 -82.5t-50 -59.5t-73.5 -36t-88 -12q-42 0 -87.5 7.5t-78.5 23.5q-17 8 -28.5 22.5t-11.5 34.5q0 29 15.5 48.5t45.5 19.5q14 0 30 -4t32.5 -9t32.5 -9t31 -4q49 0 75.5 11t26.5 47
q0 16 -11.5 28t-32.5 24.5t-51 28.5t-66 40q-23 16 -45 34.5t-39 41t-27 49t-10 57.5q0 45 18.5 80.5t52.5 58.5q-24 23 -39 56.5t-15 71.5q0 41 16 74t44 56.5t66.5 36t84.5 12.5q36 0 76 -6t68 -20q20 -10 31 -24t11 -35q0 -35 -19 -49t-51 -14q-10 0 -21 2.5t-24 5.5
q-19 5 -35.5 8t-35.5 3q-30 0 -49.5 -11t-19.5 -39q0 -21 23 -45t77 -56q34 -20 67.5 -42t59.5 -48t42 -57.5t16 -70.5zM361 226q0 26 -32 51.5t-86 60.5q-18 -9 -29.5 -24.5t-11.5 -34.5q0 -23 22.5 -45.5t77.5 -55.5l30 -18q29 23 29 66z" />
    <glyph glyph-name="currency" unicode="&#xa4;" horiz-adv-x="522" 
d="M472 278q0 -12 -5 -23.5t-21 -31.5l-94 -115q-16 -19 -30 -30.5t-33 -11.5q-16 0 -27 6t-18 14t-10 16.5t-3 15.5q0 19 8 32t19 26l44 52h-192q-27 0 -43.5 14.5t-16.5 37.5q0 21 16.5 36t43.5 15h192l-44 52q-11 13 -19 26t-8 32q0 7 3 15.5t10 16.5t18 14t27 6
q19 0 33.5 -11t29.5 -30l94 -120q16 -20 21 -31.5t5 -22.5z" />
    <glyph glyph-name="quotesingle" unicode="'" horiz-adv-x="205" 
d="M160 499q0 -26 -15.5 -41.5t-41.5 -15.5t-42 15.5t-16 41.5v167q0 26 16 41.5t42 15.5t41.5 -15.5t15.5 -41.5v-167v0z" />
    <glyph glyph-name="quotedblleft" unicode="&#x201c;" horiz-adv-x="441" 
d="M426 661q0 -11 -4 -21t-9 -19l-81 -147q-18 -33 -55 -33q-26 0 -46 18.5t-20 43.5q0 11 4 21t9 19l81 147q18 33 55 33q26 0 46 -18.5t20 -43.5zM230 661q0 -11 -4 -21t-9 -19l-81 -147q-18 -33 -55 -33q-26 0 -46 18.5t-20 43.5q0 11 4 21t9 19l81 147q18 33 55 33
q26 0 46 -18.5t20 -43.5z" />
    <glyph glyph-name="guillemotleft" unicode="&#xab;" horiz-adv-x="494" 
d="M454 124q0 -24 -15.5 -41.5t-41.5 -17.5q-15 0 -28 6.5t-21 18.5l-100 158q-6 8 -8 17.5t-2 17.5q0 14 7.5 28t15.5 25l95 138q15 18 43 18q26 0 40.5 -16t14.5 -36q0 -19 -11 -37l-80 -123l80 -122q7 -10 9 -18.5t2 -15.5zM256 124q0 -24 -15.5 -41.5t-41.5 -17.5
q-15 0 -28 6.5t-21 18.5l-101 158q-5 8 -7 17.5t-2 17.5q0 14 7.5 28t15.5 25l95 138q15 18 42 18q26 0 41 -16t15 -36q0 -19 -11 -37l-80 -123l80 -122q7 -10 9 -18.5t2 -15.5z" />
    <glyph glyph-name="guilsinglleft" unicode="&#x2039;" horiz-adv-x="291" 
d="M251 121q0 -20 -15 -36t-41 -16q-29 0 -44 21l-93 135q-8 11 -13 25t-5 28t5 28t13 25l93 135q15 21 44 21q26 0 41 -16t15 -36q0 -10 -2 -18.5t-9 -18.5l-81 -120l81 -120q7 -10 9 -18.5t2 -18.5z" />
    <glyph glyph-name="guilsinglright" unicode="&#x203a;" horiz-adv-x="291" 
d="M251 278q0 -14 -5 -28t-13 -25l-93 -135q-15 -21 -44 -21q-26 0 -41 16t-15 36q0 10 2 18.5t9 18.5l81 120l-81 120q-7 10 -9 18.5t-2 18.5q0 20 15 36t41 16q29 0 44 -21l93 -135q8 -11 13 -25t5 -28z" />
    <glyph glyph-name="endash" unicode="&#x2013;" horiz-adv-x="500" 
d="M500 288q0 -26 -15 -41.5t-42 -15.5h-385q-27 0 -42.5 15.5t-15.5 41.5q0 25 15.5 41t42.5 16h385q27 0 42 -16t15 -41z" />
    <glyph glyph-name="dagger" unicode="&#x2020;" horiz-adv-x="627" 
d="M602 438q0 -29 -15 -45t-41 -16h-167v-528q0 -32 -18 -49.5t-48 -17.5q-29 0 -47 17.5t-18 49.5v528h-167q-26 0 -41 16t-15 45q0 28 15 43.5t41 15.5h167v160q0 32 18 49t47 17q30 0 48 -17t18 -49v-159h167q26 0 41 -15.5t15 -44.5z" />
    <glyph glyph-name="daggerdbl" unicode="&#x2021;" horiz-adv-x="627" 
d="M602 68q0 -29 -15 -45t-40 -16h-168v-159q0 -32 -18 -49t-48 -17q-29 0 -47 17t-18 49v159h-168q-25 0 -40 16t-15 45q0 28 15 43.5t40 15.5h168v253h-168q-25 0 -40 15.5t-15 44.5t15 44.5t40 15.5h168v158q0 32 18 49t47 17q30 0 48 -17t18 -49v-158h168q25 0 40 -15.5
t15 -44.5q0 -28 -15 -44t-40 -16h-168v-252h168q25 0 40 -16t15 -44z" />
    <glyph glyph-name="periodcentered" unicode="&#xb7;" horiz-adv-x="261" 
d="M206 286q0 -42 -20 -64t-55 -22q-34 0 -55 22t-21 64q0 39 21 61t55 22q33 0 54 -22t21 -61z" />
    <glyph glyph-name="paragraph" unicode="&#xb6;" horiz-adv-x="640" 
d="M580 -155q0 -26 -15.5 -41.5t-41.5 -15.5t-41.5 15.5t-15.5 41.5v780h-100v-780q0 -26 -15.5 -41.5t-41.5 -15.5t-42 15.5t-16 41.5v475q-53 0 -94.5 15t-69.5 41.5t-42.5 61.5t-14.5 75q0 53 18.5 91t51.5 62t77.5 35t96.5 11h247q29 0 44 -16t15 -43v-808v0z" />
    <glyph glyph-name="bullet" unicode="&#x2022;" horiz-adv-x="506" 
d="M431 356q0 -37 -14 -69.5t-38 -56.5t-56.5 -38t-69.5 -14t-69.5 14t-56.5 38t-38 56.5t-14 69.5t14 69.5t38 56.5t56.5 38t69.5 14t69.5 -14t56.5 -38t38 -56.5t14 -69.5z" />
    <glyph glyph-name="quotesinglbase" unicode="&#x201a;" horiz-adv-x="245" 
d="M230 87q0 -11 -4 -21t-9 -19l-81 -147q-18 -33 -55 -33q-26 0 -46 18.5t-20 43.5q0 11 4 21t9 19l81 147q18 33 55 33q26 0 46 -18.5t20 -43.5z" />
    <glyph glyph-name="quotedblbase" unicode="&#x201e;" horiz-adv-x="441" 
d="M426 87q0 -11 -4 -21t-9 -19l-81 -147q-18 -33 -55 -33q-26 0 -46 18.5t-20 43.5q0 11 4 21t9 19l81 147q18 33 55 33q26 0 46 -18.5t20 -43.5zM230 87q0 -11 -4 -21t-9 -19l-81 -147q-18 -33 -55 -33q-26 0 -46 18.5t-20 43.5q0 11 4 21t9 19l81 147q18 33 55 33
q26 0 46 -18.5t20 -43.5z" />
    <glyph glyph-name="quotedblright" unicode="&#x201d;" horiz-adv-x="441" 
d="M426 661q0 -11 -4 -21t-9 -19l-81 -147q-18 -33 -55 -33q-26 0 -46 18.5t-20 43.5q0 11 4 21t9 19l81 147q18 33 55 33q26 0 46 -18.5t20 -43.5zM230 661q0 -11 -4 -21t-9 -19l-81 -147q-18 -33 -55 -33q-26 0 -46 18.5t-20 43.5q0 11 4 21t9 19l81 147q18 33 55 33
q26 0 46 -18.5t20 -43.5z" />
    <glyph glyph-name="guillemotright" unicode="&#xbb;" horiz-adv-x="494" 
d="M454 274q0 -14 -7.5 -28t-15.5 -25l-95 -138q-16 -18 -42 -18t-41 16t-15 36q0 19 11 37l80 126l-80 119q-7 10 -9 18.5t-2 15.5q0 25 15.5 42t41.5 17q15 0 28 -6.5t21 -18.5l101 -158q5 -8 7 -17t2 -18zM256 274q0 -14 -7.5 -28t-15.5 -25l-96 -138q-12 -18 -42 -18
q-26 0 -40.5 16t-14.5 36q0 19 11 37l79 126l-79 119q-7 10 -9 18.5t-2 15.5q0 25 15.5 42t41.5 17q32 0 48 -25l101 -158q5 -8 7.5 -17t2.5 -18z" />
    <glyph glyph-name="ellipsis" unicode="&#x2026;" horiz-adv-x="927" 
d="M872 75q0 -42 -20.5 -64t-55.5 -22q-33 0 -54 22t-21 64q0 38 21 60.5t54 22.5q34 0 55 -22t21 -61zM539 75q0 -42 -20.5 -64t-55.5 -22q-33 0 -54 22t-21 64q0 38 21 60.5t54 22.5q34 0 55 -22t21 -61zM206 75q0 -42 -20.5 -64t-55.5 -22q-33 0 -54 22t-21 64
q0 38 21 60.5t54 22.5q34 0 55 -22t21 -61z" />
    <glyph glyph-name="perthousand" unicode="&#x2030;" horiz-adv-x="1062" 
d="M1027 151q0 -33 -8 -62.5t-25 -51.5t-43.5 -35t-64.5 -13t-64.5 13t-43.5 35t-25 51.5t-8 62.5t8 63t25 52t43.5 35t64.5 13q37 0 64 -13t44 -35t25 -52t8 -63zM317 560q0 -33 -8 -62.5t-25 -51.5t-43.5 -35t-64.5 -13t-64.5 13t-43.5 35t-25 51.5t-8 62.5t8 63t25 52
t43.5 35t64.5 13q37 0 64 -13t44 -35t25 -52t8 -63zM579 683q0 -14 -4 -24.5t-7 -16.5l-324 -628q-8 -17 -19.5 -24.5t-29.5 -7.5q-19 0 -34.5 11t-15.5 36q0 14 4 24.5t7 16.5l324 628q8 17 19.5 24.5t29.5 7.5q19 0 34.5 -11t15.5 -36zM689 151q0 -33 -8 -62.5t-25 -51.5
t-43.5 -35t-64.5 -13t-64.5 13t-43.5 35t-25 51.5t-8 62.5t8 63t25 52t43.5 35t64.5 13q37 0 64 -13t44 -35t25 -52t8 -63zM938 151q0 15 -1.5 28.5t-7 24t-16 16.5t-27.5 6t-27 -6t-15.5 -16.5t-7 -24t-1.5 -28.5q0 -14 1.5 -27t6.5 -23t15.5 -16t27.5 -6q18 0 28 6
t15.5 16t7 23t1.5 27zM228 560q0 15 -1.5 28.5t-7 24t-16 16.5t-27.5 6t-27 -6t-15.5 -16.5t-7 -24t-1.5 -28.5q0 -14 1.5 -27t6.5 -23t15.5 -16t27.5 -6q18 0 28 6t15.5 16t7 23t1.5 27zM600 151q0 15 -1.5 28.5t-7 24t-16 16.5t-27.5 6t-27 -6t-15.5 -16.5t-7 -24
t-1.5 -28.5q0 -14 1.5 -27t6.5 -23t15.5 -16t27.5 -6q18 0 28 6t15.5 16t7 23t1.5 27z" />
    <glyph glyph-name="questiondown" unicode="&#xbf;" horiz-adv-x="487" 
d="M354 465q0 -35 -19.5 -55.5t-51.5 -20.5t-52 20t-20 56q0 38 19.5 58.5t52.5 20.5q32 0 51.5 -20.5t19.5 -58.5zM467 -86q0 -29 -20 -50q-22 -23 -71 -38.5t-112 -15.5q-47 0 -88 9.5t-71 30.5t-47.5 55t-17.5 83q0 38 8.5 66t23 49.5t32.5 39t36 33.5q23 21 44 43.5
t32 54.5q8 21 21 38.5t43 17.5q32 0 50.5 -18.5t18.5 -47.5q0 -30 -8.5 -53.5t-22 -42.5t-30.5 -35t-33 -30q-27 -23 -47.5 -45t-20.5 -51q0 -28 18.5 -47t70.5 -19q28 0 50 7t43 16q11 5 21.5 6.5t19.5 1.5q25 0 41 -17t16 -41z" />
    <glyph glyph-name="grave" unicode="`" horiz-adv-x="223" 
d="M235 656q0 -22 -15.5 -39.5t-42.5 -17.5q-11 0 -23 5l-122 49q-19 8 -32.5 21t-13.5 36q0 22 15.5 39.5t42.5 17.5q11 0 23 -5l122 -49q19 -8 32.5 -21t13.5 -36z" />
    <glyph glyph-name="acute" unicode="&#xb4;" horiz-adv-x="223" 
d="M237 710q0 -23 -13.5 -36t-32.5 -21l-122 -49q-12 -5 -23 -5q-27 0 -42.5 17.5t-15.5 39.5q0 23 13.5 36t32.5 21l122 49q12 5 23 5q27 0 42.5 -17.5t15.5 -39.5z" />
    <glyph glyph-name="circumflex" unicode="&#x2c6;" horiz-adv-x="223" 
d="M269 658q0 -26 -15.5 -40t-37.5 -14q-8 0 -17.5 2.5t-16.5 5.5l-70 31l-70 -31q-7 -3 -16.5 -5.5t-17.5 -2.5q-22 0 -37.5 14t-15.5 40q0 23 11.5 36t32.5 21l113 44l113 -44q21 -8 32.5 -21t11.5 -36z" />
    <glyph glyph-name="tilde" unicode="&#x2dc;" horiz-adv-x="223" 
d="M286 696q0 -20 -10 -36.5t-25.5 -29.5t-35 -20t-38.5 -7t-35 5.5t-31 12t-28 12t-26 5.5q-12 0 -20 -4.5t-15.5 -10t-16 -10t-20.5 -4.5q-19 0 -32.5 12t-13.5 33q0 19 10 36t25.5 30t35 20t38.5 7t35 -5.5t31 -12t28 -12t26 -5.5q12 0 20 4.5t15.5 10t16 10t20.5 4.5
q19 0 32.5 -12t13.5 -33z" />
    <glyph glyph-name="macron" unicode="&#xaf;" horiz-adv-x="220" 
d="M266 666q0 -28 -17.5 -42.5t-45.5 -14.5h-186q-28 0 -45.5 14.5t-17.5 42.5q0 29 18 43.5t45 14.5h186q28 0 45.5 -14.5t17.5 -43.5z" />
    <glyph glyph-name="breve" unicode="&#x2d8;" horiz-adv-x="223" 
d="M264 713q0 -31 -15 -53t-37.5 -36t-49 -20.5t-50.5 -6.5t-51 6.5t-49.5 20.5t-37 36t-14.5 53q0 21 12.5 33t33.5 12q18 0 28.5 -11t20.5 -26t22.5 -23t34.5 -8q21 0 34 8t23 23t20.5 26t28.5 11q21 0 33.5 -12t12.5 -33z" />
    <glyph glyph-name="dotaccent" unicode="&#x2d9;" horiz-adv-x="223" 
d="M178 673q0 -37 -18 -56t-48 -19q-29 0 -47.5 19t-18.5 56q0 34 18.5 53t47.5 19t47.5 -19t18.5 -53z" />
    <glyph glyph-name="dieresis" unicode="&#xa8;" horiz-adv-x="223" 
d="M288 672q0 -38 -18 -57t-50 -19q-29 0 -48 19.5t-19 56.5q0 35 19 55t48 20q30 0 49 -20t19 -55zM71 672q0 -38 -18 -57t-50 -19q-29 0 -48 19.5t-19 56.5q0 35 19 55t48 20q30 0 49 -20t19 -55z" />
    <glyph glyph-name="ring" unicode="&#x2da;" horiz-adv-x="223" 
d="M210 678q0 -48 -28.5 -73t-69.5 -25t-69.5 25t-28.5 74q0 48 28.5 73t69.5 25t69.5 -25t28.5 -74zM157 678q0 26 -13 38t-32 12t-32 -11.5t-13 -37.5t13 -38t32 -12t32 11.5t13 37.5z" />
    <glyph glyph-name="cedilla" unicode="&#xb8;" horiz-adv-x="223" 
d="M240 -121q0 -24 -10 -41t-26 -28.5t-35.5 -17t-38.5 -5.5q-16 0 -32 1.5t-29 6t-21 12.5t-8 22q0 12 7.5 21t18.5 9q5 0 11 -1t12 -3q7 -2 14.5 -3t15.5 -1q13 0 21.5 6t8.5 22q0 17 -10.5 22.5t-24.5 5.5q-8 0 -14.5 5.5t-6.5 16.5q0 3 1 9t3 12l15 56h56l-13 -54
q4 1 8 1q32 0 54.5 -18t22.5 -56z" />
    <glyph glyph-name="hungarumlaut" unicode="&#x2dd;" horiz-adv-x="223" 
d="M367 707q0 -12 -7 -27.5t-28 -23.5l-119 -48q-16 -7 -23 -8t-16 -1q-22 0 -37 15.5t-15 43.5q0 12 7 27.5t28 23.5l119 48q16 7 23 8t16 1q22 0 37 -15.5t15 -43.5zM98 707q0 -12 -7 -27.5t-28 -23.5l-119 -48q-16 -7 -23 -8t-16 -1q-22 0 -37 15.5t-15 43.5q0 12 7 27.5
t28 23.5l119 48q16 7 23 8t16 1q22 0 37 -15.5t15 -43.5z" />
    <glyph glyph-name="ogonek" unicode="&#x2db;" horiz-adv-x="223" 
d="M199 -163q0 -13 -8.5 -22.5t-22 -16t-31 -9.5t-36.5 -3q-40 0 -65.5 21t-25.5 65q0 22 10.5 42.5t27 37t35.5 29t36 19.5h67q-13 -7 -28.5 -18.5t-28.5 -26t-21.5 -30.5t-8.5 -32q0 -34 35 -34q13 0 19 2.5t18 2.5q14 0 21 -8t7 -19z" />
    <glyph glyph-name="caron" unicode="&#x2c7;" horiz-adv-x="223" 
d="M265 700q0 -21 -13 -35.5t-34 -22.5l-106 -43l-105 43q-21 8 -34 22.5t-13 35.5q0 32 18.5 46t39.5 14q16 0 30 -6l64 -29l65 29q6 2 14 4t16 2q21 0 39.5 -14t18.5 -46z" />
    <glyph glyph-name="emdash" unicode="&#x2014;" horiz-adv-x="1115" 
d="M1115 288q0 -26 -15.5 -41.5t-42.5 -15.5h-1000q-26 0 -41.5 15.5t-15.5 41.5q0 25 15.5 41t41.5 16h1000q27 0 42.5 -16t15.5 -41z" />
    <glyph glyph-name="AE" unicode="&#xc6;" horiz-adv-x="838" 
d="M818 65q0 -24 -17 -44.5t-50 -20.5h-258q-32 0 -52.5 20t-20.5 52v79h-222l-56 -108q-11 -22 -28 -35.5t-40 -13.5q-27 0 -48 16t-21 43q0 15 3.5 25t11.5 24l291 543q14 26 41.5 46.5t75.5 20.5h313q35 0 51.5 -20t16.5 -45t-17 -45.5t-51 -20.5h-179v-157h168
q35 0 52 -20t17 -45t-17.5 -45.5t-51.5 -20.5h-168v-162h188q35 0 51.5 -20t16.5 -46zM420 586h-2l-160 -314h162v314z" />
    <glyph glyph-name="ordfeminine" unicode="&#xaa;" horiz-adv-x="390" 
d="M360 433q0 -17 -9.5 -30t-33.5 -13t-33 11t-11 30q-12 -17 -36.5 -28.5t-56.5 -11.5q-35 0 -63 12.5t-47.5 34.5t-29.5 52t-10 66q0 35 11 65.5t31 53t47 35.5t60 13q26 0 52 -9.5t42 -30.5q3 17 12 28.5t32 11.5q27 0 35 -16t8 -36v-238zM267 556q0 17 -4 33.5
t-12.5 29.5t-22 21t-32.5 8t-33 -8.5t-23 -21.5t-13 -29.5t-4 -32.5t4 -32t13 -29t23 -21t33 -8t32.5 8t22 20.5t12.5 28.5t4 33z" />
    <glyph glyph-name="Lslash" unicode="&#x141;" horiz-adv-x="512" 
d="M502 67q0 -26 -17.5 -46.5t-50.5 -20.5h-248q-35 0 -54 21t-19 56v190l-28 -21q-12 -9 -22.5 -12.5t-19.5 -3.5q-14 0 -28.5 11t-14.5 34q0 20 11.5 32t30.5 26l71 52v258q0 36 20 55.5t51 19.5t51 -19.5t20 -55.5v-171l106 78q12 9 21.5 12t18.5 3q14 0 30 -10.5
t16 -33.5q0 -20 -12 -32t-31 -26l-149 -108v-224h179q35 0 51.5 -20.5t16.5 -43.5z" />
    <glyph glyph-name="Oslash" unicode="&#xd8;" horiz-adv-x="693" 
d="M668 691q0 -10 -4.5 -17.5t-10.5 -15.5l-56 -65q29 -50 40.5 -109.5t11.5 -127.5q0 -79 -16.5 -146.5t-53 -116.5t-94.5 -76.5t-140 -27.5q-64 0 -113 17t-84 48l-36 -43q-10 -12 -19.5 -18.5t-25.5 -6.5q-17 0 -29.5 11t-12.5 27q0 10 4.5 17.5t10.5 15.5l56 65
q-26 47 -37.5 106t-11.5 128q0 79 17 146.5t53.5 116.5t94 76.5t139.5 27.5q63 0 110 -17t82 -47l38 45q10 12 19.5 18.5t25.5 6.5q17 0 29.5 -11t12.5 -27zM452 549q-36 39 -104 39q-45 0 -75 -16t-47 -46t-24 -73t-7 -96q0 -61 9 -107zM501 357q0 30 -2 57t-7 51
l-251 -301q34 -40 107 -40q46 0 75.5 16.5t47 46.5t24 73t6.5 97z" />
    <glyph glyph-name="OE" unicode="&#x152;" horiz-adv-x="896" 
d="M876 65q0 -24 -17 -44.5t-51 -20.5h-247q-26 0 -45 13t-25 36q-24 -29 -63 -44.5t-101 -15.5q-82 0 -138.5 27.5t-92 76.5t-51 116.5t-15.5 146.5t17 146.5t53.5 116.5t94 76.5t139.5 27.5q60 0 98 -15.5t61 -44.5q7 22 23.5 35.5t45.5 13.5h237q35 0 51.5 -20t16.5 -45
t-17 -45.5t-51 -20.5h-179v-157h167q35 0 52.5 -20t17.5 -45t-17.5 -45.5t-52.5 -20.5h-167v-162h188q35 0 51.5 -20t16.5 -46zM484 357q0 53 -7 96t-24 73t-47 46t-75 16t-75 -16t-47 -46t-24 -73t-7 -96q0 -54 6.5 -97t24 -73.5t47 -46.5t75.5 -16t75.5 16.5t47 46.5
t24 73t6.5 97z" />
    <glyph glyph-name="ordmasculine" unicode="&#xba;" horiz-adv-x="392" 
d="M362 557q0 -33 -11.5 -63.5t-33.5 -53t-52.5 -36t-67.5 -13.5q-38 0 -69 13.5t-52.5 36t-33.5 53t-12 63.5t12 63t34 53t53 36.5t68 13.5t67.5 -13.5t52 -36.5t33.5 -53t12 -63zM269 557q0 16 -4 32t-12.5 29t-22.5 21.5t-33 8.5t-33 -8.5t-23 -21.5t-13.5 -29t-4.5 -32
t4.5 -32t13.5 -29t23 -21.5t33 -8.5q18 0 31.5 8.5t22.5 21.5t13.5 29t4.5 32z" />
    <glyph glyph-name="ae" unicode="&#xe6;" horiz-adv-x="833" 
d="M803 309q0 -11 -0.5 -21t-2.5 -18q-5 -20 -17.5 -32t-41.5 -12h-270q2 -32 15 -54t31.5 -36.5t41 -21t43.5 -6.5q16 0 34 1t35 4q11 2 22 3t19 1q26 0 42 -16t16 -42q0 -21 -12 -33q-21 -22 -60.5 -29.5t-99.5 -7.5q-66 0 -110 22.5t-76 63.5q-35 -45 -83 -65.5
t-110 -20.5q-39 0 -73.5 8t-60 26.5t-40.5 48t-15 72.5q0 36 12 67.5t37.5 55t66 37.5t97.5 14h91v18q0 48 -25 68t-77 20q-41 0 -65 -4t-49 -4q-27 0 -41 14.5t-14 38.5q0 18 10.5 30t27.5 20q27 12 67.5 16.5t83.5 4.5q64 0 100.5 -18.5t59.5 -51.5q28 35 67.5 54
t102.5 19q58 0 100 -17.5t69 -48.5t39.5 -74t12.5 -94zM668 318q0 56 -19 87.5t-74 31.5t-80.5 -31t-25.5 -88h199zM334 226h-82q-52 0 -73 -19.5t-21 -52.5q0 -36 22 -51t50 -15q44 0 74 22.5t30 78.5v37z" />
    <glyph glyph-name="dotlessi" unicode="&#x131;" horiz-adv-x="223" 
d="M180 71q0 -35 -19 -56t-49 -21t-49.5 21t-19.5 56v390q0 35 19.5 56t49.5 21t49 -21t19 -56v-390v0z" />
    <glyph glyph-name="lslash" unicode="&#x142;" horiz-adv-x="305" 
d="M315 511q0 -12 -5.5 -22t-16.5 -21l-72 -71v-327q0 -35 -19.5 -55.5t-49.5 -20.5t-49 20.5t-19 55.5v216l-7 -7q-11 -11 -21 -17t-24 -6q-19 0 -30.5 12.5t-11.5 30.5q0 12 5.5 22t16.5 21l72 71v281q0 35 19.5 55.5t49.5 20.5t49 -20.5t19 -55.5v-170l7 7q11 11 21 17
t24 6q19 0 30.5 -12.5t11.5 -30.5z" />
    <glyph glyph-name="oslash" unicode="&#xf8;" horiz-adv-x="584" 
d="M569 512q0 -17 -15 -32l-50 -52q34 -65 34 -163q0 -128 -61.5 -202t-183.5 -74q-102 0 -160 46l-31 -32q-11 -11 -20 -18t-25 -7q-17 0 -29.5 11t-12.5 27q0 17 15 32l50 52q-17 33 -25 74t-8 91q0 63 16 114t46.5 87.5t76.5 56.5t106 20q51 0 91 -13t69 -37l30 32
q11 11 20 18t25 7q17 0 29.5 -11t12.5 -27zM361 397q-24 24 -69 24q-32 0 -53.5 -12t-34 -33t-17.5 -49.5t-5 -61.5q0 -31 4 -54zM403 265q0 14 -1.5 27t-3.5 25l-173 -185q13 -11 29 -16.5t38 -5.5q36 0 57.5 12t33.5 33t16 49.5t4 60.5z" />
    <glyph glyph-name="oe" unicode="&#x153;" horiz-adv-x="905" 
d="M844 309q0 -18 -2 -33t-9 -26.5t-19 -18t-33 -6.5h-269q2 -31 14.5 -53t31 -36.5t41 -21t44.5 -6.5q16 0 34 1t35 4q11 2 22 3t19 1q26 0 42 -16t16 -42q0 -19 -10 -29q-19 -24 -60.5 -32.5t-101.5 -8.5q-62 0 -110 20.5t-80 58.5q-29 -38 -73.5 -58.5t-104.5 -20.5
q-128 0 -186.5 73.5t-58.5 202.5q0 63 16 114t46.5 87.5t76.5 56.5t106 20q58 0 100.5 -18.5t71.5 -53.5q27 34 69.5 53t103.5 19q58 0 101 -17.5t71.5 -48.5t42 -74t13.5 -94zM709 318q0 28 -4 50.5t-14.5 38t-29.5 23.5t-49 8q-55 0 -78.5 -32.5t-24.5 -87.5h200zM382 265
q0 33 -5 61.5t-18 49.5t-34 33t-54 12q-32 0 -53.5 -12t-34 -33t-17.5 -49.5t-5 -61.5q0 -32 5 -60.5t18 -49.5t34 -33t53 -12t53.5 12t34 33t18 49.5t5.5 60.5z" />
    <glyph glyph-name="germandbls" unicode="&#xdf;" horiz-adv-x="571" 
d="M541 225q0 -48 -15 -90.5t-42.5 -74.5t-67.5 -51t-90 -19q-84 0 -84 64q0 34 22.5 47.5t55.5 17.5q38 5 61 30.5t23 79.5q0 34 -10 55t-26 34t-36 19.5t-39 11.5q-25 7 -41 20t-16 42q0 27 14 40t40 21q15 4 27 10t20 16t12 26t4 41q0 33 -21.5 56t-60.5 23
q-28 0 -45.5 -7.5t-27 -21t-13 -33t-3.5 -42.5v-470q0 -35 -19.5 -55.5t-49.5 -20.5t-49 20.5t-19 55.5v471q0 106 58 167.5t168 61.5q45 0 84.5 -15t68 -42t45 -64.5t16.5 -83.5q0 -20 -3 -40t-11.5 -38t-24.5 -34t-41 -29q38 -11 64 -31.5t42 -47.5t23 -58t7 -62z" />
    <glyph glyph-name="logicalnot" unicode="&#xac;" 
d="M558 139q0 -26 -15.5 -42t-41.5 -16t-41.5 16t-15.5 42v167h-356q-26 0 -41.5 16t-15.5 42t15.5 41.5t41.5 15.5h411q28 0 43.5 -16t15.5 -43v-223v0z" />
    <glyph glyph-name="mu" unicode="&#xb5;" horiz-adv-x="557" 
d="M512 70q0 -35 -19.5 -55.5t-48.5 -20.5q-30 0 -49.5 18t-19.5 48h-2q-17 -38 -44 -51.5t-51 -13.5t-51 10.5t-43 33.5h-2v-180q0 -35 -19 -56t-50 -21q-30 0 -49 21t-19 56v602q0 35 19 56t49 21q31 0 50 -21t19 -56v-261q0 -47 29 -72t67 -25q39 0 68 24.5t29 72.5v261
q0 35 19.5 56t49.5 21t49 -21t19 -56v-391v0z" />
    <glyph glyph-name="trademark" unicode="&#x2122;" horiz-adv-x="994" 
d="M929 358q0 -26 -10.5 -42t-41.5 -16q-30 0 -40.5 16t-10.5 42v218h-2l-78 -219q-9 -25 -20.5 -41t-39.5 -16q-29 0 -40 15.5t-20 41.5l-77 219h-2v-218q0 -26 -10.5 -42t-41.5 -16q-30 0 -41 16t-11 42v291q0 26 18 47.5t64 21.5q13 0 25.5 -2t23.5 -8t20.5 -18t17.5 -33
l74 -190l74 190q8 21 18 33.5t21 18.5t23 8t25 2q46 0 64 -22t18 -48v-291zM382 668q0 -21 -12 -32t-32 -11h-81v-267q0 -26 -15 -42t-41 -16q-27 0 -42 16t-15 42v267h-81q-19 0 -31 11t-12 32q0 22 12 33t31 11h275q20 0 32 -11t12 -33z" />
    <glyph glyph-name="Eth" unicode="&#xd0;" horiz-adv-x="657" 
d="M627 357q0 -82 -21 -148t-61.5 -112.5t-99 -71.5t-133.5 -25h-149q-12 0 -25.5 3.5t-24.5 11.5t-18 22t-7 34v235h-28q-30 0 -45 16.5t-15 37.5q0 20 15 37.5t45 17.5h28v224q0 33 20 53t53 20h152q82 0 141 -23.5t97.5 -69t57 -111.5t18.5 -151zM479 354q0 51 -6.5 93
t-25 72t-51.5 46t-85 16h-81v-166h88q30 0 45 -16.5t15 -37.5q0 -20 -15 -37.5t-45 -17.5h-88v-175h83q50 0 82 16.5t51 46t26 70.5t7 90z" />
    <glyph glyph-name="onehalf" unicode="&#xbd;" horiz-adv-x="839" 
d="M804 49q0 -25 -15.5 -36.5t-35.5 -11.5h-182q-48 0 -48 52q0 14 4.5 25t11.5 19l121 147q18 22 24.5 35.5t6.5 25.5q0 14 -8 22.5t-31 8.5q-15 0 -26 -3t-22 -8q-15 -6 -27 -6q-20 0 -32 11t-12 30q0 22 15 36q16 15 44.5 24.5t65.5 9.5q60 0 98.5 -26.5t38.5 -85.5
q0 -37 -18 -68.5t-45 -62.5l-82 -92h101q23 0 38 -11t15 -35zM595 677q0 -6 -2 -14t-8 -19l-320 -620q-10 -19 -21.5 -27t-28.5 -8q-22 0 -38.5 12.5t-16.5 35.5q0 6 2 14t8 19l320 620q10 19 21.5 27t28.5 8q22 0 38.5 -12.5t16.5 -35.5zM217 331q0 -18 -13 -32t-36 -14
q-22 0 -35.5 13t-13.5 33v289h-35q-22 0 -35.5 13.5t-13.5 36.5q0 21 14.5 34t34.5 13h91q20 0 31 -11.5t11 -28.5v-346z" />
    <glyph glyph-name="plusminus" unicode="&#xb1;" 
d="M558 331q0 -26 -15.5 -41.5t-41.5 -15.5h-149v-71q0 -26 -15.5 -42t-42.5 -16q-26 0 -41.5 16t-15.5 42v71h-149q-26 0 -41.5 15.5t-15.5 41.5t15.5 41.5t41.5 15.5h149v71q0 26 15.5 42t41.5 16q27 0 42.5 -16t15.5 -42v-71h149q26 0 41.5 -15.5t15.5 -41.5zM558 57
q0 -26 -15.5 -41.5t-41.5 -15.5h-413q-26 0 -41.5 15.5t-15.5 41.5t15.5 42t41.5 16h413q26 0 41.5 -16t15.5 -42z" />
    <glyph glyph-name="Thorn" unicode="&#xde;" horiz-adv-x="557" 
d="M527 370q0 -111 -59.5 -168.5t-162.5 -57.5h-103v-75q0 -36 -20 -55.5t-51 -19.5t-51 19.5t-20 55.5v574q0 36 20 55.5t51 19.5t51 -19.5t20 -55.5v-50h97q118 0 173 -58t55 -165zM379 369q0 48 -20 73.5t-70 25.5h-87v-199h87q51 0 70.5 25.5t19.5 74.5z" />
    <glyph glyph-name="onequarter" unicode="&#xbc;" horiz-adv-x="854" 
d="M819 126q0 -22 -14.5 -32t-34.5 -10h-5v-46q0 -18 -12 -31t-35 -13q-22 0 -35.5 12t-13.5 32v46h-157q-23 0 -32 13t-9 29q0 11 3 20.5t7 15.5l136 227q12 20 30 31.5t48 11.5q33 0 51.5 -18t18.5 -56v-192h5q20 0 34.5 -9t14.5 -31zM595 677q0 -6 -2 -14t-8 -19
l-320 -620q-10 -19 -21.5 -27t-28.5 -8q-22 0 -38.5 12.5t-16.5 35.5q0 6 2 14t8 19l320 620q10 19 21.5 27t28.5 8q22 0 38.5 -12.5t16.5 -35.5zM217 331q0 -18 -13 -32t-36 -14q-22 0 -35.5 13t-13.5 33v289h-35q-22 0 -35.5 13.5t-13.5 36.5q0 21 14.5 34t34.5 13h91
q20 0 31 -11.5t11 -28.5v-346zM669 326h-2l-89 -160h91v160z" />
    <glyph glyph-name="divide" unicode="&#xf7;" 
d="M366 461q0 -39 -19.5 -60.5t-52.5 -21.5q-32 0 -52 22t-20 60q0 37 20 58t52 21t52 -20.5t20 -58.5zM558 253q0 -26 -15.5 -42t-42.5 -16h-412q-27 0 -42.5 16t-15.5 42t15.5 41.5t42.5 15.5h412q27 0 42.5 -15.5t15.5 -41.5zM366 48q0 -39 -19.5 -60.5t-52.5 -21.5
q-32 0 -52 22t-20 60q0 37 20 58t52 21t52 -20.5t20 -58.5z" />
    <glyph glyph-name="brokenbar" unicode="&#xa6;" horiz-adv-x="235" 
d="M175 516q0 -26 -15.5 -42t-42.5 -16q-26 0 -41.5 16t-15.5 42v196q0 26 15.5 42t41.5 16q27 0 42.5 -16t15.5 -42v-196zM175 46q0 -26 -15.5 -41.5t-42.5 -15.5q-26 0 -41.5 15.5t-15.5 41.5v197q0 26 15.5 42t41.5 16q27 0 42.5 -16t15.5 -42v-197z" />
    <glyph glyph-name="degree" unicode="&#xb0;" horiz-adv-x="399" 
d="M359 564q0 -33 -12.5 -62t-34 -50.5t-51 -34t-62.5 -12.5t-62 12.5t-50.5 34t-34 50.5t-12.5 62t12.5 62t34 50.5t50.5 34t62 12.5t62.5 -12.5t51 -34t34 -50.5t12.5 -62zM284 564q0 42 -25 65t-60 23q-34 0 -59 -23t-25 -65t25 -65t59 -23q35 0 60 23t25 65z" />
    <glyph glyph-name="thorn" unicode="&#xfe;" horiz-adv-x="582" 
d="M552 268q0 -58 -14.5 -108.5t-42.5 -88.5t-70 -60t-96 -22q-19 0 -39.5 3.5t-40 11.5t-36.5 20.5t-29 30.5h-2v-196q0 -35 -19.5 -56t-49.5 -21t-49 21t-19 56v834q0 35 19.5 56t49.5 21t49 -21t19 -56v-216h2q13 17 31 29.5t37.5 20.5t39.5 12t38 4q63 0 105.5 -23.5
t68.5 -62t37 -88t11 -101.5zM410 279q0 31 -6.5 58t-19.5 46.5t-33.5 31t-48.5 11.5q-25 0 -46.5 -8t-38 -23.5t-26 -38t-9.5 -50.5v-75q0 -28 9 -50t25 -37.5t37 -24t45 -8.5q33 0 54.5 12.5t34.5 35t18 53.5t5 67z" />
    <glyph glyph-name="threequarters" unicode="&#xbe;" horiz-adv-x="840" 
d="M805 126q0 -22 -14.5 -32t-34.5 -10h-5v-46q0 -18 -12 -31t-35 -13q-22 0 -35.5 12t-13.5 32v46h-157q-23 0 -32 13t-9 29q0 11 3 20.5t7 15.5l136 227q12 20 30 31.5t48 11.5q33 0 51.5 -18t18.5 -56v-192h5q20 0 34.5 -9t14.5 -31zM628 677q0 -6 -2 -14t-8 -19
l-320 -620q-10 -19 -21.5 -27t-28.5 -8q-22 0 -38.5 12.5t-16.5 35.5q0 6 2 14t8 19l320 620q10 19 21.5 27t28.5 8q22 0 38.5 -12.5t16.5 -35.5zM303 420q0 -58 -39 -95.5t-112 -37.5q-29 0 -54.5 5.5t-41.5 15.5q-21 13 -21 36q0 22 14 34t34 12q5 0 12.5 -1t13.5 -3
q22 -5 42 -5q27 0 40 14t13 34q0 43 -59 43h-12q-22 0 -35.5 11t-13.5 31q0 23 13.5 34.5t35.5 11.5h12q29 0 40.5 12.5t11.5 29.5q0 12 -8.5 22.5t-30.5 10.5q-10 0 -21.5 -2.5t-22.5 -6.5q-15 -6 -26 -6q-20 0 -32 8.5t-12 28.5q0 30 32 47q16 8 39 13.5t45 5.5
q71 0 100.5 -31.5t29.5 -80.5q0 -10 -2.5 -22.5t-9 -25.5t-18 -24t-29.5 -18q39 -11 55.5 -38.5t16.5 -62.5zM655 326h-2l-89 -160h91v160z" />
    <glyph glyph-name="registered" unicode="&#xae;" horiz-adv-x="825" 
d="M780 356q0 -76 -26 -143t-74 -116.5t-116 -78.5t-152 -29q-83 0 -151 29t-116 78.5t-74 116.5t-26 143t26 143t74 116.5t116 78.5t151 29q84 0 152 -29t116 -78.5t74 -116.5t26 -143zM692 356q0 58 -19 109t-55 89t-88 60t-118 22q-65 0 -117 -22t-88 -60t-55 -89
t-19 -109t19 -109t55 -89t88 -60t117 -22q66 0 118 22t88 60t55 89t19 109zM573 433q0 -27 -8.5 -47t-22 -33.5t-30.5 -21t-34 -8.5l69 -112q8 -14 8 -25q0 -16 -9.5 -27t-32.5 -11q-21 0 -33 14t-20 31l-64 124h-43v-118q0 -21 -9 -36t-35 -15q-25 0 -34 14t-9 37v312
q0 16 8 27.5t35 11.5h116q31 0 58 -5.5t47 -19t31.5 -36t11.5 -56.5zM487 433q0 29 -16 38t-42 9h-76v-93h75q26 0 42.5 8.5t16.5 37.5z" />
    <glyph glyph-name="minus" unicode="&#x2212;" 
d="M558 253q0 -26 -15.5 -41.5t-41.5 -15.5h-413q-26 0 -41.5 15.5t-15.5 41.5t15.5 41.5t41.5 15.5h413q26 0 41.5 -15.5t15.5 -41.5z" />
    <glyph glyph-name="eth" unicode="&#xf0;" horiz-adv-x="550" 
d="M520 289q0 -68 -16 -123.5t-47 -94.5t-76.5 -60.5t-105.5 -21.5q-62 0 -108 20.5t-76.5 57.5t-45.5 87.5t-15 109.5q0 48 13 94t41 82t72 58t105 22q21 0 52 -9.5t52 -34.5l2 2q-19 43 -48 78t-66 58l-98 -51q-20 -11 -35 -11q-14 0 -23.5 9.5t-9.5 26.5q0 13 7 21t20 15
l65 34l-41 21q-13 6 -22 16.5t-9 26.5q0 27 17 41t46 14q35 0 72 -16t67 -34l81 42q20 11 35 11q14 0 23.5 -9.5t9.5 -26.5q0 -13 -7 -21t-20 -15l-63 -33q42 -39 71 -82t47 -90t26 -100.5t8 -113.5zM383 261q0 27 -3 52.5t-14.5 45t-33 31.5t-58.5 12q-35 0 -56 -12
t-32.5 -31.5t-15 -44.5t-3.5 -50q0 -27 3 -54t14.5 -48.5t33 -35t57.5 -13.5q37 0 59 13.5t32.5 34.5t13.5 47.5t3 52.5z" />
    <glyph glyph-name="multiply" unicode="&#xd7;" 
d="M522 79q0 -26 -17 -39.5t-37 -13.5q-16 0 -27.5 7t-20.5 16l-126 126l-126 -126q-9 -9 -20.5 -16t-27.5 -7q-20 0 -37 13.5t-17 39.5q0 14 6.5 25.5t14.5 19.5l129 129l-129 129q-8 8 -14.5 19.5t-6.5 25.5q0 26 17 39.5t37 13.5q16 0 27.5 -7t20.5 -16l126 -126l126 126
q9 9 20.5 16t27.5 7q20 0 37 -13.5t17 -39.5q0 -14 -6.5 -25.5t-14.5 -19.5l-129 -129l129 -129q8 -8 14.5 -19.5t6.5 -25.5z" />
    <glyph glyph-name="copyright" unicode="&#xa9;" horiz-adv-x="825" 
d="M780 356q0 -76 -26 -143t-74 -116.5t-116 -78.5t-152 -29q-83 0 -151 29t-116 78.5t-74 116.5t-26 143t26 143t74 116.5t116 78.5t151 29q84 0 152 -29t116 -78.5t74 -116.5t26 -143zM692 356q0 58 -19 109t-55 89t-88 60t-118 22q-65 0 -117 -22t-88 -60t-55 -89
t-19 -109t19 -109t55 -89t88 -60t117 -22q66 0 118 22t88 60t55 89t19 109zM548 211q0 -19 -14.5 -30.5t-35 -18t-43 -8.5t-37.5 -2q-48 0 -83 15.5t-58 42.5t-34 63.5t-11 78.5q0 44 12.5 81t37 64t60 42t81.5 15q15 0 36 -2t40.5 -8t33.5 -17t14 -28q0 -18 -11.5 -29
t-31.5 -11q-5 0 -12.5 1t-15.5 2q-8 3 -24 4t-25 1q-55 0 -77 -32.5t-22 -82.5q0 -24 5 -44.5t17 -35.5t30.5 -24t45.5 -9q8 0 25 1t25 3q11 2 20 3t14 1q15 0 26.5 -9t11.5 -27z" />
    <glyph glyph-name="Aacute" unicode="&#xc1;" horiz-adv-x="650" 
d="M635 56q0 -27 -21 -44.5t-47 -17.5q-30 0 -48.5 14t-25.5 36l-36 116h-272l-36 -115q-7 -23 -22.5 -37t-44.5 -14t-48 18.5t-19 47.5q0 11 2.5 19t4.5 13l196 552q11 32 37 55.5t71 23.5q47 0 72 -22.5t37 -56.5l192 -551q5 -12 6.5 -22t1.5 -15zM323 596h-2l-98 -315
h197zM490 871q0 -23 -13.5 -36t-32.5 -21l-122 -49q-12 -5 -23 -5q-27 0 -42.5 17.5t-15.5 39.5q0 23 13.5 36t32.5 21l122 49q12 5 23 5q27 0 42.5 -17.5t15.5 -39.5z" />
    <glyph glyph-name="Acircumflex" unicode="&#xc2;" horiz-adv-x="650" 
d="M635 56q0 -27 -21 -44.5t-47 -17.5q-30 0 -48.5 14t-25.5 36l-36 116h-272l-36 -115q-7 -23 -22.5 -37t-44.5 -14t-48 18.5t-19 47.5q0 11 2.5 19t4.5 13l196 552q11 32 37 55.5t71 23.5q47 0 72 -22.5t37 -56.5l192 -551q5 -12 6.5 -22t1.5 -15zM323 596h-2l-98 -315
h197zM479 819q0 -26 -15.5 -40t-37.5 -14q-8 0 -17.5 2.5t-16.5 5.5l-70 31l-70 -31q-7 -3 -16.5 -5.5t-17.5 -2.5q-22 0 -37.5 14t-15.5 40q0 23 11.5 36t32.5 21l113 44l113 -44q21 -8 32.5 -21t11.5 -36z" />
    <glyph glyph-name="Adieresis" unicode="&#xc4;" horiz-adv-x="650" 
d="M635 56q0 -27 -21 -44.5t-47 -17.5q-30 0 -48.5 14t-25.5 36l-36 116h-272l-36 -115q-7 -23 -22.5 -37t-44.5 -14t-48 18.5t-19 47.5q0 11 2.5 19t4.5 13l196 552q11 32 37 55.5t71 23.5q47 0 72 -22.5t37 -56.5l192 -551q5 -12 6.5 -22t1.5 -15zM323 596h-2l-98 -315
h197zM501 833q0 -38 -18 -57t-50 -19q-29 0 -48 19.5t-19 56.5q0 35 19 55t48 20q30 0 49 -20t19 -55zM284 833q0 -38 -18 -57t-50 -19q-29 0 -48 19.5t-19 56.5q0 35 19 55t48 20q30 0 49 -20t19 -55z" />
    <glyph glyph-name="Agrave" unicode="&#xc0;" horiz-adv-x="650" 
d="M635 56q0 -27 -21 -44.5t-47 -17.5q-30 0 -48.5 14t-25.5 36l-36 116h-272l-36 -115q-7 -23 -22.5 -37t-44.5 -14t-48 18.5t-19 47.5q0 11 2.5 19t4.5 13l196 552q11 32 37 55.5t71 23.5q47 0 72 -22.5t37 -56.5l192 -551q5 -12 6.5 -22t1.5 -15zM323 596h-2l-98 -315
h197zM414 817q0 -22 -15.5 -39.5t-42.5 -17.5q-11 0 -23 5l-122 49q-19 8 -32.5 21t-13.5 36q0 22 15.5 39.5t42.5 17.5q11 0 23 -5l122 -49q19 -8 32.5 -21t13.5 -36z" />
    <glyph glyph-name="Aring" unicode="&#xc5;" horiz-adv-x="650" 
d="M635 56q0 -27 -21 -44.5t-47 -17.5q-30 0 -48.5 14t-25.5 36l-36 116h-272l-36 -115q-7 -23 -22.5 -37t-44.5 -14t-48 18.5t-19 47.5q0 11 2.5 19t4.5 13l196 552q11 32 37 55.5t71 23.5q47 0 72 -22.5t37 -56.5l192 -551q5 -12 6.5 -22t1.5 -15zM323 596h-2l-98 -315
h197zM423 838q0 -48 -28.5 -73t-69.5 -25t-69.5 25t-28.5 74q0 48 28.5 73t69.5 25t69.5 -25t28.5 -74zM370 838q0 26 -13 38t-32 12t-32 -11.5t-13 -37.5t13 -38t32 -12t32 11.5t13 37.5z" />
    <glyph glyph-name="Atilde" unicode="&#xc3;" horiz-adv-x="650" 
d="M635 56q0 -27 -21 -44.5t-47 -17.5q-30 0 -48.5 14t-25.5 36l-36 116h-272l-36 -115q-7 -23 -22.5 -37t-44.5 -14t-48 18.5t-19 47.5q0 11 2.5 19t4.5 13l196 552q11 32 37 55.5t71 23.5q47 0 72 -22.5t37 -56.5l192 -551q5 -12 6.5 -22t1.5 -15zM323 596h-2l-98 -315
h197zM496 857q0 -20 -10 -36.5t-25.5 -29.5t-35 -20t-38.5 -7t-35 5.5t-31 12t-28 12t-26 5.5q-12 0 -20 -4.5t-15.5 -10t-16 -10t-20.5 -4.5q-19 0 -32.5 12t-13.5 33q0 19 10 36t25.5 30t35 20t38.5 7t35 -5.5t31 -12t28 -12t26 -5.5q12 0 20 4.5t15.5 10t16 10t20.5 4.5
q19 0 32.5 -12t13.5 -33z" />
    <glyph glyph-name="Ccedilla" unicode="&#xc7;" horiz-adv-x="537" 
d="M517 73q0 -29 -18.5 -46t-52.5 -25q-15 -4 -29 -6.5t-28.5 -4t-31 -2t-37.5 -0.5h-1l-9 -37q4 1 8 1q32 0 54.5 -18t22.5 -56q0 -24 -10 -41t-26 -28.5t-35.5 -17t-38.5 -5.5q-16 0 -32 1.5t-29 6t-21 12.5t-8 22q0 12 7.5 21t18.5 9q5 0 11 -1t12 -3q7 -2 14.5 -3
t15.5 -1q13 0 21.5 6t8.5 22q0 17 -10.5 22.5t-24.5 5.5q-8 0 -14.5 5.5t-6.5 16.5q0 3 1 9t3 12l12 44q-59 10 -102.5 41t-73 78t-44 109t-14.5 135q0 83 21.5 150.5t62.5 115.5t99.5 74t132.5 26q37 0 73.5 -5.5t61.5 -19.5q35 -19 35 -53q0 -29 -16.5 -46.5t-44.5 -17.5
q-8 0 -23 2t-28 4q-18 2 -32 3t-31 1q-45 0 -76 -17.5t-50.5 -48.5t-28 -74t-8.5 -94q0 -50 8.5 -93.5t27.5 -75t50 -49.5t76 -18q34 0 71 8q11 2 23.5 4t20.5 2q29 0 45.5 -16.5t16.5 -45.5z" />
    <glyph glyph-name="Eacute" unicode="&#xc9;" horiz-adv-x="478" 
d="M458 65q0 -24 -17 -44.5t-51 -20.5h-257q-32 0 -52.5 19.5t-20.5 51.5v567q0 37 20.5 55.5t53.5 18.5h247q35 0 51.5 -20t16.5 -45t-17 -45.5t-51 -20.5h-179v-157h167q35 0 52.5 -20t17.5 -45t-17.5 -45.5t-52.5 -20.5h-167v-162h188q35 0 51.5 -20t16.5 -46zM403 871
q0 -23 -13.5 -36t-32.5 -21l-122 -49q-12 -5 -23 -5q-27 0 -42.5 17.5t-15.5 39.5q0 23 13.5 36t32.5 21l122 49q12 5 23 5q27 0 42.5 -17.5t15.5 -39.5z" />
    <glyph glyph-name="Ecircumflex" unicode="&#xca;" horiz-adv-x="478" 
d="M458 65q0 -24 -17 -44.5t-51 -20.5h-257q-32 0 -52.5 19.5t-20.5 51.5v567q0 37 20.5 55.5t53.5 18.5h247q35 0 51.5 -20t16.5 -45t-17 -45.5t-51 -20.5h-179v-157h167q35 0 52.5 -20t17.5 -45t-17.5 -45.5t-52.5 -20.5h-167v-162h188q35 0 51.5 -20t16.5 -46zM411 819
q0 -26 -15.5 -40t-37.5 -14q-8 0 -17.5 2.5t-16.5 5.5l-70 31l-70 -31q-7 -3 -16.5 -5.5t-17.5 -2.5q-22 0 -37.5 14t-15.5 40q0 23 11.5 36t32.5 21l113 44l113 -44q21 -8 32.5 -21t11.5 -36z" />
    <glyph glyph-name="Edieresis" unicode="&#xcb;" horiz-adv-x="478" 
d="M458 65q0 -24 -17 -44.5t-51 -20.5h-257q-32 0 -52.5 19.5t-20.5 51.5v567q0 37 20.5 55.5t53.5 18.5h247q35 0 51.5 -20t16.5 -45t-17 -45.5t-51 -20.5h-179v-157h167q35 0 52.5 -20t17.5 -45t-17.5 -45.5t-52.5 -20.5h-167v-162h188q35 0 51.5 -20t16.5 -46zM430 833
q0 -38 -18 -57t-50 -19q-29 0 -48 19.5t-19 56.5q0 35 19 55t48 20q30 0 49 -20t19 -55zM213 833q0 -38 -18 -57t-50 -19q-29 0 -48 19.5t-19 56.5q0 35 19 55t48 20q30 0 49 -20t19 -55z" />
    <glyph glyph-name="Egrave" unicode="&#xc8;" horiz-adv-x="478" 
d="M458 65q0 -24 -17 -44.5t-51 -20.5h-257q-32 0 -52.5 19.5t-20.5 51.5v567q0 37 20.5 55.5t53.5 18.5h247q35 0 51.5 -20t16.5 -45t-17 -45.5t-51 -20.5h-179v-157h167q35 0 52.5 -20t17.5 -45t-17.5 -45.5t-52.5 -20.5h-167v-162h188q35 0 51.5 -20t16.5 -46zM352 817
q0 -22 -15.5 -39.5t-42.5 -17.5q-11 0 -23 5l-122 49q-19 8 -32.5 21t-13.5 36q0 22 15.5 39.5t42.5 17.5q11 0 23 -5l122 -49q19 -8 32.5 -21t13.5 -36z" />
    <glyph glyph-name="Iacute" unicode="&#xcd;" horiz-adv-x="262" 
d="M202 69q0 -36 -20 -55.5t-51 -19.5t-51 19.5t-20 55.5v574q0 36 20 55.5t51 19.5t51 -19.5t20 -55.5v-574v0zM296 871q0 -23 -13.5 -36t-32.5 -21l-122 -49q-12 -5 -23 -5q-27 0 -42.5 17.5t-15.5 39.5q0 23 13.5 36t32.5 21l122 49q12 5 23 5q27 0 42.5 -17.5
t15.5 -39.5z" />
    <glyph glyph-name="Icircumflex" unicode="&#xce;" horiz-adv-x="262" 
d="M202 69q0 -36 -20 -55.5t-51 -19.5t-51 19.5t-20 55.5v574q0 36 20 55.5t51 19.5t51 -19.5t20 -55.5v-574v0zM288 819q0 -26 -15.5 -40t-37.5 -14q-8 0 -17.5 2.5t-16.5 5.5l-70 31l-70 -31q-7 -3 -16.5 -5.5t-17.5 -2.5q-22 0 -37.5 14t-15.5 40q0 23 11.5 36t32.5 21
l113 44l113 -44q21 -8 32.5 -21t11.5 -36z" />
    <glyph glyph-name="Idieresis" unicode="&#xcf;" horiz-adv-x="262" 
d="M202 69q0 -36 -20 -55.5t-51 -19.5t-51 19.5t-20 55.5v574q0 36 20 55.5t51 19.5t51 -19.5t20 -55.5v-574v0zM307 833q0 -38 -18 -57t-50 -19q-29 0 -48 19.5t-19 56.5q0 35 19 55t48 20q30 0 49 -20t19 -55zM90 833q0 -38 -18 -57t-50 -19q-29 0 -48 19.5t-19 56.5
q0 35 19 55t48 20q30 0 49 -20t19 -55z" />
    <glyph glyph-name="Igrave" unicode="&#xcc;" horiz-adv-x="262" 
d="M202 69q0 -36 -20 -55.5t-51 -19.5t-51 19.5t-20 55.5v574q0 36 20 55.5t51 19.5t51 -19.5t20 -55.5v-574v0zM215 817q0 -22 -15.5 -39.5t-42.5 -17.5q-11 0 -23 5l-122 49q-19 8 -32.5 21t-13.5 36q0 22 15.5 39.5t42.5 17.5q11 0 23 -5l122 -49q19 -8 32.5 -21
t13.5 -36z" />
    <glyph glyph-name="Ntilde" unicode="&#xd1;" horiz-adv-x="666" 
d="M606 62q0 -37 -22 -52.5t-52 -15.5q-29 0 -49.5 9.5t-33.5 31.5l-256 431h-2v-397q0 -36 -17.5 -55.5t-48.5 -19.5t-48 19.5t-17 55.5v575q0 39 23.5 56.5t56.5 17.5q38 0 55.5 -13.5t28.5 -32.5l250 -426h2v397q0 36 17 55.5t48 19.5t48 -19.5t17 -55.5v-581v0zM508 857
q0 -20 -10 -36.5t-25.5 -29.5t-35 -20t-38.5 -7t-35 5.5t-31 12t-28 12t-26 5.5q-12 0 -20 -4.5t-15.5 -10t-16 -10t-20.5 -4.5q-19 0 -32.5 12t-13.5 33q0 19 10 36t25.5 30t35 20t38.5 7t35 -5.5t31 -12t28 -12t26 -5.5q12 0 20 4.5t15.5 10t16 10t20.5 4.5q19 0 32.5 -12
t13.5 -33z" />
    <glyph glyph-name="Oacute" unicode="&#xd3;" horiz-adv-x="662" 
d="M632 356q0 -79 -16.5 -146.5t-53.5 -116.5t-95 -76.5t-140 -27.5t-138.5 27.5t-92 76.5t-51 116.5t-15.5 146.5t17 146.5t53.5 116.5t94 76.5t139.5 27.5q81 0 137.5 -28t92.5 -77.5t52 -116.5t16 -145zM484 357q0 53 -7 96t-24 73t-47 46t-75 16t-75 -16t-47 -46
t-24 -73t-7 -96q0 -54 6.5 -97t24 -73.5t47 -46.5t75.5 -16t75.5 16.5t47 46.5t24 73t6.5 97zM494 871q0 -23 -13.5 -36t-32.5 -21l-122 -49q-12 -5 -23 -5q-27 0 -42.5 17.5t-15.5 39.5q0 23 13.5 36t32.5 21l122 49q12 5 23 5q27 0 42.5 -17.5t15.5 -39.5z" />
    <glyph glyph-name="Ocircumflex" unicode="&#xd4;" horiz-adv-x="662" 
d="M632 356q0 -79 -16.5 -146.5t-53.5 -116.5t-95 -76.5t-140 -27.5t-138.5 27.5t-92 76.5t-51 116.5t-15.5 146.5t17 146.5t53.5 116.5t94 76.5t139.5 27.5q81 0 137.5 -28t92.5 -77.5t52 -116.5t16 -145zM484 357q0 53 -7 96t-24 73t-47 46t-75 16t-75 -16t-47 -46
t-24 -73t-7 -96q0 -54 6.5 -97t24 -73.5t47 -46.5t75.5 -16t75.5 16.5t47 46.5t24 73t6.5 97zM488 819q0 -26 -15.5 -40t-37.5 -14q-8 0 -17.5 2.5t-16.5 5.5l-70 31l-70 -31q-7 -3 -16.5 -5.5t-17.5 -2.5q-22 0 -37.5 14t-15.5 40q0 23 11.5 36t32.5 21l113 44l113 -44
q21 -8 32.5 -21t11.5 -36z" />
    <glyph glyph-name="Odieresis" unicode="&#xd6;" horiz-adv-x="662" 
d="M632 356q0 -79 -16.5 -146.5t-53.5 -116.5t-95 -76.5t-140 -27.5t-138.5 27.5t-92 76.5t-51 116.5t-15.5 146.5t17 146.5t53.5 116.5t94 76.5t139.5 27.5q81 0 137.5 -28t92.5 -77.5t52 -116.5t16 -145zM484 357q0 53 -7 96t-24 73t-47 46t-75 16t-75 -16t-47 -46
t-24 -73t-7 -96q0 -54 6.5 -97t24 -73.5t47 -46.5t75.5 -16t75.5 16.5t47 46.5t24 73t6.5 97zM507 833q0 -38 -18 -57t-50 -19q-29 0 -48 19.5t-19 56.5q0 35 19 55t48 20q30 0 49 -20t19 -55zM290 833q0 -38 -18 -57t-50 -19q-29 0 -48 19.5t-19 56.5q0 35 19 55t48 20
q30 0 49 -20t19 -55z" />
    <glyph glyph-name="Ograve" unicode="&#xd2;" horiz-adv-x="662" 
d="M632 356q0 -79 -16.5 -146.5t-53.5 -116.5t-95 -76.5t-140 -27.5t-138.5 27.5t-92 76.5t-51 116.5t-15.5 146.5t17 146.5t53.5 116.5t94 76.5t139.5 27.5q81 0 137.5 -28t92.5 -77.5t52 -116.5t16 -145zM484 357q0 53 -7 96t-24 73t-47 46t-75 16t-75 -16t-47 -46
t-24 -73t-7 -96q0 -54 6.5 -97t24 -73.5t47 -46.5t75.5 -16t75.5 16.5t47 46.5t24 73t6.5 97zM442 817q0 -22 -15.5 -39.5t-42.5 -17.5q-11 0 -23 5l-122 49q-19 8 -32.5 21t-13.5 36q0 22 15.5 39.5t42.5 17.5q11 0 23 -5l122 -49q19 -8 32.5 -21t13.5 -36z" />
    <glyph glyph-name="Otilde" unicode="&#xd5;" horiz-adv-x="662" 
d="M632 356q0 -79 -16.5 -146.5t-53.5 -116.5t-95 -76.5t-140 -27.5t-138.5 27.5t-92 76.5t-51 116.5t-15.5 146.5t17 146.5t53.5 116.5t94 76.5t139.5 27.5q81 0 137.5 -28t92.5 -77.5t52 -116.5t16 -145zM484 357q0 53 -7 96t-24 73t-47 46t-75 16t-75 -16t-47 -46
t-24 -73t-7 -96q0 -54 6.5 -97t24 -73.5t47 -46.5t75.5 -16t75.5 16.5t47 46.5t24 73t6.5 97zM505 857q0 -20 -10 -36.5t-25.5 -29.5t-35 -20t-38.5 -7t-35 5.5t-31 12t-28 12t-26 5.5q-12 0 -20 -4.5t-15.5 -10t-16 -10t-20.5 -4.5q-19 0 -32.5 12t-13.5 33q0 19 10 36
t25.5 30t35 20t38.5 7t35 -5.5t31 -12t28 -12t26 -5.5q12 0 20 4.5t15.5 10t16 10t20.5 4.5q19 0 32.5 -12t13.5 -33z" />
    <glyph glyph-name="Scaron" unicode="&#x160;" horiz-adv-x="516" 
d="M481 199q0 -50 -18 -89t-50 -66t-75.5 -41t-94.5 -14q-42 0 -87 4.5t-77 21.5q-20 11 -32 27t-12 39q0 30 18.5 48.5t48.5 18.5q11 0 26.5 -3t33.5 -8q17 -5 38 -8.5t38 -3.5q47 0 72 16.5t25 52.5q0 18 -7 31.5t-23.5 27.5t-43.5 30t-68 40q-27 16 -54 34t-48 41
t-34.5 52.5t-13.5 67.5q0 50 17.5 88.5t49 64.5t74 39t93.5 13q35 0 68.5 -3.5t59.5 -14.5q23 -10 36.5 -25t13.5 -39q0 -30 -18 -48.5t-48 -18.5q-11 0 -24 2t-28 5q-16 3 -29.5 4.5t-27.5 1.5q-18 0 -35 -2t-30 -9t-21 -19t-8 -32q0 -32 33.5 -55.5t88.5 -52.5
q30 -16 61 -35.5t55.5 -45.5t40.5 -60t16 -77zM412 861q0 -21 -13 -35.5t-34 -22.5l-106 -43l-105 43q-21 8 -34 22.5t-13 35.5q0 32 18.5 46t39.5 14q16 0 30 -6l64 -29l65 29q6 2 14 4t16 2q21 0 39.5 -14t18.5 -46z" />
    <glyph glyph-name="Uacute" unicode="&#xda;" horiz-adv-x="661" 
d="M606 266q0 -63 -17 -114t-51.5 -87t-86.5 -56t-122 -20q-71 0 -122.5 19.5t-85.5 55.5t-50 87.5t-16 114.5v377q0 36 20 55.5t51 19.5t51 -19.5t20 -55.5v-382q0 -71 31 -106.5t103 -35.5q70 0 101.5 37t31.5 105v382q0 36 20 55.5t51 19.5t51 -19.5t20 -55.5v-377v0z
M500 871q0 -23 -13.5 -36t-32.5 -21l-122 -49q-12 -5 -23 -5q-27 0 -42.5 17.5t-15.5 39.5q0 23 13.5 36t32.5 21l122 49q12 5 23 5q27 0 42.5 -17.5t15.5 -39.5z" />
    <glyph glyph-name="Ucircumflex" unicode="&#xdb;" horiz-adv-x="661" 
d="M606 266q0 -63 -17 -114t-51.5 -87t-86.5 -56t-122 -20q-71 0 -122.5 19.5t-85.5 55.5t-50 87.5t-16 114.5v377q0 36 20 55.5t51 19.5t51 -19.5t20 -55.5v-382q0 -71 31 -106.5t103 -35.5q70 0 101.5 37t31.5 105v382q0 36 20 55.5t51 19.5t51 -19.5t20 -55.5v-377v0z
M487 819q0 -26 -15.5 -40t-37.5 -14q-8 0 -17.5 2.5t-16.5 5.5l-70 31l-70 -31q-7 -3 -16.5 -5.5t-17.5 -2.5q-22 0 -37.5 14t-15.5 40q0 23 11.5 36t32.5 21l113 44l113 -44q21 -8 32.5 -21t11.5 -36z" />
    <glyph glyph-name="Udieresis" unicode="&#xdc;" horiz-adv-x="661" 
d="M606 266q0 -63 -17 -114t-51.5 -87t-86.5 -56t-122 -20q-71 0 -122.5 19.5t-85.5 55.5t-50 87.5t-16 114.5v377q0 36 20 55.5t51 19.5t51 -19.5t20 -55.5v-382q0 -71 31 -106.5t103 -35.5q70 0 101.5 37t31.5 105v382q0 36 20 55.5t51 19.5t51 -19.5t20 -55.5v-377v0z
M506 833q0 -38 -18 -57t-50 -19q-29 0 -48 19.5t-19 56.5q0 35 19 55t48 20q30 0 49 -20t19 -55zM289 833q0 -38 -18 -57t-50 -19q-29 0 -48 19.5t-19 56.5q0 35 19 55t48 20q30 0 49 -20t19 -55z" />
    <glyph glyph-name="Ugrave" unicode="&#xd9;" horiz-adv-x="661" 
d="M606 266q0 -63 -17 -114t-51.5 -87t-86.5 -56t-122 -20q-71 0 -122.5 19.5t-85.5 55.5t-50 87.5t-16 114.5v377q0 36 20 55.5t51 19.5t51 -19.5t20 -55.5v-382q0 -71 31 -106.5t103 -35.5q70 0 101.5 37t31.5 105v382q0 36 20 55.5t51 19.5t51 -19.5t20 -55.5v-377v0z
M418 817q0 -22 -15.5 -39.5t-42.5 -17.5q-11 0 -23 5l-122 49q-19 8 -32.5 21t-13.5 36q0 22 15.5 39.5t42.5 17.5q11 0 23 -5l122 -49q19 -8 32.5 -21t13.5 -36z" />
    <glyph glyph-name="Yacute" unicode="&#xdd;" horiz-adv-x="568" 
d="M558 650q0 -24 -15 -46l-188 -270v-270q0 -27 -16.5 -48.5t-54.5 -21.5t-54.5 21.5t-16.5 48.5v270l-189 270q-14 20 -14 45q0 29 19 49t48 20q40 0 60 -29l147 -217l147 217q20 29 59 29q30 0 49 -20t19 -48zM449 871q0 -23 -13.5 -36t-32.5 -21l-122 -49q-12 -5 -23 -5
q-27 0 -42.5 17.5t-15.5 39.5q0 23 13.5 36t32.5 21l122 49q12 5 23 5q27 0 42.5 -17.5t15.5 -39.5z" />
    <glyph glyph-name="Ydieresis" unicode="&#x178;" horiz-adv-x="568" 
d="M558 650q0 -24 -15 -46l-188 -270v-270q0 -27 -16.5 -48.5t-54.5 -21.5t-54.5 21.5t-16.5 48.5v270l-189 270q-14 20 -14 45q0 29 19 49t48 20q40 0 60 -29l147 -217l147 217q20 29 59 29q30 0 49 -20t19 -48zM457 833q0 -38 -18 -57t-50 -19q-29 0 -48 19.5t-19 56.5
q0 35 19 55t48 20q30 0 49 -20t19 -55zM240 833q0 -38 -18 -57t-50 -19q-29 0 -48 19.5t-19 56.5q0 35 19 55t48 20q30 0 49 -20t19 -55z" />
    <glyph glyph-name="Zcaron" unicode="&#x17d;" horiz-adv-x="563" 
d="M528 63q0 -27 -18 -45t-51 -18h-347q-39 0 -58 19.5t-19 49.5q0 28 18 58l283 460h-220q-33 0 -51 16t-18 46q0 27 18 45t51 18h319q41 0 58.5 -21.5t17.5 -45.5q0 -20 -5 -34.5t-13 -27.5l-284 -458h250q33 0 51 -16t18 -46zM441 861q0 -21 -13 -35.5t-34 -22.5
l-106 -43l-105 43q-21 8 -34 22.5t-13 35.5q0 32 18.5 46t39.5 14q16 0 30 -6l64 -29l65 29q6 2 14 4t16 2q21 0 39.5 -14t18.5 -46z" />
    <glyph glyph-name="aacute" unicode="&#xe1;" horiz-adv-x="520" 
d="M475 83q0 -14 -1.5 -29.5t-8 -29t-19.5 -22t-37 -8.5q-27 0 -41.5 14.5t-16.5 37.5l-1 10q-19 -30 -57.5 -49t-94.5 -19q-32 0 -62 7.5t-53.5 25.5t-38 48t-14.5 75q0 37 13 67.5t40.5 53t70 35.5t102.5 15l82 3v16q0 48 -24.5 68t-77.5 20q-19 0 -31.5 -1.5t-26.5 -3.5
t-26.5 -4t-26.5 -2q-27 0 -41.5 15t-14.5 42q0 17 9 30t25 21q26 14 67.5 18.5t86.5 4.5q116 0 167 -54t51 -157v-248zM338 231l-73 -3q-57 -2 -79.5 -20t-22.5 -54t22 -51t50 -15q44 0 73.5 23t29.5 79v41zM408 710q0 -23 -13.5 -36t-32.5 -21l-122 -49q-12 -5 -23 -5
q-27 0 -42.5 17.5t-15.5 39.5q0 23 13.5 36t32.5 21l122 49q12 5 23 5q27 0 42.5 -17.5t15.5 -39.5z" />
    <glyph glyph-name="acircumflex" unicode="&#xe2;" horiz-adv-x="520" 
d="M475 83q0 -14 -1.5 -29.5t-8 -29t-19.5 -22t-37 -8.5q-27 0 -41.5 14.5t-16.5 37.5l-1 10q-19 -30 -57.5 -49t-94.5 -19q-32 0 -62 7.5t-53.5 25.5t-38 48t-14.5 75q0 37 13 67.5t40.5 53t70 35.5t102.5 15l82 3v16q0 48 -24.5 68t-77.5 20q-19 0 -31.5 -1.5t-26.5 -3.5
t-26.5 -4t-26.5 -2q-27 0 -41.5 15t-14.5 42q0 17 9 30t25 21q26 14 67.5 18.5t86.5 4.5q116 0 167 -54t51 -157v-248zM338 231l-73 -3q-57 -2 -79.5 -20t-22.5 -54t22 -51t50 -15q44 0 73.5 23t29.5 79v41zM415 658q0 -26 -15.5 -40t-37.5 -14q-8 0 -17.5 2.5t-16.5 5.5
l-70 31l-70 -31q-7 -3 -16.5 -5.5t-17.5 -2.5q-22 0 -37.5 14t-15.5 40q0 23 11.5 36t32.5 21l113 44l113 -44q21 -8 32.5 -21t11.5 -36z" />
    <glyph glyph-name="adieresis" unicode="&#xe4;" horiz-adv-x="520" 
d="M475 83q0 -14 -1.5 -29.5t-8 -29t-19.5 -22t-37 -8.5q-27 0 -41.5 14.5t-16.5 37.5l-1 10q-19 -30 -57.5 -49t-94.5 -19q-32 0 -62 7.5t-53.5 25.5t-38 48t-14.5 75q0 37 13 67.5t40.5 53t70 35.5t102.5 15l82 3v16q0 48 -24.5 68t-77.5 20q-19 0 -31.5 -1.5t-26.5 -3.5
t-26.5 -4t-26.5 -2q-27 0 -41.5 15t-14.5 42q0 17 9 30t25 21q26 14 67.5 18.5t86.5 4.5q116 0 167 -54t51 -157v-248zM338 231l-73 -3q-57 -2 -79.5 -20t-22.5 -54t22 -51t50 -15q44 0 73.5 23t29.5 79v41zM435 672q0 -38 -18 -57t-50 -19q-29 0 -48 19.5t-19 56.5
q0 35 19 55t48 20q30 0 49 -20t19 -55zM218 672q0 -38 -18 -57t-50 -19q-29 0 -48 19.5t-19 56.5q0 35 19 55t48 20q30 0 49 -20t19 -55z" />
    <glyph glyph-name="agrave" unicode="&#xe0;" horiz-adv-x="520" 
d="M475 83q0 -14 -1.5 -29.5t-8 -29t-19.5 -22t-37 -8.5q-27 0 -41.5 14.5t-16.5 37.5l-1 10q-19 -30 -57.5 -49t-94.5 -19q-32 0 -62 7.5t-53.5 25.5t-38 48t-14.5 75q0 37 13 67.5t40.5 53t70 35.5t102.5 15l82 3v16q0 48 -24.5 68t-77.5 20q-19 0 -31.5 -1.5t-26.5 -3.5
t-26.5 -4t-26.5 -2q-27 0 -41.5 15t-14.5 42q0 17 9 30t25 21q26 14 67.5 18.5t86.5 4.5q116 0 167 -54t51 -157v-248zM338 231l-73 -3q-57 -2 -79.5 -20t-22.5 -54t22 -51t50 -15q44 0 73.5 23t29.5 79v41zM366 656q0 -22 -15.5 -39.5t-42.5 -17.5q-11 0 -23 5l-122 49
q-19 8 -32.5 21t-13.5 36q0 22 15.5 39.5t42.5 17.5q11 0 23 -5l122 -49q19 -8 32.5 -21t13.5 -36z" />
    <glyph glyph-name="aring" unicode="&#xe5;" horiz-adv-x="520" 
d="M475 83q0 -14 -1.5 -29.5t-8 -29t-19.5 -22t-37 -8.5q-27 0 -41.5 14.5t-16.5 37.5l-1 10q-19 -30 -57.5 -49t-94.5 -19q-32 0 -62 7.5t-53.5 25.5t-38 48t-14.5 75q0 37 13 67.5t40.5 53t70 35.5t102.5 15l82 3v16q0 48 -24.5 68t-77.5 20q-19 0 -31.5 -1.5t-26.5 -3.5
t-26.5 -4t-26.5 -2q-27 0 -41.5 15t-14.5 42q0 17 9 30t25 21q26 14 67.5 18.5t86.5 4.5q116 0 167 -54t51 -157v-248zM338 231l-73 -3q-57 -2 -79.5 -20t-22.5 -54t22 -51t50 -15q44 0 73.5 23t29.5 79v41zM358 678q0 -48 -28.5 -73t-69.5 -25t-69.5 25t-28.5 74
q0 48 28.5 73t69.5 25t69.5 -25t28.5 -74zM305 678q0 26 -13 38t-32 12t-32 -11.5t-13 -37.5t13 -38t32 -12t32 11.5t13 37.5z" />
    <glyph glyph-name="atilde" unicode="&#xe3;" horiz-adv-x="520" 
d="M475 83q0 -14 -1.5 -29.5t-8 -29t-19.5 -22t-37 -8.5q-27 0 -41.5 14.5t-16.5 37.5l-1 10q-19 -30 -57.5 -49t-94.5 -19q-32 0 -62 7.5t-53.5 25.5t-38 48t-14.5 75q0 37 13 67.5t40.5 53t70 35.5t102.5 15l82 3v16q0 48 -24.5 68t-77.5 20q-19 0 -31.5 -1.5t-26.5 -3.5
t-26.5 -4t-26.5 -2q-27 0 -41.5 15t-14.5 42q0 17 9 30t25 21q26 14 67.5 18.5t86.5 4.5q116 0 167 -54t51 -157v-248zM338 231l-73 -3q-57 -2 -79.5 -20t-22.5 -54t22 -51t50 -15q44 0 73.5 23t29.5 79v41zM431 696q0 -20 -10 -36.5t-25.5 -29.5t-35 -20t-38.5 -7t-35 5.5
t-31 12t-28 12t-26 5.5q-12 0 -20 -4.5t-15.5 -10t-16 -10t-20.5 -4.5q-19 0 -32.5 12t-13.5 33q0 19 10 36t25.5 30t35 20t38.5 7t35 -5.5t31 -12t28 -12t26 -5.5q12 0 20 4.5t15.5 10t16 10t20.5 4.5q19 0 32.5 -12t13.5 -33z" />
    <glyph glyph-name="ccedilla" unicode="&#xe7;" horiz-adv-x="456" 
d="M436 69q0 -27 -16.5 -42.5t-40.5 -24t-51 -11t-48 -2.5q-5 0 -11 0.5t-11 0.5l-9 -38q4 1 8 1q32 0 54.5 -18t22.5 -56q0 -24 -10 -41t-26 -28.5t-35.5 -17t-38.5 -5.5q-16 0 -32 1.5t-29 6t-21 12.5t-8 22q0 12 7.5 21t18.5 9q5 0 11 -1t12 -3q7 -2 14.5 -3t15.5 -1
q13 0 21.5 6t8.5 22q0 17 -10.5 22.5t-24.5 5.5q-8 0 -14.5 5.5t-6.5 16.5q0 3 1 9t3 12l13 48q-44 12 -77 36.5t-54.5 59.5t-32 78.5t-10.5 92.5q0 61 17 112t50 88t80.5 57.5t109.5 20.5q21 0 46.5 -3t48 -11t37.5 -23t15 -39t-16 -41t-42 -17q-6 0 -17 1.5t-23 3.5t-22 3
t-21 1q-34 0 -58 -12t-39 -32.5t-22 -48.5t-7 -60q0 -30 7 -57.5t21.5 -48.5t38 -33.5t56.5 -12.5q11 0 23 1t23 3q31 6 47 6q20 0 36.5 -14t16.5 -40z" />
    <glyph glyph-name="eacute" unicode="&#xe9;" horiz-adv-x="532" 
d="M502 309q0 -18 -2 -33t-9 -26.5t-19 -18t-33 -6.5h-269q2 -31 14.5 -53t31 -36.5t41 -21t44.5 -6.5q16 0 34 1t35 4q11 2 22 3t19 1q26 0 42 -16t16 -42q0 -21 -12 -33q-21 -22 -60.5 -29.5t-99.5 -7.5q-61 0 -110 19t-84 54.5t-54 86.5t-19 116q0 60 13.5 111t43 88
t75.5 58t112 21q58 0 101 -17.5t71.5 -48.5t42 -74t13.5 -94zM367 318q0 28 -4 50.5t-14.5 38t-29.5 23.5t-49 8q-55 0 -78.5 -32.5t-24.5 -87.5h200zM420 710q0 -23 -13.5 -36t-32.5 -21l-122 -49q-12 -5 -23 -5q-27 0 -42.5 17.5t-15.5 39.5q0 23 13.5 36t32.5 21l122 49
q12 5 23 5q27 0 42.5 -17.5t15.5 -39.5z" />
    <glyph glyph-name="ecircumflex" unicode="&#xea;" horiz-adv-x="532" 
d="M502 309q0 -18 -2 -33t-9 -26.5t-19 -18t-33 -6.5h-269q2 -31 14.5 -53t31 -36.5t41 -21t44.5 -6.5q16 0 34 1t35 4q11 2 22 3t19 1q26 0 42 -16t16 -42q0 -21 -12 -33q-21 -22 -60.5 -29.5t-99.5 -7.5q-61 0 -110 19t-84 54.5t-54 86.5t-19 116q0 60 13.5 111t43 88
t75.5 58t112 21q58 0 101 -17.5t71.5 -48.5t42 -74t13.5 -94zM367 318q0 28 -4 50.5t-14.5 38t-29.5 23.5t-49 8q-55 0 -78.5 -32.5t-24.5 -87.5h200zM432 658q0 -26 -15.5 -40t-37.5 -14q-8 0 -17.5 2.5t-16.5 5.5l-70 31l-70 -31q-7 -3 -16.5 -5.5t-17.5 -2.5
q-22 0 -37.5 14t-15.5 40q0 23 11.5 36t32.5 21l113 44l113 -44q21 -8 32.5 -21t11.5 -36z" />
    <glyph glyph-name="edieresis" unicode="&#xeb;" horiz-adv-x="532" 
d="M502 309q0 -18 -2 -33t-9 -26.5t-19 -18t-33 -6.5h-269q2 -31 14.5 -53t31 -36.5t41 -21t44.5 -6.5q16 0 34 1t35 4q11 2 22 3t19 1q26 0 42 -16t16 -42q0 -21 -12 -33q-21 -22 -60.5 -29.5t-99.5 -7.5q-61 0 -110 19t-84 54.5t-54 86.5t-19 116q0 60 13.5 111t43 88
t75.5 58t112 21q58 0 101 -17.5t71.5 -48.5t42 -74t13.5 -94zM367 318q0 28 -4 50.5t-14.5 38t-29.5 23.5t-49 8q-55 0 -78.5 -32.5t-24.5 -87.5h200zM451 672q0 -38 -18 -57t-50 -19q-29 0 -48 19.5t-19 56.5q0 35 19 55t48 20q30 0 49 -20t19 -55zM234 672q0 -38 -18 -57
t-50 -19q-29 0 -48 19.5t-19 56.5q0 35 19 55t48 20q30 0 49 -20t19 -55z" />
    <glyph glyph-name="egrave" unicode="&#xe8;" horiz-adv-x="532" 
d="M502 309q0 -18 -2 -33t-9 -26.5t-19 -18t-33 -6.5h-269q2 -31 14.5 -53t31 -36.5t41 -21t44.5 -6.5q16 0 34 1t35 4q11 2 22 3t19 1q26 0 42 -16t16 -42q0 -21 -12 -33q-21 -22 -60.5 -29.5t-99.5 -7.5q-61 0 -110 19t-84 54.5t-54 86.5t-19 116q0 60 13.5 111t43 88
t75.5 58t112 21q58 0 101 -17.5t71.5 -48.5t42 -74t13.5 -94zM367 318q0 28 -4 50.5t-14.5 38t-29.5 23.5t-49 8q-55 0 -78.5 -32.5t-24.5 -87.5h200zM383 656q0 -22 -15.5 -39.5t-42.5 -17.5q-11 0 -23 5l-122 49q-19 8 -32.5 21t-13.5 36q0 22 15.5 39.5t42.5 17.5
q11 0 23 -5l122 -49q19 -8 32.5 -21t13.5 -36z" />
    <glyph glyph-name="iacute" unicode="&#xed;" horiz-adv-x="240" 
d="M180 71q0 -35 -19 -56t-49 -21t-49.5 21t-19.5 56v390q0 35 19.5 56t49.5 21t49 -21t19 -56v-390v0zM286 710q0 -23 -13.5 -36t-32.5 -21l-122 -49q-12 -5 -23 -5q-27 0 -42.5 17.5t-15.5 39.5q0 23 13.5 36t32.5 21l122 49q12 5 23 5q27 0 42.5 -17.5t15.5 -39.5z" />
    <glyph glyph-name="icircumflex" unicode="&#xee;" horiz-adv-x="240" 
d="M180 71q0 -35 -19 -56t-49 -21t-49.5 21t-19.5 56v390q0 35 19.5 56t49.5 21t49 -21t19 -56v-390v0zM277 658q0 -26 -15.5 -40t-37.5 -14q-8 0 -17.5 2.5t-16.5 5.5l-70 31l-70 -31q-7 -3 -16.5 -5.5t-17.5 -2.5q-22 0 -37.5 14t-15.5 40q0 23 11.5 36t32.5 21l113 44
l113 -44q21 -8 32.5 -21t11.5 -36z" />
    <glyph glyph-name="idieresis" unicode="&#xef;" horiz-adv-x="240" 
d="M180 71q0 -35 -19 -56t-49 -21t-49.5 21t-19.5 56v390q0 35 19.5 56t49.5 21t49 -21t19 -56v-390v0zM296 672q0 -38 -18 -57t-50 -19q-29 0 -48 19.5t-19 56.5q0 35 19 55t48 20q30 0 49 -20t19 -55zM79 672q0 -38 -18 -57t-50 -19q-29 0 -48 19.5t-19 56.5q0 35 19 55
t48 20q30 0 49 -20t19 -55z" />
    <glyph glyph-name="igrave" unicode="&#xec;" horiz-adv-x="240" 
d="M180 71q0 -35 -19 -56t-49 -21t-49.5 21t-19.5 56v390q0 35 19.5 56t49.5 21t49 -21t19 -56v-390v0zM205 656q0 -22 -15.5 -39.5t-42.5 -17.5q-11 0 -23 5l-122 49q-19 8 -32.5 21t-13.5 36q0 22 15.5 39.5t42.5 17.5q11 0 23 -5l122 -49q19 -8 32.5 -21t13.5 -36z" />
    <glyph glyph-name="ntilde" unicode="&#xf1;" horiz-adv-x="557" 
d="M512 71q0 -35 -19 -56t-49 -21t-49.5 21t-19.5 56v254q0 45 -17 71t-61 26q-21 0 -41.5 -5t-37 -13.5t-26.5 -20.5t-10 -26v-286q0 -35 -19 -56t-50 -21q-30 0 -49 21t-19 56v390q0 35 19 56t49 21q26 0 44 -15t18 -34v-2q34 29 77 42.5t87 13.5q77 0 125 -46t48 -136
v-290v0zM453 696q0 -20 -10 -36.5t-25.5 -29.5t-35 -20t-38.5 -7t-35 5.5t-31 12t-28 12t-26 5.5q-12 0 -20 -4.5t-15.5 -10t-16 -10t-20.5 -4.5q-19 0 -32.5 12t-13.5 33q0 19 10 36t25.5 30t35 20t38.5 7t35 -5.5t31 -12t28 -12t26 -5.5q12 0 20 4.5t15.5 10t16 10
t20.5 4.5q19 0 32.5 -12t13.5 -33z" />
    <glyph glyph-name="oacute" unicode="&#xf3;" horiz-adv-x="551" 
d="M521 265q0 -129 -61.5 -202.5t-184.5 -73.5q-128 0 -186.5 73.5t-58.5 202.5q0 63 16 114t46.5 87.5t76.5 56.5t106 20q64 0 110.5 -20t76.5 -56.5t44.5 -87.5t14.5 -114zM386 265q0 33 -5 61.5t-18 49.5t-34 33t-54 12q-32 0 -53.5 -12t-34 -33t-17.5 -49.5t-5 -61.5
q0 -32 5 -60.5t18 -49.5t34 -33t53 -12t53.5 12t34 33t18 49.5t5.5 60.5zM427 710q0 -23 -13.5 -36t-32.5 -21l-122 -49q-12 -5 -23 -5q-27 0 -42.5 17.5t-15.5 39.5q0 23 13.5 36t32.5 21l122 49q12 5 23 5q27 0 42.5 -17.5t15.5 -39.5z" />
    <glyph glyph-name="ocircumflex" unicode="&#xf4;" horiz-adv-x="551" 
d="M521 265q0 -129 -61.5 -202.5t-184.5 -73.5q-128 0 -186.5 73.5t-58.5 202.5q0 63 16 114t46.5 87.5t76.5 56.5t106 20q64 0 110.5 -20t76.5 -56.5t44.5 -87.5t14.5 -114zM386 265q0 33 -5 61.5t-18 49.5t-34 33t-54 12q-32 0 -53.5 -12t-34 -33t-17.5 -49.5t-5 -61.5
q0 -32 5 -60.5t18 -49.5t34 -33t53 -12t53.5 12t34 33t18 49.5t5.5 60.5zM432 658q0 -26 -15.5 -40t-37.5 -14q-8 0 -17.5 2.5t-16.5 5.5l-70 31l-70 -31q-7 -3 -16.5 -5.5t-17.5 -2.5q-22 0 -37.5 14t-15.5 40q0 23 11.5 36t32.5 21l113 44l113 -44q21 -8 32.5 -21
t11.5 -36z" />
    <glyph glyph-name="odieresis" unicode="&#xf6;" horiz-adv-x="551" 
d="M521 265q0 -129 -61.5 -202.5t-184.5 -73.5q-128 0 -186.5 73.5t-58.5 202.5q0 63 16 114t46.5 87.5t76.5 56.5t106 20q64 0 110.5 -20t76.5 -56.5t44.5 -87.5t14.5 -114zM386 265q0 33 -5 61.5t-18 49.5t-34 33t-54 12q-32 0 -53.5 -12t-34 -33t-17.5 -49.5t-5 -61.5
q0 -32 5 -60.5t18 -49.5t34 -33t53 -12t53.5 12t34 33t18 49.5t5.5 60.5zM451 672q0 -38 -18 -57t-50 -19q-29 0 -48 19.5t-19 56.5q0 35 19 55t48 20q30 0 49 -20t19 -55zM234 672q0 -38 -18 -57t-50 -19q-29 0 -48 19.5t-19 56.5q0 35 19 55t48 20q30 0 49 -20t19 -55z
" />
    <glyph glyph-name="ograve" unicode="&#xf2;" horiz-adv-x="551" 
d="M521 265q0 -129 -61.5 -202.5t-184.5 -73.5q-128 0 -186.5 73.5t-58.5 202.5q0 63 16 114t46.5 87.5t76.5 56.5t106 20q64 0 110.5 -20t76.5 -56.5t44.5 -87.5t14.5 -114zM386 265q0 33 -5 61.5t-18 49.5t-34 33t-54 12q-32 0 -53.5 -12t-34 -33t-17.5 -49.5t-5 -61.5
q0 -32 5 -60.5t18 -49.5t34 -33t53 -12t53.5 12t34 33t18 49.5t5.5 60.5zM385 656q0 -22 -15.5 -39.5t-42.5 -17.5q-11 0 -23 5l-122 49q-19 8 -32.5 21t-13.5 36q0 22 15.5 39.5t42.5 17.5q11 0 23 -5l122 -49q19 -8 32.5 -21t13.5 -36z" />
    <glyph glyph-name="otilde" unicode="&#xf5;" horiz-adv-x="551" 
d="M521 265q0 -129 -61.5 -202.5t-184.5 -73.5q-128 0 -186.5 73.5t-58.5 202.5q0 63 16 114t46.5 87.5t76.5 56.5t106 20q64 0 110.5 -20t76.5 -56.5t44.5 -87.5t14.5 -114zM386 265q0 33 -5 61.5t-18 49.5t-34 33t-54 12q-32 0 -53.5 -12t-34 -33t-17.5 -49.5t-5 -61.5
q0 -32 5 -60.5t18 -49.5t34 -33t53 -12t53.5 12t34 33t18 49.5t5.5 60.5zM449 696q0 -20 -10 -36.5t-25.5 -29.5t-35 -20t-38.5 -7t-35 5.5t-31 12t-28 12t-26 5.5q-12 0 -20 -4.5t-15.5 -10t-16 -10t-20.5 -4.5q-19 0 -32.5 12t-13.5 33q0 19 10 36t25.5 30t35 20t38.5 7
t35 -5.5t31 -12t28 -12t26 -5.5q12 0 20 4.5t15.5 10t16 10t20.5 4.5q19 0 32.5 -12t13.5 -33z" />
    <glyph glyph-name="scaron" unicode="&#x161;" horiz-adv-x="438" 
d="M408 155q0 -74 -51 -120t-145 -46q-39 0 -76 3.5t-63 14.5q-20 8 -31.5 21.5t-11.5 35.5q0 26 18 41.5t47 15.5q8 0 17 -1.5t20 -3.5q14 -3 32.5 -5.5t43.5 -2.5q61 0 61 35q0 22 -24 37t-57 32q-25 12 -51.5 26.5t-48.5 34.5t-36 46.5t-14 62.5q0 73 47.5 117.5
t135.5 44.5q34 0 69 -4.5t61 -16.5q18 -8 28.5 -20.5t10.5 -32.5q0 -28 -16 -43.5t-42 -15.5q-10 0 -20.5 1.5t-22.5 3.5q-17 3 -34.5 5.5t-35.5 2.5q-51 0 -51 -32q0 -22 24.5 -37.5t59.5 -32.5q26 -12 53.5 -27t50.5 -34.5t37.5 -45t14.5 -60.5zM371 700q0 -21 -13 -35.5
t-34 -22.5l-106 -43l-105 43q-21 8 -34 22.5t-13 35.5q0 32 18.5 46t39.5 14q16 0 30 -6l64 -29l65 29q6 2 14 4t16 2q21 0 39.5 -14t18.5 -46z" />
    <glyph glyph-name="uacute" unicode="&#xfa;" horiz-adv-x="557" 
d="M512 200q0 -96 -60 -153.5t-174 -57.5t-173.5 57.5t-59.5 153.5v261q0 35 19 56t49 21t49 -21t19 -56v-266q0 -47 27 -67.5t70 -20.5q44 0 70.5 20.5t26.5 67.5v266q0 35 19 56t49 21t49.5 -21t19.5 -56v-261v0zM444 710q0 -23 -13.5 -36t-32.5 -21l-122 -49
q-12 -5 -23 -5q-27 0 -42.5 17.5t-15.5 39.5q0 23 13.5 36t32.5 21l122 49q12 5 23 5q27 0 42.5 -17.5t15.5 -39.5z" />
    <glyph glyph-name="ucircumflex" unicode="&#xfb;" horiz-adv-x="557" 
d="M512 200q0 -96 -60 -153.5t-174 -57.5t-173.5 57.5t-59.5 153.5v261q0 35 19 56t49 21t49 -21t19 -56v-266q0 -47 27 -67.5t70 -20.5q44 0 70.5 20.5t26.5 67.5v266q0 35 19 56t49 21t49.5 -21t19.5 -56v-261v0zM435 658q0 -26 -15.5 -40t-37.5 -14q-8 0 -17.5 2.5
t-16.5 5.5l-70 31l-70 -31q-7 -3 -16.5 -5.5t-17.5 -2.5q-22 0 -37.5 14t-15.5 40q0 23 11.5 36t32.5 21l113 44l113 -44q21 -8 32.5 -21t11.5 -36z" />
    <glyph glyph-name="udieresis" unicode="&#xfc;" horiz-adv-x="557" 
d="M512 200q0 -96 -60 -153.5t-174 -57.5t-173.5 57.5t-59.5 153.5v261q0 35 19 56t49 21t49 -21t19 -56v-266q0 -47 27 -67.5t70 -20.5q44 0 70.5 20.5t26.5 67.5v266q0 35 19 56t49 21t49.5 -21t19.5 -56v-261v0zM454 672q0 -38 -18 -57t-50 -19q-29 0 -48 19.5t-19 56.5
q0 35 19 55t48 20q30 0 49 -20t19 -55zM237 672q0 -38 -18 -57t-50 -19q-29 0 -48 19.5t-19 56.5q0 35 19 55t48 20q30 0 49 -20t19 -55z" />
    <glyph glyph-name="ugrave" unicode="&#xf9;" horiz-adv-x="557" 
d="M512 200q0 -96 -60 -153.5t-174 -57.5t-173.5 57.5t-59.5 153.5v261q0 35 19 56t49 21t49 -21t19 -56v-266q0 -47 27 -67.5t70 -20.5q44 0 70.5 20.5t26.5 67.5v266q0 35 19 56t49 21t49.5 -21t19.5 -56v-261v0zM362 656q0 -22 -15.5 -39.5t-42.5 -17.5q-11 0 -23 5
l-122 49q-19 8 -32.5 21t-13.5 36q0 22 15.5 39.5t42.5 17.5q11 0 23 -5l122 -49q19 -8 32.5 -21t13.5 -36z" />
    <glyph glyph-name="yacute" unicode="&#xfd;" horiz-adv-x="507" 
d="M492 479q0 -11 -2 -19t-5 -16l-245 -618q-9 -23 -25 -36t-44 -13q-22 0 -43 15t-21 44q0 11 2 19t5 16l67 168l-159 404q-3 8 -5 16.5t-2 19.5q0 26 19.5 42.5t44.5 16.5q28 0 44.5 -13t24.5 -36l101 -284h2l107 284q19 49 69 49q26 0 45.5 -16.5t19.5 -42.5zM429 710
q0 -23 -13.5 -36t-32.5 -21l-122 -49q-12 -5 -23 -5q-27 0 -42.5 17.5t-15.5 39.5q0 23 13.5 36t32.5 21l122 49q12 5 23 5q27 0 42.5 -17.5t15.5 -39.5z" />
    <glyph glyph-name="ydieresis" unicode="&#xff;" horiz-adv-x="507" 
d="M492 479q0 -11 -2 -19t-5 -16l-245 -618q-9 -23 -25 -36t-44 -13q-22 0 -43 15t-21 44q0 11 2 19t5 16l67 168l-159 404q-3 8 -5 16.5t-2 19.5q0 26 19.5 42.5t44.5 16.5q28 0 44.5 -13t24.5 -36l101 -284h2l107 284q19 49 69 49q26 0 45.5 -16.5t19.5 -42.5zM430 672
q0 -38 -18 -57t-50 -19q-29 0 -48 19.5t-19 56.5q0 35 19 55t48 20q30 0 49 -20t19 -55zM213 672q0 -38 -18 -57t-50 -19q-29 0 -48 19.5t-19 56.5q0 35 19 55t48 20q30 0 49 -20t19 -55z" />
    <glyph glyph-name="zcaron" unicode="&#x17e;" horiz-adv-x="481" 
d="M461 60q0 -29 -18 -44.5t-44 -15.5h-303q-34 0 -52.5 16.5t-18.5 49.5q0 17 7 32t15 26l221 288h-175q-26 0 -44.5 15.5t-18.5 44.5t18.5 44.5t44.5 15.5h289q7 0 18 -2t21 -8.5t17.5 -18t7.5 -30.5q0 -20 -6.5 -34.5t-17.5 -28.5l-221 -290h198q26 0 44 -15.5t18 -44.5z
M401 700q0 -21 -13 -35.5t-34 -22.5l-106 -43l-105 43q-21 8 -34 22.5t-13 35.5q0 32 18.5 46t39.5 14q16 0 30 -6l64 -29l65 29q6 2 14 4t16 2q21 0 39.5 -14t18.5 -46z" />
    <glyph glyph-name="oneeighth" unicode="&#x215b;" horiz-adv-x="839" 
d="M794 125q0 -60 -35.5 -94.5t-108.5 -34.5q-74 0 -109 34.5t-35 94.5q0 38 13.5 60.5t45.5 39.5q-17 9 -30.5 32t-13.5 53q0 55 34 82.5t95 27.5t95 -27.5t34 -82.5q0 -32 -13 -54.5t-31 -31.5q29 -16 44 -38.5t15 -60.5zM605 677q0 -6 -2 -14t-8 -19l-320 -620
q-10 -19 -21.5 -27t-28.5 -8q-22 0 -38.5 12.5t-16.5 35.5q0 6 2 14t8 19l320 620q10 19 21.5 27t28.5 8q22 0 38.5 -12.5t16.5 -35.5zM227 331q0 -18 -13 -32t-36 -14q-22 0 -35.5 13t-13.5 33v289h-35q-22 0 -35.5 13.5t-13.5 36.5q0 21 14.5 34t34.5 13h91q20 0 31 -11.5
t11 -28.5v-346zM691 299q0 23 -10.5 32.5t-30.5 9.5t-30.5 -9.5t-10.5 -32.5q0 -20 9 -32.5t32 -12.5t32 12.5t9 32.5zM699 131q0 50 -49 50t-49 -50t49 -50t49 50z" />
    <glyph glyph-name="threeeighths" unicode="&#x215c;" horiz-adv-x="851" 
d="M806 125q0 -60 -35.5 -94.5t-108.5 -34.5q-74 0 -109 34.5t-35 94.5q0 38 13.5 60.5t45.5 39.5q-17 9 -30.5 32t-13.5 53q0 55 34 82.5t95 27.5t95 -27.5t34 -82.5q0 -32 -13 -54.5t-31 -31.5q29 -16 44 -38.5t15 -60.5zM638 677q0 -6 -2 -14t-8 -19l-320 -620
q-10 -19 -21.5 -27t-28.5 -8q-22 0 -38.5 12.5t-16.5 35.5q0 6 2 14t8 19l320 620q10 19 21.5 27t28.5 8q22 0 38.5 -12.5t16.5 -35.5zM313 420q0 -58 -39 -95.5t-112 -37.5q-29 0 -54.5 5.5t-41.5 15.5q-21 13 -21 36q0 22 14 34t34 12q5 0 12.5 -1t13.5 -3q22 -5 42 -5
q27 0 40 14t13 34q0 43 -59 43h-12q-22 0 -35.5 11t-13.5 31q0 23 13.5 34.5t35.5 11.5h12q29 0 40.5 12.5t11.5 29.5q0 12 -8.5 22.5t-30.5 10.5q-10 0 -21.5 -2.5t-22.5 -6.5q-15 -6 -26 -6q-20 0 -32 8.5t-12 28.5q0 30 32 47q16 8 39 13.5t45 5.5q71 0 100.5 -31.5
t29.5 -80.5q0 -10 -2.5 -22.5t-9 -25.5t-18 -24t-29.5 -18q39 -11 55.5 -38.5t16.5 -62.5zM703 299q0 23 -10.5 32.5t-30.5 9.5t-30.5 -9.5t-10.5 -32.5q0 -20 9 -32.5t32 -12.5t32 12.5t9 32.5zM711 131q0 50 -49 50t-49 -50t49 -50t49 50z" />
    <glyph glyph-name="fiveeighths" unicode="&#x215d;" horiz-adv-x="846" 
d="M801 125q0 -60 -35.5 -94.5t-108.5 -34.5q-74 0 -109 34.5t-35 94.5q0 38 13.5 60.5t45.5 39.5q-17 9 -30.5 32t-13.5 53q0 55 34 82.5t95 27.5t95 -27.5t34 -82.5q0 -32 -13 -54.5t-31 -31.5q29 -16 44 -38.5t15 -60.5zM633 677q0 -6 -2 -14t-8 -19l-320 -620
q-10 -19 -21.5 -27t-28.5 -8q-22 0 -38.5 12.5t-16.5 35.5q0 6 2 14t8 19l320 620q10 19 21.5 27t28.5 8q22 0 38.5 -12.5t16.5 -35.5zM311 434q0 -66 -38 -106.5t-116 -40.5q-29 0 -55.5 6t-39.5 17q-8 7 -12.5 14t-4.5 18q0 20 12 32t31 12q5 0 8.5 -0.5t6.5 -1.5
q11 -3 25 -6t29 -3q58 0 58 55q0 44 -58 44h-52q-19 0 -31 12t-12 30v143q0 28 12 39.5t36 11.5h138q21 0 33 -12.5t12 -30.5q0 -20 -11 -32t-33 -12h-98v-62h21q66 0 102.5 -30.5t36.5 -96.5zM698 299q0 23 -10.5 32.5t-30.5 9.5t-30.5 -9.5t-10.5 -32.5q0 -20 9 -32.5
t32 -12.5t32 12.5t9 32.5zM706 131q0 50 -49 50t-49 -50t49 -50t49 50z" />
    <glyph glyph-name="seveneighths" unicode="&#x215e;" horiz-adv-x="806" 
d="M761 125q0 -60 -35.5 -94.5t-108.5 -34.5q-74 0 -109 34.5t-35 94.5q0 38 13.5 60.5t45.5 39.5q-17 9 -30.5 32t-13.5 53q0 55 34 82.5t95 27.5t95 -27.5t34 -82.5q0 -32 -13 -54.5t-31 -31.5q29 -16 44 -38.5t15 -60.5zM593 677q0 -6 -2 -14t-8 -19l-320 -620
q-10 -19 -21.5 -27t-28.5 -8q-22 0 -38.5 12.5t-16.5 35.5q0 6 2 14t8 19l320 620q10 19 21.5 27t28.5 8q22 0 38.5 -12.5t16.5 -35.5zM322 666q0 -9 -2 -19t-9 -25l-133 -285q-12 -26 -23.5 -35.5t-32.5 -9.5q-25 0 -36 13.5t-11 28.5q0 9 1.5 15t5.5 14l126 258h-115
q-26 0 -37 13.5t-11 30.5t11 31t37 14h178q26 0 38.5 -12.5t12.5 -31.5zM658 299q0 23 -10.5 32.5t-30.5 9.5t-30.5 -9.5t-10.5 -32.5q0 -20 9 -32.5t32 -12.5t32 12.5t9 32.5zM666 131q0 50 -49 50t-49 -50t49 -50t49 50z" />
    <glyph glyph-name="one.superior" unicode="&#xb9;" horiz-adv-x="307" 
d="M217 333q0 -18 -13 -33t-36 -15q-22 0 -35.5 14t-13.5 34v287h-35q-22 0 -35.5 13.5t-13.5 36.5q0 21 14.5 34t34.5 13h91q20 0 31 -11.5t11 -28.5v-344v0z" />
    <glyph glyph-name="two.superior" unicode="&#xb2;" horiz-adv-x="351" 
d="M316 342q0 -25 -15.5 -36.5t-35.5 -11.5h-182q-48 0 -48 52q0 14 4.5 25t11.5 19l121 147q18 22 24.5 35.5t6.5 25.5q0 14 -8 22.5t-31 8.5q-15 0 -26 -3t-22 -8q-15 -6 -27 -6q-20 0 -32 11t-12 30q0 22 15 36q16 15 44.5 24.5t65.5 9.5q60 0 98.5 -26.5t38.5 -85.5
q0 -37 -18 -68.5t-45 -62.5l-82 -92h101q23 0 38 -11t15 -35z" />
    <glyph glyph-name="three.superior" unicode="&#xb3;" horiz-adv-x="338" 
d="M303 420q0 -58 -39 -95.5t-112 -37.5q-29 0 -54.5 5.5t-41.5 15.5q-21 13 -21 36q0 22 14 34t34 12q5 0 12.5 -1t13.5 -3q22 -5 42 -5q27 0 40 14t13 34q0 43 -59 43h-12q-22 0 -35.5 11t-13.5 31q0 23 13.5 34.5t35.5 11.5h12q29 0 40.5 12.5t11.5 29.5q0 12 -8.5 22.5
t-30.5 10.5q-10 0 -21.5 -2.5t-22.5 -6.5q-15 -6 -26 -6q-20 0 -32 8.5t-12 28.5q0 30 32 47q16 8 39 13.5t45 5.5q71 0 100.5 -31.5t29.5 -80.5q0 -10 -2.5 -22.5t-9 -25.5t-18 -24t-29.5 -18q39 -11 55.5 -38.5t16.5 -62.5z" />
    <glyph glyph-name="Delta" unicode="&#x2206;" horiz-adv-x="624" 
d="M26 0v47l231 653h139l228 -653v-47h-598zM340 550q-6 19 -9.5 34t-6.5 25h-4q-2 -9 -6 -25t-9 -33l-160 -464h354z" />
    <glyph glyph-name="Omega" unicode="&#x2126;" horiz-adv-x="722" 
d="M423 0v86q21 19 44.5 45t43 61.5t32.5 80.5t13 102q0 53 -13 98t-37.5 77.5t-61.5 51t-85 18.5q-46 0 -83.5 -18t-64.5 -50.5t-41.5 -78t-14.5 -100.5q0 -56 13 -100.5t32.5 -79.5t43.5 -61.5t46 -45.5v-86h-245v86h153q-24 19 -51.5 46t-50 64.5t-37.5 86t-15 110.5
q0 69 23 127.5t64.5 101t99.5 66.5t129 24q75 0 132.5 -24t96.5 -66t59 -100t20 -126q0 -56 -13.5 -103.5t-35 -86t-49.5 -68.5t-57 -52h154v-86h-244z" />
    <glyph glyph-name="uni03BC" unicode="&#x3bc;" horiz-adv-x="557" 
d="M512 70q0 -35 -19.5 -55.5t-48.5 -20.5q-30 0 -49.5 18t-19.5 48h-2q-17 -38 -44 -51.5t-51 -13.5t-51 10.5t-43 33.5h-2v-180q0 -35 -19 -56t-50 -21q-30 0 -49 21t-19 56v602q0 35 19 56t49 21q31 0 50 -21t19 -56v-261q0 -47 29 -72t67 -25q39 0 68 24.5t29 72.5v261
q0 35 19.5 56t49.5 21t49 -21t19 -56v-391v0z" />
    <glyph glyph-name="pi" unicode="&#x3c0;" horiz-adv-x="673" 
d="M639 10q-11 -8 -32 -13t-44 -5q-36 0 -60 12t-39 31.5t-21 45.5t-6 53v292h-183v-289q0 -45 -3.5 -78t-10.5 -59h-101q8 31 12 67t4 75v284q-20 -1 -47 -7.5t-46 -16.5l-28 65q24 14 65 23.5t85 9.5h451v-74h-99v-279q0 -37 12.5 -59t42.5 -22q8 0 15.5 2.5t14.5 6.5
l18 -65v0z" />
    <glyph glyph-name="Euro" unicode="&#x20ac;" 
d="M578 73q0 -29 -18.5 -46t-52.5 -25q-15 -4 -29 -6.5t-28.5 -4t-31 -2t-37.5 -0.5q-59 0 -105.5 18t-81.5 50.5t-58 79t-34 103.5h-49q-18 0 -30 11t-12 30q0 18 12 29t30 11h39q-1 9 -1 18v18v21h-38q-18 0 -30 11t-12 30q0 18 12 29t30 11h47q12 61 38.5 110t65.5 83
t90 52.5t113 18.5q37 0 73.5 -5.5t61.5 -19.5q35 -19 35 -53q0 -29 -16.5 -46.5t-44.5 -17.5q-8 0 -23 2t-28 4q-18 2 -32 3t-31 1q-66 0 -102.5 -35.5t-50.5 -96.5h200q18 0 30 -11t12 -29q0 -19 -12 -30t-30 -11h-210v-21v-19t1 -17h177q18 0 30 -11t12 -29q0 -19 -12 -30
t-30 -11h-164q16 -54 51 -86.5t97 -32.5q34 0 71 8q11 2 23.5 4t20.5 2q29 0 45.5 -16.5t16.5 -45.5z" />
    <glyph glyph-name="afii61289" unicode="&#x2113;" horiz-adv-x="502" 
d="M416 49q-11 -10 -25 -21.5t-31.5 -21t-38 -15.5t-43.5 -6q-32 0 -54 9.5t-39 26.5q-20 20 -29.5 54t-9.5 71v90l-57 -59l-34 48l91 95v217q0 95 37 143t100 48q30 0 51 -11t33.5 -27.5t18 -37t5.5 -38.5q0 -73 -32.5 -135t-83.5 -125l-33 -40v-160q0 -51 17 -72t44 -21
q25 0 45.5 14.5t35.5 30.5q8 -14 16 -28.5t16 -28.5zM327 601q0 20 -8.5 36t-27.5 16q-23 0 -36 -24t-13 -79v-147q5 5 9.5 12t8.5 13q30 42 48.5 88t18.5 85z" />
    <glyph glyph-name="estimated" unicode="&#x212e;" horiz-adv-x="668" 
d="M164 292v-201q65 -65 160 -65q77 0 127.5 35.5t88.5 96.5q9 -5 18 -10.5t18 -11.5q-23 -34 -48 -61t-55 -46.5t-66.5 -30t-82.5 -10.5q-66 0 -118.5 24t-89.5 65t-57 96.5t-20 118.5t19.5 118.5t56.5 97t90 65t120 23.5q68 0 121 -23.5t90 -65t56.5 -97t21.5 -118.5h-450
zM486 493q-32 31 -73.5 48.5t-88.5 17.5q-96 0 -160 -65v-164h322v163z" />
    <glyph glyph-name="partialdiff" unicode="&#x2202;" 
d="M548 474q0 -46 -6 -94t-19 -96q-15 -57 -40.5 -110t-61 -94.5t-81 -66t-101.5 -24.5q-43 0 -78.5 14.5t-61 40t-39.5 61.5t-14 80q0 75 23 132.5t60.5 97t84.5 60t94 20.5q51 0 84.5 -20.5t47.5 -46.5h2q2 14 3 29t1 33q0 78 -35.5 119t-98.5 41q-25 0 -51 -7.5
t-47 -19.5l-23 70q21 14 57.5 25t78.5 11q101 0 161 -65.5t60 -189.5zM429 343q-11 33 -36.5 55.5t-68.5 22.5q-34 0 -65.5 -18.5t-55.5 -51t-38.5 -76.5t-14.5 -95t24.5 -80.5t66.5 -29.5q34 0 64 21t54 57.5t42 86.5t28 108z" />
    <glyph glyph-name="product" unicode="&#x220f;" horiz-adv-x="734" 
d="M547 -230v839h-360v-839h-106v930h572v-930h-106z" />
    <glyph glyph-name="summation" unicode="&#x2211;" horiz-adv-x="644" 
d="M22 -230v53l314 416l-293 402v59h531v-86h-398q69 -94 136 -186t135 -186l-288 -386h437v-86h-574z" />
    <glyph glyph-name="radical" unicode="&#x221a;" horiz-adv-x="530" 
d="M342 -12h-83l-134 324l-55 -35l-33 55l134 85l128 -314l161 626h73z" />
    <glyph glyph-name="infinity" unicode="&#x221e;" horiz-adv-x="801" 
d="M752 294q0 -37 -12.5 -68.5t-35 -55t-53.5 -37t-69 -13.5q-59 0 -106.5 30.5t-77.5 78.5h-2q-32 -47 -78.5 -78t-103.5 -31q-36 0 -68 12t-55 34t-36.5 54t-13.5 71t13.5 71t36.5 54.5t54 34.5t67 12q31 0 58.5 -9t50.5 -24t41.5 -34.5t33.5 -41.5h2q12 18 29.5 37.5
t40.5 35t50.5 26t60.5 10.5q37 0 69 -12.5t55 -35t36 -53.5t13 -68zM669 293q0 39 -23 67.5t-73 28.5q-44 0 -76 -26.5t-60 -70.5q26 -46 61 -72.5t76 -26.5q24 0 42 8.5t30 22t17.5 31.5t5.5 38zM356 292q-26 42 -62 69.5t-75 27.5q-48 0 -71.5 -29t-23.5 -70
q0 -42 26.5 -69.5t68.5 -27.5q43 0 77.5 29.5t59.5 69.5z" />
    <glyph glyph-name="integral" unicode="&#x222b;" horiz-adv-x="500" 
d="M417 659q-7 4 -19 6.5t-25 2.5q-78 0 -78 -93v-622q0 -85 -41.5 -134.5t-125.5 -49.5q-20 0 -43.5 4t-36.5 9l20 76q9 -3 20.5 -5.5t25.5 -2.5q76 0 76 93v622q0 84 42 134t127 50q23 0 46 -4.5t34 -9.5q-5 -20 -10.5 -38.5t-11.5 -37.5z" />
    <glyph glyph-name="approxequal" unicode="&#x2248;" horiz-adv-x="568" 
d="M512 421q-25 -39 -55.5 -62.5t-75.5 -23.5q-54 0 -104 31q-20 13 -41 22t-44 9q-27 0 -47 -20.5t-34 -43.5l-54 62q23 35 53.5 60t78.5 25q29 0 54 -8t48 -22q25 -15 45 -23.5t42 -8.5q26 0 46 19.5t34 44.5zM512 197q-25 -38 -55.5 -62t-75.5 -24q-55 0 -104 32
q-20 13 -41 22t-44 9q-27 0 -47 -21t-34 -44l-54 63q23 35 53.5 60t78.5 25q29 0 54 -8.5t48 -22.5q25 -15 45 -23.5t42 -8.5q26 0 46 19.5t34 45.5z" />
    <glyph glyph-name="notequal" unicode="&#x2260;" horiz-adv-x="568" 
d="M261 143l-52 -116h-89l52 116h-91v83h127l62 141h-189v83h226l55 127h90l-56 -127h92v-83h-128l-63 -141h191v-83h-227z" />
    <glyph glyph-name="lessequal" unicode="&#x2264;" horiz-adv-x="568" 
d="M81 0v83h407v-83h-407zM81 322v70l407 184v-88l-299 -130v-2l299 -131v-87z" />
    <glyph glyph-name="greaterequal" unicode="&#x2265;" horiz-adv-x="568" 
d="M81 0v83h407v-83h-407zM81 139v88l299 130v2l-299 130v88l407 -184v-70z" />
    <glyph glyph-name="lozenge" unicode="&#x25ca;" horiz-adv-x="573" 
d="M301 0h-51l-206 349q51 88 103 175.5t103 175.5h51l208 -350zM276 606l-151 -256q38 -65 75.5 -128.5t75.5 -127.5l151 256z" />
    <glyph glyph-name="uni00A0" unicode="&#xa0;" horiz-adv-x="265" 
 />
    <glyph glyph-name="uni00AD" unicode="&#xad;" horiz-adv-x="391" 
d="M356 287q0 -25 -14.5 -42t-40.5 -17h-211q-27 0 -41 17t-14 42q0 26 14 43.5t41 17.5h211q26 0 40.5 -17.5t14.5 -43.5z" />
    <glyph glyph-name="uni203E" unicode="&#x203e;" horiz-adv-x="252" 
d="M282 666q0 -28 -17.5 -42.5t-45.5 -14.5h-186q-28 0 -45.5 14.5t-17.5 42.5q0 29 18 43.5t45 14.5h186q28 0 45.5 -14.5t17.5 -43.5z" />
    <glyph glyph-name="apple" unicode="&#xe000;" horiz-adv-x="522" 
d="M472 278q0 -12 -5 -23.5t-21 -31.5l-94 -115q-16 -19 -30 -30.5t-33 -11.5q-16 0 -27 6t-18 14t-10 16.5t-3 15.5q0 19 8 32t19 26l44 52h-192q-27 0 -43.5 14.5t-16.5 37.5q0 21 16.5 36t43.5 15h192l-44 52q-11 13 -19 26t-8 32q0 7 3 15.5t10 16.5t18 14t27 6
q19 0 33.5 -11t29.5 -30l94 -120q16 -20 21 -31.5t5 -22.5z" />
    <glyph glyph-name="periodcentered" unicode="&#xe001;" horiz-adv-x="261" 
d="M206 286q0 -42 -20 -64t-55 -22q-34 0 -55 22t-21 64q0 39 21 61t55 22q33 0 54 -22t21 -61z" />
    <glyph glyph-name="uni03A9" unicode="&#x3a9;" horiz-adv-x="722" 
d="M423 0v86q21 19 44.5 45t43 61.5t32.5 80.5t13 102q0 53 -13 98t-37.5 77.5t-61.5 51t-85 18.5q-46 0 -83.5 -18t-64.5 -50.5t-41.5 -78t-14.5 -100.5q0 -56 13 -100.5t32.5 -79.5t43.5 -61.5t46 -45.5v-86h-245v86h153q-24 19 -51.5 46t-50 64.5t-37.5 86t-15 110.5
q0 69 23 127.5t64.5 101t99.5 66.5t129 24q75 0 132.5 -24t96.5 -66t59 -100t20 -126q0 -56 -13.5 -103.5t-35 -86t-49.5 -68.5t-57 -52h154v-86h-244z" />
    <glyph glyph-name="uni0312" unicode="&#x312;" horiz-adv-x="833" 
d="M301 -105q0 21 15 39t41 18q20 0 33.5 -10.5t21 -26.5t10.5 -34.5t3 -33.5q0 -28 -10 -63t-28.5 -65.5t-44.5 -51.5t-58 -21q-29 0 -43.5 18t-14.5 38q0 17 9 30.5t30 26.5q5 3 12.5 8t15 13t13 20t5.5 30q0 17 -5 30t-5 35z" />
    <glyph glyph-name="Dcroat" unicode="&#x110;" horiz-adv-x="629" 
d="M627 357q0 -82 -21 -148t-61.5 -112.5t-99 -71.5t-133.5 -25h-149q-12 0 -25.5 3.5t-24.5 11.5t-18 22t-7 34v235h-28q-30 0 -45 16.5t-15 37.5q0 20 15 37.5t45 17.5h28v224q0 33 20 53t53 20h152q82 0 141 -23.5t97.5 -69t57 -111.5t18.5 -151zM479 354q0 51 -6.5 93
t-25 72t-51.5 46t-85 16h-81v-166h88q30 0 45 -16.5t15 -37.5q0 -20 -15 -37.5t-45 -17.5h-88v-175h83q50 0 82 16.5t51 46t26 70.5t7 90z" />
    <glyph glyph-name="Amacron" unicode="&#x100;" horiz-adv-x="650" 
d="M635 56q0 -27 -21 -44.5t-47 -17.5q-30 0 -48.5 14t-25.5 36l-36 116h-272l-36 -115q-7 -23 -22.5 -37t-44.5 -14t-48 18.5t-19 47.5q0 11 2.5 19t4.5 13l196 552q11 32 37 55.5t71 23.5q47 0 72 -22.5t37 -56.5l192 -551q5 -12 6.5 -22t1.5 -15zM323 596h-2l-98 -315
h197zM481 818q0 -28 -17.5 -42.5t-45.5 -14.5h-186q-28 0 -45.5 14.5t-17.5 42.5q0 29 18 43.5t45 14.5h186q28 0 45.5 -14.5t17.5 -43.5z" />
    <glyph glyph-name="amacron" unicode="&#x101;" horiz-adv-x="520" 
d="M475 83q0 -14 -1.5 -29.5t-8 -29t-19.5 -22t-37 -8.5q-27 0 -41.5 14.5t-16.5 37.5l-1 10q-19 -30 -57.5 -49t-94.5 -19q-32 0 -62 7.5t-53.5 25.5t-38 48t-14.5 75q0 37 13 67.5t40.5 53t70 35.5t102.5 15l82 3v16q0 48 -24.5 68t-77.5 20q-19 0 -31.5 -1.5t-26.5 -3.5
t-26.5 -4t-26.5 -2q-27 0 -41.5 15t-14.5 42q0 17 9 30t25 21q26 14 67.5 18.5t86.5 4.5q116 0 167 -54t51 -157v-248zM338 231l-73 -3q-57 -2 -79.5 -20t-22.5 -54t22 -51t50 -15q44 0 73.5 23t29.5 79v41zM427 658q0 -28 -17.5 -42.5t-45.5 -14.5h-186q-28 0 -45.5 14.5
t-17.5 42.5q0 29 18 43.5t45 14.5h186q28 0 45.5 -14.5t17.5 -43.5z" />
    <glyph glyph-name="Abreve" unicode="&#x102;" horiz-adv-x="650" 
d="M635 56q0 -27 -21 -44.5t-47 -17.5q-30 0 -48.5 14t-25.5 36l-36 116h-272l-36 -115q-7 -23 -22.5 -37t-44.5 -14t-48 18.5t-19 47.5q0 11 2.5 19t4.5 13l196 552q11 32 37 55.5t71 23.5q47 0 72 -22.5t37 -56.5l192 -551q5 -12 6.5 -22t1.5 -15zM323 596h-2l-98 -315
h197zM477 876q0 -31 -15 -53t-37.5 -36t-49 -20.5t-50.5 -6.5t-51 6.5t-49.5 20.5t-37 36t-14.5 53q0 21 12.5 33t33.5 12q18 0 28.5 -11t20.5 -26t22.5 -23t34.5 -8q21 0 34 8t23 23t20.5 26t28.5 11q21 0 33.5 -12t12.5 -33z" />
    <glyph glyph-name="abreve" unicode="&#x103;" horiz-adv-x="520" 
d="M475 83q0 -14 -1.5 -29.5t-8 -29t-19.5 -22t-37 -8.5q-27 0 -41.5 14.5t-16.5 37.5l-1 10q-19 -30 -57.5 -49t-94.5 -19q-32 0 -62 7.5t-53.5 25.5t-38 48t-14.5 75q0 37 13 67.5t40.5 53t70 35.5t102.5 15l82 3v16q0 48 -24.5 68t-77.5 20q-19 0 -31.5 -1.5t-26.5 -3.5
t-26.5 -4t-26.5 -2q-27 0 -41.5 15t-14.5 42q0 17 9 30t25 21q26 14 67.5 18.5t86.5 4.5q116 0 167 -54t51 -157v-248zM338 231l-73 -3q-57 -2 -79.5 -20t-22.5 -54t22 -51t50 -15q44 0 73.5 23t29.5 79v41zM423 715q0 -31 -15 -53t-37.5 -36t-49 -20.5t-50.5 -6.5t-51 6.5
t-49.5 20.5t-37 36t-14.5 53q0 21 12.5 33t33.5 12q18 0 28.5 -11t20.5 -26t22.5 -23t34.5 -8q21 0 34 8t23 23t20.5 26t28.5 11q21 0 33.5 -12t12.5 -33z" />
    <glyph glyph-name="Aogonek" unicode="&#x104;" horiz-adv-x="650" 
d="M609 -163q0 -13 -8.5 -22.5t-22 -16t-31 -9.5t-36.5 -3q-40 0 -65.5 21t-25.5 65q0 22 10.5 42.5t26.5 37t36 29t38 20.5q-13 5 -23 16.5t-15 26.5l-36 116h-272l-36 -115q-7 -23 -22.5 -37t-44.5 -14t-48 18.5t-19 47.5q0 11 2.5 19t4.5 13l196 552q11 32 37 55.5
t71 23.5q47 0 72 -22.5t37 -56.5l192 -551q5 -12 6.5 -22t1.5 -15q0 -20 -11 -34t-27 -22q-14 -7 -29 -18.5t-28.5 -25.5t-22 -30.5t-8.5 -32.5q0 -34 35 -34q13 0 19 2.5t18 2.5q14 0 21 -8t7 -19zM323 596h-2l-98 -315h197z" />
    <glyph glyph-name="aogonek" unicode="&#x105;" horiz-adv-x="520" 
d="M453 -163q0 -13 -8.5 -22.5t-22 -16t-31 -9.5t-36.5 -3q-40 0 -65.5 21t-25.5 65q0 22 10.5 42.5t27 37t36.5 29.5t38 21q-11 8 -17 18t-8 26l-1 10q-19 -30 -57.5 -49t-94.5 -19q-32 0 -62 7.5t-53.5 25.5t-38 48t-14.5 75q0 37 13 67.5t40.5 53t70 35.5t102.5 15l82 3
v16q0 48 -24.5 68t-77.5 20q-19 0 -31.5 -1.5t-26.5 -3.5t-26.5 -4t-26.5 -2q-27 0 -41.5 15t-14.5 42q0 17 9 30t25 21q26 14 67.5 18.5t86.5 4.5q116 0 167 -54t51 -157v-248q0 -12 -0.5 -24t-4 -23.5t-10.5 -21t-20 -15.5q-14 -7 -29.5 -18.5t-28 -26t-21 -30t-8.5 -31.5
q0 -34 35 -34q13 0 19 2.5t18 2.5q14 0 21 -8t7 -19zM338 231l-73 -3q-57 -2 -79.5 -20t-22.5 -54t22 -51t50 -15q44 0 73.5 23t29.5 79v41z" />
    <glyph glyph-name="Cacute" unicode="&#x106;" horiz-adv-x="537" 
d="M517 73q0 -29 -18.5 -46t-52.5 -25q-15 -4 -29 -6.5t-28.5 -4t-31 -2t-37.5 -0.5q-72 0 -126.5 27t-91 76t-54.5 116.5t-18 148.5q0 83 21.5 150.5t62.5 115.5t99.5 74t132.5 26q37 0 73.5 -5.5t61.5 -19.5q35 -19 35 -53q0 -29 -16.5 -46.5t-44.5 -17.5q-8 0 -23 2
t-28 4q-18 2 -32 3t-31 1q-45 0 -76 -17.5t-50.5 -48.5t-28 -74t-8.5 -94q0 -50 8.5 -93.5t27.5 -75t50 -49.5t76 -18q34 0 71 8q11 2 23.5 4t20.5 2q29 0 45.5 -16.5t16.5 -45.5zM454 871q0 -23 -13.5 -36t-32.5 -21l-122 -49q-12 -5 -23 -5q-27 0 -42.5 17.5t-15.5 39.5
q0 23 13.5 36t32.5 21l122 49q12 5 23 5q27 0 42.5 -17.5t15.5 -39.5z" />
    <glyph glyph-name="cacute" unicode="&#x107;" horiz-adv-x="456" 
d="M436 69q0 -27 -16.5 -42.5t-40.5 -24t-51 -11t-48 -2.5q-64 0 -111 21t-78 58.5t-46 87.5t-15 109q0 61 17 112t50 88t80.5 57.5t109.5 20.5q21 0 46.5 -3t48 -11t37.5 -23t15 -39t-16 -41t-42 -17q-6 0 -17 1.5t-23 3.5t-22 3t-21 1q-34 0 -58 -12t-39 -32.5t-22 -48.5
t-7 -60q0 -30 7 -57.5t21.5 -48.5t38 -33.5t56.5 -12.5q11 0 23 1t23 3q31 6 47 6q20 0 36.5 -14t16.5 -40zM406 710q0 -23 -13.5 -36t-32.5 -21l-122 -49q-12 -5 -23 -5q-27 0 -42.5 17.5t-15.5 39.5q0 23 13.5 36t32.5 21l122 49q12 5 23 5q27 0 42.5 -17.5t15.5 -39.5z
" />
    <glyph glyph-name="Ccaron" unicode="&#x10c;" horiz-adv-x="537" 
d="M517 73q0 -29 -18.5 -46t-52.5 -25q-15 -4 -29 -6.5t-28.5 -4t-31 -2t-37.5 -0.5q-72 0 -126.5 27t-91 76t-54.5 116.5t-18 148.5q0 83 21.5 150.5t62.5 115.5t99.5 74t132.5 26q37 0 73.5 -5.5t61.5 -19.5q35 -19 35 -53q0 -29 -16.5 -46.5t-44.5 -17.5q-8 0 -23 2
t-28 4q-18 2 -32 3t-31 1q-45 0 -76 -17.5t-50.5 -48.5t-28 -74t-8.5 -94q0 -50 8.5 -93.5t27.5 -75t50 -49.5t76 -18q34 0 71 8q11 2 23.5 4t20.5 2q29 0 45.5 -16.5t16.5 -45.5zM482 861q0 -21 -13 -35.5t-34 -22.5l-106 -43l-105 43q-21 8 -34 22.5t-13 35.5
q0 32 18.5 46t39.5 14q16 0 30 -6l64 -29l65 29q6 2 14 4t16 2q21 0 39.5 -14t18.5 -46z" />
    <glyph glyph-name="ccaron" unicode="&#x10d;" horiz-adv-x="456" 
d="M436 69q0 -27 -16.5 -42.5t-40.5 -24t-51 -11t-48 -2.5q-64 0 -111 21t-78 58.5t-46 87.5t-15 109q0 61 17 112t50 88t80.5 57.5t109.5 20.5q21 0 46.5 -3t48 -11t37.5 -23t15 -39t-16 -41t-42 -17q-6 0 -17 1.5t-23 3.5t-22 3t-21 1q-34 0 -58 -12t-39 -32.5t-22 -48.5
t-7 -60q0 -30 7 -57.5t21.5 -48.5t38 -33.5t56.5 -12.5q11 0 23 1t23 3q31 6 47 6q20 0 36.5 -14t16.5 -40zM434 700q0 -21 -13 -35.5t-34 -22.5l-106 -43l-105 43q-21 8 -34 22.5t-13 35.5q0 32 18.5 46t39.5 14q16 0 30 -6l64 -29l65 29q6 2 14 4t16 2q21 0 39.5 -14
t18.5 -46z" />
    <glyph glyph-name="Dcaron" unicode="&#x10e;" horiz-adv-x="629" 
d="M599 357q0 -82 -21 -148t-61.5 -112.5t-99 -71.5t-133.5 -25h-149q-12 0 -25.5 3.5t-24.5 11.5t-18 22t-7 34v568q0 33 20 53t53 20h152q82 0 141 -23.5t97.5 -69t57 -111.5t18.5 -151zM451 354q0 51 -6.5 93t-25 72t-51.5 46t-85 16h-81v-450h83q50 0 82 16.5t51 46
t26 70.5t7 90zM438 861q0 -21 -13 -35.5t-34 -22.5l-106 -43l-105 43q-21 8 -34 22.5t-13 35.5q0 32 18.5 46t39.5 14q16 0 30 -6l64 -29l65 29q6 2 14 4t16 2q21 0 39.5 -14t18.5 -46z" />
    <glyph glyph-name="dcaron" unicode="&#x10f;" horiz-adv-x="827" 
d="M716 734q35 0 52 -26t9 -59l-37 -164q-5 -23 -21.5 -36.5t-39.5 -13.5q-34 0 -52 26t-10 60l38 164q5 23 21.5 36.5t39.5 12.5zM537 71q0 -35 -19 -56t-49 -21q-26 0 -43.5 13.5t-23.5 39.5l-2 8h-2q-13 -17 -31 -29.5t-37.5 -20.5t-39.5 -12t-38 -4q-63 0 -105.5 23.5
t-68.5 62t-37 88t-11 101.5q0 58 14.5 108.5t43 88.5t70 60t96.5 22q38 0 78.5 -15.5t65.5 -50.5h2v217q0 35 19.5 55.5t49.5 20.5t49 -20.5t19 -55.5v-623zM401 301q0 28 -9.5 50t-25 37.5t-37 24t-45.5 8.5q-33 0 -54.5 -13t-34.5 -35.5t-18 -53t-5 -66.5q0 -31 6.5 -58
t19.5 -46.5t33.5 -31t48.5 -11.5q25 0 47 8t38.5 23.5t26 37.5t9.5 51v75z" />
    <glyph glyph-name="dcroat" unicode="&#x111;" horiz-adv-x="582" 
d="M537 71q0 -35 -19 -56t-49 -21q-26 0 -43.5 13.5t-23.5 39.5l-2 8h-2q-13 -17 -31 -29.5t-37.5 -20.5t-39.5 -12t-38 -4q-63 0 -105.5 23.5t-68.5 62t-37 88t-11 101.5q0 58 14.5 108.5t43 88.5t70 60t96.5 22q38 0 78.5 -15.5t65.5 -50.5h2v122h-98q-23 0 -39 14.5
t-16 39.5q0 26 16 40.5t39 14.5h99q4 29 22.5 45.5t45.5 16.5t45 -16.5t22 -45.5h34q22 0 38.5 -14.5t16.5 -40.5q0 -25 -16.5 -39.5t-38.5 -14.5h-33v-528zM401 301q0 28 -9.5 50t-25 37.5t-37 24t-45.5 8.5q-33 0 -54.5 -13t-34.5 -35.5t-18 -53t-5 -66.5q0 -31 6.5 -58
t19.5 -46.5t33.5 -31t48.5 -11.5q25 0 47 8t38.5 23.5t26 37.5t9.5 51v75z" />
    <glyph glyph-name="Emacron" unicode="&#x112;" horiz-adv-x="478" 
d="M458 65q0 -24 -17 -44.5t-51 -20.5h-257q-32 0 -52.5 19.5t-20.5 51.5v567q0 37 20.5 55.5t53.5 18.5h247q35 0 51.5 -20t16.5 -45t-17 -45.5t-51 -20.5h-179v-157h167q35 0 52.5 -20t17.5 -45t-17.5 -45.5t-52.5 -20.5h-167v-162h188q35 0 51.5 -20t16.5 -46zM415 818
q0 -28 -17.5 -42.5t-45.5 -14.5h-186q-28 0 -45.5 14.5t-17.5 42.5q0 29 18 43.5t45 14.5h186q28 0 45.5 -14.5t17.5 -43.5z" />
    <glyph glyph-name="emacron" unicode="&#x113;" horiz-adv-x="532" 
d="M502 309q0 -18 -2 -33t-9 -26.5t-19 -18t-33 -6.5h-269q2 -31 14.5 -53t31 -36.5t41 -21t44.5 -6.5q16 0 34 1t35 4q11 2 22 3t19 1q26 0 42 -16t16 -42q0 -21 -12 -33q-21 -22 -60.5 -29.5t-99.5 -7.5q-61 0 -110 19t-84 54.5t-54 86.5t-19 116q0 60 13.5 111t43 88
t75.5 58t112 21q58 0 101 -17.5t71.5 -48.5t42 -74t13.5 -94zM367 318q0 28 -4 50.5t-14.5 38t-29.5 23.5t-49 8q-55 0 -78.5 -32.5t-24.5 -87.5h200zM432 658q0 -28 -17.5 -42.5t-45.5 -14.5h-186q-28 0 -45.5 14.5t-17.5 42.5q0 29 18 43.5t45 14.5h186q28 0 45.5 -14.5
t17.5 -43.5z" />
    <glyph glyph-name="Edotaccent" unicode="&#x116;" horiz-adv-x="478" 
d="M458 65q0 -24 -17 -44.5t-51 -20.5h-257q-32 0 -52.5 19.5t-20.5 51.5v567q0 37 20.5 55.5t53.5 18.5h247q35 0 51.5 -20t16.5 -45t-17 -45.5t-51 -20.5h-179v-157h167q35 0 52.5 -20t17.5 -45t-17.5 -45.5t-52.5 -20.5h-167v-162h188q35 0 51.5 -20t16.5 -46zM325 835
q0 -37 -18 -56t-48 -19q-29 0 -47.5 19t-18.5 56q0 34 18.5 53t47.5 19t47.5 -19t18.5 -53z" />
    <glyph glyph-name="edotaccent" unicode="&#x117;" horiz-adv-x="532" 
d="M502 309q0 -18 -2 -33t-9 -26.5t-19 -18t-33 -6.5h-269q2 -31 14.5 -53t31 -36.5t41 -21t44.5 -6.5q16 0 34 1t35 4q11 2 22 3t19 1q26 0 42 -16t16 -42q0 -21 -12 -33q-21 -22 -60.5 -29.5t-99.5 -7.5q-61 0 -110 19t-84 54.5t-54 86.5t-19 116q0 60 13.5 111t43 88
t75.5 58t112 21q58 0 101 -17.5t71.5 -48.5t42 -74t13.5 -94zM367 318q0 28 -4 50.5t-14.5 38t-29.5 23.5t-49 8q-55 0 -78.5 -32.5t-24.5 -87.5h200zM342 674q0 -37 -18 -56t-48 -19q-29 0 -47.5 19t-18.5 56q0 34 18.5 53t47.5 19t47.5 -19t18.5 -53z" />
    <glyph glyph-name="Eogonek" unicode="&#x118;" horiz-adv-x="478" 
d="M427 -163q0 -13 -8.5 -22.5t-22 -16t-31 -9.5t-36.5 -3q-40 0 -65.5 21t-25.5 65q0 22 10.5 42.5t27 37t35.5 29t36 19.5h-214q-32 0 -52.5 19.5t-20.5 51.5v567q0 37 20.5 55.5t53.5 18.5h247q35 0 51.5 -20t16.5 -45t-17 -45.5t-51 -20.5h-179v-157h167q35 0 52.5 -20
t17.5 -45t-17.5 -45.5t-52.5 -20.5h-167v-162h188q35 0 51.5 -20t16.5 -46q0 -23 -11.5 -38t-30.5 -26q-8 -5 -23 -15.5t-29.5 -24.5t-25.5 -31.5t-11 -36.5q0 -34 35 -34q13 0 19 2.5t18 2.5q14 0 21 -8t7 -19z" />
    <glyph glyph-name="eogonek" unicode="&#x119;" horiz-adv-x="532" 
d="M422 -163q0 -13 -8.5 -22.5t-22 -16t-31 -9.5t-36.5 -3q-40 0 -65.5 21t-25.5 65q0 19 7.5 36.5t20 32.5t28 27t31.5 21h-23q-61 0 -110 19t-84 54.5t-54 86.5t-19 116q0 60 13.5 111t43 88t75.5 58t112 21q58 0 101 -17.5t71.5 -48.5t42 -74t13.5 -94q0 -18 -2 -33
t-9 -26.5t-19 -18t-33 -6.5h-269q2 -31 14.5 -53t31 -36.5t41 -21t44.5 -6.5q16 0 34 1t35 4q11 2 22 3t19 1q26 0 42 -16t16 -42t-16 -37.5t-40 -21.5q-14 -5 -30 -16.5t-29.5 -26t-22.5 -31.5t-9 -33q0 -34 35 -34q13 0 19 2.5t18 2.5q14 0 21 -8t7 -19zM367 318
q0 28 -4 50.5t-14.5 38t-29.5 23.5t-49 8q-55 0 -78.5 -32.5t-24.5 -87.5h200z" />
    <glyph glyph-name="Ecaron" unicode="&#x11a;" horiz-adv-x="478" 
d="M458 65q0 -24 -17 -44.5t-51 -20.5h-257q-32 0 -52.5 19.5t-20.5 51.5v567q0 37 20.5 55.5t53.5 18.5h247q35 0 51.5 -20t16.5 -45t-17 -45.5t-51 -20.5h-179v-157h167q35 0 52.5 -20t17.5 -45t-17.5 -45.5t-52.5 -20.5h-167v-162h188q35 0 51.5 -20t16.5 -46zM412 861
q0 -21 -13 -35.5t-34 -22.5l-106 -43l-105 43q-21 8 -34 22.5t-13 35.5q0 32 18.5 46t39.5 14q16 0 30 -6l64 -29l65 29q6 2 14 4t16 2q21 0 39.5 -14t18.5 -46z" />
    <glyph glyph-name="ecaron" unicode="&#x11b;" horiz-adv-x="532" 
d="M502 309q0 -18 -2 -33t-9 -26.5t-19 -18t-33 -6.5h-269q2 -31 14.5 -53t31 -36.5t41 -21t44.5 -6.5q16 0 34 1t35 4q11 2 22 3t19 1q26 0 42 -16t16 -42q0 -21 -12 -33q-21 -22 -60.5 -29.5t-99.5 -7.5q-61 0 -110 19t-84 54.5t-54 86.5t-19 116q0 60 13.5 111t43 88
t75.5 58t112 21q58 0 101 -17.5t71.5 -48.5t42 -74t13.5 -94zM367 318q0 28 -4 50.5t-14.5 38t-29.5 23.5t-49 8q-55 0 -78.5 -32.5t-24.5 -87.5h200zM429 700q0 -21 -13 -35.5t-34 -22.5l-106 -43l-105 43q-21 8 -34 22.5t-13 35.5q0 32 18.5 46t39.5 14q16 0 30 -6l64 -29
l65 29q6 2 14 4t16 2q21 0 39.5 -14t18.5 -46z" />
    <glyph glyph-name="Gbreve" unicode="&#x11e;" horiz-adv-x="619" 
d="M574 110q0 -26 -10.5 -42t-22.5 -24q-36 -26 -94 -40.5t-121 -14.5q-78 0 -134 26t-92 74t-53 115.5t-17 151.5q0 83 21.5 150.5t62.5 115.5t99.5 74.5t133.5 26.5q18 0 39 -1.5t42 -4.5t39.5 -7.5t32.5 -11.5q17 -9 27.5 -21.5t10.5 -32.5q0 -29 -16.5 -47t-44.5 -18
q-8 0 -23.5 2t-31.5 4q-20 3 -41.5 4.5t-38.5 1.5q-45 0 -76.5 -17.5t-51 -48.5t-28 -74.5t-8.5 -94.5q0 -49 8 -91.5t26.5 -74.5t49.5 -50.5t77 -18.5q21 0 36 2t35 6q11 2 16.5 8t5.5 12v124h-58q-35 0 -51.5 20t-16.5 46q0 24 17 44.5t51 20.5h127q32 0 52.5 -19.5
t20.5 -51.5v-223v0zM474 876q0 -31 -15 -53t-37.5 -36t-49 -20.5t-50.5 -6.5t-51 6.5t-49.5 20.5t-37 36t-14.5 53q0 21 12.5 33t33.5 12q18 0 28.5 -11t20.5 -26t22.5 -23t34.5 -8q21 0 34 8t23 23t20.5 26t28.5 11q21 0 33.5 -12t12.5 -33z" />
    <glyph glyph-name="gbreve" unicode="&#x11f;" horiz-adv-x="552" 
d="M547 481q0 -20 -13 -31t-33 -11h-34q13 -17 17 -38t4 -44q0 -89 -57 -132t-166 -43q-23 0 -42 2t-37 6q-6 -4 -8.5 -12t-2.5 -19q0 -6 1.5 -12.5t6.5 -12t15 -8.5t27 -3h99q55 0 92.5 -9t60 -27t32 -44.5t9.5 -60.5q0 -43 -16.5 -79.5t-49.5 -63.5t-83 -42t-117 -15
q-63 0 -105.5 12t-68.5 33.5t-37 51.5t-11 66q0 37 14.5 70.5t43.5 57.5q-16 17 -21.5 35.5t-5.5 41.5q0 21 7.5 43.5t27.5 37.5q-31 22 -45 53t-14 80q0 33 10.5 65t35 57.5t66 41t103.5 15.5q32 0 65 -3.5t56 -11.5h122q29 0 40.5 -13.5t11.5 -33.5zM359 361
q0 49 -26.5 66.5t-68.5 17.5t-68.5 -17.5t-26.5 -66.5q0 -48 26.5 -64t68.5 -16q21 0 38.5 3t30 12t19.5 24.5t7 40.5zM384 -30q0 26 -16.5 38.5t-68.5 12.5h-118q-12 -8 -18.5 -25t-6.5 -37q0 -16 4 -29t15.5 -22.5t31 -14.5t50.5 -5q127 0 127 82zM417 715q0 -31 -15 -53
t-37.5 -36t-49 -20.5t-50.5 -6.5t-51 6.5t-49.5 20.5t-37 36t-14.5 53q0 21 12.5 33t33.5 12q18 0 28.5 -11t20.5 -26t22.5 -23t34.5 -8q21 0 34 8t23 23t20.5 26t28.5 11q21 0 33.5 -12t12.5 -33z" />
    <glyph glyph-name="Gcommaaccent" unicode="&#x122;" horiz-adv-x="619" 
d="M574 110q0 -26 -10.5 -42t-22.5 -24q-36 -26 -94 -40.5t-121 -14.5q-78 0 -134 26t-92 74t-53 115.5t-17 151.5q0 83 21.5 150.5t62.5 115.5t99.5 74.5t133.5 26.5q18 0 39 -1.5t42 -4.5t39.5 -7.5t32.5 -11.5q17 -9 27.5 -21.5t10.5 -32.5q0 -29 -16.5 -47t-44.5 -18
q-8 0 -23.5 2t-31.5 4q-20 3 -41.5 4.5t-38.5 1.5q-45 0 -76.5 -17.5t-51 -48.5t-28 -74.5t-8.5 -94.5q0 -49 8 -91.5t26.5 -74.5t49.5 -50.5t77 -18.5q21 0 36 2t35 6q11 2 16.5 8t5.5 12v124h-58q-35 0 -51.5 20t-16.5 46q0 24 17 44.5t51 20.5h127q32 0 52.5 -19.5
t20.5 -51.5v-223v0z" />
    <glyph glyph-name="gcommaaccent" unicode="&#x123;" horiz-adv-x="552" 
d="M547 481q0 -20 -13 -31t-33 -11h-34q13 -17 17 -38t4 -44q0 -89 -57 -132t-166 -43q-23 0 -42 2t-37 6q-6 -4 -8.5 -12t-2.5 -19q0 -6 1.5 -12.5t6.5 -12t15 -8.5t27 -3h99q55 0 92.5 -9t60 -27t32 -44.5t9.5 -60.5q0 -43 -16.5 -79.5t-49.5 -63.5t-83 -42t-117 -15
q-63 0 -105.5 12t-68.5 33.5t-37 51.5t-11 66q0 37 14.5 70.5t43.5 57.5q-16 17 -21.5 35.5t-5.5 41.5q0 21 7.5 43.5t27.5 37.5q-31 22 -45 53t-14 80q0 33 10.5 65t35 57.5t66 41t103.5 15.5q32 0 65 -3.5t56 -11.5h122q29 0 40.5 -13.5t11.5 -33.5zM359 361
q0 49 -26.5 66.5t-68.5 17.5t-68.5 -17.5t-26.5 -66.5q0 -48 26.5 -64t68.5 -16q21 0 38.5 3t30 12t19.5 24.5t7 40.5zM384 -30q0 26 -16.5 38.5t-68.5 12.5h-118q-12 -8 -18.5 -25t-6.5 -37q0 -16 4 -29t15.5 -22.5t31 -14.5t50.5 -5q127 0 127 82zM252 848q0 21 15 39
t41 18q20 0 33.5 -10.5t21 -26.5t10.5 -34.5t3 -33.5q0 -28 -10 -63t-28.5 -65.5t-44.5 -51.5t-58 -21q-29 0 -43.5 18t-14.5 38q0 17 9 30.5t30 26.5q5 3 12.5 8t15 13t13 20t5.5 30q0 17 -5 30t-5 35z" />
    <glyph glyph-name="Imacron" unicode="&#x12a;" horiz-adv-x="262" 
d="M202 69q0 -36 -20 -55.5t-51 -19.5t-51 19.5t-20 55.5v574q0 36 20 55.5t51 19.5t51 -19.5t20 -55.5v-574v0zM287 818q0 -28 -17.5 -42.5t-45.5 -14.5h-186q-28 0 -45.5 14.5t-17.5 42.5q0 29 18 43.5t45 14.5h186q28 0 45.5 -14.5t17.5 -43.5z" />
    <glyph glyph-name="imacron" unicode="&#x12b;" horiz-adv-x="223" 
d="M180 71q0 -35 -19 -56t-49 -21t-49.5 21t-19.5 56v390q0 35 19.5 56t49.5 21t49 -21t19 -56v-390v0zM267 666q0 -28 -17.5 -42.5t-45.5 -14.5h-186q-28 0 -45.5 14.5t-17.5 42.5q0 29 18 43.5t45 14.5h186q28 0 45.5 -14.5t17.5 -43.5z" />
    <glyph glyph-name="Iogonek" unicode="&#x12e;" horiz-adv-x="262" 
d="M190 -163q0 -13 -8.5 -22.5t-22 -16t-31 -9.5t-36.5 -3q-40 0 -65.5 21t-25.5 65q0 22 10 41.5t25 36t33.5 28.5t35.5 20q-20 7 -32.5 25t-12.5 46v574q0 36 20 55.5t51 19.5t51 -19.5t20 -55.5v-574q0 -26 -8.5 -39.5t-23.5 -26.5q-8 -7 -21.5 -19t-26.5 -27
t-22.5 -31.5t-9.5 -32.5q0 -34 35 -34q13 0 19 2.5t18 2.5q14 0 21 -8t7 -19z" />
    <glyph glyph-name="iogonek" unicode="&#x12f;" horiz-adv-x="240" 
d="M195 684q0 -42 -20 -64t-55 -22q-33 0 -54 22t-21 63q0 39 21 61t54 22t54 -21.5t21 -60.5zM47 461q0 35 21.5 56t51.5 21q31 0 50 -21t19 -56v-390q0 -26 -8.5 -39.5t-23.5 -26.5q-8 -7 -21.5 -19t-26.5 -27t-22.5 -31.5t-9.5 -32.5q0 -34 35 -34q13 0 19 2.5t18 2.5
q14 0 21 -8t7 -19q0 -13 -8.5 -22.5t-22 -16t-31 -9.5t-36.5 -3q-40 0 -65.5 21t-25.5 65q0 22 10 41.5t25 36t33.5 28.5t35.5 20q-20 7 -30 27.5t-10 43.5z" />
    <glyph glyph-name="Idotaccent" unicode="&#x130;" horiz-adv-x="262" 
d="M202 69q0 -36 -20 -55.5t-51 -19.5t-51 19.5t-20 55.5v574q0 36 20 55.5t51 19.5t51 -19.5t20 -55.5v-574v0zM197 835q0 -37 -18 -56t-48 -19q-29 0 -47.5 19t-18.5 56q0 34 18.5 53t47.5 19t47.5 -19t18.5 -53z" />
    <glyph glyph-name="Kcommaaccent" unicode="&#x136;" horiz-adv-x="587" 
d="M557 58q0 -33 -21.5 -48.5t-47.5 -15.5q-28 0 -45.5 13t-37.5 40l-203 272v-256q0 -29 -19.5 -49t-51.5 -20q-31 0 -51 18.5t-20 50.5v584q0 30 19.5 50.5t51.5 20.5q31 0 51 -19t20 -52v-251l217 285q11 15 27 26t39 11q28 0 46.5 -18t18.5 -47q0 -17 -9 -34.5
t-27 -39.5l-172 -212l186 -243q14 -17 21.5 -33t7.5 -33zM253 -105q0 21 15 39t41 18q20 0 33.5 -10.5t21 -26.5t10.5 -34.5t3 -33.5q0 -28 -10 -63t-28.5 -65.5t-44.5 -51.5t-58 -21q-29 0 -43.5 18t-14.5 38q0 17 9 30.5t30 26.5q5 3 12.5 8t15 13t13 20t5.5 30
q0 17 -5 30t-5 35z" />
    <glyph glyph-name="kcommaaccent" unicode="&#x137;" horiz-adv-x="503" 
d="M483 59q0 -29 -19 -44.5t-45 -15.5q-20 0 -36.5 10t-34.5 31l-166 198v-167q0 -35 -19 -56t-50 -21q-30 0 -49 21t-19 56v623q0 35 19 55.5t49 20.5q31 0 50 -20.5t19 -55.5v-348l178 169q9 8 21.5 15.5t32.5 7.5q25 0 44 -16t19 -44q0 -18 -9.5 -33t-32.5 -35l-137 -116
l157 -173q15 -17 21.5 -31t6.5 -31zM209 -105q0 21 15 39t41 18q20 0 33.5 -10.5t21 -26.5t10.5 -34.5t3 -33.5q0 -28 -10 -63t-28.5 -65.5t-44.5 -51.5t-58 -21q-29 0 -43.5 18t-14.5 38q0 17 9 30.5t30 26.5q5 3 12.5 8t15 13t13 20t5.5 30q0 17 -5 30t-5 35z" />
    <glyph glyph-name="Lacute" unicode="&#x139;" horiz-adv-x="459" 
d="M449 67q0 -26 -17.5 -46.5t-50.5 -20.5h-248q-35 0 -54 21t-19 56v566q0 36 20 55.5t51 19.5t51 -19.5t20 -55.5v-512h179q35 0 51.5 -20.5t16.5 -43.5zM257 871q0 -23 -13.5 -36t-32.5 -21l-122 -49q-12 -5 -23 -5q-27 0 -42.5 17.5t-15.5 39.5q0 23 13.5 36t32.5 21
l122 49q12 5 23 5q27 0 42.5 -17.5t15.5 -39.5z" />
    <glyph glyph-name="lacute" unicode="&#x13a;" horiz-adv-x="227" 
d="M182 71q0 -35 -19 -56t-49 -21t-49.5 21t-19.5 56v623q0 35 19.5 55.5t49.5 20.5t49 -20.5t19 -55.5v-623v0zM239 923q0 -23 -13.5 -36t-32.5 -21l-122 -49q-12 -5 -23 -5q-27 0 -42.5 17.5t-15.5 39.5q0 23 13.5 36t32.5 21l122 49q12 5 23 5q27 0 42.5 -17.5
t15.5 -39.5z" />
    <glyph glyph-name="Lcommaaccent" unicode="&#x13b;" horiz-adv-x="459" 
d="M449 67q0 -26 -17.5 -46.5t-50.5 -20.5h-248q-35 0 -54 21t-19 56v566q0 36 20 55.5t51 19.5t51 -19.5t20 -55.5v-512h179q35 0 51.5 -20.5t16.5 -43.5zM199 -105q0 21 15 39t41 18q20 0 33.5 -10.5t21 -26.5t10.5 -34.5t3 -33.5q0 -28 -10 -63t-28.5 -65.5t-44.5 -51.5
t-58 -21q-29 0 -43.5 18t-14.5 38q0 17 9 30.5t30 26.5q5 3 12.5 8t15 13t13 20t5.5 30q0 17 -5 30t-5 35z" />
    <glyph glyph-name="lcommaaccent" unicode="&#x13c;" horiz-adv-x="227" 
d="M182 71q0 -35 -19 -56t-49 -21t-49.5 21t-19.5 56v623q0 35 19.5 55.5t49.5 20.5t49 -20.5t19 -55.5v-623v0zM58 -105q0 21 15 39t41 18q20 0 33.5 -10.5t21 -26.5t10.5 -34.5t3 -33.5q0 -28 -10 -63t-28.5 -65.5t-44.5 -51.5t-58 -21q-29 0 -43.5 18t-14.5 38
q0 17 9 30.5t30 26.5q5 3 12.5 8t15 13t13 20t5.5 30q0 17 -5 30t-5 35z" />
    <glyph glyph-name="Lcaron" unicode="&#x13d;" horiz-adv-x="459" 
d="M381 734q35 0 52 -26t9 -59l-37 -164q-5 -23 -21.5 -36.5t-39.5 -13.5q-34 0 -52 26t-10 60l38 164q5 23 21.5 36.5t39.5 12.5zM449 67q0 -26 -17.5 -46.5t-50.5 -20.5h-248q-35 0 -54 21t-19 56v566q0 36 20 55.5t51 19.5t51 -19.5t20 -55.5v-512h179q35 0 51.5 -20.5
t16.5 -43.5z" />
    <glyph glyph-name="lcaron" unicode="&#x13e;" horiz-adv-x="472" 
d="M361 734q35 0 52 -26t9 -59l-37 -164q-5 -23 -21.5 -36.5t-39.5 -13.5q-34 0 -52 26t-10 60l38 164q5 23 21.5 36.5t39.5 12.5zM182 71q0 -35 -19 -56t-49 -21t-49.5 21t-19.5 56v623q0 35 19.5 55.5t49.5 20.5t49 -20.5t19 -55.5v-623z" />
    <glyph glyph-name="Nacute" unicode="&#x143;" horiz-adv-x="666" 
d="M606 62q0 -37 -22 -52.5t-52 -15.5q-29 0 -49.5 9.5t-33.5 31.5l-256 431h-2v-397q0 -36 -17.5 -55.5t-48.5 -19.5t-48 19.5t-17 55.5v575q0 39 23.5 56.5t56.5 17.5q38 0 55.5 -13.5t28.5 -32.5l250 -426h2v397q0 36 17 55.5t48 19.5t48 -19.5t17 -55.5v-581v0zM458 871
q0 -23 -13.5 -36t-32.5 -21l-122 -49q-12 -5 -23 -5q-27 0 -42.5 17.5t-15.5 39.5q0 23 13.5 36t32.5 21l122 49q12 5 23 5q27 0 42.5 -17.5t15.5 -39.5z" />
    <glyph glyph-name="nacute" unicode="&#x144;" horiz-adv-x="557" 
d="M512 71q0 -35 -19 -56t-49 -21t-49.5 21t-19.5 56v254q0 45 -17 71t-61 26q-21 0 -41.5 -5t-37 -13.5t-26.5 -20.5t-10 -26v-286q0 -35 -19 -56t-50 -21q-30 0 -49 21t-19 56v390q0 35 19 56t49 21q26 0 44 -15t18 -34v-2q34 29 77 42.5t87 13.5q77 0 125 -46t48 -136
v-290v0zM403 710q0 -23 -13.5 -36t-32.5 -21l-122 -49q-12 -5 -23 -5q-27 0 -42.5 17.5t-15.5 39.5q0 23 13.5 36t32.5 21l122 49q12 5 23 5q27 0 42.5 -17.5t15.5 -39.5z" />
    <glyph glyph-name="Ncommaaccent" unicode="&#x145;" horiz-adv-x="666" 
d="M606 62q0 -37 -22 -52.5t-52 -15.5q-29 0 -49.5 9.5t-33.5 31.5l-256 431h-2v-397q0 -36 -17.5 -55.5t-48.5 -19.5t-48 19.5t-17 55.5v575q0 39 23.5 56.5t56.5 17.5q38 0 55.5 -13.5t28.5 -32.5l250 -426h2v397q0 36 17 55.5t48 19.5t48 -19.5t17 -55.5v-581v0z
M278 -105q0 21 15 39t41 18q20 0 33.5 -10.5t21 -26.5t10.5 -34.5t3 -33.5q0 -28 -10 -63t-28.5 -65.5t-44.5 -51.5t-58 -21q-29 0 -43.5 18t-14.5 38q0 17 9 30.5t30 26.5q5 3 12.5 8t15 13t13 20t5.5 30q0 17 -5 30t-5 35z" />
    <glyph glyph-name="ncommaaccent" unicode="&#x146;" horiz-adv-x="557" 
d="M512 71q0 -35 -19 -56t-49 -21t-49.5 21t-19.5 56v254q0 45 -17 71t-61 26q-21 0 -41.5 -5t-37 -13.5t-26.5 -20.5t-10 -26v-286q0 -35 -19 -56t-50 -21q-30 0 -49 21t-19 56v390q0 35 19 56t49 21q26 0 44 -15t18 -34v-2q34 29 77 42.5t87 13.5q77 0 125 -46t48 -136
v-290v0zM223 -105q0 21 15 39t41 18q20 0 33.5 -10.5t21 -26.5t10.5 -34.5t3 -33.5q0 -28 -10 -63t-28.5 -65.5t-44.5 -51.5t-58 -21q-29 0 -43.5 18t-14.5 38q0 17 9 30.5t30 26.5q5 3 12.5 8t15 13t13 20t5.5 30q0 17 -5 30t-5 35z" />
    <glyph glyph-name="Ncaron" unicode="&#x147;" horiz-adv-x="666" 
d="M606 62q0 -37 -22 -52.5t-52 -15.5q-29 0 -49.5 9.5t-33.5 31.5l-256 431h-2v-397q0 -36 -17.5 -55.5t-48.5 -19.5t-48 19.5t-17 55.5v575q0 39 23.5 56.5t56.5 17.5q38 0 55.5 -13.5t28.5 -32.5l250 -426h2v397q0 36 17 55.5t48 19.5t48 -19.5t17 -55.5v-581v0zM486 861
q0 -21 -13 -35.5t-34 -22.5l-106 -43l-105 43q-21 8 -34 22.5t-13 35.5q0 32 18.5 46t39.5 14q16 0 30 -6l64 -29l65 29q6 2 14 4t16 2q21 0 39.5 -14t18.5 -46z" />
    <glyph glyph-name="ncaron" unicode="&#x148;" horiz-adv-x="557" 
d="M512 71q0 -35 -19 -56t-49 -21t-49.5 21t-19.5 56v254q0 45 -17 71t-61 26q-21 0 -41.5 -5t-37 -13.5t-26.5 -20.5t-10 -26v-286q0 -35 -19 -56t-50 -21q-30 0 -49 21t-19 56v390q0 35 19 56t49 21q26 0 44 -15t18 -34v-2q34 29 77 42.5t87 13.5q77 0 125 -46t48 -136
v-290v0zM431 700q0 -21 -13 -35.5t-34 -22.5l-106 -43l-105 43q-21 8 -34 22.5t-13 35.5q0 32 18.5 46t39.5 14q16 0 30 -6l64 -29l65 29q6 2 14 4t16 2q21 0 39.5 -14t18.5 -46z" />
    <glyph glyph-name="Omacron" unicode="&#x14c;" horiz-adv-x="662" 
d="M632 356q0 -79 -16.5 -146.5t-53.5 -116.5t-95 -76.5t-140 -27.5t-138.5 27.5t-92 76.5t-51 116.5t-15.5 146.5t17 146.5t53.5 116.5t94 76.5t139.5 27.5q81 0 137.5 -28t92.5 -77.5t52 -116.5t16 -145zM484 357q0 53 -7 96t-24 73t-47 46t-75 16t-75 -16t-47 -46
t-24 -73t-7 -96q0 -54 6.5 -97t24 -73.5t47 -46.5t75.5 -16t75.5 16.5t47 46.5t24 73t6.5 97zM487 818q0 -28 -17.5 -42.5t-45.5 -14.5h-186q-28 0 -45.5 14.5t-17.5 42.5q0 29 18 43.5t45 14.5h186q28 0 45.5 -14.5t17.5 -43.5z" />
    <glyph glyph-name="omacron" unicode="&#x14d;" horiz-adv-x="551" 
d="M521 265q0 -129 -61.5 -202.5t-184.5 -73.5q-128 0 -186.5 73.5t-58.5 202.5q0 63 16 114t46.5 87.5t76.5 56.5t106 20q64 0 110.5 -20t76.5 -56.5t44.5 -87.5t14.5 -114zM386 265q0 33 -5 61.5t-18 49.5t-34 33t-54 12q-32 0 -53.5 -12t-34 -33t-17.5 -49.5t-5 -61.5
q0 -32 5 -60.5t18 -49.5t34 -33t53 -12t53.5 12t34 33t18 49.5t5.5 60.5zM431 658q0 -28 -17.5 -42.5t-45.5 -14.5h-186q-28 0 -45.5 14.5t-17.5 42.5q0 29 18 43.5t45 14.5h186q28 0 45.5 -14.5t17.5 -43.5z" />
    <glyph glyph-name="Ohungarumlaut" unicode="&#x150;" horiz-adv-x="662" 
d="M632 356q0 -79 -16.5 -146.5t-53.5 -116.5t-95 -76.5t-140 -27.5t-138.5 27.5t-92 76.5t-51 116.5t-15.5 146.5t17 146.5t53.5 116.5t94 76.5t139.5 27.5q81 0 137.5 -28t92.5 -77.5t52 -116.5t16 -145zM484 357q0 53 -7 96t-24 73t-47 46t-75 16t-75 -16t-47 -46
t-24 -73t-7 -96q0 -54 6.5 -97t24 -73.5t47 -46.5t75.5 -16t75.5 16.5t47 46.5t24 73t6.5 97zM588 868q0 -12 -7 -27.5t-28 -23.5l-119 -48q-16 -7 -23 -8t-16 -1q-22 0 -37 15.5t-15 43.5q0 12 7 27.5t28 23.5l119 48q16 7 23 8t16 1q22 0 37 -15.5t15 -43.5zM319 868
q0 -12 -7 -27.5t-28 -23.5l-119 -48q-16 -7 -23 -8t-16 -1q-22 0 -37 15.5t-15 43.5q0 12 7 27.5t28 23.5l119 48q16 7 23 8t16 1q22 0 37 -15.5t15 -43.5z" />
    <glyph glyph-name="ohungarumlaut" unicode="&#x151;" horiz-adv-x="551" 
d="M521 265q0 -129 -61.5 -202.5t-184.5 -73.5q-128 0 -186.5 73.5t-58.5 202.5q0 63 16 114t46.5 87.5t76.5 56.5t106 20q64 0 110.5 -20t76.5 -56.5t44.5 -87.5t14.5 -114zM386 265q0 33 -5 61.5t-18 49.5t-34 33t-54 12q-32 0 -53.5 -12t-34 -33t-17.5 -49.5t-5 -61.5
q0 -32 5 -60.5t18 -49.5t34 -33t53 -12t53.5 12t34 33t18 49.5t5.5 60.5zM532 707q0 -12 -7 -27.5t-28 -23.5l-119 -48q-16 -7 -23 -8t-16 -1q-22 0 -37 15.5t-15 43.5q0 12 7 27.5t28 23.5l119 48q16 7 23 8t16 1q22 0 37 -15.5t15 -43.5zM263 707q0 -12 -7 -27.5
t-28 -23.5l-119 -48q-16 -7 -23 -8t-16 -1q-22 0 -37 15.5t-15 43.5q0 12 7 27.5t28 23.5l119 48q16 7 23 8t16 1q22 0 37 -15.5t15 -43.5z" />
    <glyph glyph-name="Racute" unicode="&#x154;" horiz-adv-x="565" 
d="M530 62q0 -33 -20 -50t-46 -17q-29 0 -44 10t-25 29l-134 257h-59v-222q0 -36 -20 -55.5t-51 -19.5t-51 19.5t-20 55.5v569q0 35 19 54.5t55 19.5h153q112 0 172.5 -49.5t60.5 -159.5q0 -72 -33 -123t-94 -68l124 -210q13 -22 13 -40zM372 502q0 45 -20 65t-62 20h-88
v-175h88q44 0 63 23.5t19 66.5zM411 871q0 -23 -13.5 -36t-32.5 -21l-122 -49q-12 -5 -23 -5q-27 0 -42.5 17.5t-15.5 39.5q0 23 13.5 36t32.5 21l122 49q12 5 23 5q27 0 42.5 -17.5t15.5 -39.5z" />
    <glyph glyph-name="racute" unicode="&#x155;" horiz-adv-x="386" 
d="M381 474q0 -38 -20 -53.5t-64 -20.5q-31 -3 -53 -9t-35.5 -17t-20 -28t-6.5 -42v-233q0 -35 -19 -56t-49 -21q-31 0 -50 21t-19 56v395q0 35 19 56t50 21q30 0 49 -21t19 -50v-5h2q27 39 58 54.5t69 15.5q29 0 49.5 -16.5t20.5 -46.5zM338 710q0 -23 -13.5 -36t-32.5 -21
l-122 -49q-12 -5 -23 -5q-27 0 -42.5 17.5t-15.5 39.5q0 23 13.5 36t32.5 21l122 49q12 5 23 5q27 0 42.5 -17.5t15.5 -39.5z" />
    <glyph glyph-name="Rcommaaccent" unicode="&#x156;" horiz-adv-x="565" 
d="M530 62q0 -33 -20 -50t-46 -17q-29 0 -44 10t-25 29l-134 257h-59v-222q0 -36 -20 -55.5t-51 -19.5t-51 19.5t-20 55.5v569q0 35 19 54.5t55 19.5h153q112 0 172.5 -49.5t60.5 -159.5q0 -72 -33 -123t-94 -68l124 -210q13 -22 13 -40zM372 502q0 45 -20 65t-62 20h-88
v-175h88q44 0 63 23.5t19 66.5zM240 -105q0 21 15 39t41 18q20 0 33.5 -10.5t21 -26.5t10.5 -34.5t3 -33.5q0 -28 -10 -63t-28.5 -65.5t-44.5 -51.5t-58 -21q-29 0 -43.5 18t-14.5 38q0 17 9 30.5t30 26.5q5 3 12.5 8t15 13t13 20t5.5 30q0 17 -5 30t-5 35z" />
    <glyph glyph-name="rcommaaccent" unicode="&#x157;" horiz-adv-x="386" 
d="M381 474q0 -38 -20 -53.5t-64 -20.5q-31 -3 -53 -9t-35.5 -17t-20 -28t-6.5 -42v-233q0 -35 -19 -56t-49 -21q-31 0 -50 21t-19 56v395q0 35 19 56t50 21q30 0 49 -21t19 -50v-5h2q27 39 58 54.5t69 15.5q29 0 49.5 -16.5t20.5 -46.5zM60 -105q0 21 15 39t41 18
q20 0 33.5 -10.5t21 -26.5t10.5 -34.5t3 -33.5q0 -28 -10 -63t-28.5 -65.5t-44.5 -51.5t-58 -21q-29 0 -43.5 18t-14.5 38q0 17 9 30.5t30 26.5q5 3 12.5 8t15 13t13 20t5.5 30q0 17 -5 30t-5 35z" />
    <glyph glyph-name="Rcaron" unicode="&#x158;" horiz-adv-x="565" 
d="M530 62q0 -33 -20 -50t-46 -17q-29 0 -44 10t-25 29l-134 257h-59v-222q0 -36 -20 -55.5t-51 -19.5t-51 19.5t-20 55.5v569q0 35 19 54.5t55 19.5h153q112 0 172.5 -49.5t60.5 -159.5q0 -72 -33 -123t-94 -68l124 -210q13 -22 13 -40zM372 502q0 45 -20 65t-62 20h-88
v-175h88q44 0 63 23.5t19 66.5zM439 861q0 -21 -13 -35.5t-34 -22.5l-106 -43l-105 43q-21 8 -34 22.5t-13 35.5q0 32 18.5 46t39.5 14q16 0 30 -6l64 -29l65 29q6 2 14 4t16 2q21 0 39.5 -14t18.5 -46z" />
    <glyph glyph-name="rcaron" unicode="&#x159;" horiz-adv-x="386" 
d="M381 474q0 -38 -20 -53.5t-64 -20.5q-31 -3 -53 -9t-35.5 -17t-20 -28t-6.5 -42v-233q0 -35 -19 -56t-49 -21q-31 0 -50 21t-19 56v395q0 35 19 56t50 21q30 0 49 -21t19 -50v-5h2q27 39 58 54.5t69 15.5q29 0 49.5 -16.5t20.5 -46.5zM366 700q0 -21 -13 -35.5t-34 -22.5
l-106 -43l-105 43q-21 8 -34 22.5t-13 35.5q0 32 18.5 46t39.5 14q16 0 30 -6l64 -29l65 29q6 2 14 4t16 2q21 0 39.5 -14t18.5 -46z" />
    <glyph glyph-name="Sacute" unicode="&#x15a;" horiz-adv-x="516" 
d="M481 199q0 -50 -18 -89t-50 -66t-75.5 -41t-94.5 -14q-42 0 -87 4.5t-77 21.5q-20 11 -32 27t-12 39q0 30 18.5 48.5t48.5 18.5q11 0 26.5 -3t33.5 -8q17 -5 38 -8.5t38 -3.5q47 0 72 16.5t25 52.5q0 18 -7 31.5t-23.5 27.5t-43.5 30t-68 40q-27 16 -54 34t-48 41
t-34.5 52.5t-13.5 67.5q0 50 17.5 88.5t49 64.5t74 39t93.5 13q35 0 68.5 -3.5t59.5 -14.5q23 -10 36.5 -25t13.5 -39q0 -30 -18 -48.5t-48 -18.5q-11 0 -24 2t-28 5q-16 3 -29.5 4.5t-27.5 1.5q-18 0 -35 -2t-30 -9t-21 -19t-8 -32q0 -32 33.5 -55.5t88.5 -52.5
q30 -16 61 -35.5t55.5 -45.5t40.5 -60t16 -77zM383 871q0 -23 -13.5 -36t-32.5 -21l-122 -49q-12 -5 -23 -5q-27 0 -42.5 17.5t-15.5 39.5q0 23 13.5 36t32.5 21l122 49q12 5 23 5q27 0 42.5 -17.5t15.5 -39.5z" />
    <glyph glyph-name="sacute" unicode="&#x15b;" horiz-adv-x="438" 
d="M408 155q0 -74 -51 -120t-145 -46q-39 0 -76 3.5t-63 14.5q-20 8 -31.5 21.5t-11.5 35.5q0 26 18 41.5t47 15.5q8 0 17 -1.5t20 -3.5q14 -3 32.5 -5.5t43.5 -2.5q61 0 61 35q0 22 -24 37t-57 32q-25 12 -51.5 26.5t-48.5 34.5t-36 46.5t-14 62.5q0 73 47.5 117.5
t135.5 44.5q34 0 69 -4.5t61 -16.5q18 -8 28.5 -20.5t10.5 -32.5q0 -28 -16 -43.5t-42 -15.5q-10 0 -20.5 1.5t-22.5 3.5q-17 3 -34.5 5.5t-35.5 2.5q-51 0 -51 -32q0 -22 24.5 -37.5t59.5 -32.5q26 -12 53.5 -27t50.5 -34.5t37.5 -45t14.5 -60.5zM344 710q0 -23 -13.5 -36
t-32.5 -21l-122 -49q-12 -5 -23 -5q-27 0 -42.5 17.5t-15.5 39.5q0 23 13.5 36t32.5 21l122 49q12 5 23 5q27 0 42.5 -17.5t15.5 -39.5z" />
    <glyph glyph-name="Scedilla" unicode="&#x15e;" horiz-adv-x="516" 
d="M358 -121q0 -24 -10 -41t-26 -28.5t-35.5 -17t-38.5 -5.5q-16 0 -32 1.5t-29 6t-21 12.5t-8 22q0 12 7.5 21t18.5 9q5 0 11 -1t12 -3q7 -2 14.5 -3t15.5 -1q13 0 21.5 6t8.5 22q0 17 -10.5 22.5t-24.5 5.5q-8 0 -14.5 5.5t-6.5 16.5q0 3 1 9t3 12l10 39q-39 1 -78.5 6
t-67.5 20q-20 11 -32 27t-12 39q0 30 18.5 48.5t48.5 18.5q11 0 26.5 -3t33.5 -8q17 -5 38 -8.5t38 -3.5q47 0 72 16.5t25 52.5q0 18 -7 31.5t-23.5 27.5t-43.5 30t-68 40q-27 16 -54 34t-48 41t-34.5 52.5t-13.5 67.5q0 50 17.5 88.5t49 64.5t74 39t93.5 13q35 0 68.5 -3.5
t59.5 -14.5q23 -10 36.5 -25t13.5 -39q0 -30 -18 -48.5t-48 -18.5q-11 0 -24 2t-28 5q-16 3 -29.5 4.5t-27.5 1.5q-18 0 -35 -2t-30 -9t-21 -19t-8 -32q0 -32 33.5 -55.5t88.5 -52.5q30 -16 61 -35.5t55.5 -45.5t40.5 -60t16 -77q0 -45 -15 -81t-41.5 -62.5t-63 -42.5
t-79.5 -21l-9 -40q4 1 8 1q32 0 54.5 -18t22.5 -56z" />
    <glyph glyph-name="scedilla" unicode="&#x15f;" horiz-adv-x="438" 
d="M319 -121q0 -24 -10 -41t-26 -28.5t-35.5 -17t-38.5 -5.5q-16 0 -32 1.5t-29 6t-21 12.5t-8 22q0 12 7.5 21t18.5 9q5 0 11 -1t12 -3q7 -2 14.5 -3t15.5 -1q13 0 21.5 6t8.5 22q0 17 -10.5 22.5t-24.5 5.5q-8 0 -14.5 5.5t-6.5 16.5q0 3 1 9t3 12l10 39q-32 1 -61.5 5.5
t-51.5 12.5q-20 8 -31.5 21.5t-11.5 35.5q0 26 18 41.5t47 15.5q8 0 17 -1.5t20 -3.5q14 -3 32.5 -5.5t43.5 -2.5q61 0 61 35q0 22 -24 37t-57 32q-25 12 -51.5 26.5t-48.5 34.5t-36 46.5t-14 62.5q0 73 47.5 117.5t135.5 44.5q34 0 69 -4.5t61 -16.5q18 -8 28.5 -20.5
t10.5 -32.5q0 -28 -16 -43.5t-42 -15.5q-10 0 -20.5 1.5t-22.5 3.5q-17 3 -34.5 5.5t-35.5 2.5q-51 0 -51 -32q0 -22 24.5 -37.5t59.5 -32.5q26 -12 53.5 -27t50.5 -34.5t37.5 -45t14.5 -60.5q0 -68 -42.5 -112t-122.5 -52l-9 -39q4 1 8 1q32 0 54.5 -18t22.5 -56z" />
    <glyph glyph-name="Tcommaaccent" unicode="&#x162;" horiz-adv-x="526" 
d="M511 647q0 -25 -15.5 -45.5t-49.5 -20.5h-112v-512q0 -36 -20 -55.5t-51 -19.5t-51 19.5t-20 55.5v512h-112q-35 0 -50 20.5t-15 45.5t17 45t48 20h366q31 0 48 -20t17 -45zM208 -105q0 21 15 39t41 18q20 0 33.5 -10.5t21 -26.5t10.5 -34.5t3 -33.5q0 -28 -10 -63
t-28.5 -65.5t-44.5 -51.5t-58 -21q-29 0 -43.5 18t-14.5 38q0 17 9 30.5t30 26.5q5 3 12.5 8t15 13t13 20t5.5 30q0 17 -5 30t-5 35z" />
    <glyph glyph-name="tcommaaccent" unicode="&#x163;" horiz-adv-x="370" 
d="M355 472q0 -31 -19 -45t-46 -14h-41v-337q0 -35 -19 -56t-50 -21q-30 0 -49 21t-19 56v337h-38q-28 0 -43.5 16t-15.5 43q0 26 16.5 43t42.5 17h38v89q0 35 19 56t50 21q30 0 49 -21t19 -56v-89h41q27 0 46 -14t19 -46zM130 -105q0 21 15 39t41 18q20 0 33.5 -10.5
t21 -26.5t10.5 -34.5t3 -33.5q0 -28 -10 -63t-28.5 -65.5t-44.5 -51.5t-58 -21q-29 0 -43.5 18t-14.5 38q0 17 9 30.5t30 26.5q5 3 12.5 8t15 13t13 20t5.5 30q0 17 -5 30t-5 35z" />
    <glyph glyph-name="Tcaron" unicode="&#x164;" horiz-adv-x="526" 
d="M511 647q0 -25 -15.5 -45.5t-49.5 -20.5h-112v-512q0 -36 -20 -55.5t-51 -19.5t-51 19.5t-20 55.5v512h-112q-35 0 -50 20.5t-15 45.5t17 45t48 20h366q31 0 48 -20t17 -45zM416 861q0 -21 -13 -35.5t-34 -22.5l-106 -43l-105 43q-21 8 -34 22.5t-13 35.5q0 32 18.5 46
t39.5 14q16 0 30 -6l64 -29l65 29q6 2 14 4t16 2q21 0 39.5 -14t18.5 -46z" />
    <glyph glyph-name="tcaron" unicode="&#x165;" horiz-adv-x="615" 
d="M355 472q0 -31 -19 -45t-46 -14h-41v-337q0 -35 -19 -56t-50 -21q-30 0 -49 21t-19 56v337h-38q-28 0 -43.5 16t-15.5 43q0 26 16.5 43t42.5 17h38v89q0 35 19 56t50 21q30 0 49 -21t19 -56v-89h41q27 0 46 -14t19 -46zM429 898q35 0 52 -26t9 -59l-37 -164
q-5 -23 -21.5 -36.5t-39.5 -13.5q-34 0 -52 26t-10 60l38 164q5 23 21.5 36.5t39.5 12.5z" />
    <glyph glyph-name="Umacron" unicode="&#x16a;" horiz-adv-x="661" 
d="M606 266q0 -63 -17 -114t-51.5 -87t-86.5 -56t-122 -20q-71 0 -122.5 19.5t-85.5 55.5t-50 87.5t-16 114.5v377q0 36 20 55.5t51 19.5t51 -19.5t20 -55.5v-382q0 -71 31 -106.5t103 -35.5q70 0 101.5 37t31.5 105v382q0 36 20 55.5t51 19.5t51 -19.5t20 -55.5v-377v0z
M486 818q0 -28 -17.5 -42.5t-45.5 -14.5h-186q-28 0 -45.5 14.5t-17.5 42.5q0 29 18 43.5t45 14.5h186q28 0 45.5 -14.5t17.5 -43.5z" />
    <glyph glyph-name="umacron" unicode="&#x16b;" horiz-adv-x="557" 
d="M512 200q0 -96 -60 -153.5t-174 -57.5t-173.5 57.5t-59.5 153.5v261q0 35 19 56t49 21t49 -21t19 -56v-266q0 -47 27 -67.5t70 -20.5q44 0 70.5 20.5t26.5 67.5v266q0 35 19 56t49 21t49.5 -21t19.5 -56v-261v0zM434 658q0 -28 -17.5 -42.5t-45.5 -14.5h-186
q-28 0 -45.5 14.5t-17.5 42.5q0 29 18 43.5t45 14.5h186q28 0 45.5 -14.5t17.5 -43.5z" />
    <glyph glyph-name="Uring" unicode="&#x16e;" horiz-adv-x="661" 
d="M606 266q0 -63 -17 -114t-51.5 -87t-86.5 -56t-122 -20q-71 0 -122.5 19.5t-85.5 55.5t-50 87.5t-16 114.5v377q0 36 20 55.5t51 19.5t51 -19.5t20 -55.5v-382q0 -71 31 -106.5t103 -35.5q70 0 101.5 37t31.5 105v382q0 36 20 55.5t51 19.5t51 -19.5t20 -55.5v-377v0z
M428 816q0 -48 -28.5 -73t-69.5 -25t-69.5 25t-28.5 74q0 48 28.5 73t69.5 25t69.5 -25t28.5 -74zM375 816q0 26 -13 38t-32 12t-32 -11.5t-13 -37.5t13 -38t32 -12t32 11.5t13 37.5z" />
    <glyph glyph-name="uring" unicode="&#x16f;" horiz-adv-x="557" 
d="M512 200q0 -96 -60 -153.5t-174 -57.5t-173.5 57.5t-59.5 153.5v261q0 35 19 56t49 21t49 -21t19 -56v-266q0 -47 27 -67.5t70 -20.5q44 0 70.5 20.5t26.5 67.5v266q0 35 19 56t49 21t49.5 -21t19.5 -56v-261v0zM376 637q0 -48 -28.5 -73t-69.5 -25t-69.5 25t-28.5 74
q0 48 28.5 73t69.5 25t69.5 -25t28.5 -74zM323 637q0 26 -13 38t-32 12t-32 -11.5t-13 -37.5t13 -38t32 -12t32 11.5t13 37.5z" />
    <glyph glyph-name="Uhungarumlaut" unicode="&#x170;" horiz-adv-x="661" 
d="M606 266q0 -63 -17 -114t-51.5 -87t-86.5 -56t-122 -20q-71 0 -122.5 19.5t-85.5 55.5t-50 87.5t-16 114.5v377q0 36 20 55.5t51 19.5t51 -19.5t20 -55.5v-382q0 -71 31 -106.5t103 -35.5q70 0 101.5 37t31.5 105v382q0 36 20 55.5t51 19.5t51 -19.5t20 -55.5v-377v0z
M587 868q0 -12 -7 -27.5t-28 -23.5l-119 -48q-16 -7 -23 -8t-16 -1q-22 0 -37 15.5t-15 43.5q0 12 7 27.5t28 23.5l119 48q16 7 23 8t16 1q22 0 37 -15.5t15 -43.5zM318 868q0 -12 -7 -27.5t-28 -23.5l-119 -48q-16 -7 -23 -8t-16 -1q-22 0 -37 15.5t-15 43.5q0 12 7 27.5
t28 23.5l119 48q16 7 23 8t16 1q22 0 37 -15.5t15 -43.5z" />
    <glyph glyph-name="uhungarumlaut" unicode="&#x171;" horiz-adv-x="557" 
d="M512 200q0 -96 -60 -153.5t-174 -57.5t-173.5 57.5t-59.5 153.5v261q0 35 19 56t49 21t49 -21t19 -56v-266q0 -47 27 -67.5t70 -20.5q44 0 70.5 20.5t26.5 67.5v266q0 35 19 56t49 21t49.5 -21t19.5 -56v-261v0zM535 707q0 -12 -7 -27.5t-28 -23.5l-119 -48
q-16 -7 -23 -8t-16 -1q-22 0 -37 15.5t-15 43.5q0 12 7 27.5t28 23.5l119 48q16 7 23 8t16 1q22 0 37 -15.5t15 -43.5zM266 707q0 -12 -7 -27.5t-28 -23.5l-119 -48q-16 -7 -23 -8t-16 -1q-22 0 -37 15.5t-15 43.5q0 12 7 27.5t28 23.5l119 48q16 7 23 8t16 1q22 0 37 -15.5
t15 -43.5z" />
    <glyph glyph-name="Uogonek" unicode="&#x172;" horiz-adv-x="661" 
d="M426 -163q0 -13 -8.5 -22.5t-22 -16t-31 -9.5t-36.5 -3q-40 0 -65.5 21t-25.5 65q0 19 7.5 36.5t20 32.5t28 27t30.5 21q-69 1 -119.5 20.5t-83.5 55.5t-49 87t-16 114v377q0 36 20 55.5t51 19.5t51 -19.5t20 -55.5v-382q0 -71 31 -106.5t103 -35.5q70 0 101.5 37
t31.5 105v382q0 36 20 55.5t51 19.5t51 -19.5t20 -55.5v-377q0 -108 -49.5 -179t-151.5 -91q-13 -8 -27 -19.5t-25.5 -25t-19 -28.5t-7.5 -30q0 -34 35 -34q13 0 19 2.5t18 2.5q14 0 21 -8t7 -19z" />
    <glyph glyph-name="uogonek" unicode="&#x173;" horiz-adv-x="557" 
d="M370 -163q0 -13 -8.5 -22.5t-22 -16t-31 -9.5t-36.5 -3q-40 0 -65.5 21t-25.5 65q0 19 7.5 36.5t20 32.5t28 27t30.5 21q-109 3 -165.5 60t-56.5 151v261q0 35 19 56t49 21t49 -21t19 -56v-266q0 -47 27 -67.5t70 -20.5q44 0 70.5 20.5t26.5 67.5v266q0 35 19 56t49 21
t49.5 -21t19.5 -56v-261q0 -80 -41 -133t-121 -70q-13 -8 -27 -19.5t-26 -25t-19.5 -29t-7.5 -30.5q0 -34 35 -34q13 0 19 2.5t18 2.5q14 0 21 -8t7 -19z" />
    <glyph glyph-name="Zacute" unicode="&#x179;" horiz-adv-x="563" 
d="M528 63q0 -27 -18 -45t-51 -18h-347q-39 0 -58 19.5t-19 49.5q0 28 18 58l283 460h-220q-33 0 -51 16t-18 46q0 27 18 45t51 18h319q41 0 58.5 -21.5t17.5 -45.5q0 -20 -5 -34.5t-13 -27.5l-284 -458h250q33 0 51 -16t18 -46zM406 871q0 -23 -13.5 -36t-32.5 -21
l-122 -49q-12 -5 -23 -5q-27 0 -42.5 17.5t-15.5 39.5q0 23 13.5 36t32.5 21l122 49q12 5 23 5q27 0 42.5 -17.5t15.5 -39.5z" />
    <glyph glyph-name="zacute" unicode="&#x17a;" horiz-adv-x="481" 
d="M461 60q0 -29 -18 -44.5t-44 -15.5h-303q-34 0 -52.5 16.5t-18.5 49.5q0 17 7 32t15 26l221 288h-175q-26 0 -44.5 15.5t-18.5 44.5t18.5 44.5t44.5 15.5h289q7 0 18 -2t21 -8.5t17.5 -18t7.5 -30.5q0 -20 -6.5 -34.5t-17.5 -28.5l-221 -290h198q26 0 44 -15.5t18 -44.5z
M368 710q0 -23 -13.5 -36t-32.5 -21l-122 -49q-12 -5 -23 -5q-27 0 -42.5 17.5t-15.5 39.5q0 23 13.5 36t32.5 21l122 49q12 5 23 5q27 0 42.5 -17.5t15.5 -39.5z" />
    <glyph glyph-name="Zdotaccent" unicode="&#x17b;" horiz-adv-x="563" 
d="M528 63q0 -27 -18 -45t-51 -18h-347q-39 0 -58 19.5t-19 49.5q0 28 18 58l283 460h-220q-33 0 -51 16t-18 46q0 27 18 45t51 18h319q41 0 58.5 -21.5t17.5 -45.5q0 -20 -5 -34.5t-13 -27.5l-284 -458h250q33 0 51 -16t18 -46zM347 835q0 -37 -18 -56t-48 -19
q-29 0 -47.5 19t-18.5 56q0 34 18.5 53t47.5 19t47.5 -19t18.5 -53z" />
    <glyph glyph-name="zdotaccent" unicode="&#x17c;" horiz-adv-x="481" 
d="M461 60q0 -29 -18 -44.5t-44 -15.5h-303q-34 0 -52.5 16.5t-18.5 49.5q0 17 7 32t15 26l221 288h-175q-26 0 -44.5 15.5t-18.5 44.5t18.5 44.5t44.5 15.5h289q7 0 18 -2t21 -8.5t17.5 -18t7.5 -30.5q0 -20 -6.5 -34.5t-17.5 -28.5l-221 -290h198q26 0 44 -15.5t18 -44.5z
M309 674q0 -37 -18 -56t-48 -19q-29 0 -47.5 19t-18.5 56q0 34 18.5 53t47.5 19t47.5 -19t18.5 -53z" />
    <glyph glyph-name="Scommaaccent" unicode="&#x218;" horiz-adv-x="516" 
d="M481 199q0 -50 -18 -89t-50 -66t-75.5 -41t-94.5 -14q-42 0 -87 4.5t-77 21.5q-20 11 -32 27t-12 39q0 30 18.5 48.5t48.5 18.5q11 0 26.5 -3t33.5 -8q17 -5 38 -8.5t38 -3.5q47 0 72 16.5t25 52.5q0 18 -7 31.5t-23.5 27.5t-43.5 30t-68 40q-27 16 -54 34t-48 41
t-34.5 52.5t-13.5 67.5q0 50 17.5 88.5t49 64.5t74 39t93.5 13q35 0 68.5 -3.5t59.5 -14.5q23 -10 36.5 -25t13.5 -39q0 -30 -18 -48.5t-48 -18.5q-11 0 -24 2t-28 5q-16 3 -29.5 4.5t-27.5 1.5q-18 0 -35 -2t-30 -9t-21 -19t-8 -32q0 -32 33.5 -55.5t88.5 -52.5
q30 -16 61 -35.5t55.5 -45.5t40.5 -60t16 -77zM203 -105q0 21 15 39t41 18q20 0 33.5 -10.5t21 -26.5t10.5 -34.5t3 -33.5q0 -28 -10 -63t-28.5 -65.5t-44.5 -51.5t-58 -21q-29 0 -43.5 18t-14.5 38q0 17 9 30.5t30 26.5q5 3 12.5 8t15 13t13 20t5.5 30q0 17 -5 30t-5 35z
" />
    <glyph glyph-name="scommaaccent" unicode="&#x219;" horiz-adv-x="438" 
d="M408 155q0 -74 -51 -120t-145 -46q-39 0 -76 3.5t-63 14.5q-20 8 -31.5 21.5t-11.5 35.5q0 26 18 41.5t47 15.5q8 0 17 -1.5t20 -3.5q14 -3 32.5 -5.5t43.5 -2.5q61 0 61 35q0 22 -24 37t-57 32q-25 12 -51.5 26.5t-48.5 34.5t-36 46.5t-14 62.5q0 73 47.5 117.5
t135.5 44.5q34 0 69 -4.5t61 -16.5q18 -8 28.5 -20.5t10.5 -32.5q0 -28 -16 -43.5t-42 -15.5q-10 0 -20.5 1.5t-22.5 3.5q-17 3 -34.5 5.5t-35.5 2.5q-51 0 -51 -32q0 -22 24.5 -37.5t59.5 -32.5q26 -12 53.5 -27t50.5 -34.5t37.5 -45t14.5 -60.5zM164 -105q0 21 15 39
t41 18q20 0 33.5 -10.5t21 -26.5t10.5 -34.5t3 -33.5q0 -28 -10 -63t-28.5 -65.5t-44.5 -51.5t-58 -21q-29 0 -43.5 18t-14.5 38q0 17 9 30.5t30 26.5q5 3 12.5 8t15 13t13 20t5.5 30q0 17 -5 30t-5 35z" />
    <glyph glyph-name="uni021A" unicode="&#x21a;" horiz-adv-x="526" 
d="M511 647q0 -25 -15.5 -45.5t-49.5 -20.5h-112v-512q0 -36 -20 -55.5t-51 -19.5t-51 19.5t-20 55.5v512h-112q-35 0 -50 20.5t-15 45.5t17 45t48 20h366q31 0 48 -20t17 -45zM511 647q0 -25 -15.5 -45.5t-49.5 -20.5h-112v-512q0 -36 -20 -55.5t-51 -19.5t-51 19.5
t-20 55.5v512h-112q-35 0 -50 20.5t-15 45.5t17 45t48 20h366q31 0 48 -20t17 -45zM208 -105q0 21 15 39t41 18q20 0 33.5 -10.5t21 -26.5t10.5 -34.5t3 -33.5q0 -28 -10 -63t-28.5 -65.5t-44.5 -51.5t-58 -21q-29 0 -43.5 18t-14.5 38q0 17 9 30.5t30 26.5q5 3 12.5 8
t15 13t13 20t5.5 30q0 17 -5 30t-5 35z" />
    <glyph glyph-name="uni021B" unicode="&#x21b;" horiz-adv-x="370" 
d="M355 472q0 -31 -19 -45t-46 -14h-41v-337q0 -35 -19 -56t-50 -21q-30 0 -49 21t-19 56v337h-38q-28 0 -43.5 16t-15.5 43q0 26 16.5 43t42.5 17h38v89q0 35 19 56t50 21q30 0 49 -21t19 -56v-89h41q27 0 46 -14t19 -46zM130 -105q0 21 15 39t41 18q20 0 33.5 -10.5
t21 -26.5t10.5 -34.5t3 -33.5q0 -28 -10 -63t-28.5 -65.5t-44.5 -51.5t-58 -21q-29 0 -43.5 18t-14.5 38q0 17 9 30.5t30 26.5q5 3 12.5 8t15 13t13 20t5.5 30q0 17 -5 30t-5 35z" />
    <glyph glyph-name="zero" unicode="0" 
d="M553 356q0 -83 -13 -150.5t-43.5 -115.5t-80 -74.5t-122.5 -26.5q-75 0 -125 26.5t-79.5 74.5t-42 115.5t-12.5 150.5t13 150.5t43.5 115.5t80 74.5t122.5 26.5t123 -26.5t80 -74.5t43 -115.5t13 -150.5zM404 356q0 52 -3 95.5t-14 75.5t-33 50t-60 18t-60.5 -18
t-33.5 -50t-14 -76t-3 -95q0 -50 3 -93.5t14 -75.5t33.5 -51t60.5 -19t60 19t33 51t14 75.5t3 93.5z" />
    <glyph glyph-name="one" unicode="1" 
d="M364 69q0 -36 -20 -55.5t-51 -19.5t-51 19.5t-20 55.5v512h-62q-35 0 -50 20.5t-15 45.5t17 45t48 20h140q31 0 47.5 -19t16.5 -48v-576v0z" />
    <glyph glyph-name="two" unicode="2" 
d="M521 63q0 -32 -20.5 -47.5t-48.5 -15.5h-320q-32 0 -48.5 18.5t-16.5 52.5q0 20 7 36t17 28l209 257q35 42 47.5 70t12.5 54q0 34 -19 55.5t-71 21.5q-28 0 -50 -7t-42 -15q-23 -9 -41 -9q-26 0 -41.5 16.5t-15.5 40.5q0 14 4.5 26.5t15.5 23.5q22 23 70.5 38.5
t111.5 15.5q48 0 89 -11.5t70.5 -35t46 -60.5t16.5 -88q0 -62 -28 -116t-75 -106l-159 -179v-2h205q31 0 52.5 -15t21.5 -47z" />
    <glyph glyph-name="three" unicode="3" 
d="M511 215q0 -47 -16.5 -88t-48 -72t-77.5 -48.5t-106 -17.5q-51 0 -94 8t-64 24q-13 9 -20.5 20.5t-7.5 29.5q0 30 18.5 47t45.5 17q8 0 17.5 -2t20.5 -5q39 -10 83 -10q52 0 78.5 27t26.5 71q0 48 -30 69.5t-85 21.5h-22q-29 0 -47.5 17t-18.5 45q0 31 18.5 49.5
t47.5 18.5h22q51 0 76.5 25t25.5 64q0 32 -19 49.5t-61 17.5q-19 0 -42 -5t-44 -13q-22 -8 -38 -8q-26 0 -42 16.5t-16 44.5q0 41 44 64q27 14 66 22.5t76 8.5q57 0 97.5 -15t65.5 -40.5t36.5 -59.5t11.5 -73q0 -19 -5.5 -40.5t-16.5 -41.5t-28 -37.5t-41 -28.5v-2
q113 -46 113 -170z" />
    <glyph glyph-name="four" unicode="4" 
d="M559 223q0 -27 -18.5 -45t-47.5 -18h-23v-91q0 -75 -67 -75q-66 0 -66 75v91h-242q-35 0 -50.5 17.5t-15.5 49.5q0 15 5 31t17 36l235 379q14 22 36.5 36t54.5 14q93 0 93 -91v-346h22q30 0 48.5 -18t18.5 -45zM335 559h-2l-160 -271v-2h164z" />
    <glyph glyph-name="five" unicode="5" 
d="M519 237q0 -56 -16.5 -101.5t-49.5 -78t-82 -50.5t-114 -18q-50 0 -95.5 10t-67.5 27q-11 9 -18 20t-7 28q0 30 18 47.5t46 17.5q7 0 13 -1t11 -3q20 -6 45 -11t54 -5q57 0 87 27t30 83q0 47 -30 71.5t-87 24.5h-92q-28 0 -46 17.5t-18 43.5v247q0 43 18.5 61t54.5 18
h246q32 0 50 -18.5t18 -45.5q0 -29 -17 -47t-50 -18h-187v-130h50q114 0 175 -53.5t61 -162.5z" />
    <glyph glyph-name="six" unicode="6" 
d="M530 226q0 -49 -15 -92t-45.5 -75.5t-75.5 -51t-105 -18.5q-75 0 -120.5 26.5t-69.5 67.5t-32 90t-8 94q0 76 19 157t58 147.5t99 109.5t143 43q31 0 51 -16.5t20 -47.5t-18 -45t-45 -19q-30 -5 -56 -19t-46 -35t-34 -48t-21 -57l1 -2q23 12 51.5 17t47.5 5q53 0 91 -17
t62.5 -47.5t36 -73t11.5 -93.5zM389 228q0 50 -21 79t-72 29q-46 0 -71.5 -25.5t-25.5 -79.5q0 -53 22 -85t73 -32q45 0 70 26.5t25 87.5z" />
    <glyph glyph-name="seven" unicode="7" 
d="M537 644q0 -15 -5.5 -33t-13.5 -36l-238 -510q-9 -20 -17.5 -34t-17.5 -22t-20.5 -11.5t-27.5 -3.5q-38 0 -56 19.5t-18 40.5q0 14 3 24t8 21l240 482h-251q-38 0 -54.5 20.5t-16.5 45.5t16 45t55 20h344q38 0 54 -19.5t16 -48.5z" />
    <glyph glyph-name="eight" unicode="8" 
d="M539 210q0 -100 -60.5 -158.5t-184.5 -58.5q-125 0 -185 59t-60 158q0 70 27 111.5t87 65.5v1q-37 17 -61.5 52.5t-24.5 95.5q0 91 56.5 137t160.5 46t160.5 -46t56.5 -137q0 -60 -24 -95.5t-61 -52.5v-1q59 -24 86 -65t27 -112zM375 521q0 42 -22.5 58t-58.5 16
q-35 0 -58 -16t-23 -58q0 -36 20 -58t61 -22t61 22t20 58zM394 221q0 48 -23.5 74t-76.5 26t-76.5 -26t-23.5 -74q0 -49 24 -76t76 -27t76 27t24 76z" />
    <glyph glyph-name="nine" unicode="9" 
d="M530 445q0 -76 -19 -157t-58 -147.5t-99.5 -109.5t-142.5 -43q-30 0 -50.5 16.5t-20.5 47.5t18 45t45 19q30 5 56 19t46 35t34 48t21 57l-1 2q-23 -12 -51 -17t-48 -5q-53 0 -91 17t-62.5 47.5t-36 73t-11.5 93.5q0 49 15.5 92t45.5 75t75 51t105 19q75 0 120.5 -26.5
t69.5 -67.5t32 -90t8 -94zM390 481q0 53 -22 85t-73 32q-45 0 -70 -26.5t-25 -87.5q0 -50 21 -79t73 -29q45 0 70.5 25.5t25.5 79.5z" />
    <glyph glyph-name="zero.tosf" 
d="M540 265q0 -64 -16 -115t-47.5 -87t-77 -55t-105.5 -19q-62 0 -108 19t-76.5 55t-45.5 87t-15 115q0 62 16.5 113t48 88t77 57t103.5 20q62 0 108 -20t77 -57t46 -88t15 -113zM405 265q0 34 -6.5 62.5t-20 49.5t-34.5 32.5t-50 11.5t-49.5 -11.5t-34 -32.5t-20 -49.5
t-6.5 -62.5q0 -68 26.5 -111.5t83.5 -43.5q29 0 50 11.5t34.5 32t20 49t6.5 62.5z" />
    <glyph glyph-name="one.tosf" 
d="M552 64q0 -27 -15.5 -45.5t-44.5 -18.5h-356q-29 0 -44.5 18.5t-15.5 45.5q0 28 15.5 47t44.5 19h108v271h-103q-35 0 -50 20.5t-15 45.5t17 45t48 20h181q31 0 47.5 -19t16.5 -48v-335h106q29 0 44.5 -19t15.5 -47z" />
    <glyph glyph-name="two.tosf" 
d="M521 63q0 -32 -20.5 -47.5t-48.5 -15.5h-320q-32 0 -48.5 18.5t-16.5 52.5q0 20 10.5 38t26.5 30l164 118q21 17 38 29.5t29 24t18.5 23t6.5 25.5q0 8 -4 17.5t-13.5 17.5t-24.5 13.5t-37 5.5q-33 0 -58 -7t-45 -15q-23 -9 -41 -9q-26 0 -41.5 16.5t-15.5 40.5
q0 14 4.5 26.5t15.5 23.5q22 23 71.5 38.5t118.5 15.5q45 0 84.5 -11.5t68 -33.5t45 -54.5t16.5 -73.5q0 -35 -13.5 -63.5t-34.5 -52t-47 -42.5t-52 -35l-80 -50v-2h170q31 0 52.5 -15t21.5 -47z" />
    <glyph glyph-name="three.tosf" 
d="M511 35q0 -47 -16.5 -88t-48 -72t-77.5 -48.5t-106 -17.5q-51 0 -94 8t-64 24q-13 9 -20.5 20.5t-7.5 29.5q0 30 18.5 47t45.5 17q8 0 17.5 -2t20.5 -5q39 -10 83 -10q52 0 78.5 27t26.5 71q0 48 -30 69.5t-85 21.5h-22q-29 0 -47.5 17t-18.5 45q0 31 18.5 49.5
t47.5 18.5h22q51 0 76.5 25t25.5 64q0 32 -19 49.5t-61 17.5q-19 0 -42 -5t-44 -13q-22 -8 -38 -8q-26 0 -42 16.5t-16 44.5q0 41 44 64q27 14 66 22.5t76 8.5q57 0 97.5 -15t65.5 -40.5t36.5 -59.5t11.5 -73q0 -19 -5.5 -40.5t-16.5 -41.5t-28 -37.5t-41 -28.5v-2
q113 -46 113 -170z" />
    <glyph glyph-name="four.tosf" 
d="M559 63q0 -27 -18.5 -45t-47.5 -18h-23v-111q0 -75 -67 -75t-67 75v111h-241q-35 0 -50.5 17.5t-15.5 49.5q0 15 5 31t17 36l235 359q14 22 36.5 36t54.5 14q93 0 93 -91v-326h22q30 0 48.5 -18t18.5 -45zM336 379h-2l-161 -251v-2h163v253z" />
    <glyph glyph-name="five.tosf" 
d="M519 57q0 -56 -16.5 -101.5t-49.5 -78t-82 -50.5t-114 -18q-50 0 -95.5 10t-67.5 27q-11 9 -18 20t-7 28q0 30 18 47.5t46 17.5q7 0 13 -1t11 -3q20 -6 45 -11t54 -5q57 0 87 27t30 83q0 47 -30 71.5t-87 24.5h-92q-28 0 -46 17.5t-18 43.5v247q0 43 18.5 61t54.5 18h246
q32 0 50 -18.5t18 -45.5q0 -29 -17 -47t-50 -18h-187v-130h50q114 0 175 -53.5t61 -162.5z" />
    <glyph glyph-name="six.tosf" 
d="M530 226q0 -49 -15 -92t-45.5 -75.5t-75.5 -51t-105 -18.5q-75 0 -120.5 26.5t-69.5 67.5t-32 90t-8 94q0 76 19 157t58 147.5t99 109.5t143 43q31 0 51 -16.5t20 -47.5t-18 -45t-45 -19q-30 -5 -56 -19t-46 -35t-34 -48t-21 -57l1 -2q23 12 51.5 17t47.5 5q53 0 91 -17
t62.5 -47.5t36 -73t11.5 -93.5zM389 228q0 50 -21 79t-72 29q-46 0 -71.5 -25.5t-25.5 -79.5q0 -53 22 -85t73 -32q45 0 70 26.5t25 87.5z" />
    <glyph glyph-name="seven.tosf" 
d="M537 464q0 -15 -5.5 -33t-13.5 -36l-238 -510q-9 -20 -17.5 -34t-17.5 -22t-20.5 -11.5t-27.5 -3.5q-38 0 -56 19.5t-18 40.5q0 14 3 24t8 21l240 482h-251q-38 0 -54.5 20.5t-16.5 45.5t16 45t55 20h344q38 0 54 -19.5t16 -48.5z" />
    <glyph glyph-name="eight.tosf" 
d="M539 210q0 -100 -60.5 -158.5t-184.5 -58.5q-125 0 -185 59t-60 158q0 70 27 111.5t87 65.5v1q-37 17 -61.5 52.5t-24.5 95.5q0 91 56.5 137t160.5 46t160.5 -46t56.5 -137q0 -60 -24 -95.5t-61 -52.5v-1q59 -24 86 -65t27 -112zM375 521q0 42 -22.5 58t-58.5 16
q-35 0 -58 -16t-23 -58q0 -36 20 -58t61 -22t61 22t20 58zM394 221q0 48 -23.5 74t-76.5 26t-76.5 -26t-23.5 -74q0 -49 24 -76t76 -27t76 27t24 76z" />
    <glyph glyph-name="nine.tosf" 
d="M530 265q0 -76 -19 -157t-58 -147.5t-99.5 -109.5t-142.5 -43q-30 0 -50.5 16.5t-20.5 47.5t18 45t45 19q30 5 56 19t46 35t34 48t21 57l-1 2q-23 -12 -51 -17t-48 -5q-53 0 -91 17t-62.5 47.5t-36 73t-11.5 93.5q0 49 15.5 92t45.5 75t75 51t105 19q75 0 120.5 -26.5
t69.5 -67.5t32 -90t8 -94zM390 301q0 53 -22 85t-73 32q-45 0 -70 -26.5t-25 -87.5q0 -50 21 -79t73 -29q45 0 70.5 25.5t25.5 79.5z" />
    <glyph glyph-name="sterling" unicode="&#xa3;" 
d="M538 65q0 -31 -19.5 -48t-49.5 -17h-327q-29 0 -46 17t-17 46q0 11 2.5 23t10.5 26q9 16 23 32q20 25 35.5 57.5t15.5 79.5v10h-46q-29 0 -49 16.5t-20 48.5q0 31 19.5 48t49.5 17h16q-5 10 -9.5 24t-8.5 29t-6 29.5t-2 26.5q0 60 26 102.5t74 65.5q50 25 119 25
q37 0 69.5 -5.5t56.5 -16.5t37.5 -26.5t13.5 -35.5q0 -38 -20.5 -52.5t-47.5 -14.5q-14 0 -25.5 2.5t-25.5 5.5q-12 3 -24.5 5t-28.5 2q-38 0 -55 -19t-17 -50q0 -20 5.5 -43t22.5 -54h103q29 0 49 -16.5t20 -48.5q0 -31 -19.5 -48t-49.5 -17h-80q0 -43 -12 -84t-41 -77h209
q29 0 49 -16.5t20 -48.5z" />
    <glyph glyph-name="ampersand" unicode="&#x26;" horiz-adv-x="705" 
d="M675 53q0 -25 -17.5 -44.5t-48.5 -19.5q-17 0 -28 5.5t-23 17.5l-63 66q-23 -25 -47.5 -42t-51.5 -27.5t-59 -15t-70 -4.5q-106 0 -164 54.5t-58 156.5q0 73 36.5 123.5t97.5 87.5q-33 36 -46 68.5t-13 75.5t18 74.5t48 52.5t68 31t78 10q57 0 101 -11.5t67 -30.5
q22 -19 22 -47q0 -27 -17.5 -44.5t-44.5 -17.5q-13 0 -34 6q-20 6 -43 10.5t-48 4.5q-14 0 -28 -2t-25 -7.5t-17.5 -14.5t-6.5 -24q0 -20 10.5 -37t37.5 -46l176 -183q4 8 8.5 18.5t8.5 21.5q14 37 29.5 53t41.5 16q25 0 42.5 -16t17.5 -39q0 -20 -7 -43.5t-20 -49.5
q-8 -15 -15.5 -28t-15.5 -26l82 -85q11 -11 16 -21.5t5 -26.5zM255 333q-38 -27 -55.5 -53.5t-17.5 -69.5q0 -48 26.5 -73.5t77.5 -25.5q35 0 68.5 12t58.5 42z" />
    <glyph glyph-name="quotedbl" unicode="&#x22;" horiz-adv-x="382" 
d="M337 499q0 -26 -15.5 -41.5t-41.5 -15.5t-42 15.5t-16 41.5v167q0 26 16 41.5t42 15.5t41.5 -15.5t15.5 -41.5v-167zM160 499q0 -26 -15.5 -41.5t-41.5 -15.5t-42 15.5t-16 41.5v167q0 26 16 41.5t42 15.5t41.5 -15.5t15.5 -41.5v-167z" />
    <glyph glyph-name="exclam" unicode="!" horiz-adv-x="253" 
d="M195 269q0 -30 -19.5 -48t-48.5 -18q-30 0 -49.5 17.5t-19.5 48.5v389q0 30 19.5 47.5t49.5 17.5q29 0 48.5 -17.5t19.5 -47.5v-389zM198 68q0 -38 -19.5 -58.5t-51.5 -20.5t-52 20.5t-20 58.5q0 35 20 55.5t52 20.5t51.5 -20t19.5 -56z" />
    </font>
</defs>
</svg>
