<?xml version="1.0" standalone="no"?>
<!DOCTYPE svg PUBLIC "-//W3C//DTD SVG 1.1//EN" "http://www.w3.org/Graphics/SVG/1.1/DTD/svg11.dtd" >
<svg xmlns="http://www.w3.org/2000/svg">
<metadata>Generated by IcoMoon</metadata>
<defs>
<font id="tateicons" horiz-adv-x="1024">
<font-face units-per-em="1024" ascent="960" descent="-64" />
<missing-glyph horiz-adv-x="1024" />
<glyph unicode="&#x20;" horiz-adv-x="512" d="" />
<glyph unicode="&#xe900;" glyph-name="i_close" d="M601.6 448l272 272c25.6 25.6 25.6 67.2 0 89.6-25.6 25.6-67.2 25.6-89.6 0l-272-272-272 272c-25.6 25.6-64 25.6-89.6 0s-25.6-64 0-89.6l272-272-272-272c-25.6-25.6-25.6-64 0-89.6s64-25.6 89.6 0l272 272 272-272c25.6-25.6 67.2-25.6 89.6 0 25.6 25.6 25.6 67.2 0 89.6l-272 272z" />
<glyph unicode="&#xe901;" glyph-name="i_arrow-down" d="M540.8-1.6l409.6 345.6c22.4 19.2 25.6 51.2 6.4 73.6s-51.2 25.6-73.6 6.4l-326.4-275.2v713.6c0 28.8-22.4 51.2-51.2 51.2s-51.2-22.4-51.2-51.2v-713.6l-323.2 275.2c-19.2 16-51.2 16-70.4-6.4-9.6-9.6-12.8-22.4-12.8-32 0-16 6.4-28.8 19.2-38.4l409.6-348.8c19.2-16 44.8-16 64 0z" />
<glyph unicode="&#xe902;" glyph-name="i_arrow-up" d="M540.8 897.6l409.6-345.6c22.4-19.2 25.6-51.2 6.4-73.6s-51.2-25.6-73.6-6.4l-323.2 275.2v-713.6c0-28.8-22.4-51.2-51.2-51.2s-51.2 22.4-51.2 51.2v713.6l-326.4-275.2c-19.2-16-51.2-16-70.4 6.4-9.6 9.6-12.8 22.4-12.8 32 0 16 6.4 28.8 19.2 38.4l409.6 348.8c19.2 16 44.8 16 64 0z" />
<glyph unicode="&#xe903;" glyph-name="i_arrow-left" d="M62.4 478.4l345.6 409.6c19.2 22.4 51.2 25.6 73.6 6.4s25.6-51.2 6.4-73.6l-275.2-323.2h713.6c28.8 0 51.2-22.4 51.2-51.2s-22.4-51.2-51.2-51.2h-713.6l275.2-326.4c19.2-22.4 16-54.4-6.4-73.6-9.6-9.6-22.4-12.8-32-12.8-16 0-28.8 6.4-38.4 19.2l-348.8 412.8c-16 19.2-16 44.8 0 64z" />
<glyph unicode="&#xe904;" glyph-name="i_arrow-right" d="M961.6 480l-345.6 409.6c-19.2 22.4-51.2 25.6-73.6 6.4s-25.6-51.2-6.4-73.6l275.2-326.4h-713.6c-28.8 0-51.2-22.4-51.2-51.2s22.4-51.2 51.2-51.2h713.6l-275.2-326.4c-19.2-22.4-16-54.4 6.4-73.6 9.6-9.6 22.4-12.8 32-12.8 16 0 28.8 6.4 38.4 19.2l348.8 416c16 19.2 16 44.8 0 64z" />
<glyph unicode="&#xe905;" glyph-name="i_search" horiz-adv-x="1021" d="M435.3 238.4c-153.6 0-278.4 124.8-278.4 278.4s124.8 278.4 278.4 278.4 278.4-124.8 278.4-278.4-124.8-278.4-278.4-278.4zM940.9 129.6l-166.4 166.4c-3.2 3.2-6.4 3.2-9.6 6.4 38.4 60.8 64 134.4 64 211.2 0 214.4-176 390.4-390.4 390.4-217.6 3.2-393.6-172.8-393.6-387.2s176-390.4 390.4-390.4c80 0 150.4 22.4 214.4 64 3.2-3.2 3.2-6.4 6.4-9.6l166.4-166.4c16-16 38.4-25.6 60.8-25.6s41.6 9.6 57.6 25.6c35.2 28.8 35.2 80 0 115.2z" />
<glyph unicode="&#xe906;" glyph-name="i_info" d="M503.324 928.269c-53.951 0-102.282-48.231-102.282-99.88 0-55.797 48.33-105.125 102.282-105.125 57.105 0 103.294 48.249 103.294 105.125 0 53.673-48.249 99.88-103.294 99.88zM503.324 655.265c-52.398 0-90.32-40.553-90.32-101.235v-484.854c0-60.699 37.923-101.105 90.32-101.105 53.509 0 91.923 40.406 91.923 101.105v484.839c0 60.714-38.461 101.252-91.923 101.252z" />
<glyph unicode="&#xe907;" glyph-name="i_shop" d="M972.8 435.2l-163.2-435.2h-595.2l-163.2 435.2h921.6zM918.4 598.4h-64l-240 284.8c-9.6 12.8-25.6 12.8-38.4 3.2s-12.8-25.6-3.2-35.2l211.2-249.6h-544l211.2 249.6c9.6 12.8 9.6 25.6-3.2 35.2s-28.8 9.6-38.4 0l-240-284.8h-64c-28.8 0-54.4-25.6-54.4-54.4s25.6-54.4 54.4-54.4h812.8c28.8 0 54.4 25.6 54.4 54.4s-25.6 51.2-54.4 51.2z" />
<glyph unicode="&#xe908;" glyph-name="i_user" d="M748.8 672c0-131.2-105.6-236.8-236.8-236.8s-236.8 108.8-236.8 236.8 105.6 236.8 236.8 236.8 236.8-105.6 236.8-236.8zM940.8-12.8c0 236.8-192 428.8-428.8 428.8s-428.8-192-428.8-428.8h857.6z" />
<glyph unicode="&#xe909;" glyph-name="i_menu" d="M915.2 620.8h-806.4c-32 0-57.6 25.6-57.6 57.6s25.6 57.6 57.6 57.6h806.4c32 0 57.6-25.6 57.6-57.6s-25.6-57.6-57.6-57.6zM915.2 390.4c32 0 57.6 25.6 57.6 57.6s-25.6 57.6-57.6 57.6h-806.4c-32 0-57.6-25.6-57.6-57.6s25.6-57.6 57.6-57.6h806.4zM915.2 160c32 0 57.6 25.6 57.6 57.6s-25.6 57.6-57.6 57.6h-806.4c-32 0-57.6-25.6-57.6-57.6s25.6-57.6 57.6-57.6h806.4z" />
<glyph unicode="&#xe90a;" glyph-name="i_chevron-down" d="M510.4 220.8c-12.8 0-22.4 3.2-32 12.8l-409.6 345.6c-22.4 19.2-25.6 51.2-6.4 70.4 19.2 22.4 51.2 25.6 73.6 6.4l374.4-316.8 377.6 316.8c22.4 19.2 54.4 16 73.6-6.4s16-54.4-6.4-73.6l-412.8-342.4c-9.6-9.6-19.2-12.8-32-12.8z" />
<glyph unicode="&#xe90b;" glyph-name="i_chevron-up" d="M510.4 676.8c-12.8 0-22.4-3.2-32-12.8l-409.6-345.6c-22.4-19.2-25.6-51.2-6.4-73.6s51.2-25.6 73.6-6.4l374.4 320 377.6-316.8c22.4-19.2 54.4-16 73.6 6.4s16 54.4-6.4 73.6l-412.8 342.4c-9.6 9.6-19.2 12.8-32 12.8z" />
<glyph unicode="&#xe90c;" glyph-name="i_chevron-right" d="M739.2 449.6c0 12.8-3.2 22.4-12.8 32l-345.6 409.6c-19.2 22.4-51.2 25.6-70.4 6.4-22.4-19.2-25.6-51.2-6.4-70.4l316.8-377.6-316.8-377.6c-19.2-22.4-16-54.4 6.4-73.6s54.4-16 73.6 6.4l342.4 412.8c9.6 9.6 12.8 19.2 12.8 32z" />
<glyph unicode="&#xe90d;" glyph-name="i_chevron-left" d="M283.2 446.4c0-12.8 3.2-22.4 12.8-32l345.6-409.6c19.2-22.4 51.2-25.6 73.6-6.4s25.6 51.2 6.4 73.6l-320 374.4 316.8 377.6c19.2 22.4 16 54.4-6.4 73.6s-54.4 16-73.6-6.4l-342.4-412.8c-9.6-9.6-12.8-19.2-12.8-32z" />
<glyph unicode="&#xe90e;" glyph-name="i_tumblr" d="M721.957 169.635c-16.794-8.199-48.978-15.352-72.933-15.986-72.439-1.962-86.438 51.979-87.098 91.168v287.825h181.676v139.973h-180.984v235.558c0 0-130.333 0-132.5 0-2.192 0-6.003-1.962-6.493-6.929-7.762-72.092-40.78-198.587-177.978-249.148v-119.423h91.515v-302.107c0-103.437 74.663-250.392 271.66-246.956 66.497 1.186 140.346 29.64 156.652 54.171l-43.523 131.863z" />
<glyph unicode="&#xe90f;" glyph-name="i_google-plus" d="M350.224 147.165c-175.661 0-318.584 140.359-318.584 312.902 0 172.566 142.923 312.902 318.584 312.902 76.84 0 151.072-27.275 208.98-76.745l-81.023-91.446c-35.447 30.272-80.879 46.98-127.958 46.98-107.62 0-195.151-86.004-195.151-191.692 0-105.71 87.553-191.642 195.151-191.642 91.081 0 150.636 43.593 170.028 121.888h-168.528v121.186h298.758v-60.567c0.023-181.682-120.605-303.763-300.255-303.763zM983.040 511.469h-92.364v92.364h-73.892v-92.364h-92.364v-73.892h92.364v-92.339h73.892v92.339h92.364z" />
<glyph unicode="&#xe910;" glyph-name="i_wifi" d="M168.373-26.215c-74.655 0-135.148 60.436-135.148 134.997 0 74.593 60.498 135.058 135.148 135.058 74.682 0 135.242-60.436 135.242-135.058 0-74.533-60.558-134.997-135.242-134.997zM534.517-25.425c-0.671 275.99-223.992 499.344-500.348 499.702h-0.733v143.763h0.733c355.851 0 644.051-288.17 644.173-643.5h-143.825zM977.078-25.425h-143.736c0 0.305 0 0.611 0 0.611 0 220.977-89.45 420.181-234.524 565.043-144.68 144.74-344.16 233.913-565.192 234.068h-0.184v143.491h0.184c521.051 0 943.452-421.947 943.452-942.63v-0.578z" />
<glyph unicode="&#xe911;" glyph-name="i_pintrest" d="M513.5 910.515c-256.221 0-464.015-207.731-464.015-464.015 0-190.014 114.264-353.231 277.74-424.98-1.276 32.392-0.232 71.285 8.063 106.549 8.96 37.67 59.742 252.831 59.742 252.831s-14.818 29.639-14.818 73.43c0 68.758 39.816 120.121 89.464 120.121 42.225 0 62.61-31.696 62.61-69.628 0-42.458-27.056-105.912-41.007-164.693-11.57-49.244 24.709-89.348 73.256-89.348 87.932 0 147.119 112.898 147.119 246.682 0 101.704-68.501 177.834-193.089 177.834-140.77 0-228.437-104.984-228.437-222.206 0-40.485 11.89-68.964 30.594-91.030 8.584-10.178 9.772-14.238 6.64-25.868-2.204-8.554-7.336-29.117-9.455-37.237-3.074-11.744-12.586-15.951-23.228-11.628-64.814 26.507-95.008 97.468-95.008 177.279 0 131.839 111.19 289.861 331.655 289.861 177.138 0 293.779-128.184 293.779-265.791 0-182.036-101.214-318.024-250.394-318.024-50.113 0-97.212 27.088-113.394 57.828 0 0-26.913-106.922-32.624-127.547-9.802-35.756-29.117-71.516-46.691-99.416 41.703-12.324 85.843-18.994 131.49-18.994 256.278 0 464.015 207.731 464.015 464.015s-207.731 463.983-464.015 463.983z" />
<glyph unicode="&#xe912;" glyph-name="i_instagram" d="M509.291 682.399c-126.42 0-231.168-102.942-231.168-231.168s102.942-231.168 231.168-231.168 231.168 104.748 231.168 231.168-104.748 231.168-231.168 231.168zM509.291 303.139c-81.27 0-148.092 66.822-148.092 148.092s66.822 148.092 148.092 148.092 148.092-66.822 148.092-148.092-66.822-148.092-148.092-148.092zM801.862 687.817c0-28.925-23.449-52.374-52.374-52.374s-52.374 23.449-52.374 52.374c0 28.925 23.449 52.374 52.374 52.374s52.374-23.449 52.374-52.374zM884.938 823.266c-46.956 48.762-113.778 74.046-189.63 74.046h-372.035c-157.122 0-261.869-104.748-261.869-261.869v-370.229c0-77.658 25.284-144.48 75.852-193.242 48.762-46.956 113.778-70.434 187.824-70.434h368.423c77.658 0 142.674 25.284 189.63 70.434 48.762 46.956 74.046 113.778 74.046 191.436v372.035c0 75.852-25.284 140.868-72.24 187.824zM874.102 263.407c0-55.986-16.254-101.136-48.762-131.838s-77.658-46.956-131.838-46.956h-368.423c-54.18 0-99.33 16.254-131.838 46.956-32.508 32.508-48.762 77.658-48.762 133.644v370.229c0 54.18 16.254 99.33 48.762 131.838 30.702 30.702 77.658 46.956 131.838 46.956h372.035c54.18 0 99.33-16.254 131.838-48.762 30.702-32.508 48.762-77.658 48.762-130.032v-372.035z" />
<glyph unicode="&#xe913;" glyph-name="i_youtube" d="M934.331 758.427c-35.697 39.813-75.664 40.066-93.988 42.31-131.304 10.168-328.245 10.168-328.245 10.168h-0.428c0 0-196.937 0-328.203-10.168-18.368-2.267-58.295-2.497-94.031-42.31-28.103-30.407-37.277-99.398-37.277-99.398s-9.389-80.971-9.389-161.947v-75.917c0-81.013 9.389-161.985 9.389-161.985s9.153-68.952 37.277-99.299c35.735-39.834 82.55-38.622 103.437-42.781 75.039-7.689 318.993-10.070 318.993-10.070s197.15 0.351 328.459 10.403c18.324 2.343 58.295 2.596 93.988 42.432 28.085 30.33 37.256 99.299 37.256 99.299s9.389 80.971 9.389 161.985v75.9c0 81.013-9.389 161.985-9.389 161.985s-9.115 69.008-37.238 99.398zM394.705 283.008v351.936l293.311-175.979-293.311-175.957z" />
<glyph unicode="&#xe914;" glyph-name="i_facebook" d="M719.583 419.852h-159.815v-442.866h-162.739v442.866h-112.964v159.671h112.964c0 0 0 65.287 0 136.127 0 107.005 66.822 205.341 220.709 205.341 62.219 0 108.335-6.165 108.335-6.165l-3.658-149.018c0 0-47.055 0.531-98.271 0.531-55.551 0-64.375-26.435-64.375-70.421 0-6.46 0-8.053 0-7.317 0-12.065 0-41.626 0-109.102h167.045l-7.227-159.638z" />
<glyph unicode="&#xe915;" glyph-name="i_twitter" d="M954.352 703.893c-32.711-14.54-67.914-24.348-104.851-28.737 37.714 22.578 66.631 58.341 80.268 101.004-35.275-20.934-74.326-36.124-115.923-44.325-33.289 35.474-80.738 57.655-133.245 57.655-100.805 0-182.537-81.731-182.537-182.555 0-14.287 1.608-28.213 4.732-41.597-151.722 7.622-286.25 80.286-376.29 190.737-15.714-26.949-24.709-58.305-24.709-91.792 0-63.326 32.223-119.21 81.208-151.939-29.911 0.957-58.070 9.176-82.689 22.849-0.018-0.759-0.018-1.535-0.018-2.312 0-88.433 62.929-162.199 146.448-178.996-15.317-4.154-31.446-6.394-48.1-6.394-11.777 0-23.21 1.138-34.354 3.287 23.246-72.52 90.654-125.316 170.525-126.779-62.477-48.967-141.174-78.155-226.717-78.155-14.721 0-29.261 0.867-43.548 2.565 80.81-51.82 176.757-82.020 279.838-82.020 335.794 0 519.396 278.158 519.396 519.396 0 7.911-0.163 15.804-0.506 23.643 35.655 25.684 66.613 57.853 91.070 94.465z" />
<glyph unicode="&#xe916;" glyph-name="i_headphones" d="M509.719 877.932c-232.211 0-421.484-189.273-421.484-421.484v-389.4c0-16.758 13.108-29.887 29.848-29.887h153.597c16.721 0 29.848 13.148 29.848 29.887v355.942c0 16.721-13.127 29.83-29.848 29.83h-123.767v3.631c0 199.478 162.331 362.516 362.516 362.516s362.534-162.331 362.534-362.516v-3.631h-123.749c-16.758 0-29.848-13.127-29.848-29.83v-355.942c0-16.758 13.108-29.887 29.848-29.887h153.597c16.721 0 29.848 13.148 29.848 29.887v389.421c-1.432 232.211-190.726 421.466-422.937 421.466v0zM241.813 393.138v-297.010h-94.608v297.753h94.608v-0.746zM872.234 356.716v-260.588h-93.901v296.303h93.901v-35.715z" />
<glyph unicode="&#xe917;" glyph-name="i_camera" d="M856.19 668.914h-131.568l-78.738 79.517c0 0-0.373 0.39-0.558 0.39l-0.422 0.39c-11.674 11.691-27.467 19.095-45.393 19.095h-163.728c-19.095 0-36.040-8.183-47.953-21.249v-0.186l-76.995-77.959h-134.485c-36.242 0-65.489-28.464-65.489-64.709v-393.912c0-36.242 29.245-65.657 65.489-65.657h679.839c36.040 0 65.472 29.416 65.472 65.657v393.912c0 36.242-29.432 64.709-65.472 64.709zM516.277 243.047c-99.207 0-180.094 81.060-180.094 180.468 0 99.597 80.893 180.484 180.094 180.484 99.392 0 180.078-80.893 180.078-180.484 0-99.408-80.703-180.468-180.078-180.468zM843.888 564.641c-15.014 0-27.278 12.268-27.278 27.467s12.286 27.484 27.278 27.484 27.296-12.286 27.296-27.484c0-15.198-12.286-27.467-27.296-27.467zM516.277 559.948c-75.231 0-136.043-60.997-136.043-136.433 0-75.231 60.813-136.433 136.043-136.433 75.009 0 136.027 61.012 136.027 136.433-0.016 75.434-61.012 136.433-136.027 136.433z" />
<glyph unicode="&#xe918;" glyph-name="i_location-pin" d="M512 448c-86.4 0-153.6 67.2-153.6 153.6s67.2 153.6 153.6 153.6c86.4 0 153.6-67.2 153.6-153.6s-67.2-153.6-153.6-153.6zM512 908.8c-169.6 0-307.2-137.6-307.2-307.2 0-54.4 16-108.8 41.6-153.6l265.6-460.8 265.6 460.8c25.6 44.8 41.6 99.2 41.6 153.6 0 169.6-137.6 307.2-307.2 307.2z" />
<glyph unicode="&#xe919;" glyph-name="i_logo" d="M82.82 612.381c0-1.904-1.544-3.448-3.448-3.448s-3.448 1.544-3.448 3.448c0 1.904 1.544 3.448 3.448 3.448s3.448-1.544 3.448-3.448zM110.629 612.363c0-2.639-2.139-4.779-4.779-4.779s-4.779 2.139-4.779 4.779c0 2.639 2.139 4.779 4.779 4.779s4.779-2.139 4.779-4.779zM137.895 612.363c0-3.074-2.492-5.565-5.565-5.565s-5.565 2.492-5.565 5.565c0 3.074 2.492 5.565 5.565 5.565s5.565-2.492 5.565-5.565zM165.76 612.363c0-3.85-3.12-6.97-6.97-6.97s-6.97 3.12-6.97 6.97c0 3.85 3.12 6.97 6.97 6.97s6.97-3.12 6.97-6.97zM192.107 612.363c0-3.777-3.063-6.84-6.84-6.84s-6.84 3.063-6.84 6.84c0 3.777 3.063 6.84 6.84 6.84s6.84-3.063 6.84-6.84zM217.348 612.363c0-3.095-2.508-5.603-5.603-5.603s-5.603 2.508-5.603 5.603c0 3.095 2.508 5.603 5.603 5.603s5.603-2.508 5.603-5.603zM242.927 612.363c0-2.597-2.105-4.704-4.704-4.704s-4.704 2.105-4.704 4.704c0 2.597 2.105 4.704 4.704 4.704s4.704-2.105 4.704-4.704zM268.525 612.363c0-2.112-1.712-3.822-3.822-3.822s-3.822 1.712-3.822 3.822c0 2.112 1.712 3.822 3.822 3.822s3.822-1.712 3.822-3.822zM293.203 612.363c0-1.118-0.906-2.025-2.025-2.025s-2.025 0.906-2.025 2.025c0 1.118 0.906 2.025 2.025 2.025s2.025-0.906 2.025-2.025zM346.066 612.363c0-1.077-0.873-1.948-1.948-1.948s-1.948 0.873-1.948 1.948c0 1.077 0.873 1.948 1.948 1.948s1.948-0.873 1.948-1.948zM373.762 612.363c0-1.738-1.41-3.148-3.148-3.148s-3.148 1.41-3.148 3.148c0 1.738 1.41 3.148 3.148 3.148s3.148-1.41 3.148-3.148zM400.147 612.363c0-1.687-1.367-3.054-3.054-3.054s-3.054 1.367-3.054 3.054c0 1.687 1.367 3.054 3.054 3.054s3.054-1.367 3.054-3.054zM425.389 612.363c0-1.014-0.822-1.836-1.836-1.836s-1.836 0.822-1.836 1.836c0 1.014 0.822 1.836 1.836 1.836s1.836-0.822 1.836-1.836zM478.626 612.363c0-1.159-0.94-2.099-2.099-2.099s-2.099 0.94-2.099 2.099c0 1.159 0.94 2.099 2.099 2.099s2.099-0.94 2.099-2.099zM506.96 612.363c0-2.193-1.779-3.973-3.973-3.973s-3.973 1.779-3.973 3.973c0 2.193 1.779 3.973 3.973 3.973s3.973-1.779 3.973-3.973zM534.843 612.363c0-2.96-2.4-5.36-5.36-5.36s-5.36 2.4-5.36 5.36c0 2.96 2.4 5.36 5.36 5.36s5.36-2.4 5.36-5.36zM562.557 612.381c0-3.643-2.952-6.596-6.596-6.596s-6.596 2.952-6.596 6.596c0 3.643 2.952 6.596 6.596 6.596s6.596-2.952 6.596-6.596zM589.861 612.363c0-4.109-3.331-7.439-7.439-7.439s-7.439 3.331-7.439 7.439c0 4.109 3.331 7.439 7.439 7.439s7.439-3.331 7.439-7.439zM616.47 612.363c0-4.17-3.381-7.551-7.551-7.551s-7.551 3.381-7.551 7.551c0 4.17 3.381 7.551 7.551 7.551s7.551-3.381 7.551-7.551zM641.618 612.363c0-3.446-2.795-6.24-6.24-6.24s-6.24 2.795-6.24 6.24c0 3.446 2.795 6.24 6.24 6.24s6.24-2.795 6.24-6.24zM666.335 612.381c0-2.483-2.014-4.497-4.497-4.497s-4.497 2.014-4.497 4.497c0 2.483 2.014 4.497 4.497 4.497s4.497-2.014 4.497-4.497zM690.676 612.381c0-1.294-1.049-2.342-2.342-2.342s-2.342 1.049-2.342 2.342c0 1.294 1.049 2.342 2.342 2.342s2.342-1.049 2.342-2.342zM716.498 612.363c0-0.943-0.764-1.705-1.705-1.705s-1.705 0.764-1.705 1.705c0 0.943 0.764 1.705 1.705 1.705s1.705-0.764 1.705-1.705zM769.568 612.381c0-1.004-0.814-1.817-1.817-1.817s-1.817 0.814-1.817 1.817c0 1.004 0.814 1.817 1.817 1.817s1.817-0.814 1.817-1.817zM797.301 612.363c0-1.687-1.367-3.054-3.054-3.054s-3.054 1.367-3.054 3.054c0 1.687 1.367 3.054 3.054 3.054s3.054-1.367 3.054-3.054zM824.979 612.363c0-2.349-1.904-4.254-4.254-4.254s-4.254 1.904-4.254 4.254c0 2.349 1.904 4.254 4.254 4.254s4.254-1.904 4.254-4.254zM851.626 612.381c0-2.452-1.989-4.441-4.441-4.441s-4.441 1.989-4.441 4.441c0 2.452 1.989 4.441 4.441 4.441s4.441-1.989 4.441-4.441zM877.973 612.363c0-2.371-1.922-4.291-4.291-4.291s-4.291 1.922-4.291 4.291c0 2.371 1.922 4.291 4.291 4.291s4.291-1.922 4.291-4.291zM903.87 612.363c0-2.059-1.669-3.729-3.729-3.729s-3.729 1.669-3.729 3.729c0 2.059 1.669 3.729 3.729 3.729s3.729-1.669 3.729-3.729zM928.699 612.363c0-1.159-0.94-2.099-2.099-2.099s-2.099 0.94-2.099 2.099c0 1.159 0.94 2.099 2.099 2.099s2.099-0.94 2.099-2.099zM86.7 585.885c0-4.046-3.28-7.326-7.326-7.326s-7.326 3.28-7.326 7.326c0 4.046 3.28 7.326 7.326 7.326s7.326-3.28 7.326-7.326zM116.457 585.885c0-5.858-4.748-10.607-10.607-10.607s-10.607 4.748-10.607 10.607c0 5.858 4.748 10.607 10.607 10.607s10.607-4.748 10.607-10.607zM144.565 585.885c0-6.757-5.478-12.236-12.236-12.236s-12.236 5.478-12.236 12.236c0 6.757 5.478 12.236 12.236 12.236s12.236-5.478 12.236-12.236zM173.311 585.885c0-8.020-6.501-14.524-14.524-14.524s-14.524 6.501-14.524 14.524c0 8.020 6.501 14.524 14.524 14.524s14.524-6.501 14.524-14.524zM199.658 585.885c0-7.949-6.444-14.391-14.391-14.391s-14.391 6.444-14.391 14.391c0 7.949 6.444 14.391 14.391 14.391s14.391-6.444 14.391-14.391zM224.469 585.885c0-7.027-5.697-12.724-12.724-12.724s-12.724 5.697-12.724 12.724c0 7.027 5.697 12.724 12.724 12.724s12.724-5.697 12.724-12.724zM249.41 585.885c0-6.178-5.008-11.187-11.187-11.187s-11.187 5.008-11.187 11.187c0 6.178 5.008 11.187 11.187 11.187s11.187-5.008 11.187-11.187zM274.015 585.885c0-5.143-4.169-9.312-9.312-9.312s-9.312 4.169-9.312 9.312c0 5.143 4.169 9.312 9.312 9.312s9.312-4.169 9.312-9.312zM298.131 585.885c0-3.84-3.112-6.952-6.952-6.952s-6.952 3.112-6.952 6.952c0 3.84 3.112 6.952 6.952 6.952s6.952-3.112 6.952-6.952zM323.636 585.885c0-3.301-2.676-5.977-5.977-5.977s-5.977 2.676-5.977 5.977c0 3.301 2.676 5.977 5.977 5.977s5.977-2.676 5.977-5.977zM351.275 585.885c0-3.954-3.205-7.159-7.159-7.159s-7.159 3.205-7.159 7.159c0 3.954 3.205 7.159 7.159 7.159s7.159-3.205 7.159-7.159zM379.235 585.885c0-4.76-3.859-8.62-8.62-8.62s-8.62 3.859-8.62 8.62c0 4.76 3.859 8.62 8.62 8.62s8.62-3.859 8.62-8.62zM405.618 585.885c0-4.709-3.817-8.526-8.526-8.526s-8.526 3.817-8.526 8.526c0 4.709 3.817 8.526 8.526 8.526s8.526-3.817 8.526-8.526zM430.335 585.885c0-3.746-3.037-6.783-6.783-6.783s-6.783 3.037-6.783 6.783c0 3.746 3.037 6.783 6.783 6.783s6.783-3.037 6.783-6.783zM455.652 585.885c0-3.095-2.508-5.603-5.603-5.603s-5.603 2.508-5.603 5.603c0 3.095 2.508 5.603 5.603 5.603s5.603-2.508 5.603-5.603zM482.992 585.885c0-3.57-2.895-6.466-6.466-6.466s-6.466 2.895-6.466 6.466c0 3.57 2.895 6.466 6.466 6.466s6.466-2.895 6.466-6.466zM511.738 585.885c0-4.833-3.918-8.752-8.752-8.752s-8.752 3.918-8.752 8.752c0 4.833 3.918 8.752 8.752 8.752s8.752-3.918 8.752-8.752zM540.203 585.885c0-5.92-4.799-10.718-10.718-10.718s-10.718 4.799-10.718 10.718c0 5.92 4.799 10.718 10.718 10.718s10.718-4.799 10.718-10.718zM567.712 585.885c0-6.489-5.261-11.749-11.749-11.749s-11.749 5.261-11.749 11.749c0 6.489 5.261 11.749 11.749 11.749s11.749-5.261 11.749-11.749zM595.52 585.885c0-7.235-5.864-13.098-13.098-13.098s-13.098 5.864-13.098 13.098c0 7.235 5.864 13.098 13.098 13.098s13.098-5.864 13.098-13.098zM648.476 585.885c0-7.235-5.864-13.098-13.098-13.098s-13.098 5.864-13.098 13.098c0 7.235 5.864 13.098 13.098 13.098s13.098-5.864 13.098-13.098zM622.672 585.885c0-7.596-6.158-13.754-13.754-13.754s-13.754 6.158-13.754 13.754c0 7.596 6.158 13.754 13.754 13.754s13.754-6.158 13.754-13.754zM672.95 585.885c0-6.137-4.975-11.112-11.112-11.112s-11.112 4.975-11.112 11.112c0 6.137 4.975 11.112 11.112 11.112s11.112-4.975 11.112-11.112zM698.304 585.885c0-5.507-4.463-9.97-9.97-9.97s-9.97 4.463-9.97 9.97c0 5.507 4.463 9.97 9.97 9.97s9.97-4.463 9.97-9.97zM723.113 585.885c0-4.595-3.725-8.319-8.319-8.319s-8.319 3.725-8.319 8.319c0 4.595 3.725 8.319 8.319 8.319s8.319-3.725 8.319-8.319zM749.555 585.885c0-4.564-3.699-8.263-8.263-8.263s-8.263 3.699-8.263 8.263c0 4.564 3.699 8.263 8.263 8.263s8.263-3.699 8.263-8.263zM776.632 585.885c0-4.905-3.977-8.882-8.882-8.882s-8.882 3.977-8.882 8.882c0 4.905 3.977 8.882 8.882 8.882s8.882-3.977 8.882-8.882zM803.86 585.885c0-5.309-4.303-9.614-9.614-9.614s-9.614 4.303-9.614 9.614c0 5.309 4.303 9.614 9.614 9.614s9.614-4.303 9.614-9.614zM830.956 585.885c0-5.651-4.581-10.231-10.231-10.231s-10.231 4.581-10.231 10.231c0 5.651 4.581 10.231 10.231 10.231s10.231-4.581 10.231-10.231zM857.679 585.885c0-5.796-4.698-10.495-10.495-10.495s-10.495 4.698-10.495 10.495c0 5.796 4.698 10.495 10.495 10.495s10.495-4.698 10.495-10.495zM883.745 585.885c0-5.558-4.505-10.062-10.062-10.062s-10.062 4.505-10.062 10.062c0 5.558 4.505 10.062 10.062 10.062s10.062-4.505 10.062-10.062zM908.836 585.885c0-4.803-3.893-8.695-8.695-8.695s-8.695 3.893-8.695 8.695c0 4.803 3.893 8.695 8.695 8.695s8.695-3.893 8.695-8.695zM931.904 585.885c0-2.929-2.374-5.304-5.304-5.304s-5.304 2.374-5.304 5.304c0 2.929 2.374 5.304 5.304 5.304s5.304-2.374 5.304-5.304zM88.498 559.407c0-5.039-4.086-9.126-9.126-9.126s-9.126 4.086-9.126 9.126c0 5.039 4.086 9.126 9.126 9.126s9.126-4.086 9.126-9.126zM118.124 559.407c0-6.779-5.496-12.274-12.274-12.274s-12.274 5.496-12.274 12.274c0 6.779 5.496 12.274 12.274 12.274s12.274-5.496 12.274-12.274zM146.401 559.407c0-7.772-6.3-14.073-14.073-14.073s-14.073 6.3-14.073 14.073c0 7.772 6.3 14.073 14.073 14.073s14.073-6.3 14.073-14.073zM173.593 559.407c0-8.175-6.628-14.803-14.803-14.803s-14.803 6.628-14.803 14.803c0 8.175 6.628 14.803 14.803 14.803s14.803-6.628 14.803-14.803zM200.183 559.407c0-8.238-6.679-14.916-14.916-14.916s-14.916 6.679-14.916 14.916c0 8.238 6.679 14.916 14.916 14.916s14.916-6.679 14.916-14.916zM226.305 559.407c0-8.041-6.519-14.56-14.56-14.56s-14.56 6.519-14.56 14.56c0 8.041 6.519 14.56 14.56 14.56s14.56-6.519 14.56-14.56zM251.81 559.407c0-7.504-6.083-13.586-13.586-13.586s-13.586 6.083-13.586 13.586c0 7.504 6.083 13.586 13.586 13.586s13.586-6.083 13.586-13.586zM276.488 559.407c0-6.51-5.277-11.787-11.787-11.787s-11.787 5.277-11.787 11.787c0 6.51 5.277 11.787 11.787 11.787s11.787-5.277 11.787-11.787zM300.943 559.407c0-5.392-4.37-9.763-9.763-9.763s-9.763 4.37-9.763 9.763c0 5.392 4.37 9.763 9.763 9.763s9.763-4.37 9.763-9.763zM327.027 559.387c0-5.174-4.195-9.369-9.369-9.369s-9.369 4.195-9.369 9.369c0 5.174 4.195 9.369 9.369 9.369s9.369-4.195 9.369-9.369zM355.042 559.407c0-6.033-4.892-10.925-10.925-10.925s-10.925 4.892-10.925 10.925c0 6.033 4.892 10.925 10.925 10.925s10.925-4.892 10.925-10.925zM383.208 559.407c0-6.955-5.638-12.593-12.593-12.593s-12.593 5.638-12.593 12.593c0 6.955 5.638 12.593 12.593 12.593s12.593-5.638 12.593-12.593zM409.498 559.407c0-6.851-5.553-12.405-12.405-12.405s-12.405 5.553-12.405 12.405c0 6.851 5.553 12.405 12.405 12.405s12.405-5.553 12.405-12.405zM434.082 559.407c0-5.817-4.715-10.531-10.531-10.531s-10.531 4.715-10.531 10.531c0 5.817 4.715 10.531 10.531 10.531s10.531-4.715 10.531-10.531zM458.556 559.407c0-4.699-3.81-8.508-8.508-8.508s-8.508 3.81-8.508 8.508c0 4.699 3.81 8.508 8.508 8.508s8.508-3.81 8.508-8.508zM484.734 559.407c0-4.533-3.675-8.207-8.207-8.207s-8.207 3.675-8.207 8.207c0 4.533 3.675 8.207 8.207 8.207s8.207-3.675 8.207-8.207zM512.863 559.407c0-5.454-4.422-9.875-9.875-9.875s-9.875 4.422-9.875 9.875c0 5.454 4.422 9.875 9.875 9.875s9.875-4.422 9.875-9.875zM542.057 559.407c0-6.945-5.63-12.573-12.573-12.573s-12.573 5.63-12.573 12.573c0 6.945 5.63 12.573 12.573 12.573s12.573-5.63 12.573-12.573zM570.147 559.407c0-7.835-6.351-14.186-14.186-14.186s-14.186 6.351-14.186 14.186c0 7.835 6.351 14.186 14.186 14.186s14.186-6.351 14.186-14.186zM675.049 559.407c0-7.296-5.915-13.211-13.211-13.211s-13.211 5.915-13.211 13.211c0 7.296 5.915 13.211 13.211 13.211s13.211-5.915 13.211-13.211zM699.934 559.407c0-6.406-5.194-11.6-11.6-11.6s-11.6 5.194-11.6 11.6c0 6.406 5.194 11.6 11.6 11.6s11.6-5.194 11.6-11.6zM725.887 559.407c0-6.127-4.967-11.094-11.094-11.094s-11.094 4.967-11.094 11.094c0 6.127 4.967 11.094 11.094 11.094s11.094-4.967 11.094-11.094zM752.759 559.407c0-6.333-5.135-11.468-11.468-11.468s-11.468 5.135-11.468 11.468c0 6.333 5.135 11.468 11.468 11.468s11.468-5.135 11.468-11.468zM780.1 559.407c0-6.821-5.529-12.348-12.348-12.348s-12.348 5.529-12.348 12.348c0 6.821 5.529 12.348 12.348 12.348s12.348-5.529 12.348-12.348zM807.384 559.407c0-7.255-5.881-13.136-13.136-13.136s-13.136 5.881-13.136 13.136c0 7.255 5.881 13.136 13.136 13.136s13.136-5.881 13.136-13.136zM834.312 559.407c0-7.504-6.083-13.586-13.586-13.586s-13.586 6.083-13.586 13.586c0 7.504 6.083 13.586 13.586 13.586s13.586-6.083 13.586-13.586zM847.185 546.084c7.364 0 13.362 5.959 13.362 13.323s-5.997 13.341-13.362 13.341c-7.326 0-13.285-5.977-13.285-13.341s5.959-13.323 13.285-13.323zM885.824 559.407c0-6.706-5.437-12.143-12.143-12.143s-12.143 5.437-12.143 12.143c0 6.706 5.437 12.143 12.143 12.143s12.143-5.437 12.143-12.143zM910.185 559.407c0-5.547-4.497-10.044-10.044-10.044s-10.044 4.497-10.044 10.044c0 5.547 4.497 10.044 10.044 10.044s10.044-4.497 10.044-10.044zM926.6 552.379c3.916 0 7.065 3.148 7.065 7.027 0 3.898-3.148 7.047-7.065 7.047-3.842 0-7.027-3.148-7.027-7.047 0-3.878 3.186-7.027 7.027-7.027zM85.856 532.928c0-3.581-2.903-6.484-6.484-6.484s-6.484 2.903-6.484 6.484c0 3.581 2.903 6.484 6.484 6.484s6.484-2.903 6.484-6.484zM115.914 532.928c0-5.558-4.505-10.062-10.062-10.062s-10.062 4.505-10.062 10.062c0 5.558 4.505 10.062 10.062 10.062s10.062-4.505 10.062-10.062zM145.333 532.928c0-7.182-5.822-13.006-13.006-13.006s-13.006 5.822-13.006 13.006c0 7.182 5.822 13.006 13.006 13.006s13.006-5.822 13.006-13.006zM173.611 532.928c0-8.185-6.636-14.823-14.823-14.823s-14.823 6.636-14.823 14.823c0 8.185 6.636 14.823 14.823 14.823s14.823-6.636 14.823-14.823zM200.314 532.928c0-8.31-6.736-15.048-15.048-15.048s-15.048 6.736-15.048 15.048c0 8.31 6.736 15.048 15.048 15.048s15.048-6.736 15.048-15.048zM225.855 532.928c0-7.794-6.318-14.111-14.111-14.111s-14.111 6.318-14.111 14.111c0 7.794 6.318 14.111 14.111 14.111s14.111-6.318 14.111-14.111zM250.684 532.928c0-6.882-5.579-12.461-12.461-12.461s-12.461 5.579-12.461 12.461c0 6.882 5.579 12.461 12.461 12.461s12.461-5.579 12.461-12.461zM275.439 532.928c0-5.931-4.807-10.738-10.738-10.738s-10.738 4.807-10.738 10.738c0 5.931 4.807 10.738 10.738 10.738s10.738-4.807 10.738-10.738zM301.11 532.928c0-5.485-4.447-9.932-9.932-9.932s-9.932 4.447-9.932 9.932c0 5.485 4.447 9.932 9.932 9.932s9.932-4.447 9.932-9.932zM328.563 532.928c0-6.023-4.882-10.907-10.907-10.907s-10.907 4.882-10.907 10.907c0 6.023 4.882 10.907 10.907 10.907s10.907-4.882 10.907-10.907zM357.122 532.928c0-7.182-5.822-13.006-13.006-13.006s-13.006 5.822-13.006 13.006c0 7.182 5.822 13.006 13.006 13.006s13.006-5.822 13.006-13.006zM385.043 532.928c0-7.969-6.46-14.429-14.429-14.429s-14.429 6.46-14.429 14.429c0 7.969 6.46 14.429 14.429 14.429s14.429-6.46 14.429-14.429zM411.465 532.928c0-7.939-6.434-14.373-14.373-14.373s-14.373 6.434-14.373 14.373c0 7.939 6.434 14.373 14.373 14.373s14.373-6.434 14.373-14.373zM436.258 532.928c0-7.016-5.688-12.705-12.705-12.705s-12.705 5.688-12.705 12.705c0 7.016 5.688 12.705 12.705 12.705s12.705-5.688 12.705-12.705zM460.038 532.928c0-5.517-4.471-9.988-9.988-9.988s-9.988 4.471-9.988 9.988c0 5.517 4.471 9.988 9.988 9.988s9.988-4.471 9.988-9.988zM484.304 532.928c0-4.295-3.482-7.776-7.776-7.776s-7.776 3.482-7.776 7.776c0 4.295 3.482 7.776 7.776 7.776s7.776-3.482 7.776-7.776zM510.82 532.928c0-4.325-3.507-7.833-7.833-7.833s-7.833 3.507-7.833 7.833c0 4.325 3.507 7.833 7.833 7.833s7.833-3.507 7.833-7.833zM538.91 532.928c0-5.206-4.22-9.425-9.425-9.425s-9.425 4.22-9.425 9.425c0 5.206 4.22 9.425 9.425 9.425s9.425-4.22 9.425-9.425zM567.843 532.928c0-6.561-5.318-11.88-11.88-11.88s-11.88 5.318-11.88 11.88c0 6.561 5.318 11.88 11.88 11.88s11.88-5.318 11.88-11.88zM673.249 532.928c0-6.302-5.109-11.411-11.411-11.411s-11.411 5.109-11.411 11.411c0 6.302 5.109 11.411 11.411 11.411s11.411-5.109 11.411-11.411zM698.941 532.928c0-5.858-4.748-10.607-10.607-10.607s-10.607 4.748-10.607 10.607c0 5.858 4.748 10.607 10.607 10.607s10.607-4.748 10.607-10.607zM725.288 532.928c0-5.796-4.698-10.495-10.495-10.495s-10.495 4.698-10.495 10.495c0 5.796 4.698 10.495 10.495 10.495s10.495-4.698 10.495-10.495zM753.059 532.928c0-6.5-5.269-11.767-11.767-11.767s-11.767 5.269-11.767 11.767c0 6.5 5.269 11.767 11.767 11.767s11.767-5.269 11.767-11.767zM781.185 532.928c0-7.42-6.016-13.436-13.436-13.436s-13.436 6.016-13.436 13.436c0 7.42 6.016 13.436 13.436 13.436s13.436-6.016 13.436-13.436zM808.733 532.928c0-8-6.486-14.485-14.485-14.485s-14.485 6.486-14.485 14.485c0 8 6.486 14.485 14.485 14.485s14.485-6.486 14.485-14.485zM835.417 532.928c0-8.114-6.578-14.691-14.691-14.691s-14.691 6.578-14.691 14.691c0 8.114 6.578 14.691 14.691 14.691s14.691-6.578 14.691-14.691zM861.051 532.928c0-7.659-6.209-13.866-13.866-13.866s-13.866 6.209-13.866 13.866c0 7.659 6.209 13.866 13.866 13.866s13.866-6.209 13.866-13.866zM885.412 532.928c0-6.478-5.251-11.731-11.731-11.731s-11.731 5.251-11.731 11.731c0 6.478 5.251 11.731 11.731 11.731s11.731-5.251 11.731-11.731zM908.892 532.928c0-4.833-3.918-8.752-8.752-8.752s-8.752 3.918-8.752 8.752c0 4.833 3.918 8.752 8.752 8.752s8.752-3.918 8.752-8.752zM932.203 532.928c0-3.095-2.508-5.603-5.603-5.603s-5.603 2.508-5.603 5.603c0 3.095 2.508 5.603 5.603 5.603s5.603-2.508 5.603-5.603zM82.764 506.45c0-1.873-1.519-3.392-3.392-3.392s-3.392 1.519-3.392 3.392c0 1.873 1.519 3.392 3.392 3.392s3.392-1.519 3.392-3.392zM112.766 506.45c0-3.819-3.097-6.914-6.914-6.914s-6.914 3.097-6.914 6.914c0 3.819 3.097 6.914 6.914 6.914s6.914-3.097 6.914-6.914zM143.422 506.45c0-6.127-4.967-11.094-11.094-11.094s-11.094 4.967-11.094 11.094c0 6.127 4.967 11.094 11.094 11.094s11.094-4.967 11.094-11.094zM172.674 506.45c0-7.669-6.217-13.886-13.886-13.886s-13.886 6.217-13.886 13.886c0 7.669 6.217 13.886 13.886 13.886s13.886-6.217 13.886-13.886zM199.32 506.45c0-7.761-6.292-14.055-14.055-14.055s-14.055 6.292-14.055 14.055c0 7.761 6.292 14.055 14.055 14.055s14.055-6.292 14.055-14.055zM223.719 506.45c0-6.612-5.362-11.974-11.974-11.974s-11.974 5.362-11.974 11.974c0 6.612 5.362 11.974 11.974 11.974s11.974-5.362 11.974-11.974zM247.424 506.45c0-5.082-4.12-9.201-9.201-9.201s-9.201 4.12-9.201 9.201c0 5.082 4.12 9.201 9.201 9.201s9.201-4.12 9.201-9.201zM272.347 506.45c0-4.223-3.423-7.646-7.646-7.646s-7.646 3.423-7.646 7.646c0 4.223 3.423 7.646 7.646 7.646s7.646-3.423 7.646-7.646zM299.687 506.45c0-4.699-3.81-8.508-8.508-8.508s-8.508 3.81-8.508 8.508c0 4.699 3.81 8.508 8.508 8.508s8.508-3.81 8.508-8.508zM328.807 506.45c0-6.157-4.993-11.15-11.15-11.15s-11.15 4.993-11.15 11.15c0 6.157 4.993 11.15 11.15 11.15s11.15-4.993 11.15-11.15zM357.928 506.45c0-7.627-6.183-13.81-13.81-13.81s-13.81 6.183-13.81 13.81c0 7.627 6.183 13.81 13.81 13.81s13.81-6.183 13.81-13.81zM385.606 506.47c0-8.279-6.712-14.992-14.992-14.992s-14.992 6.712-14.992 14.992c0 8.279 6.712 14.992 14.992 14.992s14.992-6.712 14.992-14.992zM412.009 506.45c0-8.238-6.679-14.916-14.916-14.916s-14.916 6.679-14.916 14.916c0 8.238 6.679 14.916 14.916 14.916s14.916-6.679 14.916-14.916zM437.195 506.47c0-7.535-6.108-13.642-13.642-13.642s-13.642 6.108-13.642 13.642c0 7.535 6.108 13.642 13.642 13.642s13.642-6.108 13.642-13.642zM460.58 506.45c0-5.817-4.715-10.531-10.531-10.531s-10.531 4.715-10.531 10.531c0 5.817 4.715 10.531 10.531 10.531s10.531-4.715 10.531-10.531zM483.385 506.45c0-3.789-3.071-6.858-6.858-6.858s-6.858 3.071-6.858 6.858c0 3.789 3.071 6.858 6.858 6.858s6.858-3.071 6.858-6.858zM508.158 506.47c0-2.856-2.316-5.172-5.172-5.172s-5.172 2.316-5.172 5.172c0 2.856 2.316 5.172 5.172 5.172s5.172-2.316 5.172-5.172zM536.266 506.47c0-3.746-3.037-6.783-6.783-6.783s-6.783 3.037-6.783 6.783c0 3.746 3.037 6.783 6.783 6.783s6.783-3.037 6.783-6.783zM566.381 506.45c0-5.753-4.665-10.418-10.418-10.418s-10.418 4.665-10.418 10.418c0 5.753 4.665 10.418 10.418 10.418s10.418-4.665 10.418-10.418zM661.838 496.894c5.265 0 9.594 4.291 9.594 9.576 0 5.265-4.31 9.538-9.594 9.538-5.228 0-9.52-4.272-9.52-9.538 0-5.304 4.291-9.576 9.52-9.576zM695.606 506.45c0-4.015-3.255-7.27-7.27-7.27s-7.27 3.255-7.27 7.27c0 4.015 3.255 7.27 7.27 7.27s7.27-3.255 7.27-7.27zM722.309 506.45c0-4.15-3.364-7.515-7.515-7.515s-7.515 3.364-7.515 7.515c0 4.15 3.364 7.515 7.515 7.515s7.515-3.364 7.515-7.515zM751.222 506.45c0-5.485-4.447-9.932-9.932-9.932s-9.932 4.447-9.932 9.932c0 5.485 4.447 9.932 9.932 9.932s9.932-4.447 9.932-9.932zM780.568 506.45c0-7.080-5.739-12.817-12.817-12.817s-12.817 5.739-12.817 12.817c0 7.080 5.739 12.817 12.817 12.817s12.817-5.739 12.817-12.817zM808.807 506.45c0-8.041-6.519-14.56-14.56-14.56s-14.56 6.519-14.56 14.56c0 8.041 6.519 14.56 14.56 14.56s14.56-6.519 14.56-14.56zM835.641 506.45c0-8.238-6.679-14.916-14.916-14.916s-14.916 6.679-14.916 14.916c0 8.238 6.679 14.916 14.916 14.916s14.916-6.679 14.916-14.916zM861.202 506.45c0-7.741-6.276-14.017-14.017-14.017s-14.017 6.276-14.017 14.017c0 7.741 6.276 14.017 14.017 14.017s14.017-6.276 14.017-14.017zM882.921 506.45c0-5.103-4.135-9.238-9.238-9.238s-9.238 4.135-9.238 9.238c0 5.103 4.135 9.238 9.238 9.238s9.238-4.135 9.238-9.238zM906.793 506.45c0-3.674-2.978-6.653-6.653-6.653s-6.653 2.978-6.653 6.653c0 3.674 2.978 6.653 6.653 6.653s6.653-2.978 6.653-6.653zM930.685 506.47c0-2.257-1.829-4.085-4.085-4.085s-4.085 1.829-4.085 4.085c0 2.257 1.829 4.085 4.085 4.085s4.085-1.829 4.085-4.085zM81.321 479.99c0-1.077-0.873-1.948-1.948-1.948s-1.948 0.873-1.948 1.948c0 1.077 0.873 1.948 1.948 1.948s1.948-0.873 1.948-1.948zM110.667 479.972c0-2.66-2.157-4.815-4.815-4.815s-4.815 2.157-4.815 4.815c0 2.66 2.157 4.815 4.815 4.815s4.815-2.157 4.815-4.815zM141.699 479.972c0-5.174-4.195-9.369-9.369-9.369s-9.369 4.195-9.369 9.369c0 5.174 4.195 9.369 9.369 9.369s9.369-4.195 9.369-9.369zM171.55 479.99c0-7.047-5.713-12.76-12.76-12.76s-12.76 5.713-12.76 12.76c0 7.047 5.713 12.76 12.76 12.76s12.76-5.713 12.76-12.76zM197.841 479.972c0-6.945-5.63-12.573-12.573-12.573s-12.573 5.63-12.573 12.573c0 6.945 5.63 12.573 12.573 12.573s12.573-5.63 12.573-12.573zM221.058 479.972c0-5.143-4.169-9.312-9.312-9.312s-9.312 4.169-9.312 9.312c0 5.143 4.169 9.312 9.312 9.312s9.312-4.169 9.312-9.312zM244.032 479.972c0-3.208-2.601-5.808-5.808-5.808s-5.808 2.601-5.808 5.808c0 3.208 2.601 5.808 5.808 5.808s5.808-2.601 5.808-5.808zM269.649 479.99c0-2.732-2.215-4.948-4.948-4.948s-4.948 2.215-4.948 4.948c0 2.732 2.215 4.948 4.948 4.948s4.948-2.215 4.948-4.948zM298.637 479.972c0-4.119-3.34-7.459-7.459-7.459s-7.459 3.34-7.459 7.459c0 4.119 3.34 7.459 7.459 7.459s7.459-3.34 7.459-7.459zM328.883 479.99c0-6.199-5.026-11.224-11.224-11.224s-11.224 5.026-11.224 11.224c0 6.199 5.026 11.224 11.224 11.224s11.224-5.026 11.224-11.224zM358.228 479.972c0-7.794-6.318-14.111-14.111-14.111s-14.111 6.318-14.111 14.111c0 7.794 6.318 14.111 14.111 14.111s14.111-6.318 14.111-14.111zM385.718 479.972c0-8.341-6.762-15.104-15.104-15.104s-15.104 6.762-15.104 15.104c0 8.341 6.762 15.104 15.104 15.104s15.104-6.762 15.104-15.104zM412.197 479.972c0-8.341-6.762-15.104-15.104-15.104s-15.104 6.762-15.104 15.104c0 8.341 6.762 15.104 15.104 15.104s15.104-6.762 15.104-15.104zM437.663 479.972c0-7.794-6.318-14.111-14.111-14.111s-14.111 6.318-14.111 14.111c0 7.794 6.318 14.111 14.111 14.111s14.111-6.318 14.111-14.111zM461.274 479.99c0-6.199-5.026-11.224-11.224-11.224s-11.224 5.026-11.224 11.224c0 6.199 5.026 11.224 11.224 11.224s11.224-5.026 11.224-11.224zM483.498 479.99c0-3.85-3.12-6.97-6.97-6.97s-6.97 3.12-6.97 6.97c0 3.85 3.12 6.97 6.97 6.97s6.97-3.12 6.97-6.97zM506.94 479.99c0-2.183-1.77-3.955-3.955-3.955s-3.955 1.77-3.955 3.955c0 2.183 1.77 3.955 3.955 3.955s3.955-1.77 3.955-3.955zM534.167 479.972c0-2.587-2.097-4.684-4.684-4.684s-4.684 2.097-4.684 4.684c0 2.587 2.097 4.684 4.684 4.684s4.684-2.097 4.684-4.684zM564.525 479.99c0-4.729-3.833-8.565-8.565-8.565s-8.565 3.833-8.565 8.565c0 4.729 3.833 8.565 8.565 8.565s8.565-3.833 8.565-8.565zM668.696 479.972c0-3.789-3.071-6.858-6.858-6.858s-6.858 3.071-6.858 6.858c0 3.789 3.071 6.858 6.858 6.858s6.858-3.071 6.858-6.858zM692.401 479.972c0-2.246-1.821-4.067-4.067-4.067s-4.067 1.821-4.067 4.067c0 2.246 1.821 4.067 4.067 4.067s4.067-1.821 4.067-4.067zM719.365 479.972c0-2.526-2.048-4.572-4.572-4.572s-4.572 2.048-4.572 4.572c0 2.526 2.048 4.572 4.572 4.572s4.572-2.048 4.572-4.572zM749.18 479.972c0-4.358-3.532-7.889-7.889-7.889s-7.889 3.532-7.889 7.889c0 4.358 3.532 7.889 7.889 7.889s7.889-3.532 7.889-7.889zM779.593 479.99c0-6.541-5.303-11.844-11.844-11.844s-11.844 5.303-11.844 11.844c0 6.541 5.303 11.844 11.844 11.844s11.844-5.303 11.844-11.844zM808.546 479.972c0-7.896-6.401-14.298-14.298-14.298s-14.298 6.401-14.298 14.298c0 7.896 6.401 14.298 14.298 14.298s14.298-6.401 14.298-14.298zM835.753 479.972c0-8.3-6.729-15.028-15.028-15.028s-15.028 6.729-15.028 15.028c0 8.3 6.729 15.028 15.028 15.028s15.028-6.729 15.028-15.028zM861.726 479.972c0-8.030-6.511-14.542-14.542-14.542s-14.542 6.511-14.542 14.542c0 8.030 6.511 14.542 14.542 14.542s14.542-6.511 14.542-14.542zM886.517 479.99c0-7.090-5.747-12.837-12.837-12.837s-12.837 5.747-12.837 12.837c0 7.090 5.747 12.837 12.837 12.837s12.837-5.747 12.837-12.837zM910.448 479.99c0-5.692-4.614-10.306-10.306-10.306s-10.306 4.614-10.306 10.306c0 5.692 4.614 10.306 10.306 10.306s10.306-4.614 10.306-10.306zM933.534 479.972c0-3.83-3.105-6.934-6.934-6.934s-6.934 3.105-6.934 6.934c0 3.83 3.105 6.934 6.934 6.934s6.934-3.105 6.934-6.934zM109.561 453.512c0-2.048-1.661-3.71-3.71-3.71s-3.71 1.661-3.71 3.71c0 2.048 1.661 3.71 3.71 3.71s3.71-1.661 3.71-3.71zM140.575 453.512c0-4.554-3.691-8.245-8.245-8.245s-8.245 3.691-8.245 8.245c0 4.554 3.691 8.245 8.245 8.245s8.245-3.691 8.245-8.245zM170.5 453.512c0-6.468-5.243-11.711-11.711-11.711s-11.711 5.243-11.711 11.711c0 6.468 5.243 11.711 11.711 11.711s11.711-5.243 11.711-11.711zM196.416 453.494c0-6.157-4.993-11.15-11.15-11.15s-11.15 4.993-11.15 11.15c0 6.157 4.993 11.15 11.15 11.15s11.15-4.993 11.15-11.15zM218.959 453.512c0-3.985-3.231-7.214-7.214-7.214s-7.214 3.231-7.214 7.214c0 3.985 3.231 7.214 7.214 7.214s7.214-3.231 7.214-7.214zM241.934 453.512c0-2.048-1.661-3.71-3.71-3.71s-3.71 1.661-3.71 3.71c0 2.048 1.661 3.71 3.71 3.71s3.71-1.661 3.71-3.71zM268.543 453.494c0-2.122-1.72-3.842-3.842-3.842s-3.842 1.72-3.842 3.842c0 2.122 1.72 3.842 3.842 3.842s3.842-1.72 3.842-3.842zM298.712 453.494c0-4.16-3.373-7.533-7.533-7.533s-7.533 3.373-7.533 7.533c0 4.16 3.373 7.533 7.533 7.533s7.533-3.373 7.533-7.533zM329.313 453.512c0-6.437-5.218-11.656-11.656-11.656s-11.656 5.218-11.656 11.656c0 6.437 5.218 11.656 11.656 11.656s11.656-5.218 11.656-11.656zM358.49 453.512c0-7.939-6.434-14.373-14.373-14.373s-14.373 6.434-14.373 14.373c0 7.939 6.434 14.373 14.373 14.373s14.373-6.434 14.373-14.373zM385.793 453.512c0-8.383-6.796-15.179-15.179-15.179s-15.179 6.796-15.179 15.179c0 8.383 6.796 15.179 15.179 15.179s15.179-6.796 15.179-15.179zM412.309 453.512c0-8.404-6.813-15.215-15.215-15.215s-15.215 6.813-15.215 15.215c0 8.404 6.813 15.215 15.215 15.215s15.215-6.813 15.215-15.215zM438.093 453.512c0-8.030-6.511-14.542-14.542-14.542s-14.542 6.511-14.542 14.542c0 8.030 6.511 14.542 14.542 14.542s14.542-6.511 14.542-14.542zM462.192 453.512c0-6.706-5.437-12.143-12.143-12.143s-12.143 5.437-12.143 12.143c0 6.706 5.437 12.143 12.143 12.143s12.143-5.437 12.143-12.143zM484.491 453.512c0-4.399-3.565-7.963-7.963-7.963s-7.963 3.565-7.963 7.963c0 4.399 3.565 7.963 7.963 7.963s7.963-3.565 7.963-7.963zM507.185 453.512c0-2.318-1.88-4.198-4.198-4.198s-4.198 1.88-4.198 4.198c0 2.318 1.88 4.198 4.198 4.198s4.198-1.88 4.198-4.198zM533.438 453.512c0-2.183-1.77-3.955-3.955-3.955s-3.955 1.77-3.955 3.955c0 2.183 1.77 3.955 3.955 3.955s3.955-1.77 3.955-3.955zM563.494 453.494c0-4.16-3.373-7.533-7.533-7.533s-7.533 3.373-7.533 7.533c0 4.16 3.373 7.533 7.533 7.533s7.533-3.373 7.533-7.533zM661.838 448.377c2.849 0 5.153 2.286 5.153 5.116 0 2.811-2.304 5.116-5.153 5.116-2.773 0-5.116-2.304-5.116-5.116 0-2.829 2.342-5.116 5.116-5.116zM690.62 453.512c0-1.263-1.023-2.286-2.286-2.286s-2.286 1.023-2.286 2.286c0 1.263 1.023 2.286 2.286 2.286s2.286-1.023 2.286-2.286zM717.699 453.494c0-1.604-1.3-2.905-2.905-2.905s-2.905 1.3-2.905 2.905c0 1.604 1.3 2.905 2.905 2.905s2.905-1.3 2.905-2.905zM747.83 453.494c0-3.611-2.929-6.54-6.54-6.54s-6.54 2.929-6.54 6.54c0 3.611 2.929 6.54 6.54 6.54s6.54-2.929 6.54-6.54zM778.787 453.512c0-6.096-4.941-11.037-11.037-11.037s-11.037 4.941-11.037 11.037c0 6.096 4.941 11.037 11.037 11.037s11.037-4.941 11.037-11.037zM808.301 453.512c0-7.761-6.292-14.055-14.055-14.055s-14.055 6.292-14.055 14.055c0 7.761 6.292 14.055 14.055 14.055s14.055-6.292 14.055-14.055zM835.83 453.512c0-8.341-6.762-15.104-15.104-15.104s-15.104 6.762-15.104 15.104c0 8.341 6.762 15.104 15.104 15.104s15.104-6.762 15.104-15.104zM862.157 453.494c0-8.269-6.703-14.972-14.972-14.972s-14.972 6.703-14.972 14.972c0 8.269 6.703 14.972 14.972 14.972s14.972-6.703 14.972-14.972zM887.68 453.512c0-7.73-6.266-13.999-13.999-13.999s-13.999 6.266-13.999 13.999c0 7.73 6.266 13.999 13.999 13.999s13.999-6.266 13.999-13.999zM912.115 453.512c0-6.612-5.362-11.974-11.974-11.974s-11.974 5.362-11.974 11.974c0 6.612 5.362 11.974 11.974 11.974s11.974-5.362 11.974-11.974zM935.165 453.494c0-4.729-3.833-8.565-8.565-8.565s-8.565 3.833-8.565 8.565c0 4.729 3.833 8.565 8.565 8.565s8.565-3.833 8.565-8.565zM108.942 427.016c0-1.708-1.384-3.092-3.092-3.092s-3.092 1.384-3.092 3.092c0 1.708 1.384 3.092 3.092 3.092s3.092-1.384 3.092-3.092zM139.73 427.016c0-4.089-3.314-7.403-7.403-7.403s-7.403 3.314-7.403 7.403c0 4.089 3.314 7.403 7.403 7.403s7.403-3.314 7.403-7.403zM169.582 427.016c0-5.962-4.833-10.794-10.794-10.794s-10.794 4.833-10.794 10.794c0 5.962 4.833 10.794 10.794 10.794s10.794-4.833 10.794-10.794zM195.33 427.016c0-5.558-4.505-10.062-10.062-10.062s-10.062 4.505-10.062 10.062c0 5.558 4.505 10.062 10.062 10.062s10.062-4.505 10.062-10.062zM217.722 427.016c0-3.301-2.676-5.977-5.977-5.977s-5.977 2.676-5.977 5.977c0 3.301 2.676 5.977 5.977 5.977s5.977-2.676 5.977-5.977zM241.259 427.016c0-1.677-1.359-3.036-3.036-3.036s-3.036 1.359-3.036 3.036c0 1.677 1.359 3.036 3.036 3.036s3.036-1.359 3.036-3.036zM268.73 427.016c0-2.226-1.803-4.029-4.029-4.029s-4.029 1.803-4.029 4.029c0 2.226 1.803 4.029 4.029 4.029s4.029-1.803 4.029-4.029zM299.387 427.016c0-4.533-3.675-8.207-8.207-8.207s-8.207 3.675-8.207 8.207c0 4.533 3.675 8.207 8.207 8.207s8.207-3.675 8.207-8.207zM329.856 427.016c0-6.737-5.462-12.199-12.199-12.199s-12.199 5.462-12.199 12.199c0 6.737 5.462 12.199 12.199 12.199s12.199-5.462 12.199-12.199zM358.658 427.016c0-8.030-6.511-14.542-14.542-14.542s-14.542 6.511-14.542 14.542c0 8.030 6.511 14.542 14.542 14.542s14.542-6.511 14.542-14.542zM385.793 426.996c0-8.383-6.796-15.179-15.179-15.179s-15.179 6.796-15.179 15.179c0 8.383 6.796 15.179 15.179 15.179s15.179-6.796 15.179-15.179zM412.327 426.996c0-8.414-6.821-15.235-15.235-15.235s-15.235 6.821-15.235 15.235c0 8.414 6.821 15.235 15.235 15.235s15.235-6.821 15.235-15.235zM438.356 427.016c0-8.175-6.628-14.803-14.803-14.803s-14.803 6.628-14.803 14.803c0 8.175 6.628 14.803 14.803 14.803s14.803-6.628 14.803-14.803zM463.073 427.016c0-7.192-5.831-13.024-13.024-13.024s-13.024 5.831-13.024 13.024c0 7.192 5.831 13.024 13.024 13.024s13.024-5.831 13.024-13.024zM485.784 427.034c0-5.113-4.145-9.256-9.256-9.256s-9.256 4.145-9.256 9.256c0 5.113 4.145 9.256 9.256 9.256s9.256-4.145 9.256-9.256zM508.102 427.016c0-2.826-2.291-5.116-5.116-5.116s-5.116 2.291-5.116 5.116c0 2.826 2.291 5.116 5.116 5.116s5.116-2.291 5.116-5.116zM533.512 427.016c0-2.226-1.803-4.029-4.029-4.029s-4.029 1.803-4.029 4.029c0 2.226 1.803 4.029 4.029 4.029s4.029-1.803 4.029-4.029zM562.989 427.034c0-3.881-3.146-7.027-7.027-7.027s-7.027 3.146-7.027 7.027c0 3.881 3.146 7.027 7.027 7.027s7.027-3.146 7.027-7.027zM666.034 427.016c0-2.318-1.88-4.198-4.198-4.198s-4.198 1.88-4.198 4.198c0 2.318 1.88 4.198 4.198 4.198s4.198-1.88 4.198-4.198zM689.89 427.016c0-0.859-0.697-1.556-1.556-1.556s-1.556 0.697-1.556 1.556c0 0.859 0.697 1.556 1.556 1.556s1.556-0.697 1.556-1.556zM716.967 427.016c0-1.2-0.974-2.173-2.173-2.173s-2.173 0.974-2.173 2.173c0 1.2 0.974 2.173 2.173 2.173s2.173-0.974 2.173-2.173zM747.025 427.016c0-3.166-2.567-5.734-5.734-5.734s-5.734 2.567-5.734 5.734c0 3.166 2.567 5.734 5.734 5.734s5.734-2.567 5.734-5.734zM778.244 427.016c0-5.796-4.698-10.495-10.495-10.495s-10.495 4.698-10.495 10.495c0 5.796 4.698 10.495 10.495 10.495s10.495-4.698 10.495-10.495zM808.057 427.034c0-7.627-6.183-13.81-13.81-13.81s-13.81 6.183-13.81 13.81c0 7.627 6.183 13.81 13.81 13.81s13.81-6.183 13.81-13.81zM835.585 427.016c0-8.207-6.653-14.859-14.859-14.859s-14.859 6.653-14.859 14.859c0 8.207 6.653 14.859 14.859 14.859s14.859-6.653 14.859-14.859zM861.688 427.016c0-8.010-6.493-14.503-14.503-14.503s-14.503 6.493-14.503 14.503c0 8.010 6.493 14.503 14.503 14.503s14.503-6.493 14.503-14.503zM886.705 427.016c0-7.192-5.831-13.024-13.024-13.024s-13.024 5.831-13.024 13.024c0 7.192 5.831 13.024 13.024 13.024s13.024-5.831 13.024-13.024zM911.010 427.016c0-6.002-4.866-10.869-10.869-10.869s-10.869 4.866-10.869 10.869c0 6.002 4.866 10.869 10.869 10.869s10.869-4.866 10.869-10.869zM934.209 427.016c0-4.201-3.407-7.608-7.608-7.608s-7.608 3.407-7.608 7.608c0 4.201 3.407 7.608 7.608 7.608s7.608-3.407 7.608-7.608zM108.381 400.537c0-1.398-1.133-2.529-2.529-2.529s-2.529 1.133-2.529 2.529c0 1.398 1.133 2.529 2.529 2.529s2.529-1.133 2.529-2.529zM138.813 400.537c0-3.581-2.903-6.484-6.484-6.484s-6.484 2.903-6.484 6.484c0 3.581 2.903 6.484 6.484 6.484s6.484-2.903 6.484-6.484zM168.532 400.537c0-5.382-4.363-9.745-9.745-9.745s-9.745 4.363-9.745 9.745c0 5.382 4.363 9.745 9.745 9.745s9.745-4.363 9.745-9.745zM194.206 400.537c0-4.937-4.001-8.939-8.939-8.939s-8.939 4.001-8.939 8.939c0 4.937 4.001 8.939 8.939 8.939s8.939-4.001 8.939-8.939zM216.842 400.537c0-2.816-2.282-5.097-5.097-5.097s-5.097 2.282-5.097 5.097c0 2.816 2.282 5.097 5.097 5.097s5.097-2.282 5.097-5.097zM240.996 400.537c0-1.532-1.242-2.773-2.773-2.773s-2.773 1.242-2.773 2.773c0 1.532 1.242 2.773 2.773 2.773s2.773-1.242 2.773-2.773zM269.142 400.537c0-2.452-1.989-4.441-4.441-4.441s-4.441 1.989-4.441 4.441c0 2.452 1.989 4.441 4.441 4.441s4.441-1.989 4.441-4.441zM299.93 400.537c0-4.833-3.918-8.752-8.752-8.752s-8.752 3.918-8.752 8.752c0 4.833 3.918 8.752 8.752 8.752s8.752-3.918 8.752-8.752zM330.119 400.537c0-6.882-5.579-12.461-12.461-12.461s-12.461 5.579-12.461 12.461c0 6.882 5.579 12.461 12.461 12.461s12.461-5.579 12.461-12.461zM358.546 400.518c0-7.969-6.46-14.429-14.429-14.429s-14.429 6.46-14.429 14.429c0 7.969 6.46 14.429 14.429 14.429s14.429-6.46 14.429-14.429zM385.586 400.537c0-8.269-6.703-14.972-14.972-14.972s-14.972 6.703-14.972 14.972c0 8.269 6.703 14.972 14.972 14.972s14.972-6.703 14.972-14.972zM412.215 400.537c0-8.353-6.77-15.123-15.123-15.123s-15.123 6.77-15.123 15.123c0 8.353 6.77 15.123 15.123 15.123s15.123-6.77 15.123-15.123zM438.467 400.518c0-8.238-6.679-14.916-14.916-14.916s-14.916 6.679-14.916 14.916c0 8.238 6.679 14.916 14.916 14.916s14.916-6.679 14.916-14.916zM463.729 400.518c0-7.555-6.124-13.679-13.679-13.679s-13.679 6.124-13.679 13.679c0 7.555 6.124 13.679 13.679 13.679s13.679-6.124 13.679-13.679zM487.020 400.537c0-5.796-4.698-10.495-10.495-10.495s-10.495 4.698-10.495 10.495c0 5.796 4.698 10.495 10.495 10.495s10.495-4.698 10.495-10.495zM509.227 400.537c0-3.446-2.795-6.24-6.24-6.24s-6.24 2.795-6.24 6.24c0 3.446 2.795 6.24 6.24 6.24s6.24-2.795 6.24-6.24zM533.812 400.537c0-2.391-1.937-4.329-4.329-4.329s-4.329 1.937-4.329 4.329c0 2.391 1.937 4.329 4.329 4.329s4.329-1.937 4.329-4.329zM562.613 400.537c0-3.674-2.978-6.653-6.653-6.653s-6.653 2.978-6.653 6.653c0 3.674 2.978 6.653 6.653 6.653s6.653-2.978 6.653-6.653zM665.473 400.518c0-2.008-1.627-3.635-3.635-3.635s-3.635 1.627-3.635 3.635c0 2.008 1.627 3.635 3.635 3.635s3.635-1.627 3.635-3.635zM689.496 400.518c0-0.642-0.519-1.162-1.162-1.162s-1.162 0.519-1.162 1.162c0 0.642 0.519 1.162 1.162 1.162s1.162-0.519 1.162-1.162zM716.537 400.518c0-0.963-0.78-1.743-1.743-1.743s-1.743 0.78-1.743 1.743c0 0.963 0.78 1.743 1.743 1.743s1.743-0.78 1.743-1.743zM746.388 400.537c0-2.816-2.282-5.097-5.097-5.097s-5.097 2.282-5.097 5.097c0 2.816 2.282 5.097 5.097 5.097s5.097-2.282 5.097-5.097zM777.607 400.518c0-5.443-4.413-9.857-9.857-9.857s-9.857 4.413-9.857 9.857c0 5.443 4.413 9.857 9.857 9.857s9.857-4.413 9.857-9.857zM807.701 400.537c0-7.431-6.023-13.454-13.454-13.454s-13.454 6.023-13.454 13.454c0 7.431 6.023 13.454 13.454 13.454s13.454-6.023 13.454-13.454zM835.154 400.518c0-7.969-6.46-14.429-14.429-14.429s-14.429 6.46-14.429 14.429c0 7.969 6.46 14.429 14.429 14.429s14.429-6.46 14.429-14.429zM860.434 400.537c0-7.316-5.931-13.249-13.249-13.249s-13.249 5.931-13.249 13.249c0 7.316 5.931 13.249 13.249 13.249s13.249-5.931 13.249-13.249zM884.344 400.537c0-5.888-4.773-10.662-10.662-10.662s-10.662 4.773-10.662 10.662c0 5.888 4.773 10.662 10.662 10.662s10.662-4.773 10.662-10.662zM907.974 400.537c0-4.325-3.507-7.833-7.833-7.833s-7.833 3.507-7.833 7.833c0 4.325 3.507 7.833 7.833 7.833s7.833-3.507 7.833-7.833zM926.6 395.571c2.773 0 5.022 2.23 5.022 4.966 0 2.754-2.23 4.984-5.022 4.984-2.717 0-4.948-2.212-4.948-4.984 0-2.736 2.23-4.966 4.948-4.966zM107.818 374.058c0-1.087-0.881-1.968-1.968-1.968s-1.968 0.881-1.968 1.968c0 1.087 0.881 1.968 1.968 1.968s1.968-0.881 1.968-1.968zM137.708 374.079c0-2.971-2.407-5.378-5.378-5.378s-5.378 2.407-5.378 5.378c0 2.971 2.407 5.378 5.378 5.378s5.378-2.407 5.378-5.378zM167.052 374.058c0-4.564-3.699-8.263-8.263-8.263s-8.263 3.699-8.263 8.263c0 4.564 3.699 8.263 8.263 8.263s8.263-3.699 8.263-8.263zM192.8 374.079c0-4.16-3.373-7.533-7.533-7.533s-7.533 3.373-7.533 7.533c0 4.16 3.373 7.533 7.533 7.533s7.533-3.373 7.533-7.533zM215.999 374.058c0-2.349-1.904-4.254-4.254-4.254s-4.254 1.904-4.254 4.254c0 2.349 1.904 4.254 4.254 4.254s4.254-1.904 4.254-4.254zM240.829 374.040c0-1.438-1.166-2.606-2.606-2.606s-2.606 1.166-2.606 2.606c0 1.438 1.166 2.606 2.606 2.606s2.606-1.166 2.606-2.606zM269.274 374.079c0-2.526-2.048-4.572-4.572-4.572s-4.572 2.048-4.572 4.572c0 2.526 2.048 4.572 4.572 4.572s4.572-2.048 4.572-4.572zM299.761 374.058c0-4.739-3.843-8.583-8.583-8.583s-8.583 3.843-8.583 8.583c0 4.739 3.843 8.583 8.583 8.583s8.583-3.843 8.583-8.583zM329.369 374.079c0-6.468-5.243-11.711-11.711-11.711s-11.711 5.243-11.711 11.711c0 6.468 5.243 11.711 11.711 11.711s11.711-5.243 11.711-11.711zM357.385 374.079c0-7.327-5.941-13.267-13.267-13.267s-13.267 5.941-13.267 13.267c0 7.327 5.941 13.267 13.267 13.267s13.267-5.941 13.267-13.267zM384.368 374.079c0-7.596-6.158-13.754-13.754-13.754s-13.754 6.158-13.754 13.754c0 7.596 6.158 13.754 13.754 13.754s13.754-6.158 13.754-13.754zM411.334 374.079c0-7.865-6.377-14.242-14.242-14.242s-14.242 6.377-14.242 14.242c0 7.865 6.377 14.242 14.242 14.242s14.242-6.377 14.242-14.242zM438.111 374.058c0-8.041-6.519-14.56-14.56-14.56s-14.56 6.519-14.56 14.56c0 8.041 6.519 14.56 14.56 14.56s14.56-6.519 14.56-14.56zM464.046 374.058c0-7.73-6.266-13.999-13.999-13.999s-13.999 6.266-13.999 13.999c0 7.73 6.266 13.999 13.999 13.999s13.999-6.266 13.999-13.999zM487.882 374.079c0-6.272-5.083-11.355-11.355-11.355s-11.355 5.083-11.355 11.355c0 6.272 5.083 11.355 11.355 11.355s11.355-5.083 11.355-11.355zM510.144 374.058c0-3.954-3.205-7.159-7.159-7.159s-7.159 3.205-7.159 7.159c0 3.954 3.205 7.159 7.159 7.159s7.159-3.205 7.159-7.159zM534.056 374.079c0-2.526-2.048-4.572-4.572-4.572s-4.572 2.048-4.572 4.572c0 2.526 2.048 4.572 4.572 4.572s4.572-2.048 4.572-4.572zM562.258 374.058c0-3.477-2.818-6.297-6.297-6.297s-6.297 2.818-6.297 6.297c0 3.477 2.818 6.297 6.297 6.297s6.297-2.818 6.297-6.297zM665.023 374.058c0-1.759-1.426-3.186-3.186-3.186s-3.186 1.426-3.186 3.186c0 1.759 1.426 3.186 3.186 3.186s3.186-1.426 3.186-3.186zM745.732 374.058c0-2.452-1.989-4.441-4.441-4.441s-4.441 1.989-4.441 4.441c0 2.452 1.989 4.441 4.441 4.441s4.441-1.989 4.441-4.441zM776.877 374.079c0-5.039-4.086-9.126-9.126-9.126s-9.126 4.086-9.126 9.126c0 5.039 4.086 9.126 9.126 9.126s9.126-4.086 9.126-9.126zM807.14 374.058c0-7.12-5.773-12.893-12.893-12.893s-12.893 5.773-12.893 12.893c0 7.12 5.773 12.893 12.893 12.893s12.893-5.773 12.893-12.893zM834.78 374.058c0-7.761-6.292-14.055-14.055-14.055s-14.055 6.292-14.055 14.055c0 7.761 6.292 14.055 14.055 14.055s14.055-6.292 14.055-14.055zM859.758 374.040c0-6.945-5.63-12.573-12.573-12.573s-12.573 5.63-12.573 12.573c0 6.945 5.63 12.573 12.573 12.573s12.573-5.63 12.573-12.573zM883.164 374.058c0-5.237-4.246-9.481-9.481-9.481s-9.481 4.246-9.481 9.481c0 5.237 4.246 9.481 9.481 9.481s9.481-4.246 9.481-9.481zM905.275 374.079c0-2.836-2.299-5.135-5.135-5.135s-5.135 2.299-5.135 5.135c0 2.836 2.299 5.135 5.135 5.135s5.135-2.299 5.135-5.135zM929.636 374.058c0-1.677-1.359-3.036-3.036-3.036s-3.036 1.359-3.036 3.036c0 1.677 1.359 3.036 3.036 3.036s3.036-1.359 3.036-3.036zM107.5 347.599c0-0.91-0.739-1.649-1.649-1.649s-1.649 0.739-1.649 1.649c0 0.91 0.739 1.649 1.649 1.649s1.649-0.739 1.649-1.649zM136.226 347.581c0-2.152-1.746-3.898-3.898-3.898s-3.898 1.746-3.898 3.898c0 2.152 1.746 3.898 3.898 3.898s3.898-1.746 3.898-3.898zM164.897 347.581c0-3.375-2.735-6.11-6.11-6.11s-6.11 2.735-6.11 6.11c0 3.375 2.735 6.11 6.11 6.11s6.11-2.735 6.11-6.11zM190.814 347.581c0-3.063-2.483-5.547-5.547-5.547s-5.547 2.483-5.547 5.547c0 3.063 2.483 5.547 5.547 5.547s5.547-2.483 5.547-5.547zM214.817 347.581c0-1.697-1.377-3.074-3.074-3.074s-3.074 1.377-3.074 3.074c0 1.697 1.377 3.074 3.074 3.074s3.074-1.377 3.074-3.074zM240.247 347.562c0-1.118-0.906-2.025-2.025-2.025s-2.025 0.906-2.025 2.025c0 1.118 0.906 2.025 2.025 2.025s2.025-0.906 2.025-2.025zM268.448 347.581c0-2.070-1.679-3.748-3.748-3.748s-3.748 1.679-3.748 3.748c0 2.070 1.679 3.748 3.748 3.748s3.748-1.679 3.748-3.748zM298.075 347.581c0-3.809-3.087-6.896-6.896-6.896s-6.896 3.087-6.896 6.896c0 3.809 3.087 6.896 6.896 6.896s6.896-3.087 6.896-6.896zM326.671 347.581c0-4.978-4.035-9.013-9.013-9.013s-9.013 4.035-9.013 9.013c0 4.978 4.035 9.013 9.013 9.013s9.013-4.035 9.013-9.013zM354.049 347.581c0-5.485-4.447-9.932-9.932-9.932s-9.932 4.447-9.932 9.932c0 5.485 4.447 9.932 9.932 9.932s9.932-4.447 9.932-9.932zM381.109 347.599c0-5.796-4.698-10.495-10.495-10.495s-10.495 4.698-10.495 10.495c0 5.796 4.698 10.495 10.495 10.495s10.495-4.698 10.495-10.495zM408.692 347.581c0-6.406-5.194-11.6-11.6-11.6s-11.6 5.194-11.6 11.6c0 6.406 5.194 11.6 11.6 11.6s11.6-5.194 11.6-11.6zM436.425 347.581c0-7.11-5.764-12.873-12.873-12.873s-12.873 5.764-12.873 12.873c0 7.11 5.764 12.873 12.873 12.873s12.873-5.764 12.873-12.873zM463.317 347.581c0-7.327-5.941-13.267-13.267-13.267s-13.267 5.941-13.267 13.267c0 7.327 5.941 13.267 13.267 13.267s13.267-5.941 13.267-13.267zM487.921 347.599c0-6.292-5.101-11.393-11.393-11.393s-11.393 5.101-11.393 11.393c0 6.292 5.101 11.393 11.393 11.393s11.393-5.101 11.393-11.393zM510.444 347.581c0-4.119-3.34-7.459-7.459-7.459s-7.459 3.34-7.459 7.459c0 4.119 3.34 7.459 7.459 7.459s7.459-3.34 7.459-7.459zM533.962 347.581c0-2.473-2.005-4.479-4.479-4.479s-4.479 2.005-4.479 4.479c0 2.473 2.005 4.479 4.479 4.479s4.479-2.005 4.479-4.479zM561.377 347.581c0-2.991-2.425-5.416-5.416-5.416s-5.416 2.425-5.416 5.416c0 2.991 2.425 5.416 5.416 5.416s5.416-2.425 5.416-5.416zM664.423 347.581c0-1.428-1.157-2.585-2.585-2.585s-2.585 1.157-2.585 2.585c0 1.428 1.157 2.585 2.585 2.585s2.585-1.157 2.585-2.585zM744.739 347.562c0-1.904-1.544-3.448-3.448-3.448s-3.448 1.544-3.448 3.448c0 1.904 1.544 3.448 3.448 3.448s3.448-1.544 3.448-3.448zM775.527 347.581c0-4.295-3.482-7.776-7.776-7.776s-7.776 3.482-7.776 7.776c0 4.295 3.482 7.776 7.776 7.776s7.776-3.482 7.776-7.776zM806.091 347.581c0-6.541-5.303-11.844-11.844-11.844s-11.844 5.303-11.844 11.844c0 6.541 5.303 11.844 11.844 11.844s11.844-5.303 11.844-11.844zM834.348 347.581c0-7.524-6.099-13.623-13.623-13.623s-13.623 6.099-13.623 13.623c0 7.524 6.099 13.623 13.623 13.623s13.623-6.099 13.623-13.623zM860.19 347.581c0-7.182-5.822-13.006-13.006-13.006s-13.006 5.822-13.006 13.006c0 7.182 5.822 13.006 13.006 13.006s13.006-5.822 13.006-13.006zM884.362 347.581c0-5.898-4.782-10.682-10.682-10.682s-10.682 4.782-10.682 10.682c0 5.898 4.782 10.682 10.682 10.682s10.682-4.782 10.682-10.682zM908.237 347.599c0-4.47-3.624-8.096-8.096-8.096s-8.096 3.624-8.096 8.096c0 4.47 3.624 8.096 8.096 8.096s8.096-3.624 8.096-8.096zM931.942 347.581c0-2.95-2.392-5.34-5.34-5.34s-5.34 2.392-5.34 5.34c0 2.95 2.392 5.34 5.34 5.34s5.34-2.392 5.34-5.34zM134.559 321.103c0-1.232-0.999-2.23-2.23-2.23s-2.23 0.999-2.23 2.23c0 1.232 0.999 2.23 2.23 2.23s2.23-0.999 2.23-2.23zM162.481 321.121c0-2.038-1.653-3.691-3.691-3.691s-3.691 1.653-3.691 3.691c0 2.038 1.653 3.691 3.691 3.691s3.691-1.653 3.691-3.691zM188.583 321.103c0-1.832-1.485-3.317-3.317-3.317s-3.317 1.485-3.317 3.317c0 1.832 1.485 3.317 3.317 3.317s3.317-1.485 3.317-3.317zM213.581 321.103c0-1.014-0.822-1.836-1.836-1.836s-1.836 0.822-1.836 1.836c0 1.014 0.822 1.836 1.836 1.836s1.836-0.822 1.836-1.836zM266.93 321.103c0-1.232-0.999-2.23-2.23-2.23s-2.23 0.999-2.23 2.23c0 1.232 0.999 2.23 2.23 2.23s2.23-0.999 2.23-2.23zM295.171 321.103c0-2.204-1.787-3.991-3.991-3.991s-3.991 1.787-3.991 3.991c0 2.204 1.787 3.991 3.991 3.991s3.991-1.787 3.991-3.991zM322.642 321.103c0-2.752-2.232-4.984-4.984-4.984s-4.984 2.232-4.984 4.984c0 2.752 2.232 4.984 4.984 4.984s4.984-2.232 4.984-4.984zM349.42 321.103c0-2.929-2.374-5.304-5.304-5.304s-5.304 2.374-5.304 5.304c0 2.929 2.374 5.304 5.304 5.304s5.304-2.374 5.304-5.304zM376.461 321.121c0-3.23-2.617-5.846-5.846-5.846s-5.846 2.617-5.846 5.846c0 3.23 2.617 5.846 5.846 5.846s5.846-2.617 5.846-5.846zM404.364 321.121c0-4.015-3.255-7.27-7.27-7.27s-7.27 3.255-7.27 7.27c0 4.015 3.255 7.27 7.27 7.27s7.27-3.255 7.27-7.27zM432.921 321.103c0-5.174-4.195-9.369-9.369-9.369s-9.369 4.195-9.369 9.369c0 5.174 4.195 9.369 9.369 9.369s9.369-4.195 9.369-9.369zM460.785 321.121c0-5.931-4.807-10.738-10.738-10.738s-10.738 4.807-10.738 10.738c0 5.931 4.807 10.738 10.738 10.738s10.738-4.807 10.738-10.738zM486.346 321.121c0-5.423-4.396-9.819-9.819-9.819s-9.819 4.396-9.819 9.819c0 5.423 4.396 9.819 9.819 9.819s9.819-4.396 9.819-9.819zM509.527 321.103c0-3.611-2.929-6.54-6.54-6.54s-6.54 2.929-6.54 6.54c0 3.611 2.929 6.54 6.54 6.54s6.54-2.929 6.54-6.54zM533.119 321.103c0-2.008-1.627-3.635-3.635-3.635s-3.635 1.627-3.635 3.635c0 2.008 1.627 3.635 3.635 3.635s3.635-1.627 3.635-3.635zM559.897 321.121c0-2.173-1.762-3.934-3.934-3.934s-3.934 1.762-3.934 3.934c0 2.173 1.762 3.934 3.934 3.934s3.934-1.762 3.934-3.934zM663.617 321.121c0-0.983-0.798-1.78-1.78-1.78s-1.78 0.798-1.78 1.78c0 0.983 0.798 1.78 1.78 1.78s1.78-0.798 1.78-1.78zM743.577 321.121c0-1.263-1.023-2.286-2.286-2.286s-2.286 1.023-2.286 2.286c0 1.263 1.023 2.286 2.286 2.286s2.286-1.023 2.286-2.286zM773.559 321.103c0-3.208-2.601-5.808-5.808-5.808s-5.808 2.601-5.808 5.808c0 3.208 2.601 5.808 5.808 5.808s5.808-2.601 5.808-5.808zM803.992 321.121c0-5.382-4.363-9.745-9.745-9.745s-9.745 4.363-9.745 9.745c0 5.382 4.363 9.745 9.745 9.745s9.745-4.363 9.745-9.745zM833.074 321.103c0-6.821-5.529-12.348-12.348-12.348s-12.348 5.529-12.348 12.348c0 6.821 5.529 12.348 12.348 12.348s12.348-5.529 12.348-12.348zM860.152 321.121c0-7.161-5.806-12.967-12.967-12.967s-12.967 5.806-12.967 12.967c0 7.161 5.806 12.967 12.967 12.967s12.967-5.806 12.967-12.967zM885.788 321.103c0-6.686-5.419-12.105-12.105-12.105s-12.105 5.419-12.105 12.105c0 6.686 5.419 12.105 12.105 12.105s12.105-5.419 12.105-12.105zM910.448 321.121c0-5.692-4.614-10.306-10.306-10.306s-10.306 4.614-10.306 10.306c0 5.692 4.614 10.306 10.306 10.306s10.306-4.614 10.306-10.306zM934.153 321.121c0-4.17-3.381-7.551-7.551-7.551s-7.551 3.381-7.551 7.551c0 4.17 3.381 7.551 7.551 7.551s7.551-3.381 7.551-7.551zM160.456 294.643c0-0.921-0.747-1.668-1.668-1.668s-1.668 0.747-1.668 1.668c0 0.921 0.747 1.668 1.668 1.668s1.668-0.747 1.668-1.668zM186.803 294.625c0-0.849-0.687-1.536-1.536-1.536s-1.536 0.687-1.536 1.536c0 0.849 0.687 1.536 1.536 1.536s1.536-0.687 1.536-1.536zM292.641 294.625c0-0.808-0.654-1.462-1.462-1.462s-1.462 0.654-1.462 1.462c0 0.808 0.654 1.462 1.462 1.462s1.462-0.654 1.462-1.462zM319.381 294.625c0-0.953-0.772-1.724-1.724-1.724s-1.724 0.772-1.724 1.724c0 0.953 0.772 1.724 1.724 1.724s1.724-0.772 1.724-1.724zM346.291 294.625c0-1.2-0.974-2.173-2.173-2.173s-2.173 0.974-2.173 2.173c0 1.2 0.974 2.173 2.173 2.173s2.173-0.974 2.173-2.173zM373.143 294.625c0-1.398-1.133-2.529-2.529-2.529s-2.529 1.133-2.529 2.529c0 1.398 1.133 2.529 2.529 2.529s2.529-1.133 2.529-2.529zM400.297 294.625c0-1.769-1.434-3.205-3.205-3.205s-3.205 1.434-3.205 3.205c0 1.769 1.434 3.205 3.205 3.205s3.205-1.434 3.205-3.205zM428.592 294.643c0-2.784-2.257-5.040-5.040-5.040s-5.040 2.257-5.040 5.040c0 2.784 2.257 5.040 5.040 5.040s5.040-2.257 5.040-5.040zM456.645 294.643c0-3.643-2.952-6.596-6.596-6.596s-6.596 2.952-6.596 6.596c0 3.643 2.952 6.596 6.596 6.596s6.596-2.952 6.596-6.596zM482.88 294.625c0-3.509-2.844-6.353-6.353-6.353s-6.353 2.844-6.353 6.353c0 3.509 2.844 6.353 6.353 6.353s6.353-2.844 6.353-6.353zM507.259 294.625c0-2.36-1.914-4.272-4.272-4.272s-4.272 1.914-4.272 4.272c0 2.36 1.914 4.272 4.272 4.272s4.272-1.914 4.272-4.272zM531.695 294.625c0-1.222-0.989-2.212-2.212-2.212s-2.212 0.989-2.212 2.212c0 1.222 0.989 2.212 2.212 2.212s2.212-0.989 2.212-2.212zM558.116 294.643c0-1.189-0.965-2.155-2.155-2.155s-2.155 0.965-2.155 2.155c0 1.189 0.965 2.155 2.155 2.155s2.155-0.965 2.155-2.155zM597.3 559.407c0-8.218-6.661-14.879-14.879-14.879s-14.879 6.661-14.879 14.879c0 8.218 6.661 14.879 14.879 14.879s14.879-6.661 14.879-14.879zM596.645 532.928c0-7.855-6.367-14.222-14.222-14.222s-14.222 6.367-14.222 14.222c0 7.855 6.367 14.222 14.222 14.222s14.222-6.367 14.222-14.222zM595.989 506.47c0-7.493-6.075-13.567-13.567-13.567s-13.567 6.075-13.567 13.567c0 7.493 6.075 13.567 13.567 13.567s13.567-6.075 13.567-13.567zM595.332 479.972c0-7.131-5.781-12.911-12.911-12.911s-12.911 5.781-12.911 12.911c0 7.131 5.781 12.911 12.911 12.911s12.911-5.781 12.911-12.911zM594.658 453.512c0-6.757-5.478-12.236-12.236-12.236s-12.236 5.478-12.236 12.236c0 6.757 5.478 12.236 12.236 12.236s12.236-5.478 12.236-12.236zM594.002 427.016c0-6.396-5.184-11.58-11.58-11.58s-11.58 5.184-11.58 11.58c0 6.396 5.184 11.58 11.58 11.58s11.58-5.184 11.58-11.58zM593.345 400.518c0-6.033-4.892-10.925-10.925-10.925s-10.925 4.892-10.925 10.925c0 6.033 4.892 10.925 10.925 10.925s10.925-4.892 10.925-10.925zM592.183 374.079c0-5.392-4.37-9.763-9.763-9.763s-9.763 4.37-9.763 9.763c0 5.392 4.37 9.763 9.763 9.763s9.763-4.37 9.763-9.763zM590.235 347.581c0-4.315-3.498-7.815-7.815-7.815s-7.815 3.498-7.815 7.815c0 4.315 3.498 7.815 7.815 7.815s7.815-3.498 7.815-7.815zM588.323 321.103c0-3.26-2.642-5.903-5.903-5.903s-5.903 2.642-5.903 5.903c0 3.26 2.642 5.903 5.903 5.903s5.903-2.642 5.903-5.903zM586.393 294.643c0-2.193-1.779-3.973-3.973-3.973s-3.973 1.779-3.973 3.973c0 2.193 1.779 3.973 3.973 3.973s3.973-1.779 3.973-3.973zM624.49 559.407c0-8.6-6.971-15.572-15.572-15.572s-15.572 6.971-15.572 15.572c0 8.6 6.971 15.572 15.572 15.572s15.572-6.971 15.572-15.572zM623.929 532.928c0-8.29-6.721-15.010-15.010-15.010s-15.010 6.721-15.010 15.010c0 8.29 6.721 15.010 15.010 15.010s15.010-6.721 15.010-15.010zM623.384 506.45c0-7.99-6.478-14.467-14.467-14.467s-14.467 6.478-14.467 14.467c0 7.99 6.478 14.467 14.467 14.467s14.467-6.478 14.467-14.467zM622.841 479.99c0-7.69-6.233-13.922-13.922-13.922s-13.922 6.233-13.922 13.922c0 7.69 6.233 13.922 13.922 13.922s13.922-6.233 13.922-13.922zM622.279 453.512c0-7.38-5.982-13.362-13.362-13.362s-13.362 5.982-13.362 13.362c0 7.38 5.982 13.362 13.362 13.362s13.362-5.982 13.362-13.362zM621.735 427.016c0-7.080-5.739-12.817-12.817-12.817s-12.817 5.739-12.817 12.817c0 7.080 5.739 12.817 12.817 12.817s12.817-5.739 12.817-12.817zM621.174 400.537c0-6.768-5.486-12.256-12.256-12.256s-12.256 5.486-12.256 12.256c0 6.768 5.486 12.256 12.256 12.256s12.256-5.486 12.256-12.256zM620.030 374.058c0-6.137-4.975-11.112-11.112-11.112s-11.112 4.975-11.112 11.112c0 6.137 4.975 11.112 11.112 11.112s11.112-4.975 11.112-11.112zM618.1 347.581c0-5.072-4.112-9.182-9.182-9.182s-9.182 4.112-9.182 9.182c0 5.072 4.112 9.182 9.182 9.182s9.182-4.112 9.182-9.182zM616.208 321.103c0-4.025-3.264-7.29-7.29-7.29s-7.29 3.264-7.29 7.29c0 4.025 3.264 7.29 7.29 7.29s7.29-3.264 7.29-7.29zM614.278 294.625c0-2.96-2.4-5.36-5.36-5.36s-5.36 2.4-5.36 5.36c0 2.96 2.4 5.36 5.36 5.36s5.36-2.4 5.36-5.36zM649.675 559.407c0-7.896-6.401-14.298-14.298-14.298s-14.298 6.401-14.298 14.298c0 7.896 6.401 14.298 14.298 14.298s14.298-6.401 14.298-14.298zM648.832 532.928c0-7.431-6.023-13.454-13.454-13.454s-13.454 6.023-13.454 13.454c0 7.431 6.023 13.454 13.454 13.454s13.454-6.023 13.454-13.454zM648.008 506.45c0-6.976-5.654-12.63-12.63-12.63s-12.63 5.654-12.63 12.63c0 6.976 5.654 12.63 12.63 12.63s12.63-5.654 12.63-12.63zM647.184 479.99c0-6.521-5.285-11.805-11.805-11.805s-11.805 5.285-11.805 11.805c0 6.521 5.285 11.805 11.805 11.805s11.805-5.285 11.805-11.805zM646.339 453.512c0-6.054-4.908-10.963-10.963-10.963s-10.963 4.908-10.963 10.963c0 6.054 4.908 10.963 10.963 10.963s10.963-4.908 10.963-10.963zM645.535 427.016c0-5.609-4.547-10.157-10.157-10.157s-10.157 4.547-10.157 10.157c0 5.609 4.547 10.157 10.157 10.157s10.157-4.547 10.157-10.157zM644.673 400.518c0-5.133-4.161-9.294-9.294-9.294s-9.294 4.161-9.294 9.294c0 5.133 4.161 9.294 9.294 9.294s9.294-4.161 9.294-9.294zM643.416 374.058c0-4.44-3.599-8.040-8.040-8.040s-8.040 3.599-8.040 8.040c0 4.44 3.599 8.040 8.040 8.040s8.040-3.599 8.040-8.040zM642.011 347.581c0-3.664-2.97-6.634-6.634-6.634s-6.634 2.97-6.634 6.634c0 3.664 2.97 6.634 6.634 6.634s6.634-2.97 6.634-6.634zM640.662 321.121c0-2.918-2.366-5.284-5.284-5.284s-5.284 2.366-5.284 5.284c0 2.918 2.366 5.284 5.284 5.284s5.284-2.366 5.284-5.284zM639.275 294.643c0-2.152-1.746-3.898-3.898-3.898s-3.898 1.746-3.898 3.898c0 2.152 1.746 3.898 3.898 3.898s3.898-1.746 3.898-3.898zM742.62 294.643c0-0.734-0.596-1.331-1.331-1.331s-1.331 0.596-1.331 1.331c0 0.734 0.596 1.331 1.331 1.331s1.331-0.596 1.331-1.331zM770.805 294.625c0-1.687-1.367-3.054-3.054-3.054s-3.054 1.367-3.054 3.054c0 1.687 1.367 3.054 3.054 3.054s3.054-1.367 3.054-3.054zM800.076 294.625c0-3.219-2.609-5.828-5.828-5.828s-5.828 2.609-5.828 5.828c0 3.219 2.609 5.828 5.828 5.828s5.828-2.609 5.828-5.828zM828.877 294.643c0-4.503-3.65-8.152-8.152-8.152s-8.152 3.65-8.152 8.152c0 4.503 3.65 8.152 8.152 8.152s8.152-3.65 8.152-8.152zM856.553 294.643c0-5.174-4.195-9.369-9.369-9.369s-9.369 4.195-9.369 9.369c0 5.174 4.195 9.369 9.369 9.369s9.369-4.195 9.369-9.369zM883.051 294.643c0-5.174-4.195-9.369-9.369-9.369s-9.369 4.195-9.369 9.369c0 5.174 4.195 9.369 9.369 9.369s9.369-4.195 9.369-9.369zM908.574 294.625c0-4.658-3.776-8.432-8.432-8.432s-8.432 3.776-8.432 8.432c0 4.658 3.776 8.432 8.432 8.432s8.432-3.776 8.432-8.432zM931.998 294.643c0-2.981-2.416-5.396-5.396-5.396s-5.396 2.416-5.396 5.396c0 2.981 2.416 5.396 5.396 5.396s5.396-2.416 5.396-5.396zM425.333 268.127c0-0.983-0.798-1.78-1.78-1.78s-1.78 0.798-1.78 1.78c0 0.983 0.798 1.78 1.78 1.78s1.78-0.798 1.78-1.78zM452.766 268.146c0-1.501-1.217-2.717-2.717-2.717s-2.717 1.217-2.717 2.717c0 1.501 1.217 2.717 2.717 2.717s2.717-1.217 2.717-2.717zM479.3 268.146c0-1.532-1.242-2.773-2.773-2.773s-2.773 1.242-2.773 2.773c0 1.532 1.242 2.773 2.773 2.773s2.773-1.242 2.773-2.773zM504.823 268.146c0-1.014-0.822-1.836-1.836-1.836s-1.836 0.822-1.836 1.836c0 1.014 0.822 1.836 1.836 1.836s1.836-0.822 1.836-1.836zM584.294 268.146c0-1.034-0.839-1.874-1.874-1.874s-1.874 0.839-1.874 1.874c0 1.034 0.839 1.874 1.874 1.874s1.874-0.839 1.874-1.874zM611.391 268.165c0-1.367-1.108-2.473-2.473-2.473s-2.473 1.108-2.473 2.473c0 1.367 1.108 2.473 2.473 2.473s2.473-1.108 2.473-2.473zM637.009 268.165c0-0.9-0.731-1.63-1.63-1.63s-1.63 0.731-1.63 1.63c0 0.9 0.731 1.63 1.63 1.63s1.63-0.731 1.63-1.63zM769.305 268.165c0-0.859-0.697-1.556-1.556-1.556s-1.556 0.697-1.556 1.556c0 0.859 0.697 1.556 1.556 1.556s1.556-0.697 1.556-1.556zM796.927 268.146c0-1.479-1.2-2.68-2.68-2.68s-2.68 1.2-2.68 2.68c0 1.479 1.2 2.68 2.68 2.68s2.68-1.2 2.68-2.68zM824.923 268.146c0-2.318-1.88-4.198-4.198-4.198s-4.198 1.88-4.198 4.198c0 2.318 1.88 4.198 4.198 4.198s4.198-1.88 4.198-4.198zM852.281 268.146c0-2.816-2.282-5.097-5.097-5.097s-5.097 2.282-5.097 5.097c0 2.816 2.282 5.097 5.097 5.097s5.097-2.282 5.097-5.097zM879.022 268.165c0-2.95-2.392-5.34-5.34-5.34s-5.34 2.392-5.34 5.34c0 2.95 2.392 5.34 5.34 5.34s5.34-2.392 5.34-5.34zM904.451 268.165c0-2.381-1.929-4.31-4.31-4.31s-4.31 1.929-4.31 4.31c0 2.381 1.929 4.31 4.31 4.31s4.31-1.929 4.31-4.31zM929.523 268.127c0-1.614-1.309-2.923-2.923-2.923s-2.923 1.309-2.923 2.923c0 1.614 1.309 2.923 2.923 2.923s2.923-1.309 2.923-2.923z" />
<glyph unicode="&#xe91a;" glyph-name="i_email" d="M931.744 103.235h-834.201l297.12 297.235 119.898-91.741 120.012 91.822zM960.41 164.716v518.018l-293.379-224.506zM68.729 164.57v518.164l293.443-224.557-293.443-293.607zM68.729 750.145l445.829-341.809 445.847 341.809z" />
<glyph unicode="&#xe91b;" glyph-name="i_tap" d="M391.045 430.731v256.173c0 33.269 25.042 49.948 50.229 49.948 25.211 0 50.229-16.678 50.229-49.948v-145.634c0-4.060 4.209-7.16 7.98-7.16 0.755 0 1.909 0.087 2.66 0.337 7.017 2.245 17.633 4.715 29.253 4.715 19.991 0 43.798-7.273 60.445-35.627 1.379-2.38 3.948-3.793 6.636-3.793 0.866 0 1.74 0.144 2.558 0.425 6.692 2.445 18.387 5.813 31.81 5.813 18.676 0 40.63-6.567 57.052-31.361 3.905-5.908 10.504-9.494 17.633-9.887 22.652-1.291 70.812-12.1 82.287-79.828 11.009-65.055-7.947-129.148-74.284-228.651-0.698-1.098-1.098-2.302-1.154-3.512l-6.68-108.221c-0.249-3.76-3.424-7.017-7.216-7.017h-267.038c-2.716 0-5.164 1.796-6.399 4.129l-190.162 361.007c-24.144 39.444 9.855 76.505 44.584 76.505 15.387 0 30.887-7.185 41.553-24.649l24.332-37.031c5.027-7.665 12.012-11.115 19.598-11.115 12.516 0 24.108 9.318 24.108 24.369zM317.794 737.446c0 68.198 56.364 123.703 125.131 123.703 68.816 0 124.128-55.505 124.128-123.703 0-34.985-14.7-66.612-39.060-89.087v38.546c0 9.206-2.526 26.165-2.526 26.165 2.302 7.722 3.793 15.917 3.793 24.388 0 47.18-38.465 85.463-86.080 85.463s-86.156-38.265-86.156-85.463c0-7.756 1.091-15.26 3.052-22.404-0.032-0.144-0.649-0.306-0.673-0.473-2.751-8.62-4.844-17.892-4.844-27.68v-37.66c-21.338 22.46-36.764 53.685-36.764 88.213zM281.076 737.446c0-56.267 30.831-105.813 73.45-134.312v-132.357l-1.315 3.052c-16.398 26.446-42.394 41.609-72.096 41.609-31.978 0-62.634-17.892-78.39-45.594-14.994-26.446-14.177-57.26 2.133-84.733l189.757-360.213c7.532-14.364 22.436-23.558 38.802-23.558h267.060c23.053 0 42.258 18.162 43.629 40.967l6.231 100.369c66.258 101.053 88.158 173.452 75.516 248.169-15.075 88.957-80.94 106.205-109.494 109.438-20.303 27.076-49.692 41.914-83.522 41.914-8.092 0-15.708-0.818-22.54-2.1-20.071 22.885-48.208 35.252-79.548 35.252h-2.782v27.175c45.668 28.42 75.752 78.26 75.752 134.93 0 88.158-71.935 159.892-160.877 159.892s-161.775-71.734-161.775-159.892z" />
<glyph unicode="&#xe91c;" glyph-name="i_tick" d="M380.048 76.119l-246.174 293.5c-17.316 20.595-14.579 51.278 6.015 68.573v0c20.584 17.316 51.257 14.649 68.573-5.984v0l203.512-242.703 399.532 625.534c14.53 22.664 44.589 29.277 67.237 14.774v0c22.657-14.454 29.286-44.506 14.803-67.177v0l-435.26-681.406c-8.302-13.015-22.413-21.393-37.83-22.343v0c-1.048-0.049-2.086-0.098-3.166-0.098v0c-14.313 0-28.034 6.347-37.243 17.316v0z" />
<glyph unicode="&#xe91d;" glyph-name="i_around-me" d="M110.371 60.076c-24.312 22.179-41.024 50.098-41.063 81.776v0c0.031 31.728 16.744 59.651 41.063 81.815v0c24.502 22.42 57.566 40.903 97.293 56.369v0c79.423 30.753 186.062 49.004 303.786 49.073v0c176.836-0.734 327.663-39.607 401.068-105.443v0c24.35-22.16 41.024-50.079 41.063-81.815v0c-0.031-31.677-16.73-59.596-41.063-81.776v0c-24.521-22.42-57.566-40.892-97.293-56.369v0c-79.384-30.742-186.023-49.023-303.756-49.073v0c-176.836 0.754-327.713 39.587-401.098 105.443v0zM877.885 97.835c17.808 16.522 24.432 31.114 24.401 44.018v0c0.031 12.953-6.593 27.526-24.401 44.033v0c-17.617 16.251-45.587 32.571-81.213 46.359v0c-71.354 27.787-172.957 45.656-285.214 45.606v0c-168.223 0.754-313.413-41.796-366.427-91.965v0c-17.839-16.503-24.47-31.084-24.432-44.033v0c-0.031-12.904 6.593-27.496 24.432-44.018v0c17.597-16.217 45.555-32.571 81.182-46.359v0c71.336-27.748 172.968-45.656 285.253-45.587v0c168.185-0.734 313.393 41.758 366.427 91.946v0zM511.438 866.634c-150.965 0-273.375-122.408-273.375-273.394 0-49.79 13.295-96.473 36.581-136.697l236.793-410.087 236.824 410.087c23.235 40.22 36.581 86.902 36.581 136.697 0 150.979-122.427 273.394-273.406 273.394zM511.438 456.542c-75.494 0-136.678 61.203-136.678 136.697s61.19 136.697 136.678 136.697c75.524 0 136.715-61.203 136.715-136.697s-61.19-136.697-136.715-136.697z" />
<glyph unicode="&#xe91e;" glyph-name="i_arrived" d="M495.504 863.452c-149.819 0-271.302-121.483-271.302-271.323 0-49.418 13.197-95.742 36.301-135.655l235-406.978 135.676 232.109-147 175.437c-69.593 5.778-124.311 63.997-124.311 135.087 0 74.914 60.72 135.655 135.647 135.655 74.956 0 135.676-60.741 135.676-135.655 0-20.654-4.608-40.24-12.892-57.761-0.102-0.276 39.68-45.865 39.651-45.836l102.834 159.332c-25.72 123.060-134.578 215.575-265.269 215.575zM647.642 344.852l-153.562 183.119c-9.026 10.764-7.631 26.831 3.124 35.844v0c10.764 9.026 26.81 7.61 35.835-3.154v0l131.301-156.555 252.958 395.939c7.55 11.824 23.249 15.283 35.102 7.733v0c11.824-7.55 15.283-23.27 7.733-35.102v0l-271.556-425.161c-4.375-6.796-11.701-11.171-19.789-11.701v0c-0.538-0.030-1.090-0.051-1.649-0.051v0c-7.457 0-14.651 3.328-19.484 9.077v0z" />
<glyph unicode="&#xe91f;" glyph-name="i_tip" d="M614.267 201.27h-41.513l46.863 258.604c1.283 5.93-1.283 21.452-18.961 22.425h-163.536c-16.897-0.57-20.223-16.678-18.949-22.425l46.863-258.604h-41.734c-3.829 78.255-44.989 184.308-96.626 247.401-41.718 50.903-61.578 115.499-55.698 181.927 10.675 123.65 112.097 221.34 235.582 227.266 68.952 3.347 134.194-21.254 183.792-69.042 49.805-47.741 77.192-112.13 77.192-181.344 0.198-58.67-20.409-115.663-57.88-160.441-51.988-62.38-93.004-168.825-95.385-245.776zM459.52 443.61h118.538l-44.132-242.517h-30.314l-44.098 242.517zM717.014 816.801c-57.387 55.149-132.89 83.448-212.112 79.585-142.611-6.703-259.646-119.58-272.167-262.631-6.813-76.403 16.163-151.016 64.343-209.828 48.509-59.417 88.209-164.757 88.209-234.902 0 0-3.884-25.515 19.092-26.618h229.192c24.985 1.848 19.092 31.469 19.092 31.469 0 68.437 38.809 170.8 86.563 228.187 43.233 51.835 66.922 117.699 66.922 185.262-0.186 79.914-31.798 154.329-89.123 209.478zM432.395 99.205h172.922c-8.075-24.985-58.889-43.123-86.475-43.123-27.564 0-78.378 18.138-86.453 43.123zM401.805 141.6c-10.675 0-19.114-8.734-19.114-19.236 0-10.798 9.612-20.278 9.682-20.738 8.142-47.61 76.82-84.051 126.47-84.051 50.189 0 119.196 37.23 126.744 85.537 0 0 9.426 8.691 9.426 19.257 0 10.509-8.417 19.236-19.114 19.236h-234.1z" />
<glyph unicode="&#xe920;" glyph-name="i_chevron-last" d="M867.2 448c0-12.8-3.2-22.4-12.8-32l-345.6-409.6c-19.2-22.4-51.2-25.6-73.6-6.4s-25.6 51.2-6.4 73.6l320 374.4-320 377.6c-19.2 22.4-16 54.4 6.4 73.6s54.4 16 73.6-6.4l345.6-412.8c9.6-9.6 12.8-19.2 12.8-32zM611.2 448c0 12.8-3.2 22.4-12.8 32l-345.6 409.6c-16 22.4-48 25.6-70.4 6.4s-25.6-51.2-6.4-70.4l316.8-377.6-316.8-377.6c-19.2-22.4-16-54.4 6.4-73.6s54.4-16 73.6 6.4l345.6 412.8c6.4 9.6 9.6 19.2 9.6 32z" />
<glyph unicode="&#xe921;" glyph-name="i_chevron-first" d="M155.2 448c0 12.8 3.2 22.4 12.8 32l345.6 409.6c19.2 22.4 51.2 25.6 73.6 6.4s25.6-51.2 6.4-73.6l-320-374.4 316.8-377.6c19.2-22.4 16-54.4-6.4-73.6s-54.4-16-73.6 6.4l-342.4 412.8c-9.6 9.6-12.8 19.2-12.8 32zM411.2 448c0-12.8 3.2-22.4 12.8-32l345.6-409.6c19.2-22.4 51.2-25.6 73.6-6.4s25.6 51.2 6.4 73.6l-320 374.4 316.8 377.6c19.2 22.4 16 54.4-6.4 73.6s-54.4 16-73.6-6.4l-345.6-412.8c-6.4-9.6-9.6-19.2-9.6-32z" />
<glyph unicode="&#xe922;" glyph-name="i_star-half" d="M510.613 896.293c11.342 0 20.967-6.761 25.589-16.482 49-108.407 122.457-271.054 122.457-271.054s177.379-19.611 295.694-32.893c10.631-1.214 20.073-8.366 23.593-19.124s0-22.054-7.878-29.404c-87.887-80.024-219.898-200.079-219.898-200.079s36.078-174.713 60.103-291.336c2.027-10.463-1.788-21.638-10.992-28.327-4.901-3.576-10.545-5.267-16.218-5.267-4.876 0-9.762 1.244-14.136 3.672-103.267 58.833-258.315 147.279-258.315 147.279s-155.005-88.446-258.465-147.208c-4.302-2.458-9.148-3.743-14.024-3.743-5.603 0-11.271 1.717-16.147 5.267-9.204 6.689-13.018 17.879-10.992 28.383 24.010 116.565 60.159 291.28 60.246 291.28 0 0-132.041 120.054-219.898 200.246-7.863 7.111-11.398 18.423-7.863 29.236 3.52 10.839 12.962 17.95 23.619 19.235 118.282 13.186 295.564 32.782 295.564 32.782s73.457 162.644 122.528 271.054c4.373 9.625 14.065 16.482 25.422 16.482zM510.669 800.584c-45.536-100.722-97.091-214.829-97.091-214.829l-13.115-29.038-31.664-3.505c0 0-124.387-13.76-234.313-25.965 81.756-74.518 174.306-158.662 174.306-158.662l23.898-21.719-6.969-31.847c-1.397-6.385-25.661-123.605-47.603-229.931 96.141 54.714 204.788 116.702 204.788 116.702l27.697 15.812 27.697-15.812c0 0 108.783-62.059 204.788-116.788-22.278 108.072-47.659 230.937-47.659 230.937l-6.441 31.192 23.578 21.44c0 0 92.621 84.199 174.321 158.581-109.86 12.277-234.384 26.021-234.384 26.021l-31.68 3.505-110.165 243.9zM108.333 548.631l276.25 31.050 127.277 266.942v-673.561l-242.112-124.163 40.34 297.985z" />
<glyph unicode="&#xe923;" glyph-name="i_star-outline" d="M827.2-24l-316.8 233.6-316.8-227.2 121.6 355.2-316.8 211.2h393.6l118.4 371.2 121.6-371.2h393.6l-320-211.2 121.6-361.6zM510.4 248l252.8-188.8-96 291.2 249.6 166.4h-310.4l-96 297.6-96-297.6h-310.4l252.8-169.6-96-281.6 249.6 182.4z" />
<glyph unicode="&#xe924;" glyph-name="i_star-filled" d="M512 878.4l108.8-332.8h352l-284.8-198.4 108.8-329.6-284.8 208-284.8-204.8 108.8 326.4-284.8 198.4h352z" />
<glyph unicode="&#xe925;" glyph-name="i_play" horiz-adv-x="951" d="M222.888 769.51v-643.019l505.224 321.518-505.224 321.501z" />
</font>
</defs>
</svg>
