<?xml version="1.0" standalone="no"?>
<!DOCTYPE svg PUBLIC "-//W3C//DTD SVG 1.1//EN" "http://www.w3.org/Graphics/SVG/1.1/DTD/svg11.dtd" >
<svg>
<metadata>
Created by FontForge 20131121 at Thu Apr 02 17:18:09 2015

Copyright 2013 (c) Tate
</metadata>
<defs>
<font id="TateNewPro-Thin" horiz-adv-x="535" >
  <font-face 
    font-family="Tate New Pro"
    font-weight="300"
    font-stretch="normal"
    units-per-em="1000"
    panose-1="2 11 3 4 2 2 2 2 2 4"
    ascent="800"
    descent="-200"
    x-height="527"
    cap-height="711"
    bbox="-72 -270 1053 950"
    underline-thickness="50"
    underline-position="-50"
    unicode-range="U+000D-FB02"
  />
<missing-glyph horiz-adv-x="1045" 
 />
    <glyph glyph-name="fi" unicode="fi" horiz-adv-x="492" 
d="M295 729q0 -17 -10 -24t-22 -7h-7.5t-11.5 1q-6 1 -10 1h-8q-24 0 -37.5 -10.5t-13.5 -47.5v-116h59q17 0 25.5 -8.5t8.5 -21.5q0 -14 -8.5 -23t-25.5 -9h-59v-423q0 -20 -9.5 -31t-26.5 -11q-16 0 -25.5 11t-9.5 31v423h-42q-17 0 -24.5 9.5t-7.5 21.5t7.5 21.5
t23.5 9.5h43v123q0 33 8.5 55.5t24 36t36.5 19t46 5.5q17 0 32 -1.5t24 -5.5q20 -8 20 -29zM415 682q0 -23 -11 -35.5t-31 -12.5q-19 0 -30.5 12t-11.5 35t11 36t31 13q19 0 30.5 -13t11.5 -35zM409 40q0 -19 -9.5 -30t-26.5 -11q-16 0 -25.5 11t-9.5 30v450q0 20 9.5 30.5
t25.5 10.5q17 0 26.5 -10.5t9.5 -30.5v-450z" />
    <glyph glyph-name="fl" unicode="fl" horiz-adv-x="487" 
d="M295 729q0 -17 -10 -24t-22 -7h-7.5t-11.5 1q-6 1 -10 1h-8q-24 0 -37.5 -10.5t-13.5 -47.5v-116h59q17 0 25.5 -8.5t8.5 -21.5q0 -14 -8.5 -23t-25.5 -9h-59v-423q0 -20 -9.5 -31t-26.5 -11q-16 0 -25.5 11t-9.5 31v423h-42q-17 0 -24.5 9.5t-7.5 21.5t7.5 21.5
t23.5 9.5h43v123q0 33 8.5 55.5t24 36t36.5 19t46 5.5q17 0 32 -1.5t24 -5.5q20 -8 20 -29zM410 41q0 -19 -10 -30.5t-26 -11.5t-25.5 11.5t-9.5 30.5v683q0 19 9.5 30t25.5 11t26 -11t10 -30v-683v0z" />
    <glyph glyph-name=".notdef" horiz-adv-x="1045" 
 />
    <glyph glyph-name="NULL" horiz-adv-x="0" 
 />
    <glyph glyph-name="NULL" horiz-adv-x="0" 
 />
    <glyph glyph-name="nonmarkingreturn" unicode="&#xd;" horiz-adv-x="295" 
 />
    <glyph glyph-name="space" unicode=" " horiz-adv-x="295" 
 />
    <glyph glyph-name="numbersign" unicode="#" horiz-adv-x="580" 
d="M545 465q0 -13 -9 -20.5t-24 -7.5h-86l-23 -162h78q15 0 24 -8t9 -20t-9 -20t-24 -8h-85l-27 -190q-5 -30 -30 -30q-12 0 -19.5 7t-7.5 18q0 8 1 16t2 13l24 166h-137l-26 -190q-5 -30 -30 -30q-12 0 -19.5 7t-7.5 18q0 8 0.5 13t2.5 16l24 165h-78q-14 0 -23.5 8.5
t-9.5 20.5t9.5 20t23.5 8h86l23 161h-78q-14 0 -23.5 8t-9.5 20q0 13 9 21t23 8h86l27 188q4 30 30 30q11 0 18.5 -7t7.5 -18q0 -8 -0.5 -13t-2.5 -16l-23 -164h136l27 188q4 30 30 30q11 0 18.5 -7t7.5 -18q0 -8 -0.5 -13t-2.5 -16l-23 -164h78q15 0 24 -8t9 -20zM233 437
l-22 -162h136l23 162h-137z" />
    <glyph glyph-name="dollar" unicode="$" 
d="M463 182q0 -77 -44 -123.5t-122 -58.5v-36q0 -34 -26 -34q-14 0 -19 8.5t-5 25.5v31h-8q-45 0 -84.5 7t-64.5 24q-17 11 -17 29q0 14 10 22t24 8q15 0 35 -6q21 -8 47 -12.5t58 -4.5v277l-13 8q-31 18 -58.5 37.5t-48 42.5t-32.5 51.5t-12 64.5q0 73 43.5 118t120.5 53
v32q0 35 26 35q14 0 19 -9t5 -25v-31q66 -3 115 -25q20 -10 20 -29q0 -32 -34 -32q-7 0 -16.5 2t-22.5 5q-15 4 -29 7t-33 4v-257q33 -18 63 -38t53 -44.5t36.5 -55.5t13.5 -71zM393 180q0 41 -27.5 71.5t-68.5 57.5v-243q48 11 72 40t24 74zM247 647q-95 -12 -95 -101
q0 -41 26.5 -70.5t68.5 -55.5v227z" />
    <glyph glyph-name="percent" unicode="%" horiz-adv-x="723" 
d="M326 547q0 -43 -11 -74.5t-30 -51.5t-44.5 -30t-55.5 -10q-29 0 -54.5 10t-44.5 30t-30 51.5t-11 73.5q0 45 11 77t30 52.5t44.5 30.5t54.5 10t54.5 -10t45 -30.5t30.5 -52.5t11 -76zM532 696q0 -8 -7 -23l-278 -664q-5 -10 -10.5 -16t-17.5 -6t-20.5 8t-8.5 19
q0 5 2 10.5t5 13.5l276 663q9 22 29 22q13 0 21.5 -8t8.5 -19zM678 163q0 -43 -11 -74t-30 -51.5t-44.5 -30t-54.5 -9.5t-55 9.5t-45 30t-30 51.5t-11 73q0 45 11 77t30 52.5t45 30.5t55 10t54.5 -10t44.5 -30.5t30 -52.5t11 -76zM269 547q0 116 -84 116q-42 0 -62.5 -28
t-20.5 -88q0 -54 19.5 -83.5t63.5 -29.5q45 0 64.5 28t19.5 85zM621 163q0 60 -20.5 88t-62.5 28t-63 -27.5t-21 -88.5q0 -54 19.5 -83.5t64.5 -29.5t64 28t19 85z" />
    <glyph glyph-name="ampersand.sc" horiz-adv-x="528" 
d="M484 29q0 -16 -9.5 -26t-25.5 -10q-8 0 -14.5 3t-14.5 13l-46 55q-35 -35 -75 -53.5t-87 -18.5q-41 0 -72.5 11.5t-52.5 31.5t-31.5 47.5t-10.5 59.5q0 51 27.5 90t83.5 73l-4 5q-29 35 -38 60.5t-9 51.5q0 28 11 49t30 35.5t44.5 22t54.5 7.5q33 0 61 -6.5t45 -15.5
q18 -11 18 -30q0 -14 -9 -22.5t-23 -8.5q-7 0 -13 2q-41 14 -76 14q-27 0 -49 -10.5t-22 -40.5q0 -22 11.5 -43t34.5 -45l149 -163q15 25 23 66q3 15 7 21q9 14 28 14q14 0 22 -9.5t8 -25.5q0 -17 -8 -42t-17 -42q-5 -8 -9.5 -17t-8.5 -14l54 -62q8 -9 10.5 -14.5t2.5 -12.5
zM197 262q-40 -26 -62 -51.5t-22 -64.5q0 -42 27.5 -65t68.5 -23q38 0 69.5 14.5t52.5 39.5z" />
    <glyph glyph-name="quoteright" unicode="&#x2019;" horiz-adv-x="209" 
d="M174 681q0 -6 -2.5 -12t-4.5 -11l-65 -138q-5 -11 -14 -16t-18 -5q-15 0 -25 10t-10 22t6 24l66 138q10 20 32 20q15 0 25 -9.5t10 -22.5z" />
    <glyph glyph-name="parenleft" unicode="(" horiz-adv-x="216" 
d="M176 -61q0 -14 -8.5 -21.5t-22.5 -7.5q-13 0 -21 10t-15 28q-15 37 -25 84.5t-16.5 97t-9.5 99t-3 91.5t3.5 92.5t10.5 101.5t18 99t26 84q7 17 14 25.5t18 8.5q13 0 22 -7.5t9 -19.5q0 -11 -6.5 -26.5t-14.5 -44.5q-20 -73 -27.5 -155t-7.5 -157t7 -156t27 -153
q8 -29 15 -46t7 -27z" />
    <glyph glyph-name="parenright" unicode=")" horiz-adv-x="216" 
d="M161 321q0 -42 -3.5 -92.5t-10.5 -101.5t-18 -99t-26 -84q-7 -17 -14.5 -25.5t-18.5 -8.5q-13 0 -21.5 7.5t-8.5 19.5q0 11 5.5 26.5t13.5 44.5q20 73 28.5 155t8.5 157q0 74 -7.5 155.5t-27.5 153.5q-8 29 -14.5 45.5t-6.5 27.5q0 14 8 21.5t22 7.5q13 0 21 -10t15 -29
q14 -38 24.5 -84.5t17 -96.5t10 -99t3.5 -91z" />
    <glyph glyph-name="asterisk" unicode="*" horiz-adv-x="384" 
d="M344 467q0 -10 -7.5 -19.5t-20.5 -9.5q-10 0 -17 5l-88 61l5 -52q2 -20 3 -34t1 -23q0 -30 -28 -30t-28 30q0 9 1 23t3 34l5 52l-88 -61q-8 -5 -17 -5q-13 0 -20.5 9.5t-7.5 19.5q0 11 5.5 17t15.5 11l93 43l-93 43q-10 5 -15.5 11t-5.5 17q0 10 7.5 19.5t20.5 9.5
q9 0 17 -5l88 -61l-5 52q-2 20 -3 34t-1 23q0 30 28 30t28 -30q0 -9 -1 -23t-3 -34l-5 -52l88 61q7 5 17 5q13 0 20.5 -9.5t7.5 -19.5q0 -11 -5.5 -17t-15.5 -11l-93 -43l93 -43q10 -5 15.5 -11t5.5 -17z" />
    <glyph glyph-name="plus" unicode="+" 
d="M517 253q0 -14 -9.5 -22.5t-24.5 -8.5h-183v-184q0 -15 -9 -24.5t-23 -9.5t-23 9.5t-9 24.5v183h-183q-15 0 -24.5 9t-9.5 23t9.5 23t24.5 9h183v184q0 15 9 24.5t23 9.5t22.5 -9.5t8.5 -24.5v-184h184q15 0 24.5 -9t9.5 -23z" />
    <glyph glyph-name="comma" unicode="," horiz-adv-x="255" 
d="M167 61q0 -12 -6 -25l-65 -134q-11 -21 -32 -21q-15 0 -25 10t-10 22q0 6 3 12t5 11l63 136q5 10 13.5 15t18.5 5q16 0 25.5 -9.5t9.5 -21.5z" />
    <glyph glyph-name="hyphen" unicode="-" horiz-adv-x="338" 
d="M303 271q0 -13 -9 -22.5t-25 -9.5h-201q-15 0 -24 9t-9 23t8.5 23.5t24.5 9.5h201q16 0 25 -9.5t9 -23.5z" />
    <glyph glyph-name="period" unicode="." horiz-adv-x="242" 
d="M165 47q0 -24 -12 -36.5t-32 -12.5t-32 12.5t-12 35.5q0 24 12 38t32 14t32 -14t12 -37z" />
    <glyph glyph-name="slash" unicode="/" horiz-adv-x="459" 
d="M371 690q0 -7 -6 -22l-261 -651q-5 -11 -11.5 -17t-20.5 -6t-22.5 8t-8.5 19q0 7 6 22l262 651q5 11 11.5 17t19.5 6q14 0 22.5 -8t8.5 -19z" />
    <glyph glyph-name="zero.posf" horiz-adv-x="537" 
d="M492 266q0 -132 -60.5 -201.5t-163.5 -69.5q-105 0 -164 68.5t-59 202.5q0 61 15.5 111t45 85.5t70.5 54.5t92 19q52 0 93.5 -19t70.5 -54t44.5 -85t15.5 -112zM418 266q0 97 -37 151t-112 54q-73 0 -111.5 -54t-38.5 -151q0 -46 9 -84t27.5 -65t46.5 -42t66 -15
q73 0 111.5 56.5t38.5 149.5z" />
    <glyph glyph-name="one.posf" horiz-adv-x="346" 
d="M219 40q0 -20 -10 -30.5t-26 -10.5q-17 0 -27 10.5t-10 30.5v420h-89q-17 0 -26.5 9.5t-9.5 23.5q0 13 9.5 23.5t26.5 10.5h126q16 0 26 -10t10 -24v-453v0z" />
    <glyph glyph-name="two.posf" 
d="M459 37q0 -15 -10 -24.5t-26 -9.5h-331q-39 0 -39 42q0 22 18 37l176 144q52 42 84 76t32 71t-30 66t-94 29q-31 0 -60.5 -8t-61.5 -22q-8 -3 -18 -3q-14 0 -22.5 8t-8.5 22q0 19 17 30q25 17 66 29t90 12q97 0 147.5 -44.5t50.5 -116.5q0 -30 -11.5 -55.5t-31 -49
t-46 -46t-56.5 -46.5l-136 -107v-2h264q16 0 26.5 -8.5t10.5 -23.5z" />
    <glyph glyph-name="three.posf" horiz-adv-x="484" 
d="M420 24q0 -46 -15.5 -84.5t-44.5 -66t-71.5 -43t-97.5 -15.5q-46 0 -84 6t-61 20q-15 10 -15 27q0 16 9.5 24.5t23.5 8.5q3 0 9.5 -1t11.5 -3q45 -15 107 -15q75 0 114 39t39 105q0 133 -160 133h-24q-16 0 -26 9t-10 23q0 16 10 26t26 10h25q71 0 105 37t34 93
q0 55 -33 83t-90 28q-26 0 -51.5 -6t-51.5 -17q-11 -5 -24 -5t-21.5 8t-8.5 22q0 22 26 35q28 14 63 22.5t71 8.5q97 0 144.5 -48.5t47.5 -127.5q0 -54 -29.5 -97.5t-80.5 -60.5v-2q42 -10 68 -28.5t40.5 -42t19.5 -51t5 -54.5z" />
    <glyph glyph-name="four.posf" 
d="M507 36q0 -14 -10.5 -23.5t-25.5 -9.5h-51v-142q0 -41 -35 -41q-36 0 -36 41v142h-281q-21 0 -30.5 10.5t-9.5 27.5q0 9 3.5 19.5t11.5 23.5l269 418q10 15 21.5 24.5t31.5 9.5q55 0 55 -53v-414h50q16 0 26.5 -9.5t10.5 -23.5zM349 446h-2l-238 -375v-2h240v377z" />
    <glyph glyph-name="five.posf" horiz-adv-x="490" 
d="M439 52q0 -49 -14 -91t-42.5 -72.5t-71.5 -47.5t-102 -17q-45 0 -84.5 6t-62.5 20q-14 9 -14 27q0 16 9 24.5t23 8.5q4 0 7.5 -0.5t8.5 -1.5q22 -7 51 -12t64 -5q78 0 115.5 43t37.5 119q0 75 -41.5 109t-114.5 34h-91q-16 0 -25.5 9.5t-9.5 24.5v262q0 44 41 44h243
q17 0 27 -9.5t10 -23.5q0 -15 -9.5 -24.5t-26.5 -9.5h-214v-205h68q106 0 162 -54t56 -158z" />
    <glyph glyph-name="six.posf" horiz-adv-x="542" 
d="M485 223q0 -50 -14 -92t-41.5 -72t-68 -47t-92.5 -17q-62 0 -102 22t-63 58.5t-32 83.5t-9 97q0 69 13 140.5t41.5 133t74 108t110.5 64.5q15 5 32.5 8t35.5 3q16 0 26.5 -8t10.5 -25t-10 -24.5t-27 -9.5q-48 -6 -86 -28t-66 -56t-46.5 -78.5t-27.5 -95.5l2 -2
q12 15 30.5 25.5t38 17t38.5 10t34 3.5q48 0 85 -16t62 -44.5t38 -69t13 -89.5zM410 222q0 72 -33 112.5t-100 40.5q-27 0 -53 -7t-46 -24t-32.5 -45.5t-12.5 -71.5q0 -73 33.5 -120t104.5 -47q65 0 102 38.5t37 123.5z" />
    <glyph glyph-name="seven.posf" horiz-adv-x="507" 
d="M469 506q0 -9 -3.5 -20t-8.5 -22l-264 -605q-8 -18 -16.5 -24.5t-21.5 -6.5q-17 0 -27 10t-10 22q0 8 9 28l255 581h-303q-18 0 -27.5 9.5t-9.5 23.5q0 13 9.5 23.5t27.5 10.5h353q19 0 28 -9.5t9 -20.5z" />
    <glyph glyph-name="eight.posf" horiz-adv-x="566" 
d="M503 196q0 -94 -57 -147.5t-164 -53.5q-109 0 -164 54t-55 146q0 76 31.5 123.5t94.5 64.5v1q-50 15 -75.5 56t-25.5 97q0 43 14 76.5t39.5 56t61.5 34t79 11.5t79 -11.5t61.5 -34t40 -56t14.5 -76.5q0 -54 -25 -96t-76 -57v-1q127 -30 127 -187zM404 533q0 33 -9.5 55.5
t-26 36.5t-39 20t-47.5 6t-47 -6t-38.5 -20t-26.5 -36.5t-10 -55.5q0 -57 34 -88.5t88 -31.5t88 31.5t34 88.5zM425 204q0 74 -39.5 110.5t-103.5 36.5t-103.5 -37t-39.5 -110q0 -72 37.5 -108t105.5 -36t105.5 36t37.5 108z" />
    <glyph glyph-name="nine.posf" horiz-adv-x="548" 
d="M479 275q0 -69 -13 -140.5t-41.5 -133t-74 -108t-110.5 -64.5q-15 -5 -32.5 -8t-35.5 -3q-16 0 -26.5 8t-10.5 25t10 24.5t27 9.5q48 6 86 28t66 56t46.5 78.5t27.5 95.5l-2 2q-12 -15 -30.5 -25.5t-38 -17t-38.5 -10t-34 -3.5q-48 0 -85 16t-62 44.5t-38 69t-13 89.5
q0 50 14 92t41.5 72t67.5 47t93 17q62 0 102 -22t63 -58.5t32 -83.5t9 -97zM409 304q0 73 -33.5 120t-104.5 47q-65 0 -102 -38.5t-37 -123.5q0 -72 33 -112.5t100 -40.5q27 0 53 7t46 24t32.5 45.5t12.5 71.5z" />
    <glyph glyph-name="colon" unicode=":" horiz-adv-x="252" 
d="M170 376q0 -24 -12 -37t-32 -13t-32 13t-12 36t12 37t32 14t32 -13.5t12 -36.5zM170 47q0 -24 -12 -36.5t-32 -12.5t-32 12.5t-12 35.5q0 24 12 38t32 14t32 -14t12 -37z" />
    <glyph glyph-name="semicolon" unicode=";" horiz-adv-x="255" 
d="M167 376q0 -24 -12 -37t-32 -13t-32 13t-12 36t12 37t32 14t32 -13.5t12 -36.5zM167 61q0 -6 -2 -12.5t-4 -12.5l-65 -134q-11 -21 -32 -21q-15 0 -25 10t-10 22q0 6 3 12t5 11l63 136q5 10 13.5 15t18.5 5q15 0 25 -9t10 -22z" />
    <glyph glyph-name="less" unicode="&#x3c;" 
d="M524 33q0 -15 -8.5 -23t-19.5 -8q-12 0 -27 7l-434 211q-14 7 -19 15t-5 19t5 18.5t19 14.5l434 211q17 8 27 8q11 0 19.5 -8t8.5 -22q0 -21 -25 -33l-398 -189l398 -189q25 -11 25 -32z" />
    <glyph glyph-name="equal" unicode="=" 
d="M514 356q0 -14 -9.5 -23t-24.5 -9h-425q-15 0 -24.5 9t-9.5 23t9.5 23t24.5 9h425q15 0 24.5 -9t9.5 -23zM514 151q0 -14 -9.5 -23t-24.5 -9h-425q-15 0 -24.5 9t-9.5 23t9.5 23t24.5 9h425q15 0 24.5 -9t9.5 -23z" />
    <glyph glyph-name="greater" unicode="&#x3e;" 
d="M524 253q0 -11 -5 -18.5t-19 -14.5l-434 -211q-17 -8 -27 -8q-11 0 -19.5 8.5t-8.5 23.5q0 20 24 31l399 189l-397 189q-26 12 -26 34q0 14 8.5 21.5t19.5 7.5q5 0 11.5 -1t15.5 -6l434 -211q14 -7 19 -15t5 -19z" />
    <glyph glyph-name="question" unicode="?" horiz-adv-x="432" 
d="M392 553q0 -29 -8.5 -53.5t-22 -45.5t-30.5 -39.5t-35 -34.5q-33 -31 -55 -63.5t-22 -71.5v-3q0 -20 -10.5 -29t-25.5 -9q-18 0 -26.5 11t-8.5 27v6q0 30 8 55t21.5 46t30 38.5t33.5 34.5q29 29 51.5 58t22.5 67q0 21 -6.5 39t-21.5 31.5t-38.5 21.5t-57.5 8
q-32 0 -58.5 -8t-58.5 -22q-4 -2 -8.5 -3t-10.5 -1q-14 0 -22 9.5t-8 23.5q0 19 17 30q25 16 64 28.5t88 12.5q95 0 146.5 -44t51.5 -120zM225 44q0 -23 -11 -34.5t-30 -11.5q-18 0 -29.5 11.5t-11.5 33.5q0 21 11 34t30 13q18 0 29.5 -13t11.5 -33z" />
    <glyph glyph-name="at" unicode="@" horiz-adv-x="771" 
d="M726 415q0 -64 -21 -112t-52 -80.5t-66 -49t-63 -16.5q-29 0 -43 12.5t-18 32.5q-2 5 -2 9.5v9.5h-2q-18 -28 -48.5 -45t-69.5 -17q-35 0 -62 13.5t-45.5 36.5t-28 53.5t-9.5 64.5q0 47 13.5 88.5t38 72.5t59.5 49t77 18q38 0 69 -17t49 -55h1l7 32q3 13 9 19.5t19 6.5
q27 0 27 -23q0 -4 -1 -10t-3 -14l-44 -218q-2 -9 -3 -17.5t-1 -14.5q0 -11 4 -19t18 -8q25 0 49.5 14t44 40t32 61.5t12.5 79.5q0 54 -19.5 99.5t-55.5 79.5t-87 53t-114 19q-69 0 -124 -28t-93.5 -73.5t-59 -103.5t-20.5 -117q0 -73 21.5 -127.5t59 -90.5t89.5 -54t113 -18
q67 0 122 16.5t93 42.5q18 12 33 26q10 9 21 9q9 0 15.5 -5t6.5 -15q0 -14 -20 -34q-42 -39 -113 -66t-156 -27q-75 0 -137.5 23t-107.5 67.5t-70 108.5t-25 146q0 70 25.5 137t71.5 119.5t110.5 84.5t143.5 32q74 0 134.5 -23.5t104 -64.5t67.5 -96t24 -117zM483 416
q0 36 -27 57.5t-69 21.5q-32 0 -56 -13t-41 -35.5t-25.5 -53t-8.5 -64.5q0 -47 23 -78.5t70 -31.5q44 0 74.5 23t40.5 70l16 77q2 7 2.5 14.5t0.5 12.5z" />
    <glyph glyph-name="A" unicode="A" horiz-adv-x="599" 
d="M584 30q0 -13 -9 -22t-24 -9q-17 0 -24.5 8t-12.5 20l-61 167h-308l-60 -166q-5 -13 -12.5 -21t-23.5 -8q-15 0 -24.5 9t-9.5 22q0 5 2 11t4 13l224 615q6 17 18 30t38 13q27 0 39 -13t18 -30l221 -615q5 -15 5 -24zM301 628h-2l-132 -370h266z" />
    <glyph glyph-name="B" unicode="B" horiz-adv-x="516" 
d="M476 201q0 -96 -53 -146.5t-156 -50.5h-156q-41 0 -41 37v629q0 37 41 37h153q48 0 81.5 -13t55 -36.5t31.5 -55.5t10 -69q0 -55 -25 -94.5t-70 -57.5v-1q36 -8 60.5 -26t40 -42t22 -52.5t6.5 -58.5zM369 529q0 53 -24.5 82.5t-84.5 29.5h-118v-236h121q44 0 75 29.5
t31 94.5zM402 206q0 28 -6.5 53t-22.5 43.5t-43 29t-69 10.5h-119v-272h122q28 0 53.5 6t44 21.5t29.5 41.5t11 67z" />
    <glyph glyph-name="C" unicode="C" horiz-adv-x="527" 
d="M492 49q0 -23 -23 -34q-26 -11 -61.5 -15.5t-73.5 -4.5q-66 0 -119.5 20t-91 63.5t-58 112.5t-20.5 167q0 91 21 158.5t59.5 111.5t92.5 65.5t120 21.5q38 0 71 -5.5t58 -18.5q21 -11 21 -29q0 -15 -8.5 -24t-22.5 -9q-7 0 -13 1.5t-17 4.5q-23 6 -44.5 9t-44.5 3
q-112 0 -164 -75t-52 -215q0 -152 54.5 -223.5t164.5 -71.5q22 0 45.5 4t45.5 9q15 4 28 4t22.5 -7.5t9.5 -22.5z" />
    <glyph glyph-name="D" unicode="D" horiz-adv-x="600" 
d="M555 362q0 -92 -20.5 -159.5t-58 -111.5t-90.5 -66t-117 -22h-158q-17 0 -29 9t-12 28v629q0 17 10.5 27.5t30.5 10.5h156q143 0 215.5 -90t72.5 -255zM480 361q0 64 -11 115.5t-36.5 88t-67 56t-103.5 19.5h-119v-570h121q116 0 166 74.5t50 216.5z" />
    <glyph glyph-name="E" unicode="E" horiz-adv-x="442" 
d="M402 37q0 -13 -10 -23.5t-27 -10.5h-254q-41 0 -41 37v627q0 18 10 29t31 11h244q17 0 26.5 -10t9.5 -24t-9.5 -23.5t-26.5 -9.5h-212v-250h202q17 0 27 -10t10 -24t-10 -24t-27 -10h-202v-252h222q17 0 27 -9.5t10 -23.5z" />
    <glyph glyph-name="F" unicode="F" horiz-adv-x="434" 
d="M399 673q0 -14 -9.5 -23.5t-25.5 -9.5h-221v-250h194q17 0 27 -10t10 -24t-9.5 -24t-26.5 -10h-195v-282q0 -20 -10 -30.5t-26 -10.5q-17 0 -27 10.5t-10 30.5v630q0 15 10.5 26t26.5 11h257q16 0 25.5 -10t9.5 -24z" />
    <glyph glyph-name="G" unicode="G" horiz-adv-x="595" 
d="M535 82q0 -13 -4.5 -22.5t-15.5 -17.5q-24 -17 -70.5 -32t-108.5 -15q-69 0 -123 20.5t-91.5 64t-57 112t-19.5 163.5q0 181 80 270.5t218 89.5q18 0 37.5 -1.5t38.5 -5t37 -8.5t32 -12q20 -11 20 -30q0 -15 -8.5 -24t-22.5 -9q-6 0 -12.5 1t-17.5 5q-24 8 -53 12t-53 4
q-59 0 -100.5 -20t-67.5 -57.5t-38.5 -91.5t-12.5 -123q0 -71 11.5 -125.5t37 -92t67 -57t100.5 -19.5q38 0 68.5 7.5t48.5 17.5q8 4 8 12v208h-123q-17 0 -27 9.5t-10 23.5q0 13 10 23.5t27 10.5h154q41 0 41 -37v-254v0z" />
    <glyph glyph-name="H" unicode="H" horiz-adv-x="623" 
d="M553 40q0 -20 -10 -30.5t-26 -10.5q-17 0 -27 10.5t-10 30.5v290h-337v-290q0 -20 -10 -30.5t-26 -10.5q-17 0 -27 10.5t-10 30.5v631q0 20 10 30.5t27 10.5q16 0 26 -10.5t10 -30.5v-273h337v273q0 20 9.5 30.5t26.5 10.5q16 0 26.5 -10.5t10.5 -30.5v-631v0z" />
    <glyph glyph-name="I" unicode="I" horiz-adv-x="227" 
d="M150 40q0 -20 -10 -30.5t-26 -10.5q-17 0 -27 10.5t-10 30.5v631q0 19 10 29.5t27 10.5q16 0 26 -10.5t10 -29.5v-631v0z" />
    <glyph glyph-name="J" unicode="J" horiz-adv-x="377" 
d="M307 167q0 -87 -43.5 -129.5t-112.5 -42.5q-38 0 -72.5 8.5t-57.5 25.5q-16 12 -16 29q0 12 8 20.5t20 8.5q8 0 16.5 -2.5t17.5 -6.5q37 -18 81 -18q50 0 68 30.5t18 78.5v502q0 20 9.5 30.5t26.5 10.5t27 -10.5t10 -30.5v-504v0z" />
    <glyph glyph-name="K" unicode="K" horiz-adv-x="528" 
d="M498 32q0 -18 -11 -25.5t-23 -7.5t-19.5 5.5t-17.5 16.5l-284 321v-303q0 -18 -9.5 -29t-26.5 -11t-27 10.5t-10 29.5v633q0 17 10 28.5t27 11.5q16 0 26 -10.5t10 -29.5v-289l278 305q9 11 17.5 17.5t21.5 6.5q11 0 22 -7.5t11 -24.5t-14 -32l-267 -285l272 -300
q8 -10 11 -17t3 -14z" />
    <glyph glyph-name="L" unicode="L" horiz-adv-x="412" 
d="M382 37q0 -14 -9.5 -24t-26.5 -10h-239q-17 0 -27 10.5t-10 27.5v629q0 20 9.5 30.5t26.5 10.5q16 0 26 -10.5t10 -30.5v-600h204q17 0 26.5 -9.5t9.5 -23.5z" />
    <glyph glyph-name="M" unicode="M" horiz-adv-x="859" 
d="M789 37q0 -21 -10 -29.5t-24 -8.5q-35 0 -38 37l-44 576h-2l-201 -584q-5 -12 -15 -19.5t-27 -7.5q-18 0 -30 7.5t-16 19.5l-192 583h-2l-47 -575q-2 -17 -10 -27t-27 -10q-14 0 -24 8.5t-10 28.5q0 4 0.5 13.5t1.5 16.5l56 596q2 25 17 37.5t38 12.5q19 0 34.5 -10
t21.5 -27l186 -569h6l195 569q6 17 20.5 27t34.5 10t36.5 -12t18.5 -37l52 -602q1 -12 1 -16v-8z" />
    <glyph glyph-name="N" unicode="N" horiz-adv-x="641" 
d="M571 40q0 -22 -11.5 -31.5t-28.5 -9.5q-13 0 -25.5 5t-20.5 19l-347 570h-2v-553q0 -41 -31 -41q-35 0 -35 41v630q0 21 13.5 31t30.5 10q20 0 29.5 -7.5t14.5 -16.5l345 -570h2v554q0 40 31 40q35 0 35 -40v-631v0z" />
    <glyph glyph-name="O" unicode="O" horiz-adv-x="643" 
d="M598 356q0 -180 -71.5 -270.5t-206.5 -90.5q-134 0 -204.5 90.5t-70.5 270.5q0 176 70.5 267.5t204.5 91.5q136 0 207 -91t71 -268zM520 357q0 154 -49.5 222.5t-149.5 68.5q-98 0 -148 -68.5t-50 -222.5t49.5 -224.5t148.5 -70.5q100 0 149.5 70.5t49.5 224.5z" />
    <glyph glyph-name="P" unicode="P" horiz-adv-x="506" 
d="M471 503q0 -108 -56 -161t-162 -53h-110v-249q0 -20 -10 -30.5t-26 -10.5q-17 0 -27 10.5t-10 30.5v630q0 37 41 37h140q108 0 164 -52t56 -152zM398 503q0 77 -39 108.5t-105 31.5h-111v-290h109q43 0 71.5 11t45 30.5t23 47.5t6.5 61z" />
    <glyph glyph-name="Q" unicode="Q" horiz-adv-x="646" 
d="M621 36q0 -14 -10.5 -23.5t-27.5 -9.5h-258q-134 0 -207 87.5t-73 266.5q0 176 72 267t205 91q132 0 205 -87.5t73 -261.5q0 -108 -34 -185.5t-103 -118.5l1 -1q12 2 28.5 3.5t34 2.5t33 1.5t25.5 0.5q17 0 26.5 -9.5t9.5 -23.5zM522 361q0 153 -49.5 219.5t-149.5 66.5
q-98 0 -149 -67.5t-51 -220.5t50.5 -221t149.5 -68q96 0 147.5 69.5t51.5 221.5z" />
    <glyph glyph-name="R" unicode="R" horiz-adv-x="514" 
d="M469 33q0 -15 -10.5 -24.5t-25.5 -9.5q-24 0 -36 20l-183 312h-71v-291q0 -20 -10 -30.5t-26 -10.5q-17 0 -27 10.5t-10 30.5v630q0 17 11 27t30 10h155q100 0 150 -50.5t50 -135.5q0 -83 -42.5 -133t-131.5 -57l169 -272q5 -8 6.5 -14t1.5 -12zM393 519q0 36 -10.5 60
t-28 38.5t-41 20t-48.5 5.5h-122v-250h130q63 0 91.5 34t28.5 92z" />
    <glyph glyph-name="S" unicode="S" horiz-adv-x="475" 
d="M435 182q0 -45 -16 -79.5t-46 -58.5t-72.5 -36.5t-94.5 -12.5q-45 0 -84.5 7t-64.5 24q-17 11 -17 29q0 14 10 23t24 9q15 0 35 -6q21 -8 47.5 -12.5t58.5 -4.5q73 0 109 31t36 85q0 28 -13 50.5t-34.5 42t-50.5 37t-61 35.5q-31 18 -59.5 37.5t-50 43.5t-34.5 52.5
t-13 64.5q0 40 14.5 72t41 54.5t63 34.5t81.5 12q38 0 73 -6t62 -19q20 -10 20 -29q0 -15 -9 -24.5t-25 -9.5q-7 0 -16.5 2t-22.5 5q-19 5 -39 8.5t-43 3.5q-60 0 -92.5 -25t-32.5 -76q0 -26 12 -47t31.5 -39t45.5 -34t55 -32q33 -19 64 -39t55 -45t38.5 -56.5t14.5 -71.5z
" />
    <glyph glyph-name="T" unicode="T" horiz-adv-x="493" 
d="M463 673q0 -14 -9.5 -23.5t-26.5 -9.5h-144v-600q0 -20 -9.5 -30.5t-26.5 -10.5q-16 0 -26.5 10.5t-10.5 30.5v600h-143q-18 0 -27.5 9.5t-9.5 23.5q0 13 10 23.5t26 10.5h361q16 0 26 -10t10 -24z" />
    <glyph glyph-name="U" unicode="U" horiz-adv-x="623" 
d="M558 247q0 -58 -14 -104.5t-43.5 -79.5t-76 -51t-112.5 -18t-113 18t-76.5 51t-43.5 79.5t-14 104.5v424q0 19 10 29.5t26 10.5q17 0 26.5 -10.5t9.5 -29.5v-440q0 -85 44.5 -128.5t129.5 -43.5t129.5 43.5t44.5 128.5v440q0 19 9.5 29.5t26.5 10.5q16 0 26.5 -10.5
t10.5 -29.5v-424v0z" />
    <glyph glyph-name="V" unicode="V" horiz-adv-x="566" 
d="M551 678q0 -11 -9 -35l-212 -609q-5 -14 -16 -25t-33 -11q-23 0 -34 11t-16 25l-208 610q-8 23 -8 34q0 15 10.5 24.5t25.5 9.5q13 0 23 -7.5t14 -19.5l193 -598h1l200 598q4 12 11 19.5t21 7.5q15 0 26 -9.5t11 -24.5z" />
    <glyph glyph-name="W" unicode="W" horiz-adv-x="868" 
d="M818 680q0 -5 -1.5 -14t-3.5 -18l-118 -611q-3 -17 -16.5 -27.5t-34.5 -10.5q-41 0 -51 37l-158 568h-2l-161 -568q-11 -37 -52 -37t-49 38l-118 616q-3 12 -3 25q0 14 9.5 24t24.5 10q32 0 38 -35l101 -585h2l164 585q4 13 13.5 23t31.5 10t32 -10t14 -23l163 -585h2
l101 582q7 38 36 38q17 0 26.5 -9.5t9.5 -22.5z" />
    <glyph glyph-name="X" unicode="X" horiz-adv-x="573" 
d="M538 31q0 -14 -10 -23t-26 -9q-19 0 -32 21l-184 282l-183 -282q-7 -11 -14 -16t-18 -5q-14 0 -25 9t-11 23t10 30l201 303l-189 288q-10 16 -10 27q0 14 11 23.5t26 9.5q21 0 33 -19l171 -266l170 263q7 11 14.5 16.5t18.5 5.5q15 0 25 -9t10 -23t-9 -27l-189 -288
l199 -304q11 -17 11 -30z" />
    <glyph glyph-name="Y" unicode="Y" horiz-adv-x="513" 
d="M498 680q0 -7 -2 -14.5t-10 -19.5l-193 -308v-299q0 -18 -9 -29t-27 -11t-27.5 11t-9.5 29v299l-191 307q-8 13 -11 20.5t-3 13.5q0 14 9 23.5t24 9.5q22 0 33 -18l175 -285l177 285q11 18 32 18q15 0 24 -9.5t9 -22.5z" />
    <glyph glyph-name="Z" unicode="Z" horiz-adv-x="527" 
d="M497 37q0 -14 -11 -24t-26 -10h-376q-25 0 -37 11t-12 28q0 9 4.5 19.5t13.5 24.5l341 555h-306q-16 0 -26 9t-10 23t10.5 24t24.5 10h362q20 0 29 -10t9 -22q0 -19 -12 -34l-352 -572h337q17 0 27 -9t10 -23z" />
    <glyph glyph-name="bracketleft" unicode="[" horiz-adv-x="231" 
d="M211 -41q0 -14 -7.5 -23t-21.5 -9h-75q-16 0 -26.5 10t-10.5 25v715q0 16 10 26t26 10h75q14 0 22 -8.5t8 -21.5t-7.5 -21.5t-21.5 -8.5h-44v-666h43q14 0 22 -8t8 -20z" />
    <glyph glyph-name="backslash" unicode="\" horiz-adv-x="399" 
d="M364 22q0 -12 -8 -20t-22 -8q-23 0 -31 22l-262 652q-6 15 -6 21q0 11 8.5 19.5t22.5 8.5q13 0 19.5 -5.5t11.5 -16.5l262 -653q3 -7 4 -12t1 -8z" />
    <glyph glyph-name="bracketright" unicode="]" horiz-adv-x="231" 
d="M161 -38q0 -15 -10 -25t-26 -10h-75q-14 0 -22 9t-8 21q0 13 7.5 21.5t21.5 8.5h44v666h-43q-14 0 -22 8.5t-8 21.5t7.5 21.5t21.5 8.5h76q15 0 25.5 -10t10.5 -26v-715v0z" />
    <glyph glyph-name="asciicircum" unicode="^" 
d="M509 303q0 -14 -9.5 -20.5t-20.5 -6.5q-13 0 -20 6.5t-13 17.5l-179 326l-177 -326q-6 -11 -14 -17.5t-20 -6.5q-11 0 -20.5 6.5t-9.5 19.5q0 9 7 23l203 368q7 12 14.5 16t16.5 4q10 0 17 -4t14 -16l203 -367q8 -14 8 -23z" />
    <glyph glyph-name="underscore" unicode="_" horiz-adv-x="497" 
d="M522 -100q0 -10 -7 -15.5t-17 -5.5h-499q-10 0 -17 5.5t-7 15.5t7 15.5t17 5.5h499q10 0 17 -5.5t7 -15.5z" />
    <glyph glyph-name="quoteleft" unicode="&#x2018;" horiz-adv-x="209" 
d="M174 681q0 -6 -2.5 -12t-4.5 -11l-65 -138q-5 -11 -14 -16t-18 -5q-15 0 -25 10t-10 22t6 24l66 138q10 20 32 20q15 0 25 -9.5t10 -22.5z" />
    <glyph glyph-name="a" unicode="a" horiz-adv-x="496" 
d="M431 40q0 -40 -34 -40q-16 0 -26 10t-10 27v37q-24 -35 -63.5 -57t-95.5 -22q-43 0 -73.5 12.5t-50 34t-29 49t-9.5 57.5q0 71 49 115.5t152 49.5l120 5v42q0 50 -27 77.5t-93 27.5q-26 0 -45.5 -2t-37.5 -5q-11 -2 -22.5 -3.5t-23.5 -1.5q-11 0 -20 7.5t-9 23.5
q0 26 31 34q29 8 61 11.5t68 3.5q97 0 142.5 -45.5t45.5 -121.5v-326zM361 262l-105 -5q-75 -4 -110 -29.5t-35 -80.5q0 -17 5.5 -33t17.5 -29t31 -20.5t47 -7.5q35 0 62.5 10.5t47 28.5t29.5 42.5t10 52.5v71z" />
    <glyph glyph-name="b" unicode="b" horiz-adv-x="556" 
d="M516 266q0 -60 -15 -110t-42.5 -85.5t-67 -55.5t-88.5 -20q-51 0 -93.5 21.5t-67.5 62.5h-1v-39q0 -19 -10 -29.5t-26 -10.5q-35 0 -35 40v683q0 19 9 30.5t26 11.5q16 0 26 -11.5t10 -30.5v-274h1q28 42 70 64.5t92 22.5q52 0 91.5 -19.5t66.5 -55.5t40.5 -85.5
t13.5 -109.5zM442 266q0 40 -8 77.5t-25 66t-45 46t-68 17.5q-30 0 -58.5 -12t-50 -34t-35 -52t-13.5 -67v-88q0 -37 13.5 -66.5t35 -50.5t49.5 -32t58 -11q39 0 67 17t46 45.5t26 65.5t8 78z" />
    <glyph glyph-name="c" unicode="c" horiz-adv-x="423" 
d="M398 44q0 -16 -10 -25q-6 -6 -15 -10t-19 -6q-18 -5 -36 -6.5t-34 -1.5q-62 0 -108 19.5t-76 55t-45 85t-15 108.5q0 60 15 110t45.5 86t76.5 56t109 20q18 0 34.5 -2t32.5 -6q18 -5 31 -13t13 -25q0 -13 -8 -21.5t-21 -8.5q-10 0 -28 5q-26 6 -54 6q-85 0 -128.5 -53
t-43.5 -151q0 -99 41 -153t129 -54q32 0 61 8q7 2 14 3t12 1q12 0 19.5 -8t7.5 -19z" />
    <glyph glyph-name="d" unicode="d" horiz-adv-x="557" 
d="M487 40q0 -40 -37 -40q-34 0 -34 40v44h-1q-25 -41 -66 -64.5t-97 -23.5q-51 0 -90.5 20t-66.5 56t-41 85.5t-14 109.5t14.5 109.5t42 85t67 55t89.5 19.5q46 0 90 -19t72 -62h1v268q0 19 9 30.5t25 11.5q17 0 27 -11.5t10 -30.5v-683zM418 316q0 36 -13.5 65.5
t-35.5 49.5t-50 31t-58 11q-39 0 -67 -17t-45.5 -46t-26 -66.5t-8.5 -77.5t8 -77.5t25 -66t45 -45.5t68 -17q30 0 58.5 11.5t50.5 33.5t35.5 52.5t13.5 68.5v90z" />
    <glyph glyph-name="e" unicode="e" horiz-adv-x="499" 
d="M459 289q0 -16 -8.5 -28.5t-32.5 -12.5h-304q1 -48 15 -83t37.5 -58.5t55.5 -35t69 -11.5q20 0 40.5 1.5t39.5 5.5q23 5 33 5q13 0 20.5 -9t7.5 -21q0 -18 -15 -26q-23 -13 -58 -17t-69 -4q-57 0 -103 18.5t-79 53t-50.5 84.5t-17.5 113q0 137 57 204.5t158 67.5
q108 0 156 -66t48 -181zM387 304q0 83 -30 126.5t-103 43.5q-69 0 -103 -44.5t-36 -125.5h272z" />
    <glyph glyph-name="f" unicode="f" horiz-adv-x="295" 
d="M295 729q0 -17 -10 -24t-22 -7h-7.5t-11.5 1q-6 1 -10 1h-8q-24 0 -37.5 -10.5t-13.5 -47.5v-116h59q17 0 25.5 -8.5t8.5 -21.5q0 -14 -8.5 -23t-25.5 -9h-59v-423q0 -20 -9.5 -31t-26.5 -11q-16 0 -25.5 11t-9.5 31v423h-42q-17 0 -24.5 9.5t-7.5 21.5t7.5 21.5
t23.5 9.5h43v123q0 33 8.5 55.5t24 36t36.5 19t46 5.5q17 0 32 -1.5t24 -5.5q20 -8 20 -29z" />
    <glyph glyph-name="g" unicode="g" horiz-adv-x="507" 
d="M502 488q0 -12 -9 -20t-23 -8l-56 1q18 -22 25 -48.5t7 -55.5q0 -174 -195 -174q-38 0 -63 4t-45 13q-10 -7 -15 -16.5t-5 -25.5q0 -8 2 -16.5t9 -15.5t20 -11.5t36 -4.5h96q51 0 86.5 -6.5t58 -22.5t33 -41.5t10.5 -64.5q0 -36 -14 -69.5t-44 -59t-76.5 -41
t-111.5 -15.5q-107 0 -155 43t-48 116q0 44 17 73.5t49 50.5q-15 11 -23.5 32.5t-8.5 44.5t9 43.5t29 33.5q-29 23 -42.5 55.5t-13.5 74.5q0 85 48.5 132t151.5 47q32 0 59 -5.5t50 -13.5h118q17 0 25.5 -8t8.5 -21zM378 358q0 59 -31.5 88t-102.5 29q-69 0 -102 -28
t-33 -89q0 -59 31.5 -86.5t103.5 -27.5q74 0 104 27.5t30 86.5zM403 -25q0 22 -6 35.5t-21 21t-40 10t-62 2.5h-87h-8h-12.5t-13 0.5t-7.5 0.5q-23 -11 -37 -32t-14 -63q0 -49 31.5 -72.5t101.5 -23.5q92 0 133.5 33t41.5 88z" />
    <glyph glyph-name="h" unicode="h" horiz-adv-x="537" 
d="M472 41q0 -20 -9.5 -31t-25.5 -11q-17 0 -26.5 11t-9.5 31v322q0 57 -27.5 81t-79.5 24q-36 0 -71 -15t-58 -36q-24 -23 -24 -47v-329q0 -20 -10 -31t-26 -11q-17 0 -26 11t-9 31v683q0 19 9.5 30t25.5 11t26 -11t10 -30v-260q32 34 77 53t96 19q75 0 116.5 -41.5
t41.5 -124.5v-329v0z" />
    <glyph glyph-name="i" unicode="i" horiz-adv-x="238" 
d="M161 682q0 -23 -11 -35.5t-31 -12.5q-19 0 -30.5 12t-11.5 35t11 36t31 13q19 0 30.5 -13t11.5 -35zM155 40q0 -19 -9.5 -30t-26.5 -11q-16 0 -25.5 11t-9.5 30v450q0 20 9.5 30.5t25.5 10.5q17 0 26.5 -10.5t9.5 -30.5v-450z" />
    <glyph glyph-name="j" unicode="j" horiz-adv-x="238" 
d="M162 682q0 -23 -11.5 -35.5t-31.5 -12.5q-19 0 -30.5 12t-11.5 35t11 36t31 13q19 0 31 -13t12 -35zM155 -18q0 -40 -16 -84t-60 -82q-23 -19 -39 -19q-15 0 -23.5 9t-8.5 22q0 11 4.5 18t10.5 12q18 15 30 29.5t18.5 30t9.5 33.5t3 42v497q0 20 9.5 31t25.5 11
q17 0 26.5 -11t9.5 -31v-508z" />
    <glyph glyph-name="k" unicode="k" horiz-adv-x="484" 
d="M444 32q0 -14 -9 -24t-25 -10q-11 0 -19 4.5t-15 11.5l-235 233v-206q0 -19 -10 -30.5t-26 -11.5t-25.5 11.5t-9.5 30.5v683q0 19 9.5 30t25.5 11t26 -11t10 -30v-420l231 213q8 8 15 12t17 4q17 0 26 -9.5t9 -23.5q0 -9 -3 -15t-8 -11l-222 -199l225 -215
q8 -8 10.5 -14.5t2.5 -13.5z" />
    <glyph glyph-name="l" unicode="l" horiz-adv-x="225" 
d="M148 41q0 -19 -10 -30.5t-26 -11.5t-25.5 11.5t-9.5 30.5v683q0 19 9.5 30t25.5 11t26 -11t10 -30v-683v0z" />
    <glyph glyph-name="m" unicode="m" horiz-adv-x="832" 
d="M767 40q0 -19 -10 -29.5t-26 -10.5q-35 0 -35 40v326q0 54 -24 77.5t-72 23.5q-30 0 -65 -13t-58 -39q-11 -11 -17 -23.5t-6 -28.5v-323q0 -19 -9.5 -29.5t-25.5 -10.5q-17 0 -26.5 10.5t-9.5 29.5v325q0 55 -23.5 78.5t-71.5 23.5q-31 0 -65 -13.5t-58 -36.5
q-24 -22 -24 -49v-328q0 -19 -9.5 -29.5t-26.5 -10.5q-35 0 -35 40v450q0 20 9.5 31t25.5 11q17 0 26 -11t9 -31v-28q29 33 71.5 53t90.5 20q55 0 88.5 -22t47.5 -64q12 17 26.5 29.5t29.5 22.5q31 19 62 26.5t59 7.5q76 0 114 -42.5t38 -122.5v-330v0z" />
    <glyph glyph-name="n" unicode="n" horiz-adv-x="537" 
d="M472 41q0 -20 -9.5 -31t-25.5 -11q-17 0 -26.5 11t-9.5 31v322q0 57 -27.5 81t-79.5 24q-36 0 -71 -15t-58 -36q-24 -23 -24 -47v-329q0 -20 -10 -31t-26 -11q-17 0 -26 11t-9 31v449q0 19 9.5 30t25.5 11t26 -11t10 -30v-26q32 34 77 53t96 19q75 0 116.5 -41.5
t41.5 -124.5v-329v0z" />
    <glyph glyph-name="o" unicode="o" horiz-adv-x="527" 
d="M487 266q0 -72 -15.5 -123t-45 -84t-71 -48.5t-92.5 -15.5q-52 0 -93.5 15.5t-70 48.5t-44 84t-15.5 123q0 136 60.5 203t162.5 67q52 0 93.5 -16.5t70.5 -50.5t44.5 -84.5t15.5 -118.5zM413 266q0 107 -37 156.5t-112 49.5q-73 0 -111.5 -49.5t-38.5 -156.5
q0 -210 149 -210q74 0 112 52t38 158z" />
    <glyph glyph-name="p" unicode="p" horiz-adv-x="557" 
d="M517 264q0 -60 -14.5 -109.5t-42 -85t-67 -55t-89.5 -19.5q-46 0 -90 19t-72 62h-1v-244q0 -19 -9.5 -30.5t-25.5 -11.5q-17 0 -26.5 11.5t-9.5 30.5v660q0 40 36 40q16 0 25.5 -10.5t9.5 -29.5v-45h1q25 41 66 64.5t97 23.5q51 0 90.5 -20t66.5 -56t41 -85.5t14 -109.5z
M443 265q0 40 -8 77.5t-25 66t-45 45.5t-68 17q-30 0 -58.5 -11.5t-50.5 -33.5t-35.5 -52.5t-13.5 -68.5v-90q0 -36 13.5 -65.5t35.5 -49.5t50 -31t58 -11q39 0 67 17t45.5 46t26 66t8.5 78z" />
    <glyph glyph-name="q" unicode="q" horiz-adv-x="556" 
d="M486 -168q0 -19 -9 -30.5t-26 -11.5q-16 0 -26 11.5t-10 30.5v249h-1q-28 -42 -70 -64.5t-92 -22.5q-52 0 -91.5 19.5t-66.5 55.5t-40.5 85.5t-13.5 109.5t15 110t42.5 85.5t67 55.5t88.5 20q51 0 93.5 -21.5t67.5 -62.5h1v41q0 19 10 29.5t26 10.5q35 0 35 -40v-660z
M417 310q0 37 -13.5 66.5t-35 50.5t-49.5 32t-58 11q-39 0 -67 -17t-46 -45.5t-26 -65.5t-8 -78q0 -40 8 -77.5t25 -66t45 -46t68 -17.5q30 0 58.5 12t50 33.5t35 52t13.5 67.5v88z" />
    <glyph glyph-name="r" unicode="r" horiz-adv-x="337" 
d="M317 499q0 -25 -25 -33q-7 -2 -15 -3t-17 -2q-26 -3 -50.5 -13t-44.5 -31q-10 -11 -17 -26t-7 -41v-310q0 -19 -9.5 -30t-26.5 -11q-16 0 -25.5 11t-9.5 30v450q0 18 9 29.5t26 11.5t25.5 -11.5t8.5 -29.5v-29h1q23 28 60.5 49.5t77.5 21.5q18 0 28.5 -9t10.5 -24z" />
    <glyph glyph-name="s" unicode="s" horiz-adv-x="415" 
d="M375 139q0 -66 -47.5 -105t-129.5 -39q-42 0 -76.5 5.5t-60.5 18.5q-9 5 -15 11.5t-6 16.5q0 17 9 24t23 7q11 0 24 -4q20 -7 43 -10.5t59 -3.5q107 0 107 73q0 34 -26.5 56t-85.5 51q-31 15 -57.5 30.5t-46 34.5t-30.5 42.5t-11 55.5q0 60 40.5 97t121.5 37q32 0 66 -6
t58 -21q8 -5 12 -11t4 -16q0 -14 -9 -22t-20 -8t-29 6q-39 12 -86 12q-49 0 -70 -18t-21 -50q0 -17 7.5 -30.5t21 -25t33.5 -22.5t45 -23q33 -17 61.5 -33t48.5 -34.5t31.5 -42t11.5 -53.5z" />
    <glyph glyph-name="t" unicode="t" horiz-adv-x="314" 
d="M284 495q0 -14 -8 -22.5t-25 -8.5h-61v-424q0 -19 -9.5 -30t-26.5 -11q-16 0 -25.5 11t-9.5 30v424h-57q-17 0 -24.5 9.5t-7.5 21.5t7.5 21.5t23.5 9.5h58v123q0 19 9 30t26 11q16 0 26 -11t10 -30v-124h61q16 0 24.5 -8.5t8.5 -21.5z" />
    <glyph glyph-name="u" unicode="u" horiz-adv-x="531" 
d="M466 190q0 -92 -48 -143.5t-152 -51.5q-105 0 -153 51.5t-48 143.5v300q0 20 9.5 31t25.5 11t26 -11t10 -31v-314q0 -60 34.5 -89t94.5 -29t95 29t35 89v314q0 20 9.5 31t26.5 11q16 0 25.5 -11t9.5 -31v-300v0z" />
    <glyph glyph-name="v" unicode="v" horiz-adv-x="466" 
d="M436 499q0 -5 -1 -10t-4 -13l-158 -447q-10 -29 -47 -29q-36 0 -46 29l-145 449q-5 13 -5 21q0 14 10.5 23.5t25.5 9.5q14 0 22.5 -8t12.5 -20l126 -426h2l138 425q4 12 12 20.5t23 8.5q14 0 24 -9.5t10 -23.5z" />
    <glyph glyph-name="w" unicode="w" horiz-adv-x="720" 
d="M675 499q0 -5 -1.5 -11.5t-3.5 -16.5l-107 -437q-5 -18 -18.5 -26t-28.5 -8q-41 0 -51 39l-103 400h-1l-116 -405q-5 -17 -19.5 -25.5t-30.5 -8.5q-39 0 -47 34l-99 439q-4 17 -4 28q0 13 9.5 22t24.5 9q29 0 35 -30l84 -413h2l115 409q4 14 17 23t30 9t31 -9t18 -23
l103 -409h2l90 413q6 30 34 30q16 0 25.5 -9.5t9.5 -23.5z" />
    <glyph glyph-name="x" unicode="x" horiz-adv-x="488" 
d="M453 33q0 -14 -9 -24t-23 -10q-12 0 -19.5 4.5t-14.5 14.5l-142 203l-146 -202q-8 -10 -15 -15t-18 -5q-14 0 -22.5 10t-8.5 24q0 13 12 28l159 208l-154 202q-11 15 -11 28q0 14 8.5 23.5t22.5 9.5q11 0 18 -4.5t15 -14.5l141 -194l136 194q13 19 33 19q14 0 23 -9.5
t9 -23.5q0 -13 -12 -28l-151 -201l157 -210q12 -15 12 -27z" />
    <glyph glyph-name="y" unicode="y" horiz-adv-x="465" 
d="M435 502q0 -7 -5 -22l-234 -663q-9 -28 -37 -28q-13 0 -22 9t-9 22q0 9 5 22l62 176l-161 460q-4 11 -4 21q0 14 9.5 23.5t26.5 9.5q14 0 22.5 -8t13.5 -22l128 -395h2l134 395q9 30 35 30q14 0 24 -7.5t10 -22.5z" />
    <glyph glyph-name="z" unicode="z" horiz-adv-x="455" 
d="M425 36q0 -14 -10 -23t-26 -9h-324q-30 0 -30 32q0 12 3.5 19.5t8.5 15.5l279 389v2h-247q-15 0 -25.5 9t-10.5 23t10 23.5t26 9.5h302q15 0 24 -8.5t9 -24.5q0 -21 -12 -36l-277 -387v-2h264q15 0 25.5 -9.5t10.5 -23.5z" />
    <glyph glyph-name="braceleft" unicode="{" horiz-adv-x="287" 
d="M267 -45q0 -11 -7.5 -19t-21.5 -8h-16q-55 0 -82.5 27t-27.5 100v82q0 30 -1.5 57.5t-7.5 49t-19 34t-35 12.5q-14 0 -21.5 9t-7.5 21t7.5 21t21.5 9q22 0 35 12.5t19 34t7.5 49t1.5 57.5v82q0 73 27.5 100t82.5 27h16q14 0 21.5 -8t7.5 -19q0 -27 -29 -27h-22
q-43 0 -43 -69v-143q0 -31 -7.5 -53t-18.5 -37t-24 -23.5t-24 -11.5v-2q11 -3 24 -11.5t24 -23.5t18.5 -37t7.5 -53v-143q0 -69 43 -69h22q29 0 29 -27z" />
    <glyph glyph-name="bar" unicode="|" horiz-adv-x="205" 
d="M134 32q0 -15 -8.5 -24.5t-22.5 -9.5t-23 9.5t-9 24.5v699q0 15 9 24.5t23 9.5t22.5 -9t8.5 -25v-699v0z" />
    <glyph glyph-name="braceright" unicode="}" horiz-adv-x="287" 
d="M267 320q0 -12 -7.5 -21t-21.5 -9q-23 0 -35.5 -12.5t-18.5 -34t-7.5 -49t-1.5 -57.5v-82q0 -73 -27.5 -100t-82.5 -27h-16q-14 0 -21.5 8t-7.5 19q0 27 29 27h22q43 0 43 69v143q0 31 7.5 53t18.5 37t24 23.5t24 11.5v2q-11 3 -24 11.5t-24 23.5t-18.5 37t-7.5 53v143
q0 69 -43 69h-22q-29 0 -29 27q0 11 7.5 19t21.5 8h16q55 0 82.5 -27t27.5 -100v-82q0 -30 1.5 -57.5t7.5 -49t18.5 -34t35.5 -12.5q14 0 21.5 -9t7.5 -21z" />
    <glyph glyph-name="asciitilde" unicode="~" 
d="M510 284q0 -8 -3.5 -18t-7.5 -18q-16 -30 -47 -51t-73 -21q-31 0 -62.5 13.5t-66.5 33.5q-25 14 -49.5 25t-45.5 11q-22 0 -37 -10.5t-26 -25.5l-13 -21q-11 -14 -28 -14q-12 0 -19 7.5t-7 19.5q0 8 3.5 18t7.5 18q16 30 47 51t73 21q31 0 62.5 -13.5t66.5 -33.5
q25 -14 49.5 -25t45.5 -11q22 0 37 10.5t26 25.5l13 21q11 14 28 14q12 0 19 -7.5t7 -19.5z" />
    <glyph glyph-name="exclamdown" unicode="&#xa1;" horiz-adv-x="237" 
d="M160 486q0 -22 -11 -35t-30 -13q-18 0 -30 13t-12 34q0 23 11.5 35t30.5 12t30 -11.5t11 -34.5zM154 -143q0 -19 -9.5 -29t-26.5 -10q-15 0 -25 10t-10 29v428q0 18 9.5 28.5t25.5 10.5q17 0 26.5 -10t9.5 -29v-428z" />
    <glyph glyph-name="cent" unicode="&#xa2;" 
d="M448 42q0 -9 -5 -16t-13 -12q-22 -12 -49.5 -15.5t-49.5 -3.5h-9v-35q0 -35 -26 -35q-14 0 -19 9t-5 25v41q-47 9 -81.5 31.5t-57.5 57t-34.5 79t-11.5 96.5t11 97t34 79.5t58 57.5t82 32v44q0 35 26 35q14 0 19 -8.5t5 -25.5v-39h11q26 0 51.5 -5t44.5 -15
q15 -11 15 -26q0 -13 -8.5 -21.5t-20.5 -8.5q-13 0 -28 4q-13 4 -27 5.5t-27 1.5h-5.5t-5.5 -1v-411h9q14 0 30.5 2.5t30.5 5.5q7 2 14 3.5t12 1.5q13 0 21.5 -8.5t8.5 -21.5zM272 461q-55 -17 -83 -66.5t-28 -127.5q0 -81 27 -131.5t84 -67.5v393z" />
    <glyph glyph-name="sterling.sc" horiz-adv-x="537" 
d="M457 38q0 -15 -10 -24.5t-24 -9.5h-298q-17 0 -23 10.5t-6 25.5q0 19 17 39q23 26 35 52.5t12 61.5v22t-2 22h-54q-14 0 -24 9t-10 24q0 14 10 23t24 9h39q-8 22 -13.5 44t-5.5 45q0 36 13.5 63t36.5 45t52.5 27.5t62.5 9.5q45 0 78 -6t48 -15t15 -27q0 -33 -32 -33
q-19 0 -43.5 7.5t-66.5 7.5q-18 0 -34.5 -5t-30 -15t-21.5 -25t-8 -35t5 -42.5t13 -45.5h152q15 0 24.5 -9t9.5 -23q0 -15 -9.5 -24t-24.5 -9h-138q1 -8 2 -18t1 -21q0 -29 -10 -63.5t-37 -63.5h241q14 0 24 -9.5t10 -23.5z" />
    <glyph glyph-name="fraction" unicode="&#x2044;" horiz-adv-x="195" 
d="M267 698q0 -7 -7 -25l-276 -663q-5 -10 -10.5 -15.5t-16.5 -5.5t-20 7.5t-9 18.5q0 10 7 25l275 662q5 11 11 16t17 5q12 0 20.5 -7t8.5 -18z" />
    <glyph glyph-name="yen" unicode="&#xa5;" 
d="M508 680q0 -12 -14 -34l-161 -261h117q14 0 21.5 -8t7.5 -19q0 -9 -7.5 -17.5t-21.5 -8.5h-148v-84h148q14 0 21.5 -7.5t7.5 -18.5q0 -10 -7.5 -18.5t-21.5 -8.5h-148v-160q0 -15 -9.5 -25.5t-24.5 -10.5q-17 0 -26.5 11t-9.5 25v160h-148q-14 0 -21.5 8.5t-7.5 18.5
t7.5 18t21.5 8h148v84h-148q-14 0 -21.5 8t-7.5 18t7.5 18.5t21.5 8.5h117l-161 261q-8 12 -10.5 19.5t-2.5 13.5q0 14 8.5 23.5t23.5 9.5q21 0 32 -18l176 -287l176 287q12 18 31 18q15 0 24.5 -9.5t9.5 -22.5z" />
    <glyph glyph-name="florin" unicode="&#x192;" 
d="M505 724q0 -17 -10.5 -25.5t-26.5 -8.5h-35q-28 0 -48 -22.5t-29 -73.5l-22 -125h63q17 0 27.5 -8.5t10.5 -22.5q0 -16 -10.5 -23.5t-26.5 -7.5h-75l-70 -400q-15 -88 -55 -130.5t-95 -42.5h-40q-14 0 -23.5 9t-9.5 21q0 19 12 27t26 8h33q11 0 22.5 4.5t22.5 17t20.5 34
t15.5 55.5l69 396h-57q-17 0 -27 9t-10 22q0 15 11 23.5t28 8.5h67l23 131q14 79 52 117t92 38h37q17 0 27.5 -8.5t10.5 -22.5z" />
    <glyph glyph-name="section" unicode="&#xa7;" horiz-adv-x="479" 
d="M434 242q0 -54 -22 -95.5t-70 -76.5q29 -23 45.5 -54t16.5 -76q0 -33 -13 -61t-38 -48.5t-62 -32t-85 -11.5q-36 0 -76 6.5t-67 23.5q-8 5 -12.5 11.5t-4.5 17.5q0 16 9.5 21.5t22.5 5.5q11 0 32 -6q21 -7 47.5 -10.5t52.5 -3.5q66 0 96.5 23.5t30.5 65.5q0 23 -9 40
t-25 31t-38.5 26.5t-49.5 26.5q-43 22 -75 42.5t-53 43.5t-31.5 49.5t-10.5 59.5q0 54 22 94.5t70 75.5q-29 24 -45.5 55t-16.5 77q0 33 11 61t33.5 48.5t56 32t77.5 11.5q36 0 73 -6.5t64 -23.5q8 -5 12.5 -11.5t4.5 -17.5q0 -16 -9.5 -21.5t-22.5 -5.5q-11 0 -32 6
q-44 14 -94 14q-58 0 -82.5 -23.5t-24.5 -65.5q0 -23 9 -40t25 -31t38.5 -26.5t49.5 -26.5q43 -22 75 -42.5t53 -43.5t31.5 -49.5t10.5 -59.5zM364 236q0 45 -32 74.5t-98 62.5q-11 5 -22 11l-22 12q-43 -28 -59 -60t-16 -69q0 -45 32 -74.5t98 -62.5q11 -6 22 -11.5
t21 -11.5q44 28 60 60t16 69z" />
    <glyph glyph-name="currency" unicode="&#xa4;" horiz-adv-x="499" 
d="M459 268q0 -9 -3 -15q-3 -5 -7.5 -10.5t-9.5 -12.5l-106 -131q-18 -21 -32 -21q-5 0 -8 1q-14 3 -20 11t-6 17v5q5 11 11 20.5t15 20.5l71 86h-269q-7 0 -13.5 1t-12.5 3q-19 5 -19 26q0 12 9.5 20.5t24.5 8.5h280q-35 45 -70 85q-10 12 -16 21.5t-10 21.5v5q0 9 6 17.5
t20 10.5q2 2 3 2l1 -1h3q10 0 19.5 -8t19.5 -21l99 -126q6 -6 9.5 -11.5t6.5 -10.5q4 -5 4 -15z" />
    <glyph glyph-name="quotesingle" unicode="'" horiz-adv-x="174" 
d="M119 535q0 -14 -9 -24t-23 -10t-23 9.5t-9 24.5v144q0 15 9 24.5t22 9.5q14 0 23.5 -9.5t9.5 -24.5v-144v0z" />
    <glyph glyph-name="quotedblleft" unicode="&#x201c;" horiz-adv-x="340" 
d="M305 681q0 -6 -2 -12t-4 -11l-66 -138q-11 -21 -31 -21q-16 0 -25.5 10t-9.5 22q0 13 7 24l65 138q5 11 13.5 15.5t17.5 4.5q16 0 25.5 -9.5t9.5 -22.5zM174 681q0 -6 -2.5 -12t-4.5 -11l-65 -138q-5 -11 -14 -16t-18 -5q-15 0 -25 10t-10 22t6 24l66 138q10 20 32 20
q15 0 25 -9.5t10 -22.5z" />
    <glyph glyph-name="guillemotleft" unicode="&#xab;" horiz-adv-x="400" 
d="M355 100q0 -11 -8.5 -21t-22.5 -10q-20 0 -31 21l-91 156q-8 14 -8 23q0 6 3 13t8 15l90 152q10 18 29 18q14 0 22.5 -8.5t8.5 -19.5q0 -8 -8 -22l-87 -148l87 -147q8 -15 8 -22zM205 100q0 -11 -8 -21t-22 -10q-20 0 -31 21l-91 156q-8 14 -8 23q0 6 3 13t8 15l89 152
q11 18 30 18q14 0 22 -8.5t8 -19.5q0 -9 -7 -22l-87 -148l87 -147q5 -8 6 -12.5t1 -9.5z" />
    <glyph glyph-name="guilsinglleft" unicode="&#x2039;" horiz-adv-x="250" 
d="M205 100q0 -11 -8 -21t-23 -10q-11 0 -18 5.5t-13 15.5l-91 156q-7 13 -7 23q0 11 10 28l90 152q5 8 11.5 13t17.5 5q15 0 23 -8.5t8 -19.5q0 -9 -7 -22l-87 -148l86 -147q8 -15 8 -22z" />
    <glyph glyph-name="guilsinglright" unicode="&#x203a;" horiz-adv-x="250" 
d="M205 268q0 -6 -3 -13.5t-8 -14.5l-90 -152q-5 -8 -11.5 -13.5t-17.5 -5.5q-14 0 -22 9t-8 20q0 9 7 22l86 148l-86 147q-5 8 -6 12.5t-1 9.5q0 12 8 21t22 9q19 0 31 -20l91 -156q8 -14 8 -23z" />
    <glyph glyph-name="endash" unicode="&#x2013;" horiz-adv-x="470" 
d="M480 271q0 -12 -7.5 -21.5t-22.5 -9.5h-428q-17 0 -24.5 9.5t-7.5 21.5t7.5 21.5t23.5 9.5h428q16 0 23.5 -9.5t7.5 -21.5z" />
    <glyph glyph-name="dagger" unicode="&#x2020;" horiz-adv-x="621" 
d="M586 427q0 -15 -10 -24t-27 -9h-205v-565q0 -39 -34 -39q-33 0 -33 39v565h-205q-37 0 -37 33q0 32 37 32h205v214q0 40 33 40q34 0 34 -39v-215h205q37 0 37 -32z" />
    <glyph glyph-name="daggerdbl" unicode="&#x2021;" horiz-adv-x="621" 
d="M586 57q0 -14 -9.5 -23.5t-24.5 -9.5h-208v-198q0 -17 -10 -27t-24 -10t-23.5 10t-9.5 26v199h-209q-15 0 -24 9t-9 24q0 14 9 23t24 9h209v328h-209q-15 0 -24 9t-9 23q0 15 9 24t24 9h209v196q0 17 9.5 27t23.5 10t24 -10t10 -26v-197h208q15 0 24.5 -9t9.5 -23
t-9.5 -23.5t-24.5 -9.5h-208v-328h208q15 0 24.5 -9t9.5 -23z" />
    <glyph glyph-name="periodcentered" unicode="&#xb7;" horiz-adv-x="242" 
d="M166 313q0 -23 -12.5 -36t-32.5 -13t-32.5 12.5t-12.5 35.5t12.5 37t32.5 14t32.5 -13.5t12.5 -36.5z" />
    <glyph glyph-name="paragraph" unicode="&#xb6;" horiz-adv-x="590" 
d="M520 -175q0 -15 -9 -24.5t-23 -9.5t-23 9t-9 25v827h-132v-827q0 -15 -9 -24.5t-22 -9.5q-14 0 -23.5 9t-9.5 25v512q-99 0 -157 45.5t-58 139.5q0 47 15.5 81.5t44 57.5t69 34.5t89.5 11.5h215q23 0 32.5 -9t9.5 -31v-842v0z" />
    <glyph glyph-name="bullet" unicode="&#x2022;" horiz-adv-x="502" 
d="M417 355q0 -34 -13 -64t-35.5 -52.5t-53 -35.5t-64.5 -13t-64.5 13t-53 35.5t-35.5 52.5t-13 64t13 64.5t35.5 53t53 35.5t64.5 13t64.5 -13t53 -35.5t35.5 -53t13 -64.5z" />
    <glyph glyph-name="quotesinglbase" unicode="&#x201a;" horiz-adv-x="209" 
d="M172 61q0 -10 -7 -24l-64 -134q-5 -11 -13.5 -15.5t-17.5 -4.5q-16 0 -25.5 9.5t-9.5 21.5t6 24l64 135q10 20 32 20q15 0 25 -9.5t10 -22.5z" />
    <glyph glyph-name="quotedblbase" unicode="&#x201e;" horiz-adv-x="340" 
d="M305 61q0 -6 -2.5 -12t-4.5 -12l-64 -134q-5 -11 -13.5 -15.5t-17.5 -4.5q-16 0 -26 9.5t-10 21.5q0 6 2 12l4 12l64 135q10 20 32 20q15 0 25.5 -9.5t10.5 -22.5zM173 61q0 -6 -2.5 -12t-4.5 -12l-64 -134q-11 -20 -31 -20q-16 0 -26 9.5t-10 21.5q0 6 2 12l4 12l64 135
q10 20 32 20q15 0 25 -9.5t10 -22.5h1z" />
    <glyph glyph-name="quotedblright" unicode="&#x201d;" horiz-adv-x="340" 
d="M305 681q0 -6 -2 -12t-4 -11l-66 -138q-11 -21 -31 -21q-16 0 -25.5 10t-9.5 22q0 13 7 24l65 138q5 11 13.5 15.5t17.5 4.5q16 0 25.5 -9.5t9.5 -22.5zM174 681q0 -6 -2.5 -12t-4.5 -11l-65 -138q-5 -11 -14 -16t-18 -5q-15 0 -25 10t-10 22t6 24l66 138q10 20 32 20
q15 0 25 -9.5t10 -22.5z" />
    <glyph glyph-name="guillemotright" unicode="&#xbb;" horiz-adv-x="399" 
d="M354 268q0 -6 -3 -13.5t-8 -14.5l-90 -152q-5 -8 -11.5 -13.5t-17.5 -5.5q-14 0 -22.5 9t-8.5 20q0 8 8 22l87 149l-87 146q-8 13 -8 22q0 12 8.5 21t22.5 9q19 0 31 -20l91 -156q8 -14 8 -23zM205 268q0 -6 -3 -13.5t-8 -14.5l-90 -152q-5 -8 -11.5 -13.5t-17.5 -5.5
q-14 0 -22 9t-8 20q0 9 7 22l86 149l-86 146q-5 8 -6 12.5t-1 9.5q0 12 8 21t22 9q19 0 31 -20l91 -156q8 -14 8 -23z" />
    <glyph glyph-name="ellipsis" unicode="&#x2026;" horiz-adv-x="894" 
d="M824 47q0 -24 -12 -36.5t-32 -12.5t-32 12.5t-12 35.5q0 24 12 38t32 14t32 -14t12 -37zM491 47q0 -49 -44 -49q-20 0 -31.5 12.5t-11.5 35.5q0 24 11.5 38t31.5 14t32 -14t12 -37zM158 47q0 -24 -12 -36.5t-32 -12.5t-32 12.5t-12 35.5q0 24 12 38t32 14t32 -14t12 -37z
" />
    <glyph glyph-name="perthousand" unicode="&#x2030;" horiz-adv-x="1060" 
d="M1015 163q0 -43 -11 -74t-30 -51.5t-44.5 -30t-54.5 -9.5t-55 9.5t-45 30t-30 51.5t-11 73q0 45 11 77t30 52.5t45 30.5t55 10t54.5 -10t44.5 -30.5t30 -52.5t11 -76zM326 547q0 -43 -11 -74.5t-30 -51.5t-44.5 -30t-55.5 -10q-29 0 -54.5 10t-44.5 30t-30 51.5t-11 73.5
q0 45 11 77t30 52.5t44.5 30.5t54.5 10t54.5 -10t45 -30.5t30.5 -52.5t11 -76zM532 696q0 -8 -7 -23l-278 -664q-5 -10 -10.5 -16t-17.5 -6t-20.5 8t-8.5 19q0 5 2 10.5t5 13.5l276 663q9 22 29 22q13 0 21.5 -8t8.5 -19zM678 163q0 -43 -11 -74t-30 -51.5t-44.5 -30
t-54.5 -9.5t-55 9.5t-45 30t-30 51.5t-11 73q0 45 11 77t30 52.5t45 30.5t55 10t54.5 -10t44.5 -30.5t30 -52.5t11 -76zM958 163q0 60 -20.5 88t-62.5 28t-63 -27.5t-21 -88.5q0 -54 19.5 -83.5t64.5 -29.5t64 28t19 85zM269 547q0 116 -84 116q-42 0 -62.5 -28t-20.5 -88
q0 -54 19.5 -83.5t63.5 -29.5q45 0 64.5 28t19.5 85zM621 163q0 60 -20.5 88t-62.5 28t-63 -27.5t-21 -88.5q0 -54 19.5 -83.5t64.5 -29.5t64 28t19 85z" />
    <glyph glyph-name="questiondown" unicode="&#xbf;" horiz-adv-x="432" 
d="M407 -116q0 -18 -18 -30q-25 -16 -64 -28.5t-87 -12.5q-95 0 -146.5 43.5t-51.5 120.5q0 29 8.5 53t22 44.5t31 38.5t34.5 35l22 23q20 22 36 47t18 54q0 2 0.5 5.5t0.5 6.5v3q0 16 8.5 24t20.5 9q6 4 13 4q3 0 7 -2q9 -3 15 -11.5t6 -22.5v-7q0 -30 -8 -55t-21.5 -46
t-30 -39t-33.5 -34q-29 -29 -51 -58t-22 -66q0 -21 6.5 -39t21 -31.5t38 -21.5t57.5 -8q33 0 59.5 7.5t58.5 22.5q4 2 9 2.5t9 0.5q14 0 22.5 -9t8.5 -23zM288 486q0 -22 -11 -34.5t-30 -12.5q-18 0 -29 12.5t-11 33.5q0 47 40 47q19 0 30 -12t11 -34z" />
    <glyph glyph-name="grave" unicode="`" horiz-adv-x="259" 
d="M220 632q0 -11 -7.5 -21.5t-21.5 -10.5q-5 0 -9 1t-12 4l-147 60q-14 6 -18.5 13.5t-4.5 17.5q0 11 7.5 21.5t21.5 10.5q8 0 21 -5l147 -60q14 -6 18.5 -13.5t4.5 -17.5z" />
    <glyph glyph-name="acute" unicode="&#xb4;" horiz-adv-x="259" 
d="M217 694q0 -10 -4 -18t-19 -14l-145 -58q-6 -2 -11 -3.5t-11 -1.5q-13 0 -20.5 11t-7.5 23q0 8 3.5 15t16.5 12l148 60q13 6 22 6q12 0 20 -10.5t8 -21.5z" />
    <glyph glyph-name="circumflex" unicode="&#x2c6;" horiz-adv-x="259" 
d="M279 630q0 -11 -8.5 -21t-21.5 -10q-12 0 -24 7l-95 47l-94 -46q-5 -3 -12 -5.5t-13 -2.5q-13 0 -21.5 10t-8.5 21t5 18.5t21 14.5l123 55l123 -55q16 -7 21 -14.5t5 -18.5z" />
    <glyph glyph-name="tilde" unicode="&#x2dc;" horiz-adv-x="259" 
d="M277 674q0 -6 -2 -11.5t-4 -10.5q-27 -39 -75 -39q-17 0 -35 4.5t-36 11.5q-16 5 -29.5 8.5t-24.5 3.5q-12 0 -20 -4.5t-16 -12.5q-5 -4 -10.5 -7t-13.5 -3q-11 0 -19.5 8.5t-8.5 19.5q0 12 7 22q25 39 74 39q17 0 34.5 -4.5t36.5 -11.5q16 -5 29 -8.5t25 -3.5t20 4.5
t16 11.5q10 10 23 10q12 0 20.5 -8t8.5 -19z" />
    <glyph glyph-name="macron" unicode="&#xaf;" horiz-adv-x="259" 
d="M267 632q0 -16 -10.5 -24.5t-27.5 -8.5h-199q-17 0 -27.5 8.5t-10.5 24.5q0 15 10.5 24t27.5 9h199q17 0 27.5 -8.5t10.5 -24.5z" />
    <glyph glyph-name="breve" unicode="&#x2d8;" horiz-adv-x="259" 
d="M261 685q0 -22 -14 -39q-18 -23 -50 -35t-67 -12q-36 0 -68 12t-50 35q-6 8 -10 18t-4 21q0 14 6.5 22.5t18.5 8.5q11 0 18 -6.5t14 -15.5q11 -15 27 -26t48 -11t48 11t27 26q7 9 13.5 15.5t17.5 6.5q12 0 18.5 -8.5t6.5 -22.5z" />
    <glyph glyph-name="dotaccent" unicode="&#x2d9;" horiz-adv-x="259" 
d="M178 649q0 -22 -13.5 -36t-33.5 -14t-34.5 14t-14.5 35q0 22 14.5 36t34.5 14t33.5 -14t13.5 -35z" />
    <glyph glyph-name="dieresis" unicode="&#xa8;" horiz-adv-x="259" 
d="M246 647q0 -19 -13 -32t-32 -13t-32 13t-13 31q0 20 13 32.5t32 12.5t32 -12.5t13 -31.5zM54 647q0 -19 -13 -32t-32 -13t-32 13t-13 31q0 20 13 32.5t32 12.5t32 -12.5t13 -31.5z" />
    <glyph glyph-name="ring" unicode="&#x2da;" horiz-adv-x="259" 
d="M220 679q0 -38 -26.5 -64.5t-64.5 -26.5q-37 0 -63.5 26.5t-26.5 64.5t26 64.5t64 26.5t64.5 -26.5t26.5 -64.5zM182 679q0 22 -15.5 37.5t-37.5 15.5t-37 -15.5t-15 -37.5t15 -37.5t37 -15.5t37.5 15.5t15.5 37.5z" />
    <glyph glyph-name="cedilla" unicode="&#xb8;" horiz-adv-x="259" 
d="M217 -102q0 -42 -36 -64q-26 -17 -62 -17q-20 0 -38.5 4.5t-29.5 14.5q-9 7 -9 17q0 8 5.5 15t16.5 7q5 0 9 -1.5t9 -3.5q8 -4 17.5 -6.5t21.5 -2.5q17 0 28.5 8.5t11.5 23.5q0 18 -14.5 24t-28.5 6h-7t-6 -1q-3 0 -7 -0.5t-6 -0.5q-6 0 -10.5 4.5t-4.5 11.5q0 8 6 17
l32 46h43l-31 -43l2 -1q5 1 11 1.5t11 0.5q28 0 45 -14q21 -17 21 -46z" />
    <glyph glyph-name="hungarumlaut" unicode="&#x2dd;" horiz-adv-x="259" 
d="M380 699q0 -10 -4 -17.5t-19 -13.5l-139 -56q-9 -4 -13 -4.5t-9 -0.5q-12 0 -20 11t-8 23q0 8 4 15.5t17 12.5l141 56q15 6 22 6q12 0 20 -10.5t8 -21.5zM165 699q0 -10 -4.5 -17.5t-19.5 -13.5l-138 -56q-9 -4 -13 -4.5t-10 -0.5q-12 0 -20 11t-8 23q0 8 4 15.5t17 12.5
l141 56q15 6 23 6q11 0 19.5 -10.5t8.5 -21.5z" />
    <glyph glyph-name="ogonek" unicode="&#x2db;" horiz-adv-x="259" 
d="M212 -143q0 -12 -14 -21q-23 -17 -71 -17q-35 0 -57.5 16t-22.5 51t28 66q14 15 30.5 27t33.5 21h49q-16 -10 -30.5 -22.5t-26 -26t-18.5 -26.5t-7 -25q0 -16 9 -25.5t26 -9.5q9 0 16.5 2t14.5 5q5 2 9.5 3t9.5 1q11 0 16 -5.5t5 -13.5z" />
    <glyph glyph-name="caron" unicode="&#x2c7;" horiz-adv-x="259" 
d="M279 686q0 -10 -5 -18t-21 -15l-123 -54l-123 54q-16 7 -21 14.5t-5 18.5t8.5 21t21.5 10q12 0 24 -7l95 -46l94 46q5 2 12 4.5t13 2.5q13 0 21.5 -10t8.5 -21z" />
    <glyph glyph-name="emdash" unicode="&#x2014;" horiz-adv-x="1043" 
d="M1053 271q0 -12 -7.5 -21.5t-23.5 -9.5h-1001q-16 0 -23.5 9.5t-7.5 21.5t7.5 21.5t23.5 9.5h1001q15 0 23 -9.5t8 -21.5z" />
    <glyph glyph-name="AE" unicode="&#xc6;" horiz-adv-x="753" 
d="M713 36q0 -13 -9 -23t-26 -10h-258q-16 0 -26.5 10.5t-10.5 27.5v143h-222l-78 -153q-7 -13 -16.5 -22.5t-23.5 -9.5q-13 0 -23 8t-10 22q0 8 2.5 15t8.5 18l302 599q11 20 28.5 33t52.5 13h263q17 0 26.5 -10t9.5 -24q0 -13 -9.5 -23t-26.5 -10h-212v-250h200
q17 0 26.5 -10t9.5 -24t-9.5 -24t-26.5 -10h-200v-252h222q17 0 26.5 -10t9.5 -24zM383 637h-2l-190 -389h192v389z" />
    <glyph glyph-name="ordfeminine" unicode="&#xaa;" horiz-adv-x="400" 
d="M322 421q0 -12 -7 -20.5t-21 -8.5t-21 8.5t-7 20.5v23h-1q-14 -24 -41.5 -38t-56.5 -14q-62 0 -100.5 38.5t-38.5 122.5q0 83 40.5 122.5t101.5 39.5q30 0 54.5 -12t40.5 -36h1v16q0 12 7 20.5t21 8.5t21 -8.5t7 -20.5v-262zM266 554q0 51 -23 83.5t-68 32.5
q-90 0 -90 -116q0 -117 89 -117q45 0 68.5 32.5t23.5 84.5z" />
    <glyph glyph-name="Lslash" unicode="&#x141;" horiz-adv-x="459" 
d="M429 37q-1 -14 -11 -23.5t-26 -9.5h-240q-17 0 -27 10t-10 27v264l-51 -33q-9 -6 -18 -6q-14 0 -20 8.5t-6 19.5q0 20 22 33l73 45v299q0 19 10 29.5t27 10.5q16 0 26 -10.5t10 -29.5v-250l97 61q10 7 21 7t18.5 -8t7.5 -20q0 -11 -6 -18t-17 -14l-121 -76v-282h203
q18 0 28 -10.5t10 -23.5z" />
    <glyph glyph-name="Oslash" unicode="&#xd8;" horiz-adv-x="663" 
d="M628 701q0 -10 -8 -21l-68 -85q53 -89 53 -239q0 -180 -71 -270t-204 -91q-120 0 -189 75l-48 -61q-7 -8 -14 -13.5t-18 -5.5t-18.5 6.5t-7.5 17.5q0 10 8 21l64 81q-51 88 -51 240q0 176 71 267.5t203 91.5q120 0 188 -75l52 66q7 8 14 13.5t18 5.5t18.5 -6.5t7.5 -17.5
zM475 585q-50 63 -145 63q-98 0 -148 -68.5t-50 -222.5q0 -107 26 -176zM529 357q0 107 -26 174l-317 -404q47 -65 144 -65q100 0 149.5 70.5t49.5 224.5z" />
    <glyph glyph-name="OE" unicode="&#x152;" horiz-adv-x="887" 
d="M847 37q0 -13 -9.5 -23.5t-26.5 -10.5h-251q-40 0 -40 37v69q-64 -114 -201 -114q-133 1 -203.5 91t-70.5 270q0 176 71 267.5t203 91.5q139 0 201 -111v63q0 18 9.5 29t30.5 11h240q17 0 27 -10t10 -24t-10 -23.5t-27 -9.5h-211v-250h201q17 0 27 -10t10 -24t-10 -24
t-27 -10h-202v-252h223q17 0 26.5 -9.5t9.5 -23.5zM519 357q0 154 -49.5 222.5t-149.5 68.5q-98 0 -148 -68.5t-50 -222.5t49.5 -224.5t148.5 -70.5q100 0 149.5 70.5t49.5 224.5z" />
    <glyph glyph-name="ordmasculine" unicode="&#xba;" horiz-adv-x="394" 
d="M319 553q0 -77 -35 -119t-104 -42q-68 0 -105.5 39.5t-37.5 123.5q0 81 38 121t104 40q69 0 104.5 -42t35.5 -121zM261 553q0 59 -18.5 88t-62.5 29q-46 0 -66 -29t-20 -86q0 -59 20 -88t65 -29q43 0 62.5 29.5t19.5 85.5z" />
    <glyph glyph-name="ae" unicode="&#xe6;" horiz-adv-x="818" 
d="M778 294q0 -16 -9 -28.5t-33 -12.5h-304q1 -45 14 -81t37 -61.5t57 -39t74 -13.5t76 8q20 5 32 5q14 0 21 -8.5t7 -20.5q0 -19 -17 -28q-23 -12 -55 -15.5t-65 -3.5q-78 0 -131.5 31.5t-80.5 91.5q-16 -35 -39 -59t-49.5 -38t-55 -20t-55.5 -6q-43 0 -73.5 12.5t-50 33.5
t-29 48.5t-9.5 58.5q0 35 12.5 64.5t37 50.5t62.5 32.5t89 11.5h120v53q0 50 -27 77.5t-93 27.5q-26 0 -45.5 -2t-37.5 -5q-11 -2 -22.5 -3.5t-23.5 -1.5q-11 0 -20 7.5t-9 23.5q0 26 31 34q29 8 61 11.5t68 3.5q76 0 113.5 -27.5t48.5 -73.5q23 49 66 76t102 27
q109 0 157 -63t48 -178zM705 309q0 83 -30.5 124t-102.5 41q-67 0 -101 -42.5t-38 -122.5h272zM361 253h-105q-75 0 -110 -25.5t-35 -80.5q0 -17 5.5 -33t17.5 -29t31 -20.5t47 -7.5q35 0 62.5 11t47 29t29.5 42.5t10 51.5v62z" />
    <glyph glyph-name="dotlessi" unicode="&#x131;" horiz-adv-x="238" 
d="M155 40q0 -19 -9.5 -30t-26.5 -11q-16 0 -25.5 11t-9.5 30v450q0 20 9.5 30.5t25.5 10.5q17 0 26.5 -10.5t9.5 -30.5v-450v0z" />
    <glyph glyph-name="lslash" unicode="&#x142;" horiz-adv-x="288" 
d="M268 477q0 -16 -16 -29l-72 -61v-346q0 -20 -10 -31t-26 -11t-25.5 11t-9.5 31v283l-39 -31q-7 -5 -12 -8t-11 -3q-13 0 -20 7t-7 18q0 8 4.5 14.5t12.5 13.5l71 62v327q0 19 10 30t26 11t25.5 -11t9.5 -30v-264l39 31q6 5 12 8t13 3q25 0 25 -25z" />
    <glyph glyph-name="oslash" unicode="&#xf8;" horiz-adv-x="579" 
d="M529 530q0 -6 -2 -10t-6 -9l-51 -64q43 -68 43 -181q0 -71 -15.5 -122t-44.5 -84t-70 -49t-92 -16q-94 0 -148 48l-39 -48q-7 -8 -13 -12.5t-16 -4.5q-11 0 -18 6t-7 16t9 19l51 63q-42 66 -42 184q0 136 60 203t162 67q90 0 146 -50l40 50q6 7 12 11.5t17 4.5
q10 0 17 -6.5t7 -15.5zM393 433q-38 39 -102 39q-73 0 -111.5 -49.5t-38.5 -156.5q0 -77 19 -122zM440 266q0 74 -20 120l-234 -289q36 -41 104 -41q74 0 112 52t38 158z" />
    <glyph glyph-name="oe" unicode="&#x153;" horiz-adv-x="867" 
d="M827 289q0 -16 -8.5 -28.5t-32.5 -12.5h-304q1 -48 15.5 -83.5t39.5 -59t57.5 -35.5t69.5 -12q43 0 76 9q9 2 17.5 3.5t13.5 1.5q14 0 21.5 -9t7.5 -21q0 -18 -18 -29q-23 -11 -55 -14.5t-64 -3.5q-78 0 -132.5 31.5t-83.5 91.5q-24 -63 -71.5 -93t-113.5 -30
q-52 0 -93 16t-69.5 49t-44 84t-15.5 122q0 136 60.5 203t162.5 67q65 0 111.5 -27t70.5 -87q24 60 69.5 87t108.5 27q108 0 156 -66t48 -181zM755 304q0 83 -30 126.5t-103 43.5q-69 0 -103 -44.5t-36 -125.5h272zM412 266q0 107 -37 156.5t-112 49.5q-72 0 -110.5 -49.5
t-38.5 -156.5q0 -106 36 -158t113 -52q149 0 149 210z" />
    <glyph glyph-name="germandbls" unicode="&#xdf;" horiz-adv-x="543" 
d="M503 215q0 -41 -12 -80t-35.5 -69.5t-58.5 -49t-81 -18.5q-7 0 -15 0.5t-14 1.5q-29 8 -29 32q0 15 9.5 24t32.5 10q8 1 17 1.5t18 2.5q48 10 71 52.5t23 96.5q0 75 -34 112.5t-100 48.5q-21 4 -27.5 11.5t-6.5 19.5q0 11 4 17.5t16 11.5q97 28 97 135q0 24 -7 46.5
t-21.5 40t-37 28.5t-52.5 11q-32 0 -54.5 -10.5t-36.5 -30t-20.5 -46.5t-6.5 -59v-515q0 -19 -10 -30t-26 -11t-26 11t-10 30v519q0 102 52 155t138 53q44 0 79 -15t59.5 -40.5t37.5 -60.5t13 -75q0 -51 -20 -91.5t-63 -63.5q37 -10 63.5 -30t42.5 -47.5t23.5 -60.5t7.5 -68
z" />
    <glyph glyph-name="logicalnot" unicode="&#xac;" 
d="M518 138q0 -15 -9 -24.5t-23 -9.5t-23 9.5t-9 24.5v185h-402q-16 0 -25 9t-9 23t9 23t25 9h427q39 0 39 -39v-210v0z" />
    <glyph glyph-name="mu" unicode="&#xb5;" horiz-adv-x="547" 
d="M471 35q0 -16 -10.5 -26t-25.5 -10q-14 0 -25 9t-11 24v23h-1q-20 -31 -53 -45.5t-76 -14.5q-41 0 -73.5 15t-53.5 47h-1v-225q0 -20 -9.5 -30.5t-25.5 -10.5q-17 0 -27 10.5t-10 30.5v658q0 20 9.5 30.5t25.5 10.5q17 0 27 -10.5t10 -30.5v-324q0 -52 35.5 -81t92.5 -29
q60 0 95 30.5t35 85.5v318q0 20 10 30.5t26 10.5t26 -10.5t10 -30.5v-455v0z" />
    <glyph glyph-name="trademark" unicode="&#x2122;" horiz-adv-x="925" 
d="M865 337q0 -15 -8 -24.5t-22 -9.5q-31 0 -31 34v293h-2l-119 -297q-6 -16 -13 -23t-21 -7q-25 0 -36 30l-119 297h-2v-293q0 -15 -7 -24.5t-22 -9.5q-31 0 -31 34v327q0 47 49 47q17 0 31 -7.5t25 -33.5l112 -272l111 272q11 26 25 33.5t31 7.5q49 0 49 -47v-327z
M351 680q0 -11 -7.5 -19t-21.5 -8h-100v-316q0 -15 -8.5 -24t-22.5 -9t-23 9t-9 24v316h-101q-14 0 -21 8t-7 19t7 19t21 8h264q14 0 21.5 -8t7.5 -19z" />
    <glyph glyph-name="Eth" unicode="&#xd0;" horiz-adv-x="608" 
d="M563 362q0 -92 -20.5 -159.5t-58 -111.5t-90.5 -66t-118 -22h-157q-17 0 -29 9t-12 28v289h-38q-16 0 -25.5 9t-9.5 22q0 12 9.5 21.5t25.5 9.5h38v278q0 17 10 27.5t30 10.5h157q142 0 215 -90t73 -255zM487 361q0 64 -11 115.5t-36 88t-67 56t-103 19.5h-120v-249h141
q16 0 25.5 -9t9.5 -22t-9 -22t-26 -9h-141v-259h122q115 0 165 74.5t50 216.5z" />
    <glyph glyph-name="onehalf" unicode="&#xbd;" horiz-adv-x="765" 
d="M720 31q0 -28 -30 -28h-192q-15 0 -22.5 7.5t-7.5 19.5q0 14 10 27l129 167q21 27 31.5 48t10.5 41q0 26 -15.5 42t-47.5 16q-15 0 -30 -3.5t-28 -8.5q-17 -6 -27 -6t-17 6.5t-7 19.5q0 9 4.5 14.5t11.5 10.5q21 12 49.5 17t49.5 5q56 0 86.5 -31t30.5 -79q0 -33 -15 -63
t-44 -66l-104 -129h143q31 0 31 -27zM514 698q0 -8 -7 -25l-276 -663q-9 -21 -28 -21q-12 0 -20 7.5t-8 18.5q0 10 7 25l275 662q9 21 28 21q29 0 29 -25zM183 316q0 -13 -7 -21t-21 -8t-21.5 8t-7.5 21v337h-54q-12 0 -19.5 7t-7.5 20q0 14 7.5 20.5t19.5 6.5h86
q25 0 25 -24v-367z" />
    <glyph glyph-name="plusminus" unicode="&#xb1;" 
d="M517 311q0 -14 -9.5 -23t-24.5 -9h-183v-125q0 -15 -9 -24.5t-23 -9.5t-23 9.5t-9 24.5v125h-183q-15 0 -24.5 8.5t-9.5 22.5t9.5 23t24.5 9h183v127q0 15 9 24.5t23 9.5t22.5 -9.5t8.5 -24.5v-127h184q15 0 24.5 -8.5t9.5 -22.5zM517 38q0 -14 -9.5 -23t-24.5 -9h-430
q-15 0 -24.5 9t-9.5 23t9.5 23t24.5 9h430q15 0 24.5 -9t9.5 -23z" />
    <glyph glyph-name="Thorn" unicode="&#xde;" horiz-adv-x="510" 
d="M475 369q0 -108 -56 -161.5t-162 -53.5h-115v-114q0 -20 -10 -30.5t-26 -10.5q-17 0 -26.5 10.5t-9.5 30.5v628q0 20 9.5 30.5t26.5 10.5t26.5 -10.5t9.5 -30.5v-95h113q108 0 164 -52t56 -152zM397 369q0 77 -38.5 107.5t-105.5 30.5h-111v-287h110q43 0 71 11
t44.5 30.5t23 47t6.5 60.5z" />
    <glyph glyph-name="onequarter" unicode="&#xbc;" horiz-adv-x="735" 
d="M690 132q0 -12 -7.5 -19t-18.5 -7h-25v-80q0 -11 -7.5 -19t-21.5 -8t-21 8t-7 19v80h-171q-14 0 -20 7t-6 18q0 13 9 27l157 244q16 24 46 24q17 0 29 -9.5t12 -30.5v-227h25q11 0 19 -7t8 -20zM513 698q0 -8 -7 -25l-276 -663q-9 -21 -28 -21q-11 0 -19.5 7.5t-8.5 18.5
q0 10 7 25l275 662q9 21 29 21q28 0 28 -25zM183 316q0 -13 -7.5 -21t-21.5 -8t-21.5 8t-7.5 21v337h-53q-27 0 -27 27t27 27h85q26 0 26 -24v-367zM582 362l-131 -203h131v203z" />
    <glyph glyph-name="divide" unicode="&#xf7;" 
d="M322 463q0 -24 -15.5 -40t-38.5 -16t-39 15.5t-16 40.5q0 23 16 39.5t39 16.5t38.5 -16t15.5 -40zM518 252q0 -14 -9 -22.5t-25 -8.5h-432q-16 0 -25 8.5t-9 22.5t9 23t25 9h432q16 0 25 -9t9 -23zM322 45q0 -24 -15.5 -40t-38.5 -16t-39 15.5t-16 39.5t16 40.5t39 16.5
t38.5 -16.5t15.5 -39.5z" />
    <glyph glyph-name="brokenbar" unicode="&#xa6;" horiz-adv-x="205" 
d="M135 511q0 -15 -9 -25t-23 -10t-23.5 10t-9.5 25v220q0 15 9 24.5t23 9.5t23.5 -9t9.5 -25v-220zM135 32q0 -15 -9 -24.5t-23 -9.5t-23.5 9.5t-9.5 24.5v220q0 16 9 25.5t23 9.5t23.5 -9.5t9.5 -24.5v-221z" />
    <glyph glyph-name="degree" unicode="&#xb0;" horiz-adv-x="362" 
d="M322 572q0 -30 -11 -56t-30 -44.5t-44.5 -29.5t-55.5 -11q-31 0 -57 11.5t-44.5 31t-29 45.5t-10.5 55q0 30 11 56t30.5 45t45 30t55.5 11q31 0 57 -11.5t44.5 -31t28.5 -46t10 -55.5zM276 572q0 40 -26 68.5t-68 28.5q-40 0 -67.5 -27.5t-27.5 -67.5q0 -20 7 -37.5
t19.5 -30.5t29.5 -21t38 -8q20 0 37.5 7.5t30 20.5t20 30t7.5 37z" />
    <glyph glyph-name="thorn" unicode="&#xfe;" horiz-adv-x="556" 
d="M516 263q0 -60 -14.5 -109.5t-42 -84.5t-67 -54.5t-89.5 -19.5q-45 0 -89 19t-72 61h-1v-243q0 -19 -9.5 -30.5t-26.5 -11.5t-26 11.5t-9 30.5v891q0 20 9 31t26 11t26.5 -11.5t9.5 -29.5v-278h1q25 41 66 65t97 24q51 0 90 -20t66 -56t41 -86t14 -110zM443 264
q0 40 -8 77.5t-25 66t-45.5 45.5t-68.5 17q-30 0 -58 -12t-50 -33.5t-35 -52.5t-13 -68v-90q0 -36 13 -65.5t35 -50t50 -31.5t57 -11q39 0 67 17t46 46t26.5 66.5t8.5 78.5z" />
    <glyph glyph-name="threequarters" unicode="&#xbe;" horiz-adv-x="783" 
d="M738 132q0 -12 -7.5 -19t-18.5 -7h-25v-80q0 -11 -7 -19t-21 -8t-21.5 8t-7.5 19v80h-170q-15 0 -21 7t-6 18q0 12 10 27l156 244q16 24 46 24q17 0 29.5 -9.5t12.5 -30.5v-227h25q11 0 18.5 -7t7.5 -20zM562 698q0 -8 -7 -25l-276 -663q-9 -21 -28 -21q-11 0 -19.5 7.5
t-8.5 18.5q0 10 7 25l275 662q9 21 29 21q28 0 28 -25zM282 414q0 -56 -35.5 -91.5t-101.5 -35.5q-27 0 -50 3.5t-40 14.5q-5 3 -7.5 7.5t-2.5 12.5q0 12 7.5 18.5t18.5 6.5q3 0 8 -0.5t10 -2.5q24 -7 57 -7q39 0 59.5 20.5t20.5 54.5q0 70 -85 70h-14q-27 0 -27 26
q0 11 7 19t20 8h14q38 0 55.5 19.5t17.5 48.5q0 28 -16.5 42.5t-45.5 14.5q-16 0 -30 -3.5t-29 -10.5q-9 -3 -15 -3q-24 0 -24 25q0 16 19 26q35 19 80 19q60 0 88.5 -30t28.5 -78q0 -29 -16.5 -54t-42.5 -37q40 -13 55.5 -41.5t15.5 -61.5zM630 362l-131 -203h131v203z" />
    <glyph glyph-name="registered" unicode="&#xae;" horiz-adv-x="806" 
d="M761 355q0 -78 -28 -144.5t-76.5 -114.5t-114 -75t-139.5 -27q-76 0 -141.5 27t-113.5 75t-75.5 114.5t-27.5 144.5t28 144.5t76.5 114.5t114 75t139.5 27q76 0 141.5 -27t113.5 -75t75.5 -114.5t27.5 -144.5zM703 355q0 67 -22.5 123t-62.5 96.5t-95 63t-120 22.5
q-63 0 -118 -22.5t-95.5 -63t-63.5 -96.5t-23 -123t22.5 -123.5t63 -97t95 -63t119.5 -22.5q63 0 117.5 22.5t95 63t64 97t23.5 123.5zM566 439q0 -51 -29 -79.5t-74 -32.5l88 -140q9 -14 9 -23q0 -11 -7.5 -17.5t-18.5 -6.5t-18 6t-12 14l-100 164h-78v-150q0 -14 -7 -24
t-21 -10t-20.5 9.5t-6.5 23.5v359q0 10 4.5 16t18.5 6h132q66 0 103 -29.5t37 -85.5zM511 439q0 21 -7.5 34.5t-20 21t-28.5 10.5t-32 3h-97v-138h90q18 0 35.5 2.5t30.5 9.5t21 20.5t8 36.5z" />
    <glyph glyph-name="minus" unicode="&#x2212;" 
d="M516 253q0 -14 -9.5 -23t-24.5 -9h-429q-15 0 -24.5 9t-9.5 23t9.5 23t24.5 9h429q15 0 24.5 -9t9.5 -23z" />
    <glyph glyph-name="eth" unicode="&#xf0;" horiz-adv-x="527" 
d="M487 282q0 -78 -19.5 -132.5t-51 -88.5t-72 -49.5t-82.5 -15.5q-51 0 -92 17.5t-70 51t-44.5 83.5t-15.5 115q0 132 57.5 198t160.5 66q38 0 76.5 -19.5t64.5 -57.5l2 1q-20 54 -55.5 105.5t-82.5 87.5l-99 -50q-10 -5 -15.5 -7.5t-10.5 -2.5q-9 0 -15 6t-6 16t5.5 15
t13.5 10l87 45q-15 11 -36 21.5t-39 18.5q-11 5 -15.5 10t-4.5 16q0 12 8 19.5t22 7.5q7 0 16 -2.5t17 -5.5q25 -9 50.5 -23t47.5 -29l86 45q10 5 15 6t8 1q10 0 16 -6t6 -15q0 -14 -18 -24l-76 -39q88 -78 124.5 -179t36.5 -216zM416 263q0 41 -9.5 78t-28.5 64.5t-48 44
t-68 16.5q-77 0 -112.5 -51.5t-35.5 -151.5t38 -153.5t110 -53.5q42 0 71.5 17.5t48 46t26.5 66t8 77.5z" />
    <glyph glyph-name="multiply" unicode="&#xd7;" 
d="M492 61q0 -14 -9.5 -22.5t-22.5 -8.5q-6 0 -12.5 3t-11.5 8l-168 169l-168 -169q-11 -11 -25 -11q-12 0 -21.5 8.5t-9.5 22.5q0 6 2 12t10 13l168 167l-168 168q-12 12 -12 25q0 14 9 22.5t22 8.5t24 -11l169 -169l168 169q11 11 24 11q14 0 23 -8.5t9 -22.5
q0 -12 -13 -25l-167 -168l167 -167q8 -8 10.5 -13t2.5 -12z" />
    <glyph glyph-name="copyright" unicode="&#xa9;" horiz-adv-x="806" 
d="M761 355q0 -78 -28 -144.5t-76.5 -114.5t-114 -75t-139.5 -27q-76 0 -141.5 27t-113.5 75t-75.5 114.5t-27.5 144.5t28 144.5t76.5 114.5t114 75t139.5 27q76 0 141.5 -27t113.5 -75t75.5 -114.5t27.5 -144.5zM703 355q0 67 -22.5 123t-62.5 96.5t-95 63t-120 22.5
q-63 0 -118 -22.5t-95.5 -63t-63.5 -96.5t-23 -123t22.5 -123.5t63 -97t95 -63t119.5 -22.5q63 0 117.5 22.5t95 63t64 97t23.5 123.5zM545 179q0 -9 -4.5 -14.5t-11.5 -9.5q-18 -9 -44.5 -14t-54.5 -5q-43 0 -81.5 11.5t-67.5 37.5t-46 67.5t-17 100.5t17 100t46 67
t67.5 38t81.5 12q28 0 54.5 -4t44.5 -14q7 -4 11.5 -10t4.5 -15q0 -11 -7 -18.5t-18 -7.5q-9 0 -26 4q-29 8 -63 8q-32 0 -59.5 -7.5t-47.5 -26t-32 -49.5t-12 -77t12 -77t32 -49.5t47.5 -26t59.5 -7.5q17 0 33 1.5t30 5.5q10 3 15.5 4t10.5 1q11 0 18 -7.5t7 -18.5z" />
    <glyph glyph-name="Aacute" unicode="&#xc1;" horiz-adv-x="599" 
d="M584 30q0 -13 -9 -22t-24 -9q-17 0 -24.5 8t-12.5 20l-61 167h-308l-60 -166q-5 -13 -12.5 -21t-23.5 -8q-15 0 -24.5 9t-9.5 22q0 5 2 11t4 13l224 615q6 17 18 30t38 13q27 0 39 -13t18 -30l221 -615q5 -15 5 -24zM301 628h-2l-132 -370h266zM472 864q0 -10 -4 -18
t-19 -14l-145 -58q-6 -2 -11 -3.5t-11 -1.5q-13 0 -20.5 11t-7.5 23q0 8 3.5 15t16.5 12l148 60q13 6 22 6q12 0 20 -10.5t8 -21.5z" />
    <glyph glyph-name="Acircumflex" unicode="&#xc2;" horiz-adv-x="599" 
d="M584 30q0 -13 -9 -22t-24 -9q-17 0 -24.5 8t-12.5 20l-61 167h-308l-60 -166q-5 -13 -12.5 -21t-23.5 -8q-15 0 -24.5 9t-9.5 22q0 5 2 11t4 13l224 615q6 17 18 30t38 13q27 0 39 -13t18 -30l221 -615q5 -15 5 -24zM301 628h-2l-132 -370h266zM448 796q0 -11 -8.5 -21
t-21.5 -10q-12 0 -24 7l-95 47l-94 -46q-5 -3 -12 -5.5t-13 -2.5q-13 0 -21.5 10t-8.5 21t5 18.5t21 14.5l123 55l123 -55q16 -7 21 -14.5t5 -18.5z" />
    <glyph glyph-name="Adieresis" unicode="&#xc4;" horiz-adv-x="599" 
d="M584 30q0 -13 -9 -22t-24 -9q-17 0 -24.5 8t-12.5 20l-61 167h-308l-60 -166q-5 -13 -12.5 -21t-23.5 -8q-15 0 -24.5 9t-9.5 22q0 5 2 11t4 13l224 615q6 17 18 30t38 13q27 0 39 -13t18 -30l221 -615q5 -15 5 -24zM301 628h-2l-132 -370h266zM440 814q0 -19 -13 -32
t-32 -13t-32 13t-13 31q0 20 13 32.5t32 12.5t32 -12.5t13 -31.5zM248 814q0 -19 -13 -32t-32 -13t-32 13t-13 31q0 20 13 32.5t32 12.5t32 -12.5t13 -31.5z" />
    <glyph glyph-name="Agrave" unicode="&#xc0;" horiz-adv-x="599" 
d="M584 30q0 -13 -9 -22t-24 -9q-17 0 -24.5 8t-12.5 20l-61 167h-308l-60 -166q-5 -13 -12.5 -21t-23.5 -8q-15 0 -24.5 9t-9.5 22q0 5 2 11t4 13l224 615q6 17 18 30t38 13q27 0 39 -13t18 -30l221 -615q5 -15 5 -24zM301 628h-2l-132 -370h266zM347 799q0 -11 -7.5 -21.5
t-21.5 -10.5q-5 0 -9 1t-12 4l-147 60q-14 6 -18.5 13.5t-4.5 17.5q0 11 7.5 21.5t21.5 10.5q8 0 21 -5l147 -60q14 -6 18.5 -13.5t4.5 -17.5z" />
    <glyph glyph-name="Aring" unicode="&#xc5;" horiz-adv-x="599" 
d="M584 30q0 -13 -9 -22t-24 -9q-17 0 -24.5 8t-12.5 20l-61 167h-308l-60 -166q-5 -13 -12.5 -21t-23.5 -8q-15 0 -24.5 9t-9.5 22q0 5 2 11t4 13l224 615q6 17 18 30t38 13q27 0 39 -13t18 -30l221 -615q5 -15 5 -24zM301 628h-2l-132 -370h266zM390 820
q0 -38 -26.5 -64.5t-64.5 -26.5q-37 0 -63.5 26.5t-26.5 64.5t26 64.5t64 26.5t64.5 -26.5t26.5 -64.5zM352 820q0 22 -15.5 37.5t-37.5 15.5t-37 -15.5t-15 -37.5t15 -37.5t37 -15.5t37.5 15.5t15.5 37.5z" />
    <glyph glyph-name="Atilde" unicode="&#xc3;" horiz-adv-x="599" 
d="M584 30q0 -13 -9 -22t-24 -9q-17 0 -24.5 8t-12.5 20l-61 167h-308l-60 -166q-5 -13 -12.5 -21t-23.5 -8q-15 0 -24.5 9t-9.5 22q0 5 2 11t4 13l224 615q6 17 18 30t38 13q27 0 39 -13t18 -30l221 -615q5 -15 5 -24zM301 628h-2l-132 -370h266zM447 841q0 -6 -2 -11.5
t-4 -10.5q-27 -39 -75 -39q-17 0 -35 4.5t-36 11.5q-16 5 -29.5 8.5t-24.5 3.5q-12 0 -20 -4.5t-16 -12.5q-5 -4 -10.5 -7t-13.5 -3q-11 0 -19.5 8.5t-8.5 19.5q0 12 7 22q25 39 74 39q17 0 34.5 -4.5t36.5 -11.5q16 -5 29 -8.5t25 -3.5t20 4.5t16 11.5q10 10 23 10
q12 0 20.5 -8t8.5 -19z" />
    <glyph glyph-name="Ccedilla" unicode="&#xc7;" horiz-adv-x="527" 
d="M385 -102q0 -42 -36 -64q-26 -17 -62 -17q-20 0 -38.5 4.5t-29.5 14.5q-9 7 -9 17q0 8 5.5 15t16.5 7q5 0 9 -1.5t9 -3.5q8 -4 17.5 -6.5t21.5 -2.5q17 0 28.5 8.5t11.5 23.5q0 18 -14.5 24t-28.5 6h-7t-6 -1q-3 0 -7 -0.5t-6 -0.5q-6 0 -10.5 4.5t-4.5 11.5q0 8 6 17
l31 44q-55 7 -99 31t-74.5 68t-47 108.5t-16.5 152.5q0 91 21 158.5t59.5 111.5t92.5 65.5t120 21.5q38 0 71 -5.5t58 -18.5q21 -11 21 -29q0 -15 -8.5 -24t-22.5 -9q-7 0 -13 1.5t-17 4.5q-23 6 -44.5 9t-44.5 3q-112 0 -164 -75t-52 -215q0 -152 54.5 -223.5t164.5 -71.5
q22 0 45.5 4t45.5 9q15 4 28 4t22.5 -7.5t9.5 -22.5q0 -23 -23 -34q-26 -11 -61.5 -15.5t-73.5 -4.5h-11l-28 -38l2 -1q5 1 11 1.5t11 0.5q28 0 45 -14q21 -17 21 -46z" />
    <glyph glyph-name="Eacute" unicode="&#xc9;" horiz-adv-x="442" 
d="M402 37q0 -13 -10 -23.5t-27 -10.5h-254q-41 0 -41 37v627q0 18 10 29t31 11h244q17 0 26.5 -10t9.5 -24t-9.5 -23.5t-26.5 -9.5h-212v-250h202q17 0 27 -10t10 -24t-10 -24t-27 -10h-202v-252h222q17 0 27 -9.5t10 -23.5zM355 864q0 -10 -4 -18t-19 -14l-145 -58
q-6 -2 -11 -3.5t-11 -1.5q-13 0 -20.5 11t-7.5 23q0 8 3.5 15t16.5 12l148 60q13 6 22 6q12 0 20 -10.5t8 -21.5z" />
    <glyph glyph-name="Ecircumflex" unicode="&#xca;" horiz-adv-x="442" 
d="M402 37q0 -13 -10 -23.5t-27 -10.5h-254q-41 0 -41 37v627q0 18 10 29t31 11h244q17 0 26.5 -10t9.5 -24t-9.5 -23.5t-26.5 -9.5h-212v-250h202q17 0 27 -10t10 -24t-10 -24t-27 -10h-202v-252h222q17 0 27 -9.5t10 -23.5zM376 796q0 -11 -8.5 -21t-21.5 -10q-12 0 -24 7
l-95 47l-94 -46q-5 -3 -12 -5.5t-13 -2.5q-13 0 -21.5 10t-8.5 21t5 18.5t21 14.5l123 55l123 -55q16 -7 21 -14.5t5 -18.5z" />
    <glyph glyph-name="Edieresis" unicode="&#xcb;" horiz-adv-x="442" 
d="M402 37q0 -13 -10 -23.5t-27 -10.5h-254q-41 0 -41 37v627q0 18 10 29t31 11h244q17 0 26.5 -10t9.5 -24t-9.5 -23.5t-26.5 -9.5h-212v-250h202q17 0 27 -10t10 -24t-10 -24t-27 -10h-202v-252h222q17 0 27 -9.5t10 -23.5zM375 814q0 -19 -13 -32t-32 -13t-32 13t-13 31
q0 20 13 32.5t32 12.5t32 -12.5t13 -31.5zM183 814q0 -19 -13 -32t-32 -13t-32 13t-13 31q0 20 13 32.5t32 12.5t32 -12.5t13 -31.5z" />
    <glyph glyph-name="Egrave" unicode="&#xc8;" horiz-adv-x="442" 
d="M402 37q0 -13 -10 -23.5t-27 -10.5h-254q-41 0 -41 37v627q0 18 10 29t31 11h244q17 0 26.5 -10t9.5 -24t-9.5 -23.5t-26.5 -9.5h-212v-250h202q17 0 27 -10t10 -24t-10 -24t-27 -10h-202v-252h222q17 0 27 -9.5t10 -23.5zM317 799q0 -11 -7.5 -21.5t-21.5 -10.5
q-5 0 -9 1t-12 4l-147 60q-14 6 -18.5 13.5t-4.5 17.5q0 11 7.5 21.5t21.5 10.5q8 0 21 -5l147 -60q14 -6 18.5 -13.5t4.5 -17.5z" />
    <glyph glyph-name="Iacute" unicode="&#xcd;" horiz-adv-x="227" 
d="M150 40q0 -20 -10 -30.5t-26 -10.5q-17 0 -27 10.5t-10 30.5v631q0 19 10 29.5t27 10.5q16 0 26 -10.5t10 -29.5v-631v0zM255 864q0 -10 -4 -18t-19 -14l-145 -58q-6 -2 -11 -3.5t-11 -1.5q-13 0 -20.5 11t-7.5 23q0 8 3.5 15t16.5 12l148 60q13 6 22 6q12 0 20 -10.5
t8 -21.5z" />
    <glyph glyph-name="Icircumflex" unicode="&#xce;" horiz-adv-x="227" 
d="M150 40q0 -20 -10 -30.5t-26 -10.5q-17 0 -27 10.5t-10 30.5v631q0 19 10 29.5t27 10.5q16 0 26 -10.5t10 -29.5v-631v0zM263 796q0 -11 -8.5 -21t-21.5 -10q-12 0 -24 7l-95 47l-94 -46q-5 -3 -12 -5.5t-13 -2.5q-13 0 -21.5 10t-8.5 21t5 18.5t21 14.5l123 55l123 -55
q16 -7 21 -14.5t5 -18.5z" />
    <glyph glyph-name="Idieresis" unicode="&#xcf;" horiz-adv-x="227" 
d="M150 40q0 -20 -10 -30.5t-26 -10.5q-17 0 -27 10.5t-10 30.5v631q0 19 10 29.5t27 10.5q16 0 26 -10.5t10 -29.5v-631v0zM255 814q0 -19 -13 -32t-32 -13t-32 13t-13 31q0 20 13 32.5t32 12.5t32 -12.5t13 -31.5zM63 814q0 -19 -13 -32t-32 -13t-32 13t-13 31
q0 20 13 32.5t32 12.5t32 -12.5t13 -31.5z" />
    <glyph glyph-name="Igrave" unicode="&#xcc;" horiz-adv-x="227" 
d="M150 40q0 -20 -10 -30.5t-26 -10.5q-17 0 -27 10.5t-10 30.5v631q0 19 10 29.5t27 10.5q16 0 26 -10.5t10 -29.5v-631v0zM199 799q0 -11 -7.5 -21.5t-21.5 -10.5q-5 0 -9 1t-12 4l-147 60q-14 6 -18.5 13.5t-4.5 17.5q0 11 7.5 21.5t21.5 10.5q8 0 21 -5l147 -60
q14 -6 18.5 -13.5t4.5 -17.5z" />
    <glyph glyph-name="Ntilde" unicode="&#xd1;" horiz-adv-x="641" 
d="M571 40q0 -22 -11.5 -31.5t-28.5 -9.5q-13 0 -25.5 5t-20.5 19l-347 570h-2v-553q0 -41 -31 -41q-35 0 -35 41v630q0 21 13.5 31t30.5 10q20 0 29.5 -7.5t14.5 -16.5l345 -570h2v554q0 40 31 40q35 0 35 -40v-631v0zM450 841q0 -6 -2 -11.5t-4 -10.5q-27 -39 -75 -39
q-17 0 -35 4.5t-36 11.5q-16 5 -29.5 8.5t-24.5 3.5q-12 0 -20 -4.5t-16 -12.5q-5 -4 -10.5 -7t-13.5 -3q-11 0 -19.5 8.5t-8.5 19.5q0 12 7 22q25 39 74 39q17 0 34.5 -4.5t36.5 -11.5q16 -5 29 -8.5t25 -3.5t20 4.5t16 11.5q10 10 23 10q12 0 20.5 -8t8.5 -19z" />
    <glyph glyph-name="Oacute" unicode="&#xd3;" horiz-adv-x="643" 
d="M598 356q0 -180 -71.5 -270.5t-206.5 -90.5q-134 0 -204.5 90.5t-70.5 270.5q0 176 70.5 267.5t204.5 91.5q136 0 207 -91t71 -268zM520 357q0 154 -49.5 222.5t-149.5 68.5q-98 0 -148 -68.5t-50 -222.5t49.5 -224.5t148.5 -70.5q100 0 149.5 70.5t49.5 224.5zM476 864
q0 -10 -4 -18t-19 -14l-145 -58q-6 -2 -11 -3.5t-11 -1.5q-13 0 -20.5 11t-7.5 23q0 8 3.5 15t16.5 12l148 60q13 6 22 6q12 0 20 -10.5t8 -21.5z" />
    <glyph glyph-name="Ocircumflex" unicode="&#xd4;" horiz-adv-x="643" 
d="M598 356q0 -180 -71.5 -270.5t-206.5 -90.5q-134 0 -204.5 90.5t-70.5 270.5q0 176 70.5 267.5t204.5 91.5q136 0 207 -91t71 -268zM520 357q0 154 -49.5 222.5t-149.5 68.5q-98 0 -148 -68.5t-50 -222.5t49.5 -224.5t148.5 -70.5q100 0 149.5 70.5t49.5 224.5zM474 796
q0 -11 -8.5 -21t-21.5 -10q-12 0 -24 7l-95 47l-94 -46q-5 -3 -12 -5.5t-13 -2.5q-13 0 -21.5 10t-8.5 21t5 18.5t21 14.5l123 55l123 -55q16 -7 21 -14.5t5 -18.5z" />
    <glyph glyph-name="Odieresis" unicode="&#xd6;" horiz-adv-x="643" 
d="M598 356q0 -180 -71.5 -270.5t-206.5 -90.5q-134 0 -204.5 90.5t-70.5 270.5q0 176 70.5 267.5t204.5 91.5q136 0 207 -91t71 -268zM520 357q0 154 -49.5 222.5t-149.5 68.5q-98 0 -148 -68.5t-50 -222.5t49.5 -224.5t148.5 -70.5q100 0 149.5 70.5t49.5 224.5zM460 814
q0 -19 -13 -32t-32 -13t-32 13t-13 31q0 20 13 32.5t32 12.5t32 -12.5t13 -31.5zM268 814q0 -19 -13 -32t-32 -13t-32 13t-13 31q0 20 13 32.5t32 12.5t32 -12.5t13 -31.5z" />
    <glyph glyph-name="Ograve" unicode="&#xd2;" horiz-adv-x="643" 
d="M598 356q0 -180 -71.5 -270.5t-206.5 -90.5q-134 0 -204.5 90.5t-70.5 270.5q0 176 70.5 267.5t204.5 91.5q136 0 207 -91t71 -268zM520 357q0 154 -49.5 222.5t-149.5 68.5q-98 0 -148 -68.5t-50 -222.5t49.5 -224.5t148.5 -70.5q100 0 149.5 70.5t49.5 224.5zM383 799
q0 -11 -7.5 -21.5t-21.5 -10.5q-5 0 -9 1t-12 4l-147 60q-14 6 -18.5 13.5t-4.5 17.5q0 11 7.5 21.5t21.5 10.5q8 0 21 -5l147 -60q14 -6 18.5 -13.5t4.5 -17.5z" />
    <glyph glyph-name="Otilde" unicode="&#xd5;" horiz-adv-x="643" 
d="M598 356q0 -180 -71.5 -270.5t-206.5 -90.5q-134 0 -204.5 90.5t-70.5 270.5q0 176 70.5 267.5t204.5 91.5q136 0 207 -91t71 -268zM520 357q0 154 -49.5 222.5t-149.5 68.5q-98 0 -148 -68.5t-50 -222.5t49.5 -224.5t148.5 -70.5q100 0 149.5 70.5t49.5 224.5zM467 841
q0 -6 -2 -11.5t-4 -10.5q-27 -39 -75 -39q-17 0 -35 4.5t-36 11.5q-16 5 -29.5 8.5t-24.5 3.5q-12 0 -20 -4.5t-16 -12.5q-5 -4 -10.5 -7t-13.5 -3q-11 0 -19.5 8.5t-8.5 19.5q0 12 7 22q25 39 74 39q17 0 34.5 -4.5t36.5 -11.5q16 -5 29 -8.5t25 -3.5t20 4.5t16 11.5
q10 10 23 10q12 0 20.5 -8t8.5 -19z" />
    <glyph glyph-name="Uacute" unicode="&#xda;" horiz-adv-x="623" 
d="M558 247q0 -58 -14 -104.5t-43.5 -79.5t-76 -51t-112.5 -18t-113 18t-76.5 51t-43.5 79.5t-14 104.5v424q0 19 10 29.5t26 10.5q17 0 26.5 -10.5t9.5 -29.5v-440q0 -85 44.5 -128.5t129.5 -43.5t129.5 43.5t44.5 128.5v440q0 19 9.5 29.5t26.5 10.5q16 0 26.5 -10.5
t10.5 -29.5v-424v0zM466 864q0 -10 -4 -18t-19 -14l-145 -58q-6 -2 -11 -3.5t-11 -1.5q-13 0 -20.5 11t-7.5 23q0 8 3.5 15t16.5 12l148 60q13 6 22 6q12 0 20 -10.5t8 -21.5z" />
    <glyph glyph-name="Ucircumflex" unicode="&#xdb;" horiz-adv-x="623" 
d="M558 247q0 -58 -14 -104.5t-43.5 -79.5t-76 -51t-112.5 -18t-113 18t-76.5 51t-43.5 79.5t-14 104.5v424q0 19 10 29.5t26 10.5q17 0 26.5 -10.5t9.5 -29.5v-440q0 -85 44.5 -128.5t129.5 -43.5t129.5 43.5t44.5 128.5v440q0 19 9.5 29.5t26.5 10.5q16 0 26.5 -10.5
t10.5 -29.5v-424v0zM464 796q0 -11 -8.5 -21t-21.5 -10q-12 0 -24 7l-95 47l-94 -46q-5 -3 -12 -5.5t-13 -2.5q-13 0 -21.5 10t-8.5 21t5 18.5t21 14.5l123 55l123 -55q16 -7 21 -14.5t5 -18.5z" />
    <glyph glyph-name="Udieresis" unicode="&#xdc;" horiz-adv-x="623" 
d="M558 247q0 -58 -14 -104.5t-43.5 -79.5t-76 -51t-112.5 -18t-113 18t-76.5 51t-43.5 79.5t-14 104.5v424q0 19 10 29.5t26 10.5q17 0 26.5 -10.5t9.5 -29.5v-440q0 -85 44.5 -128.5t129.5 -43.5t129.5 43.5t44.5 128.5v440q0 19 9.5 29.5t26.5 10.5q16 0 26.5 -10.5
t10.5 -29.5v-424v0zM452 814q0 -19 -13 -32t-32 -13t-32 13t-13 31q0 20 13 32.5t32 12.5t32 -12.5t13 -31.5zM260 814q0 -19 -13 -32t-32 -13t-32 13t-13 31q0 20 13 32.5t32 12.5t32 -12.5t13 -31.5z" />
    <glyph glyph-name="Ugrave" unicode="&#xd9;" horiz-adv-x="623" 
d="M558 247q0 -58 -14 -104.5t-43.5 -79.5t-76 -51t-112.5 -18t-113 18t-76.5 51t-43.5 79.5t-14 104.5v424q0 19 10 29.5t26 10.5q17 0 26.5 -10.5t9.5 -29.5v-440q0 -85 44.5 -128.5t129.5 -43.5t129.5 43.5t44.5 128.5v440q0 19 9.5 29.5t26.5 10.5q16 0 26.5 -10.5
t10.5 -29.5v-424v0zM380 799q0 -11 -7.5 -21.5t-21.5 -10.5q-5 0 -9 1t-12 4l-147 60q-14 6 -18.5 13.5t-4.5 17.5q0 11 7.5 21.5t21.5 10.5q8 0 21 -5l147 -60q14 -6 18.5 -13.5t4.5 -17.5z" />
    <glyph glyph-name="Yacute" unicode="&#xdd;" horiz-adv-x="513" 
d="M498 680q0 -7 -2 -14.5t-10 -19.5l-193 -308v-299q0 -18 -9 -29t-27 -11t-27.5 11t-9.5 29v299l-191 307q-8 13 -11 20.5t-3 13.5q0 14 9 23.5t24 9.5q22 0 33 -18l175 -285l177 285q11 18 32 18q15 0 24 -9.5t9 -22.5zM405 864q0 -10 -4 -18t-19 -14l-145 -58
q-6 -2 -11 -3.5t-11 -1.5q-13 0 -20.5 11t-7.5 23q0 8 3.5 15t16.5 12l148 60q13 6 22 6q12 0 20 -10.5t8 -21.5z" />
    <glyph glyph-name="Ydieresis" unicode="&#x178;" horiz-adv-x="513" 
d="M498 680q0 -7 -2 -14.5t-10 -19.5l-193 -308v-299q0 -18 -9 -29t-27 -11t-27.5 11t-9.5 29v299l-191 307q-8 13 -11 20.5t-3 13.5q0 14 9 23.5t24 9.5q22 0 33 -18l175 -285l177 285q11 18 32 18q15 0 24 -9.5t9 -22.5zM397 814q0 -19 -13 -32t-32 -13t-32 13t-13 31
q0 20 13 32.5t32 12.5t32 -12.5t13 -31.5zM205 814q0 -19 -13 -32t-32 -13t-32 13t-13 31q0 20 13 32.5t32 12.5t32 -12.5t13 -31.5z" />
    <glyph glyph-name="aacute" unicode="&#xe1;" horiz-adv-x="496" 
d="M431 40q0 -40 -34 -40q-16 0 -26 10t-10 27v37q-24 -35 -63.5 -57t-95.5 -22q-43 0 -73.5 12.5t-50 34t-29 49t-9.5 57.5q0 71 49 115.5t152 49.5l120 5v42q0 50 -27 77.5t-93 27.5q-26 0 -45.5 -2t-37.5 -5q-11 -2 -22.5 -3.5t-23.5 -1.5q-11 0 -20 7.5t-9 23.5
q0 26 31 34q29 8 61 11.5t68 3.5q97 0 142.5 -45.5t45.5 -121.5v-326zM361 262l-105 -5q-75 -4 -110 -29.5t-35 -80.5q0 -17 5.5 -33t17.5 -29t31 -20.5t47 -7.5q35 0 62.5 10.5t47 28.5t29.5 42.5t10 52.5v71zM392 697q0 -10 -4 -18t-19 -14l-145 -58q-6 -2 -11 -3.5
t-11 -1.5q-13 0 -20.5 11t-7.5 23q0 8 3.5 15t16.5 12l148 60q13 6 22 6q12 0 20 -10.5t8 -21.5z" />
    <glyph glyph-name="acircumflex" unicode="&#xe2;" horiz-adv-x="496" 
d="M431 40q0 -40 -34 -40q-16 0 -26 10t-10 27v37q-24 -35 -63.5 -57t-95.5 -22q-43 0 -73.5 12.5t-50 34t-29 49t-9.5 57.5q0 71 49 115.5t152 49.5l120 5v42q0 50 -27 77.5t-93 27.5q-26 0 -45.5 -2t-37.5 -5q-11 -2 -22.5 -3.5t-23.5 -1.5q-11 0 -20 7.5t-9 23.5
q0 26 31 34q29 8 61 11.5t68 3.5q97 0 142.5 -45.5t45.5 -121.5v-326zM361 262l-105 -5q-75 -4 -110 -29.5t-35 -80.5q0 -17 5.5 -33t17.5 -29t31 -20.5t47 -7.5q35 0 62.5 10.5t47 28.5t29.5 42.5t10 52.5v71zM401 629q0 -11 -8.5 -21t-21.5 -10q-12 0 -24 7l-95 47
l-94 -46q-5 -3 -12 -5.5t-13 -2.5q-13 0 -21.5 10t-8.5 21t5 18.5t21 14.5l123 55l123 -55q16 -7 21 -14.5t5 -18.5z" />
    <glyph glyph-name="adieresis" unicode="&#xe4;" horiz-adv-x="496" 
d="M431 40q0 -40 -34 -40q-16 0 -26 10t-10 27v37q-24 -35 -63.5 -57t-95.5 -22q-43 0 -73.5 12.5t-50 34t-29 49t-9.5 57.5q0 71 49 115.5t152 49.5l120 5v42q0 50 -27 77.5t-93 27.5q-26 0 -45.5 -2t-37.5 -5q-11 -2 -22.5 -3.5t-23.5 -1.5q-11 0 -20 7.5t-9 23.5
q0 26 31 34q29 8 61 11.5t68 3.5q97 0 142.5 -45.5t45.5 -121.5v-326zM361 262l-105 -5q-75 -4 -110 -29.5t-35 -80.5q0 -17 5.5 -33t17.5 -29t31 -20.5t47 -7.5q35 0 62.5 10.5t47 28.5t29.5 42.5t10 52.5v71zM391 647q0 -19 -13 -32t-32 -13t-32 13t-13 31q0 20 13 32.5
t32 12.5t32 -12.5t13 -31.5zM199 647q0 -19 -13 -32t-32 -13t-32 13t-13 31q0 20 13 32.5t32 12.5t32 -12.5t13 -31.5z" />
    <glyph glyph-name="agrave" unicode="&#xe0;" horiz-adv-x="496" 
d="M431 40q0 -40 -34 -40q-16 0 -26 10t-10 27v37q-24 -35 -63.5 -57t-95.5 -22q-43 0 -73.5 12.5t-50 34t-29 49t-9.5 57.5q0 71 49 115.5t152 49.5l120 5v42q0 50 -27 77.5t-93 27.5q-26 0 -45.5 -2t-37.5 -5q-11 -2 -22.5 -3.5t-23.5 -1.5q-11 0 -20 7.5t-9 23.5
q0 26 31 34q29 8 61 11.5t68 3.5q97 0 142.5 -45.5t45.5 -121.5v-326zM361 262l-105 -5q-75 -4 -110 -29.5t-35 -80.5q0 -17 5.5 -33t17.5 -29t31 -20.5t47 -7.5q35 0 62.5 10.5t47 28.5t29.5 42.5t10 52.5v71zM338 632q0 -11 -7.5 -21.5t-21.5 -10.5q-5 0 -9 1t-12 4
l-147 60q-14 6 -18.5 13.5t-4.5 17.5q0 11 7.5 21.5t21.5 10.5q8 0 21 -5l147 -60q14 -6 18.5 -13.5t4.5 -17.5z" />
    <glyph glyph-name="aring" unicode="&#xe5;" horiz-adv-x="496" 
d="M431 40q0 -40 -34 -40q-16 0 -26 10t-10 27v37q-24 -35 -63.5 -57t-95.5 -22q-43 0 -73.5 12.5t-50 34t-29 49t-9.5 57.5q0 71 49 115.5t152 49.5l120 5v42q0 50 -27 77.5t-93 27.5q-26 0 -45.5 -2t-37.5 -5q-11 -2 -22.5 -3.5t-23.5 -1.5q-11 0 -20 7.5t-9 23.5
q0 26 31 34q29 8 61 11.5t68 3.5q97 0 142.5 -45.5t45.5 -121.5v-326zM361 262l-105 -5q-75 -4 -110 -29.5t-35 -80.5q0 -17 5.5 -33t17.5 -29t31 -20.5t47 -7.5q35 0 62.5 10.5t47 28.5t29.5 42.5t10 52.5v71zM339 679q0 -38 -26.5 -64.5t-64.5 -26.5q-37 0 -63.5 26.5
t-26.5 64.5t26 64.5t64 26.5t64.5 -26.5t26.5 -64.5zM301 679q0 22 -15.5 37.5t-37.5 15.5t-37 -15.5t-15 -37.5t15 -37.5t37 -15.5t37.5 15.5t15.5 37.5z" />
    <glyph glyph-name="atilde" unicode="&#xe3;" horiz-adv-x="496" 
d="M431 40q0 -40 -34 -40q-16 0 -26 10t-10 27v37q-24 -35 -63.5 -57t-95.5 -22q-43 0 -73.5 12.5t-50 34t-29 49t-9.5 57.5q0 71 49 115.5t152 49.5l120 5v42q0 50 -27 77.5t-93 27.5q-26 0 -45.5 -2t-37.5 -5q-11 -2 -22.5 -3.5t-23.5 -1.5q-11 0 -20 7.5t-9 23.5
q0 26 31 34q29 8 61 11.5t68 3.5q97 0 142.5 -45.5t45.5 -121.5v-326zM361 262l-105 -5q-75 -4 -110 -29.5t-35 -80.5q0 -17 5.5 -33t17.5 -29t31 -20.5t47 -7.5q35 0 62.5 10.5t47 28.5t29.5 42.5t10 52.5v71zM395 674q0 -6 -2 -11.5t-4 -10.5q-27 -39 -75 -39
q-17 0 -35 4.5t-36 11.5q-16 5 -29.5 8.5t-24.5 3.5q-12 0 -20 -4.5t-16 -12.5q-5 -4 -10.5 -7t-13.5 -3q-11 0 -19.5 8.5t-8.5 19.5q0 12 7 22q25 39 74 39q17 0 34.5 -4.5t36.5 -11.5q16 -5 29 -8.5t25 -3.5t20 4.5t16 11.5q10 10 23 10q12 0 20.5 -8t8.5 -19z" />
    <glyph glyph-name="ccedilla" unicode="&#xe7;" horiz-adv-x="423" 
d="M335 -101q0 -42 -36 -64q-26 -17 -62 -17q-20 0 -38.5 4.5t-29.5 14.5q-9 7 -9 17q0 8 5.5 15t16.5 7q5 0 9 -1.5t9 -3.5q8 -4 17.5 -6.5t21.5 -2.5q17 0 28.5 8.5t11.5 23.5q0 18 -14.5 24t-28.5 6h-7t-6 -1q-3 0 -7 -0.5t-6 -0.5q-6 0 -10.5 4.5t-4.5 11.5q0 8 6 17
l31 44q-49 8 -85 30.5t-60 57t-35.5 79t-11.5 97.5q0 60 15 110t45.5 86t76.5 56t109 20q18 0 34.5 -2t32.5 -6q18 -5 31 -13t13 -25q0 -13 -8 -21.5t-21 -8.5q-10 0 -28 5q-26 6 -54 6q-85 0 -128.5 -53t-43.5 -151q0 -99 41 -153t129 -54q32 0 61 8q7 2 14 3t12 1
q12 0 19.5 -8t7.5 -19q0 -16 -10 -25q-6 -6 -15 -10t-19 -6q-18 -5 -36 -6.5t-34 -1.5h-12l-27 -37l2 -1q5 1 11 1.5t11 0.5q28 0 45 -14q21 -17 21 -46z" />
    <glyph glyph-name="eacute" unicode="&#xe9;" horiz-adv-x="499" 
d="M459 289q0 -16 -8.5 -28.5t-32.5 -12.5h-304q1 -48 15 -83t37.5 -58.5t55.5 -35t69 -11.5q20 0 40.5 1.5t39.5 5.5q23 5 33 5q13 0 20.5 -9t7.5 -21q0 -18 -15 -26q-23 -13 -58 -17t-69 -4q-57 0 -103 18.5t-79 53t-50.5 84.5t-17.5 113q0 137 57 204.5t158 67.5
q108 0 156 -66t48 -181zM387 304q0 83 -30 126.5t-103 43.5q-69 0 -103 -44.5t-36 -125.5h272zM393 697q0 -10 -4 -18t-19 -14l-145 -58q-6 -2 -11 -3.5t-11 -1.5q-13 0 -20.5 11t-7.5 23q0 8 3.5 15t16.5 12l148 60q13 6 22 6q12 0 20 -10.5t8 -21.5z" />
    <glyph glyph-name="ecircumflex" unicode="&#xea;" horiz-adv-x="499" 
d="M459 289q0 -16 -8.5 -28.5t-32.5 -12.5h-304q1 -48 15 -83t37.5 -58.5t55.5 -35t69 -11.5q20 0 40.5 1.5t39.5 5.5q23 5 33 5q13 0 20.5 -9t7.5 -21q0 -18 -15 -26q-23 -13 -58 -17t-69 -4q-57 0 -103 18.5t-79 53t-50.5 84.5t-17.5 113q0 137 57 204.5t158 67.5
q108 0 156 -66t48 -181zM387 304q0 83 -30 126.5t-103 43.5q-69 0 -103 -44.5t-36 -125.5h272zM407 629q0 -11 -8.5 -21t-21.5 -10q-12 0 -24 7l-95 47l-94 -46q-5 -3 -12 -5.5t-13 -2.5q-13 0 -21.5 10t-8.5 21t5 18.5t21 14.5l123 55l123 -55q16 -7 21 -14.5t5 -18.5z" />
    <glyph glyph-name="edieresis" unicode="&#xeb;" horiz-adv-x="499" 
d="M459 289q0 -16 -8.5 -28.5t-32.5 -12.5h-304q1 -48 15 -83t37.5 -58.5t55.5 -35t69 -11.5q20 0 40.5 1.5t39.5 5.5q23 5 33 5q13 0 20.5 -9t7.5 -21q0 -18 -15 -26q-23 -13 -58 -17t-69 -4q-57 0 -103 18.5t-79 53t-50.5 84.5t-17.5 113q0 137 57 204.5t158 67.5
q108 0 156 -66t48 -181zM387 304q0 83 -30 126.5t-103 43.5q-69 0 -103 -44.5t-36 -125.5h272zM396 647q0 -19 -13 -32t-32 -13t-32 13t-13 31q0 20 13 32.5t32 12.5t32 -12.5t13 -31.5zM204 647q0 -19 -13 -32t-32 -13t-32 13t-13 31q0 20 13 32.5t32 12.5t32 -12.5
t13 -31.5z" />
    <glyph glyph-name="egrave" unicode="&#xe8;" horiz-adv-x="499" 
d="M459 289q0 -16 -8.5 -28.5t-32.5 -12.5h-304q1 -48 15 -83t37.5 -58.5t55.5 -35t69 -11.5q20 0 40.5 1.5t39.5 5.5q23 5 33 5q13 0 20.5 -9t7.5 -21q0 -18 -15 -26q-23 -13 -58 -17t-69 -4q-57 0 -103 18.5t-79 53t-50.5 84.5t-17.5 113q0 137 57 204.5t158 67.5
q108 0 156 -66t48 -181zM387 304q0 83 -30 126.5t-103 43.5q-69 0 -103 -44.5t-36 -125.5h272zM351 632q0 -11 -7.5 -21.5t-21.5 -10.5q-5 0 -9 1t-12 4l-147 60q-14 6 -18.5 13.5t-4.5 17.5q0 11 7.5 21.5t21.5 10.5q8 0 21 -5l147 -60q14 -6 18.5 -13.5t4.5 -17.5z" />
    <glyph glyph-name="iacute" unicode="&#xed;" horiz-adv-x="238" 
d="M155 40q0 -19 -9.5 -30t-26.5 -11q-16 0 -25.5 11t-9.5 30v450q0 20 9.5 30.5t25.5 10.5q17 0 26.5 -10.5t9.5 -30.5v-450v0zM263 697q0 -10 -4 -18t-19 -14l-145 -58q-6 -2 -11 -3.5t-11 -1.5q-13 0 -20.5 11t-7.5 23q0 8 3.5 15t16.5 12l148 60q13 6 22 6
q12 0 20 -10.5t8 -21.5z" />
    <glyph glyph-name="icircumflex" unicode="&#xee;" horiz-adv-x="238" 
d="M155 40q0 -19 -9.5 -30t-26.5 -11q-16 0 -25.5 11t-9.5 30v450q0 20 9.5 30.5t25.5 10.5q17 0 26.5 -10.5t9.5 -30.5v-450v0zM268 629q0 -11 -8.5 -21t-21.5 -10q-12 0 -24 7l-95 47l-94 -46q-5 -3 -12 -5.5t-13 -2.5q-13 0 -21.5 10t-8.5 21t5 18.5t21 14.5l123 55
l123 -55q16 -7 21 -14.5t5 -18.5z" />
    <glyph glyph-name="idieresis" unicode="&#xef;" horiz-adv-x="238" 
d="M155 40q0 -19 -9.5 -30t-26.5 -11q-16 0 -25.5 11t-9.5 30v450q0 20 9.5 30.5t25.5 10.5q17 0 26.5 -10.5t9.5 -30.5v-450v0zM260 647q0 -19 -13 -32t-32 -13t-32 13t-13 31q0 20 13 32.5t32 12.5t32 -12.5t13 -31.5zM68 647q0 -19 -13 -32t-32 -13t-32 13t-13 31
q0 20 13 32.5t32 12.5t32 -12.5t13 -31.5z" />
    <glyph glyph-name="igrave" unicode="&#xec;" horiz-adv-x="238" 
d="M155 40q0 -19 -9.5 -30t-26.5 -11q-16 0 -25.5 11t-9.5 30v450q0 20 9.5 30.5t25.5 10.5q17 0 26.5 -10.5t9.5 -30.5v-450v0zM200 634q0 -11 -7.5 -21.5t-21.5 -10.5q-5 0 -9 1t-12 4l-147 60q-14 6 -18.5 13.5t-4.5 17.5q0 11 7.5 21.5t21.5 10.5q8 0 21 -5l147 -60
q14 -6 18.5 -13.5t4.5 -17.5z" />
    <glyph glyph-name="ntilde" unicode="&#xf1;" horiz-adv-x="537" 
d="M472 41q0 -20 -9.5 -31t-25.5 -11q-17 0 -26.5 11t-9.5 31v322q0 57 -27.5 81t-79.5 24q-36 0 -71 -15t-58 -36q-24 -23 -24 -47v-329q0 -20 -10 -31t-26 -11q-17 0 -26 11t-9 31v449q0 19 9.5 30t25.5 11t26 -11t10 -30v-26q32 34 77 53t96 19q75 0 116.5 -41.5
t41.5 -124.5v-329v0zM423 674q0 -6 -2 -11.5t-4 -10.5q-27 -39 -75 -39q-17 0 -35 4.5t-36 11.5q-16 5 -29.5 8.5t-24.5 3.5q-12 0 -20 -4.5t-16 -12.5q-5 -4 -10.5 -7t-13.5 -3q-11 0 -19.5 8.5t-8.5 19.5q0 12 7 22q25 39 74 39q17 0 34.5 -4.5t36.5 -11.5q16 -5 29 -8.5
t25 -3.5t20 4.5t16 11.5q10 10 23 10q12 0 20.5 -8t8.5 -19z" />
    <glyph glyph-name="oacute" unicode="&#xf3;" horiz-adv-x="527" 
d="M487 266q0 -72 -15.5 -123t-45 -84t-71 -48.5t-92.5 -15.5q-52 0 -93.5 15.5t-70 48.5t-44 84t-15.5 123q0 136 60.5 203t162.5 67q52 0 93.5 -16.5t70.5 -50.5t44.5 -84.5t15.5 -118.5zM413 266q0 107 -37 156.5t-112 49.5q-73 0 -111.5 -49.5t-38.5 -156.5
q0 -210 149 -210q74 0 112 52t38 158zM390 697q0 -10 -4 -18t-19 -14l-145 -58q-6 -2 -11 -3.5t-11 -1.5q-13 0 -20.5 11t-7.5 23q0 8 3.5 15t16.5 12l148 60q13 6 22 6q12 0 20 -10.5t8 -21.5z" />
    <glyph glyph-name="ocircumflex" unicode="&#xf4;" horiz-adv-x="527" 
d="M487 266q0 -72 -15.5 -123t-45 -84t-71 -48.5t-92.5 -15.5q-52 0 -93.5 15.5t-70 48.5t-44 84t-15.5 123q0 136 60.5 203t162.5 67q52 0 93.5 -16.5t70.5 -50.5t44.5 -84.5t15.5 -118.5zM413 266q0 107 -37 156.5t-112 49.5q-73 0 -111.5 -49.5t-38.5 -156.5
q0 -210 149 -210q74 0 112 52t38 158zM413 629q0 -11 -8.5 -21t-21.5 -10q-12 0 -24 7l-95 47l-94 -46q-5 -3 -12 -5.5t-13 -2.5q-13 0 -21.5 10t-8.5 21t5 18.5t21 14.5l123 55l123 -55q16 -7 21 -14.5t5 -18.5z" />
    <glyph glyph-name="odieresis" unicode="&#xf6;" horiz-adv-x="527" 
d="M487 266q0 -72 -15.5 -123t-45 -84t-71 -48.5t-92.5 -15.5q-52 0 -93.5 15.5t-70 48.5t-44 84t-15.5 123q0 136 60.5 203t162.5 67q52 0 93.5 -16.5t70.5 -50.5t44.5 -84.5t15.5 -118.5zM413 266q0 107 -37 156.5t-112 49.5q-73 0 -111.5 -49.5t-38.5 -156.5
q0 -210 149 -210q74 0 112 52t38 158zM405 647q0 -19 -13 -32t-32 -13t-32 13t-13 31q0 20 13 32.5t32 12.5t32 -12.5t13 -31.5zM213 647q0 -19 -13 -32t-32 -13t-32 13t-13 31q0 20 13 32.5t32 12.5t32 -12.5t13 -31.5z" />
    <glyph glyph-name="ograve" unicode="&#xf2;" horiz-adv-x="527" 
d="M487 266q0 -72 -15.5 -123t-45 -84t-71 -48.5t-92.5 -15.5q-52 0 -93.5 15.5t-70 48.5t-44 84t-15.5 123q0 136 60.5 203t162.5 67q52 0 93.5 -16.5t70.5 -50.5t44.5 -84.5t15.5 -118.5zM413 266q0 107 -37 156.5t-112 49.5q-73 0 -111.5 -49.5t-38.5 -156.5
q0 -210 149 -210q74 0 112 52t38 158zM355 632q0 -11 -7.5 -21.5t-21.5 -10.5q-5 0 -9 1t-12 4l-147 60q-14 6 -18.5 13.5t-4.5 17.5q0 11 7.5 21.5t21.5 10.5q8 0 21 -5l147 -60q14 -6 18.5 -13.5t4.5 -17.5z" />
    <glyph glyph-name="otilde" unicode="&#xf5;" horiz-adv-x="527" 
d="M487 266q0 -72 -15.5 -123t-45 -84t-71 -48.5t-92.5 -15.5q-52 0 -93.5 15.5t-70 48.5t-44 84t-15.5 123q0 136 60.5 203t162.5 67q52 0 93.5 -16.5t70.5 -50.5t44.5 -84.5t15.5 -118.5zM413 266q0 107 -37 156.5t-112 49.5q-73 0 -111.5 -49.5t-38.5 -156.5
q0 -210 149 -210q74 0 112 52t38 158zM411 674q0 -6 -2 -11.5t-4 -10.5q-27 -39 -75 -39q-17 0 -35 4.5t-36 11.5q-16 5 -29.5 8.5t-24.5 3.5q-12 0 -20 -4.5t-16 -12.5q-5 -4 -10.5 -7t-13.5 -3q-11 0 -19.5 8.5t-8.5 19.5q0 12 7 22q25 39 74 39q17 0 34.5 -4.5
t36.5 -11.5q16 -5 29 -8.5t25 -3.5t20 4.5t16 11.5q10 10 23 10q12 0 20.5 -8t8.5 -19z" />
    <glyph glyph-name="uacute" unicode="&#xfa;" horiz-adv-x="531" 
d="M466 190q0 -92 -48 -143.5t-152 -51.5q-105 0 -153 51.5t-48 143.5v300q0 20 9.5 31t25.5 11t26 -11t10 -31v-314q0 -60 34.5 -89t94.5 -29t95 29t35 89v314q0 20 9.5 31t26.5 11q16 0 25.5 -11t9.5 -31v-300v0zM392 697q0 -10 -4 -18t-19 -14l-145 -58q-6 -2 -11 -3.5
t-11 -1.5q-13 0 -20.5 11t-7.5 23q0 8 3.5 15t16.5 12l148 60q13 6 22 6q12 0 20 -10.5t8 -21.5z" />
    <glyph glyph-name="ucircumflex" unicode="&#xfb;" horiz-adv-x="531" 
d="M466 190q0 -92 -48 -143.5t-152 -51.5q-105 0 -153 51.5t-48 143.5v300q0 20 9.5 31t25.5 11t26 -11t10 -31v-314q0 -60 34.5 -89t94.5 -29t95 29t35 89v314q0 20 9.5 31t26.5 11q16 0 25.5 -11t9.5 -31v-300v0zM415 629q0 -11 -8.5 -21t-21.5 -10q-12 0 -24 7l-95 47
l-94 -46q-5 -3 -12 -5.5t-13 -2.5q-13 0 -21.5 10t-8.5 21t5 18.5t21 14.5l123 55l123 -55q16 -7 21 -14.5t5 -18.5z" />
    <glyph glyph-name="udieresis" unicode="&#xfc;" horiz-adv-x="531" 
d="M466 190q0 -92 -48 -143.5t-152 -51.5q-105 0 -153 51.5t-48 143.5v300q0 20 9.5 31t25.5 11t26 -11t10 -31v-314q0 -60 34.5 -89t94.5 -29t95 29t35 89v314q0 20 9.5 31t26.5 11q16 0 25.5 -11t9.5 -31v-300v0zM407 647q0 -19 -13 -32t-32 -13t-32 13t-13 31
q0 20 13 32.5t32 12.5t32 -12.5t13 -31.5zM215 647q0 -19 -13 -32t-32 -13t-32 13t-13 31q0 20 13 32.5t32 12.5t32 -12.5t13 -31.5z" />
    <glyph glyph-name="ugrave" unicode="&#xf9;" horiz-adv-x="531" 
d="M466 190q0 -92 -48 -143.5t-152 -51.5q-105 0 -153 51.5t-48 143.5v300q0 20 9.5 31t25.5 11t26 -11t10 -31v-314q0 -60 34.5 -89t94.5 -29t95 29t35 89v314q0 20 9.5 31t26.5 11q16 0 25.5 -11t9.5 -31v-300v0zM361 632q0 -11 -7.5 -21.5t-21.5 -10.5q-5 0 -9 1t-12 4
l-147 60q-14 6 -18.5 13.5t-4.5 17.5q0 11 7.5 21.5t21.5 10.5q8 0 21 -5l147 -60q14 -6 18.5 -13.5t4.5 -17.5z" />
    <glyph glyph-name="yacute" unicode="&#xfd;" horiz-adv-x="465" 
d="M435 502q0 -7 -5 -22l-234 -663q-9 -28 -37 -28q-13 0 -22 9t-9 22q0 9 5 22l62 176l-161 460q-4 11 -4 21q0 14 9.5 23.5t26.5 9.5q14 0 22.5 -8t13.5 -22l128 -395h2l134 395q9 30 35 30q14 0 24 -7.5t10 -22.5zM361 697q0 -10 -4 -18t-19 -14l-145 -58q-6 -2 -11 -3.5
t-11 -1.5q-13 0 -20.5 11t-7.5 23q0 8 3.5 15t16.5 12l148 60q13 6 22 6q12 0 20 -10.5t8 -21.5z" />
    <glyph glyph-name="ydieresis" unicode="&#xff;" horiz-adv-x="465" 
d="M435 502q0 -7 -5 -22l-234 -663q-9 -28 -37 -28q-13 0 -22 9t-9 22q0 9 5 22l62 176l-161 460q-4 11 -4 21q0 14 9.5 23.5t26.5 9.5q14 0 22.5 -8t13.5 -22l128 -395h2l134 395q9 30 35 30q14 0 24 -7.5t10 -22.5zM373 647q0 -19 -13 -32t-32 -13t-32 13t-13 31
q0 20 13 32.5t32 12.5t32 -12.5t13 -31.5zM181 647q0 -19 -13 -32t-32 -13t-32 13t-13 31q0 20 13 32.5t32 12.5t32 -12.5t13 -31.5z" />
    <glyph glyph-name="oneeighth" unicode="&#x215b;" horiz-adv-x="763" 
d="M718 122q0 -57 -34.5 -89.5t-98.5 -32.5q-66 0 -99 32.5t-33 89.5q0 45 18 70.5t50 37.5q-26 11 -40 32.5t-14 54.5q0 53 32.5 81t85.5 28t85.5 -28t32.5 -81q0 -31 -14 -53t-39 -34q32 -11 50 -37t18 -71zM514 698q0 -8 -7 -25l-276 -663q-9 -21 -28 -21q-12 0 -20 7.5
t-8 18.5q0 8 6 25l275 662q9 21 29 21q13 0 21 -6t8 -19zM183 316q0 -13 -7 -21t-21 -8t-21.5 8t-7.5 21v337h-54q-27 0 -27 27t27 27h86q25 0 25 -24v-367zM648 315q0 33 -18.5 46.5t-44.5 13.5t-44.5 -13.5t-18.5 -46.5q0 -29 17.5 -45.5t45.5 -16.5t45.5 16.5t17.5 45.5z
M660 127q0 38 -20 57.5t-55 19.5t-55 -19.5t-20 -57.5t20 -56.5t55 -18.5t55 18.5t20 56.5z" />
    <glyph glyph-name="threeeighths" unicode="&#x215c;" horiz-adv-x="816" 
d="M771 122q0 -57 -34 -89.5t-99 -32.5q-66 0 -98.5 32.5t-32.5 89.5q0 45 17.5 70.5t50.5 37.5q-26 11 -40.5 32.5t-14.5 54.5q0 53 33 81t85 28q54 0 86.5 -28t32.5 -81q0 -31 -14.5 -53t-39.5 -34q32 -11 50 -37t18 -71zM567 698q0 -8 -7 -25l-276 -663q-9 -21 -28 -21
q-11 0 -19.5 7.5t-8.5 18.5q0 10 7 25l275 662q9 21 29 21q28 0 28 -25zM282 414q0 -56 -35.5 -91.5t-101.5 -35.5q-27 0 -50 3.5t-40 14.5q-5 3 -7.5 7.5t-2.5 12.5q0 25 26 25q8 0 17 -3q24 -7 58 -7q38 0 59 20.5t21 54.5q0 70 -85 70h-14q-28 0 -28 26q0 11 7.5 19
t20.5 8h14q37 0 55 19.5t18 48.5q0 28 -17 42.5t-45 14.5q-16 0 -30 -3.5t-29 -10.5q-9 -3 -15 -3q-25 0 -25 25q0 16 19 26q36 19 81 19q60 0 88.5 -30t28.5 -78q0 -29 -16.5 -54t-43.5 -37q41 -13 56.5 -41.5t15.5 -61.5zM703 314q0 34 -19 48t-46 14q-26 0 -44.5 -14
t-18.5 -48q0 -30 17 -45.5t46 -15.5t47 15.5t18 45.5zM714 126q0 41 -20 59t-56 18q-35 0 -55 -19.5t-20 -57.5q0 -39 20 -57t55 -18t55.5 18.5t20.5 56.5z" />
    <glyph glyph-name="fiveeighths" unicode="&#x215d;" horiz-adv-x="815" 
d="M770 122q0 -57 -34 -89.5t-99 -32.5q-66 0 -98.5 32.5t-32.5 89.5q0 45 17.5 70.5t49.5 37.5q-26 11 -40 32.5t-14 54.5q0 53 32.5 81t85.5 28t86 -28t33 -81q0 -31 -14.5 -53t-39.5 -34q32 -11 50 -37t18 -71zM566 698q0 -8 -7 -25l-276 -663q-9 -21 -28 -21
q-12 0 -20 7.5t-8 18.5q0 10 7 25l274 662q9 21 29 21q29 0 29 -25zM286 424q0 -60 -36 -98.5t-107 -38.5q-54 0 -82 13q-16 8 -16 24q0 12 7 19t18 7q9 0 20 -3q10 -4 25 -5.5t29 -1.5q41 0 62.5 22.5t21.5 62.5q0 39 -22 57t-60 18h-54q-13 0 -20 7.5t-7 18.5v150
q0 32 30 32h141q12 0 20 -7.5t8 -18.5q0 -26 -28 -26h-117v-103h35q64 0 98 -32.5t34 -96.5zM701 314q0 34 -18.5 48t-45.5 14q-26 0 -45 -14t-19 -48q0 -30 17.5 -45.5t46.5 -15.5t46.5 15.5t17.5 45.5zM713 126q0 41 -20 59t-56 18t-55.5 -19.5t-19.5 -57.5q0 -39 20 -57
t55 -18t55.5 18.5t20.5 56.5z" />
    <glyph glyph-name="seveneighths" unicode="&#x215e;" horiz-adv-x="768" 
d="M723 122q0 -57 -34 -89.5t-99 -32.5q-66 0 -98.5 32.5t-32.5 89.5q0 45 17.5 70.5t49.5 37.5q-26 11 -40 32.5t-14 54.5q0 53 32.5 81t85.5 28t86 -28t33 -81q0 -31 -14.5 -53t-39.5 -34q32 -11 50 -37t18 -71zM519 698q0 -8 -7 -25l-276 -663q-9 -21 -28 -21
q-12 0 -20 7.5t-8 18.5q0 10 7 25l274 662q9 21 29 21q29 0 29 -25zM298 683q0 -6 -1 -12t-5 -15l-151 -347q-10 -22 -29 -22q-14 0 -21 7.5t-7 17.5q0 7 3 15l144 328h-158q-28 0 -28 26q0 11 7.5 19t20.5 8h197q14 0 21 -7.5t7 -17.5zM654 314q0 34 -18.5 48t-45.5 14
q-26 0 -45 -14t-19 -48q0 -30 17.5 -45.5t46.5 -15.5t46.5 15.5t17.5 45.5zM666 126q0 41 -20 59t-56 18t-55.5 -19.5t-19.5 -57.5q0 -39 20 -57t55 -18t55.5 18.5t20.5 56.5z" />
    <glyph glyph-name="one.superior" unicode="&#xb9;" horiz-adv-x="273" 
d="M183 314q0 -12 -7.5 -19.5t-20.5 -7.5t-21 7t-8 20v339h-55q-12 0 -19 8t-7 19q0 12 7.5 19.5t18.5 7.5h87q12 0 18.5 -7t6.5 -17v-369v0z" />
    <glyph glyph-name="two.superior" unicode="&#xb2;" horiz-adv-x="342" 
d="M297 319q0 -15 -9 -21t-22 -6h-192q-29 0 -29 29q0 13 9 24l120 152q12 15 20 27t15 23q18 27 18 52q0 26 -17 43t-47 17q-17 0 -29.5 -4t-23.5 -10t-19.5 -11.5t-17.5 -5.5t-16 6.5t-7 17.5q0 19 19 33q22 17 49 23.5t50 6.5q55 0 87 -33t32 -82q0 -41 -32 -90
q-16 -23 -38 -50l-94 -113v-1h143q13 0 22 -6.5t9 -20.5z" />
    <glyph glyph-name="three.superior" unicode="&#xb3;" horiz-adv-x="329" 
d="M284 412q0 -27 -9.5 -50t-27 -40t-42.5 -26.5t-57 -9.5q-16 0 -34 3t-33.5 9t-25.5 15t-10 21q0 11 7 18.5t18 7.5q7 0 15.5 -3.5t17.5 -7.5q12 -5 22 -7.5t23 -2.5q38 0 58.5 20.5t20.5 55.5q0 36 -23.5 52.5t-64.5 16.5h-8q-27 0 -27 26q0 14 8 21t19 7h16q33 0 49 21
t16 47q0 24 -14.5 40t-43.5 16q-20 0 -40 -10q-11 -6 -20 -10t-17 -4q-12 0 -18 7.5t-6 18.5q0 10 10 19.5t25 16.5t32 11t31 4q60 0 89 -31.5t29 -77.5q0 -29 -15 -53t-41 -37q38 -13 54.5 -40.5t16.5 -63.5z" />
    <glyph glyph-name="uni03BC" unicode="&#x3bc;" horiz-adv-x="547" 
d="M471 35q0 -16 -10.5 -26t-25.5 -10q-14 0 -25 9t-11 24v23h-1q-20 -31 -53 -45.5t-76 -14.5q-41 0 -73.5 15t-53.5 47h-1v-225q0 -20 -9.5 -30.5t-25.5 -10.5q-17 0 -27 10.5t-10 30.5v658q0 20 9.5 30.5t25.5 10.5q17 0 27 -10.5t10 -30.5v-324q0 -52 35.5 -81t92.5 -29
q60 0 95 30.5t35 85.5v318q0 20 10 30.5t26 10.5t26 -10.5t10 -30.5v-455v0z" />
    <glyph glyph-name="pi" unicode="&#x3c0;" horiz-adv-x="673" 
d="M639 10q-11 -8 -32 -13t-44 -5q-36 0 -60 12t-39 31.5t-21 45.5t-6 53v292h-183v-289q0 -45 -3.5 -78t-10.5 -59h-101q8 31 12 67t4 75v284q-20 -1 -47 -7.5t-46 -16.5l-28 65q24 14 65 23.5t85 9.5h451v-74h-99v-279q0 -37 12.5 -59t42.5 -22q8 0 15.5 2.5t14.5 6.5
l18 -65v0z" />
    <glyph glyph-name="Euro" unicode="&#x20ac;" 
d="M525 47q0 -22 -22 -33q-26 -12 -55.5 -15.5t-67.5 -3.5q-55 0 -101 14.5t-81.5 46t-59.5 81t-34 119.5h-62q-14 0 -22.5 7.5t-8.5 19.5q0 11 8.5 19t21.5 8h58q-1 11 -1 23v25v34h-56q-14 0 -22.5 7.5t-8.5 19.5t8.5 20t21.5 8h62q10 69 34.5 119.5t61 83.5t83.5 49
t102 16q70 0 116 -20q20 -9 20 -29q0 -15 -8.5 -24t-22.5 -9q-6 0 -12.5 1.5t-17.5 3.5q-20 5 -36.5 7t-38.5 2q-88 0 -138.5 -51.5t-64.5 -148.5h222q12 0 20 -7.5t8 -20.5q0 -11 -8 -19t-20 -8h-228q-1 -5 -1 -17.5v-17.5v-24t1 -23h198q12 0 20 -7.5t8 -19.5t-8 -19.5
t-20 -7.5h-191q17 -100 67.5 -147t136.5 -47q21 0 39.5 2.5t38.5 8.5q18 3 28 3q14 0 23.5 -7t9.5 -22z" />
    <glyph glyph-name="estimated" unicode="&#x212e;" horiz-adv-x="668" 
d="M164 292v-201q65 -65 160 -65q77 0 127.5 35.5t88.5 96.5q9 -5 18 -10.5t18 -11.5q-23 -34 -48 -61t-55 -46.5t-66.5 -30t-82.5 -10.5q-66 0 -118.5 24t-89.5 65t-57 96.5t-20 118.5t19.5 118.5t56.5 97t90 65t120 23.5q68 0 121 -23.5t90 -65t56.5 -97t21.5 -118.5h-450
zM486 493q-32 31 -73.5 48.5t-88.5 17.5q-96 0 -160 -65v-164h322v163z" />
    <glyph glyph-name="partialdiff" unicode="&#x2202;" horiz-adv-x="588" 
d="M548 474q0 -46 -6 -94t-19 -96q-15 -57 -40.5 -110t-61 -94.5t-81 -66t-101.5 -24.5q-43 0 -78.5 14.5t-61 40t-39.5 61.5t-14 80q0 75 23 132.5t60.5 97t84.5 60t94 20.5q51 0 84.5 -20.5t47.5 -46.5h2q2 14 3 29t1 33q0 78 -35.5 119t-98.5 41q-25 0 -51 -7.5
t-47 -19.5l-23 70q21 14 57.5 25t78.5 11q101 0 161 -65.5t60 -189.5zM429 343q-11 33 -36.5 55.5t-68.5 22.5q-34 0 -65.5 -18.5t-55.5 -51t-38.5 -76.5t-14.5 -95t24.5 -80.5t66.5 -29.5q34 0 64 21t54 57.5t42 86.5t28 108z" />
    <glyph glyph-name="product" unicode="&#x220f;" horiz-adv-x="734" 
d="M547 -230v839h-360v-839h-106v930h572v-930h-106z" />
    <glyph glyph-name="summation" unicode="&#x2211;" horiz-adv-x="644" 
d="M22 -230v53l314 416l-293 402v59h531v-86h-398q69 -94 136 -186t135 -186l-288 -386h437v-86h-574z" />
    <glyph glyph-name="radical" unicode="&#x221a;" horiz-adv-x="530" 
d="M342 -12h-83l-134 324l-55 -35l-33 55l134 85l128 -314l161 626h73z" />
    <glyph glyph-name="infinity" unicode="&#x221e;" horiz-adv-x="801" 
d="M752 294q0 -37 -12.5 -68.5t-35 -55t-53.5 -37t-69 -13.5q-59 0 -106.5 30.5t-77.5 78.5h-2q-32 -47 -78.5 -78t-103.5 -31q-36 0 -68 12t-55 34t-36.5 54t-13.5 71t13.5 71t36.5 54.5t54 34.5t67 12q31 0 58.5 -9t50.5 -24t41.5 -34.5t33.5 -41.5h2q12 18 29.5 37.5
t40.5 35t50.5 26t60.5 10.5q37 0 69 -12.5t55 -35t36 -53.5t13 -68zM669 293q0 39 -23 67.5t-73 28.5q-44 0 -76 -26.5t-60 -70.5q26 -46 61 -72.5t76 -26.5q24 0 42 8.5t30 22t17.5 31.5t5.5 38zM356 292q-26 42 -62 69.5t-75 27.5q-48 0 -71.5 -29t-23.5 -70
q0 -42 26.5 -69.5t68.5 -27.5q43 0 77.5 29.5t59.5 69.5z" />
    <glyph glyph-name="integral" unicode="&#x222b;" horiz-adv-x="500" 
d="M417 659q-7 4 -19 6.5t-25 2.5q-78 0 -78 -93v-622q0 -85 -41.5 -134.5t-125.5 -49.5q-20 0 -43.5 4t-36.5 9l20 76q9 -3 20.5 -5.5t25.5 -2.5q76 0 76 93v622q0 84 42 134t127 50q23 0 46 -4.5t34 -9.5q-5 -20 -10.5 -38.5t-11.5 -37.5z" />
    <glyph glyph-name="approxequal" unicode="&#x2248;" horiz-adv-x="568" 
d="M512 421q-25 -39 -55.5 -62.5t-75.5 -23.5q-54 0 -104 31q-20 13 -41 22t-44 9q-27 0 -47 -20.5t-34 -43.5l-54 62q23 35 53.5 60t78.5 25q29 0 54 -8t48 -22q25 -15 45 -23.5t42 -8.5q26 0 46 19.5t34 44.5zM512 197q-25 -38 -55.5 -62t-75.5 -24q-55 0 -104 32
q-20 13 -41 22t-44 9q-27 0 -47 -21t-34 -44l-54 63q23 35 53.5 60t78.5 25q29 0 54 -8.5t48 -22.5q25 -15 45 -23.5t42 -8.5q26 0 46 19.5t34 45.5z" />
    <glyph glyph-name="notequal" unicode="&#x2260;" horiz-adv-x="568" 
d="M261 143l-52 -116h-89l52 116h-91v83h127l62 141h-189v83h226l55 127h90l-56 -127h92v-83h-128l-63 -141h191v-83h-227z" />
    <glyph glyph-name="lessequal" unicode="&#x2264;" horiz-adv-x="568" 
d="M81 0v83h407v-83h-407zM81 322v70l407 184v-88l-299 -130v-2l299 -131v-87z" />
    <glyph glyph-name="greaterequal" unicode="&#x2265;" horiz-adv-x="568" 
d="M81 0v83h407v-83h-407zM81 139v88l299 130v2l-299 130v88l407 -184v-70z" />
    <glyph glyph-name="lozenge" unicode="&#x25ca;" horiz-adv-x="573" 
d="M301 0h-51l-206 349q51 88 103 175.5t103 175.5h51l208 -350zM276 606l-151 -256q38 -65 75.5 -128.5t75.5 -127.5l151 256z" />
    <glyph glyph-name="uni00A0" unicode="&#xa0;" horiz-adv-x="295" 
 />
    <glyph glyph-name="uni00AD" unicode="&#xad;" horiz-adv-x="338" 
d="M303 271q0 -13 -9 -22.5t-25 -9.5h-201q-15 0 -24 9t-9 23t8.5 23.5t24.5 9.5h201q16 0 25 -9.5t9 -23.5z" />
    <glyph glyph-name="uni203E" unicode="&#x203e;" horiz-adv-x="261" 
d="M268 637q0 -16 -10.5 -24.5t-27.5 -8.5h-199q-17 0 -27.5 8.5t-10.5 24.5q0 15 10.5 24t27.5 9h199q17 0 27.5 -8.5t10.5 -24.5z" />
    <glyph glyph-name="apple" unicode="&#xe000;" horiz-adv-x="499" 
d="M459 268q0 -7 -2.5 -14.5t-10.5 -15.5l-113 -139q-8 -11 -15.5 -16.5t-18.5 -5.5q-15 0 -23 10t-8 21q0 5 2 11t8 14l88 107h-282q-15 0 -23 8t-8 20t8 20t23 8h282l-88 107q-6 8 -8 14t-2 11q0 11 8 21t23 10q11 0 18.5 -5.5t15.5 -16.5l113 -139q8 -9 10.5 -16t2.5 -14
z" />
    <glyph glyph-name="periodcentered" unicode="&#xe001;" horiz-adv-x="259" 
d="M175 313q0 -23 -12.5 -36t-32.5 -13t-32.5 12.5t-12.5 35.5t12.5 37t32.5 14t32.5 -13.5t12.5 -36.5z" />
    <glyph glyph-name="uni03A9" unicode="&#x3a9;" horiz-adv-x="722" 
d="M423 0v86q21 19 44.5 45t43 61.5t32.5 80.5t13 102q0 53 -13 98t-37.5 77.5t-61.5 51t-85 18.5q-46 0 -83.5 -18t-64.5 -50.5t-41.5 -78t-14.5 -100.5q0 -56 13 -100.5t32.5 -79.5t43.5 -61.5t46 -45.5v-86h-245v86h153q-24 19 -51.5 46t-50 64.5t-37.5 86t-15 110.5
q0 69 23 127.5t64.5 101t99.5 66.5t129 24q75 0 132.5 -24t96.5 -66t59 -100t20 -126q0 -56 -13.5 -103.5t-35 -86t-49.5 -68.5t-57 -52h154v-86h-244z" />
    <glyph glyph-name="uni0312" unicode="&#x312;" horiz-adv-x="833" 
d="M406 -59q22 0 33 -24.5t11 -53.5q0 -25 -9 -49t-22.5 -42.5t-29 -30t-28.5 -11.5q-14 0 -23 10t-9 21q0 15 8.5 23.5t19 16.5t19 20.5t8.5 35.5q0 17 -5.5 28t-5.5 25q0 12 9 21.5t24 9.5z" />
    <glyph glyph-name="Idotaccent" unicode="&#x130;" horiz-adv-x="227" 
d="M150 40q0 -20 -10 -30.5t-26 -10.5q-17 0 -27 10.5t-10 30.5v631q0 19 10 29.5t27 10.5q16 0 26 -10.5t10 -29.5v-631v0zM162 827q0 -22 -13.5 -36t-33.5 -14t-34.5 14t-14.5 35q0 22 14.5 36t34.5 14t33.5 -14t13.5 -35z" />
    <glyph glyph-name="afii61289" unicode="&#x2113;" horiz-adv-x="512" 
d="M416 49q-11 -10 -25 -21.5t-31.5 -21t-38 -15.5t-43.5 -6q-32 0 -54 9.5t-39 26.5q-20 20 -29.5 54t-9.5 71v90l-57 -59l-34 48l91 95v217q0 95 37 143t100 48q30 0 51 -11t33.5 -27.5t18 -37t5.5 -38.5q0 -73 -32.5 -135t-83.5 -125l-33 -40v-160q0 -51 17 -72t44 -21
q25 0 45.5 14.5t35.5 30.5q8 -14 16 -28.5t16 -28.5zM327 601q0 20 -8.5 36t-27.5 16q-23 0 -36 -24t-13 -79v-147q5 5 9.5 12t8.5 13q30 42 48.5 88t18.5 85z" />
    <glyph glyph-name="Delta" unicode="&#x2206;" horiz-adv-x="653" 
d="M26 0v47l231 653h139l228 -653v-47h-598zM340 550q-6 19 -9.5 34t-6.5 25h-4q-2 -9 -6 -25t-9 -33l-160 -464h354z" />
    <glyph glyph-name="Dcroat" unicode="&#x110;" horiz-adv-x="600" 
d="M563 362q0 -92 -20.5 -159.5t-58 -111.5t-90.5 -66t-118 -22h-157q-17 0 -29 9t-12 28v289h-38q-16 0 -25.5 9t-9.5 22q0 12 9.5 21.5t25.5 9.5h38v278q0 17 10 27.5t30 10.5h157q142 0 215 -90t73 -255zM487 361q0 64 -11 115.5t-36 88t-67 56t-103 19.5h-120v-249h141
q16 0 25.5 -9t9.5 -22t-9 -22t-26 -9h-141v-259h122q115 0 165 74.5t50 216.5z" />
    <glyph glyph-name="Amacron" unicode="&#x100;" horiz-adv-x="599" 
d="M584 30q0 -13 -9 -22t-24 -9q-17 0 -24.5 8t-12.5 20l-61 167h-308l-60 -166q-5 -13 -12.5 -21t-23.5 -8q-15 0 -24.5 9t-9.5 22q0 5 2 11t4 13l224 615q6 17 18 30t38 13q27 0 39 -13t18 -30l221 -615q5 -15 5 -24zM301 628h-2l-132 -370h266zM437 802
q0 -16 -10.5 -24.5t-27.5 -8.5h-199q-17 0 -27.5 8.5t-10.5 24.5q0 15 10.5 24t27.5 9h199q17 0 27.5 -8.5t10.5 -24.5z" />
    <glyph glyph-name="amacron" unicode="&#x101;" horiz-adv-x="496" 
d="M431 40q0 -40 -34 -40q-16 0 -26 10t-10 27v37q-24 -35 -63.5 -57t-95.5 -22q-43 0 -73.5 12.5t-50 34t-29 49t-9.5 57.5q0 71 49 115.5t152 49.5l120 5v42q0 50 -27 77.5t-93 27.5q-26 0 -45.5 -2t-37.5 -5q-11 -2 -22.5 -3.5t-23.5 -1.5q-11 0 -20 7.5t-9 23.5
q0 26 31 34q29 8 61 11.5t68 3.5q97 0 142.5 -45.5t45.5 -121.5v-326zM361 262l-105 -5q-75 -4 -110 -29.5t-35 -80.5q0 -17 5.5 -33t17.5 -29t31 -20.5t47 -7.5q35 0 62.5 10.5t47 28.5t29.5 42.5t10 52.5v71zM382 632q0 -16 -10.5 -24.5t-27.5 -8.5h-199q-17 0 -27.5 8.5
t-10.5 24.5q0 15 10.5 24t27.5 9h199q17 0 27.5 -8.5t10.5 -24.5z" />
    <glyph glyph-name="Abreve" unicode="&#x102;" horiz-adv-x="599" 
d="M584 30q0 -13 -9 -22t-24 -9q-17 0 -24.5 8t-12.5 20l-61 167h-308l-60 -166q-5 -13 -12.5 -21t-23.5 -8q-15 0 -24.5 9t-9.5 22q0 5 2 11t4 13l224 615q6 17 18 30t38 13q27 0 39 -13t18 -30l221 -615q5 -15 5 -24zM301 628h-2l-132 -370h266zM430 855q0 -22 -14 -39
q-18 -23 -50 -35t-67 -12q-36 0 -68 12t-50 35q-6 8 -10 18t-4 21q0 14 6.5 22.5t18.5 8.5q11 0 18 -6.5t14 -15.5q11 -15 27 -26t48 -11t48 11t27 26q7 9 13.5 15.5t17.5 6.5q12 0 18.5 -8.5t6.5 -22.5z" />
    <glyph glyph-name="abreve" unicode="&#x103;" horiz-adv-x="496" 
d="M431 40q0 -40 -34 -40q-16 0 -26 10t-10 27v37q-24 -35 -63.5 -57t-95.5 -22q-43 0 -73.5 12.5t-50 34t-29 49t-9.5 57.5q0 71 49 115.5t152 49.5l120 5v42q0 50 -27 77.5t-93 27.5q-26 0 -45.5 -2t-37.5 -5q-11 -2 -22.5 -3.5t-23.5 -1.5q-11 0 -20 7.5t-9 23.5
q0 26 31 34q29 8 61 11.5t68 3.5q97 0 142.5 -45.5t45.5 -121.5v-326zM361 262l-105 -5q-75 -4 -110 -29.5t-35 -80.5q0 -17 5.5 -33t17.5 -29t31 -20.5t47 -7.5q35 0 62.5 10.5t47 28.5t29.5 42.5t10 52.5v71zM375 685q0 -22 -14 -39q-18 -23 -50 -35t-67 -12q-36 0 -68 12
t-50 35q-6 8 -10 18t-4 21q0 14 6.5 22.5t18.5 8.5q11 0 18 -6.5t14 -15.5q11 -15 27 -26t48 -11t48 11t27 26q7 9 13.5 15.5t17.5 6.5q12 0 18.5 -8.5t6.5 -22.5z" />
    <glyph glyph-name="Aogonek" unicode="&#x104;" horiz-adv-x="599" 
d="M585 -143q0 -12 -14 -21q-23 -17 -71 -17q-35 0 -57.5 16t-22.5 51t28 66q20 22 41 35t37 20q-5 4 -7.5 9t-4.5 11l-61 167h-308l-60 -166q-5 -13 -12.5 -21t-23.5 -8q-15 0 -24.5 9t-9.5 22q0 5 2 11t4 13l224 615q6 17 18 30t38 13q27 0 39 -13t18 -30l221 -615
q5 -15 5 -24q0 -18 -18 -28q-16 -9 -31.5 -21.5t-28 -26t-20 -28t-7.5 -26.5q0 -16 9 -25.5t26 -9.5q9 0 16.5 2t14.5 5q5 2 9.5 3t9.5 1q11 0 16 -5.5t5 -13.5zM301 628h-2l-132 -370h266z" />
    <glyph glyph-name="aogonek" unicode="&#x105;" horiz-adv-x="496" 
d="M428 -143q0 -12 -14 -21q-23 -17 -71 -17q-35 0 -57.5 16t-22.5 51t28 66q18 20 40.5 34.5t40.5 22.5q-11 9 -11 28v37q-24 -35 -63.5 -57t-95.5 -22q-43 0 -73.5 12.5t-50 34t-29 49t-9.5 57.5q0 71 49 115.5t152 49.5l120 5v42q0 50 -27 77.5t-93 27.5q-26 0 -45.5 -2
t-37.5 -5q-11 -2 -22.5 -3.5t-23.5 -1.5q-11 0 -20 7.5t-9 23.5q0 26 31 34q29 8 61 11.5t68 3.5q97 0 142.5 -45.5t45.5 -121.5v-326q0 -27 -23 -40q-16 -9 -31.5 -21t-27.5 -25.5t-19.5 -27.5t-7.5 -26q0 -16 9 -25.5t26 -9.5q9 0 16.5 2t14.5 5q5 2 9.5 3t9.5 1
q11 0 16 -5.5t5 -13.5zM361 262l-105 -5q-75 -4 -110 -29.5t-35 -80.5q0 -17 5.5 -33t17.5 -29t31 -20.5t47 -7.5q35 0 62.5 10.5t47 28.5t29.5 42.5t10 52.5v71z" />
    <glyph glyph-name="Cacute" unicode="&#x106;" horiz-adv-x="527" 
d="M492 49q0 -23 -23 -34q-26 -11 -61.5 -15.5t-73.5 -4.5q-66 0 -119.5 20t-91 63.5t-58 112.5t-20.5 167q0 91 21 158.5t59.5 111.5t92.5 65.5t120 21.5q38 0 71 -5.5t58 -18.5q21 -11 21 -29q0 -15 -8.5 -24t-22.5 -9q-7 0 -13 1.5t-17 4.5q-23 6 -44.5 9t-44.5 3
q-112 0 -164 -75t-52 -215q0 -152 54.5 -223.5t164.5 -71.5q22 0 45.5 4t45.5 9q15 4 28 4t22.5 -7.5t9.5 -22.5zM445 864q0 -10 -4 -18t-19 -14l-145 -58q-6 -2 -11 -3.5t-11 -1.5q-13 0 -20.5 11t-7.5 23q0 8 3.5 15t16.5 12l148 60q13 6 22 6q12 0 20 -10.5t8 -21.5z" />
    <glyph glyph-name="cacute" unicode="&#x107;" horiz-adv-x="423" 
d="M398 44q0 -16 -10 -25q-6 -6 -15 -10t-19 -6q-18 -5 -36 -6.5t-34 -1.5q-62 0 -108 19.5t-76 55t-45 85t-15 108.5q0 60 15 110t45.5 86t76.5 56t109 20q18 0 34.5 -2t32.5 -6q18 -5 31 -13t13 -25q0 -13 -8 -21.5t-21 -8.5q-10 0 -28 5q-26 6 -54 6q-85 0 -128.5 -53
t-43.5 -151q0 -99 41 -153t129 -54q32 0 61 8q7 2 14 3t12 1q12 0 19.5 -8t7.5 -19zM375 694q0 -10 -4 -18t-19 -14l-145 -58q-6 -2 -11 -3.5t-11 -1.5q-13 0 -20.5 11t-7.5 23q0 8 3.5 15t16.5 12l148 60q13 6 22 6q12 0 20 -10.5t8 -21.5z" />
    <glyph glyph-name="Ccaron" unicode="&#x10c;" horiz-adv-x="527" 
d="M492 49q0 -23 -23 -34q-26 -11 -61.5 -15.5t-73.5 -4.5q-66 0 -119.5 20t-91 63.5t-58 112.5t-20.5 167q0 91 21 158.5t59.5 111.5t92.5 65.5t120 21.5q38 0 71 -5.5t58 -18.5q21 -11 21 -29q0 -15 -8.5 -24t-22.5 -9q-7 0 -13 1.5t-17 4.5q-23 6 -44.5 9t-44.5 3
q-112 0 -164 -75t-52 -215q0 -152 54.5 -223.5t164.5 -71.5q22 0 45.5 4t45.5 9q15 4 28 4t22.5 -7.5t9.5 -22.5zM485 856q0 -10 -5 -18t-21 -15l-123 -54l-123 54q-16 7 -21 14.5t-5 18.5t8.5 21t21.5 10q12 0 24 -7l95 -46l94 46q5 2 12 4.5t13 2.5q13 0 21.5 -10t8.5 -21
z" />
    <glyph glyph-name="ccaron" unicode="&#x10d;" horiz-adv-x="423" 
d="M398 44q0 -16 -10 -25q-6 -6 -15 -10t-19 -6q-18 -5 -36 -6.5t-34 -1.5q-62 0 -108 19.5t-76 55t-45 85t-15 108.5q0 60 15 110t45.5 86t76.5 56t109 20q18 0 34.5 -2t32.5 -6q18 -5 31 -13t13 -25q0 -13 -8 -21.5t-21 -8.5q-10 0 -28 5q-26 6 -54 6q-85 0 -128.5 -53
t-43.5 -151q0 -99 41 -153t129 -54q32 0 61 8q7 2 14 3t12 1q12 0 19.5 -8t7.5 -19zM425 686q0 -10 -5 -18t-21 -15l-123 -54l-123 54q-16 7 -21 14.5t-5 18.5t8.5 21t21.5 10q12 0 24 -7l95 -46l94 46q5 2 12 4.5t13 2.5q13 0 21.5 -10t8.5 -21z" />
    <glyph glyph-name="Dcaron" unicode="&#x10e;" horiz-adv-x="600" 
d="M555 362q0 -92 -20.5 -159.5t-58 -111.5t-90.5 -66t-117 -22h-158q-17 0 -29 9t-12 28v629q0 17 10.5 27.5t30.5 10.5h156q143 0 215.5 -90t72.5 -255zM480 361q0 64 -11 115.5t-36.5 88t-67 56t-103.5 19.5h-119v-570h121q116 0 166 74.5t50 216.5zM416 856
q0 -10 -5 -18t-21 -15l-123 -54l-123 54q-16 7 -21 14.5t-5 18.5t8.5 21t21.5 10q12 0 24 -7l95 -46l94 46q5 2 12 4.5t13 2.5q13 0 21.5 -10t8.5 -21z" />
    <glyph glyph-name="dcaron" unicode="&#x10f;" horiz-adv-x="766" 
d="M633 730q12 0 23 -8.5t11 -22.5q0 -5 -1 -9.5t-2 -8.5l-37 -148q-4 -14 -14 -21t-21 -7q-17 0 -25.5 10.5t-8.5 23.5q0 5 0.5 8.5t1.5 7.5l38 148q4 14 13.5 20.5t21.5 6.5zM487 40q0 -40 -37 -40q-34 0 -34 40v44h-1q-25 -41 -66 -64.5t-97 -23.5q-51 0 -90.5 20
t-66.5 56t-41 85.5t-14 109.5t14.5 109.5t42 85t67 55t89.5 19.5q46 0 90 -19t72 -62h1v268q0 19 9 30.5t25 11.5q17 0 27 -11.5t10 -30.5v-683zM418 316q0 36 -13.5 65.5t-35.5 49.5t-50 31t-58 11q-39 0 -67 -17t-45.5 -46t-26 -66.5t-8.5 -77.5t8 -77.5t25 -66t45 -45.5
t68 -17q30 0 58.5 11.5t50.5 33.5t35.5 52.5t13.5 68.5v90z" />
    <glyph glyph-name="dcroat" unicode="&#x111;" horiz-adv-x="557" 
d="M487 40q0 -40 -37 -40q-34 0 -34 40v44h-1q-25 -41 -66 -64.5t-97 -23.5q-51 0 -90.5 20t-66.5 56t-41 85.5t-14 109.5t14.5 109.5t42 85t67 55t89.5 19.5q46 0 90 -19t72 -62h1v144h-143q-15 0 -24 8.5t-9 22.5t8.5 22.5t24.5 8.5h143v62q0 19 9 30.5t25 11.5
q17 0 27 -11.5t10 -30.5v-62h40q16 0 25 -8.5t9 -22.5q0 -13 -9 -22t-25 -9h-40v-559zM418 316q0 36 -13.5 65.5t-35.5 49.5t-50 31t-58 11q-39 0 -67 -17t-45.5 -46t-26 -66.5t-8.5 -77.5t8 -77.5t25 -66t45 -45.5t68 -17q30 0 58.5 11.5t50.5 33.5t35.5 52.5t13.5 68.5v90
z" />
    <glyph glyph-name="Emacron" unicode="&#x112;" horiz-adv-x="442" 
d="M402 37q0 -13 -10 -23.5t-27 -10.5h-254q-41 0 -41 37v627q0 18 10 29t31 11h244q17 0 26.5 -10t9.5 -24t-9.5 -23.5t-26.5 -9.5h-212v-250h202q17 0 27 -10t10 -24t-10 -24t-27 -10h-202v-252h222q17 0 27 -9.5t10 -23.5zM374 802q0 -16 -10.5 -24.5t-27.5 -8.5h-199
q-17 0 -27.5 8.5t-10.5 24.5q0 15 10.5 24t27.5 9h199q17 0 27.5 -8.5t10.5 -24.5z" />
    <glyph glyph-name="emacron" unicode="&#x113;" horiz-adv-x="499" 
d="M459 289q0 -16 -8.5 -28.5t-32.5 -12.5h-304q1 -48 15 -83t37.5 -58.5t55.5 -35t69 -11.5q20 0 40.5 1.5t39.5 5.5q23 5 33 5q13 0 20.5 -9t7.5 -21q0 -18 -15 -26q-23 -13 -58 -17t-69 -4q-57 0 -103 18.5t-79 53t-50.5 84.5t-17.5 113q0 137 57 204.5t158 67.5
q108 0 156 -66t48 -181zM387 304q0 83 -30 126.5t-103 43.5q-69 0 -103 -44.5t-36 -125.5h272zM394 632q0 -16 -10.5 -24.5t-27.5 -8.5h-199q-17 0 -27.5 8.5t-10.5 24.5q0 15 10.5 24t27.5 9h199q17 0 27.5 -8.5t10.5 -24.5z" />
    <glyph glyph-name="Edotaccent" unicode="&#x116;" horiz-adv-x="442" 
d="M402 37q0 -13 -10 -23.5t-27 -10.5h-254q-41 0 -41 37v627q0 18 10 29t31 11h244q17 0 26.5 -10t9.5 -24t-9.5 -23.5t-26.5 -9.5h-212v-250h202q17 0 27 -10t10 -24t-10 -24t-27 -10h-202v-252h222q17 0 27 -9.5t10 -23.5zM282 819q0 -22 -13.5 -36t-33.5 -14t-34.5 14
t-14.5 35q0 22 14.5 36t34.5 14t33.5 -14t13.5 -35z" />
    <glyph glyph-name="edotaccent" unicode="&#x117;" horiz-adv-x="499" 
d="M459 289q0 -16 -8.5 -28.5t-32.5 -12.5h-304q1 -48 15 -83t37.5 -58.5t55.5 -35t69 -11.5q20 0 40.5 1.5t39.5 5.5q23 5 33 5q13 0 20.5 -9t7.5 -21q0 -18 -15 -26q-23 -13 -58 -17t-69 -4q-57 0 -103 18.5t-79 53t-50.5 84.5t-17.5 113q0 137 57 204.5t158 67.5
q108 0 156 -66t48 -181zM387 304q0 83 -30 126.5t-103 43.5q-69 0 -103 -44.5t-36 -125.5h272zM302 649q0 -22 -13.5 -36t-33.5 -14t-34.5 14t-14.5 35q0 22 14.5 36t34.5 14t33.5 -14t13.5 -35z" />
    <glyph glyph-name="Eogonek" unicode="&#x118;" horiz-adv-x="442" 
d="M398 -140q0 -12 -14 -21q-23 -17 -71 -17q-35 0 -57.5 16t-22.5 51t28 66q14 15 30.5 27t33.5 21h-214q-41 0 -41 37v627q0 18 10 29t31 11h244q17 0 26.5 -10t9.5 -24t-9.5 -23.5t-26.5 -9.5h-212v-250h202q17 0 27 -10t10 -24t-10 -24t-27 -10h-202v-252h222
q17 0 27 -9.5t10 -23.5t-9 -22.5t-19 -13.5q-15 -8 -29.5 -20t-26 -25.5t-19 -27t-7.5 -25.5q0 -16 9 -25.5t26 -9.5q9 0 16.5 2t14.5 5q5 2 9.5 3t9.5 1q11 0 16 -5.5t5 -13.5z" />
    <glyph glyph-name="eogonek" unicode="&#x119;" horiz-adv-x="499" 
d="M409 -143q0 -12 -14 -21q-23 -17 -71 -17q-35 0 -57.5 16t-22.5 51t28 66q12 14 27 25t29 19q-10 -1 -19.5 -1h-18.5q-57 0 -103 18.5t-79 53t-50.5 84.5t-17.5 113q0 137 57 204.5t158 67.5q108 0 156 -66t48 -181q0 -16 -8.5 -28.5t-32.5 -12.5h-304q1 -48 15 -83
t37.5 -58.5t55.5 -35t69 -11.5q20 0 40.5 1.5t39.5 5.5q23 5 33 5q13 0 20.5 -9t7.5 -21q0 -19 -14.5 -26.5t-29.5 -15.5q-16 -9 -31 -21t-27 -26t-19.5 -27.5t-7.5 -25.5q0 -16 9 -25.5t26 -9.5q9 0 16.5 2t14.5 5q5 2 9.5 3t9.5 1q11 0 16 -5.5t5 -13.5zM387 304
q0 83 -30 126.5t-103 43.5q-69 0 -103 -44.5t-36 -125.5h272z" />
    <glyph glyph-name="Ecaron" unicode="&#x11a;" horiz-adv-x="442" 
d="M402 37q0 -13 -10 -23.5t-27 -10.5h-254q-41 0 -41 37v627q0 18 10 29t31 11h244q17 0 26.5 -10t9.5 -24t-9.5 -23.5t-26.5 -9.5h-212v-250h202q17 0 27 -10t10 -24t-10 -24t-27 -10h-202v-252h222q17 0 27 -9.5t10 -23.5zM385 856q0 -10 -5 -18t-21 -15l-123 -54
l-123 54q-16 7 -21 14.5t-5 18.5t8.5 21t21.5 10q12 0 24 -7l95 -46l94 46q5 2 12 4.5t13 2.5q13 0 21.5 -10t8.5 -21z" />
    <glyph glyph-name="ecaron" unicode="&#x11b;" horiz-adv-x="499" 
d="M459 289q0 -16 -8.5 -28.5t-32.5 -12.5h-304q1 -48 15 -83t37.5 -58.5t55.5 -35t69 -11.5q20 0 40.5 1.5t39.5 5.5q23 5 33 5q13 0 20.5 -9t7.5 -21q0 -18 -15 -26q-23 -13 -58 -17t-69 -4q-57 0 -103 18.5t-79 53t-50.5 84.5t-17.5 113q0 137 57 204.5t158 67.5
q108 0 156 -66t48 -181zM387 304q0 83 -30 126.5t-103 43.5q-69 0 -103 -44.5t-36 -125.5h272zM405 686q0 -10 -5 -18t-21 -15l-123 -54l-123 54q-16 7 -21 14.5t-5 18.5t8.5 21t21.5 10q12 0 24 -7l95 -46l94 46q5 2 12 4.5t13 2.5q13 0 21.5 -10t8.5 -21z" />
    <glyph glyph-name="Gbreve" unicode="&#x11e;" horiz-adv-x="595" 
d="M535 82q0 -13 -4.5 -22.5t-15.5 -17.5q-24 -17 -70.5 -32t-108.5 -15q-69 0 -123 20.5t-91.5 64t-57 112t-19.5 163.5q0 181 80 270.5t218 89.5q18 0 37.5 -1.5t38.5 -5t37 -8.5t32 -12q20 -11 20 -30q0 -15 -8.5 -24t-22.5 -9q-6 0 -12.5 1t-17.5 5q-24 8 -53 12t-53 4
q-59 0 -100.5 -20t-67.5 -57.5t-38.5 -91.5t-12.5 -123q0 -71 11.5 -125.5t37 -92t67 -57t100.5 -19.5q38 0 68.5 7.5t48.5 17.5q8 4 8 12v208h-123q-17 0 -27 9.5t-10 23.5q0 13 10 23.5t27 10.5h154q41 0 41 -37v-254v0zM452 855q0 -22 -14 -39q-18 -23 -50 -35t-67 -12
q-36 0 -68 12t-50 35q-6 8 -10 18t-4 21q0 14 6.5 22.5t18.5 8.5q11 0 18 -6.5t14 -15.5q11 -15 27 -26t48 -11t48 11t27 26q7 9 13.5 15.5t17.5 6.5q12 0 18.5 -8.5t6.5 -22.5z" />
    <glyph glyph-name="gbreve" unicode="&#x11f;" horiz-adv-x="507" 
d="M502 488q0 -12 -9 -20t-23 -8l-56 1q18 -22 25 -48.5t7 -55.5q0 -174 -195 -174q-38 0 -63 4t-45 13q-10 -7 -15 -16.5t-5 -25.5q0 -8 2 -16.5t9 -15.5t20 -11.5t36 -4.5h96q51 0 86.5 -6.5t58 -22.5t33 -41.5t10.5 -64.5q0 -36 -14 -69.5t-44 -59t-76.5 -41
t-111.5 -15.5q-107 0 -155 43t-48 116q0 44 17 73.5t49 50.5q-15 11 -23.5 32.5t-8.5 44.5t9 43.5t29 33.5q-29 23 -42.5 55.5t-13.5 74.5q0 85 48.5 132t151.5 47q32 0 59 -5.5t50 -13.5h118q17 0 25.5 -8t8.5 -21zM378 358q0 59 -31.5 88t-102.5 29q-69 0 -102 -28
t-33 -89q0 -59 31.5 -86.5t103.5 -27.5q74 0 104 27.5t30 86.5zM403 -25q0 22 -6 35.5t-21 21t-40 10t-62 2.5h-87h-8h-12.5t-13 0.5t-7.5 0.5q-23 -11 -37 -32t-14 -63q0 -49 31.5 -72.5t101.5 -23.5q92 0 133.5 33t41.5 88zM381 685q0 -22 -14 -39q-18 -23 -50 -35
t-67 -12q-36 0 -68 12t-50 35q-6 8 -10 18t-4 21q0 14 6.5 22.5t18.5 8.5q11 0 18 -6.5t14 -15.5q11 -15 27 -26t48 -11t48 11t27 26q7 9 13.5 15.5t17.5 6.5q12 0 18.5 -8.5t6.5 -22.5z" />
    <glyph glyph-name="Gcommaaccent" unicode="&#x122;" horiz-adv-x="595" 
d="M535 82q0 -13 -4.5 -22.5t-15.5 -17.5q-24 -17 -70.5 -32t-108.5 -15q-69 0 -123 20.5t-91.5 64t-57 112t-19.5 163.5q0 181 80 270.5t218 89.5q18 0 37.5 -1.5t38.5 -5t37 -8.5t32 -12q20 -11 20 -30q0 -15 -8.5 -24t-22.5 -9q-6 0 -12.5 1t-17.5 5q-24 8 -53 12t-53 4
q-59 0 -100.5 -20t-67.5 -57.5t-38.5 -91.5t-12.5 -123q0 -71 11.5 -125.5t37 -92t67 -57t100.5 -19.5q38 0 68.5 7.5t48.5 17.5q8 4 8 12v208h-123q-17 0 -27 9.5t-10 23.5q0 13 10 23.5t27 10.5h154q41 0 41 -37v-254v0zM321 -59q22 0 33 -24.5t11 -53.5q0 -25 -9 -49
t-22.5 -42.5t-29 -30t-28.5 -11.5q-14 0 -23 10t-9 21q0 15 8.5 23.5t19 16.5t19 20.5t8.5 35.5q0 17 -5.5 28t-5.5 25q0 12 9 21.5t24 9.5z" />
    <glyph glyph-name="gcommaaccent" unicode="&#x123;" horiz-adv-x="507" 
d="M502 488q0 -12 -9 -20t-23 -8l-56 1q18 -22 25 -48.5t7 -55.5q0 -174 -195 -174q-38 0 -63 4t-45 13q-10 -7 -15 -16.5t-5 -25.5q0 -8 2 -16.5t9 -15.5t20 -11.5t36 -4.5h96q51 0 86.5 -6.5t58 -22.5t33 -41.5t10.5 -64.5q0 -36 -14 -69.5t-44 -59t-76.5 -41
t-111.5 -15.5q-107 0 -155 43t-48 116q0 44 17 73.5t49 50.5q-15 11 -23.5 32.5t-8.5 44.5t9 43.5t29 33.5q-29 23 -42.5 55.5t-13.5 74.5q0 85 48.5 132t151.5 47q32 0 59 -5.5t50 -13.5h118q17 0 25.5 -8t8.5 -21zM378 358q0 59 -31.5 88t-102.5 29q-69 0 -102 -28
t-33 -89q0 -59 31.5 -86.5t103.5 -27.5q74 0 104 27.5t30 86.5zM403 -25q0 22 -6 35.5t-21 21t-40 10t-62 2.5h-87h-8h-12.5t-13 0.5t-7.5 0.5q-23 -11 -37 -32t-14 -63q0 -49 31.5 -72.5t101.5 -23.5q92 0 133.5 33t41.5 88zM290 810q22 0 33 -24.5t11 -53.5q0 -25 -9 -49
t-22.5 -42.5t-29 -30t-28.5 -11.5q-14 0 -23 10t-9 21q0 15 8.5 23.5t19 16.5t19 20.5t8.5 35.5q0 17 -5.5 28t-5.5 25q0 12 9 21.5t24 9.5z" />
    <glyph glyph-name="Imacron" unicode="&#x12a;" horiz-adv-x="227" 
d="M150 40q0 -20 -10 -30.5t-26 -10.5q-17 0 -27 10.5t-10 30.5v631q0 19 10 29.5t27 10.5q16 0 26 -10.5t10 -29.5v-631v0zM253 801q0 -16 -10.5 -24.5t-27.5 -8.5h-199q-17 0 -27.5 8.5t-10.5 24.5q0 15 10.5 24t27.5 9h199q17 0 27.5 -8.5t10.5 -24.5z" />
    <glyph glyph-name="imacron" unicode="&#x12b;" horiz-adv-x="238" 
d="M155 40q0 -19 -9.5 -30t-26.5 -11q-16 0 -25.5 11t-9.5 30v450q0 20 9.5 30.5t25.5 10.5q17 0 26.5 -10.5t9.5 -30.5v-450v0zM257 632q0 -16 -10.5 -24.5t-27.5 -8.5h-199q-17 0 -27.5 8.5t-10.5 24.5q0 15 10.5 24t27.5 9h199q17 0 27.5 -8.5t10.5 -24.5z" />
    <glyph glyph-name="Iogonek" unicode="&#x12e;" horiz-adv-x="227" 
d="M160 -143q0 -12 -14 -21q-23 -17 -71 -17q-35 0 -57.5 16t-22.5 51q0 18 7.5 34t20.5 32q12 14 32.5 28.5t38.5 23.5q-8 5 -12.5 13.5t-4.5 22.5v631q0 19 10 29.5t27 10.5q16 0 26 -10.5t10 -29.5v-631q0 -20 -9.5 -31.5t-20.5 -19.5q-30 -23 -48 -46t-18 -43
q0 -16 9 -25.5t26 -9.5q9 0 16.5 2t14.5 5q5 2 9.5 3t9.5 1q11 0 16 -5.5t5 -13.5z" />
    <glyph glyph-name="iogonek" unicode="&#x12f;" horiz-adv-x="238" 
d="M161 682q0 -23 -11 -35.5t-31 -12.5q-19 0 -30.5 12t-11.5 35t11 36t31 13q19 0 30.5 -13t11.5 -35zM84 490q0 20 9.5 30.5t25.5 10.5q17 0 26.5 -10.5t9.5 -30.5v-450q0 -20 -9.5 -31.5t-20.5 -19.5q-30 -23 -48 -46t-18 -43q0 -16 9 -25.5t26 -9.5q9 0 16.5 2t14.5 5
q5 2 9.5 3t9.5 1q11 0 16 -5.5t5 -13.5q0 -12 -14 -21q-23 -17 -71 -17q-35 0 -57.5 16t-22.5 51q0 18 7.5 34t20.5 32q12 14 32.5 28.5t38.5 23.5q-15 10 -15 36v450z" />
    <glyph glyph-name="Kcommaaccent" unicode="&#x136;" horiz-adv-x="528" 
d="M498 32q0 -18 -11 -25.5t-23 -7.5t-19.5 5.5t-17.5 16.5l-284 321v-303q0 -18 -9.5 -29t-26.5 -11t-27 10.5t-10 29.5v633q0 17 10 28.5t27 11.5q16 0 26 -10.5t10 -29.5v-289l278 305q9 11 17.5 17.5t21.5 6.5q11 0 22 -7.5t11 -24.5t-14 -32l-267 -285l272 -300
q8 -10 11 -17t3 -14zM275 -59q22 0 33 -24.5t11 -53.5q0 -25 -9 -49t-22.5 -42.5t-29 -30t-28.5 -11.5q-14 0 -23 10t-9 21q0 15 8.5 23.5t19 16.5t19 20.5t8.5 35.5q0 17 -5.5 28t-5.5 25q0 12 9 21.5t24 9.5z" />
    <glyph glyph-name="kcommaaccent" unicode="&#x137;" horiz-adv-x="484" 
d="M444 32q0 -14 -9 -24t-25 -10q-11 0 -19 4.5t-15 11.5l-235 233v-206q0 -19 -10 -30.5t-26 -11.5t-25.5 11.5t-9.5 30.5v683q0 19 9.5 30t25.5 11t26 -11t10 -30v-420l231 213q8 8 15 12t17 4q17 0 26 -9.5t9 -23.5q0 -9 -3 -15t-8 -11l-222 -199l225 -215
q8 -8 10.5 -14.5t2.5 -13.5zM244 -59q22 0 33 -24.5t11 -53.5q0 -25 -9 -49t-22.5 -42.5t-29 -30t-28.5 -11.5q-14 0 -23 10t-9 21q0 15 8.5 23.5t19 16.5t19 20.5t8.5 35.5q0 17 -5.5 28t-5.5 25q0 12 9 21.5t24 9.5z" />
    <glyph glyph-name="Lacute" unicode="&#x139;" horiz-adv-x="412" 
d="M382 37q0 -14 -9.5 -24t-26.5 -10h-239q-17 0 -27 10.5t-10 27.5v629q0 20 9.5 30.5t26.5 10.5q16 0 26 -10.5t10 -30.5v-600h204q17 0 26.5 -9.5t9.5 -23.5zM253 864q0 -10 -4 -18t-19 -14l-145 -58q-6 -2 -11 -3.5t-11 -1.5q-13 0 -20.5 11t-7.5 23q0 8 3.5 15t16.5 12
l148 60q13 6 22 6q12 0 20 -10.5t8 -21.5z" />
    <glyph glyph-name="lacute" unicode="&#x13a;" horiz-adv-x="225" 
d="M148 41q0 -19 -10 -30.5t-26 -11.5t-25.5 11.5t-9.5 30.5v683q0 19 9.5 30t25.5 11t26 -11t10 -30v-683v0zM260 918q0 -10 -4 -18t-19 -14l-145 -58q-6 -2 -11 -3.5t-11 -1.5q-13 0 -20.5 11t-7.5 23q0 8 3.5 15t16.5 12l148 60q13 6 22 6q12 0 20 -10.5t8 -21.5z" />
    <glyph glyph-name="Lcommaaccent" unicode="&#x13b;" horiz-adv-x="225" 
d="M227 -59q22 0 33 -24.5t11 -53.5q0 -25 -9 -49t-22.5 -42.5t-29 -30t-28.5 -11.5q-14 0 -23 10t-9 21q0 15 8.5 23.5t19 16.5t19 20.5t8.5 35.5q0 17 -5.5 28t-5.5 25q0 12 9 21.5t24 9.5zM382 37q0 -14 -9.5 -24t-26.5 -10h-239q-17 0 -27 10.5t-10 27.5v629
q0 20 9.5 30.5t26.5 10.5q16 0 26 -10.5t10 -30.5v-600h204q17 0 26.5 -9.5t9.5 -23.5z" />
    <glyph glyph-name="lcommaaccent" unicode="&#x13c;" horiz-adv-x="225" 
d="M148 41q0 -19 -10 -30.5t-26 -11.5t-25.5 11.5t-9.5 30.5v683q0 19 9.5 30t25.5 11t26 -11t10 -30v-683v0zM113 -59q22 0 33 -24.5t11 -53.5q0 -25 -9 -49t-22.5 -42.5t-29 -30t-28.5 -11.5q-14 0 -23 10t-9 21q0 15 8.5 23.5t19 16.5t19 20.5t8.5 35.5q0 17 -5.5 28
t-5.5 25q0 12 9 21.5t24 9.5z" />
    <glyph glyph-name="Lcaron" unicode="&#x13d;" horiz-adv-x="412" 
d="M382 37q0 -14 -9.5 -24t-26.5 -10h-239q-17 0 -27 10.5t-10 27.5v629q0 20 9.5 30.5t26.5 10.5q16 0 26 -10.5t10 -30.5v-600h204q17 0 26.5 -9.5t9.5 -23.5zM288 730q12 0 23 -8.5t11 -22.5q0 -5 -1 -9.5t-2 -8.5l-37 -148q-4 -14 -14 -21t-21 -7q-17 0 -25.5 10.5
t-8.5 23.5q0 5 0.5 8.5t1.5 7.5l38 148q4 14 13.5 20.5t21.5 6.5z" />
    <glyph glyph-name="Nacute" unicode="&#x143;" horiz-adv-x="641" 
d="M571 40q0 -22 -11.5 -31.5t-28.5 -9.5q-13 0 -25.5 5t-20.5 19l-347 570h-2v-553q0 -41 -31 -41q-35 0 -35 41v630q0 21 13.5 31t30.5 10q20 0 29.5 -7.5t14.5 -16.5l345 -570h2v554q0 40 31 40q35 0 35 -40v-631v0zM444 864q0 -10 -4 -18t-19 -14l-145 -58
q-6 -2 -11 -3.5t-11 -1.5q-13 0 -20.5 11t-7.5 23q0 8 3.5 15t16.5 12l148 60q13 6 22 6q12 0 20 -10.5t8 -21.5z" />
    <glyph glyph-name="nacute" unicode="&#x144;" horiz-adv-x="537" 
d="M472 41q0 -20 -9.5 -31t-25.5 -11q-17 0 -26.5 11t-9.5 31v322q0 57 -27.5 81t-79.5 24q-36 0 -71 -15t-58 -36q-24 -23 -24 -47v-329q0 -20 -10 -31t-26 -11q-17 0 -26 11t-9 31v449q0 19 9.5 30t25.5 11t26 -11t10 -30v-26q32 34 77 53t96 19q75 0 116.5 -41.5
t41.5 -124.5v-329v0zM381 694q0 -10 -4 -18t-19 -14l-145 -58q-6 -2 -11 -3.5t-11 -1.5q-13 0 -20.5 11t-7.5 23q0 8 3.5 15t16.5 12l148 60q13 6 22 6q12 0 20 -10.5t8 -21.5z" />
    <glyph glyph-name="Ncommaaccent" unicode="&#x145;" horiz-adv-x="641" 
d="M571 40q0 -22 -11.5 -31.5t-28.5 -9.5q-13 0 -25.5 5t-20.5 19l-347 570h-2v-553q0 -41 -31 -41q-35 0 -35 41v630q0 21 13.5 31t30.5 10q20 0 29.5 -7.5t14.5 -16.5l345 -570h2v554q0 40 31 40q35 0 35 -40v-631v0zM314 -59q22 0 33 -24.5t11 -53.5q0 -25 -9 -49
t-22.5 -42.5t-29 -30t-28.5 -11.5q-14 0 -23 10t-9 21q0 15 8.5 23.5t19 16.5t19 20.5t8.5 35.5q0 17 -5.5 28t-5.5 25q0 12 9 21.5t24 9.5z" />
    <glyph glyph-name="ncommaaccent" unicode="&#x146;" horiz-adv-x="537" 
d="M472 41q0 -20 -9.5 -31t-25.5 -11q-17 0 -26.5 11t-9.5 31v322q0 57 -27.5 81t-79.5 24q-36 0 -71 -15t-58 -36q-24 -23 -24 -47v-329q0 -20 -10 -31t-26 -11q-17 0 -26 11t-9 31v449q0 19 9.5 30t25.5 11t26 -11t10 -30v-26q32 34 77 53t96 19q75 0 116.5 -41.5
t41.5 -124.5v-329v0zM272 -59q22 0 33 -24.5t11 -53.5q0 -25 -9 -49t-22.5 -42.5t-29 -30t-28.5 -11.5q-14 0 -23 10t-9 21q0 15 8.5 23.5t19 16.5t19 20.5t8.5 35.5q0 17 -5.5 28t-5.5 25q0 12 9 21.5t24 9.5z" />
    <glyph glyph-name="Ncaron" unicode="&#x147;" horiz-adv-x="641" 
d="M571 40q0 -22 -11.5 -31.5t-28.5 -9.5q-13 0 -25.5 5t-20.5 19l-347 570h-2v-553q0 -41 -31 -41q-35 0 -35 41v630q0 21 13.5 31t30.5 10q20 0 29.5 -7.5t14.5 -16.5l345 -570h2v554q0 40 31 40q35 0 35 -40v-631v0zM484 856q0 -10 -5 -18t-21 -15l-123 -54l-123 54
q-16 7 -21 14.5t-5 18.5t8.5 21t21.5 10q12 0 24 -7l95 -46l94 46q5 2 12 4.5t13 2.5q13 0 21.5 -10t8.5 -21z" />
    <glyph glyph-name="ncaron" unicode="&#x148;" horiz-adv-x="537" 
d="M472 41q0 -20 -9.5 -31t-25.5 -11q-17 0 -26.5 11t-9.5 31v322q0 57 -27.5 81t-79.5 24q-36 0 -71 -15t-58 -36q-24 -23 -24 -47v-329q0 -20 -10 -31t-26 -11q-17 0 -26 11t-9 31v449q0 19 9.5 30t25.5 11t26 -11t10 -30v-26q32 34 77 53t96 19q75 0 116.5 -41.5
t41.5 -124.5v-329v0zM420 686q0 -10 -5 -18t-21 -15l-123 -54l-123 54q-16 7 -21 14.5t-5 18.5t8.5 21t21.5 10q12 0 24 -7l95 -46l94 46q5 2 12 4.5t13 2.5q13 0 21.5 -10t8.5 -21z" />
    <glyph glyph-name="Omacron" unicode="&#x14c;" horiz-adv-x="643" 
d="M598 356q0 -180 -71.5 -270.5t-206.5 -90.5q-134 0 -204.5 90.5t-70.5 270.5q0 176 70.5 267.5t204.5 91.5q136 0 207 -91t71 -268zM520 357q0 154 -49.5 222.5t-149.5 68.5q-98 0 -148 -68.5t-50 -222.5t49.5 -224.5t148.5 -70.5q100 0 149.5 70.5t49.5 224.5zM459 802
q0 -16 -10.5 -24.5t-27.5 -8.5h-199q-17 0 -27.5 8.5t-10.5 24.5q0 15 10.5 24t27.5 9h199q17 0 27.5 -8.5t10.5 -24.5z" />
    <glyph glyph-name="omacron" unicode="&#x14d;" horiz-adv-x="527" 
d="M487 266q0 -72 -15.5 -123t-45 -84t-71 -48.5t-92.5 -15.5q-52 0 -93.5 15.5t-70 48.5t-44 84t-15.5 123q0 136 60.5 203t162.5 67q52 0 93.5 -16.5t70.5 -50.5t44.5 -84.5t15.5 -118.5zM413 266q0 107 -37 156.5t-112 49.5q-73 0 -111.5 -49.5t-38.5 -156.5
q0 -210 149 -210q74 0 112 52t38 158zM401 632q0 -16 -10.5 -24.5t-27.5 -8.5h-199q-17 0 -27.5 8.5t-10.5 24.5q0 15 10.5 24t27.5 9h199q17 0 27.5 -8.5t10.5 -24.5z" />
    <glyph glyph-name="Ohungarumlaut" unicode="&#x150;" horiz-adv-x="643" 
d="M598 356q0 -180 -71.5 -270.5t-206.5 -90.5q-134 0 -204.5 90.5t-70.5 270.5q0 176 70.5 267.5t204.5 91.5q136 0 207 -91t71 -268zM520 357q0 154 -49.5 222.5t-149.5 68.5q-98 0 -148 -68.5t-50 -222.5t49.5 -224.5t148.5 -70.5q100 0 149.5 70.5t49.5 224.5zM535 869
q0 -10 -4 -17.5t-19 -13.5l-139 -56q-9 -4 -13 -4.5t-9 -0.5q-12 0 -20 11t-8 23q0 8 4 15.5t17 12.5l141 56q15 6 22 6q12 0 20 -10.5t8 -21.5zM320 869q0 -10 -4.5 -17.5t-19.5 -13.5l-138 -56q-9 -4 -13 -4.5t-10 -0.5q-12 0 -20 11t-8 23q0 8 4 15.5t17 12.5l141 56
q15 6 23 6q11 0 19.5 -10.5t8.5 -21.5z" />
    <glyph glyph-name="ohungarumlaut" unicode="&#x151;" horiz-adv-x="527" 
d="M487 266q0 -72 -15.5 -123t-45 -84t-71 -48.5t-92.5 -15.5q-52 0 -93.5 15.5t-70 48.5t-44 84t-15.5 123q0 136 60.5 203t162.5 67q52 0 93.5 -16.5t70.5 -50.5t44.5 -84.5t15.5 -118.5zM413 266q0 107 -37 156.5t-112 49.5q-73 0 -111.5 -49.5t-38.5 -156.5
q0 -210 149 -210q74 0 112 52t38 158zM477 699q0 -10 -4 -17.5t-19 -13.5l-139 -56q-9 -4 -13 -4.5t-9 -0.5q-12 0 -20 11t-8 23q0 8 4 15.5t17 12.5l141 56q15 6 22 6q12 0 20 -10.5t8 -21.5zM262 699q0 -10 -4.5 -17.5t-19.5 -13.5l-138 -56q-9 -4 -13 -4.5t-10 -0.5
q-12 0 -20 11t-8 23q0 8 4 15.5t17 12.5l141 56q15 6 23 6q11 0 19.5 -10.5t8.5 -21.5z" />
    <glyph glyph-name="Racute" unicode="&#x154;" horiz-adv-x="514" 
d="M469 33q0 -15 -10.5 -24.5t-25.5 -9.5q-24 0 -36 20l-183 312h-71v-291q0 -20 -10 -30.5t-26 -10.5q-17 0 -27 10.5t-10 30.5v630q0 17 11 27t30 10h155q100 0 150 -50.5t50 -135.5q0 -83 -42.5 -133t-131.5 -57l169 -272q5 -8 6.5 -14t1.5 -12zM393 519q0 36 -10.5 60
t-28 38.5t-41 20t-48.5 5.5h-122v-250h130q63 0 91.5 34t28.5 92zM365 864q0 -10 -4 -18t-19 -14l-145 -58q-6 -2 -11 -3.5t-11 -1.5q-13 0 -20.5 11t-7.5 23q0 8 3.5 15t16.5 12l148 60q13 6 22 6q12 0 20 -10.5t8 -21.5z" />
    <glyph glyph-name="racute" unicode="&#x155;" horiz-adv-x="337" 
d="M317 499q0 -25 -25 -33q-7 -2 -15 -3t-17 -2q-26 -3 -50.5 -13t-44.5 -31q-10 -11 -17 -26t-7 -41v-310q0 -19 -9.5 -30t-26.5 -11q-16 0 -25.5 11t-9.5 30v450q0 18 9 29.5t26 11.5t25.5 -11.5t8.5 -29.5v-29h1q23 28 60.5 49.5t77.5 21.5q18 0 28.5 -9t10.5 -24z
M302 694q0 -10 -4 -18t-19 -14l-145 -58q-6 -2 -11 -3.5t-11 -1.5q-13 0 -20.5 11t-7.5 23q0 8 3.5 15t16.5 12l148 60q13 6 22 6q12 0 20 -10.5t8 -21.5z" />
    <glyph glyph-name="Rcommaaccent" unicode="&#x156;" horiz-adv-x="514" 
d="M469 33q0 -15 -10.5 -24.5t-25.5 -9.5q-24 0 -36 20l-183 312h-71v-291q0 -20 -10 -30.5t-26 -10.5q-17 0 -27 10.5t-10 30.5v630q0 17 11 27t30 10h155q100 0 150 -50.5t50 -135.5q0 -83 -42.5 -133t-131.5 -57l169 -272q5 -8 6.5 -14t1.5 -12zM393 519q0 36 -10.5 60
t-28 38.5t-41 20t-48.5 5.5h-122v-250h130q63 0 91.5 34t28.5 92zM263 -59q22 0 33 -24.5t11 -53.5q0 -25 -9 -49t-22.5 -42.5t-29 -30t-28.5 -11.5q-14 0 -23 10t-9 21q0 15 8.5 23.5t19 16.5t19 20.5t8.5 35.5q0 17 -5.5 28t-5.5 25q0 12 9 21.5t24 9.5z" />
    <glyph glyph-name="rcommaaccent" unicode="&#x157;" horiz-adv-x="337" 
d="M317 499q0 -25 -25 -33q-7 -2 -15 -3t-17 -2q-26 -3 -50.5 -13t-44.5 -31q-10 -11 -17 -26t-7 -41v-310q0 -19 -9.5 -30t-26.5 -11q-16 0 -25.5 11t-9.5 30v450q0 18 9 29.5t26 11.5t25.5 -11.5t8.5 -29.5v-29h1q23 28 60.5 49.5t77.5 21.5q18 0 28.5 -9t10.5 -24z
M106 -59q22 0 33 -24.5t11 -53.5q0 -25 -9 -49t-22.5 -42.5t-29 -30t-28.5 -11.5q-14 0 -23 10t-9 21q0 15 8.5 23.5t19 16.5t19 20.5t8.5 35.5q0 17 -5.5 28t-5.5 25q0 12 9 21.5t24 9.5z" />
    <glyph glyph-name="Rcaron" unicode="&#x158;" horiz-adv-x="514" 
d="M469 33q0 -15 -10.5 -24.5t-25.5 -9.5q-24 0 -36 20l-183 312h-71v-291q0 -20 -10 -30.5t-26 -10.5q-17 0 -27 10.5t-10 30.5v630q0 17 11 27t30 10h155q100 0 150 -50.5t50 -135.5q0 -83 -42.5 -133t-131.5 -57l169 -272q5 -8 6.5 -14t1.5 -12zM393 519q0 36 -10.5 60
t-28 38.5t-41 20t-48.5 5.5h-122v-250h130q63 0 91.5 34t28.5 92zM405 856q0 -10 -5 -18t-21 -15l-123 -54l-123 54q-16 7 -21 14.5t-5 18.5t8.5 21t21.5 10q12 0 24 -7l95 -46l94 46q5 2 12 4.5t13 2.5q13 0 21.5 -10t8.5 -21z" />
    <glyph glyph-name="rcaron" unicode="&#x159;" horiz-adv-x="337" 
d="M317 499q0 -25 -25 -33q-7 -2 -15 -3t-17 -2q-26 -3 -50.5 -13t-44.5 -31q-10 -11 -17 -26t-7 -41v-310q0 -19 -9.5 -30t-26.5 -11q-16 0 -25.5 11t-9.5 30v450q0 18 9 29.5t26 11.5t25.5 -11.5t8.5 -29.5v-29h1q23 28 60.5 49.5t77.5 21.5q18 0 28.5 -9t10.5 -24z
M342 686q0 -10 -5 -18t-21 -15l-123 -54l-123 54q-16 7 -21 14.5t-5 18.5t8.5 21t21.5 10q12 0 24 -7l95 -46l94 46q5 2 12 4.5t13 2.5q13 0 21.5 -10t8.5 -21z" />
    <glyph glyph-name="Sacute" unicode="&#x15a;" horiz-adv-x="475" 
d="M435 182q0 -45 -16 -79.5t-46 -58.5t-72.5 -36.5t-94.5 -12.5q-45 0 -84.5 7t-64.5 24q-17 11 -17 29q0 14 10 23t24 9q15 0 35 -6q21 -8 47.5 -12.5t58.5 -4.5q73 0 109 31t36 85q0 28 -13 50.5t-34.5 42t-50.5 37t-61 35.5q-31 18 -59.5 37.5t-50 43.5t-34.5 52.5
t-13 64.5q0 40 14.5 72t41 54.5t63 34.5t81.5 12q38 0 73 -6t62 -19q20 -10 20 -29q0 -15 -9 -24.5t-25 -9.5q-7 0 -16.5 2t-22.5 5q-19 5 -39 8.5t-43 3.5q-60 0 -92.5 -25t-32.5 -76q0 -26 12 -47t31.5 -39t45.5 -34t55 -32q33 -19 64 -39t55 -45t38.5 -56.5t14.5 -71.5z
M346 864q0 -10 -4 -18t-19 -14l-145 -58q-6 -2 -11 -3.5t-11 -1.5q-13 0 -20.5 11t-7.5 23q0 8 3.5 15t16.5 12l148 60q13 6 22 6q12 0 20 -10.5t8 -21.5z" />
    <glyph glyph-name="sacute" unicode="&#x15b;" horiz-adv-x="415" 
d="M375 139q0 -66 -47.5 -105t-129.5 -39q-42 0 -76.5 5.5t-60.5 18.5q-9 5 -15 11.5t-6 16.5q0 17 9 24t23 7q11 0 24 -4q20 -7 43 -10.5t59 -3.5q107 0 107 73q0 34 -26.5 56t-85.5 51q-31 15 -57.5 30.5t-46 34.5t-30.5 42.5t-11 55.5q0 60 40.5 97t121.5 37q32 0 66 -6
t58 -21q8 -5 12 -11t4 -16q0 -14 -9 -22t-20 -8t-29 6q-39 12 -86 12q-49 0 -70 -18t-21 -50q0 -17 7.5 -30.5t21 -25t33.5 -22.5t45 -23q33 -17 61.5 -33t48.5 -34.5t31.5 -42t11.5 -53.5zM319 694q0 -10 -4 -18t-19 -14l-145 -58q-6 -2 -11 -3.5t-11 -1.5q-13 0 -20.5 11
t-7.5 23q0 8 3.5 15t16.5 12l148 60q13 6 22 6q12 0 20 -10.5t8 -21.5z" />
    <glyph glyph-name="Scedilla" unicode="&#x15e;" horiz-adv-x="475" 
d="M325 -102q0 -42 -36 -64q-26 -17 -62 -17q-20 0 -38.5 4.5t-29.5 14.5q-9 7 -9 17q0 8 5.5 15t16.5 7q5 0 9 -1.5t9 -3.5q8 -4 17.5 -6.5t21.5 -2.5q17 0 28.5 8.5t11.5 23.5q0 18 -14.5 24t-28.5 6h-7t-6 -1q-3 0 -7 -0.5t-6 -0.5q-6 0 -10.5 4.5t-4.5 11.5q0 8 6 17
l28 41h-13q-45 0 -84.5 7t-64.5 24q-17 11 -17 29q0 14 10 23t24 9q15 0 35 -6q21 -8 47.5 -12.5t58.5 -4.5q73 0 109 31t36 85q0 28 -13 50.5t-34.5 42t-50.5 37t-61 35.5q-31 18 -59.5 37.5t-50 43.5t-34.5 52.5t-13 64.5q0 40 14.5 72t41 54.5t63 34.5t81.5 12
q38 0 73 -6t62 -19q20 -10 20 -29q0 -15 -9 -24.5t-25 -9.5q-7 0 -16.5 2t-22.5 5q-19 5 -39 8.5t-43 3.5q-60 0 -92.5 -25t-32.5 -76q0 -26 12 -47t31.5 -39t45.5 -34t55 -32q33 -19 64 -39t55 -45t38.5 -56.5t14.5 -71.5q0 -76 -45.5 -123t-124.5 -59l-30 -43l2 -1
q5 1 11 1.5t11 0.5q28 0 45 -14q21 -17 21 -46z" />
    <glyph glyph-name="scedilla" unicode="&#x15f;" horiz-adv-x="415" 
d="M295 -102q0 -42 -36 -64q-26 -17 -62 -17q-20 0 -38.5 4.5t-29.5 14.5q-9 7 -9 17q0 8 5.5 15t16.5 7q5 0 9 -1.5t9 -3.5q8 -4 17.5 -6.5t21.5 -2.5q17 0 28.5 8.5t11.5 23.5q0 18 -14.5 24t-28.5 6h-7t-6 -1q-3 0 -7 -0.5t-6 -0.5q-6 0 -10.5 4.5t-4.5 11.5q0 8 6 17
l28 41q-38 1 -70.5 6.5t-57.5 17.5q-9 5 -15 11.5t-6 16.5q0 17 9 24t23 7q11 0 24 -4q20 -7 43 -10.5t59 -3.5q107 0 107 73q0 34 -26.5 56t-85.5 51q-31 15 -57.5 30.5t-46 34.5t-30.5 42.5t-11 55.5q0 60 40.5 97t121.5 37q32 0 66 -6t58 -21q8 -5 12 -11t4 -16
q0 -14 -9 -22t-20 -8t-29 6q-39 12 -86 12q-49 0 -70 -18t-21 -50q0 -17 7.5 -30.5t21 -25t33.5 -22.5t45 -23q33 -17 61.5 -33t48.5 -34.5t31.5 -42t11.5 -53.5q0 -58 -37.5 -96t-103.5 -46l-29 -40l2 -1q5 1 11 1.5t11 0.5q28 0 45 -14q21 -17 21 -46z" />
    <glyph glyph-name="Scaron" unicode="&#x160;" horiz-adv-x="475" 
d="M435 182q0 -45 -16 -79.5t-46 -58.5t-72.5 -36.5t-94.5 -12.5q-45 0 -84.5 7t-64.5 24q-17 11 -17 29q0 14 10 23t24 9q15 0 35 -6q21 -8 47.5 -12.5t58.5 -4.5q73 0 109 31t36 85q0 28 -13 50.5t-34.5 42t-50.5 37t-61 35.5q-31 18 -59.5 37.5t-50 43.5t-34.5 52.5
t-13 64.5q0 40 14.5 72t41 54.5t63 34.5t81.5 12q38 0 73 -6t62 -19q20 -10 20 -29q0 -15 -9 -24.5t-25 -9.5q-7 0 -16.5 2t-22.5 5q-19 5 -39 8.5t-43 3.5q-60 0 -92.5 -25t-32.5 -76q0 -26 12 -47t31.5 -39t45.5 -34t55 -32q33 -19 64 -39t55 -45t38.5 -56.5t14.5 -71.5z
M386 856q0 -10 -5 -18t-21 -15l-123 -54l-123 54q-16 7 -21 14.5t-5 18.5t8.5 21t21.5 10q12 0 24 -7l95 -46l94 46q5 2 12 4.5t13 2.5q13 0 21.5 -10t8.5 -21z" />
    <glyph glyph-name="scaron" unicode="&#x161;" horiz-adv-x="415" 
d="M375 139q0 -66 -47.5 -105t-129.5 -39q-42 0 -76.5 5.5t-60.5 18.5q-9 5 -15 11.5t-6 16.5q0 17 9 24t23 7q11 0 24 -4q20 -7 43 -10.5t59 -3.5q107 0 107 73q0 34 -26.5 56t-85.5 51q-31 15 -57.5 30.5t-46 34.5t-30.5 42.5t-11 55.5q0 60 40.5 97t121.5 37q32 0 66 -6
t58 -21q8 -5 12 -11t4 -16q0 -14 -9 -22t-20 -8t-29 6q-39 12 -86 12q-49 0 -70 -18t-21 -50q0 -17 7.5 -30.5t21 -25t33.5 -22.5t45 -23q33 -17 61.5 -33t48.5 -34.5t31.5 -42t11.5 -53.5zM359 686q0 -10 -5 -18t-21 -15l-123 -54l-123 54q-16 7 -21 14.5t-5 18.5t8.5 21
t21.5 10q12 0 24 -7l95 -46l94 46q5 2 12 4.5t13 2.5q13 0 21.5 -10t8.5 -21z" />
    <glyph glyph-name="Tcommaaccent" unicode="&#x162;" horiz-adv-x="493" 
d="M463 673q0 -14 -9.5 -23.5t-26.5 -9.5h-144v-600q0 -20 -9.5 -30.5t-26.5 -10.5q-16 0 -26.5 10.5t-10.5 30.5v600h-143q-18 0 -27.5 9.5t-9.5 23.5q0 13 10 23.5t26 10.5h361q16 0 26 -10t10 -24zM247 -59q22 0 33 -24.5t11 -53.5q0 -25 -9 -49t-22.5 -42.5t-29 -30
t-28.5 -11.5q-14 0 -23 10t-9 21q0 15 8.5 23.5t19 16.5t19 20.5t8.5 35.5q0 17 -5.5 28t-5.5 25q0 12 9 21.5t24 9.5z" />
    <glyph glyph-name="tcommaaccent" unicode="&#x163;" horiz-adv-x="314" 
d="M284 495q0 -14 -8 -22.5t-25 -8.5h-61v-424q0 -19 -9.5 -30t-26.5 -11q-16 0 -25.5 11t-9.5 30v424h-57q-17 0 -24.5 9.5t-7.5 21.5t7.5 21.5t23.5 9.5h58v123q0 19 9 30t26 11q16 0 26 -11t10 -30v-124h61q16 0 24.5 -8.5t8.5 -21.5zM158 -59q22 0 33 -24.5t11 -53.5
q0 -25 -9 -49t-22.5 -42.5t-29 -30t-28.5 -11.5q-14 0 -23 10t-9 21q0 15 8.5 23.5t19 16.5t19 20.5t8.5 35.5q0 17 -5.5 28t-5.5 25q0 12 9 21.5t24 9.5z" />
    <glyph glyph-name="Tcaron" unicode="&#x164;" horiz-adv-x="493" 
d="M463 673q0 -14 -9.5 -23.5t-26.5 -9.5h-144v-600q0 -20 -9.5 -30.5t-26.5 -10.5q-16 0 -26.5 10.5t-10.5 30.5v600h-143q-18 0 -27.5 9.5t-9.5 23.5q0 13 10 23.5t26 10.5h361q16 0 26 -10t10 -24zM395 856q0 -10 -5 -18t-21 -15l-123 -54l-123 54q-16 7 -21 14.5
t-5 18.5t8.5 21t21.5 10q12 0 24 -7l95 -46l94 46q5 2 12 4.5t13 2.5q13 0 21.5 -10t8.5 -21z" />
    <glyph glyph-name="tcaron" unicode="&#x165;" horiz-adv-x="523" 
d="M284 495q0 -14 -8 -22.5t-25 -8.5h-61v-424q0 -19 -9.5 -30t-26.5 -11q-16 0 -25.5 11t-9.5 30v424h-57q-17 0 -24.5 9.5t-7.5 21.5t7.5 21.5t23.5 9.5h58v123q0 19 9 30t26 11q16 0 26 -11t10 -30v-124h61q16 0 24.5 -8.5t8.5 -21.5zM336 824q12 0 23 -8.5t11 -22.5
q0 -5 -1 -9.5t-2 -8.5l-37 -148q-4 -14 -14 -21t-21 -7q-17 0 -25.5 10.5t-8.5 23.5q0 5 0.5 8.5t1.5 7.5l38 148q4 14 13.5 20.5t21.5 6.5z" />
    <glyph glyph-name="Umacron" unicode="&#x16a;" horiz-adv-x="623" 
d="M558 247q0 -58 -14 -104.5t-43.5 -79.5t-76 -51t-112.5 -18t-113 18t-76.5 51t-43.5 79.5t-14 104.5v424q0 19 10 29.5t26 10.5q17 0 26.5 -10.5t9.5 -29.5v-440q0 -85 44.5 -128.5t129.5 -43.5t129.5 43.5t44.5 128.5v440q0 19 9.5 29.5t26.5 10.5q16 0 26.5 -10.5
t10.5 -29.5v-424v0zM449 802q0 -16 -10.5 -24.5t-27.5 -8.5h-199q-17 0 -27.5 8.5t-10.5 24.5q0 15 10.5 24t27.5 9h199q17 0 27.5 -8.5t10.5 -24.5z" />
    <glyph glyph-name="umacron" unicode="&#x16b;" horiz-adv-x="531" 
d="M466 190q0 -92 -48 -143.5t-152 -51.5q-105 0 -153 51.5t-48 143.5v300q0 20 9.5 31t25.5 11t26 -11t10 -31v-314q0 -60 34.5 -89t94.5 -29t95 29t35 89v314q0 20 9.5 31t26.5 11q16 0 25.5 -11t9.5 -31v-300v0zM403 632q0 -16 -10.5 -24.5t-27.5 -8.5h-199
q-17 0 -27.5 8.5t-10.5 24.5q0 15 10.5 24t27.5 9h199q17 0 27.5 -8.5t10.5 -24.5z" />
    <glyph glyph-name="Uring" unicode="&#x16e;" horiz-adv-x="623" 
d="M558 247q0 -58 -14 -104.5t-43.5 -79.5t-76 -51t-112.5 -18t-113 18t-76.5 51t-43.5 79.5t-14 104.5v424q0 19 10 29.5t26 10.5q17 0 26.5 -10.5t9.5 -29.5v-440q0 -85 44.5 -128.5t129.5 -43.5t129.5 43.5t44.5 128.5v440q0 19 9.5 29.5t26.5 10.5q16 0 26.5 -10.5
t10.5 -29.5v-424v0zM402 802q0 -38 -26.5 -64.5t-64.5 -26.5q-37 0 -63.5 26.5t-26.5 64.5t26 64.5t64 26.5t64.5 -26.5t26.5 -64.5zM364 802q0 22 -15.5 37.5t-37.5 15.5t-37 -15.5t-15 -37.5t15 -37.5t37 -15.5t37.5 15.5t15.5 37.5z" />
    <glyph glyph-name="uring" unicode="&#x16f;" horiz-adv-x="531" 
d="M466 190q0 -92 -48 -143.5t-152 -51.5q-105 0 -153 51.5t-48 143.5v300q0 20 9.5 31t25.5 11t26 -11t10 -31v-314q0 -60 34.5 -89t94.5 -29t95 29t35 89v314q0 20 9.5 31t26.5 11q16 0 25.5 -11t9.5 -31v-300v0zM356 623q0 -38 -26.5 -64.5t-64.5 -26.5q-37 0 -63.5 26.5
t-26.5 64.5t26 64.5t64 26.5t64.5 -26.5t26.5 -64.5zM318 623q0 22 -15.5 37.5t-37.5 15.5t-37 -15.5t-15 -37.5t15 -37.5t37 -15.5t37.5 15.5t15.5 37.5z" />
    <glyph glyph-name="Uhungarumlaut" unicode="&#x170;" horiz-adv-x="623" 
d="M558 247q0 -58 -14 -104.5t-43.5 -79.5t-76 -51t-112.5 -18t-113 18t-76.5 51t-43.5 79.5t-14 104.5v424q0 19 10 29.5t26 10.5q17 0 26.5 -10.5t9.5 -29.5v-440q0 -85 44.5 -128.5t129.5 -43.5t129.5 43.5t44.5 128.5v440q0 19 9.5 29.5t26.5 10.5q16 0 26.5 -10.5
t10.5 -29.5v-424v0zM525 869q0 -10 -4 -17.5t-19 -13.5l-139 -56q-9 -4 -13 -4.5t-9 -0.5q-12 0 -20 11t-8 23q0 8 4 15.5t17 12.5l141 56q15 6 22 6q12 0 20 -10.5t8 -21.5zM310 869q0 -10 -4.5 -17.5t-19.5 -13.5l-138 -56q-9 -4 -13 -4.5t-10 -0.5q-12 0 -20 11t-8 23
q0 8 4 15.5t17 12.5l141 56q15 6 23 6q11 0 19.5 -10.5t8.5 -21.5z" />
    <glyph glyph-name="uhungarumlaut" unicode="&#x171;" horiz-adv-x="531" 
d="M466 190q0 -92 -48 -143.5t-152 -51.5q-105 0 -153 51.5t-48 143.5v300q0 20 9.5 31t25.5 11t26 -11t10 -31v-314q0 -60 34.5 -89t94.5 -29t95 29t35 89v314q0 20 9.5 31t26.5 11q16 0 25.5 -11t9.5 -31v-300v0zM479 699q0 -10 -4 -17.5t-19 -13.5l-139 -56
q-9 -4 -13 -4.5t-9 -0.5q-12 0 -20 11t-8 23q0 8 4 15.5t17 12.5l141 56q15 6 22 6q12 0 20 -10.5t8 -21.5zM264 699q0 -10 -4.5 -17.5t-19.5 -13.5l-138 -56q-9 -4 -13 -4.5t-10 -0.5q-12 0 -20 11t-8 23q0 8 4 15.5t17 12.5l141 56q15 6 23 6q11 0 19.5 -10.5t8.5 -21.5z
" />
    <glyph glyph-name="Uogonek" unicode="&#x172;" horiz-adv-x="623" 
d="M406 -143q0 -12 -14 -21q-23 -17 -71 -17q-35 0 -57.5 16t-22.5 51t28 66q11 13 24.5 23.5t27.5 18.5h-9q-66 0 -113 18t-76.5 51t-43.5 79.5t-14 104.5v424q0 19 10 29.5t26 10.5q17 0 26.5 -10.5t9.5 -29.5v-440q0 -85 44.5 -128.5t129.5 -43.5t129.5 43.5t44.5 128.5
v440q0 19 9.5 29.5t26.5 10.5q16 0 26.5 -10.5t10.5 -29.5v-424q0 -99 -41.5 -164.5t-135.5 -82.5h1q-16 -10 -30.5 -22.5t-26 -26t-18.5 -26.5t-7 -25q0 -16 9 -25.5t26 -9.5q9 0 16.5 2t14.5 5q5 2 9.5 3t9.5 1q11 0 16 -5.5t5 -13.5z" />
    <glyph glyph-name="uogonek" unicode="&#x173;" horiz-adv-x="531" 
d="M348 -143q0 -12 -14 -21q-23 -17 -71 -17q-35 0 -57.5 16t-22.5 51t28 66q11 14 25 24.5t29 18.5q-104 0 -152 51.5t-48 143.5v300q0 20 9.5 31t25.5 11t26 -11t10 -31v-314q0 -60 34.5 -89t94.5 -29t95 29t35 89v314q0 20 9.5 31t26.5 11q16 0 25.5 -11t9.5 -31v-300
q0 -78 -34.5 -127t-108.5 -63h1q-16 -10 -30.5 -22.5t-26 -26t-18.5 -26.5t-7 -25q0 -16 9 -25.5t26 -9.5q9 0 16.5 2t14.5 5q5 2 9.5 3t9.5 1q11 0 16 -5.5t5 -13.5z" />
    <glyph glyph-name="Zacute" unicode="&#x179;" horiz-adv-x="527" 
d="M497 37q0 -14 -11 -24t-26 -10h-376q-25 0 -37 11t-12 28q0 9 4.5 19.5t13.5 24.5l341 555h-306q-16 0 -26 9t-10 23t10.5 24t24.5 10h362q20 0 29 -10t9 -22q0 -19 -12 -34l-352 -572h337q17 0 27 -9t10 -23zM375 864q0 -10 -4 -18t-19 -14l-145 -58q-6 -2 -11 -3.5
t-11 -1.5q-13 0 -20.5 11t-7.5 23q0 8 3.5 15t16.5 12l148 60q13 6 22 6q12 0 20 -10.5t8 -21.5z" />
    <glyph glyph-name="zacute" unicode="&#x17a;" horiz-adv-x="455" 
d="M425 36q0 -14 -10 -23t-26 -9h-324q-30 0 -30 32q0 12 3.5 19.5t8.5 15.5l279 389v2h-247q-15 0 -25.5 9t-10.5 23t10 23.5t26 9.5h302q15 0 24 -8.5t9 -24.5q0 -21 -12 -36l-277 -387v-2h264q15 0 25.5 -9.5t10.5 -23.5zM339 694q0 -10 -4 -18t-19 -14l-145 -58
q-6 -2 -11 -3.5t-11 -1.5q-13 0 -20.5 11t-7.5 23q0 8 3.5 15t16.5 12l148 60q13 6 22 6q12 0 20 -10.5t8 -21.5z" />
    <glyph glyph-name="Zdotaccent" unicode="&#x17b;" horiz-adv-x="527" 
d="M497 37q0 -14 -11 -24t-26 -10h-376q-25 0 -37 11t-12 28q0 9 4.5 19.5t13.5 24.5l341 555h-306q-16 0 -26 9t-10 23t10.5 24t24.5 10h362q20 0 29 -10t9 -22q0 -19 -12 -34l-352 -572h337q17 0 27 -9t10 -23zM312 819q0 -22 -13.5 -36t-33.5 -14t-34.5 14t-14.5 35
q0 22 14.5 36t34.5 14t33.5 -14t13.5 -35z" />
    <glyph glyph-name="zdotaccent" unicode="&#x17c;" horiz-adv-x="455" 
d="M425 36q0 -14 -10 -23t-26 -9h-324q-30 0 -30 32q0 12 3.5 19.5t8.5 15.5l279 389v2h-247q-15 0 -25.5 9t-10.5 23t10 23.5t26 9.5h302q15 0 24 -8.5t9 -24.5q0 -21 -12 -36l-277 -387v-2h264q15 0 25.5 -9.5t10.5 -23.5zM276 649q0 -22 -13.5 -36t-33.5 -14t-34.5 14
t-14.5 35q0 22 14.5 36t34.5 14t33.5 -14t13.5 -35z" />
    <glyph glyph-name="Zcaron" unicode="&#x17d;" horiz-adv-x="527" 
d="M497 37q0 -14 -11 -24t-26 -10h-376q-25 0 -37 11t-12 28q0 9 4.5 19.5t13.5 24.5l341 555h-306q-16 0 -26 9t-10 23t10.5 24t24.5 10h362q20 0 29 -10t9 -22q0 -19 -12 -34l-352 -572h337q17 0 27 -9t10 -23zM415 856q0 -10 -5 -18t-21 -15l-123 -54l-123 54
q-16 7 -21 14.5t-5 18.5t8.5 21t21.5 10q12 0 24 -7l95 -46l94 46q5 2 12 4.5t13 2.5q13 0 21.5 -10t8.5 -21z" />
    <glyph glyph-name="zcaron" unicode="&#x17e;" horiz-adv-x="455" 
d="M425 36q0 -14 -10 -23t-26 -9h-324q-30 0 -30 32q0 12 3.5 19.5t8.5 15.5l279 389v2h-247q-15 0 -25.5 9t-10.5 23t10 23.5t26 9.5h302q15 0 24 -8.5t9 -24.5q0 -21 -12 -36l-277 -387v-2h264q15 0 25.5 -9.5t10.5 -23.5zM379 686q0 -10 -5 -18t-21 -15l-123 -54l-123 54
q-16 7 -21 14.5t-5 18.5t8.5 21t21.5 10q12 0 24 -7l95 -46l94 46q5 2 12 4.5t13 2.5q13 0 21.5 -10t8.5 -21z" />
    <glyph glyph-name="Scommaaccent" unicode="&#x218;" horiz-adv-x="475" 
d="M435 182q0 -45 -16 -79.5t-46 -58.5t-72.5 -36.5t-94.5 -12.5q-45 0 -84.5 7t-64.5 24q-17 11 -17 29q0 14 10 23t24 9q15 0 35 -6q21 -8 47.5 -12.5t58.5 -4.5q73 0 109 31t36 85q0 28 -13 50.5t-34.5 42t-50.5 37t-61 35.5q-31 18 -59.5 37.5t-50 43.5t-34.5 52.5
t-13 64.5q0 40 14.5 72t41 54.5t63 34.5t81.5 12q38 0 73 -6t62 -19q20 -10 20 -29q0 -15 -9 -24.5t-25 -9.5q-7 0 -16.5 2t-22.5 5q-19 5 -39 8.5t-43 3.5q-60 0 -92.5 -25t-32.5 -76q0 -26 12 -47t31.5 -39t45.5 -34t55 -32q33 -19 64 -39t55 -45t38.5 -56.5t14.5 -71.5z
M238 -59q22 0 33 -24.5t11 -53.5q0 -25 -9 -49t-22.5 -42.5t-29 -30t-28.5 -11.5q-14 0 -23 10t-9 21q0 15 8.5 23.5t19 16.5t19 20.5t8.5 35.5q0 17 -5.5 28t-5.5 25q0 12 9 21.5t24 9.5z" />
    <glyph glyph-name="scommaaccent" unicode="&#x219;" horiz-adv-x="415" 
d="M375 139q0 -66 -47.5 -105t-129.5 -39q-42 0 -76.5 5.5t-60.5 18.5q-9 5 -15 11.5t-6 16.5q0 17 9 24t23 7q11 0 24 -4q20 -7 43 -10.5t59 -3.5q107 0 107 73q0 34 -26.5 56t-85.5 51q-31 15 -57.5 30.5t-46 34.5t-30.5 42.5t-11 55.5q0 60 40.5 97t121.5 37q32 0 66 -6
t58 -21q8 -5 12 -11t4 -16q0 -14 -9 -22t-20 -8t-29 6q-39 12 -86 12q-49 0 -70 -18t-21 -50q0 -17 7.5 -30.5t21 -25t33.5 -22.5t45 -23q33 -17 61.5 -33t48.5 -34.5t31.5 -42t11.5 -53.5zM198 -59q22 0 33 -24.5t11 -53.5q0 -25 -9 -49t-22.5 -42.5t-29 -30t-28.5 -11.5
q-14 0 -23 10t-9 21q0 15 8.5 23.5t19 16.5t19 20.5t8.5 35.5q0 17 -5.5 28t-5.5 25q0 12 9 21.5t24 9.5z" />
    <glyph glyph-name="uni021A" unicode="&#x21a;" horiz-adv-x="493" 
d="M463 673q0 -14 -9.5 -23.5t-26.5 -9.5h-144v-600q0 -20 -9.5 -30.5t-26.5 -10.5q-16 0 -26.5 10.5t-10.5 30.5v600h-143q-18 0 -27.5 9.5t-9.5 23.5q0 13 10 23.5t26 10.5h361q16 0 26 -10t10 -24zM247 -59q22 0 33 -24.5t11 -53.5q0 -25 -9 -49t-22.5 -42.5t-29 -30
t-28.5 -11.5q-14 0 -23 10t-9 21q0 15 8.5 23.5t19 16.5t19 20.5t8.5 35.5q0 17 -5.5 28t-5.5 25q0 12 9 21.5t24 9.5z" />
    <glyph glyph-name="uni021B" unicode="&#x21b;" horiz-adv-x="314" 
d="M284 495q0 -14 -8 -22.5t-25 -8.5h-61v-424q0 -19 -9.5 -30t-26.5 -11q-16 0 -25.5 11t-9.5 30v424h-57q-17 0 -24.5 9.5t-7.5 21.5t7.5 21.5t23.5 9.5h58v123q0 19 9 30t26 11q16 0 26 -11t10 -30v-124h61q16 0 24.5 -8.5t8.5 -21.5zM158 -59q22 0 33 -24.5t11 -53.5
q0 -25 -9 -49t-22.5 -42.5t-29 -30t-28.5 -11.5q-14 0 -23 10t-9 21q0 15 8.5 23.5t19 16.5t19 20.5t8.5 35.5q0 17 -5.5 28t-5.5 25q0 12 9 21.5t24 9.5z" />
    <glyph glyph-name="lcaron" unicode="&#x13e;" horiz-adv-x="434" 
d="M148 41q0 -19 -10 -30.5t-26 -11.5t-25.5 11.5t-9.5 30.5v683q0 19 9.5 30t25.5 11t26 -11t10 -30v-683v0zM293 730q12 0 23 -8.5t11 -22.5q0 -5 -1 -9.5t-2 -8.5l-37 -148q-4 -14 -14 -21t-21 -7q-17 0 -25.5 10.5t-8.5 23.5q0 5 0.5 8.5t1.5 7.5l38 148q4 14 13.5 20.5
t21.5 6.5z" />
    <glyph glyph-name="zero" unicode="0" 
d="M496 355q0 -104 -17.5 -173t-48 -111t-72 -59.5t-89.5 -17.5q-52 0 -94.5 17.5t-72.5 59.5t-46 111t-16 173q0 103 17.5 172t48.5 111t72.5 59.5t89.5 17.5q52 0 94 -17.5t72 -59.5t46 -111t16 -172zM420 355q0 71 -7.5 126t-25 92t-46.5 56t-72 19t-72 -19t-47 -56
t-25.5 -92t-7.5 -126t7.5 -126t25 -92.5t46.5 -56.5t72 -19q86 0 119 75.5t33 218.5z" />
    <glyph glyph-name="one" unicode="1" 
d="M312 40q0 -20 -10 -30.5t-26 -10.5q-17 0 -27 10.5t-10 30.5v600h-89q-17 0 -26.5 9.5t-9.5 23.5q0 13 9.5 23.5t26.5 10.5h126q16 0 26 -10t10 -24v-633v0z" />
    <glyph glyph-name="two" unicode="2" 
d="M471 37q0 -15 -10 -24.5t-26 -9.5h-331q-39 0 -39 42q0 11 3 19t11 19l226 296q40 52 55 88.5t15 68.5q0 23 -6.5 43.5t-21.5 35.5t-38.5 24t-57.5 9q-33 0 -61.5 -8t-60.5 -22q-8 -3 -18 -3q-14 0 -22.5 8t-8.5 22q0 19 17 30q25 17 66 29t90 12q97 0 147.5 -47.5
t50.5 -129.5q0 -51 -23 -98t-70 -108l-204 -262v-2h280q16 0 26.5 -8.5t10.5 -23.5z" />
    <glyph glyph-name="three" unicode="3" 
d="M462 204q0 -46 -15.5 -84.5t-44.5 -66t-71.5 -43t-97.5 -15.5q-46 0 -84 6t-61 20q-15 10 -15 27q0 16 9.5 24.5t23.5 8.5q3 0 9.5 -1t11.5 -3q45 -15 107 -15q75 0 114 39t39 105q0 133 -160 133h-24q-16 0 -26 9t-10 23q0 16 10 26t26 10h25q71 0 105 37t34 93
q0 55 -33 83t-90 28q-26 0 -51.5 -6t-51.5 -17q-11 -5 -24 -5t-21.5 8t-8.5 22q0 22 26 35q28 14 63 22.5t71 8.5q97 0 144.5 -48.5t47.5 -127.5q0 -54 -29.5 -97.5t-80.5 -60.5v-2q42 -10 68 -28.5t40.5 -42t19.5 -51t5 -54.5z" />
    <glyph glyph-name="four" unicode="4" 
d="M507 224q0 -14 -10.5 -23.5t-25.5 -9.5h-51v-151q0 -41 -35 -41q-36 0 -36 41v151h-281q-21 0 -30.5 10.5t-9.5 27.5q0 9 3.5 19.5t11.5 23.5l269 411q10 15 21.5 24.5t31.5 9.5q55 0 55 -53v-407h50q16 0 26.5 -9.5t10.5 -23.5zM349 627h-2l-238 -368v-2h240v370z" />
    <glyph glyph-name="five" unicode="5" 
d="M463 223q0 -49 -14 -91t-42.5 -72.5t-71.5 -47.5t-102 -17q-45 0 -84.5 6t-62.5 20q-14 9 -14 27q0 16 9 24.5t23 8.5q4 0 7.5 -0.5t8.5 -1.5q22 -7 51 -12t64 -5q78 0 115.5 43t37.5 119q0 75 -41.5 109t-114.5 34h-91q-16 0 -25.5 9.5t-9.5 24.5v262q0 44 41 44h243
q17 0 27 -9.5t10 -23.5q0 -15 -9.5 -24.5t-26.5 -9.5h-214v-205h68q106 0 162 -54t56 -158z" />
    <glyph glyph-name="six" unicode="6" 
d="M479 223q0 -50 -14 -92t-41.5 -72t-68 -47t-92.5 -17q-62 0 -102 22t-63 58.5t-32 83.5t-9 97q0 69 13 140.5t41.5 133t74 108t110.5 64.5q15 5 32.5 8t35.5 3q16 0 26.5 -8t10.5 -25t-10 -24.5t-27 -9.5q-48 -6 -86 -28t-66 -56t-46.5 -78.5t-27.5 -95.5l2 -2
q12 15 30.5 25.5t38 17t38.5 10t34 3.5q48 0 85 -16t62 -44.5t38 -69t13 -89.5zM404 222q0 72 -33 112.5t-100 40.5q-27 0 -53 -7t-46 -24t-32.5 -45.5t-12.5 -71.5q0 -73 33.5 -120t104.5 -47q65 0 102 38.5t37 123.5z" />
    <glyph glyph-name="seven" unicode="7" 
d="M481 677q0 -9 -3.5 -20t-8.5 -22l-264 -605q-8 -18 -16.5 -24.5t-21.5 -6.5q-17 0 -27 10t-10 22q0 8 9 28l255 581h-303q-18 0 -27.5 9.5t-9.5 23.5q0 13 9.5 23.5t27.5 10.5h353q19 0 28 -9.5t9 -20.5z" />
    <glyph glyph-name="eight" unicode="8" 
d="M488 196q0 -94 -57 -147.5t-164 -53.5q-109 0 -164 54t-55 146q0 76 31.5 123.5t94.5 64.5v1q-50 15 -75.5 56t-25.5 97q0 43 14 76.5t39.5 56t61.5 34t79 11.5t79 -11.5t61.5 -34t40 -56t14.5 -76.5q0 -54 -25 -96t-76 -57v-1q127 -30 127 -187zM389 533q0 33 -9.5 55.5
t-26 36.5t-39 20t-47.5 6t-47 -6t-38.5 -20t-26.5 -36.5t-10 -55.5q0 -57 34 -88.5t88 -31.5t88 31.5t34 88.5zM410 204q0 74 -39.5 110.5t-103.5 36.5t-103.5 -37t-39.5 -110q0 -72 37.5 -108t105.5 -36t105.5 36t37.5 108z" />
    <glyph glyph-name="nine" unicode="9" 
d="M479 454q0 -69 -13 -140.5t-41.5 -133t-74 -108t-110.5 -64.5q-15 -5 -32.5 -8t-35.5 -3q-16 0 -26.5 8t-10.5 25t10 24.5t27 9.5q48 6 86 28t66 56t46.5 78.5t27.5 95.5l-2 2q-12 -15 -30.5 -25.5t-38 -17t-38.5 -10t-34 -3.5q-48 0 -85 16t-62 44.5t-38 69t-13 89.5
q0 50 14 92t41.5 72t67.5 47t93 17q62 0 102 -22t63 -58.5t32 -83.5t9 -97zM409 483q0 73 -33.5 120t-104.5 47q-65 0 -102 -38.5t-37 -123.5q0 -72 33 -112.5t100 -40.5q27 0 53 7t46 24t32.5 45.5t12.5 71.5z" />
    <glyph glyph-name="zero.tosf" 
d="M492 266q0 -132 -60.5 -201.5t-163.5 -69.5q-105 0 -164 68.5t-59 202.5q0 61 15.5 111t45 85.5t70.5 54.5t92 19q52 0 93.5 -19t70.5 -54t44.5 -85t15.5 -112zM418 266q0 97 -37 151t-112 54q-73 0 -111.5 -54t-38.5 -151q0 -46 9 -84t27.5 -65t46.5 -42t66 -15
q73 0 111.5 56.5t38.5 149.5z" />
    <glyph glyph-name="one.tosf" 
d="M468 36q0 -13 -9 -22.5t-25 -9.5h-306q-15 0 -24 9t-9 23t8.5 23.5t24.5 9.5h121v391h-118q-17 0 -26.5 9.5t-9.5 23.5q0 13 9.5 23.5t26.5 10.5h155q16 0 26 -10t10 -24v-424h112q16 0 25 -9.5t9 -23.5z" />
    <glyph glyph-name="two.tosf" 
d="M471 37q0 -15 -10 -24.5t-26 -9.5h-331q-39 0 -39 42q0 22 18 37l176 144q52 42 84 76t32 71t-30 66t-94 29q-31 0 -60.5 -8t-61.5 -22q-8 -3 -18 -3q-14 0 -22.5 8t-8.5 22q0 19 17 30q25 17 66 29t90 12q97 0 147.5 -44.5t50.5 -116.5q0 -30 -11.5 -55.5t-31 -49
t-46 -46t-56.5 -46.5l-136 -107v-2h264q16 0 26.5 -8.5t10.5 -23.5z" />
    <glyph glyph-name="three.tosf" 
d="M462 24q0 -46 -15.5 -84.5t-44.5 -66t-71.5 -43t-97.5 -15.5q-46 0 -84 6t-61 20q-15 10 -15 27q0 16 9.5 24.5t23.5 8.5q3 0 9.5 -1t11.5 -3q45 -15 107 -15q75 0 114 39t39 105q0 133 -160 133h-24q-16 0 -26 9t-10 23q0 16 10 26t26 10h25q71 0 105 37t34 93
q0 55 -33 83t-90 28q-26 0 -51.5 -6t-51.5 -17q-11 -5 -24 -5t-21.5 8t-8.5 22q0 22 26 35q28 14 63 22.5t71 8.5q97 0 144.5 -48.5t47.5 -127.5q0 -54 -29.5 -97.5t-80.5 -60.5v-2q42 -10 68 -28.5t40.5 -42t19.5 -51t5 -54.5z" />
    <glyph glyph-name="four.tosf" 
d="M507 36q0 -14 -10.5 -23.5t-25.5 -9.5h-51v-142q0 -41 -35 -41q-36 0 -36 41v142h-281q-21 0 -30.5 10.5t-9.5 27.5q0 9 3.5 19.5t11.5 23.5l269 418q10 15 21.5 24.5t31.5 9.5q55 0 55 -53v-414h50q16 0 26.5 -9.5t10.5 -23.5zM349 446h-2l-238 -375v-2h240v377z" />
    <glyph glyph-name="five.tosf" 
d="M463 52q0 -49 -14 -91t-42.5 -72.5t-71.5 -47.5t-102 -17q-45 0 -84.5 6t-62.5 20q-14 9 -14 27q0 16 9 24.5t23 8.5q4 0 7.5 -0.5t8.5 -1.5q22 -7 51 -12t64 -5q78 0 115.5 43t37.5 119q0 75 -41.5 109t-114.5 34h-91q-16 0 -25.5 9.5t-9.5 24.5v262q0 44 41 44h243
q17 0 27 -9.5t10 -23.5q0 -15 -9.5 -24.5t-26.5 -9.5h-214v-205h68q106 0 162 -54t56 -158z" />
    <glyph glyph-name="six.tosf" 
d="M479 223q0 -50 -14 -92t-41.5 -72t-68 -47t-92.5 -17q-62 0 -102 22t-63 58.5t-32 83.5t-9 97q0 69 13 140.5t41.5 133t74 108t110.5 64.5q15 5 32.5 8t35.5 3q16 0 26.5 -8t10.5 -25t-10 -24.5t-27 -9.5q-48 -6 -86 -28t-66 -56t-46.5 -78.5t-27.5 -95.5l2 -2
q12 15 30.5 25.5t38 17t38.5 10t34 3.5q48 0 85 -16t62 -44.5t38 -69t13 -89.5zM404 222q0 72 -33 112.5t-100 40.5q-27 0 -53 -7t-46 -24t-32.5 -45.5t-12.5 -71.5q0 -73 33.5 -120t104.5 -47q65 0 102 38.5t37 123.5z" />
    <glyph glyph-name="seven.tosf" 
d="M481 506q0 -9 -3.5 -20t-8.5 -22l-264 -605q-8 -18 -16.5 -24.5t-21.5 -6.5q-17 0 -27 10t-10 22q0 8 9 28l255 581h-303q-18 0 -27.5 9.5t-9.5 23.5q0 13 9.5 23.5t27.5 10.5h353q19 0 28 -9.5t9 -20.5z" />
    <glyph glyph-name="eight.tosf" 
d="M488 196q0 -94 -57 -147.5t-164 -53.5q-109 0 -164 54t-55 146q0 76 31.5 123.5t94.5 64.5v1q-50 15 -75.5 56t-25.5 97q0 43 14 76.5t39.5 56t61.5 34t79 11.5t79 -11.5t61.5 -34t40 -56t14.5 -76.5q0 -54 -25 -96t-76 -57v-1q127 -30 127 -187zM389 533q0 33 -9.5 55.5
t-26 36.5t-39 20t-47.5 6t-47 -6t-38.5 -20t-26.5 -36.5t-10 -55.5q0 -57 34 -88.5t88 -31.5t88 31.5t34 88.5zM410 204q0 74 -39.5 110.5t-103.5 36.5t-103.5 -37t-39.5 -110q0 -72 37.5 -108t105.5 -36t105.5 36t37.5 108z" />
    <glyph glyph-name="nine.tosf" 
d="M479 275q0 -69 -13 -140.5t-41.5 -133t-74 -108t-110.5 -64.5q-15 -5 -32.5 -8t-35.5 -3q-16 0 -26.5 8t-10.5 25t10 24.5t27 9.5q48 6 86 28t66 56t46.5 78.5t27.5 95.5l-2 2q-12 -15 -30.5 -25.5t-38 -17t-38.5 -10t-34 -3.5q-48 0 -85 16t-62 44.5t-38 69t-13 89.5
q0 50 14 92t41.5 72t67.5 47t93 17q62 0 102 -22t63 -58.5t32 -83.5t9 -97zM409 304q0 73 -33.5 120t-104.5 47q-65 0 -102 -38.5t-37 -123.5q0 -72 33 -112.5t100 -40.5q27 0 53 7t46 24t32.5 45.5t12.5 71.5z" />
    <glyph glyph-name="sterling" unicode="&#xa3;" 
d="M470 38q0 -15 -10.5 -24.5t-24.5 -9.5h-312q-17 0 -24.5 10.5t-7.5 26.5q0 19 16 39q70 90 70 185q0 31 -6 63h-70q-16 0 -25.5 9t-9.5 24q0 14 9 24t26 10h54q-13 36 -21.5 72t-8.5 70q0 91 50.5 135t133.5 44q35 0 68 -6.5t54 -19.5q16 -10 16 -28q0 -33 -31 -33
q-11 0 -26 5q-42 13 -83 13q-110 0 -110 -111q0 -36 9 -69.5t23 -71.5h148q16 0 25.5 -9t9.5 -24q0 -14 -9 -24t-26 -10h-134q6 -26 6 -58q0 -45 -15.5 -96.5t-56.5 -102.5h258q15 0 25 -9.5t10 -23.5z" />
    <glyph glyph-name="ampersand" unicode="&#x26;" horiz-adv-x="642" 
d="M612 34q0 -17 -10 -25.5t-25 -8.5q-9 0 -15 3t-14 11l-69 81q-45 -50 -100.5 -76.5t-121.5 -26.5q-106 0 -159 52t-53 138q0 74 39.5 127.5t114.5 98.5l-14 16q-35 41 -48 74t-13 68q0 38 14.5 66t39 46.5t57.5 27.5t71 9q41 0 78 -8.5t62 -22.5q19 -10 19 -30
q0 -15 -8.5 -23.5t-22.5 -8.5q-6 0 -22 6q-26 10 -53.5 14.5t-53.5 4.5q-48 0 -79.5 -18t-31.5 -65q0 -28 16 -55.5t46 -60.5l221 -245q14 24 21.5 48t11.5 60q2 14 10 24.5t24 10.5q14 0 23.5 -9.5t9.5 -28.5q0 -29 -8.5 -57t-19.5 -51q-6 -14 -13.5 -26.5t-13.5 -21.5
l77 -91q8 -8 10.5 -14.5t2.5 -12.5zM241 362q-60 -35 -92 -73.5t-32 -99.5q0 -60 34.5 -95.5t103.5 -35.5q57 0 103 24t78 63z" />
    <glyph glyph-name="quotedbl" unicode="&#x22;" horiz-adv-x="344" 
d="M289 535q0 -14 -9 -24t-23 -10t-23 9.5t-9 24.5v144q0 15 9 24.5t22 9.5q14 0 23.5 -9.5t9.5 -24.5v-144zM119 535q0 -14 -9 -24t-23 -10t-23 9.5t-9 24.5v144q0 15 9 24.5t22 9.5q14 0 23.5 -9.5t9.5 -24.5v-144z" />
    <glyph glyph-name="exclam" unicode="!" horiz-adv-x="237" 
d="M154 245q0 -18 -9.5 -28.5t-25.5 -10.5q-17 0 -26.5 10t-9.5 29v430q0 18 9.5 28.5t26.5 10.5q15 0 25 -10.5t10 -28.5v-430zM160 44q0 -23 -11.5 -34.5t-30.5 -11.5t-30 11.5t-11 33.5q0 23 11 35.5t30 12.5q18 0 30 -12.5t12 -34.5z" />
    </font>
</defs>
</svg>
