<?xml version="1.0" standalone="no"?>
<!DOCTYPE svg PUBLIC "-//W3C//DTD SVG 1.1//EN" "http://www.w3.org/Graphics/SVG/1.1/DTD/svg11.dtd" >
<svg>
<metadata>
Created by FontForge 20131121 at Thu Nov 27 16:32:02 2014

Copyright 2013 (c) Tate
</metadata>
<defs>
<font id="TateNewPro-Regular" horiz-adv-x="568" >
  <font-face 
    font-family="Tate New Pro"
    font-weight="400"
    font-stretch="normal"
    units-per-em="1000"
    panose-1="2 11 5 4 2 2 2 2 2 4"
    ascent="800"
    descent="-200"
    x-height="532"
    cap-height="718"
    bbox="-91 -300 1051 955"
    underline-thickness="20"
    underline-position="-113"
    unicode-range="U+0020-FB02"
  />
<missing-glyph horiz-adv-x="1000" 
 />
    <glyph glyph-name="fi" unicode="fi" horiz-adv-x="543" 
d="M470 671q0 -25 -17.5 -42.5t-42.5 -17.5q-24 0 -42 17.5t-18 41.5q0 25 17.5 42.5t42.5 17.5q24 0 42 -17.5t18 -41.5zM457 51q0 -27 -13 -42t-35 -15t-35 15t-13 42v430q0 27 13 42t35 15t35 -15t13 -42v-430zM327 721q0 -19 -11.5 -28.5t-25.5 -9.5q-15 0 -21 2.5
t-23 2.5q-18 0 -30 -12.5t-12 -41.5v-102h58q23 0 34 -11.5t11 -28.5t-11 -29t-34 -12h-58v-400q0 -27 -12.5 -42t-35.5 -15q-21 0 -34.5 15t-13.5 42v400h-41q-22 0 -32 12t-10 28q0 15 10 28t31 13h42v108q0 61 34.5 96t94.5 35q12 0 27.5 -2t29.5 -7t23.5 -15t9.5 -26z
" />
    <glyph glyph-name="fl" unicode="fl" horiz-adv-x="530" 
d="M457 52q0 -27 -13 -42.5t-35 -15.5t-35 15.5t-13 41.5v663q0 27 13 42t35 15t35 -15t13 -42v-662zM327 721q0 -19 -11.5 -28.5t-25.5 -9.5q-15 0 -21 2.5t-23 2.5q-18 0 -30 -12.5t-12 -41.5v-102h58q23 0 34 -11.5t11 -28.5t-11 -29t-34 -12h-58v-400q0 -27 -12.5 -42
t-35.5 -15q-21 0 -34.5 15t-13.5 42v400h-41q-22 0 -32 12t-10 28q0 15 10 28t31 13h42v108q0 61 34.5 96t94.5 35q12 0 27.5 -2t29.5 -7t23.5 -15t9.5 -26z" />
    <glyph glyph-name=".notdef" horiz-adv-x="1000" 
 />
    <glyph glyph-name=".null" horiz-adv-x="0" 
 />
    <glyph glyph-name="nonmarkingreturn" horiz-adv-x="249" 
 />
    <glyph glyph-name="space" unicode=" " horiz-adv-x="249" 
 />
    <glyph glyph-name="numbersign" unicode="#" horiz-adv-x="572" 
d="M552 465q0 -17 -11.5 -26.5t-31.5 -9.5h-80l-21 -145h70q20 0 31.5 -10t11.5 -26t-11.5 -26t-31.5 -10h-79l-25 -178q-3 -20 -12 -30t-27 -10q-15 0 -24 9.5t-9 22.5q0 11 1.5 22.5t2.5 17.5l20 146h-120l-25 -178q-3 -20 -12 -30t-27 -10q-15 0 -24 9.5t-9 22.5
q0 11 1 18.5t3 21.5l21 145h-70q-20 0 -32 10.5t-12 25.5q0 17 12 26.5t32 9.5h80l21 145h-70q-20 0 -32 10t-12 26t11.5 26t31.5 10h80l25 178q3 20 12 30t27 10q15 0 24 -9.5t9 -22.5q0 -11 -1 -18.5t-3 -21.5l-20 -146h120l25 178q3 20 12 30t27 10q15 0 24 -9.5t9 -22.5
q0 -11 -1 -18.5t-3 -21.5l-21 -145h70q20 0 31.5 -10.5t11.5 -25.5zM237 429l-20 -146h120l20 146h-120z" />
    <glyph glyph-name="dollar" unicode="$" 
d="M504 186q0 -78 -45.5 -126t-123.5 -62v-29q0 -23 -6.5 -34.5t-25.5 -11.5q-18 0 -24 11.5t-6 33.5v24h-4q-44 0 -85.5 7t-65.5 24q-11 8 -16.5 16t-5.5 19q0 20 13 31.5t32 11.5q20 0 52 -8q17 -5 37 -8t43 -3v247q-32 17 -61.5 37t-53 45t-37.5 56t-14 70q0 78 46 124
t120 56v25q0 23 6.5 34.5t25.5 11.5q18 0 24 -11.5t6 -33.5v-24q34 -2 63.5 -8t49.5 -17q25 -14 25 -38q0 -19 -11.5 -31t-33.5 -12q-10 0 -23.5 2.5t-32.5 7.5q-8 2 -17.5 3.5t-19.5 2.5v-231q31 -18 61 -37.5t54 -44t39 -56.5t15 -74zM273 627q-79 -12 -79 -86
q0 -34 22.5 -59t56.5 -47v192zM414 183q0 34 -20 58t-59 50v-203q79 19 79 95z" />
    <glyph glyph-name="percent" unicode="%" horiz-adv-x="715" 
d="M327 548q0 -84 -41.5 -125.5t-104.5 -41.5t-104.5 41.5t-41.5 124.5q0 44 11 76.5t30.5 54t46.5 32t58 10.5t57.5 -10.5t46 -32t31 -54t11.5 -75.5zM541 695q0 -6 -2 -13t-7 -18l-285 -653q-6 -14 -13.5 -21t-21.5 -7q-15 0 -26.5 10t-11.5 24q0 8 2.5 15.5t7.5 17.5
l282 651q6 14 14 21t22 7q17 0 28 -10t11 -24zM680 159q0 -84 -41.5 -125.5t-104.5 -41.5t-104.5 41.5t-41.5 124.5q0 44 11 76.5t30.5 54t46.5 32t58 10.5t57.5 -10.5t46 -32t31 -54t11.5 -75.5zM254 548q0 57 -17.5 81.5t-55.5 24.5t-55.5 -24.5t-17.5 -81.5
q0 -48 15.5 -74.5t57.5 -26.5t57.5 25.5t15.5 75.5zM607 159q0 57 -17.5 81.5t-55.5 24.5t-55.5 -24.5t-17.5 -81.5q0 -48 15.5 -74.5t57.5 -26.5t57.5 25.5t15.5 75.5z" />
    <glyph glyph-name="ampersand.sc" horiz-adv-x="571" 
d="M528 37q0 -19 -13 -33.5t-35 -14.5q-14 0 -22 6.5t-14 12.5l-48 50q-71 -69 -177 -69q-37 0 -69 10.5t-56 30.5t-38 50t-14 68q0 27 9 50.5t24.5 43t36 35.5t43.5 30q-25 27 -33.5 50.5t-8.5 51.5q0 34 14 59t36.5 41.5t52 24t59.5 7.5q42 0 73 -9t48 -23t17 -35
q0 -20 -13.5 -31.5t-33.5 -11.5q-8 0 -25 5q-15 5 -30 9.5t-34 4.5q-21 0 -42 -11t-21 -36q0 -12 7 -25t27 -34l138 -146q4 6 9 16.5t12 30.5q6 16 15 27.5t29 11.5q19 0 32 -12t13 -29q0 -15 -6.5 -32t-15.5 -36l-12 -22t-13 -21l62 -61q17 -17 17 -34zM213 251
q-32 -19 -54.5 -41.5t-22.5 -58.5q0 -32 26.5 -53.5t64.5 -21.5q26 0 57.5 12t50.5 35z" />
    <glyph glyph-name="quoteright" unicode="&#x2019;" horiz-adv-x="233" 
d="M198 678q0 -8 -3 -16.5t-7 -16.5l-64 -134q-7 -14 -19 -20t-24 -6q-20 0 -33 13t-13 29t9 34l66 133q7 14 18.5 20t23.5 6q20 0 33 -13t13 -29z" />
    <glyph glyph-name="parenleft" unicode="(" horiz-adv-x="254" 
d="M214 -67q0 -18 -11.5 -27.5t-29.5 -9.5q-17 0 -28 14.5t-21 40.5q-14 39 -24.5 85t-17 94.5t-9.5 96t-3 88.5q0 40 3.5 89.5t11 100.5t19 98.5t26.5 83.5q10 23 19.5 35.5t23.5 12.5q17 0 29 -9.5t12 -25.5q0 -13 -8 -32.5t-18 -58.5q-18 -73 -25.5 -146t-7.5 -147
q0 -72 7 -144.5t24 -143.5q10 -39 19 -61t9 -34z" />
    <glyph glyph-name="parenright" unicode=")" horiz-adv-x="254" 
d="M184 316q0 -40 -4 -89.5t-11.5 -100.5t-19 -98.5t-26.5 -83.5q-10 -23 -19.5 -35.5t-23.5 -12.5q-17 0 -28.5 9.5t-11.5 25.5q0 13 7.5 32.5t16.5 57.5q18 74 26 147t8 147q0 72 -7 144.5t-24 143.5q-10 39 -18.5 60.5t-8.5 34.5q0 17 10.5 27t29.5 10q17 0 28 -14.5
t21 -41.5q14 -39 24.5 -85t17 -94t10 -95.5t3.5 -88.5z" />
    <glyph glyph-name="asterisk" unicode="*" horiz-adv-x="396" 
d="M356 469q0 -17 -10 -28t-28 -11q-11 0 -29 13l-66 49l7 -48q4 -24 4.5 -34t0.5 -17q0 -17 -10 -27.5t-27 -10.5t-27 10.5t-10 27.5q0 7 0.5 17t4.5 34l8 48l-67 -49q-18 -13 -29 -13q-18 0 -28 11t-10 28t25 29l82 39l-82 38q-25 12 -25 29q0 18 10 28.5t28 10.5
q12 0 29 -12l66 -49l-7 48q-4 24 -4.5 33.5t-0.5 16.5q0 19 10 28.5t27 9.5t27 -9.5t10 -27.5q0 -8 -0.5 -17.5t-4.5 -33.5l-8 -48l67 49q16 12 29 12q18 0 28 -10.5t10 -27.5q0 -19 -24 -30l-83 -38l83 -39q24 -11 24 -29z" />
    <glyph glyph-name="plus" unicode="+" 
d="M541 253q0 -18 -12.5 -29.5t-32.5 -11.5h-170v-171q0 -20 -11.5 -32.5t-30.5 -12.5q-18 0 -29.5 12.5t-11.5 32.5v170h-171q-20 0 -32.5 12t-12.5 30t12.5 29.5t32.5 11.5h170v171q0 20 11.5 32.5t30.5 12.5q18 0 29.5 -12.5t11.5 -32.5v-170h171q20 0 32.5 -12t12.5 -30
z" />
    <glyph glyph-name="comma" unicode="," horiz-adv-x="269" 
d="M191 67q0 -16 -9 -34l-66 -133q-7 -14 -18.5 -20t-23.5 -6q-20 0 -33 13t-13 29q0 8 3 16.5t7 16.5l65 134q7 14 18.5 20t23.5 6q20 0 33 -13t13 -29z" />
    <glyph glyph-name="hyphen" unicode="-" horiz-adv-x="369" 
d="M329 274q0 -17 -12 -30t-33 -13h-200q-20 0 -32 12.5t-12 29.5q0 18 11.5 31t32.5 13h200q21 0 33 -12.5t12 -30.5z" />
    <glyph glyph-name="period" unicode="." horiz-adv-x="269" 
d="M191 56q0 -31 -15.5 -47.5t-41.5 -16.5q-25 0 -40.5 16.5t-15.5 46.5t15 48t41 18t41.5 -18t15.5 -47z" />
    <glyph glyph-name="slash" unicode="/" horiz-adv-x="427" 
d="M387 685q0 -11 -7 -28l-258 -635q-6 -14 -15.5 -22t-26.5 -8t-28.5 10t-11.5 25q0 11 7 28l259 635q6 14 15 22t26 8q18 0 29 -10t11 -25z" />
    <glyph glyph-name="zero.posf" horiz-adv-x="574" 
d="M519 267q0 -134 -60.5 -204t-171.5 -70t-171.5 69.5t-60.5 204.5q0 62 15.5 112.5t45.5 86t73 55t98 19.5q54 0 97 -19.5t73 -55t46 -86t16 -112.5zM420 267q0 98 -36 142t-97 44t-97 -44t-36 -142q0 -96 35 -141.5t98 -45.5t98 45.5t35 141.5z" />
    <glyph glyph-name="one.posf" horiz-adv-x="341" 
d="M246 50q0 -27 -13 -41.5t-36 -14.5q-22 0 -35.5 14.5t-13.5 41.5v393h-80q-23 0 -35.5 13.5t-12.5 30.5t12.5 31t35.5 14h130q22 0 35 -13t13 -32v-437v0z" />
    <glyph glyph-name="two.posf" horiz-adv-x="520" 
d="M465 44q0 -20 -14 -32t-35 -12h-323q-26 0 -39.5 12.5t-13.5 41.5q0 14 9.5 29.5t35.5 36.5l139 112q37 30 60 51t35.5 37t17 29t4.5 27q0 27 -26.5 50.5t-80.5 23.5q-36 0 -61 -7t-57 -20q-5 -2 -11 -3t-11 -1q-18 0 -29.5 11t-11.5 29q0 24 22 39q23 15 66.5 28.5
t96.5 13.5q46 0 84 -11.5t65 -33t41.5 -51.5t14.5 -66q0 -26 -9 -48.5t-28 -46.5t-50 -51t-74 -61l-105 -82v-2h237q22 0 36.5 -11.5t14.5 -31.5z" />
    <glyph glyph-name="three.posf" horiz-adv-x="479" 
d="M429 26q0 -45 -15.5 -84t-45.5 -68t-73.5 -45.5t-99.5 -16.5q-51 0 -92 7.5t-60 21.5q-9 7 -13.5 14.5t-4.5 19.5q0 21 12 32.5t31 11.5q4 0 12.5 -1.5t16.5 -3.5q21 -6 44.5 -9.5t52.5 -3.5q66 0 100 35.5t34 92.5q0 63 -37 91t-107 28h-20q-21 0 -35 11.5t-14 31.5
q0 21 14 34t35 13h21q65 0 94.5 33t29.5 85q0 44 -26 69t-82 25q-23 0 -46.5 -6t-47.5 -15q-9 -4 -16.5 -5t-14.5 -1q-17 1 -28 11.5t-11 28.5q0 30 34 46q27 14 62.5 22.5t71.5 8.5q55 0 93.5 -14.5t62.5 -39t34.5 -57t10.5 -68.5q0 -50 -27.5 -94t-73.5 -61v-2
q38 -12 62.5 -30.5t38 -41.5t18.5 -50t5 -56z" />
    <glyph glyph-name="four.posf" horiz-adv-x="554" 
d="M519 44q0 -19 -13.5 -31.5t-34.5 -12.5h-37v-130q0 -56 -47 -56q-48 0 -48 56v130h-267q-27 0 -39.5 12.5t-12.5 35.5q0 24 21 58l249 389q12 20 27.5 32.5t41.5 12.5q75 0 75 -74v-379h36q22 0 35.5 -12t13.5 -31zM339 422h-2l-211 -333v-2h213v335z" />
    <glyph glyph-name="five.posf" horiz-adv-x="515" 
d="M470 45q0 -50 -16 -92.5t-47.5 -74t-78.5 -49t-108 -17.5q-51 0 -92 7.5t-60 21.5q-9 7 -13.5 14.5t-4.5 19.5q0 21 12 32.5t31 11.5q4 0 8 -0.5t9 -1.5q20 -5 47 -10.5t62 -5.5q69 0 108 36t39 111q0 65 -37.5 95.5t-109.5 30.5h-90q-20 0 -32.5 11.5t-12.5 29.5v256
q0 33 14 47t41 14h244q23 0 36 -12.5t13 -31.5q0 -20 -12.5 -32.5t-35.5 -12.5h-205v-179h59q115 0 173.5 -56t58.5 -163z" />
    <glyph glyph-name="six.posf" horiz-adv-x="556" 
d="M507 223q0 -48 -15 -90t-44 -73.5t-72.5 -49.5t-101.5 -18q-73 0 -116 26.5t-65.5 67t-29.5 88.5t-7 92q0 69 14.5 141.5t44.5 135t77 108.5t112 63q32 8 65 8q22 0 37 -11.5t15 -33.5t-13.5 -33t-34.5 -14q-71 -10 -123 -63t-75 -150l2 -2q12 10 28 17t32.5 11.5t32 6
t27.5 1.5q52 0 91.5 -17t65.5 -47.5t39.5 -72.5t13.5 -91zM403 222q0 63 -28 102t-94 39q-61 0 -94 -31.5t-33 -103.5q0 -29 6 -55.5t20.5 -47.5t37.5 -33.5t58 -12.5q58 0 92.5 33t34.5 110z" />
    <glyph glyph-name="seven.posf" horiz-adv-x="491" 
d="M461 494q0 -11 -4.5 -24t-10.5 -27l-260 -587q-11 -26 -23 -34t-29 -8q-23 0 -36.5 13.5t-13.5 28.5q0 7 3 15t9 22l248 550h-284q-25 0 -37.5 13.5t-12.5 30.5t12.5 31t37.5 14h354q25 0 36 -12t11 -26z" />
    <glyph glyph-name="eight.posf" 
d="M518 199q0 -45 -14 -82.5t-43.5 -65.5t-73.5 -43.5t-104 -15.5q-62 0 -106.5 16t-72.5 43.5t-41 65t-13 81.5q0 151 123 186v1q-49 17 -73 58t-24 95q0 83 53.5 132.5t153.5 49.5t154 -49.5t54 -132.5q0 -52 -23 -94.5t-74 -58.5v-1q124 -32 124 -185zM393 532
q0 58 -31 80.5t-79 22.5q-47 0 -78 -22.5t-31 -80.5q0 -48 30 -78.5t79 -30.5q50 0 80 30.5t30 78.5zM413 212q0 63 -35 96.5t-95 33.5t-94.5 -34t-34.5 -96q0 -63 31.5 -98t97.5 -35t98 35t32 98z" />
    <glyph glyph-name="nine.posf" horiz-adv-x="556" 
d="M501 266q0 -69 -14 -141t-43.5 -134t-76 -108.5t-110.5 -63.5q-33 -9 -69 -9q-22 0 -37 11.5t-15 33.5t13.5 33t34.5 14q71 10 123 63t75 150l-2 2q-12 -11 -28 -17.5t-32.5 -11t-32 -6t-27.5 -1.5q-52 0 -91.5 17t-65.5 47.5t-39.5 72t-13.5 91.5q0 48 14.5 90t44 73.5
t73 49.5t101.5 18q73 0 116 -26.5t65.5 -67t29.5 -88.5t7 -92zM403 304q0 28 -6 55t-20.5 48t-38 33.5t-57.5 12.5q-59 0 -93 -33t-34 -110q0 -63 28 -102t94 -39q61 0 94 31.5t33 103.5z" />
    <glyph glyph-name="colon" unicode=":" horiz-adv-x="269" 
d="M191 375q0 -31 -15.5 -47.5t-41.5 -16.5q-25 0 -40.5 16.5t-15.5 46.5t15 48t41 18t41.5 -18t15.5 -47zM191 56q0 -31 -15.5 -47.5t-41.5 -16.5q-25 0 -40.5 16.5t-15.5 46.5t15 48t41 18t41.5 -18t15.5 -47z" />
    <glyph glyph-name="semicolon" unicode=";" horiz-adv-x="269" 
d="M191 375q0 -31 -15.5 -47.5t-41.5 -16.5q-25 0 -40.5 16.5t-15.5 46.5t15 48t41 18t41.5 -18t15.5 -47zM191 68q0 -9 -2.5 -18t-6.5 -17l-66 -133q-7 -14 -18.5 -20t-23.5 -6q-20 0 -33 13t-13 29q0 8 3 16.5t7 16.5l65 134q7 14 18.5 20t23.5 6q19 0 32.5 -12t13.5 -29z
" />
    <glyph glyph-name="less" unicode="&#x3c;" 
d="M548 37q0 -20 -10.5 -30.5t-24.5 -10.5q-8 0 -16.5 2t-21.5 8l-424 205q-17 8 -24 18t-7 24q0 13 7 23.5t24 18.5l424 204q14 7 22 9t15 2q15 0 25.5 -10t10.5 -27q0 -29 -35 -46l-372 -174l374 -174q18 -8 25.5 -18t7.5 -24z" />
    <glyph glyph-name="equal" unicode="=" 
d="M541 357q0 -18 -12.5 -30t-32.5 -12h-424q-20 0 -32.5 12t-12.5 30t12.5 30t32.5 12h424q20 0 32.5 -12t12.5 -30zM541 149q0 -18 -12.5 -30t-32.5 -12h-424q-20 0 -32.5 12t-12.5 30t12.5 30t32.5 12h424q20 0 32.5 -12t12.5 -30z" />
    <glyph glyph-name="greater" unicode="&#x3e;" 
d="M548 253q0 -13 -7 -23.5t-24 -18.5l-424 -204q-14 -7 -22 -9t-15 -2q-15 0 -25.5 10.5t-10.5 30.5q0 14 7.5 23.5t25.5 17.5l374 175l-372 174q-35 17 -35 46q0 17 10.5 27t24.5 10q8 0 16 -2t22 -9l424 -204q17 -8 24 -18t7 -24z" />
    <glyph glyph-name="question" unicode="?" horiz-adv-x="452" 
d="M412 548q0 -36 -12 -63.5t-30.5 -51t-40 -43.5t-40.5 -41q-20 -22 -35 -47t-15 -52v-1q0 -23 -13.5 -35.5t-32.5 -12.5q-20 0 -34 12t-14 39v2q0 31 8.5 55.5t21.5 44.5t29.5 37.5t33.5 33.5q27 26 48.5 53t21.5 62q0 18 -5.5 33.5t-19 27.5t-35 19t-52.5 7
q-32 0 -56.5 -7t-56.5 -20q-5 -2 -11 -3t-11 -1q-18 0 -29.5 12.5t-11.5 30.5q0 24 22 39q23 15 63 28.5t94 13.5q97 0 155 -43t58 -129zM244 51q0 -29 -14 -44t-38 -15q-23 0 -37 15t-14 43q0 27 14 43t37 16t37.5 -16t14.5 -42z" />
    <glyph glyph-name="at" unicode="@" horiz-adv-x="775" 
d="M730 415q0 -66 -23.5 -114.5t-57 -80.5t-69.5 -47.5t-61 -15.5q-51 0 -63 37q-3 9 -3 22h-2q-17 -23 -46 -41t-68 -18q-35 0 -62 14t-45 37.5t-27.5 54.5t-9.5 65q0 45 13 86t37.5 72.5t59 50t77.5 18.5q33 0 62 -15.5t50 -53.5h1l5 23q7 34 36 34q16 0 25 -8t9 -21
q0 -7 -5 -30l-39 -196q-5 -23 -5 -32t3.5 -15.5t14.5 -6.5q22 0 44.5 13t41 36t30 56t11.5 72q0 56 -21 101t-57 76.5t-84.5 48.5t-102.5 17q-60 0 -112.5 -24.5t-90.5 -67t-60 -99t-22 -119.5q0 -72 20.5 -125.5t57.5 -89.5t87 -53.5t110 -17.5q61 0 113 14t87 37
q11 8 21 15.5t18 14.5q13 12 26 12q10 0 18 -6t8 -19q0 -10 -6.5 -21t-22.5 -26q-21 -19 -50.5 -35t-63.5 -27.5t-71.5 -18t-74.5 -6.5q-75 0 -138 23.5t-109.5 68.5t-72.5 111t-26 152q0 77 28.5 145t77 118.5t112.5 80t135 29.5q67 0 127.5 -22.5t106 -63t72 -96.5
t26.5 -123zM470 410q0 32 -25.5 49.5t-58.5 17.5q-30 0 -52 -12t-36 -32t-20.5 -46.5t-6.5 -56.5q0 -42 19 -68.5t61 -26.5q39 0 65.5 20.5t33.5 51.5l18 87q2 10 2 16z" />
    <glyph glyph-name="A" unicode="A" horiz-adv-x="638" 
d="M613 34q0 -17 -12 -28.5t-32 -11.5q-23 0 -34 11t-17 28l-54 154h-292l-53 -153q-6 -17 -16.5 -28.5t-33.5 -11.5q-20 0 -32 11.5t-12 28.5q0 12 7 31l208 593q4 11 9.5 22t14.5 20t22 14.5t32 5.5q39 0 56 -19.5t25 -42.5l206 -591q8 -21 8 -33zM320 625h-2l-119 -355
h239z" />
    <glyph glyph-name="B" unicode="B" horiz-adv-x="547" 
d="M502 202q0 -97 -56.5 -149.5t-157.5 -52.5h-162q-56 0 -56 50v612q0 50 56 50h149q52 0 88.5 -14t59.5 -38t34 -57t11 -71q0 -51 -24.5 -91t-69.5 -60v-1q63 -16 95.5 -63.5t32.5 -114.5zM370 524q0 50 -23 75.5t-78 25.5h-102v-211h114q39 0 64 26.5t25 83.5zM402 210
q0 54 -27.5 87.5t-93.5 33.5h-114v-244h113q59 0 90.5 29t31.5 94z" />
    <glyph glyph-name="C" unicode="C" horiz-adv-x="523" 
d="M503 54q0 -16 -8.5 -27t-22.5 -18q-21 -11 -52.5 -14t-68.5 -3q-73 0 -130 20.5t-96 65t-59.5 114.5t-20.5 169q0 89 21 156.5t61 112.5t97 67.5t128 22.5q38 0 70.5 -5t52.5 -17q26 -15 26 -39q0 -20 -11.5 -31.5t-29.5 -11.5q-9 0 -18 1.5t-25 5.5t-30.5 5.5t-34.5 1.5
q-107 0 -155 -70t-48 -200q0 -149 53.5 -213.5t158.5 -64.5q16 0 30.5 2t28.5 4q23 4 40 4t30 -9t13 -29z" />
    <glyph glyph-name="D" unicode="D" horiz-adv-x="621" 
d="M576 361q0 -99 -23.5 -167.5t-65 -111.5t-97 -62.5t-119.5 -19.5h-145q-24 0 -40 11.5t-16 38.5v611q0 24 13.5 37.5t41.5 13.5h146q68 0 124.5 -20t96.5 -62.5t62 -109t22 -159.5zM474 360q0 69 -11.5 119t-37 82t-65.5 47t-96 15h-97v-534h97q57 0 97 16t65 49.5
t36.5 84.5t11.5 121z" />
    <glyph glyph-name="E" unicode="E" horiz-adv-x="464" 
d="M424 45q0 -17 -13 -31t-36 -14h-250q-55 0 -55 50v608q0 25 13 39.5t42 14.5h240q23 0 36 -13.5t13 -31.5q0 -17 -13 -30.5t-36 -13.5h-197v-222h187q24 0 37 -13.5t13 -31.5q0 -17 -13 -30.5t-37 -13.5h-188v-223h208q23 0 36 -13t13 -31z" />
    <glyph glyph-name="F" unicode="F" horiz-adv-x="457" 
d="M422 667q0 -17 -12.5 -30.5t-35.5 -13.5h-207v-222h180q23 0 36.5 -13.5t13.5 -30.5q0 -18 -13 -31.5t-36 -13.5h-181v-262q0 -27 -13 -41.5t-35 -14.5q-23 0 -36 14.5t-13 41.5v612q0 20 13.5 35t35.5 15h255q22 0 35 -13.5t13 -31.5z" />
    <glyph glyph-name="G" unicode="G" horiz-adv-x="614" 
d="M559 90q0 -13 -3.5 -23t-14.5 -19q-10 -8 -26.5 -18t-40 -18.5t-53 -14t-65.5 -5.5q-154 0 -232.5 88.5t-78.5 275.5q0 176 80.5 270t235.5 94q16 0 35 -1.5t38 -5t36.5 -8.5t31.5 -12q26 -14 26 -40q0 -20 -11.5 -31.5t-29.5 -11.5q-9 0 -18 1t-25 6q-20 6 -43.5 9.5
t-42.5 3.5q-58 0 -98 -19t-64.5 -54.5t-35.5 -86.5t-11 -114q0 -66 10.5 -117.5t34.5 -87t63.5 -54t98.5 -18.5q38 0 64 8.5t34 14.5t8 14v175h-88q-23 0 -36 13t-13 31q0 17 13 31t36 14h130q55 0 55 -50v-240v0z" />
    <glyph glyph-name="H" unicode="H" horiz-adv-x="648" 
d="M578 50q0 -27 -13 -41.5t-35 -14.5q-23 0 -36.5 14.5t-13.5 41.5v268h-313v-268q0 -27 -13 -41.5t-35 -14.5q-23 0 -36 14.5t-13 41.5v612q0 27 13 41.5t36 14.5q22 0 35 -14.5t13 -41.5v-254h313v254q0 27 13 41.5t36 14.5q22 0 35.5 -14.5t13.5 -41.5v-612v0z" />
    <glyph glyph-name="I" unicode="I" horiz-adv-x="247" 
d="M172 50q0 -27 -13 -41.5t-35 -14.5q-23 0 -36 14.5t-13 41.5v612q0 27 13 41.5t36 14.5q22 0 35 -14.5t13 -41.5v-612v0z" />
    <glyph glyph-name="J" unicode="J" horiz-adv-x="399" 
d="M329 176q0 -47 -13.5 -81.5t-36.5 -57.5t-54 -34t-66 -11q-44 0 -81 8.5t-58 25.5q-20 16 -20 39q0 16 10.5 27t27.5 11q11 0 22.5 -4t24.5 -9q31 -13 69 -13q24 0 39.5 8.5t23.5 23t11 32.5t3 38v483q0 27 13 41.5t36 14.5q22 0 35.5 -14.5t13.5 -41.5v-486v0z" />
    <glyph glyph-name="K" unicode="K" horiz-adv-x="552" 
d="M522 39q0 -26 -15.5 -35.5t-30.5 -9.5q-17 0 -26.5 7.5t-23.5 23.5l-259 308v-285q0 -24 -12.5 -39t-35.5 -15t-36 14t-13 40v615q0 25 13 40t36 15q22 0 35 -14.5t13 -40.5v-280l255 301q14 16 25.5 25t29.5 9q15 0 29.5 -10t14.5 -32q0 -10 -4 -21t-15 -23l-244 -271
l245 -281q11 -13 15 -23t4 -18z" />
    <glyph glyph-name="L" unicode="L" horiz-adv-x="421" 
d="M401 44q0 -17 -13 -30.5t-35 -13.5h-233q-23 0 -36.5 14t-13.5 37v611q0 27 13 41.5t36 14.5q22 0 35 -14.5t13 -41.5v-573h185q24 0 36.5 -13.5t12.5 -31.5z" />
    <glyph glyph-name="M" unicode="M" horiz-adv-x="876" 
d="M816 46q0 -30 -14.5 -41t-31.5 -11q-26 0 -37.5 13.5t-13.5 37.5l-44 540h-2l-183 -548q-6 -17 -18 -30t-36 -13q-25 0 -38 13t-19 30l-192 547h-2l-29 -538q-2 -25 -13 -38.5t-37 -13.5q-17 0 -31.5 11t-14.5 39q0 5 1 19t2 20l41 560q3 36 22 55.5t54 19.5
q31 0 49 -15.5t26 -39.5l179 -532h2l172 532q8 23 24.5 39t49.5 16q69 0 76 -71l56 -571q2 -15 2 -20v-10z" />
    <glyph glyph-name="N" unicode="N" horiz-adv-x="669" 
d="M599 49q0 -32 -16 -43.5t-39 -11.5q-13 0 -28 5.5t-26 22.5l-323 518h-2v-490q0 -27 -12.5 -41.5t-34.5 -14.5q-23 0 -35.5 14.5t-12.5 41.5v614q0 28 15 41t38 13q26 0 39.5 -9.5t21.5 -22.5l318 -514h2v490q0 56 47 56q22 0 35 -14.5t13 -41.5v-613v0z" />
    <glyph glyph-name="O" unicode="O" horiz-adv-x="659" 
d="M614 357q0 -177 -72 -270.5t-214 -93.5q-140 0 -211.5 93.5t-71.5 270.5q0 85 18 152.5t54 114t89 71t122 24.5q141 0 213.5 -95.5t72.5 -266.5zM510 360q0 72 -10.5 123.5t-32.5 84.5t-56 48t-82 15q-93 0 -136.5 -63t-43.5 -208q0 -146 43 -212.5t137 -66.5
q96 0 138.5 66.5t42.5 212.5z" />
    <glyph glyph-name="P" unicode="P" horiz-adv-x="527" 
d="M497 501q0 -114 -60.5 -168t-164.5 -54h-105v-229q0 -27 -13 -41.5t-35 -14.5q-23 0 -36 14.5t-13 41.5v612q0 50 56 50h138q112 0 172.5 -54t60.5 -157zM394 501q0 66 -32.5 95t-97.5 29h-97v-259h99q69 0 98.5 31.5t29.5 103.5z" />
    <glyph glyph-name="Q" unicode="Q" horiz-adv-x="659" 
d="M641 44q0 -18 -13.5 -31t-38.5 -13h-256q-140 0 -214 90t-74 267q0 85 18 152.5t54 114t89 71t122 24.5q137 0 211 -89.5t74 -257.5q0 -46 -6.5 -89t-21.5 -81t-38.5 -69.5t-57.5 -53.5l1 -2q27 5 53 8t49 3q24 0 36.5 -13.5t12.5 -30.5zM511 363q0 72 -10.5 123t-33 83
t-56.5 46.5t-82 14.5q-47 0 -81 -15t-56.5 -47.5t-33.5 -84t-11 -123.5q0 -73 11 -124.5t33.5 -84t56.5 -47.5t81 -15q90 0 136 65t46 209z" />
    <glyph glyph-name="R" unicode="R" horiz-adv-x="542" 
d="M492 36q0 -20 -15.5 -31.5t-32.5 -11.5t-26.5 7.5t-15.5 17.5l-185 304h-50v-272q0 -27 -13 -41.5t-35 -14.5q-23 0 -36 14.5t-13 41.5v612q0 50 56 50h164q47 0 84 -14.5t62.5 -40t39 -61t13.5 -77.5q0 -81 -42 -133.5t-123 -63.5l157 -252q7 -11 9 -19t2 -15zM389 516
q0 57 -28 83t-76 26h-118v-219h119q54 0 78.5 30.5t24.5 79.5z" />
    <glyph glyph-name="S" unicode="S" horiz-adv-x="481" 
d="M446 186q0 -47 -17 -83t-48.5 -60.5t-75.5 -37.5t-97 -13q-44 0 -85.5 7t-65.5 24q-22 16 -22 37q0 20 13 31.5t32 11.5q20 0 52 -8q18 -5 39 -8t45 -3q66 0 99 25.5t33 73.5q0 27 -14 48t-37 39.5t-52 35.5t-59 35q-28 17 -54 36t-45.5 42t-31.5 52t-12 66q0 44 16 78
t44 57.5t66 35.5t83 12q40 0 76 -6.5t59 -19.5q25 -14 25 -38q0 -19 -11.5 -32t-33.5 -13q-10 0 -23.5 2.5t-32.5 7.5q-13 3 -27.5 5t-31.5 2q-52 0 -82 -19.5t-30 -67.5q0 -23 11 -42t29.5 -35.5t42.5 -31.5t50 -30q31 -18 62 -38t55.5 -45.5t40 -57.5t15.5 -75z" />
    <glyph glyph-name="T" unicode="T" horiz-adv-x="491" 
d="M471 667q0 -17 -12.5 -30.5t-35.5 -13.5h-129v-573q0 -27 -12.5 -41.5t-35.5 -14.5q-22 0 -35.5 14.5t-13.5 41.5v573h-128q-24 0 -36.5 13.5t-12.5 30.5t13 31t35 14h355q22 0 35 -13.5t13 -31.5z" />
    <glyph glyph-name="U" unicode="U" horiz-adv-x="651" 
d="M586 265q0 -60 -13.5 -110t-44 -86.5t-80 -56.5t-122.5 -20t-123 20t-80.5 56.5t-44 86.5t-13.5 110v397q0 27 13 41.5t36 14.5q22 0 35 -14.5t13 -41.5v-423q0 -78 42 -120t120 -42t121 42t43 120v423q0 27 12.5 41.5t35.5 14.5q22 0 36 -14.5t14 -41.5v-397v0z" />
    <glyph glyph-name="V" unicode="V" horiz-adv-x="607" 
d="M582 672q0 -14 -11 -46l-200 -583q-6 -18 -21 -33.5t-46 -15.5t-46 15.5t-21 33.5l-200 583q-6 17 -9 27.5t-3 18.5q0 20 14.5 33t34.5 13q18 0 31.5 -10t18.5 -27l184 -581h1l181 581q5 17 15 27t28 10q20 0 34.5 -13t14.5 -33z" />
    <glyph glyph-name="W" unicode="W" horiz-adv-x="903" 
d="M853 676q0 -8 -2 -20t-4 -22l-115 -588q-5 -24 -22.5 -38t-45.5 -14q-54 0 -68 50l-143 533h-2l-145 -532q-14 -51 -71 -51q-27 0 -44 14t-22 38l-115 593q-2 8 -3 15.5t-1 18.5q0 19 13 32t33 13t32.5 -11t17.5 -37l93 -556h2l151 558q5 17 18 31t42 14t43 -14t19 -31
l149 -558h2l91 551q5 29 17.5 41t30.5 12q23 0 36 -12.5t13 -29.5z" />
    <glyph glyph-name="X" unicode="X" horiz-adv-x="605" 
d="M565 36q0 -18 -14 -30t-34 -12q-15 0 -24.5 7t-19.5 21l-171 260l-170 -259q-10 -15 -19 -22t-25 -7q-20 0 -34 12t-14 30q0 10 2.5 19t10.5 20l195 290l-183 274q-8 11 -10.5 19t-2.5 17q0 19 14 31t34 12q15 0 25.5 -6t19.5 -20l158 -242l157 238q10 14 20 22t25 8
q20 0 34 -12t14 -30q0 -9 -2.5 -17.5t-10.5 -19.5l-183 -273l194 -291q14 -20 14 -39z" />
    <glyph glyph-name="Y" unicode="Y" horiz-adv-x="545" 
d="M525 676q0 -9 -4 -20t-15 -29l-185 -291v-287q0 -25 -11.5 -40t-36.5 -15t-37 15t-12 39v288l-184 291q-11 18 -15.5 29t-4.5 19q0 17 12 30t32 13q30 0 44 -24l164 -264l165 264q16 24 44 24q20 0 32 -12.5t12 -29.5z" />
    <glyph glyph-name="Z" unicode="Z" horiz-adv-x="549" 
d="M514 44q0 -18 -14.5 -31t-34.5 -13h-362q-34 0 -51 14t-17 36q0 12 7 26.5t19 34.5l312 514h-277q-22 0 -35.5 11.5t-13.5 30.5t14 32t34 13h353q27 0 39 -13t12 -28q0 -11 -5 -22.5t-12 -22.5l-329 -539h312q22 0 35.5 -11.5t13.5 -31.5z" />
    <glyph glyph-name="bracketleft" unicode="[" horiz-adv-x="255" 
d="M235 -48q0 -17 -9.5 -29t-28.5 -12h-78q-21 0 -35 13.5t-14 33.5v714q0 21 13.5 34.5t34.5 13.5h78q20 0 29.5 -11t9.5 -28q0 -16 -9.5 -27.5t-28.5 -11.5h-37v-654h36q19 0 29 -10t10 -26z" />
    <glyph glyph-name="backslash" unicode="\" horiz-adv-x="427" 
d="M387 28q0 -15 -11 -25.5t-29 -10.5q-17 0 -26.5 7.5t-14.5 21.5l-259 636q-7 17 -7 27q0 15 11 25.5t29 10.5q17 0 26.5 -7.5t14.5 -21.5l259 -636q7 -17 7 -27z" />
    <glyph glyph-name="bracketright" unicode="]" horiz-adv-x="255" 
d="M185 -42q0 -20 -13.5 -33.5t-34.5 -13.5h-78q-20 0 -29.5 11t-9.5 27q0 17 9.5 28t28.5 11h37v654h-36q-20 0 -29.5 11.5t-9.5 27.5q0 17 9.5 28t28.5 11h79q20 0 34 -13.5t14 -34.5v-714v0z" />
    <glyph glyph-name="asciicircum" unicode="^" 
d="M528 310q0 -17 -12.5 -25.5t-26.5 -8.5q-17 0 -26.5 9t-17.5 25l-161 293l-160 -293q-9 -16 -19 -25t-27 -9q-14 0 -26 8.5t-12 24.5q0 15 10 32l191 345q9 17 19.5 22t23.5 5t23 -5t19 -22l191 -344q11 -20 11 -32z" />
    <glyph glyph-name="underscore" unicode="_" horiz-adv-x="508" 
d="M533 -100q0 -12 -8.5 -18.5t-20.5 -6.5h-500q-12 0 -20.5 6.5t-8.5 18.5t8.5 18.5t20.5 6.5h500q12 0 20.5 -6.5t8.5 -18.5z" />
    <glyph glyph-name="quoteleft" unicode="&#x2018;" horiz-adv-x="233" 
d="M198 678q0 -8 -3 -16.5t-7 -16.5l-64 -134q-7 -14 -19 -20t-24 -6q-20 0 -33 13t-13 29t9 34l66 133q7 14 18.5 20t23.5 6q20 0 33 -13t13 -29z" />
    <glyph glyph-name="a" unicode="a" horiz-adv-x="523" 
d="M458 52q0 -27 -13 -42t-35 -15q-21 0 -34.5 13.5t-13.5 38.5v12q-26 -30 -64 -49t-85 -19q-44 0 -75.5 13t-52 34.5t-30.5 51t-10 62.5q0 46 18.5 78t53 51.5t83 29t108.5 11.5l55 2v27q0 41 -24 68t-88 27q-41 0 -69 -5t-48 -5q-19 0 -33 10t-14 31q0 12 5.5 20t12.5 13
q17 12 57.5 18.5t92.5 6.5t90.5 -13.5t63.5 -36.5t37 -55.5t12 -69.5v-308zM363 256l-40 -2q-44 -2 -78.5 -7.5t-57.5 -16.5t-35 -30t-12 -49q0 -32 21 -55t68 -23q30 0 54.5 10t42.5 26.5t27.5 38.5t9.5 46v62z" />
    <glyph glyph-name="b" unicode="b" horiz-adv-x="586" 
d="M541 268q0 -55 -13.5 -105t-40.5 -88t-68 -60.5t-96 -22.5q-52 0 -91 21t-64 53h-2v-16q0 -26 -13 -41t-35 -15q-23 0 -35.5 15t-12.5 42v663q0 26 12.5 41.5t35.5 15.5q22 0 35 -15.5t13 -41.5v-243h2q30 35 71 52t84 17q57 0 98 -22t67.5 -59t39.5 -86.5t13 -104.5z
M442 267q0 33 -6.5 67t-21.5 61.5t-40 45t-62 17.5q-24 0 -50 -10t-47.5 -29.5t-35.5 -49t-14 -68.5v-62q0 -41 14 -71t35.5 -50t47.5 -30t50 -10q38 0 63 17t40 44.5t21 61t6 66.5z" />
    <glyph glyph-name="c" unicode="c" horiz-adv-x="453" 
d="M418 48q0 -18 -12 -29t-30 -17t-38 -8t-35 -2q-69 0 -118 21.5t-80 59t-45.5 87t-14.5 105.5q0 55 14 105t44.5 88t79.5 60t120 22q18 0 38 -2t37 -8t28.5 -17t11.5 -29q0 -17 -10.5 -28t-27.5 -11q-15 0 -37 5q-11 2 -21.5 3t-18.5 1q-83 0 -120.5 -50t-37.5 -134
q0 -42 8 -77.5t26 -61t48.5 -39.5t75.5 -14q20 0 45 5q8 2 16 3t15 1q17 0 28 -11t11 -28z" />
    <glyph glyph-name="d" unicode="d" horiz-adv-x="586" 
d="M516 51q0 -27 -12.5 -42t-35.5 -15q-22 0 -35 15t-13 41v16h-2q-25 -32 -64 -53t-91 -21q-55 0 -96 22.5t-68 60.5t-40.5 88t-13.5 105t13 104.5t39.5 86.5t67.5 59t98 22q43 0 84 -17t71 -52h2v243q0 26 13 41.5t35 15.5q23 0 35.5 -15.5t12.5 -41.5v-663zM421 301
q0 39 -14 68.5t-35.5 49t-47.5 29.5t-50 10q-38 0 -63 -17.5t-40 -45t-21 -61.5t-6 -67t6 -66.5t21 -61t40 -44.5t63 -17q24 0 50 10t47.5 30t35.5 50t14 71v62z" />
    <glyph glyph-name="e" unicode="e" horiz-adv-x="529" 
d="M484 289q0 -20 -11 -35t-43 -15h-285q1 -39 15.5 -69.5t37.5 -51.5t53.5 -31.5t63.5 -10.5q20 0 35.5 1.5t31.5 4.5q25 5 39 5q17 0 27 -12t10 -27q0 -19 -16 -32q-19 -15 -53.5 -19.5t-75.5 -4.5q-63 0 -112.5 19.5t-84 55t-53 86t-18.5 112.5q0 129 55.5 202t168.5 73
q57 0 97.5 -17.5t67 -50t38.5 -79t12 -104.5zM386 311q0 72 -26 110.5t-92 38.5q-33 0 -56 -10.5t-37.5 -30t-21.5 -47t-7 -61.5h240z" />
    <glyph glyph-name="f" unicode="f" horiz-adv-x="328" 
d="M319 725q0 -18 -9.5 -27t-22.5 -11q-12 -2 -21.5 -2h-19.5q-18 0 -30 -7.5t-12 -36.5v-109h58q23 0 34 -11.5t11 -28.5t-11 -29t-34 -12h-58v-400q0 -27 -12.5 -42t-35.5 -15q-21 0 -34.5 15t-13.5 42v400h-41q-22 0 -32 12t-10 28q0 15 10 28t31 13h42v118q0 61 32 91
t92 30q20 0 37.5 -2t28.5 -8q21 -11 21 -36z" />
    <glyph glyph-name="g" unicode="g" horiz-adv-x="537" 
d="M527 484q0 -17 -11.5 -26.5t-30.5 -9.5h-45q28 -43 28 -92q0 -92 -52 -134.5t-152 -42.5q-42 0 -65 3t-43 11q-7 -6 -9 -13.5t-2 -21.5q0 -8 2.5 -16t9.5 -14.5t20 -10.5t34 -4h83q56 0 94.5 -7t62 -22.5t33.5 -41.5t10 -65q0 -42 -16.5 -77.5t-49.5 -61.5t-82.5 -40.5
t-114.5 -14.5q-109 0 -157.5 44.5t-48.5 118.5q0 35 14.5 68.5t49.5 59.5q-13 11 -20.5 32.5t-7.5 41.5t7.5 42.5t28.5 37.5q-28 22 -43.5 54.5t-15.5 72.5q0 88 50.5 136.5t160.5 48.5q34 0 61.5 -5.5t52.5 -13.5h119q23 0 34 -10t11 -27zM375 357q0 60 -30.5 83.5
t-90.5 23.5t-91 -23.5t-31 -83.5q0 -59 31 -80.5t90 -21.5q65 0 93.5 22t28.5 80zM399 -25q0 16 -4.5 27.5t-18 19t-38 10.5t-64.5 3h-114q-24 -11 -33.5 -33.5t-9.5 -53.5q0 -44 24.5 -62.5t89.5 -18.5q79 0 123.5 26.5t44.5 81.5z" />
    <glyph glyph-name="h" unicode="h" horiz-adv-x="567" 
d="M497 51q0 -27 -13 -42t-35 -15t-35 15t-13 42v305q0 49 -25.5 71.5t-73.5 22.5q-26 0 -56.5 -11.5t-52.5 -28.5q-12 -10 -19.5 -21t-7.5 -22v-316q0 -27 -13 -42t-35 -15q-23 0 -35.5 15t-12.5 42v663q0 27 13 42t35 15t35 -15t13 -42v-238q33 31 75 47.5t91 16.5
q77 0 121 -44.5t44 -128.5v-316v0z" />
    <glyph glyph-name="i" unicode="i" horiz-adv-x="254" 
d="M181 681q0 -30 -14.5 -46t-39.5 -16q-24 0 -39 16t-15 45t14.5 45.5t39.5 16.5q24 0 39 -16.5t15 -44.5zM175 51q0 -27 -13 -42t-35 -15t-35 15t-13 42v430q0 27 13 42t35 15t35 -15t13 -42v-430z" />
    <glyph glyph-name="j" unicode="j" horiz-adv-x="254" 
d="M181 681q0 -30 -14.5 -46t-39.5 -16q-24 0 -39 16t-15 45t14.5 45.5t39.5 16.5q24 0 39 -16.5t15 -44.5zM175 9q0 -46 -19.5 -95t-64.5 -91q-17 -15 -31 -21.5t-26 -6.5q-20 0 -30.5 12t-10.5 29q0 14 5.5 23t13.5 17q19 17 32 31.5t20.5 31t11 37.5t3.5 50v454
q0 28 13 43t35 15t35 -15t13 -42v-472z" />
    <glyph glyph-name="k" unicode="k" horiz-adv-x="500" 
d="M470 39q0 -18 -12.5 -31.5t-33.5 -13.5q-16 0 -26.5 6.5t-20.5 16.5l-211 221v-186q0 -27 -13 -42.5t-35 -15.5t-35 15.5t-13 41.5v663q0 27 13 42t35 15t35 -15t13 -42v-403l208 205q11 11 21 17.5t24 6.5q22 0 34 -13.5t12 -30.5q0 -12 -5 -19t-10 -12l-198 -188
l199 -198q11 -11 15 -21t4 -19z" />
    <glyph glyph-name="l" unicode="l" horiz-adv-x="242" 
d="M169 52q0 -27 -13 -42.5t-35 -15.5t-35 15.5t-13 41.5v663q0 27 13 42t35 15t35 -15t13 -42v-662v0z" />
    <glyph glyph-name="m" unicode="m" horiz-adv-x="860" 
d="M790 51q0 -27 -13 -42t-35 -15t-35 15t-13 42v310q0 49 -22 69t-63 20q-19 0 -50 -10t-54 -27q-12 -9 -19.5 -20.5t-7.5 -24.5v-317q0 -27 -12.5 -42t-35.5 -15q-22 0 -34.5 15t-12.5 42v310q0 49 -22 69t-63 20q-23 0 -53 -10.5t-52 -27.5q-12 -10 -19.5 -21t-7.5 -23
v-317q0 -27 -13 -42t-35 -15q-23 0 -35.5 15t-12.5 42v430q0 27 12.5 42t34.5 15t34.5 -15t12.5 -42v-5q33 35 75 49.5t81 14.5q98 0 138 -74q11 12 23 21.5t24 17.5q32 20 64.5 27.5t61.5 7.5q77 0 118 -45t41 -128v-316v0z" />
    <glyph glyph-name="n" unicode="n" horiz-adv-x="567" 
d="M497 51q0 -27 -13 -42t-35 -15t-35 15t-13 42v305q0 49 -25.5 71.5t-73.5 22.5q-26 0 -56.5 -11.5t-52.5 -28.5q-12 -10 -19.5 -21t-7.5 -22v-316q0 -27 -13 -42t-35 -15q-23 0 -35.5 15t-12.5 42v430q0 27 12.5 42t34.5 15t34.5 -15t12.5 -42v-5q33 31 76 47.5t92 16.5
q77 0 121 -44.5t44 -128.5v-316v0z" />
    <glyph glyph-name="o" unicode="o" horiz-adv-x="554" 
d="M509 267q0 -274 -232 -274t-232 274q0 127 58 200t174 73q114 0 173 -73t59 -200zM410 267q0 98 -33.5 145t-99.5 47t-99.5 -47t-33.5 -145q0 -96 32 -144.5t101 -48.5t101 48.5t32 144.5z" />
    <glyph glyph-name="p" unicode="p" horiz-adv-x="586" 
d="M541 264q0 -55 -13 -104.5t-39.5 -86.5t-67.5 -59t-98 -22q-43 0 -84 17t-71 52h-2v-221q0 -26 -13 -41.5t-35 -15.5q-23 0 -35.5 15.5t-12.5 41.5v641q0 27 12.5 42t35.5 15q22 0 35 -15t13 -41v-16h2q25 32 64 53t91 21q55 0 96 -22.5t68 -60.5t40.5 -88t13.5 -105z
M442 265q0 33 -6 66.5t-21 61t-40 44.5t-63 17q-24 0 -50 -10t-47.5 -30t-35.5 -50t-14 -71v-62q0 -39 14 -68.5t35.5 -49t47.5 -29.5t50 -10q37 0 62 17.5t40 45t21.5 61.5t6.5 67z" />
    <glyph glyph-name="q" unicode="q" horiz-adv-x="586" 
d="M516 -160q0 -26 -12.5 -41.5t-35.5 -15.5q-22 0 -35 15.5t-13 41.5v221h-2q-30 -35 -71 -52t-84 -17q-57 0 -98 22t-67.5 59t-39.5 86.5t-13 104.5t13.5 105t40.5 88t68 60.5t96 22.5q52 0 91 -21t64 -53h2v16q0 26 13 41t35 15q23 0 35.5 -15t12.5 -42v-641zM421 293
q0 41 -14 71t-35.5 50t-47.5 30t-50 10q-38 0 -63 -17t-40 -44.5t-21 -61t-6 -66.5t6 -67t21 -61.5t40 -45t63 -17.5q24 0 50 10t47.5 29.5t35.5 49t14 68.5v62z" />
    <glyph glyph-name="r" unicode="r" horiz-adv-x="365" 
d="M345 495q0 -45 -56 -50q-22 -2 -44 -9t-39.5 -20t-28.5 -32t-11 -45v-288q0 -27 -13 -42t-35 -15q-23 0 -35.5 15t-12.5 42v430q0 27 12.5 42t34.5 15t34.5 -15t12.5 -42v-15h1q12 13 27 26t32.5 23t36.5 16.5t37 6.5q24 0 35.5 -12t11.5 -31z" />
    <glyph glyph-name="s" unicode="s" horiz-adv-x="445" 
d="M400 143q0 -32 -13 -59.5t-37 -48t-58.5 -32t-78.5 -11.5q-42 0 -80 6t-61 19q-27 14 -27 35q0 22 12 31.5t30 9.5q13 0 34 -6q17 -5 38.5 -7.5t53.5 -2.5q50 0 70.5 16t20.5 43q0 32 -29.5 52t-70.5 40q-27 13 -55.5 28t-51 34.5t-37 46t-14.5 62.5q0 30 11.5 55.5
t33.5 45t55 30.5t77 11q16 0 34.5 -1.5t36.5 -5t34 -9t27 -13.5q19 -14 19 -35q0 -20 -11.5 -29.5t-25.5 -9.5q-7 0 -17 2t-22 5q-15 4 -34.5 7t-45.5 3q-23 0 -37.5 -5t-22.5 -13t-11.5 -18t-3.5 -20q0 -14 8 -25.5t21.5 -21.5t31 -19.5t37.5 -18.5q27 -13 55.5 -28
t51.5 -35t37.5 -46t14.5 -62z" />
    <glyph glyph-name="t" unicode="t" horiz-adv-x="327" 
d="M302 491q0 -17 -10.5 -29t-32.5 -12h-49v-396q0 -27 -13 -42.5t-35 -15.5t-35 15.5t-13 42.5v397h-47q-23 0 -32.5 12t-9.5 28q0 15 10 28t31 13h48v107q0 27 13 42.5t35 15.5t35 -15.5t13 -42.5v-108h49q21 0 32 -11.5t11 -28.5z" />
    <glyph glyph-name="u" unicode="u" horiz-adv-x="557" 
d="M492 203q0 -48 -11.5 -87t-37 -66.5t-66 -42.5t-98.5 -15t-99 15t-66.5 42.5t-37 66.5t-11.5 87v278q0 27 13 42t35 15t35 -15t13 -42v-301q0 -54 31.5 -79.5t85.5 -25.5t86 25.5t32 79.5v301q0 27 13 42t35 15q23 0 35.5 -15t12.5 -42v-278v0z" />
    <glyph glyph-name="v" unicode="v" horiz-adv-x="486" 
d="M456 493q0 -12 -6 -28l-161 -432q-14 -39 -57 -39q-44 0 -56 40l-140 431q-6 16 -6 28q0 20 14 32.5t34 12.5t31 -11.5t16 -27.5l109 -397h2l127 397q5 16 16 27.5t31 11.5t33 -12.5t13 -32.5z" />
    <glyph glyph-name="w" unicode="w" horiz-adv-x="743" 
d="M698 493q0 -12 -6 -36l-94 -415q-6 -26 -25 -37t-36 -11q-26 0 -42 12.5t-24 41.5l-97 369h-2l-107 -377q-7 -23 -25.5 -34.5t-38.5 -11.5q-23 0 -39.5 12.5t-21.5 34.5l-90 416q-3 14 -4 23t-1 17q0 17 13 29t33 12q39 0 47 -41l69 -388h2l106 385q5 20 21 31t38 11
t39.5 -11t22.5 -31l98 -385h2l71 388q4 20 14 30.5t30 10.5q21 0 34 -12.5t13 -32.5z" />
    <glyph glyph-name="x" unicode="x" horiz-adv-x="535" 
d="M490 39q0 -19 -12.5 -32t-32.5 -13q-16 0 -25.5 6.5t-20.5 20.5l-131 176l-133 -175q-11 -14 -20.5 -21t-24.5 -7q-20 0 -32.5 12.5t-12.5 32.5q0 16 15 36l150 194l-143 186q-16 22 -16 38q0 18 13.5 31.5t31.5 13.5q14 0 23.5 -6t20.5 -20l127 -169l127 169
q11 14 20.5 20t23.5 6q18 0 32 -13t14 -32q0 -17 -16 -37l-144 -186l150 -195q16 -20 16 -36z" />
    <glyph glyph-name="y" unicode="y" horiz-adv-x="490" 
d="M460 496q0 -10 -6 -26l-232 -650q-14 -39 -49 -39q-17 0 -30.5 12.5t-13.5 29.5q0 11 5 26l61 172l-159 448q-2 7 -4 13.5t-2 12.5q0 18 13.5 30.5t30.5 12.5q38 0 50 -39l119 -354h2l121 354q14 39 49 39q17 0 31 -12.5t14 -29.5z" />
    <glyph glyph-name="z" unicode="z" horiz-adv-x="474" 
d="M444 43q0 -19 -13.5 -31t-34.5 -12h-327q-21 0 -30 11t-9 31q0 15 4.5 24.5t11.5 19.5l265 358v2h-223q-20 0 -33.5 12t-13.5 31t13 31t34 12h303q20 0 31.5 -11t11.5 -31q0 -14 -4.5 -25t-10.5 -19l-265 -358v-2h242q20 0 34 -12t14 -31z" />
    <glyph glyph-name="braceleft" unicode="{" horiz-adv-x="296" 
d="M291 -50q0 -17 -9.5 -28t-29.5 -11h-35q-51 0 -82.5 27.5t-31.5 93.5v130q0 62 -14.5 87t-44.5 25q-20 0 -29.5 12t-9.5 29q0 16 9.5 28.5t28.5 12.5q29 0 44.5 25t15.5 87v131q0 66 31.5 93.5t82.5 27.5h35q20 0 29.5 -11t9.5 -28q0 -16 -9.5 -27.5t-28.5 -11.5h-23
q-23 0 -32 -10.5t-9 -39.5v-144q0 -35 -10 -59.5t-23.5 -40t-27.5 -23t-23 -8.5v-2q9 -2 23 -10t27.5 -23t23.5 -39.5t10 -59.5v-144q0 -29 9 -39.5t32 -10.5h23q19 0 28.5 -11.5t9.5 -27.5z" />
    <glyph glyph-name="bar" unicode="|" horiz-adv-x="224" 
d="M154 37q0 -20 -11.5 -32.5t-30.5 -12.5q-18 0 -30 12.5t-12 32.5v689q0 20 11.5 32.5t30.5 12.5q18 0 30 -12t12 -33v-689v0z" />
    <glyph glyph-name="braceright" unicode="}" horiz-adv-x="296" 
d="M291 316q0 -16 -9.5 -28.5t-28.5 -12.5q-29 0 -44.5 -25t-15.5 -87v-131q0 -66 -31.5 -93.5t-82.5 -27.5h-35q-20 0 -29.5 11t-9.5 28q0 16 9.5 27.5t28.5 11.5h23q23 0 32 10.5t9 39.5v144q0 35 9.5 59.5t23 40t28 22.5t23.5 9v2q-9 2 -23 10t-27.5 23t-23.5 39.5
t-10 59.5v144q0 29 -9 39.5t-32 10.5h-23q-19 0 -28.5 11.5t-9.5 27.5q0 17 9.5 28t29.5 11h35q51 0 82.5 -27.5t31.5 -93.5v-130q0 -62 14.5 -87t44.5 -25q20 0 29.5 -12t9.5 -29z" />
    <glyph glyph-name="asciitilde" unicode="~" 
d="M529 295q0 -9 -3 -20t-8 -20q-14 -32 -45 -56t-79 -24q-29 0 -54.5 9t-62.5 29q-25 14 -49.5 25.5t-46.5 11.5q-21 0 -34 -9t-22 -23q-13 -20 -22.5 -29.5t-27.5 -9.5q-14 0 -24.5 9t-10.5 25q0 9 3 20t8 20q14 32 45 56t79 24q29 0 54.5 -9t62.5 -29q25 -14 49.5 -25.5
t46.5 -11.5q21 0 34 9t22 23q13 20 22.5 29.5t27.5 9.5q14 0 24.5 -9t10.5 -25z" />
    <glyph glyph-name="exclamdown" unicode="&#xa1;" horiz-adv-x="245" 
d="M175 482q0 -28 -14 -44.5t-38 -16.5q-23 0 -38 16.5t-15 43.5q0 29 14.5 44t38.5 15q23 0 37.5 -15t14.5 -43zM170 -135q0 -26 -13 -39.5t-35 -13.5q-21 0 -34.5 13.5t-13.5 39.5v411q0 26 13 40t35 14t35 -13.5t13 -39.5v-412z" />
    <glyph glyph-name="cent" unicode="&#xa2;" 
d="M471 48q0 -22 -20 -35q-19 -13 -46.5 -17t-48.5 -4h-7v-23q0 -23 -6.5 -34.5t-25.5 -11.5q-18 0 -24 11.5t-6 33.5v31q-50 10 -86 34.5t-59 60t-33.5 79.5t-10.5 92t10.5 92t33 80t58.5 61t87 35v35q0 23 6.5 34.5t25.5 11.5q18 0 24 -11.5t6 -33.5v-29h7q25 0 53 -5.5
t45 -17.5q10 -7 13.5 -14.5t3.5 -18.5q0 -17 -10.5 -28t-27.5 -11q-15 0 -37 5q-11 2 -21.5 3t-18.5 1h-7v-376h7q20 0 45 5q8 2 16 3t15 1q17 0 28 -11t11 -28zM287 442q-47 -19 -68 -63.5t-21 -108.5q0 -66 19.5 -113.5t69.5 -67.5v353z" />
    <glyph glyph-name="sterling.sc" 
d="M488 46q0 -21 -13.5 -33.5t-34.5 -12.5h-299q-20 0 -31.5 11.5t-11.5 31.5q0 8 2 16t7 18q3 5 5.5 8t10.5 14q7 8 16 19t17 25t14 32.5t6 42.5h-44q-20 0 -34 11.5t-14 33.5t14 33.5t32 11.5h28q-9 26 -12.5 42.5t-3.5 36.5q0 30 10 57.5t31 48.5t53 34t76 13
q68 0 107 -16t39 -44q0 -27 -14 -37t-34 -10q-9 0 -17.5 2t-19.5 4t-26 4t-36 2q-22 0 -36 -6.5t-22.5 -16.5t-12 -22t-3.5 -23q0 -23 5 -37.5t10 -31.5h125q20 0 33.5 -11.5t13.5 -33.5t-13.5 -33.5t-33.5 -11.5h-109q1 -16 -3.5 -33t-12.5 -34t-18 -32.5t-20 -27.5h226
q20 0 34 -12t14 -33z" />
    <glyph glyph-name="fraction" unicode="&#x2044;" horiz-adv-x="186" 
d="M277 695q0 -6 -2 -13t-7 -18l-285 -653q-6 -13 -13.5 -20.5t-22.5 -7.5q-14 0 -26 10t-12 24q0 8 2.5 15.5t7.5 17.5l283 651q6 14 14 21t22 7q17 0 28 -10t11 -24z" />
    <glyph glyph-name="yen" unicode="&#xa5;" 
d="M535 676q0 -9 -4.5 -20t-15.5 -29l-144 -229h101q18 0 27.5 -10.5t9.5 -23.5q0 -11 -9 -22t-28 -11h-141v-74h141q18 0 27.5 -10.5t9.5 -23.5q0 -12 -9 -23t-28 -11h-141v-147q0 -20 -12.5 -34t-33.5 -14q-23 0 -35 14.5t-12 33.5v147h-142q-18 0 -27.5 11t-9.5 23
t9.5 23t27.5 11h142v74h-142q-18 0 -27.5 10.5t-9.5 22.5t9.5 23t27.5 11h101l-143 229q-11 18 -15.5 29t-4.5 19q0 17 11.5 30t31.5 13q13 0 24 -5.5t19 -18.5l164 -265l164 265q8 13 19.5 18.5t22.5 5.5q20 0 32.5 -12.5t12.5 -29.5z" />
    <glyph glyph-name="florin" unicode="&#x192;" 
d="M528 715q0 -23 -14.5 -33.5t-36.5 -10.5h-27q-22 0 -39 -18t-25 -64l-22 -122h47q23 0 37 -10.5t14 -29.5q0 -22 -14 -31.5t-36 -9.5h-63l-65 -368q-19 -107 -61.5 -152t-105.5 -45h-32q-20 0 -32 12t-12 28q0 26 16 36t35 10h22q9 0 19 2t20 13t19.5 34t16.5 64l64 365
h-41q-23 0 -36.5 11.5t-13.5 28.5q0 20 15 31t37 11h54l23 129q13 72 51 116t102 44h31q24 0 38.5 -11t14.5 -30z" />
    <glyph glyph-name="section" unicode="&#xa7;" horiz-adv-x="556" 
d="M491 215q0 -46 -25 -82.5t-63 -63.5q24 -23 39 -51.5t15 -67.5q0 -42 -16.5 -73.5t-44 -52.5t-64.5 -32t-77 -11q-20 0 -41 2t-41 6.5t-37.5 10t-29.5 13.5q-10 6 -16 14.5t-6 19.5q0 20 11 32t32 12q10 0 23 -3.5t32 -9.5q17 -5 37.5 -7.5t38.5 -2.5q45 0 74 19.5
t29 62.5q0 19 -10 35t-26.5 30.5t-39 28.5t-46.5 28q-30 18 -61 38t-56 45.5t-41 57.5t-16 72q0 45 25 82t63 63q-24 23 -39 51t-15 66q0 42 15.5 74t42 54t62 33t76.5 11q39 0 79 -8.5t64 -23.5q21 -12 21 -34q0 -19 -10 -31t-31 -12q-10 0 -23 3.5t-33 8.5q-13 4 -28 7
t-30 3q-50 0 -79.5 -17.5t-29.5 -64.5q0 -19 9 -35t25 -30t38 -28t47 -29q30 -18 61.5 -38.5t57 -46t42 -57t16.5 -71.5zM396 214q0 22 -8.5 39t-24.5 32t-39 29.5t-52 32.5l-52 32q-29 -15 -45 -39.5t-16 -51.5q0 -21 8 -38t24 -32t39.5 -30.5t53.5 -34.5l52 -32
q29 14 44.5 39.5t15.5 53.5z" />
    <glyph glyph-name="currency" unicode="&#xa4;" horiz-adv-x="557" 
d="M492 271q0 -9 -3.5 -18t-15.5 -23l-105 -131q-12 -15 -24 -23.5t-27 -6.5q-22 2 -31.5 15.5t-7.5 24.5t6 19.5t14 20.5l70 85h-253q-20 0 -32.5 10.5t-12.5 27.5q0 15 12 26t32 11h253l-69 83q-11 12 -15 20.5t-5 20.5q-1 11 8 25t31 15q15 1 26.5 -7t23.5 -23l106 -133
q11 -14 15 -22.5t4 -16.5z" />
    <glyph glyph-name="quotesingle" unicode="'" horiz-adv-x="224" 
d="M154 530q0 -20 -12 -32.5t-30 -12.5t-30 12.5t-12 32.5v145q0 20 12 32.5t29 12.5q19 0 31 -12.5t12 -32.5v-145v0z" />
    <glyph glyph-name="quotedblleft" unicode="&#x201c;" horiz-adv-x="386" 
d="M351 678q0 -17 -9 -33l-66 -134q-7 -14 -18 -20t-23 -6q-21 0 -33.5 13t-12.5 29t9 34l66 133q7 14 18 20t23 6q20 0 33 -13t13 -29zM198 678q0 -8 -3 -16.5t-7 -16.5l-64 -134q-7 -14 -19 -20t-24 -6q-20 0 -33 13t-13 29t9 34l66 133q7 14 18.5 20t23.5 6q20 0 33 -13
t13 -29z" />
    <glyph glyph-name="guillemotleft" unicode="&#xab;" horiz-adv-x="436" 
d="M391 104q0 -14 -11 -26.5t-29 -12.5q-25 0 -41 28l-88 148q-11 18 -11 31q0 8 4.5 17.5t11.5 20.5l86 141q7 11 15.5 18t22.5 7q19 0 29.5 -11t10.5 -25q0 -8 -2 -14.5t-9 -17.5l-83 -137l83 -136q7 -11 9 -17.5t2 -13.5zM224 104q0 -14 -10.5 -26.5t-29.5 -12.5
q-25 0 -41 28l-88 148q-6 10 -8 17.5t-2 13.5q0 15 15 38l86 141q7 11 15.5 18t22.5 7q19 0 29.5 -11t10.5 -25q0 -8 -2 -14.5t-8 -17.5l-83 -137l82 -136q7 -11 9 -17.5t2 -13.5z" />
    <glyph glyph-name="guilsinglleft" unicode="&#x2039;" horiz-adv-x="269" 
d="M224 104q0 -14 -10.5 -26.5t-29.5 -12.5q-25 0 -41 28l-88 148q-6 10 -8 17.5t-2 13.5q0 15 15 38l86 141q7 11 15.5 18t22.5 7q19 0 29.5 -11t10.5 -25q0 -8 -2 -14.5t-8 -17.5l-83 -137l82 -136q7 -11 9 -17.5t2 -13.5z" />
    <glyph glyph-name="guilsinglright" unicode="&#x203a;" horiz-adv-x="269" 
d="M224 269q0 -8 -4.5 -17.5t-10.5 -20.5l-87 -141q-7 -11 -15.5 -18t-22.5 -7q-18 0 -28.5 11t-10.5 25q0 8 1.5 14.5t8.5 17.5l82 137l-82 136q-7 11 -8.5 17.5t-1.5 13.5q0 15 10.5 27t28.5 12q25 0 41 -28l88 -148q11 -18 11 -31z" />
    <glyph glyph-name="endash" unicode="&#x2013;" horiz-adv-x="520" 
d="M510 274q0 -15 -9.5 -27.5t-30.5 -12.5h-419q-22 0 -31.5 12.5t-9.5 27.5t9.5 27.5t30.5 12.5h419q22 0 31.5 -12.5t9.5 -27.5z" />
    <glyph glyph-name="dagger" unicode="&#x2020;" horiz-adv-x="614" 
d="M589 429q0 -20 -13 -31.5t-36 -11.5h-188v-549q0 -26 -12.5 -40t-32.5 -14t-32 13.5t-12 39.5v550h-188q-23 0 -36.5 11.5t-13.5 31.5t13 31t37 11h188v195q0 26 12 40t32 14t32.5 -13.5t12.5 -39.5v-195h187q50 0 50 -43z" />
    <glyph glyph-name="daggerdbl" unicode="&#x2021;" horiz-adv-x="614" 
d="M589 59q0 -19 -12 -31t-32 -12h-193v-184q0 -23 -12.5 -36t-32.5 -13t-32 13t-12 35v185h-193q-20 0 -32.5 11.5t-12.5 31.5q0 19 12 30.5t32 11.5h194v304h-193q-20 0 -32.5 11.5t-12.5 30.5q0 20 12 31.5t32 11.5h194v184q0 23 12 36t32 13t32.5 -13t12.5 -35v-184h193
q20 0 32 -12t12 -31t-12 -31t-32 -12h-193v-303h193q20 0 32 -12t12 -31z" />
    <glyph glyph-name="periodcentered" unicode="&#xb7;" horiz-adv-x="269" 
d="M191 308q0 -31 -15.5 -47.5t-41.5 -16.5q-25 0 -40.5 16.5t-15.5 46.5t15 48t41 18t41.5 -18t15.5 -47z" />
    <glyph glyph-name="paragraph" unicode="&#xb6;" horiz-adv-x="607" 
d="M537 -170q0 -20 -11.5 -32.5t-30.5 -12.5q-18 0 -29.5 12.5t-11.5 32.5v812h-116v-812q0 -20 -12 -32.5t-29 -12.5q-19 0 -31 12.5t-12 32.5v513q-49 0 -88.5 13.5t-67.5 37.5t-43 57.5t-15 73.5q0 50 17 85.5t47.5 58t73.5 33t96 10.5h206q32 0 44.5 -12t12.5 -43v-827
v0z" />
    <glyph glyph-name="bullet" unicode="&#x2022;" horiz-adv-x="516" 
d="M436 356q0 -37 -14 -69.5t-38 -56.5t-56.5 -38t-69.5 -14t-69.5 14t-56.5 38t-38 56.5t-14 69.5t14 69.5t38 56.5t56.5 38t69.5 14t69.5 -14t56.5 -38t38 -56.5t14 -69.5z" />
    <glyph glyph-name="quotesinglbase" unicode="&#x201a;" horiz-adv-x="233" 
d="M198 67q0 -14 -10 -34l-65 -133q-7 -14 -18.5 -20t-23.5 -6q-20 0 -33 13t-13 29q0 8 2.5 16.5t6.5 16.5l66 134q13 26 42 26q20 0 33 -13t13 -29z" />
    <glyph glyph-name="quotedblbase" unicode="&#x201e;" horiz-adv-x="387" 
d="M352 67q0 -14 -10 -34l-65 -133q-7 -14 -18.5 -20t-23.5 -6q-20 0 -33 13t-13 29q0 8 2.5 16.5t6.5 16.5l66 134q13 26 42 26q20 0 33 -13t13 -29zM198 67q0 -14 -10 -34l-65 -133q-7 -14 -18.5 -20t-23.5 -6q-20 0 -33 13t-13 29q0 8 2.5 16.5t6.5 16.5l66 134
q13 26 42 26q20 0 33 -13t13 -29z" />
    <glyph glyph-name="quotedblright" unicode="&#x201d;" horiz-adv-x="386" 
d="M351 678q0 -17 -9 -33l-66 -134q-7 -14 -18 -20t-23 -6q-21 0 -33.5 13t-12.5 29t9 34l66 133q7 14 18 20t23 6q20 0 33 -13t13 -29zM198 678q0 -8 -3 -16.5t-7 -16.5l-64 -134q-7 -14 -19 -20t-24 -6q-20 0 -33 13t-13 29t9 34l66 133q7 14 18.5 20t23.5 6q20 0 33 -13
t13 -29z" />
    <glyph glyph-name="guillemotright" unicode="&#xbb;" horiz-adv-x="436" 
d="M391 269q0 -8 -4.5 -17.5t-11.5 -20.5l-86 -141q-7 -11 -15.5 -18t-22.5 -7q-19 0 -29.5 11t-10.5 25q0 8 2 14.5t9 17.5l83 138l-83 135q-7 11 -9 17.5t-2 13.5q0 15 11 27t29 12q25 0 41 -28l88 -148q11 -18 11 -31zM224 269q0 -8 -4.5 -17.5t-10.5 -20.5l-87 -141
q-7 -11 -15.5 -18t-22.5 -7q-18 0 -28.5 11t-10.5 25q0 8 1.5 14.5t8.5 17.5l82 138l-82 135q-7 11 -8.5 17.5t-1.5 13.5q0 15 10.5 27t28.5 12q25 0 41 -28l88 -148q11 -18 11 -31z" />
    <glyph glyph-name="ellipsis" unicode="&#x2026;" horiz-adv-x="935" 
d="M857 56q0 -31 -15.5 -47.5t-41.5 -16.5q-25 0 -40.5 16.5t-15.5 46.5t15 48t41 18t41.5 -18t15.5 -47zM525 56q0 -31 -15.5 -47.5t-41.5 -16.5q-25 0 -40.5 16.5t-15.5 46.5t15 48t41 18t41.5 -18t15.5 -47zM191 56q0 -31 -15.5 -47.5t-41.5 -16.5q-25 0 -40.5 16.5
t-15.5 46.5t15 48t41 18t41.5 -18t15.5 -47z" />
    <glyph glyph-name="perthousand" unicode="&#x2030;" horiz-adv-x="1083" 
d="M1048 158q0 -36 -12.5 -66t-33.5 -52.5t-49 -35t-59 -12.5q-32 0 -60 12.5t-49 34.5t-33 52.5t-12 66.5q0 38 12.5 69.5t33.5 54.5t49 36t59 13t59 -12.5t49 -35.5t33.5 -55t12.5 -70zM343 547q0 -36 -12.5 -66t-33.5 -52.5t-49 -35t-59 -12.5q-32 0 -60 12.5t-49 34.5
t-33 52.5t-12 66.5q0 38 12.5 69.5t33.5 54.5t49 36t59 13t59 -12.5t49 -35.5t33.5 -55t12.5 -70zM548 695q0 -11 -8 -31l-285 -653q-6 -14 -14 -21t-22 -7q-15 0 -26 10t-11 24q0 13 9 33l283 651q6 14 13.5 21t21.5 7q17 0 28 -10t11 -24zM696 158q0 -36 -12.5 -66
t-33.5 -52.5t-49 -35t-59 -12.5q-32 0 -60 12.5t-49 34.5t-33 52.5t-12 66.5q0 38 12.5 69.5t33.5 54.5t49 36t59 13t59 -12.5t49 -35.5t33.5 -55t12.5 -70zM974 158q0 46 -21 76.5t-59 30.5t-59.5 -30.5t-21.5 -76.5q0 -18 5 -36t14.5 -32t25 -23t36.5 -9t36 8.5t24.5 23
t14.5 32.5t5 36zM269 547q0 46 -21 76.5t-59 30.5t-59.5 -30.5t-21.5 -76.5q0 -18 5 -36t14.5 -32t25 -23t36.5 -9t36 8.5t24.5 23t14.5 32.5t5 36zM622 158q0 46 -21 76.5t-59 30.5t-59.5 -30.5t-21.5 -76.5q0 -18 5 -36t14.5 -32t25 -23t36.5 -9t36 8.5t24.5 23t14.5 32.5
t5 36z" />
    <glyph glyph-name="questiondown" unicode="&#xbf;" horiz-adv-x="452" 
d="M311 482q0 -27 -14 -43t-37 -16t-37.5 16t-14.5 42q0 29 14 44t38 15q23 0 37 -15t14 -43zM432 -107q0 -24 -22 -39q-23 -15 -63 -28.5t-94 -13.5q-97 0 -155 43t-58 129q0 36 12 63.5t30.5 51t40 43.5t40.5 41q20 22 35 47t15 52v1q0 23 13.5 35.5t32.5 12.5
q20 0 34 -12t14 -39v-2q0 -31 -8.5 -55.5t-21.5 -44.5t-30 -37.5t-33 -33.5q-27 -26 -48.5 -53t-21.5 -62q0 -18 5.5 -33.5t19 -27.5t34.5 -19t53 -7t56.5 7t56.5 20q5 2 11 3t11 1q18 0 29.5 -12.5t11.5 -30.5z" />
    <glyph glyph-name="grave" unicode="`" horiz-adv-x="230" 
d="M229 648q0 -17 -10 -32t-26 -15q-8 0 -12.5 1t-17.5 6l-130 50q-21 8 -26.5 18.5t-5.5 22.5q0 14 10 29t26 15q12 0 30 -7l134 -53q19 -8 23.5 -17.5t4.5 -17.5z" />
    <glyph glyph-name="acute" unicode="&#xb4;" horiz-adv-x="230" 
d="M229 700q0 -13 -5.5 -23.5t-26.5 -18.5l-129 -50q-8 -3 -15 -5t-16 -2q-16 0 -26 15t-10 31q0 9 4.5 18.5t23.5 17.5l134 52q10 4 17 6t13 2q16 0 26 -14.5t10 -28.5z" />
    <glyph glyph-name="circumflex" unicode="&#x2c6;" horiz-adv-x="230" 
d="M270 638q0 -17 -11.5 -29t-28.5 -12q-8 0 -17.5 2.5t-17.5 6.5l-80 37l-80 -36q-8 -4 -17.5 -7t-17.5 -3q-17 0 -28.5 12t-11.5 29q0 14 6.5 25.5t28.5 19.5l120 47l120 -47q22 -8 28.5 -19.5t6.5 -25.5z" />
    <glyph glyph-name="tilde" unicode="&#x2dc;" horiz-adv-x="230" 
d="M266 681q0 -15 -8 -29q-11 -19 -31.5 -30.5t-46.5 -11.5q-18 0 -36 5t-35 11q-13 5 -25 8t-24 3q-10 0 -16.5 -3.5t-12.5 -8.5q-7 -5 -13.5 -9t-17.5 -4q-16 0 -26.5 10.5t-10.5 25.5t8 29q11 19 31.5 30.5t46.5 11.5q18 0 36 -5t35 -11q13 -5 25 -8t24 -3q10 0 16.5 3.5
t12.5 8.5q7 5 13.5 9t17.5 4q16 0 26.5 -10.5t10.5 -25.5z" />
    <glyph glyph-name="macron" unicode="&#xaf;" horiz-adv-x="230" 
d="M261 645q0 -21 -14 -32.5t-38 -11.5h-188q-24 0 -38 11t-14 33q0 21 14 32.5t38 11.5h188q24 0 38 -11t14 -33z" />
    <glyph glyph-name="breve" unicode="&#x2d8;" horiz-adv-x="230" 
d="M256 692q0 -27 -17 -47q-18 -23 -51 -35.5t-73 -12.5t-73 12.5t-51 35.5q-17 20 -17 47q0 19 8 30.5t25 11.5q14 0 24 -9t19 -21t22.5 -21.5t42.5 -9.5t42.5 9.5t22.5 21.5t19 21t24 9q17 0 25 -11.5t8 -30.5z" />
    <glyph glyph-name="dotaccent" unicode="&#x2d9;" horiz-adv-x="230" 
d="M171 652q0 -24 -16.5 -40.5t-39.5 -16.5t-40 16.5t-17 39.5q0 24 17 40.5t40 16.5t39.5 -16.5t16.5 -39.5z" />
    <glyph glyph-name="dieresis" unicode="&#xa8;" horiz-adv-x="230" 
d="M268 652q0 -24 -17 -40.5t-40 -16.5t-40 16.5t-17 39.5q0 24 16.5 40.5t40.5 16.5q23 0 40 -16.5t17 -39.5zM76 652q0 -24 -16.5 -40.5t-40.5 -16.5q-23 0 -40 16.5t-17 39.5q0 24 17 40.5t40 16.5t40 -16.5t17 -39.5z" />
    <glyph glyph-name="ring" unicode="&#x2da;" horiz-adv-x="230" 
d="M210 679q0 -20 -7.5 -37t-20 -30.5t-30 -21t-37.5 -7.5t-37 7.5t-30 20.5t-20.5 30t-7.5 37q0 40 27.5 68t67.5 28q19 0 36.5 -7.5t30.5 -20.5t20.5 -30.5t7.5 -36.5zM164 679q0 20 -14.5 34.5t-34.5 14.5t-34.5 -14.5t-14.5 -34.5t14.5 -35t34.5 -15t34.5 15t14.5 35z
" />
    <glyph glyph-name="cedilla" unicode="&#xb8;" horiz-adv-x="230" 
d="M216 -104q0 -23 -10.5 -40t-27.5 -28q-29 -19 -66 -19q-22 0 -41.5 4.5t-30.5 15.5q-9 9 -9 21q0 10 6 17.5t20 7.5q6 0 11.5 -2t11.5 -4t14.5 -4t20.5 -2q29 0 29 26q0 9 -4.5 14.5t-11 8.5t-13 4t-10.5 1h-16q-8 0 -15 5t-7 16q0 7 2.5 12.5t5.5 10.5l28 43h52l-30 -47
l2 -1q5 1 11 2t11 1q27 0 44 -14q23 -17 23 -49z" />
    <glyph glyph-name="hungarumlaut" unicode="&#x2dd;" horiz-adv-x="230" 
d="M372 700q0 -13 -5.5 -23.5t-26.5 -18.5l-130 -50q-14 -5 -18 -6t-12 -1q-16 0 -26.5 15t-10.5 31q0 9 5 19t23 17l134 52q22 8 30 8q17 0 27 -14.5t10 -28.5zM147 700q0 -13 -6 -23.5t-27 -18.5l-129 -50q-14 -5 -18.5 -6t-12.5 -1q-16 0 -26 15t-10 31q0 9 5 19t23 17
l134 52q10 4 17 6t13 2q16 0 26.5 -14.5t10.5 -28.5z" />
    <glyph glyph-name="ogonek" unicode="&#x2db;" horiz-adv-x="230" 
d="M181 -147q0 -13 -12 -23q-24 -21 -79 -21q-38 0 -62.5 16.5t-24.5 55.5q0 20 7.5 37t20.5 32q14 16 32.5 28.5t37.5 21.5h58q-14 -10 -28.5 -22.5t-26 -26t-18.5 -27t-7 -25.5q0 -32 30 -32q8 0 14.5 2t12.5 4q5 2 9.5 3t10.5 1q13 0 19 -7.5t6 -16.5z" />
    <glyph glyph-name="caron" unicode="&#x2c7;" horiz-adv-x="230" 
d="M270 688q0 -14 -6.5 -25.5t-28.5 -19.5l-120 -47l-120 47q-22 8 -28.5 19.5t-6.5 25.5t11.5 27.5t28.5 13.5q8 0 17.5 -2.5t17.5 -6.5l80 -37l80 36q8 4 17.5 7t17.5 3q17 0 28.5 -13.5t11.5 -27.5z" />
    <glyph glyph-name="emdash" unicode="&#x2014;" horiz-adv-x="1020" 
d="M1051 274q0 -15 -9.5 -27.5t-31.5 -12.5h-1000q-21 0 -31 12.5t-10 27.5t9.5 27.5t31.5 12.5h1000q21 0 31 -12.5t10 -27.5z" />
    <glyph glyph-name="AE" unicode="&#xc6;" horiz-adv-x="799" 
d="M759 45q0 -17 -12.5 -31t-35.5 -14h-255q-21 0 -35.5 14.5t-14.5 37.5v118h-221l-66 -130q-9 -17 -23 -31.5t-33 -14.5q-17 0 -30 10.5t-13 28.5q0 12 3.5 21.5t12.5 27.5l291 570q13 26 36 43t70 17h268q23 0 36 -13.5t13 -31.5q0 -17 -13 -30.5t-36 -13.5h-197v-222
h187q23 0 36 -13.5t13 -31.5q0 -17 -13 -30.5t-36 -13.5h-188v-223h207q24 0 36.5 -13t12.5 -31zM406 623h-2l-179 -369h181v369z" />
    <glyph glyph-name="ordfeminine" unicode="&#xaa;" horiz-adv-x="381" 
d="M346 424q0 -15 -8 -26t-27 -11t-27.5 11t-8.5 26v13h-1q-14 -20 -40.5 -33t-53.5 -13q-69 0 -107 41.5t-38 122.5q0 80 40.5 122.5t107.5 42.5q29 0 52 -10t40 -32h1v5q0 15 8 26t27 11t27 -11t8 -26v-259zM274 556q0 45 -19 75.5t-64 30.5q-44 0 -62.5 -27t-18.5 -79
t19.5 -79.5t61.5 -27.5q45 0 64 30.5t19 76.5z" />
    <glyph glyph-name="Lslash" unicode="&#x141;" horiz-adv-x="459" 
d="M439 44q-1 -17 -14 -30.5t-35 -13.5h-233q-23 0 -36.5 14t-13.5 37v235l-41 -28q-14 -8 -23 -8q-17 0 -25 11.5t-8 24.5q0 14 8 24t23 20l66 42v290q0 27 13 41.5t36 14.5q22 0 35 -14.5t13 -41.5v-224l91 59q16 10 29 10t22.5 -10.5t9.5 -25.5t-8.5 -24.5t-22.5 -18.5
l-121 -76v-263h185q24 0 37 -14t13 -31z" />
    <glyph glyph-name="Oslash" unicode="&#xd8;" horiz-adv-x="700" 
d="M655 704q0 -14 -10 -27l-65 -82q54 -90 54 -238q0 -177 -72 -270t-213 -94q-116 0 -188 67l-38 -49q-8 -11 -18 -19t-26 -8q-14 0 -24 8.5t-10 22.5q0 6 2 12.5t9 14.5l60 77q-51 88 -51 238q0 85 18 152.5t54 114t89 71t122 24.5q117 0 187 -67l44 56q8 11 17.5 19
t25.5 8q14 0 23.5 -8.5t9.5 -22.5zM478 579q-45 52 -129 52q-93 0 -136.5 -63t-43.5 -208q0 -47 4 -84.5t13 -68.5zM530 360q0 45 -4 82.5t-13 66.5l-292 -373q43 -55 128 -55q96 0 138.5 66.5t42.5 212.5z" />
    <glyph glyph-name="OE" unicode="&#x152;" horiz-adv-x="901" 
d="M861 45q0 -17 -13 -31t-36 -14h-244q-55 0 -55 50v25q-33 -39 -79 -60.5t-106 -21.5q-140 1 -211.5 94t-71.5 270q0 85 18 152.5t54 114t89 71t122 24.5q61 0 107 -20.5t78 -58.5v18q0 25 13 39.5t42 14.5h234q23 0 36 -13.5t13 -31.5q0 -17 -13 -30.5t-36 -13.5h-197
v-222h187q24 0 37 -13.5t13 -31.5q0 -17 -13 -30.5t-37 -13.5h-188v-223h208q23 0 36 -13t13 -31zM510 360q0 72 -10.5 123.5t-32.5 84.5t-56 48t-82 15q-93 0 -136.5 -63t-43.5 -208q0 -146 43 -212.5t137 -66.5q96 0 138.5 66.5t42.5 212.5z" />
    <glyph glyph-name="ordmasculine" unicode="&#xba;" horiz-adv-x="366" 
d="M331 554q0 -78 -36 -120.5t-111 -42.5q-76 0 -112.5 43t-36.5 122q0 78 36.5 121t111.5 43t111.5 -43.5t36.5 -122.5zM255 554q0 54 -14.5 81t-56.5 27t-58 -27t-16 -79t15.5 -79.5t57.5 -27.5q41 0 56.5 27t15.5 78z" />
    <glyph glyph-name="ae" unicode="&#xe6;" horiz-adv-x="842" 
d="M797 293q0 -20 -11 -35t-43 -15h-285q1 -39 15.5 -70t37.5 -52.5t53.5 -33t63.5 -11.5q20 0 35.5 1.5t31.5 4.5q25 5 39 5q17 0 27 -12t10 -27q0 -22 -19 -35q-20 -14 -53.5 -17.5t-72.5 -3.5q-78 0 -131 29t-82 82q-20 -34 -45 -55.5t-52 -34t-53.5 -17.5t-49.5 -5
q-44 0 -75.5 12.5t-52 34t-30.5 50.5t-10 62q0 41 16 72t52 51.5t95 31t145 10.5h10v36q0 41 -24 68t-88 27q-20 0 -34.5 -1.5t-31.5 -3.5q-15 -2 -27.5 -3.5t-23.5 -1.5q-19 0 -33 10t-14 31q0 12 5.5 20t12.5 13q17 12 57.5 18.5t92.5 6.5q66 0 104.5 -21t57.5 -56
q24 40 64.5 61t100.5 21q57 0 97.5 -17t67 -49t38.5 -77.5t12 -103.5zM699 315q0 72 -27 108.5t-91 36.5q-57 0 -89.5 -35.5t-32.5 -107.5v-2h240zM363 246h-10q-58 0 -98.5 -5t-66 -16t-37 -29t-11.5 -45q0 -32 21 -55t68 -23q30 0 54.5 10t42.5 26.5t27.5 38.5t9.5 46v52z
" />
    <glyph glyph-name="dotlessi" unicode="&#x131;" horiz-adv-x="254" 
d="M175 51q0 -27 -13 -42t-35 -15t-35 15t-13 42v430q0 27 13 42t35 15t35 -15t13 -42v-430v0z" />
    <glyph glyph-name="lslash" unicode="&#x142;" horiz-adv-x="290" 
d="M280 484q0 -12 -6 -20t-17 -19l-64 -57v-337q0 -27 -13 -42t-35 -15t-34.5 15t-12.5 42v252l-23 -18q-9 -7 -16.5 -11.5t-15.5 -4.5q-16 0 -24.5 9.5t-8.5 22.5q0 11 6.5 19.5t16.5 17.5l64 58v318q0 27 13 42t35 15t34.5 -15t12.5 -42v-232l23 18q8 6 16 10.5t18 4.5
q14 0 22.5 -8.5t8.5 -22.5z" />
    <glyph glyph-name="oslash" unicode="&#xf8;" horiz-adv-x="579" 
d="M539 527q0 -11 -11 -25l-48 -58q42 -69 42 -177q0 -137 -58 -205t-173 -69q-93 0 -149 43l-31 -38q-8 -11 -16.5 -17.5t-22.5 -6.5q-14 1 -23 8.5t-9 19.5t12 25l48 57q-42 67 -42 183q0 127 58 200t174 73q90 0 147 -48l33 40q8 9 16 16t22 7q13 0 22 -8t9 -20zM379 422
q-33 35 -89 35q-66 0 -99.5 -46t-33.5 -144q0 -59 12 -99zM423 267q0 54 -11 95l-211 -255q32 -35 89 -35q69 0 101 49.5t32 145.5z" />
    <glyph glyph-name="oe" unicode="&#x153;" horiz-adv-x="889" 
d="M844 289q0 -20 -11 -35t-43 -15h-285q1 -39 15.5 -69.5t37.5 -51.5t53.5 -31.5t63.5 -10.5q20 0 35.5 1.5t31.5 4.5q25 5 39 5q17 0 27 -12t10 -27q0 -23 -21 -36q-20 -13 -53 -16.5t-71 -3.5q-75 0 -129.5 26.5t-86.5 76.5q-26 -48 -69.5 -75t-111.5 -27
q-231 2 -231 274q0 127 58 200t174 73q64 0 107.5 -23.5t69.5 -67.5q26 45 68.5 68t106.5 23q57 0 97.5 -17.5t67 -50t38.5 -79t12 -104.5zM746 311q0 72 -26 110.5t-92 38.5q-33 0 -56 -10.5t-37.5 -30t-21.5 -47t-7 -61.5h240zM410 267q0 98 -33.5 144t-99.5 46t-99.5 -46
t-33.5 -144q0 -96 32 -145.5t101 -49.5t101 49.5t32 145.5z" />
    <glyph glyph-name="germandbls" unicode="&#xdf;" horiz-adv-x="574" 
d="M529 220q0 -40 -12.5 -80t-37 -72t-61 -52t-84.5 -20q-17 0 -29 3q-39 9 -39 41q0 20 12 31.5t45 13.5q19 1 37 8q37 15 53.5 51.5t16.5 81.5q0 35 -9 60.5t-25.5 42.5t-39 26.5t-48.5 14.5q-30 5 -38 15.5t-8 25.5q0 13 4.5 20.5t21.5 15.5q16 7 31.5 15t28.5 21.5
t21 35t8 54.5q0 19 -6 39t-19 36t-33 26t-48 10q-32 0 -52 -12t-32 -31.5t-16.5 -45t-4.5 -51.5v-493q0 -27 -13 -42t-35 -15t-35 15t-13 42v499q0 52 15 93t41.5 69.5t63.5 43.5t81 15t81 -14.5t63.5 -41t41 -62.5t14.5 -78q0 -47 -16.5 -86.5t-58.5 -65.5q36 -10 61.5 -31
t41.5 -49t23 -60t7 -63z" />
    <glyph glyph-name="logicalnot" unicode="&#xac;" 
d="M541 143q0 -21 -12 -33.5t-30 -12.5t-30 12.5t-12 32.5v173h-385q-20 0 -32.5 12t-12.5 30t12.5 30t32.5 12h416q53 0 53 -52v-204v0z" />
    <glyph glyph-name="mu" unicode="&#xb5;" horiz-adv-x="567" 
d="M497 44q0 -22 -14 -36t-34 -14q-18 0 -33 12t-15 33v1h-1q-22 -25 -53 -36.5t-64 -11.5q-32 0 -62 13.5t-53 40.5h-2v-206q0 -26 -13 -41.5t-35 -15.5q-23 0 -35.5 15.5t-12.5 41.5v641q0 27 12.5 42t34.5 15q23 0 35.5 -15t12.5 -42v-310q0 -46 32.5 -72.5t85.5 -26.5
t85.5 26t32.5 73v310q0 27 13 42t35 15t35 -15t13 -42v-437v0z" />
    <glyph glyph-name="trademark" unicode="&#x2122;" horiz-adv-x="979" 
d="M909 344q0 -20 -9.5 -32.5t-29.5 -12.5t-30 12t-10 33v277h-2l-106 -280q-8 -23 -17.5 -32.5t-26.5 -9.5t-26 9t-17 32l-107 281h-2v-277q0 -20 -10 -32.5t-30 -12.5t-30.5 12t-10.5 33v312q0 29 16.5 45.5t48.5 16.5q22 0 41 -10.5t33 -45.5l94 -238l92 238
q14 36 33.5 46t41.5 10q32 0 48 -16.5t16 -45.5v-312zM370 677q0 -13 -8.5 -24t-27.5 -11h-93v-297q0 -20 -11.5 -32.5t-29.5 -12.5q-19 0 -30.5 12.5t-11.5 32.5v297h-93q-18 0 -26.5 10.5t-8.5 24.5t8.5 24.5t26.5 10.5h269q19 0 27.5 -11t8.5 -24z" />
    <glyph glyph-name="Eth" unicode="&#xd0;" horiz-adv-x="645" 
d="M600 361q0 -99 -23.5 -167.5t-65 -111.5t-97 -62.5t-119.5 -19.5h-145q-24 0 -40 11.5t-16 38.5v269h-28q-21 0 -33.5 12t-12.5 29q0 16 12 28t34 12h28v261q0 24 13.5 37.5t41.5 13.5h146q68 0 124.5 -20t96.5 -62.5t62 -109t22 -159.5zM498 360q0 69 -11.5 119t-37 82
t-65.5 47t-96 15h-97v-223h122q22 0 34.5 -11.5t12.5 -28.5t-12 -29t-35 -12h-122v-230h97q57 0 97 16t65 49.5t36.5 84.5t11.5 121z" />
    <glyph glyph-name="onehalf" unicode="&#xbd;" horiz-adv-x="771" 
d="M736 34q0 -35 -38 -35h-190q-38 0 -38 32q0 20 12 35l118 147q25 31 36.5 53t11.5 42q0 50 -55 50q-25 0 -49 -8q-22 -8 -37 -8q-12 0 -20.5 9t-8.5 24q0 12 6 19.5t14 12.5q23 14 53.5 18t50.5 4q54 0 89 -32t35 -87q0 -32 -17 -67t-54 -78l-84 -97h125q40 0 40 -34z
M535 695q0 -10 -9 -31l-285 -653q-12 -28 -36 -28q-15 0 -26 9.5t-11 24.5q0 12 9 33l283 651q12 28 38 28q37 0 37 -34zM191 323q0 -17 -9 -27.5t-28 -10.5t-28 10.5t-9 27.5v321h-47q-35 0 -35 35t35 35h89q32 0 32 -30v-361z" />
    <glyph glyph-name="plusminus" unicode="&#xb1;" 
d="M541 315q0 -18 -12.5 -30t-32.5 -12h-170v-109q0 -20 -11.5 -32.5t-30.5 -12.5q-18 0 -29.5 12.5t-11.5 32.5v109h-171q-20 0 -32.5 11.5t-12.5 29.5t12.5 30t32.5 12h170v109q0 20 11.5 32.5t30.5 12.5q18 0 29.5 -12.5t11.5 -32.5v-109h171q20 0 32.5 -11.5t12.5 -29.5
zM541 42q0 -18 -12.5 -30t-32.5 -12h-424q-20 0 -32.5 12t-12.5 29q0 18 12.5 30.5t32.5 12.5h424q20 0 32.5 -12t12.5 -30z" />
    <glyph glyph-name="Thorn" unicode="&#xde;" horiz-adv-x="530" 
d="M500 376q0 -114 -60.5 -168t-164.5 -54h-108v-104q0 -27 -13 -41.5t-35 -14.5q-23 0 -36 14.5t-13 41.5v612q0 27 13 41.5t35 14.5q23 0 36 -14.5t13 -41.5v-75h100q112 0 172.5 -54t60.5 -157zM394 376q0 66 -32.5 95t-97.5 29h-97v-259h99q69 0 98.5 31.5t29.5 103.5z
" />
    <glyph glyph-name="onequarter" unicode="&#xbc;" horiz-adv-x="745" 
d="M710 129q0 -16 -9.5 -25t-23.5 -9h-18v-68q0 -14 -9.5 -23.5t-27.5 -9.5q-19 0 -28 9.5t-9 23.5v68h-172q-19 0 -25.5 9.5t-6.5 20.5q0 15 12 33l148 239q11 17 26.5 24.5t35.5 7.5q23 0 39 -13t16 -42v-211h18q14 0 24 -8.5t10 -25.5zM535 695q0 -10 -9 -31l-285 -653
q-12 -28 -36 -28q-15 0 -26 9.5t-11 24.5q0 12 9 33l283 651q12 28 38 28q37 0 37 -34zM191 323q0 -17 -9 -27.5t-28 -10.5t-28 10.5t-9 27.5v321h-47q-35 0 -35 35t35 35h89q32 0 32 -30v-361zM585 352l-119 -189h119v189z" />
    <glyph glyph-name="divide" unicode="&#xf7;" 
d="M352 462q0 -28 -19.5 -48t-48.5 -20t-48.5 19.5t-19.5 48.5q0 28 19.5 48t48.5 20t48.5 -19.5t19.5 -48.5zM541 253q0 -18 -12.5 -30t-32.5 -12h-424q-20 0 -32.5 12t-12.5 30t12.5 30t32.5 12h424q20 0 32.5 -12t12.5 -30zM352 44q0 -28 -19.5 -48t-48.5 -20t-48.5 19.5
t-19.5 48.5q0 28 19.5 48t48.5 20q28 0 48 -19.5t20 -48.5z" />
    <glyph glyph-name="brokenbar" unicode="&#xa6;" horiz-adv-x="224" 
d="M154 514q0 -20 -11.5 -33t-30.5 -13q-18 0 -30 13t-12 33v212q0 20 11.5 32.5t30.5 12.5q18 0 30 -12t12 -33v-212zM154 37q0 -20 -11.5 -32.5t-30.5 -12.5q-18 0 -30 12.5t-12 32.5v212q0 21 11.5 33.5t30.5 12.5q18 0 30 -12.5t12 -32.5v-213z" />
    <glyph glyph-name="degree" unicode="&#xb0;" horiz-adv-x="388" 
d="M343 571q0 -31 -11.5 -58t-32 -47.5t-47.5 -32t-58 -11.5t-58 11.5t-47.5 32t-32 47.5t-11.5 58t11.5 58t32 47.5t47.5 32t58 11.5t58 -11.5t47.5 -32t32 -47.5t11.5 -58zM285 571q0 38 -26.5 64.5t-64.5 26.5q-18 0 -34.5 -7t-29 -19.5t-20 -29t-7.5 -35.5
q0 -18 7 -34.5t19.5 -29t29 -20t35.5 -7.5q18 0 34.5 7t29 19.5t20 29t7.5 35.5z" />
    <glyph glyph-name="thorn" unicode="&#xfe;" horiz-adv-x="586" 
d="M541 264q0 -55 -13 -104.5t-39.5 -86.5t-67.5 -59t-98 -22q-43 0 -84 17t-71 52h-2v-221q0 -26 -13 -41.5t-35 -15.5q-23 0 -35.5 15.5t-12.5 41.5v874q0 27 12.5 42t35.5 15q22 0 35 -15t13 -41v-249h2q25 32 64 53t91 21q55 0 96 -22.5t68 -60.5t40.5 -88t13.5 -105z
M442 265q0 33 -6 66.5t-21 61t-40 44.5t-63 17q-24 0 -50 -10t-47.5 -30t-35.5 -50t-14 -71v-62q0 -39 14 -68.5t35.5 -49t47.5 -29.5t50 -10q37 0 62 17.5t40 45t21.5 61.5t6.5 67z" />
    <glyph glyph-name="threequarters" unicode="&#xbe;" horiz-adv-x="779" 
d="M744 129q0 -16 -9.5 -25t-23.5 -9h-18v-68q0 -14 -9.5 -23.5t-27.5 -9.5q-19 0 -28 9.5t-9 23.5v68h-172q-19 0 -25.5 9.5t-6.5 20.5q0 15 12 33l148 239q11 17 26.5 24.5t35.5 7.5q23 0 39 -13t16 -42v-211h18q14 0 24 -8.5t10 -25.5zM570 695q0 -10 -9 -31l-285 -653
q-12 -28 -36 -28q-15 0 -26 9.5t-11 24.5q0 12 9 33l283 651q12 28 38 28q37 0 37 -34zM284 415q0 -27 -9.5 -51t-27.5 -42t-44.5 -28t-60.5 -10q-30 0 -56.5 4.5t-40.5 16.5q-4 4 -7 8.5t-3 15.5q0 16 9 24t24 8q3 0 9 -0.5t11 -2.5q12 -3 25 -5t29 -2q34 0 51.5 18
t17.5 47q0 32 -19.5 47t-55.5 15h-13q-16 0 -25.5 9t-9.5 24t9.5 25.5t25.5 10.5h13q32 0 47.5 16t15.5 43q0 21 -13 34t-40 13q-14 0 -28 -4t-29 -10q-9 -3 -16 -3q-14 0 -22.5 8.5t-8.5 22.5q0 21 24 34q17 8 38.5 13.5t43.5 5.5q34 0 57.5 -9t38.5 -24.5t21.5 -35.5
t6.5 -42q0 -26 -16.5 -52t-41.5 -38q40 -14 55 -42.5t15 -61.5zM619 352l-119 -189h119v189z" />
    <glyph glyph-name="registered" unicode="&#xae;" horiz-adv-x="818" 
d="M773 356q0 -75 -28.5 -141.5t-78 -116t-116 -78t-141.5 -28.5t-141.5 28.5t-116 78t-78 116t-28.5 141.5t28.5 141.5t78 116t116 78t141.5 28.5t141.5 -28.5t116 -78t78 -116t28.5 -141.5zM699 356q0 61 -23 114.5t-62.5 93.5t-92 63t-112.5 23q-59 0 -112 -23t-92.5 -63
t-62.5 -93.5t-23 -114.5t23 -114.5t62.5 -93.5t92 -63t112.5 -23q59 0 112 23t92.5 63t62.5 93.5t23 114.5zM568 443q0 -53 -29.5 -82.5t-71.5 -34.5l79 -126q5 -8 8.5 -16.5t3.5 -16.5q0 -13 -9 -21t-23 -8t-23.5 8.5t-16.5 20.5l-92 155h-51v-139q0 -19 -8 -31.5
t-27 -12.5q-18 0 -26.5 12t-8.5 31v349q0 11 5.5 18.5t22.5 7.5h120q69 0 108 -28t39 -86zM499 440q0 19 -7 30.5t-18 18t-26 9t-31 2.5h-74v-122h63q19 0 35.5 1.5t29.5 8t20.5 19t7.5 33.5z" />
    <glyph glyph-name="minus" unicode="&#x2212;" 
d="M541 253q0 -18 -12.5 -30t-32.5 -12h-424q-20 0 -32.5 12t-12.5 30t12.5 30t32.5 12h424q20 0 32.5 -12t12.5 -30z" />
    <glyph glyph-name="eth" unicode="&#xf0;" horiz-adv-x="551" 
d="M506 294q0 -84 -20.5 -141.5t-54 -93t-75 -51t-83.5 -15.5q-57 0 -100 20.5t-71.5 56.5t-42.5 85.5t-14 107.5q0 59 13 108t40.5 83.5t69.5 53.5t100 19q34 0 70.5 -18.5t58.5 -49.5l2 2q-19 48 -53.5 95t-76.5 78l-86 -44q-14 -8 -22 -11t-16 -3q-11 0 -18 7.5t-7 19.5
t7.5 19t18.5 13l73 38q-12 8 -31 18t-32 15q-14 6 -20.5 12.5t-6.5 20.5q0 16 11.5 25.5t28.5 9.5q6 0 13.5 -1t17.5 -4q26 -8 54 -22.5t51 -29.5l83 43q13 7 18.5 8t10.5 1q12 0 19 -8.5t7 -19.5q0 -9 -4.5 -15.5t-17.5 -13.5l-71 -35q85 -75 120.5 -170t35.5 -213z
M412 263q0 36 -8 69.5t-24.5 59t-43 41t-63.5 15.5q-36 0 -61 -12.5t-40 -36.5t-21.5 -58.5t-6.5 -77.5q0 -87 32 -139t98 -52q41 0 67.5 18t42.5 45.5t22 61.5t6 66z" />
    <glyph glyph-name="multiply" unicode="&#xd7;" 
d="M514 65q0 -18 -12.5 -29.5t-29.5 -11.5q-8 0 -16.5 4.5t-15.5 11.5l-156 156l-155 -156q-14 -16 -33 -16q-17 0 -29 11.5t-12 29.5q0 8 3.5 15.5t13.5 17.5l154 155l-154 155q-17 17 -17 32q0 18 12 30t29 12q16 0 32 -16l156 -156l155 156q16 16 33 16t29 -11.5
t12 -29.5q0 -16 -17 -33l-154 -155l154 -155q10 -10 14 -17t4 -16z" />
    <glyph glyph-name="copyright" unicode="&#xa9;" horiz-adv-x="818" 
d="M773 356q0 -75 -28.5 -141.5t-78 -116t-116 -78t-141.5 -28.5t-141.5 28.5t-116 78t-78 116t-28.5 141.5t28.5 141.5t78 116t116 78t141.5 28.5t141.5 -28.5t116 -78t78 -116t28.5 -141.5zM699 356q0 61 -23 114.5t-62.5 93.5t-92 63t-112.5 23q-59 0 -112 -23t-92.5 -63
t-62.5 -93.5t-23 -114.5t23 -114.5t62.5 -93.5t92 -63t112.5 -23q59 0 112 23t92.5 63t62.5 93.5t23 114.5zM546 185q0 -11 -5.5 -18.5t-13.5 -12.5q-17 -10 -44 -14.5t-56 -4.5q-43 0 -81 12.5t-66 38.5t-44.5 67.5t-16.5 100.5q0 58 17.5 100t47 68t67 38.5t76.5 12.5
q29 0 56 -4.5t44 -14.5q8 -5 13.5 -12.5t5.5 -18.5q0 -15 -9 -24t-23 -9q-7 0 -13.5 1t-19.5 4q-24 6 -52 6q-24 0 -47 -7t-41.5 -24t-29.5 -45t-11 -71t11 -71t29.5 -45t41.5 -24t47 -7q28 0 52 6q13 3 19.5 4t13.5 1q14 0 23 -9t9 -24z" />
    <glyph glyph-name="Aacute" unicode="&#xc1;" horiz-adv-x="638" 
d="M613 34q0 -17 -12 -28.5t-32 -11.5q-23 0 -34 11t-17 28l-54 154h-292l-53 -153q-6 -17 -16.5 -28.5t-33.5 -11.5q-20 0 -32 11.5t-12 28.5q0 12 7 31l208 593q4 11 9.5 22t14.5 20t22 14.5t32 5.5q39 0 56 -19.5t25 -42.5l206 -591q8 -21 8 -33zM320 625h-2l-119 -355
h239zM452 861q0 -13 -5.5 -23.5t-26.5 -18.5l-129 -50q-8 -3 -15 -5t-16 -2q-16 0 -26 15t-10 31q0 9 4.5 18.5t23.5 17.5l134 52q10 4 17 6t13 2q16 0 26 -14.5t10 -28.5z" />
    <glyph glyph-name="Acircumflex" unicode="&#xc2;" horiz-adv-x="638" 
d="M613 34q0 -17 -12 -28.5t-32 -11.5q-23 0 -34 11t-17 28l-54 154h-292l-53 -153q-6 -17 -16.5 -28.5t-33.5 -11.5q-20 0 -32 11.5t-12 28.5q0 12 7 31l208 593q4 11 9.5 22t14.5 20t22 14.5t32 5.5q39 0 56 -19.5t25 -42.5l206 -591q8 -21 8 -33zM320 625h-2l-119 -355
h239zM474 799q0 -17 -11.5 -29t-28.5 -12q-8 0 -17.5 2.5t-17.5 6.5l-80 37l-80 -36q-8 -4 -17.5 -7t-17.5 -3q-17 0 -28.5 12t-11.5 29q0 14 6.5 25.5t28.5 19.5l120 47l120 -47q22 -8 28.5 -19.5t6.5 -25.5z" />
    <glyph glyph-name="Adieresis" unicode="&#xc4;" horiz-adv-x="638" 
d="M613 34q0 -17 -12 -28.5t-32 -11.5q-23 0 -34 11t-17 28l-54 154h-292l-53 -153q-6 -17 -16.5 -28.5t-33.5 -11.5q-20 0 -32 11.5t-12 28.5q0 12 7 31l208 593q4 11 9.5 22t14.5 20t22 14.5t32 5.5q39 0 56 -19.5t25 -42.5l206 -591q8 -21 8 -33zM320 625h-2l-119 -355
h239zM472 813q0 -24 -17 -40.5t-40 -16.5t-40 16.5t-17 39.5q0 24 16.5 40.5t40.5 16.5q23 0 40 -16.5t17 -39.5zM280 813q0 -24 -16.5 -40.5t-40.5 -16.5q-23 0 -40 16.5t-17 39.5q0 24 17 40.5t40 16.5t40 -16.5t17 -39.5z" />
    <glyph glyph-name="Agrave" unicode="&#xc0;" horiz-adv-x="638" 
d="M613 34q0 -17 -12 -28.5t-32 -11.5q-23 0 -34 11t-17 28l-54 154h-292l-53 -153q-6 -17 -16.5 -28.5t-33.5 -11.5q-20 0 -32 11.5t-12 28.5q0 12 7 31l208 593q4 11 9.5 22t14.5 20t22 14.5t32 5.5q39 0 56 -19.5t25 -42.5l206 -591q8 -21 8 -33zM320 625h-2l-119 -355
h239zM422 809q0 -17 -10 -32t-26 -15q-8 0 -12.5 1t-17.5 6l-130 50q-21 8 -26.5 18.5t-5.5 22.5q0 14 10 29t26 15q12 0 30 -7l134 -53q19 -8 23.5 -17.5t4.5 -17.5z" />
    <glyph glyph-name="Aring" unicode="&#xc5;" horiz-adv-x="638" 
d="M613 34q0 -17 -12 -28.5t-32 -11.5q-23 0 -34 11t-17 28l-54 154h-292l-53 -153q-6 -17 -16.5 -28.5t-33.5 -11.5q-20 0 -32 11.5t-12 28.5q0 12 7 31l208 593q4 11 9.5 22t14.5 20t22 14.5t32 5.5q39 0 56 -19.5t25 -42.5l206 -591q8 -21 8 -33zM320 625h-2l-119 -355
h239zM413 833q0 -20 -7.5 -37t-20 -30.5t-30 -21t-37.5 -7.5t-37 7.5t-30 20.5t-20.5 30t-7.5 37q0 40 27.5 68t67.5 28q19 0 36.5 -7.5t30.5 -20.5t20.5 -30.5t7.5 -36.5zM367 833q0 20 -14.5 34.5t-34.5 14.5t-34.5 -14.5t-14.5 -34.5t14.5 -35t34.5 -15t34.5 15t14.5 35z
" />
    <glyph glyph-name="Atilde" unicode="&#xc3;" horiz-adv-x="638" 
d="M613 34q0 -17 -12 -28.5t-32 -11.5q-23 0 -34 11t-17 28l-54 154h-292l-53 -153q-6 -17 -16.5 -28.5t-33.5 -11.5q-20 0 -32 11.5t-12 28.5q0 12 7 31l208 593q4 11 9.5 22t14.5 20t22 14.5t32 5.5q39 0 56 -19.5t25 -42.5l206 -591q8 -21 8 -33zM320 625h-2l-119 -355
h239zM471 842q0 -15 -8 -29q-11 -19 -31.5 -30.5t-46.5 -11.5q-18 0 -36 5t-35 11q-13 5 -25 8t-24 3q-10 0 -16.5 -3.5t-12.5 -8.5q-7 -5 -13.5 -9t-17.5 -4q-16 0 -26.5 10.5t-10.5 25.5t8 29q11 19 31.5 30.5t46.5 11.5q18 0 36 -5t35 -11q13 -5 25 -8t24 -3
q10 0 16.5 3.5t12.5 8.5q7 5 13.5 9t17.5 4q16 0 26.5 -10.5t10.5 -25.5z" />
    <glyph glyph-name="Ccedilla" unicode="&#xc7;" horiz-adv-x="523" 
d="M388 -104q0 -23 -10.5 -40t-27.5 -28q-29 -19 -66 -19q-22 0 -41.5 4.5t-30.5 15.5q-9 9 -9 21q0 10 6 17.5t20 7.5q6 0 11.5 -2t11.5 -4t14.5 -4t20.5 -2q29 0 29 26q0 9 -4.5 14.5t-11 8.5t-13 4t-10.5 1h-16q-8 0 -15 5t-7 16q0 7 2.5 12.5t5.5 10.5l25 38
q-109 20 -168 106.5t-59 255.5q0 89 21 156.5t61 112.5t97 67.5t128 22.5q38 0 70.5 -5t52.5 -17q26 -15 26 -39q0 -20 -11.5 -31.5t-29.5 -11.5q-9 0 -18 1.5t-25 5.5t-30.5 5.5t-34.5 1.5q-107 0 -155 -70t-48 -200q0 -149 53.5 -213.5t158.5 -64.5q16 0 30.5 2t28.5 4
q23 4 40 4t30 -9t13 -29q0 -16 -8.5 -27t-22.5 -18q-21 -11 -52.5 -14t-68.5 -3h-15.5t-15.5 1l-23 -36l2 -1q5 1 11 2t11 1q27 0 44 -14q23 -17 23 -49z" />
    <glyph glyph-name="Eacute" unicode="&#xc9;" horiz-adv-x="464" 
d="M424 45q0 -17 -13 -31t-36 -14h-250q-55 0 -55 50v608q0 25 13 39.5t42 14.5h240q23 0 36 -13.5t13 -31.5q0 -17 -13 -30.5t-36 -13.5h-197v-222h187q24 0 37 -13.5t13 -31.5q0 -17 -13 -30.5t-37 -13.5h-188v-223h208q23 0 36 -13t13 -31zM371 861q0 -13 -5.5 -23.5
t-26.5 -18.5l-129 -50q-8 -3 -15 -5t-16 -2q-16 0 -26 15t-10 31q0 9 4.5 18.5t23.5 17.5l134 52q10 4 17 6t13 2q16 0 26 -14.5t10 -28.5z" />
    <glyph glyph-name="Ecircumflex" unicode="&#xca;" horiz-adv-x="464" 
d="M424 45q0 -17 -13 -31t-36 -14h-250q-55 0 -55 50v608q0 25 13 39.5t42 14.5h240q23 0 36 -13.5t13 -31.5q0 -17 -13 -30.5t-36 -13.5h-197v-222h187q24 0 37 -13.5t13 -31.5q0 -17 -13 -30.5t-37 -13.5h-188v-223h208q23 0 36 -13t13 -31zM392 799q0 -17 -11.5 -29
t-28.5 -12q-8 0 -17.5 2.5t-17.5 6.5l-80 37l-80 -36q-8 -4 -17.5 -7t-17.5 -3q-17 0 -28.5 12t-11.5 29q0 14 6.5 25.5t28.5 19.5l120 47l120 -47q22 -8 28.5 -19.5t6.5 -25.5z" />
    <glyph glyph-name="Edieresis" unicode="&#xcb;" horiz-adv-x="464" 
d="M424 45q0 -17 -13 -31t-36 -14h-250q-55 0 -55 50v608q0 25 13 39.5t42 14.5h240q23 0 36 -13.5t13 -31.5q0 -17 -13 -30.5t-36 -13.5h-197v-222h187q24 0 37 -13.5t13 -31.5q0 -17 -13 -30.5t-37 -13.5h-188v-223h208q23 0 36 -13t13 -31zM391 813q0 -24 -17 -40.5
t-40 -16.5t-40 16.5t-17 39.5q0 24 16.5 40.5t40.5 16.5q23 0 40 -16.5t17 -39.5zM199 813q0 -24 -16.5 -40.5t-40.5 -16.5q-23 0 -40 16.5t-17 39.5q0 24 17 40.5t40 16.5t40 -16.5t17 -39.5z" />
    <glyph glyph-name="Egrave" unicode="&#xc8;" horiz-adv-x="464" 
d="M424 45q0 -17 -13 -31t-36 -14h-250q-55 0 -55 50v608q0 25 13 39.5t42 14.5h240q23 0 36 -13.5t13 -31.5q0 -17 -13 -30.5t-36 -13.5h-197v-222h187q24 0 37 -13.5t13 -31.5q0 -17 -13 -30.5t-37 -13.5h-188v-223h208q23 0 36 -13t13 -31zM331 809q0 -17 -10 -32
t-26 -15q-8 0 -12.5 1t-17.5 6l-130 50q-21 8 -26.5 18.5t-5.5 22.5q0 14 10 29t26 15q12 0 30 -7l134 -53q19 -8 23.5 -17.5t4.5 -17.5z" />
    <glyph glyph-name="Iacute" unicode="&#xcd;" horiz-adv-x="247" 
d="M172 50q0 -27 -13 -41.5t-35 -14.5q-23 0 -36 14.5t-13 41.5v612q0 27 13 41.5t36 14.5q22 0 35 -14.5t13 -41.5v-612v0zM276 861q0 -13 -5.5 -23.5t-26.5 -18.5l-129 -50q-8 -3 -15 -5t-16 -2q-16 0 -26 15t-10 31q0 9 4.5 18.5t23.5 17.5l134 52q10 4 17 6t13 2
q16 0 26 -14.5t10 -28.5z" />
    <glyph glyph-name="Icircumflex" unicode="&#xce;" horiz-adv-x="247" 
d="M172 50q0 -27 -13 -41.5t-35 -14.5q-23 0 -36 14.5t-13 41.5v612q0 27 13 41.5t36 14.5q22 0 35 -14.5t13 -41.5v-612v0zM278 799q0 -17 -11.5 -29t-28.5 -12q-8 0 -17.5 2.5t-17.5 6.5l-80 37l-80 -36q-8 -4 -17.5 -7t-17.5 -3q-17 0 -28.5 12t-11.5 29q0 14 6.5 25.5
t28.5 19.5l120 47l120 -47q22 -8 28.5 -19.5t6.5 -25.5z" />
    <glyph glyph-name="Idieresis" unicode="&#xcf;" horiz-adv-x="247" 
d="M172 50q0 -27 -13 -41.5t-35 -14.5q-23 0 -36 14.5t-13 41.5v612q0 27 13 41.5t36 14.5q22 0 35 -14.5t13 -41.5v-612v0zM276 813q0 -24 -17 -40.5t-40 -16.5t-40 16.5t-17 39.5q0 24 16.5 40.5t40.5 16.5q23 0 40 -16.5t17 -39.5zM84 813q0 -24 -16.5 -40.5t-40.5 -16.5
q-23 0 -40 16.5t-17 39.5q0 24 17 40.5t40 16.5t40 -16.5t17 -39.5z" />
    <glyph glyph-name="Igrave" unicode="&#xcc;" horiz-adv-x="247" 
d="M172 50q0 -27 -13 -41.5t-35 -14.5q-23 0 -36 14.5t-13 41.5v612q0 27 13 41.5t36 14.5q22 0 35 -14.5t13 -41.5v-612v0zM201 809q0 -17 -10 -32t-26 -15q-8 0 -12.5 1t-17.5 6l-130 50q-21 8 -26.5 18.5t-5.5 22.5q0 14 10 29t26 15q12 0 30 -7l134 -53
q19 -8 23.5 -17.5t4.5 -17.5z" />
    <glyph glyph-name="Ntilde" unicode="&#xd1;" horiz-adv-x="669" 
d="M599 49q0 -32 -16 -43.5t-39 -11.5q-13 0 -28 5.5t-26 22.5l-323 518h-2v-490q0 -27 -12.5 -41.5t-34.5 -14.5q-23 0 -35.5 14.5t-12.5 41.5v614q0 28 15 41t38 13q26 0 39.5 -9.5t21.5 -22.5l318 -514h2v490q0 56 47 56q22 0 35 -14.5t13 -41.5v-613v0zM486 842
q0 -15 -8 -29q-11 -19 -31.5 -30.5t-46.5 -11.5q-18 0 -36 5t-35 11q-13 5 -25 8t-24 3q-10 0 -16.5 -3.5t-12.5 -8.5q-7 -5 -13.5 -9t-17.5 -4q-16 0 -26.5 10.5t-10.5 25.5t8 29q11 19 31.5 30.5t46.5 11.5q18 0 36 -5t35 -11q13 -5 25 -8t24 -3q10 0 16.5 3.5t12.5 8.5
q7 5 13.5 9t17.5 4q16 0 26.5 -10.5t10.5 -25.5z" />
    <glyph glyph-name="Oacute" unicode="&#xd3;" horiz-adv-x="659" 
d="M614 357q0 -177 -72 -270.5t-214 -93.5q-140 0 -211.5 93.5t-71.5 270.5q0 85 18 152.5t54 114t89 71t122 24.5q141 0 213.5 -95.5t72.5 -266.5zM510 360q0 72 -10.5 123.5t-32.5 84.5t-56 48t-82 15q-93 0 -136.5 -63t-43.5 -208q0 -146 43 -212.5t137 -66.5
q96 0 138.5 66.5t42.5 212.5zM463 861q0 -13 -5.5 -23.5t-26.5 -18.5l-129 -50q-8 -3 -15 -5t-16 -2q-16 0 -26 15t-10 31q0 9 4.5 18.5t23.5 17.5l134 52q10 4 17 6t13 2q16 0 26 -14.5t10 -28.5z" />
    <glyph glyph-name="Ocircumflex" unicode="&#xd4;" horiz-adv-x="659" 
d="M614 357q0 -177 -72 -270.5t-214 -93.5q-140 0 -211.5 93.5t-71.5 270.5q0 85 18 152.5t54 114t89 71t122 24.5q141 0 213.5 -95.5t72.5 -266.5zM510 360q0 72 -10.5 123.5t-32.5 84.5t-56 48t-82 15q-93 0 -136.5 -63t-43.5 -208q0 -146 43 -212.5t137 -66.5
q96 0 138.5 66.5t42.5 212.5zM485 799q0 -17 -11.5 -29t-28.5 -12q-8 0 -17.5 2.5t-17.5 6.5l-80 37l-80 -36q-8 -4 -17.5 -7t-17.5 -3q-17 0 -28.5 12t-11.5 29q0 14 6.5 25.5t28.5 19.5l120 47l120 -47q22 -8 28.5 -19.5t6.5 -25.5z" />
    <glyph glyph-name="Odieresis" unicode="&#xd6;" horiz-adv-x="659" 
d="M614 357q0 -177 -72 -270.5t-214 -93.5q-140 0 -211.5 93.5t-71.5 270.5q0 85 18 152.5t54 114t89 71t122 24.5q141 0 213.5 -95.5t72.5 -266.5zM510 360q0 72 -10.5 123.5t-32.5 84.5t-56 48t-82 15q-93 0 -136.5 -63t-43.5 -208q0 -146 43 -212.5t137 -66.5
q96 0 138.5 66.5t42.5 212.5zM483 813q0 -24 -17 -40.5t-40 -16.5t-40 16.5t-17 39.5q0 24 16.5 40.5t40.5 16.5q23 0 40 -16.5t17 -39.5zM291 813q0 -24 -16.5 -40.5t-40.5 -16.5q-23 0 -40 16.5t-17 39.5q0 24 17 40.5t40 16.5t40 -16.5t17 -39.5z" />
    <glyph glyph-name="Ograve" unicode="&#xd2;" horiz-adv-x="659" 
d="M614 357q0 -177 -72 -270.5t-214 -93.5q-140 0 -211.5 93.5t-71.5 270.5q0 85 18 152.5t54 114t89 71t122 24.5q141 0 213.5 -95.5t72.5 -266.5zM510 360q0 72 -10.5 123.5t-32.5 84.5t-56 48t-82 15q-93 0 -136.5 -63t-43.5 -208q0 -146 43 -212.5t137 -66.5
q96 0 138.5 66.5t42.5 212.5zM429 809q0 -17 -10 -32t-26 -15q-8 0 -12.5 1t-17.5 6l-130 50q-21 8 -26.5 18.5t-5.5 22.5q0 14 10 29t26 15q12 0 30 -7l134 -53q19 -8 23.5 -17.5t4.5 -17.5z" />
    <glyph glyph-name="Otilde" unicode="&#xd5;" horiz-adv-x="659" 
d="M614 357q0 -177 -72 -270.5t-214 -93.5q-140 0 -211.5 93.5t-71.5 270.5q0 85 18 152.5t54 114t89 71t122 24.5q141 0 213.5 -95.5t72.5 -266.5zM510 360q0 72 -10.5 123.5t-32.5 84.5t-56 48t-82 15q-93 0 -136.5 -63t-43.5 -208q0 -146 43 -212.5t137 -66.5
q96 0 138.5 66.5t42.5 212.5zM481 842q0 -15 -8 -29q-11 -19 -31.5 -30.5t-46.5 -11.5q-18 0 -36 5t-35 11q-13 5 -25 8t-24 3q-10 0 -16.5 -3.5t-12.5 -8.5q-7 -5 -13.5 -9t-17.5 -4q-16 0 -26.5 10.5t-10.5 25.5t8 29q11 19 31.5 30.5t46.5 11.5q18 0 36 -5t35 -11
q13 -5 25 -8t24 -3q10 0 16.5 3.5t12.5 8.5q7 5 13.5 9t17.5 4q16 0 26.5 -10.5t10.5 -25.5z" />
    <glyph glyph-name="Scaron" unicode="&#x160;" horiz-adv-x="481" 
d="M446 186q0 -47 -17 -83t-48.5 -60.5t-75.5 -37.5t-97 -13q-44 0 -85.5 7t-65.5 24q-22 16 -22 37q0 20 13 31.5t32 11.5q20 0 52 -8q18 -5 39 -8t45 -3q66 0 99 25.5t33 73.5q0 27 -14 48t-37 39.5t-52 35.5t-59 35q-28 17 -54 36t-45.5 42t-31.5 52t-12 66q0 44 16 78
t44 57.5t66 35.5t83 12q40 0 76 -6.5t59 -19.5q25 -14 25 -38q0 -19 -11.5 -32t-33.5 -13q-10 0 -23.5 2.5t-32.5 7.5q-13 3 -27.5 5t-31.5 2q-52 0 -82 -19.5t-30 -67.5q0 -23 11 -42t29.5 -35.5t42.5 -31.5t50 -30q31 -18 62 -38t55.5 -45.5t40 -57.5t15.5 -75zM389 849
q0 -14 -6.5 -25.5t-28.5 -19.5l-120 -47l-120 47q-22 8 -28.5 19.5t-6.5 25.5t11.5 27.5t28.5 13.5q8 0 17.5 -2.5t17.5 -6.5l80 -37l80 36q8 4 17.5 7t17.5 3q17 0 28.5 -13.5t11.5 -27.5z" />
    <glyph glyph-name="Uacute" unicode="&#xda;" horiz-adv-x="651" 
d="M586 265q0 -60 -13.5 -110t-44 -86.5t-80 -56.5t-122.5 -20t-123 20t-80.5 56.5t-44 86.5t-13.5 110v397q0 27 13 41.5t36 14.5q22 0 35 -14.5t13 -41.5v-423q0 -78 42 -120t120 -42t121 42t43 120v423q0 27 12.5 41.5t35.5 14.5q22 0 36 -14.5t14 -41.5v-397v0zM457 861
q0 -13 -5.5 -23.5t-26.5 -18.5l-129 -50q-8 -3 -15 -5t-16 -2q-16 0 -26 15t-10 31q0 9 4.5 18.5t23.5 17.5l134 52q10 4 17 6t13 2q16 0 26 -14.5t10 -28.5z" />
    <glyph glyph-name="Ucircumflex" unicode="&#xdb;" horiz-adv-x="651" 
d="M586 265q0 -60 -13.5 -110t-44 -86.5t-80 -56.5t-122.5 -20t-123 20t-80.5 56.5t-44 86.5t-13.5 110v397q0 27 13 41.5t36 14.5q22 0 35 -14.5t13 -41.5v-423q0 -78 42 -120t120 -42t121 42t43 120v423q0 27 12.5 41.5t35.5 14.5q22 0 36 -14.5t14 -41.5v-397v0zM481 799
q0 -17 -11.5 -29t-28.5 -12q-8 0 -17.5 2.5t-17.5 6.5l-80 37l-80 -36q-8 -4 -17.5 -7t-17.5 -3q-17 0 -28.5 12t-11.5 29q0 14 6.5 25.5t28.5 19.5l120 47l120 -47q22 -8 28.5 -19.5t6.5 -25.5z" />
    <glyph glyph-name="Udieresis" unicode="&#xdc;" horiz-adv-x="651" 
d="M586 265q0 -60 -13.5 -110t-44 -86.5t-80 -56.5t-122.5 -20t-123 20t-80.5 56.5t-44 86.5t-13.5 110v397q0 27 13 41.5t36 14.5q22 0 35 -14.5t13 -41.5v-423q0 -78 42 -120t120 -42t121 42t43 120v423q0 27 12.5 41.5t35.5 14.5q22 0 36 -14.5t14 -41.5v-397v0zM479 813
q0 -24 -17 -40.5t-40 -16.5t-40 16.5t-17 39.5q0 24 16.5 40.5t40.5 16.5q23 0 40 -16.5t17 -39.5zM287 813q0 -24 -16.5 -40.5t-40.5 -16.5q-23 0 -40 16.5t-17 39.5q0 24 17 40.5t40 16.5t40 -16.5t17 -39.5z" />
    <glyph glyph-name="Ugrave" unicode="&#xd9;" horiz-adv-x="651" 
d="M586 265q0 -60 -13.5 -110t-44 -86.5t-80 -56.5t-122.5 -20t-123 20t-80.5 56.5t-44 86.5t-13.5 110v397q0 27 13 41.5t36 14.5q22 0 35 -14.5t13 -41.5v-423q0 -78 42 -120t120 -42t121 42t43 120v423q0 27 12.5 41.5t35.5 14.5q22 0 36 -14.5t14 -41.5v-397v0zM422 809
q0 -17 -10 -32t-26 -15q-8 0 -12.5 1t-17.5 6l-130 50q-21 8 -26.5 18.5t-5.5 22.5q0 14 10 29t26 15q12 0 30 -7l134 -53q19 -8 23.5 -17.5t4.5 -17.5z" />
    <glyph glyph-name="Yacute" unicode="&#xdd;" horiz-adv-x="545" 
d="M525 676q0 -9 -4 -20t-15 -29l-185 -291v-287q0 -25 -11.5 -40t-36.5 -15t-37 15t-12 39v288l-184 291q-11 18 -15.5 29t-4.5 19q0 17 12 30t32 13q30 0 44 -24l164 -264l165 264q16 24 44 24q20 0 32 -12.5t12 -29.5zM419 861q0 -13 -5.5 -23.5t-26.5 -18.5l-129 -50
q-8 -3 -15 -5t-16 -2q-16 0 -26 15t-10 31q0 9 4.5 18.5t23.5 17.5l134 52q10 4 17 6t13 2q16 0 26 -14.5t10 -28.5z" />
    <glyph glyph-name="Ydieresis" unicode="&#x178;" horiz-adv-x="545" 
d="M525 676q0 -9 -4 -20t-15 -29l-185 -291v-287q0 -25 -11.5 -40t-36.5 -15t-37 15t-12 39v288l-184 291q-11 18 -15.5 29t-4.5 19q0 17 12 30t32 13q30 0 44 -24l164 -264l165 264q16 24 44 24q20 0 32 -12.5t12 -29.5zM426 813q0 -24 -17 -40.5t-40 -16.5t-40 16.5
t-17 39.5q0 24 16.5 40.5t40.5 16.5q23 0 40 -16.5t17 -39.5zM234 813q0 -24 -16.5 -40.5t-40.5 -16.5q-23 0 -40 16.5t-17 39.5q0 24 17 40.5t40 16.5t40 -16.5t17 -39.5z" />
    <glyph glyph-name="Zcaron" unicode="&#x17d;" horiz-adv-x="549" 
d="M514 44q0 -18 -14.5 -31t-34.5 -13h-362q-34 0 -51 14t-17 36q0 12 7 26.5t19 34.5l312 514h-277q-22 0 -35.5 11.5t-13.5 30.5t14 32t34 13h353q27 0 39 -13t12 -28q0 -11 -5 -22.5t-12 -22.5l-329 -539h312q22 0 35.5 -11.5t13.5 -31.5zM439 849q0 -14 -6.5 -25.5
t-28.5 -19.5l-120 -47l-120 47q-22 8 -28.5 19.5t-6.5 25.5t11.5 27.5t28.5 13.5q8 0 17.5 -2.5t17.5 -6.5l80 -37l80 36q8 4 17.5 7t17.5 3q17 0 28.5 -13.5t11.5 -27.5z" />
    <glyph glyph-name="aacute" unicode="&#xe1;" horiz-adv-x="523" 
d="M458 52q0 -27 -13 -42t-35 -15q-21 0 -34.5 13.5t-13.5 38.5v12q-26 -30 -64 -49t-85 -19q-44 0 -75.5 13t-52 34.5t-30.5 51t-10 62.5q0 46 18.5 78t53 51.5t83 29t108.5 11.5l55 2v27q0 41 -24 68t-88 27q-41 0 -69 -5t-48 -5q-19 0 -33 10t-14 31q0 12 5.5 20t12.5 13
q17 12 57.5 18.5t92.5 6.5t90.5 -13.5t63.5 -36.5t37 -55.5t12 -69.5v-308zM363 256l-40 -2q-44 -2 -78.5 -7.5t-57.5 -16.5t-35 -30t-12 -49q0 -32 21 -55t68 -23q30 0 54.5 10t42.5 26.5t27.5 38.5t9.5 46v62zM404 700q0 -13 -5.5 -23.5t-26.5 -18.5l-129 -50
q-8 -3 -15 -5t-16 -2q-16 0 -26 15t-10 31q0 9 4.5 18.5t23.5 17.5l134 52q10 4 17 6t13 2q16 0 26 -14.5t10 -28.5z" />
    <glyph glyph-name="acircumflex" unicode="&#xe2;" horiz-adv-x="523" 
d="M458 52q0 -27 -13 -42t-35 -15q-21 0 -34.5 13.5t-13.5 38.5v12q-26 -30 -64 -49t-85 -19q-44 0 -75.5 13t-52 34.5t-30.5 51t-10 62.5q0 46 18.5 78t53 51.5t83 29t108.5 11.5l55 2v27q0 41 -24 68t-88 27q-41 0 -69 -5t-48 -5q-19 0 -33 10t-14 31q0 12 5.5 20t12.5 13
q17 12 57.5 18.5t92.5 6.5t90.5 -13.5t63.5 -36.5t37 -55.5t12 -69.5v-308zM363 256l-40 -2q-44 -2 -78.5 -7.5t-57.5 -16.5t-35 -30t-12 -49q0 -32 21 -55t68 -23q30 0 54.5 10t42.5 26.5t27.5 38.5t9.5 46v62zM424 638q0 -17 -11.5 -29t-28.5 -12q-8 0 -17.5 2.5
t-17.5 6.5l-80 37l-80 -36q-8 -4 -17.5 -7t-17.5 -3q-17 0 -28.5 12t-11.5 29q0 14 6.5 25.5t28.5 19.5l120 47l120 -47q22 -8 28.5 -19.5t6.5 -25.5z" />
    <glyph glyph-name="adieresis" unicode="&#xe4;" horiz-adv-x="523" 
d="M458 52q0 -27 -13 -42t-35 -15q-21 0 -34.5 13.5t-13.5 38.5v12q-26 -30 -64 -49t-85 -19q-44 0 -75.5 13t-52 34.5t-30.5 51t-10 62.5q0 46 18.5 78t53 51.5t83 29t108.5 11.5l55 2v27q0 41 -24 68t-88 27q-41 0 -69 -5t-48 -5q-19 0 -33 10t-14 31q0 12 5.5 20t12.5 13
q17 12 57.5 18.5t92.5 6.5t90.5 -13.5t63.5 -36.5t37 -55.5t12 -69.5v-308zM363 256l-40 -2q-44 -2 -78.5 -7.5t-57.5 -16.5t-35 -30t-12 -49q0 -32 21 -55t68 -23q30 0 54.5 10t42.5 26.5t27.5 38.5t9.5 46v62zM417 652q0 -24 -17 -40.5t-40 -16.5t-40 16.5t-17 39.5
q0 24 16.5 40.5t40.5 16.5q23 0 40 -16.5t17 -39.5zM225 652q0 -24 -16.5 -40.5t-40.5 -16.5q-23 0 -40 16.5t-17 39.5q0 24 17 40.5t40 16.5t40 -16.5t17 -39.5z" />
    <glyph glyph-name="agrave" unicode="&#xe0;" horiz-adv-x="523" 
d="M458 52q0 -27 -13 -42t-35 -15q-21 0 -34.5 13.5t-13.5 38.5v12q-26 -30 -64 -49t-85 -19q-44 0 -75.5 13t-52 34.5t-30.5 51t-10 62.5q0 46 18.5 78t53 51.5t83 29t108.5 11.5l55 2v27q0 41 -24 68t-88 27q-41 0 -69 -5t-48 -5q-19 0 -33 10t-14 31q0 12 5.5 20t12.5 13
q17 12 57.5 18.5t92.5 6.5t90.5 -13.5t63.5 -36.5t37 -55.5t12 -69.5v-308zM363 256l-40 -2q-44 -2 -78.5 -7.5t-57.5 -16.5t-35 -30t-12 -49q0 -32 21 -55t68 -23q30 0 54.5 10t42.5 26.5t27.5 38.5t9.5 46v62zM364 648q0 -17 -10 -32t-26 -15q-8 0 -12.5 1t-17.5 6
l-130 50q-21 8 -26.5 18.5t-5.5 22.5q0 14 10 29t26 15q12 0 30 -7l134 -53q19 -8 23.5 -17.5t4.5 -17.5z" />
    <glyph glyph-name="aring" unicode="&#xe5;" horiz-adv-x="523" 
d="M458 52q0 -27 -13 -42t-35 -15q-21 0 -34.5 13.5t-13.5 38.5v12q-26 -30 -64 -49t-85 -19q-44 0 -75.5 13t-52 34.5t-30.5 51t-10 62.5q0 46 18.5 78t53 51.5t83 29t108.5 11.5l55 2v27q0 41 -24 68t-88 27q-41 0 -69 -5t-48 -5q-19 0 -33 10t-14 31q0 12 5.5 20t12.5 13
q17 12 57.5 18.5t92.5 6.5t90.5 -13.5t63.5 -36.5t37 -55.5t12 -69.5v-308zM363 256l-40 -2q-44 -2 -78.5 -7.5t-57.5 -16.5t-35 -30t-12 -49q0 -32 21 -55t68 -23q30 0 54.5 10t42.5 26.5t27.5 38.5t9.5 46v62zM357 679q0 -20 -7.5 -37t-20 -30.5t-30 -21t-37.5 -7.5
t-37 7.5t-30 20.5t-20.5 30t-7.5 37q0 40 27.5 68t67.5 28q19 0 36.5 -7.5t30.5 -20.5t20.5 -30.5t7.5 -36.5zM311 679q0 20 -14.5 34.5t-34.5 14.5t-34.5 -14.5t-14.5 -34.5t14.5 -35t34.5 -15t34.5 15t14.5 35z" />
    <glyph glyph-name="atilde" unicode="&#xe3;" horiz-adv-x="523" 
d="M458 52q0 -27 -13 -42t-35 -15q-21 0 -34.5 13.5t-13.5 38.5v12q-26 -30 -64 -49t-85 -19q-44 0 -75.5 13t-52 34.5t-30.5 51t-10 62.5q0 46 18.5 78t53 51.5t83 29t108.5 11.5l55 2v27q0 41 -24 68t-88 27q-41 0 -69 -5t-48 -5q-19 0 -33 10t-14 31q0 12 5.5 20t12.5 13
q17 12 57.5 18.5t92.5 6.5t90.5 -13.5t63.5 -36.5t37 -55.5t12 -69.5v-308zM363 256l-40 -2q-44 -2 -78.5 -7.5t-57.5 -16.5t-35 -30t-12 -49q0 -32 21 -55t68 -23q30 0 54.5 10t42.5 26.5t27.5 38.5t9.5 46v62zM417 681q0 -15 -8 -29q-11 -19 -31.5 -30.5t-46.5 -11.5
q-18 0 -36 5t-35 11q-13 5 -25 8t-24 3q-10 0 -16.5 -3.5t-12.5 -8.5q-7 -5 -13.5 -9t-17.5 -4q-16 0 -26.5 10.5t-10.5 25.5t8 29q11 19 31.5 30.5t46.5 11.5q18 0 36 -5t35 -11q13 -5 25 -8t24 -3q10 0 16.5 3.5t12.5 8.5q7 5 13.5 9t17.5 4q16 0 26.5 -10.5t10.5 -25.5z
" />
    <glyph glyph-name="ccedilla" unicode="&#xe7;" horiz-adv-x="453" 
d="M343 -104q0 -23 -10.5 -40t-27.5 -28q-29 -19 -66 -19q-22 0 -41.5 4.5t-30.5 15.5q-9 9 -9 21q0 10 6 17.5t20 7.5q6 0 11.5 -2t11.5 -4t14.5 -4t20.5 -2q29 0 29 26q0 9 -4.5 14.5t-11 8.5t-13 4t-10.5 1h-16q-8 0 -15 5t-7 16q0 7 2.5 12.5t5.5 10.5l25 39
q-48 11 -82.5 36t-56.5 60t-32.5 78t-10.5 91q0 55 14 105t44.5 88t79.5 60t120 22q18 0 38 -2t37 -8t28.5 -17t11.5 -29q0 -17 -10.5 -28t-27.5 -11q-15 0 -37 5q-11 2 -21.5 3t-18.5 1q-83 0 -120.5 -50t-37.5 -134q0 -42 8 -77.5t26 -61t48.5 -39.5t75.5 -14q20 0 45 5
q8 2 16 3t15 1q17 0 28 -11t11 -28q0 -18 -12 -29t-30 -17t-38 -8t-35 -2h-14.5t-13.5 1l-23 -36l2 -1q5 1 11 2t11 1q27 0 44 -14q23 -17 23 -49z" />
    <glyph glyph-name="eacute" unicode="&#xe9;" horiz-adv-x="529" 
d="M484 289q0 -20 -11 -35t-43 -15h-285q1 -39 15.5 -69.5t37.5 -51.5t53.5 -31.5t63.5 -10.5q20 0 35.5 1.5t31.5 4.5q25 5 39 5q17 0 27 -12t10 -27q0 -19 -16 -32q-19 -15 -53.5 -19.5t-75.5 -4.5q-63 0 -112.5 19.5t-84 55t-53 86t-18.5 112.5q0 129 55.5 202t168.5 73
q57 0 97.5 -17.5t67 -50t38.5 -79t12 -104.5zM386 311q0 72 -26 110.5t-92 38.5q-33 0 -56 -10.5t-37.5 -30t-21.5 -47t-7 -61.5h240zM403 700q0 -13 -5.5 -23.5t-26.5 -18.5l-129 -50q-8 -3 -15 -5t-16 -2q-16 0 -26 15t-10 31q0 9 4.5 18.5t23.5 17.5l134 52q10 4 17 6
t13 2q16 0 26 -14.5t10 -28.5z" />
    <glyph glyph-name="ecircumflex" unicode="&#xea;" horiz-adv-x="529" 
d="M484 289q0 -20 -11 -35t-43 -15h-285q1 -39 15.5 -69.5t37.5 -51.5t53.5 -31.5t63.5 -10.5q20 0 35.5 1.5t31.5 4.5q25 5 39 5q17 0 27 -12t10 -27q0 -19 -16 -32q-19 -15 -53.5 -19.5t-75.5 -4.5q-63 0 -112.5 19.5t-84 55t-53 86t-18.5 112.5q0 129 55.5 202t168.5 73
q57 0 97.5 -17.5t67 -50t38.5 -79t12 -104.5zM386 311q0 72 -26 110.5t-92 38.5q-33 0 -56 -10.5t-37.5 -30t-21.5 -47t-7 -61.5h240zM429 638q0 -17 -11.5 -29t-28.5 -12q-8 0 -17.5 2.5t-17.5 6.5l-80 37l-80 -36q-8 -4 -17.5 -7t-17.5 -3q-17 0 -28.5 12t-11.5 29
q0 14 6.5 25.5t28.5 19.5l120 47l120 -47q22 -8 28.5 -19.5t6.5 -25.5z" />
    <glyph glyph-name="edieresis" unicode="&#xeb;" horiz-adv-x="529" 
d="M484 289q0 -20 -11 -35t-43 -15h-285q1 -39 15.5 -69.5t37.5 -51.5t53.5 -31.5t63.5 -10.5q20 0 35.5 1.5t31.5 4.5q25 5 39 5q17 0 27 -12t10 -27q0 -19 -16 -32q-19 -15 -53.5 -19.5t-75.5 -4.5q-63 0 -112.5 19.5t-84 55t-53 86t-18.5 112.5q0 129 55.5 202t168.5 73
q57 0 97.5 -17.5t67 -50t38.5 -79t12 -104.5zM386 311q0 72 -26 110.5t-92 38.5q-33 0 -56 -10.5t-37.5 -30t-21.5 -47t-7 -61.5h240zM425 652q0 -24 -17 -40.5t-40 -16.5t-40 16.5t-17 39.5q0 24 16.5 40.5t40.5 16.5q23 0 40 -16.5t17 -39.5zM233 652q0 -24 -16.5 -40.5
t-40.5 -16.5q-23 0 -40 16.5t-17 39.5q0 24 17 40.5t40 16.5t40 -16.5t17 -39.5z" />
    <glyph glyph-name="egrave" unicode="&#xe8;" horiz-adv-x="529" 
d="M484 289q0 -20 -11 -35t-43 -15h-285q1 -39 15.5 -69.5t37.5 -51.5t53.5 -31.5t63.5 -10.5q20 0 35.5 1.5t31.5 4.5q25 5 39 5q17 0 27 -12t10 -27q0 -19 -16 -32q-19 -15 -53.5 -19.5t-75.5 -4.5q-63 0 -112.5 19.5t-84 55t-53 86t-18.5 112.5q0 129 55.5 202t168.5 73
q57 0 97.5 -17.5t67 -50t38.5 -79t12 -104.5zM386 311q0 72 -26 110.5t-92 38.5q-33 0 -56 -10.5t-37.5 -30t-21.5 -47t-7 -61.5h240zM373 648q0 -17 -10 -32t-26 -15q-8 0 -12.5 1t-17.5 6l-130 50q-21 8 -26.5 18.5t-5.5 22.5q0 14 10 29t26 15q12 0 30 -7l134 -53
q19 -8 23.5 -17.5t4.5 -17.5z" />
    <glyph glyph-name="iacute" unicode="&#xed;" horiz-adv-x="254" 
d="M175 51q0 -27 -13 -42t-35 -15t-35 15t-13 42v430q0 27 13 42t35 15t35 -15t13 -42v-430v0zM266 700q0 -13 -5.5 -23.5t-26.5 -18.5l-129 -50q-8 -3 -15 -5t-16 -2q-16 0 -26 15t-10 31q0 9 4.5 18.5t23.5 17.5l134 52q10 4 17 6t13 2q16 0 26 -14.5t10 -28.5z" />
    <glyph glyph-name="icircumflex" unicode="&#xee;" horiz-adv-x="254" 
d="M175 51q0 -27 -13 -42t-35 -15t-35 15t-13 42v430q0 27 13 42t35 15t35 -15t13 -42v-430v0zM282 638q0 -17 -11.5 -29t-28.5 -12q-8 0 -17.5 2.5t-17.5 6.5l-80 37l-80 -36q-8 -4 -17.5 -7t-17.5 -3q-17 0 -28.5 12t-11.5 29q0 14 6.5 25.5t28.5 19.5l120 47l120 -47
q22 -8 28.5 -19.5t6.5 -25.5z" />
    <glyph glyph-name="idieresis" unicode="&#xef;" horiz-adv-x="254" 
d="M175 51q0 -27 -13 -42t-35 -15t-35 15t-13 42v430q0 27 13 42t35 15t35 -15t13 -42v-430v0zM280 652q0 -24 -17 -40.5t-40 -16.5t-40 16.5t-17 39.5q0 24 16.5 40.5t40.5 16.5q23 0 40 -16.5t17 -39.5zM88 652q0 -24 -16.5 -40.5t-40.5 -16.5q-23 0 -40 16.5t-17 39.5
q0 24 17 40.5t40 16.5t40 -16.5t17 -39.5z" />
    <glyph glyph-name="igrave" unicode="&#xec;" horiz-adv-x="254" 
d="M175 51q0 -27 -13 -42t-35 -15t-35 15t-13 42v430q0 27 13 42t35 15t35 -15t13 -42v-430v0zM212 648q0 -17 -10 -32t-26 -15q-8 0 -12.5 1t-17.5 6l-130 50q-21 8 -26.5 18.5t-5.5 22.5q0 14 10 29t26 15q12 0 30 -7l134 -53q19 -8 23.5 -17.5t4.5 -17.5z" />
    <glyph glyph-name="ntilde" unicode="&#xf1;" horiz-adv-x="567" 
d="M497 51q0 -27 -13 -42t-35 -15t-35 15t-13 42v305q0 49 -25.5 71.5t-73.5 22.5q-26 0 -56.5 -11.5t-52.5 -28.5q-12 -10 -19.5 -21t-7.5 -22v-316q0 -27 -13 -42t-35 -15q-23 0 -35.5 15t-12.5 42v430q0 27 12.5 42t34.5 15t34.5 -15t12.5 -42v-5q33 31 76 47.5t92 16.5
q77 0 121 -44.5t44 -128.5v-316v0zM437 681q0 -15 -8 -29q-11 -19 -31.5 -30.5t-46.5 -11.5q-18 0 -36 5t-35 11q-13 5 -25 8t-24 3q-10 0 -16.5 -3.5t-12.5 -8.5q-7 -5 -13.5 -9t-17.5 -4q-16 0 -26.5 10.5t-10.5 25.5t8 29q11 19 31.5 30.5t46.5 11.5q18 0 36 -5t35 -11
q13 -5 25 -8t24 -3q10 0 16.5 3.5t12.5 8.5q7 5 13.5 9t17.5 4q16 0 26.5 -10.5t10.5 -25.5z" />
    <glyph glyph-name="oacute" unicode="&#xf3;" horiz-adv-x="554" 
d="M509 267q0 -274 -232 -274t-232 274q0 127 58 200t174 73q114 0 173 -73t59 -200zM410 267q0 98 -33.5 145t-99.5 47t-99.5 -47t-33.5 -145q0 -96 32 -144.5t101 -48.5t101 48.5t32 144.5zM418 700q0 -13 -5.5 -23.5t-26.5 -18.5l-129 -50q-8 -3 -15 -5t-16 -2
q-16 0 -26 15t-10 31q0 9 4.5 18.5t23.5 17.5l134 52q10 4 17 6t13 2q16 0 26 -14.5t10 -28.5z" />
    <glyph glyph-name="ocircumflex" unicode="&#xf4;" horiz-adv-x="554" 
d="M509 267q0 -274 -232 -274t-232 274q0 127 58 200t174 73q114 0 173 -73t59 -200zM410 267q0 98 -33.5 145t-99.5 47t-99.5 -47t-33.5 -145q0 -96 32 -144.5t101 -48.5t101 48.5t32 144.5zM432 638q0 -17 -11.5 -29t-28.5 -12q-8 0 -17.5 2.5t-17.5 6.5l-80 37l-80 -36
q-8 -4 -17.5 -7t-17.5 -3q-17 0 -28.5 12t-11.5 29q0 14 6.5 25.5t28.5 19.5l120 47l120 -47q22 -8 28.5 -19.5t6.5 -25.5z" />
    <glyph glyph-name="odieresis" unicode="&#xf6;" horiz-adv-x="554" 
d="M509 267q0 -274 -232 -274t-232 274q0 127 58 200t174 73q114 0 173 -73t59 -200zM410 267q0 98 -33.5 145t-99.5 47t-99.5 -47t-33.5 -145q0 -96 32 -144.5t101 -48.5t101 48.5t32 144.5zM430 652q0 -24 -17 -40.5t-40 -16.5t-40 16.5t-17 39.5q0 24 16.5 40.5
t40.5 16.5q23 0 40 -16.5t17 -39.5zM238 652q0 -24 -16.5 -40.5t-40.5 -16.5q-23 0 -40 16.5t-17 39.5q0 24 17 40.5t40 16.5t40 -16.5t17 -39.5z" />
    <glyph glyph-name="ograve" unicode="&#xf2;" horiz-adv-x="554" 
d="M509 267q0 -274 -232 -274t-232 274q0 127 58 200t174 73q114 0 173 -73t59 -200zM410 267q0 98 -33.5 145t-99.5 47t-99.5 -47t-33.5 -145q0 -96 32 -144.5t101 -48.5t101 48.5t32 144.5zM378 648q0 -17 -10 -32t-26 -15q-8 0 -12.5 1t-17.5 6l-130 50q-21 8 -26.5 18.5
t-5.5 22.5q0 14 10 29t26 15q12 0 30 -7l134 -53q19 -8 23.5 -17.5t4.5 -17.5z" />
    <glyph glyph-name="otilde" unicode="&#xf5;" horiz-adv-x="554" 
d="M509 267q0 -274 -232 -274t-232 274q0 127 58 200t174 73q114 0 173 -73t59 -200zM410 267q0 98 -33.5 145t-99.5 47t-99.5 -47t-33.5 -145q0 -96 32 -144.5t101 -48.5t101 48.5t32 144.5zM429 681q0 -15 -8 -29q-11 -19 -31.5 -30.5t-46.5 -11.5q-18 0 -36 5t-35 11
q-13 5 -25 8t-24 3q-10 0 -16.5 -3.5t-12.5 -8.5q-7 -5 -13.5 -9t-17.5 -4q-16 0 -26.5 10.5t-10.5 25.5t8 29q11 19 31.5 30.5t46.5 11.5q18 0 36 -5t35 -11q13 -5 25 -8t24 -3q10 0 16.5 3.5t12.5 8.5q7 5 13.5 9t17.5 4q16 0 26.5 -10.5t10.5 -25.5z" />
    <glyph glyph-name="scaron" unicode="&#x161;" horiz-adv-x="445" 
d="M400 143q0 -32 -13 -59.5t-37 -48t-58.5 -32t-78.5 -11.5q-42 0 -80 6t-61 19q-27 14 -27 35q0 22 12 31.5t30 9.5q13 0 34 -6q17 -5 38.5 -7.5t53.5 -2.5q50 0 70.5 16t20.5 43q0 32 -29.5 52t-70.5 40q-27 13 -55.5 28t-51 34.5t-37 46t-14.5 62.5q0 30 11.5 55.5
t33.5 45t55 30.5t77 11q16 0 34.5 -1.5t36.5 -5t34 -9t27 -13.5q19 -14 19 -35q0 -20 -11.5 -29.5t-25.5 -9.5q-7 0 -17 2t-22 5q-15 4 -34.5 7t-45.5 3q-23 0 -37.5 -5t-22.5 -13t-11.5 -18t-3.5 -20q0 -14 8 -25.5t21.5 -21.5t31 -19.5t37.5 -18.5q27 -13 55.5 -28
t51.5 -35t37.5 -46t14.5 -62zM370 688q0 -14 -6.5 -25.5t-28.5 -19.5l-120 -47l-120 47q-22 8 -28.5 19.5t-6.5 25.5t11.5 27.5t28.5 13.5q8 0 17.5 -2.5t17.5 -6.5l80 -37l80 36q8 4 17.5 7t17.5 3q17 0 28.5 -13.5t11.5 -27.5z" />
    <glyph glyph-name="uacute" unicode="&#xfa;" horiz-adv-x="557" 
d="M492 203q0 -48 -11.5 -87t-37 -66.5t-66 -42.5t-98.5 -15t-99 15t-66.5 42.5t-37 66.5t-11.5 87v278q0 27 13 42t35 15t35 -15t13 -42v-301q0 -54 31.5 -79.5t85.5 -25.5t86 25.5t32 79.5v301q0 27 13 42t35 15q23 0 35.5 -15t12.5 -42v-278v0zM408 700q0 -13 -5.5 -23.5
t-26.5 -18.5l-129 -50q-8 -3 -15 -5t-16 -2q-16 0 -26 15t-10 31q0 9 4.5 18.5t23.5 17.5l134 52q10 4 17 6t13 2q16 0 26 -14.5t10 -28.5z" />
    <glyph glyph-name="ucircumflex" unicode="&#xfb;" horiz-adv-x="557" 
d="M492 203q0 -48 -11.5 -87t-37 -66.5t-66 -42.5t-98.5 -15t-99 15t-66.5 42.5t-37 66.5t-11.5 87v278q0 27 13 42t35 15t35 -15t13 -42v-301q0 -54 31.5 -79.5t85.5 -25.5t86 25.5t32 79.5v301q0 27 13 42t35 15q23 0 35.5 -15t12.5 -42v-278v0zM434 638q0 -17 -11.5 -29
t-28.5 -12q-8 0 -17.5 2.5t-17.5 6.5l-80 37l-80 -36q-8 -4 -17.5 -7t-17.5 -3q-17 0 -28.5 12t-11.5 29q0 14 6.5 25.5t28.5 19.5l120 47l120 -47q22 -8 28.5 -19.5t6.5 -25.5z" />
    <glyph glyph-name="udieresis" unicode="&#xfc;" horiz-adv-x="557" 
d="M492 203q0 -48 -11.5 -87t-37 -66.5t-66 -42.5t-98.5 -15t-99 15t-66.5 42.5t-37 66.5t-11.5 87v278q0 27 13 42t35 15t35 -15t13 -42v-301q0 -54 31.5 -79.5t85.5 -25.5t86 25.5t32 79.5v301q0 27 13 42t35 15q23 0 35.5 -15t12.5 -42v-278v0zM432 652q0 -24 -17 -40.5
t-40 -16.5t-40 16.5t-17 39.5q0 24 16.5 40.5t40.5 16.5q23 0 40 -16.5t17 -39.5zM240 652q0 -24 -16.5 -40.5t-40.5 -16.5q-23 0 -40 16.5t-17 39.5q0 24 17 40.5t40 16.5t40 -16.5t17 -39.5z" />
    <glyph glyph-name="ugrave" unicode="&#xf9;" horiz-adv-x="557" 
d="M492 203q0 -48 -11.5 -87t-37 -66.5t-66 -42.5t-98.5 -15t-99 15t-66.5 42.5t-37 66.5t-11.5 87v278q0 27 13 42t35 15t35 -15t13 -42v-301q0 -54 31.5 -79.5t85.5 -25.5t86 25.5t32 79.5v301q0 27 13 42t35 15q23 0 35.5 -15t12.5 -42v-278v0zM377 648q0 -17 -10 -32
t-26 -15q-8 0 -12.5 1t-17.5 6l-130 50q-21 8 -26.5 18.5t-5.5 22.5q0 14 10 29t26 15q12 0 30 -7l134 -53q19 -8 23.5 -17.5t4.5 -17.5z" />
    <glyph glyph-name="yacute" unicode="&#xfd;" horiz-adv-x="490" 
d="M460 496q0 -10 -6 -26l-232 -650q-14 -39 -49 -39q-17 0 -30.5 12.5t-13.5 29.5q0 11 5 26l61 172l-159 448q-2 7 -4 13.5t-2 12.5q0 18 13.5 30.5t30.5 12.5q38 0 50 -39l119 -354h2l121 354q14 39 49 39q17 0 31 -12.5t14 -29.5zM390 700q0 -13 -5.5 -23.5t-26.5 -18.5
l-129 -50q-8 -3 -15 -5t-16 -2q-16 0 -26 15t-10 31q0 9 4.5 18.5t23.5 17.5l134 52q10 4 17 6t13 2q16 0 26 -14.5t10 -28.5z" />
    <glyph glyph-name="ydieresis" unicode="&#xff;" horiz-adv-x="490" 
d="M460 496q0 -10 -6 -26l-232 -650q-14 -39 -49 -39q-17 0 -30.5 12.5t-13.5 29.5q0 11 5 26l61 172l-159 448q-2 7 -4 13.5t-2 12.5q0 18 13.5 30.5t30.5 12.5q38 0 50 -39l119 -354h2l121 354q14 39 49 39q17 0 31 -12.5t14 -29.5zM385 652q0 -24 -17 -40.5t-40 -16.5
t-40 16.5t-17 39.5q0 24 16.5 40.5t40.5 16.5q23 0 40 -16.5t17 -39.5zM193 652q0 -24 -16.5 -40.5t-40.5 -16.5q-23 0 -40 16.5t-17 39.5q0 24 17 40.5t40 16.5t40 -16.5t17 -39.5z" />
    <glyph glyph-name="zcaron" unicode="&#x17e;" horiz-adv-x="474" 
d="M444 43q0 -19 -13.5 -31t-34.5 -12h-327q-21 0 -30 11t-9 31q0 15 4.5 24.5t11.5 19.5l265 358v2h-223q-20 0 -33.5 12t-13.5 31t13 31t34 12h303q20 0 31.5 -11t11.5 -31q0 -14 -4.5 -25t-10.5 -19l-265 -358v-2h242q20 0 34 -12t14 -31zM393 688q0 -14 -6.5 -25.5
t-28.5 -19.5l-120 -47l-120 47q-22 8 -28.5 19.5t-6.5 25.5t11.5 27.5t28.5 13.5q8 0 17.5 -2.5t17.5 -6.5l80 -37l80 36q8 4 17.5 7t17.5 3q17 0 28.5 -13.5t11.5 -27.5z" />
    <glyph glyph-name="oneeighth" unicode="&#x215b;" horiz-adv-x="777" 
d="M742 120q0 -55 -34.5 -90.5t-107.5 -35.5q-38 0 -64.5 9.5t-43.5 26t-24.5 40t-7.5 50.5q0 47 18.5 71t47.5 36q-23 11 -37.5 31.5t-14.5 55.5q0 51 33 81.5t93 30.5q61 0 94 -30.5t33 -81.5q0 -32 -15 -53.5t-36 -33.5q28 -11 47 -35.5t19 -71.5zM535 695q0 -10 -9 -31
l-285 -653q-12 -28 -36 -28q-15 0 -26 9.5t-11 24.5q0 12 9 33l283 651q12 28 38 28q37 0 37 -34zM191 323q0 -17 -9 -27.5t-28 -10.5t-28 10.5t-9 27.5v321h-47q-35 0 -35 35t35 35h89q32 0 32 -30v-361zM655 311q0 29 -15.5 40t-39.5 11q-23 0 -38.5 -11t-15.5 -40
q0 -24 15.5 -39.5t38.5 -15.5q24 0 39.5 15.5t15.5 39.5zM667 127q0 33 -18.5 50t-48.5 17q-29 0 -47.5 -17.5t-18.5 -49.5t16 -49t50 -17q67 0 67 66z" />
    <glyph glyph-name="threeeighths" unicode="&#x215c;" horiz-adv-x="822" 
d="M787 120q0 -55 -34.5 -90.5t-107.5 -35.5q-38 0 -64.5 9.5t-43.5 26t-24.5 40t-7.5 50.5q0 47 18.5 71t47.5 36q-23 11 -37.5 31.5t-14.5 55.5q0 51 33 81.5t93 30.5q61 0 94 -30.5t33 -81.5q0 -32 -15 -53.5t-36 -33.5q28 -11 47 -35.5t19 -71.5zM580 695q0 -10 -9 -31
l-285 -653q-12 -28 -36 -28q-15 0 -26 9.5t-11 24.5q0 12 9 33l283 651q12 28 38 28q37 0 37 -34zM284 415q0 -27 -9.5 -51t-27.5 -42t-44.5 -28t-60.5 -10q-30 0 -56.5 4.5t-40.5 16.5q-4 4 -7 8.5t-3 15.5q0 16 9 24t24 8q3 0 9 -0.5t11 -2.5q12 -3 25 -5t29 -2
q34 0 51.5 18t17.5 47q0 32 -19.5 47t-55.5 15h-13q-16 0 -25.5 9t-9.5 24t9.5 25.5t25.5 10.5h13q32 0 47.5 16t15.5 43q0 21 -13 34t-40 13q-14 0 -28 -4t-29 -10q-9 -3 -16 -3q-14 0 -22.5 8.5t-8.5 22.5q0 21 24 34q17 8 38.5 13.5t43.5 5.5q34 0 57.5 -9t38.5 -24.5
t21.5 -35.5t6.5 -42q0 -26 -16.5 -52t-41.5 -38q40 -14 55 -42.5t15 -61.5zM702 310q0 29 -15.5 41t-41.5 12q-24 0 -40 -12t-16 -41q0 -26 15.5 -40t40.5 -14q26 0 41.5 14t15.5 40zM713 126q0 36 -18 51.5t-50 15.5t-49.5 -17.5t-17.5 -49.5q0 -67 67 -67q68 0 68 67z" />
    <glyph glyph-name="fiveeighths" unicode="&#x215d;" horiz-adv-x="826" 
d="M791 120q0 -55 -34.5 -90.5t-107.5 -35.5q-38 0 -64.5 9.5t-43.5 26t-24.5 40t-7.5 50.5q0 47 18.5 71t47.5 36q-23 11 -37.5 31.5t-14.5 55.5q0 51 33 81.5t93 30.5q61 0 94 -30.5t33 -81.5q0 -32 -15 -53.5t-36 -33.5q28 -11 47 -35.5t19 -71.5zM584 695q0 -10 -9 -31
l-285 -653q-12 -28 -36 -28q-15 0 -26 9.5t-11 24.5q0 12 9 33l283 651q12 28 38 28q37 0 37 -34zM291 425q0 -61 -38 -101t-113 -40q-61 0 -86 15q-19 11 -19 30q0 16 9 24.5t22 8.5q6 0 11.5 -1t10.5 -3q11 -4 25.5 -5.5t26.5 -1.5q35 0 55.5 18.5t20.5 57.5q0 64 -76 64
h-52q-15 0 -24.5 8.5t-9.5 22.5v147q0 23 10 33t30 10h140q16 0 25.5 -9.5t9.5 -23.5q0 -15 -9 -24.5t-26 -9.5h-109v-86h26q69 0 104.5 -34t35.5 -100zM706 310q0 29 -15.5 41t-41.5 12q-24 0 -40 -12t-16 -41q0 -26 15.5 -40t40.5 -14q26 0 41.5 14t15.5 40zM717 126
q0 36 -18 51.5t-50 15.5t-49.5 -17.5t-17.5 -49.5q0 -67 67 -67q68 0 68 67z" />
    <glyph glyph-name="seveneighths" unicode="&#x215e;" horiz-adv-x="768" 
d="M733 120q0 -55 -34.5 -90.5t-107.5 -35.5q-38 0 -64.5 9.5t-43.5 26t-24.5 40t-7.5 50.5q0 47 18.5 71t47.5 36q-23 11 -37.5 31.5t-14.5 55.5q0 51 33 81.5t93 30.5q61 0 94 -30.5t33 -81.5q0 -32 -15 -53.5t-36 -33.5q28 -11 47 -35.5t19 -71.5zM526 695q0 -10 -9 -31
l-285 -653q-12 -28 -36 -28q-15 0 -26 9.5t-11 24.5q0 12 9 33l283 651q12 28 38 28q37 0 37 -34zM309 684q0 -6 -2 -13.5t-7 -19.5l-149 -335q-8 -17 -16 -23t-22 -6q-19 0 -28 10t-9 21q0 10 3 16l142 313h-150q-36 0 -36 34q0 13 9.5 23.5t26.5 10.5h203q17 0 26 -10
t9 -21zM648 310q0 29 -15.5 41t-41.5 12q-24 0 -40 -12t-16 -41q0 -26 15.5 -40t40.5 -14q26 0 41.5 14t15.5 40zM659 126q0 36 -18 51.5t-50 15.5t-49.5 -17.5t-17.5 -49.5q0 -67 67 -67q68 0 68 67z" />
    <glyph glyph-name="one.superior" unicode="&#xb9;" horiz-adv-x="291" 
d="M191 320q0 -35 -37 -35q-17 0 -27 9t-10 26v324h-49q-16 0 -24.5 10t-8.5 25t9 25t24 10h91q15 0 23.5 -9t8.5 -21v-364v0z" />
    <glyph glyph-name="two.superior" unicode="&#xb2;" horiz-adv-x="336" 
d="M301 325q0 -35 -38 -35h-190q-38 0 -38 32q0 20 12 35l118 147q25 31 36.5 53t11.5 42q0 50 -55 50q-25 0 -49 -8q-22 -8 -37 -8q-12 0 -20.5 9t-8.5 24q0 12 6 19.5t14 12.5q23 14 53.5 18t50.5 4q54 0 89 -32t35 -87q0 -32 -17 -67t-54 -78l-84 -96v-1h125q40 0 40 -34
z" />
    <glyph glyph-name="three.superior" unicode="&#xb3;" horiz-adv-x="319" 
d="M284 415q0 -27 -9.5 -51t-27.5 -42t-44.5 -28t-60.5 -10q-30 0 -56.5 4.5t-40.5 16.5q-4 4 -7 8.5t-3 15.5q0 16 9 24t24 8q3 0 9 -0.5t11 -2.5q12 -3 25 -5t29 -2q34 0 51.5 18t17.5 47q0 32 -19.5 47t-55.5 15h-13q-16 0 -25.5 9t-9.5 24t9.5 25.5t25.5 10.5h13
q32 0 47.5 16t15.5 43q0 21 -13 34t-40 13q-14 0 -28 -4t-29 -10q-9 -3 -16 -3q-14 0 -22.5 8.5t-8.5 22.5q0 21 24 34q17 8 38.5 13.5t43.5 5.5q34 0 57.5 -9t38.5 -24.5t21.5 -35.5t6.5 -42q0 -26 -16.5 -52t-41.5 -38q40 -14 55 -42.5t15 -61.5z" />
    <glyph glyph-name="Delta" unicode="&#x2206;" horiz-adv-x="624" 
d="M26 0v47l231 653h139l228 -653v-47h-598zM340 550q-6 19 -9.5 34t-6.5 25h-4q-2 -9 -6 -25t-9 -33l-160 -464h354z" />
    <glyph glyph-name="Omega" unicode="&#x2126;" horiz-adv-x="722" 
d="M423 0v86q21 19 44.5 45t43 61.5t32.5 80.5t13 102q0 53 -13 98t-37.5 77.5t-61.5 51t-85 18.5q-46 0 -83.5 -18t-64.5 -50.5t-41.5 -78t-14.5 -100.5q0 -56 13 -100.5t32.5 -79.5t43.5 -61.5t46 -45.5v-86h-245v86h153q-24 19 -51.5 46t-50 64.5t-37.5 86t-15 110.5
q0 69 23 127.5t64.5 101t99.5 66.5t129 24q75 0 132.5 -24t96.5 -66t59 -100t20 -126q0 -56 -13.5 -103.5t-35 -86t-49.5 -68.5t-57 -52h154v-86h-244z" />
    <glyph glyph-name="uni03BC" unicode="&#x3bc;" horiz-adv-x="567" 
d="M497 44q0 -22 -14 -36t-34 -14q-18 0 -33 12t-15 33v1h-1q-22 -25 -53 -36.5t-64 -11.5q-32 0 -62 13.5t-53 40.5h-2v-206q0 -26 -13 -41.5t-35 -15.5q-23 0 -35.5 15.5t-12.5 41.5v641q0 27 12.5 42t34.5 15q23 0 35.5 -15t12.5 -42v-310q0 -46 32.5 -72.5t85.5 -26.5
t85.5 26t32.5 73v310q0 27 13 42t35 15t35 -15t13 -42v-437v0z" />
    <glyph glyph-name="pi" unicode="&#x3c0;" horiz-adv-x="673" 
d="M639 10q-11 -8 -32 -13t-44 -5q-36 0 -60 12t-39 31.5t-21 45.5t-6 53v292h-183v-289q0 -45 -3.5 -78t-10.5 -59h-101q8 31 12 67t4 75v284q-20 -1 -47 -7.5t-46 -16.5l-28 65q24 14 65 23.5t85 9.5h451v-74h-99v-279q0 -37 12.5 -59t42.5 -22q8 0 15.5 2.5t14.5 6.5
l18 -65v0z" />
    <glyph glyph-name="Euro" unicode="&#x20ac;" 
d="M550 54q0 -29 -28 -43q-21 -11 -53.5 -15t-70.5 -4q-116 0 -191 59.5t-97 194.5h-50q-18 0 -29.5 9.5t-11.5 25.5q0 15 11.5 25t28.5 10h44q-1 11 -1 22v23v22h-42q-18 0 -29.5 9.5t-11.5 25.5q0 15 11.5 25t28.5 10h49q20 133 97.5 200t193.5 67q38 0 71 -6t54 -17
q24 -13 24 -38q0 -20 -11.5 -31.5t-29.5 -11.5q-9 0 -18 1.5t-25 5.5t-30.5 5.5t-34.5 1.5q-80 0 -125.5 -45.5t-60.5 -131.5h208q16 0 26 -9.5t10 -25.5q0 -15 -10 -25t-25 -10h-216v-23v-22.5t1 -21.5h183q16 0 26 -9.5t10 -25.5q0 -15 -10 -24.5t-26 -9.5h-174
q18 -88 66.5 -126.5t125.5 -38.5q16 0 30.5 2t28.5 4q23 4 40 4t30 -9t13 -29z" />
    <glyph glyph-name="afii61289" unicode="&#x2113;" horiz-adv-x="502" 
d="M416 49q-11 -10 -25 -21.5t-31.5 -21t-38 -15.5t-43.5 -6q-32 0 -54 9.5t-39 26.5q-20 20 -29.5 54t-9.5 71v90l-57 -59l-34 48l91 95v217q0 95 37 143t100 48q30 0 51 -11t33.5 -27.5t18 -37t5.5 -38.5q0 -73 -32.5 -135t-83.5 -125l-33 -40v-160q0 -51 17 -72t44 -21
q25 0 45.5 14.5t35.5 30.5q8 -14 16 -28.5t16 -28.5zM327 601q0 20 -8.5 36t-27.5 16q-23 0 -36 -24t-13 -79v-147q5 5 9.5 12t8.5 13q30 42 48.5 88t18.5 85z" />
    <glyph glyph-name="estimated" unicode="&#x212e;" horiz-adv-x="668" 
d="M164 292v-201q65 -65 160 -65q77 0 127.5 35.5t88.5 96.5q9 -5 18 -10.5t18 -11.5q-23 -34 -48 -61t-55 -46.5t-66.5 -30t-82.5 -10.5q-66 0 -118.5 24t-89.5 65t-57 96.5t-20 118.5t19.5 118.5t56.5 97t90 65t120 23.5q68 0 121 -23.5t90 -65t56.5 -97t21.5 -118.5h-450
zM486 493q-32 31 -73.5 48.5t-88.5 17.5q-96 0 -160 -65v-164h322v163z" />
    <glyph glyph-name="partialdiff" unicode="&#x2202;" horiz-adv-x="588" 
d="M548 474q0 -46 -6 -94t-19 -96q-15 -57 -40.5 -110t-61 -94.5t-81 -66t-101.5 -24.5q-43 0 -78.5 14.5t-61 40t-39.5 61.5t-14 80q0 75 23 132.5t60.5 97t84.5 60t94 20.5q51 0 84.5 -20.5t47.5 -46.5h2q2 14 3 29t1 33q0 78 -35.5 119t-98.5 41q-25 0 -51 -7.5
t-47 -19.5l-23 70q21 14 57.5 25t78.5 11q101 0 161 -65.5t60 -189.5zM429 343q-11 33 -36.5 55.5t-68.5 22.5q-34 0 -65.5 -18.5t-55.5 -51t-38.5 -76.5t-14.5 -95t24.5 -80.5t66.5 -29.5q34 0 64 21t54 57.5t42 86.5t28 108z" />
    <glyph glyph-name="product" unicode="&#x220f;" horiz-adv-x="734" 
d="M547 -230v839h-360v-839h-106v930h572v-930h-106z" />
    <glyph glyph-name="summation" unicode="&#x2211;" horiz-adv-x="644" 
d="M22 -230v53l314 416l-293 402v59h531v-86h-398q69 -94 136 -186t135 -186l-288 -386h437v-86h-574z" />
    <glyph glyph-name="radical" unicode="&#x221a;" horiz-adv-x="530" 
d="M342 -12h-83l-134 324l-55 -35l-33 55l134 85l128 -314l161 626h73z" />
    <glyph glyph-name="infinity" unicode="&#x221e;" horiz-adv-x="801" 
d="M752 294q0 -37 -12.5 -68.5t-35 -55t-53.5 -37t-69 -13.5q-59 0 -106.5 30.5t-77.5 78.5h-2q-32 -47 -78.5 -78t-103.5 -31q-36 0 -68 12t-55 34t-36.5 54t-13.5 71t13.5 71t36.5 54.5t54 34.5t67 12q31 0 58.5 -9t50.5 -24t41.5 -34.5t33.5 -41.5h2q12 18 29.5 37.5
t40.5 35t50.5 26t60.5 10.5q37 0 69 -12.5t55 -35t36 -53.5t13 -68zM669 293q0 39 -23 67.5t-73 28.5q-44 0 -76 -26.5t-60 -70.5q26 -46 61 -72.5t76 -26.5q24 0 42 8.5t30 22t17.5 31.5t5.5 38zM356 292q-26 42 -62 69.5t-75 27.5q-48 0 -71.5 -29t-23.5 -70
q0 -42 26.5 -69.5t68.5 -27.5q43 0 77.5 29.5t59.5 69.5z" />
    <glyph glyph-name="integral" unicode="&#x222b;" horiz-adv-x="500" 
d="M417 659q-7 4 -19 6.5t-25 2.5q-78 0 -78 -93v-622q0 -85 -41.5 -134.5t-125.5 -49.5q-20 0 -43.5 4t-36.5 9l20 76q9 -3 20.5 -5.5t25.5 -2.5q76 0 76 93v622q0 84 42 134t127 50q23 0 46 -4.5t34 -9.5q-5 -20 -10.5 -38.5t-11.5 -37.5z" />
    <glyph glyph-name="approxequal" unicode="&#x2248;" 
d="M512 421q-25 -39 -55.5 -62.5t-75.5 -23.5q-54 0 -104 31q-20 13 -41 22t-44 9q-27 0 -47 -20.5t-34 -43.5l-54 62q23 35 53.5 60t78.5 25q29 0 54 -8t48 -22q25 -15 45 -23.5t42 -8.5q26 0 46 19.5t34 44.5zM512 197q-25 -38 -55.5 -62t-75.5 -24q-55 0 -104 32
q-20 13 -41 22t-44 9q-27 0 -47 -21t-34 -44l-54 63q23 35 53.5 60t78.5 25q29 0 54 -8.5t48 -22.5q25 -15 45 -23.5t42 -8.5q26 0 46 19.5t34 45.5z" />
    <glyph glyph-name="notequal" unicode="&#x2260;" 
d="M261 143l-52 -116h-89l52 116h-91v83h127l62 141h-189v83h226l55 127h90l-56 -127h92v-83h-128l-63 -141h191v-83h-227z" />
    <glyph glyph-name="lessequal" unicode="&#x2264;" 
d="M81 0v83h407v-83h-407zM81 322v70l407 184v-88l-299 -130v-2l299 -131v-87z" />
    <glyph glyph-name="greaterequal" unicode="&#x2265;" 
d="M81 0v83h407v-83h-407zM81 139v88l299 130v2l-299 130v88l407 -184v-70z" />
    <glyph glyph-name="lozenge" unicode="&#x25ca;" horiz-adv-x="573" 
d="M301 0h-51l-206 349q51 88 103 175.5t103 175.5h51l208 -350zM276 606l-151 -256q38 -65 75.5 -128.5t75.5 -127.5l151 256z" />
    <glyph glyph-name="uni00A0" unicode="&#xa0;" horiz-adv-x="249" 
 />
    <glyph glyph-name="uni00AD" unicode="&#xad;" horiz-adv-x="369" 
d="M329 274q0 -17 -12 -30t-33 -13h-200q-20 0 -32 12.5t-12 29.5q0 18 11.5 31t32.5 13h200q21 0 33 -12.5t12 -30.5z" />
    <glyph glyph-name="uni203E" unicode="&#x203e;" horiz-adv-x="210" 
d="M251 645q0 -21 -14 -32.5t-38 -11.5h-188q-24 0 -38 11t-14 33q0 21 14 32.5t38 11.5h188q24 0 38 -11t14 -33z" />
    <glyph glyph-name="apple" unicode="&#xe000;" horiz-adv-x="557" 
d="M492 271q0 -9 -3.5 -18t-15.5 -23l-105 -131q-12 -15 -24 -23.5t-27 -6.5q-22 2 -31.5 15.5t-7.5 24.5t6 19.5t14 20.5l70 85h-253q-20 0 -32.5 10.5t-12.5 27.5q0 15 12 26t32 11h253l-69 83q-11 12 -15 20.5t-5 20.5q-1 11 8 25t31 15q15 1 26.5 -7t23.5 -23l106 -133
q11 -14 15 -22.5t4 -16.5z" />
    <glyph glyph-name="periodcentered" unicode="&#xe001;" horiz-adv-x="249" 
d="M182 308q0 -31 -15.5 -47.5t-41.5 -16.5q-25 0 -40.5 16.5t-15.5 46.5t15 48t41 18t41.5 -18t15.5 -47z" />
    <glyph glyph-name="uni03A9" unicode="&#x3a9;" horiz-adv-x="722" 
d="M423 0v86q21 19 44.5 45t43 61.5t32.5 80.5t13 102q0 53 -13 98t-37.5 77.5t-61.5 51t-85 18.5q-46 0 -83.5 -18t-64.5 -50.5t-41.5 -78t-14.5 -100.5q0 -56 13 -100.5t32.5 -79.5t43.5 -61.5t46 -45.5v-86h-245v86h153q-24 19 -51.5 46t-50 64.5t-37.5 86t-15 110.5
q0 69 23 127.5t64.5 101t99.5 66.5t129 24q75 0 132.5 -24t96.5 -66t59 -100t20 -126q0 -56 -13.5 -103.5t-35 -86t-49.5 -68.5t-57 -52h154v-86h-244z" />
    <glyph glyph-name="notequal.001" unicode="&#xe002;" 
d="M261 143l-52 -116h-89l52 116h-91v83h127l62 141h-189v83h226l55 127h90l-56 -127h92v-83h-128l-63 -141h191v-83h-227z" />
    <glyph glyph-name="uni0312" unicode="&#x312;" horiz-adv-x="833" 
d="M361 -50q16 0 26 -7.5t17 -20.5q10 -21 9 -42t-6 -48q-3 -18 -13.5 -40.5t-25 -43t-32 -34.5t-35.5 -14t-29.5 11.5t-11.5 25.5q0 16 8.5 26.5t22.5 21.5q8 6 16.5 16t16.5 29q6 15 6.5 25t-1 18t-3.5 16t-2 18q0 14 9.5 28.5t27.5 14.5z" />
    <glyph glyph-name="Dcroat" unicode="&#x110;" horiz-adv-x="621" 
d="M600 361q0 -99 -23.5 -167.5t-65 -111.5t-97 -62.5t-119.5 -19.5h-145q-24 0 -40 11.5t-16 38.5v269h-28q-21 0 -33.5 12t-12.5 29q0 16 12 28t34 12h28v261q0 24 13.5 37.5t41.5 13.5h146q68 0 124.5 -20t96.5 -62.5t62 -109t22 -159.5zM498 360q0 69 -11.5 119t-37 82
t-65.5 47t-96 15h-97v-223h122q22 0 34.5 -11.5t12.5 -28.5t-12 -29t-35 -12h-122v-230h97q57 0 97 16t65 49.5t36.5 84.5t11.5 121z" />
    <glyph glyph-name="Amacron" unicode="&#x100;" horiz-adv-x="638" 
d="M613 34q0 -17 -12 -28.5t-32 -11.5q-23 0 -34 11t-17 28l-54 154h-292l-53 -153q-6 -17 -16.5 -28.5t-33.5 -11.5q-20 0 -32 11.5t-12 28.5q0 12 7 31l208 593q4 11 9.5 22t14.5 20t22 14.5t32 5.5q39 0 56 -19.5t25 -42.5l206 -591q8 -21 8 -33zM320 625h-2l-119 -355
h239zM464 806q0 -21 -14 -32.5t-38 -11.5h-188q-24 0 -38 11t-14 33q0 21 14 32.5t38 11.5h188q24 0 38 -11t14 -33z" />
    <glyph glyph-name="amacron" unicode="&#x101;" horiz-adv-x="523" 
d="M458 52q0 -27 -13 -42t-35 -15q-21 0 -34.5 13.5t-13.5 38.5v12q-26 -30 -64 -49t-85 -19q-44 0 -75.5 13t-52 34.5t-30.5 51t-10 62.5q0 46 18.5 78t53 51.5t83 29t108.5 11.5l55 2v27q0 41 -24 68t-88 27q-41 0 -69 -5t-48 -5q-19 0 -33 10t-14 31q0 12 5.5 20t12.5 13
q17 12 57.5 18.5t92.5 6.5t90.5 -13.5t63.5 -36.5t37 -55.5t12 -69.5v-308zM363 256l-40 -2q-44 -2 -78.5 -7.5t-57.5 -16.5t-35 -30t-12 -49q0 -32 21 -55t68 -23q30 0 54.5 10t42.5 26.5t27.5 38.5t9.5 46v62zM415 645q0 -21 -14 -32.5t-38 -11.5h-188q-24 0 -38 11
t-14 33q0 21 14 32.5t38 11.5h188q24 0 38 -11t14 -33z" />
    <glyph glyph-name="Abreve" unicode="&#x102;" horiz-adv-x="638" 
d="M613 34q0 -17 -12 -28.5t-32 -11.5q-23 0 -34 11t-17 28l-54 154h-292l-53 -153q-6 -17 -16.5 -28.5t-33.5 -11.5q-20 0 -32 11.5t-12 28.5q0 12 7 31l208 593q4 11 9.5 22t14.5 20t22 14.5t32 5.5q39 0 56 -19.5t25 -42.5l206 -591q8 -21 8 -33zM320 625h-2l-119 -355
h239zM460 857q0 -27 -17 -47q-18 -23 -51 -35.5t-73 -12.5t-73 12.5t-51 35.5q-17 20 -17 47q0 19 8 30.5t25 11.5q14 0 24 -9t19 -21t22.5 -21.5t42.5 -9.5t42.5 9.5t22.5 21.5t19 21t24 9q17 0 25 -11.5t8 -30.5z" />
    <glyph glyph-name="abreve" unicode="&#x103;" horiz-adv-x="523" 
d="M458 52q0 -27 -13 -42t-35 -15q-21 0 -34.5 13.5t-13.5 38.5v12q-26 -30 -64 -49t-85 -19q-44 0 -75.5 13t-52 34.5t-30.5 51t-10 62.5q0 46 18.5 78t53 51.5t83 29t108.5 11.5l55 2v27q0 41 -24 68t-88 27q-41 0 -69 -5t-48 -5q-19 0 -33 10t-14 31q0 12 5.5 20t12.5 13
q17 12 57.5 18.5t92.5 6.5t90.5 -13.5t63.5 -36.5t37 -55.5t12 -69.5v-308zM363 256l-40 -2q-44 -2 -78.5 -7.5t-57.5 -16.5t-35 -30t-12 -49q0 -32 21 -55t68 -23q30 0 54.5 10t42.5 26.5t27.5 38.5t9.5 46v62zM411 696q0 -27 -17 -47q-18 -23 -51 -35.5t-73 -12.5
t-73 12.5t-51 35.5q-17 20 -17 47q0 19 8 30.5t25 11.5q14 0 24 -9t19 -21t22.5 -21.5t42.5 -9.5t42.5 9.5t22.5 21.5t19 21t24 9q17 0 25 -11.5t8 -30.5z" />
    <glyph glyph-name="Aogonek" unicode="&#x104;" horiz-adv-x="638" 
d="M615 -147q0 -13 -12 -23q-24 -21 -79 -21q-38 0 -62.5 16.5t-24.5 55.5q0 20 7.5 37t20.5 32q29 32 74 52q-7 4 -12 12t-9 19l-54 154h-292l-53 -153q-6 -17 -16.5 -28.5t-33.5 -11.5q-20 0 -32 11.5t-12 28.5q0 12 7 31l208 593q4 11 9.5 22t14.5 20t22 14.5t32 5.5
q39 0 56 -19.5t25 -42.5l206 -591q8 -21 8 -33q0 -13 -6 -21.5t-15 -14.5q-15 -10 -29 -22t-25 -25t-18 -26.5t-7 -25.5q0 -32 30 -32q8 0 14.5 2t12.5 4q5 2 9.5 3t10.5 1q13 0 19 -7.5t6 -16.5zM320 625h-2l-119 -355h239z" />
    <glyph glyph-name="aogonek" unicode="&#x105;" horiz-adv-x="523" 
d="M454 -147q0 -13 -12 -23q-24 -21 -79 -21q-38 0 -62.5 16.5t-24.5 55.5q0 20 7.5 37t20.5 32q14 16 32.5 28.5t44.5 25.5q-7 5 -13 15.5t-6 27.5v12q-26 -30 -64 -49t-85 -19q-44 0 -75.5 13t-52 34.5t-30.5 51t-10 62.5q0 46 18.5 78t53 51.5t83 29t108.5 11.5l55 2v27
q0 41 -24 68t-88 27q-41 0 -69 -5t-48 -5q-19 0 -33 10t-14 31q0 12 5.5 20t12.5 13q17 12 57.5 18.5t92.5 6.5t90.5 -13.5t63.5 -36.5t37 -55.5t12 -69.5v-308q0 -20 -7.5 -33.5t-19.5 -20.5q-11 -6 -25 -18t-26 -25.5t-20 -28.5t-8 -27q0 -32 30 -32q8 0 14.5 2t12.5 4
q5 2 9.5 3t10.5 1q13 0 19 -7.5t6 -16.5zM363 256l-40 -2q-44 -2 -78.5 -7.5t-57.5 -16.5t-35 -30t-12 -49q0 -32 21 -55t68 -23q30 0 54.5 10t42.5 26.5t27.5 38.5t9.5 46v62z" />
    <glyph glyph-name="Cacute" unicode="&#x106;" horiz-adv-x="523" 
d="M503 54q0 -16 -8.5 -27t-22.5 -18q-21 -11 -52.5 -14t-68.5 -3q-73 0 -130 20.5t-96 65t-59.5 114.5t-20.5 169q0 89 21 156.5t61 112.5t97 67.5t128 22.5q38 0 70.5 -5t52.5 -17q26 -15 26 -39q0 -20 -11.5 -31.5t-29.5 -11.5q-9 0 -18 1.5t-25 5.5t-30.5 5.5t-34.5 1.5
q-107 0 -155 -70t-48 -200q0 -149 53.5 -213.5t158.5 -64.5q16 0 30.5 2t28.5 4q23 4 40 4t30 -9t13 -29zM442 860q0 -13 -5.5 -23.5t-26.5 -18.5l-129 -50q-8 -3 -15 -5t-16 -2q-16 0 -26 15t-10 31q0 9 4.5 18.5t23.5 17.5l134 52q10 4 17 6t13 2q16 0 26 -14.5t10 -28.5z
" />
    <glyph glyph-name="cacute" unicode="&#x107;" horiz-adv-x="453" 
d="M418 48q0 -18 -12 -29t-30 -17t-38 -8t-35 -2q-69 0 -118 21.5t-80 59t-45.5 87t-14.5 105.5q0 55 14 105t44.5 88t79.5 60t120 22q18 0 38 -2t37 -8t28.5 -17t11.5 -29q0 -17 -10.5 -28t-27.5 -11q-15 0 -37 5q-11 2 -21.5 3t-18.5 1q-83 0 -120.5 -50t-37.5 -134
q0 -42 8 -77.5t26 -61t48.5 -39.5t75.5 -14q20 0 45 5q8 2 16 3t15 1q17 0 28 -11t11 -28zM385 700q0 -13 -5.5 -23.5t-26.5 -18.5l-129 -50q-8 -3 -15 -5t-16 -2q-16 0 -26 15t-10 31q0 9 4.5 18.5t23.5 17.5l134 52q10 4 17 6t13 2q16 0 26 -14.5t10 -28.5z" />
    <glyph glyph-name="Ccaron" unicode="&#x10c;" horiz-adv-x="523" 
d="M503 54q0 -16 -8.5 -27t-22.5 -18q-21 -11 -52.5 -14t-68.5 -3q-73 0 -130 20.5t-96 65t-59.5 114.5t-20.5 169q0 89 21 156.5t61 112.5t97 67.5t128 22.5q38 0 70.5 -5t52.5 -17q26 -15 26 -39q0 -20 -11.5 -31.5t-29.5 -11.5q-9 0 -18 1.5t-25 5.5t-30.5 5.5t-34.5 1.5
q-107 0 -155 -70t-48 -200q0 -149 53.5 -213.5t158.5 -64.5q16 0 30.5 2t28.5 4q23 4 40 4t30 -9t13 -29zM482 853q0 -14 -6.5 -25.5t-28.5 -19.5l-120 -47l-120 47q-22 8 -28.5 19.5t-6.5 25.5t11.5 27.5t28.5 13.5q8 0 17.5 -2.5t17.5 -6.5l80 -37l80 36q8 4 17.5 7
t17.5 3q17 0 28.5 -13.5t11.5 -27.5z" />
    <glyph glyph-name="ccaron" unicode="&#x10d;" horiz-adv-x="453" 
d="M418 48q0 -18 -12 -29t-30 -17t-38 -8t-35 -2q-69 0 -118 21.5t-80 59t-45.5 87t-14.5 105.5q0 55 14 105t44.5 88t79.5 60t120 22q18 0 38 -2t37 -8t28.5 -17t11.5 -29q0 -17 -10.5 -28t-27.5 -11q-15 0 -37 5q-11 2 -21.5 3t-18.5 1q-83 0 -120.5 -50t-37.5 -134
q0 -42 8 -77.5t26 -61t48.5 -39.5t75.5 -14q20 0 45 5q8 2 16 3t15 1q17 0 28 -11t11 -28zM425 692q0 -14 -6.5 -25.5t-28.5 -19.5l-120 -47l-120 47q-22 8 -28.5 19.5t-6.5 25.5t11.5 27.5t28.5 13.5q8 0 17.5 -2.5t17.5 -6.5l80 -37l80 36q8 4 17.5 7t17.5 3
q17 0 28.5 -13.5t11.5 -27.5z" />
    <glyph glyph-name="Dcaron" unicode="&#x10e;" horiz-adv-x="621" 
d="M576 361q0 -99 -23.5 -167.5t-65 -111.5t-97 -62.5t-119.5 -19.5h-145q-24 0 -40 11.5t-16 38.5v611q0 24 13.5 37.5t41.5 13.5h146q68 0 124.5 -20t96.5 -62.5t62 -109t22 -159.5zM474 360q0 69 -11.5 119t-37 82t-65.5 47t-96 15h-97v-534h97q57 0 97 16t65 49.5
t36.5 84.5t11.5 121zM425 853q0 -14 -6.5 -25.5t-28.5 -19.5l-120 -47l-120 47q-22 8 -28.5 19.5t-6.5 25.5t11.5 27.5t28.5 13.5q8 0 17.5 -2.5t17.5 -6.5l80 -37l80 36q8 4 17.5 7t17.5 3q17 0 28.5 -13.5t11.5 -27.5z" />
    <glyph glyph-name="dcaron" unicode="&#x10f;" horiz-adv-x="819" 
d="M516 51q0 -27 -12.5 -42t-35.5 -15q-22 0 -35 15t-13 41v16h-2q-25 -32 -64 -53t-91 -21q-55 0 -96 22.5t-68 60.5t-40.5 88t-13.5 105t13 104.5t39.5 86.5t67.5 59t98 22q43 0 84 -17t71 -52h2v243q0 26 13 41.5t35 15.5q23 0 35.5 -15.5t12.5 -41.5v-663zM421 301
q0 39 -14 68.5t-35.5 49t-47.5 29.5t-50 10q-38 0 -63 -17.5t-40 -45t-21 -61.5t-6 -67t6 -66.5t21 -61t40 -44.5t63 -17q24 0 50 10t47.5 30t35.5 50t14 71v62zM698 734q23 0 35 -20.5t6 -45.5l-34 -145q-5 -18 -19 -27t-27 -9q-25 0 -37.5 21t-5.5 47l36 144
q5 18 18.5 26.5t27.5 8.5z" />
    <glyph glyph-name="dcroat" unicode="&#x111;" horiz-adv-x="586" 
d="M516 51q0 -27 -12.5 -42t-35.5 -15q-22 0 -35 15t-13 41v16h-2q-25 -32 -64 -53t-91 -21q-55 0 -96 22.5t-68 60.5t-40.5 88t-13.5 105t13 104.5t39.5 86.5t67.5 59t98 22q43 0 84 -17t71 -52h2v130h-126q-20 0 -32 11.5t-12 28.5q0 18 11.5 29.5t32.5 11.5h126v32
q0 26 13 41.5t35 15.5q23 0 35.5 -15.5t12.5 -41.5v-32h29q21 0 33 -11t12 -29q0 -17 -12 -29t-33 -12h-29v-550zM421 301q0 39 -14 68.5t-35.5 49t-47.5 29.5t-50 10q-38 0 -63 -17.5t-40 -45t-21 -61.5t-6 -67t6 -66.5t21 -61t40 -44.5t63 -17q24 0 50 10t47.5 30t35.5 50
t14 71v62z" />
    <glyph glyph-name="Emacron" unicode="&#x112;" horiz-adv-x="464" 
d="M424 45q0 -17 -13 -31t-36 -14h-250q-55 0 -55 50v608q0 25 13 39.5t42 14.5h240q23 0 36 -13.5t13 -31.5q0 -17 -13 -30.5t-36 -13.5h-197v-222h187q24 0 37 -13.5t13 -31.5q0 -17 -13 -30.5t-37 -13.5h-188v-223h208q23 0 36 -13t13 -31zM395 806q0 -21 -14 -32.5
t-38 -11.5h-188q-24 0 -38 11t-14 33q0 21 14 32.5t38 11.5h188q24 0 38 -11t14 -33z" />
    <glyph glyph-name="emacron" unicode="&#x113;" horiz-adv-x="529" 
d="M484 289q0 -20 -11 -35t-43 -15h-285q1 -39 15.5 -69.5t37.5 -51.5t53.5 -31.5t63.5 -10.5q20 0 35.5 1.5t31.5 4.5q25 5 39 5q17 0 27 -12t10 -27q0 -19 -16 -32q-19 -15 -53.5 -19.5t-75.5 -4.5q-63 0 -112.5 19.5t-84 55t-53 86t-18.5 112.5q0 129 55.5 202t168.5 73
q57 0 97.5 -17.5t67 -50t38.5 -79t12 -104.5zM386 311q0 72 -26 110.5t-92 38.5q-33 0 -56 -10.5t-37.5 -30t-21.5 -47t-7 -61.5h240zM415 645q0 -21 -14 -32.5t-38 -11.5h-188q-24 0 -38 11t-14 33q0 21 14 32.5t38 11.5h188q24 0 38 -11t14 -33z" />
    <glyph glyph-name="edotaccent" unicode="&#x117;" horiz-adv-x="529" 
d="M484 289q0 -20 -11 -35t-43 -15h-285q1 -39 15.5 -69.5t37.5 -51.5t53.5 -31.5t63.5 -10.5q20 0 35.5 1.5t31.5 4.5q25 5 39 5q17 0 27 -12t10 -27q0 -19 -16 -32q-19 -15 -53.5 -19.5t-75.5 -4.5q-63 0 -112.5 19.5t-84 55t-53 86t-18.5 112.5q0 129 55.5 202t168.5 73
q57 0 97.5 -17.5t67 -50t38.5 -79t12 -104.5zM386 311q0 72 -26 110.5t-92 38.5q-33 0 -56 -10.5t-37.5 -30t-21.5 -47t-7 -61.5h240zM326 658q0 -24 -16.5 -40.5t-39.5 -16.5t-40 16.5t-17 39.5q0 24 17 40.5t40 16.5t39.5 -16.5t16.5 -39.5z" />
    <glyph glyph-name="Eogonek" unicode="&#x118;" horiz-adv-x="464" 
d="M404 -147q0 -13 -12 -23q-24 -21 -79 -21q-38 0 -62.5 16.5t-24.5 55.5q0 20 7.5 37t20.5 32q14 16 33 28.5t38 21.5h-200q-55 0 -55 50v608q0 25 13 39.5t42 14.5h240q23 0 36 -13.5t13 -31.5q0 -17 -13 -30.5t-36 -13.5h-197v-222h187q24 0 37 -13.5t13 -31.5
q0 -17 -13 -30.5t-37 -13.5h-188v-223h208q23 0 36 -13t13 -31q0 -16 -9 -27t-22 -16q-16 -7 -32.5 -19t-29.5 -26.5t-21 -30t-8 -27.5q0 -32 30 -32q8 0 14.5 2t12.5 4q5 2 9.5 3t10.5 1q13 0 19 -7.5t6 -16.5z" />
    <glyph glyph-name="eogonek" unicode="&#x119;" horiz-adv-x="529" 
d="M428 -147q0 -13 -12 -23q-24 -21 -79 -21q-38 0 -62.5 16.5t-24.5 55.5q0 20 7.5 37t20.5 32q11 13 25 23.5t29 18.5h-19q-63 0 -112.5 19.5t-84 55t-53 86t-18.5 112.5q0 129 55.5 202t168.5 73q57 0 97.5 -17.5t67 -50t38.5 -79t12 -104.5q0 -20 -11 -35t-43 -15h-285
q1 -39 15.5 -69.5t37.5 -51.5t53.5 -31.5t63.5 -10.5q20 0 35.5 1.5t31.5 4.5q25 5 39 5q17 0 27 -12t10 -27q0 -19 -12 -28.5t-28 -16.5t-32.5 -19.5t-29.5 -27t-21.5 -30t-8.5 -27.5q0 -32 30 -32q8 0 14.5 2t12.5 4q5 2 9.5 3t10.5 1q13 0 19 -7.5t6 -16.5zM386 311
q0 72 -26 110.5t-92 38.5q-33 0 -56 -10.5t-37.5 -30t-21.5 -47t-7 -61.5h240z" />
    <glyph glyph-name="Ecaron" unicode="&#x11a;" horiz-adv-x="464" 
d="M424 45q0 -17 -13 -31t-36 -14h-250q-55 0 -55 50v608q0 25 13 39.5t42 14.5h240q23 0 36 -13.5t13 -31.5q0 -17 -13 -30.5t-36 -13.5h-197v-222h187q24 0 37 -13.5t13 -31.5q0 -17 -13 -30.5t-37 -13.5h-188v-223h208q23 0 36 -13t13 -31zM404 853q0 -14 -6.5 -25.5
t-28.5 -19.5l-120 -47l-120 47q-22 8 -28.5 19.5t-6.5 25.5t11.5 27.5t28.5 13.5q8 0 17.5 -2.5t17.5 -6.5l80 -37l80 36q8 4 17.5 7t17.5 3q17 0 28.5 -13.5t11.5 -27.5z" />
    <glyph glyph-name="ecaron" unicode="&#x11b;" horiz-adv-x="529" 
d="M484 289q0 -20 -11 -35t-43 -15h-285q1 -39 15.5 -69.5t37.5 -51.5t53.5 -31.5t63.5 -10.5q20 0 35.5 1.5t31.5 4.5q25 5 39 5q17 0 27 -12t10 -27q0 -19 -16 -32q-19 -15 -53.5 -19.5t-75.5 -4.5q-63 0 -112.5 19.5t-84 55t-53 86t-18.5 112.5q0 129 55.5 202t168.5 73
q57 0 97.5 -17.5t67 -50t38.5 -79t12 -104.5zM386 311q0 72 -26 110.5t-92 38.5q-33 0 -56 -10.5t-37.5 -30t-21.5 -47t-7 -61.5h240zM424 692q0 -14 -6.5 -25.5t-28.5 -19.5l-120 -47l-120 47q-22 8 -28.5 19.5t-6.5 25.5t11.5 27.5t28.5 13.5q8 0 17.5 -2.5t17.5 -6.5
l80 -37l80 36q8 4 17.5 7t17.5 3q17 0 28.5 -13.5t11.5 -27.5z" />
    <glyph glyph-name="Gbreve" unicode="&#x11e;" horiz-adv-x="614" 
d="M559 90q0 -13 -3.5 -23t-14.5 -19q-10 -8 -26.5 -18t-40 -18.5t-53 -14t-65.5 -5.5q-154 0 -232.5 88.5t-78.5 275.5q0 176 80.5 270t235.5 94q16 0 35 -1.5t38 -5t36.5 -8.5t31.5 -12q26 -14 26 -40q0 -20 -11.5 -31.5t-29.5 -11.5q-9 0 -18 1t-25 6q-20 6 -43.5 9.5
t-42.5 3.5q-58 0 -98 -19t-64.5 -54.5t-35.5 -86.5t-11 -114q0 -66 10.5 -117.5t34.5 -87t63.5 -54t98.5 -18.5q38 0 64 8.5t34 14.5t8 14v175h-88q-23 0 -36 13t-13 31q0 17 13 31t36 14h130q55 0 55 -50v-240v0zM502 857q0 -27 -17 -47q-18 -23 -51 -35.5t-73 -12.5
t-73 12.5t-51 35.5q-17 20 -17 47q0 19 8 30.5t25 11.5q14 0 24 -9t19 -21t22.5 -21.5t42.5 -9.5t42.5 9.5t22.5 21.5t19 21t24 9q17 0 25 -11.5t8 -30.5z" />
    <glyph glyph-name="gbreve" unicode="&#x11f;" horiz-adv-x="537" 
d="M527 484q0 -17 -11.5 -26.5t-30.5 -9.5h-45q28 -43 28 -92q0 -92 -52 -134.5t-152 -42.5q-42 0 -65 3t-43 11q-7 -6 -9 -13.5t-2 -21.5q0 -8 2.5 -16t9.5 -14.5t20 -10.5t34 -4h83q56 0 94.5 -7t62 -22.5t33.5 -41.5t10 -65q0 -42 -16.5 -77.5t-49.5 -61.5t-82.5 -40.5
t-114.5 -14.5q-109 0 -157.5 44.5t-48.5 118.5q0 35 14.5 68.5t49.5 59.5q-13 11 -20.5 32.5t-7.5 41.5t7.5 42.5t28.5 37.5q-28 22 -43.5 54.5t-15.5 72.5q0 88 50.5 136.5t160.5 48.5q34 0 61.5 -5.5t52.5 -13.5h119q23 0 34 -10t11 -27zM375 357q0 60 -30.5 83.5
t-90.5 23.5t-91 -23.5t-31 -83.5q0 -59 31 -80.5t90 -21.5q65 0 93.5 22t28.5 80zM399 -25q0 16 -4.5 27.5t-18 19t-38 10.5t-64.5 3h-114q-24 -11 -33.5 -33.5t-9.5 -53.5q0 -44 24.5 -62.5t89.5 -18.5q79 0 123.5 26.5t44.5 81.5zM391 696q0 -27 -17 -47
q-18 -23 -51 -35.5t-73 -12.5t-73 12.5t-51 35.5q-17 20 -17 47q0 19 8 30.5t25 11.5q14 0 24 -9t19 -21t22.5 -21.5t42.5 -9.5t42.5 9.5t22.5 21.5t19 21t24 9q17 0 25 -11.5t8 -30.5z" />
    <glyph glyph-name="Gcommaaccent" unicode="&#x122;" horiz-adv-x="614" 
d="M559 90q0 -13 -3.5 -23t-14.5 -19q-10 -8 -26.5 -18t-40 -18.5t-53 -14t-65.5 -5.5q-154 0 -232.5 88.5t-78.5 275.5q0 176 80.5 270t235.5 94q16 0 35 -1.5t38 -5t36.5 -8.5t31.5 -12q26 -14 26 -40q0 -20 -11.5 -31.5t-29.5 -11.5q-9 0 -18 1t-25 6q-20 6 -43.5 9.5
t-42.5 3.5q-58 0 -98 -19t-64.5 -54.5t-35.5 -86.5t-11 -114q0 -66 10.5 -117.5t34.5 -87t63.5 -54t98.5 -18.5q38 0 64 8.5t34 14.5t8 14v175h-88q-23 0 -36 13t-13 31q0 17 13 31t36 14h130q55 0 55 -50v-240v0zM357 -50q16 0 26 -7.5t17 -20.5q10 -21 9 -42t-6 -48
q-3 -18 -13.5 -40.5t-25 -43t-32 -34.5t-35.5 -14t-29.5 11.5t-11.5 25.5q0 16 8.5 26.5t22.5 21.5q8 6 16.5 16t16.5 29q6 15 6.5 25t-1 18t-3.5 16t-2 18q0 14 9.5 28.5t27.5 14.5z" />
    <glyph glyph-name="gcommaaccent" unicode="&#x123;" horiz-adv-x="537" 
d="M291 852q16 0 26 -7.5t17 -20.5q10 -21 9 -42t-6 -48q-3 -18 -13.5 -40.5t-25 -43t-32 -34.5t-35.5 -14t-29.5 11.5t-11.5 25.5q0 16 8.5 26.5t22.5 21.5q8 6 16.5 16t16.5 29q6 15 6.5 25t-1 18t-3.5 16t-2 18q0 14 9.5 28.5t27.5 14.5zM527 484q0 -17 -11.5 -26.5
t-30.5 -9.5h-45q28 -43 28 -92q0 -92 -52 -134.5t-152 -42.5q-42 0 -65 3t-43 11q-7 -6 -9 -13.5t-2 -21.5q0 -8 2.5 -16t9.5 -14.5t20 -10.5t34 -4h83q56 0 94.5 -7t62 -22.5t33.5 -41.5t10 -65q0 -42 -16.5 -77.5t-49.5 -61.5t-82.5 -40.5t-114.5 -14.5
q-109 0 -157.5 44.5t-48.5 118.5q0 35 14.5 68.5t49.5 59.5q-13 11 -20.5 32.5t-7.5 41.5t7.5 42.5t28.5 37.5q-28 22 -43.5 54.5t-15.5 72.5q0 88 50.5 136.5t160.5 48.5q34 0 61.5 -5.5t52.5 -13.5h119q23 0 34 -10t11 -27zM375 357q0 60 -30.5 83.5t-90.5 23.5t-91 -23.5
t-31 -83.5q0 -59 31 -80.5t90 -21.5q65 0 93.5 22t28.5 80zM399 -25q0 16 -4.5 27.5t-18 19t-38 10.5t-64.5 3h-114q-24 -11 -33.5 -33.5t-9.5 -53.5q0 -44 24.5 -62.5t89.5 -18.5q79 0 123.5 26.5t44.5 81.5z" />
    <glyph glyph-name="Imacron" unicode="&#x12a;" horiz-adv-x="247" 
d="M172 50q0 -27 -13 -41.5t-35 -14.5q-23 0 -36 14.5t-13 41.5v612q0 27 13 41.5t36 14.5q22 0 35 -14.5t13 -41.5v-612v0zM268 806q0 -21 -14 -32.5t-38 -11.5h-188q-24 0 -38 11t-14 33q0 21 14 32.5t38 11.5h188q24 0 38 -11t14 -33z" />
    <glyph glyph-name="imacron" unicode="&#x12b;" horiz-adv-x="254" 
d="M175 51q0 -27 -13 -42t-35 -15t-35 15t-13 42v430q0 27 13 42t35 15t35 -15t13 -42v-430v0zM273 645q0 -21 -14 -32.5t-38 -11.5h-188q-24 0 -38 11t-14 33q0 21 14 32.5t38 11.5h188q24 0 38 -11t14 -33z" />
    <glyph glyph-name="Iogonek" unicode="&#x12e;" horiz-adv-x="247" 
d="M171 -147q0 -13 -12 -23q-24 -21 -79 -21q-38 0 -62.5 16.5t-24.5 55.5q0 20 7.5 37t20.5 32q8 9 18.5 17.5t21.5 15.5t20.5 12t14.5 7q-9 6 -15 17.5t-6 30.5v612q0 27 13 41.5t36 14.5q22 0 35 -14.5t13 -41.5v-612q0 -35 -23 -50q-15 -9 -29 -21.5t-25.5 -26
t-18.5 -27.5t-7 -26q0 -32 30 -32q8 0 14.5 2t12.5 4q5 2 9.5 3t10.5 1q13 0 19 -7.5t6 -16.5z" />
    <glyph glyph-name="iogonek" unicode="&#x12f;" horiz-adv-x="254" 
d="M181 681q0 -30 -14.5 -46t-39.5 -16q-24 0 -39 16t-15 45t14.5 45.5t39.5 16.5q24 0 39 -16.5t15 -44.5zM79 481q0 27 13 42t35 15t35 -15t13 -42v-430q0 -35 -23 -50q-15 -9 -29 -21.5t-25.5 -26t-18.5 -27.5t-7 -26q0 -32 30 -32q8 0 14.5 2t12.5 4q5 2 9.5 3t10.5 1
q13 0 19 -7.5t6 -16.5q0 -13 -12 -23q-24 -21 -79 -21q-38 0 -62.5 16.5t-24.5 55.5q0 20 7.5 37t20.5 32q8 9 18.5 17.5t21.5 15.5t20.5 12t14.5 7q-20 13 -20 48v430z" />
    <glyph glyph-name="Idotaccent" unicode="&#x130;" horiz-adv-x="247" 
d="M172 50q0 -27 -13 -41.5t-35 -14.5q-23 0 -36 14.5t-13 41.5v612q0 27 13 41.5t36 14.5q22 0 35 -14.5t13 -41.5v-612v0zM179 819q0 -24 -16.5 -40.5t-39.5 -16.5t-40 16.5t-17 39.5q0 24 17 40.5t40 16.5t39.5 -16.5t16.5 -39.5z" />
    <glyph glyph-name="Kcommaaccent" unicode="&#x136;" horiz-adv-x="552" 
d="M522 39q0 -26 -15.5 -35.5t-30.5 -9.5q-17 0 -26.5 7.5t-23.5 23.5l-259 308v-285q0 -24 -12.5 -39t-35.5 -15t-36 14t-13 40v615q0 25 13 40t36 15q22 0 35 -14.5t13 -40.5v-280l255 301q14 16 25.5 25t29.5 9q15 0 29.5 -10t14.5 -32q0 -10 -4 -21t-15 -23l-244 -271
l245 -281q11 -13 15 -23t4 -18zM287 -50q16 0 26 -7.5t17 -20.5q10 -21 9 -42t-6 -48q-3 -18 -13.5 -40.5t-25 -43t-32 -34.5t-35.5 -14t-29.5 11.5t-11.5 25.5q0 16 8.5 26.5t22.5 21.5q8 6 16.5 16t16.5 29q6 15 6.5 25t-1 18t-3.5 16t-2 18q0 14 9.5 28.5t27.5 14.5z" />
    <glyph glyph-name="kcommaaccent" unicode="&#x137;" horiz-adv-x="500" 
d="M470 39q0 -18 -12.5 -31.5t-33.5 -13.5q-16 0 -26.5 6.5t-20.5 16.5l-211 221v-186q0 -27 -13 -42.5t-35 -15.5t-35 15.5t-13 41.5v663q0 27 13 42t35 15t35 -15t13 -42v-403l208 205q11 11 21 17.5t24 6.5q22 0 34 -13.5t12 -30.5q0 -12 -5 -19t-10 -12l-198 -188
l199 -198q11 -11 15 -21t4 -19zM264 -50q16 0 26 -7.5t17 -20.5q10 -21 9 -42t-6 -48q-3 -18 -13.5 -40.5t-25 -43t-32 -34.5t-35.5 -14t-29.5 11.5t-11.5 25.5q0 16 8.5 26.5t22.5 21.5q8 6 16.5 16t16.5 29q6 15 6.5 25t-1 18t-3.5 16t-2 18q0 14 9.5 28.5t27.5 14.5z" />
    <glyph glyph-name="Lacute" unicode="&#x139;" horiz-adv-x="421" 
d="M401 44q0 -17 -13 -30.5t-35 -13.5h-233q-23 0 -36.5 14t-13.5 37v611q0 27 13 41.5t36 14.5q22 0 35 -14.5t13 -41.5v-573h185q24 0 36.5 -13.5t12.5 -31.5zM281 860q0 -13 -5.5 -23.5t-26.5 -18.5l-129 -50q-8 -3 -15 -5t-16 -2q-16 0 -26 15t-10 31q0 9 4.5 18.5
t23.5 17.5l134 52q10 4 17 6t13 2q16 0 26 -14.5t10 -28.5z" />
    <glyph glyph-name="lacute" unicode="&#x13a;" horiz-adv-x="242" 
d="M169 52q0 -27 -13 -42.5t-35 -15.5t-35 15.5t-13 41.5v663q0 27 13 42t35 15t35 -15t13 -42v-662v0zM283 912q0 -13 -5.5 -23.5t-26.5 -18.5l-129 -50q-8 -3 -15 -5t-16 -2q-16 0 -26 15t-10 31q0 9 4.5 18.5t23.5 17.5l134 52q10 4 17 6t13 2q16 0 26 -14.5t10 -28.5z
" />
    <glyph glyph-name="Lcommaaccent" unicode="&#x13b;" horiz-adv-x="421" 
d="M401 44q0 -17 -13 -30.5t-35 -13.5h-233q-23 0 -36.5 14t-13.5 37v611q0 27 13 41.5t36 14.5q22 0 35 -14.5t13 -41.5v-573h185q24 0 36.5 -13.5t12.5 -31.5zM236 -50q16 0 26 -7.5t17 -20.5q10 -21 9 -42t-6 -48q-3 -18 -13.5 -40.5t-25 -43t-32 -34.5t-35.5 -14
t-29.5 11.5t-11.5 25.5q0 16 8.5 26.5t22.5 21.5q8 6 16.5 16t16.5 29q6 15 6.5 25t-1 18t-3.5 16t-2 18q0 14 9.5 28.5t27.5 14.5z" />
    <glyph glyph-name="lcommaaccent" unicode="&#x13c;" horiz-adv-x="242" 
d="M169 52q0 -27 -13 -42.5t-35 -15.5t-35 15.5t-13 41.5v663q0 27 13 42t35 15t35 -15t13 -42v-662v0zM169 52q0 -27 -13 -42.5t-35 -15.5t-35 15.5t-13 41.5v663q0 27 13 42t35 15t35 -15t13 -42v-662v0zM122 -50q16 0 26 -7.5t17 -20.5q10 -21 9 -42t-6 -48
q-3 -18 -13.5 -40.5t-25 -43t-32 -34.5t-35.5 -14t-29.5 11.5t-11.5 25.5q0 16 8.5 26.5t22.5 21.5q8 6 16.5 16t16.5 29q6 15 6.5 25t-1 18t-3.5 16t-2 18q0 14 9.5 28.5t27.5 14.5z" />
    <glyph glyph-name="Lcaron" unicode="&#x13d;" horiz-adv-x="421" 
d="M401 44q0 -17 -13 -30.5t-35 -13.5h-233q-23 0 -36.5 14t-13.5 37v611q0 27 13 41.5t36 14.5q22 0 35 -14.5t13 -41.5v-573h185q24 0 36.5 -13.5t12.5 -31.5zM349 734q23 0 35 -20.5t6 -45.5l-34 -145q-5 -18 -19 -27t-27 -9q-25 0 -37.5 21t-5.5 47l36 144
q5 18 18.5 26.5t27.5 8.5z" />
    <glyph glyph-name="lcaron" unicode="&#x13e;" horiz-adv-x="475" 
d="M351 734q23 0 35 -20.5t6 -45.5l-34 -145q-5 -18 -19 -27t-27 -9q-25 0 -37.5 21t-5.5 47l36 144q5 18 18.5 26.5t27.5 8.5zM169 52q0 -27 -13 -42.5t-35 -15.5t-35 15.5t-13 41.5v663q0 27 13 42t35 15t35 -15t13 -42v-662z" />
    <glyph glyph-name="Nacute" unicode="&#x143;" horiz-adv-x="669" 
d="M599 49q0 -32 -16 -43.5t-39 -11.5q-13 0 -28 5.5t-26 22.5l-323 518h-2v-490q0 -27 -12.5 -41.5t-34.5 -14.5q-23 0 -35.5 14.5t-12.5 41.5v614q0 28 15 41t38 13q26 0 39.5 -9.5t21.5 -22.5l318 -514h2v490q0 56 47 56q22 0 35 -14.5t13 -41.5v-613v0zM448 860
q0 -13 -5.5 -23.5t-26.5 -18.5l-129 -50q-8 -3 -15 -5t-16 -2q-16 0 -26 15t-10 31q0 9 4.5 18.5t23.5 17.5l134 52q10 4 17 6t13 2q16 0 26 -14.5t10 -28.5z" />
    <glyph glyph-name="nacute" unicode="&#x144;" horiz-adv-x="567" 
d="M497 51q0 -27 -13 -42t-35 -15t-35 15t-13 42v305q0 49 -25.5 71.5t-73.5 22.5q-26 0 -56.5 -11.5t-52.5 -28.5q-12 -10 -19.5 -21t-7.5 -22v-316q0 -27 -13 -42t-35 -15q-23 0 -35.5 15t-12.5 42v430q0 27 12.5 42t34.5 15t34.5 -15t12.5 -42v-5q33 31 76 47.5t92 16.5
q77 0 121 -44.5t44 -128.5v-316v0zM397 700q0 -13 -5.5 -23.5t-26.5 -18.5l-129 -50q-8 -3 -15 -5t-16 -2q-16 0 -26 15t-10 31q0 9 4.5 18.5t23.5 17.5l134 52q10 4 17 6t13 2q16 0 26 -14.5t10 -28.5z" />
    <glyph glyph-name="Ncommaaccent" unicode="&#x145;" horiz-adv-x="669" 
d="M599 49q0 -32 -16 -43.5t-39 -11.5q-13 0 -28 5.5t-26 22.5l-323 518h-2v-490q0 -27 -12.5 -41.5t-34.5 -14.5q-23 0 -35.5 14.5t-12.5 41.5v614q0 28 15 41t38 13q26 0 39.5 -9.5t21.5 -22.5l318 -514h2v490q0 56 47 56q22 0 35 -14.5t13 -41.5v-613v0zM335 -50
q16 0 26 -7.5t17 -20.5q10 -21 9 -42t-6 -48q-3 -18 -13.5 -40.5t-25 -43t-32 -34.5t-35.5 -14t-29.5 11.5t-11.5 25.5q0 16 8.5 26.5t22.5 21.5q8 6 16.5 16t16.5 29q6 15 6.5 25t-1 18t-3.5 16t-2 18q0 14 9.5 28.5t27.5 14.5z" />
    <glyph glyph-name="ncommaaccent" unicode="&#x146;" horiz-adv-x="567" 
d="M497 51q0 -27 -13 -42t-35 -15t-35 15t-13 42v305q0 49 -25.5 71.5t-73.5 22.5q-26 0 -56.5 -11.5t-52.5 -28.5q-12 -10 -19.5 -21t-7.5 -22v-316q0 -27 -13 -42t-35 -15q-23 0 -35.5 15t-12.5 42v430q0 27 12.5 42t34.5 15t34.5 -15t12.5 -42v-5q33 31 76 47.5t92 16.5
q77 0 121 -44.5t44 -128.5v-316v0zM284 -50q16 0 26 -7.5t17 -20.5q10 -21 9 -42t-6 -48q-3 -18 -13.5 -40.5t-25 -43t-32 -34.5t-35.5 -14t-29.5 11.5t-11.5 25.5q0 16 8.5 26.5t22.5 21.5q8 6 16.5 16t16.5 29q6 15 6.5 25t-1 18t-3.5 16t-2 18q0 14 9.5 28.5t27.5 14.5z
" />
    <glyph glyph-name="Ncaron" unicode="&#x147;" horiz-adv-x="669" 
d="M599 49q0 -32 -16 -43.5t-39 -11.5q-13 0 -28 5.5t-26 22.5l-323 518h-2v-490q0 -27 -12.5 -41.5t-34.5 -14.5q-23 0 -35.5 14.5t-12.5 41.5v614q0 28 15 41t38 13q26 0 39.5 -9.5t21.5 -22.5l318 -514h2v490q0 56 47 56q22 0 35 -14.5t13 -41.5v-613v0zM488 853
q0 -14 -6.5 -25.5t-28.5 -19.5l-120 -47l-120 47q-22 8 -28.5 19.5t-6.5 25.5t11.5 27.5t28.5 13.5q8 0 17.5 -2.5t17.5 -6.5l80 -37l80 36q8 4 17.5 7t17.5 3q17 0 28.5 -13.5t11.5 -27.5z" />
    <glyph glyph-name="ncaron" unicode="&#x148;" horiz-adv-x="567" 
d="M497 51q0 -27 -13 -42t-35 -15t-35 15t-13 42v305q0 49 -25.5 71.5t-73.5 22.5q-26 0 -56.5 -11.5t-52.5 -28.5q-12 -10 -19.5 -21t-7.5 -22v-316q0 -27 -13 -42t-35 -15q-23 0 -35.5 15t-12.5 42v430q0 27 12.5 42t34.5 15t34.5 -15t12.5 -42v-5q33 31 76 47.5t92 16.5
q77 0 121 -44.5t44 -128.5v-316v0zM437 692q0 -14 -6.5 -25.5t-28.5 -19.5l-120 -47l-120 47q-22 8 -28.5 19.5t-6.5 25.5t11.5 27.5t28.5 13.5q8 0 17.5 -2.5t17.5 -6.5l80 -37l80 36q8 4 17.5 7t17.5 3q17 0 28.5 -13.5t11.5 -27.5z" />
    <glyph glyph-name="Omacron" unicode="&#x14c;" horiz-adv-x="659" 
d="M614 357q0 -177 -72 -270.5t-214 -93.5q-140 0 -211.5 93.5t-71.5 270.5q0 85 18 152.5t54 114t89 71t122 24.5q141 0 213.5 -95.5t72.5 -266.5zM510 360q0 72 -10.5 123.5t-32.5 84.5t-56 48t-82 15q-93 0 -136.5 -63t-43.5 -208q0 -146 43 -212.5t137 -66.5
q96 0 138.5 66.5t42.5 212.5zM474 806q0 -21 -14 -32.5t-38 -11.5h-188q-24 0 -38 11t-14 33q0 21 14 32.5t38 11.5h188q24 0 38 -11t14 -33z" />
    <glyph glyph-name="omacron" unicode="&#x14d;" horiz-adv-x="554" 
d="M509 267q0 -274 -232 -274t-232 274q0 127 58 200t174 73q114 0 173 -73t59 -200zM410 267q0 98 -33.5 145t-99.5 47t-99.5 -47t-33.5 -145q0 -96 32 -144.5t101 -48.5t101 48.5t32 144.5zM422 645q0 -21 -14 -32.5t-38 -11.5h-188q-24 0 -38 11t-14 33q0 21 14 32.5
t38 11.5h188q24 0 38 -11t14 -33z" />
    <glyph glyph-name="Ohungarumlaut" unicode="&#x150;" horiz-adv-x="659" 
d="M614 357q0 -177 -72 -270.5t-214 -93.5q-140 0 -211.5 93.5t-71.5 270.5q0 85 18 152.5t54 114t89 71t122 24.5q141 0 213.5 -95.5t72.5 -266.5zM510 360q0 72 -10.5 123.5t-32.5 84.5t-56 48t-82 15q-93 0 -136.5 -63t-43.5 -208q0 -146 43 -212.5t137 -66.5
q96 0 138.5 66.5t42.5 212.5zM557 861q0 -13 -5.5 -23.5t-26.5 -18.5l-130 -50q-14 -5 -18 -6t-12 -1q-16 0 -26.5 15t-10.5 31q0 9 5 19t23 17l134 52q22 8 30 8q17 0 27 -14.5t10 -28.5zM332 861q0 -13 -6 -23.5t-27 -18.5l-129 -50q-14 -5 -18.5 -6t-12.5 -1
q-16 0 -26 15t-10 31q0 9 5 19t23 17l134 52q10 4 17 6t13 2q16 0 26.5 -14.5t10.5 -28.5z" />
    <glyph glyph-name="ohungarumlaut" unicode="&#x151;" horiz-adv-x="554" 
d="M509 267q0 -274 -232 -274t-232 274q0 127 58 200t174 73q114 0 173 -73t59 -200zM410 267q0 98 -33.5 145t-99.5 47t-99.5 -47t-33.5 -145q0 -96 32 -144.5t101 -48.5t101 48.5t32 144.5zM505 700q0 -13 -5.5 -23.5t-26.5 -18.5l-130 -50q-14 -5 -18 -6t-12 -1
q-16 0 -26.5 15t-10.5 31q0 9 5 19t23 17l134 52q22 8 30 8q17 0 27 -14.5t10 -28.5zM280 700q0 -13 -6 -23.5t-27 -18.5l-129 -50q-14 -5 -18.5 -6t-12.5 -1q-16 0 -26 15t-10 31q0 9 5 19t23 17l134 52q10 4 17 6t13 2q16 0 26.5 -14.5t10.5 -28.5z" />
    <glyph glyph-name="Racute" unicode="&#x154;" horiz-adv-x="542" 
d="M492 36q0 -20 -15.5 -31.5t-32.5 -11.5t-26.5 7.5t-15.5 17.5l-185 304h-50v-272q0 -27 -13 -41.5t-35 -14.5q-23 0 -36 14.5t-13 41.5v612q0 50 56 50h164q47 0 84 -14.5t62.5 -40t39 -61t13.5 -77.5q0 -81 -42 -133.5t-123 -63.5l157 -252q7 -11 9 -19t2 -15zM389 516
q0 57 -28 83t-76 26h-118v-219h119q54 0 78.5 30.5t24.5 79.5zM395 860q0 -13 -5.5 -23.5t-26.5 -18.5l-129 -50q-8 -3 -15 -5t-16 -2q-16 0 -26 15t-10 31q0 9 4.5 18.5t23.5 17.5l134 52q10 4 17 6t13 2q16 0 26 -14.5t10 -28.5z" />
    <glyph glyph-name="racute" unicode="&#x155;" horiz-adv-x="365" 
d="M345 495q0 -45 -56 -50q-22 -2 -44 -9t-39.5 -20t-28.5 -32t-11 -45v-288q0 -27 -13 -42t-35 -15q-23 0 -35.5 15t-12.5 42v430q0 27 12.5 42t34.5 15t34.5 -15t12.5 -42v-15h1q12 13 27 26t32.5 23t36.5 16.5t37 6.5q24 0 35.5 -12t11.5 -31zM321 700q0 -13 -5.5 -23.5
t-26.5 -18.5l-129 -50q-8 -3 -15 -5t-16 -2q-16 0 -26 15t-10 31q0 9 4.5 18.5t23.5 17.5l134 52q10 4 17 6t13 2q16 0 26 -14.5t10 -28.5z" />
    <glyph glyph-name="Rcommaaccent" unicode="&#x156;" horiz-adv-x="542" 
d="M492 36q0 -20 -15.5 -31.5t-32.5 -11.5t-26.5 7.5t-15.5 17.5l-185 304h-50v-272q0 -27 -13 -41.5t-35 -14.5q-23 0 -36 14.5t-13 41.5v612q0 50 56 50h164q47 0 84 -14.5t62.5 -40t39 -61t13.5 -77.5q0 -81 -42 -133.5t-123 -63.5l157 -252q7 -11 9 -19t2 -15zM389 516
q0 57 -28 83t-76 26h-118v-219h119q54 0 78.5 30.5t24.5 79.5zM277 -50q16 0 26 -7.5t17 -20.5q10 -21 9 -42t-6 -48q-3 -18 -13.5 -40.5t-25 -43t-32 -34.5t-35.5 -14t-29.5 11.5t-11.5 25.5q0 16 8.5 26.5t22.5 21.5q8 6 16.5 16t16.5 29q6 15 6.5 25t-1 18t-3.5 16t-2 18
q0 14 9.5 28.5t27.5 14.5z" />
    <glyph glyph-name="rcommaaccent" unicode="&#x157;" horiz-adv-x="365" 
d="M345 495q0 -45 -56 -50q-22 -2 -44 -9t-39.5 -20t-28.5 -32t-11 -45v-288q0 -27 -13 -42t-35 -15q-23 0 -35.5 15t-12.5 42v430q0 27 12.5 42t34.5 15t34.5 -15t12.5 -42v-15h1q12 13 27 26t32.5 23t36.5 16.5t37 6.5q24 0 35.5 -12t11.5 -31zM121 -50q16 0 26 -7.5
t17 -20.5q10 -21 9 -42t-6 -48q-3 -18 -13.5 -40.5t-25 -43t-32 -34.5t-35.5 -14t-29.5 11.5t-11.5 25.5q0 16 8.5 26.5t22.5 21.5q8 6 16.5 16t16.5 29q6 15 6.5 25t-1 18t-3.5 16t-2 18q0 14 9.5 28.5t27.5 14.5z" />
    <glyph glyph-name="Rcaron" unicode="&#x158;" horiz-adv-x="542" 
d="M492 36q0 -20 -15.5 -31.5t-32.5 -11.5t-26.5 7.5t-15.5 17.5l-185 304h-50v-272q0 -27 -13 -41.5t-35 -14.5q-23 0 -36 14.5t-13 41.5v612q0 50 56 50h164q47 0 84 -14.5t62.5 -40t39 -61t13.5 -77.5q0 -81 -42 -133.5t-123 -63.5l157 -252q7 -11 9 -19t2 -15zM389 516
q0 57 -28 83t-76 26h-118v-219h119q54 0 78.5 30.5t24.5 79.5zM435 853q0 -14 -6.5 -25.5t-28.5 -19.5l-120 -47l-120 47q-22 8 -28.5 19.5t-6.5 25.5t11.5 27.5t28.5 13.5q8 0 17.5 -2.5t17.5 -6.5l80 -37l80 36q8 4 17.5 7t17.5 3q17 0 28.5 -13.5t11.5 -27.5z" />
    <glyph glyph-name="rcaron" unicode="&#x159;" horiz-adv-x="365" 
d="M345 495q0 -45 -56 -50q-22 -2 -44 -9t-39.5 -20t-28.5 -32t-11 -45v-288q0 -27 -13 -42t-35 -15q-23 0 -35.5 15t-12.5 42v430q0 27 12.5 42t34.5 15t34.5 -15t12.5 -42v-15h1q12 13 27 26t32.5 23t36.5 16.5t37 6.5q24 0 35.5 -12t11.5 -31zM361 692q0 -14 -6.5 -25.5
t-28.5 -19.5l-120 -47l-120 47q-22 8 -28.5 19.5t-6.5 25.5t11.5 27.5t28.5 13.5q8 0 17.5 -2.5t17.5 -6.5l80 -37l80 36q8 4 17.5 7t17.5 3q17 0 28.5 -13.5t11.5 -27.5z" />
    <glyph glyph-name="Sacute" unicode="&#x15a;" horiz-adv-x="481" 
d="M446 186q0 -47 -17 -83t-48.5 -60.5t-75.5 -37.5t-97 -13q-44 0 -85.5 7t-65.5 24q-22 16 -22 37q0 20 13 31.5t32 11.5q20 0 52 -8q18 -5 39 -8t45 -3q66 0 99 25.5t33 73.5q0 27 -14 48t-37 39.5t-52 35.5t-59 35q-28 17 -54 36t-45.5 42t-31.5 52t-12 66q0 44 16 78
t44 57.5t66 35.5t83 12q40 0 76 -6.5t59 -19.5q25 -14 25 -38q0 -19 -11.5 -32t-33.5 -13q-10 0 -23.5 2.5t-32.5 7.5q-13 3 -27.5 5t-31.5 2q-52 0 -82 -19.5t-30 -67.5q0 -23 11 -42t29.5 -35.5t42.5 -31.5t50 -30q31 -18 62 -38t55.5 -45.5t40 -57.5t15.5 -75zM366 860
q0 -13 -5.5 -23.5t-26.5 -18.5l-129 -50q-8 -3 -15 -5t-16 -2q-16 0 -26 15t-10 31q0 9 4.5 18.5t23.5 17.5l134 52q10 4 17 6t13 2q16 0 26 -14.5t10 -28.5z" />
    <glyph glyph-name="sacute" unicode="&#x15b;" horiz-adv-x="445" 
d="M400 143q0 -32 -13 -59.5t-37 -48t-58.5 -32t-78.5 -11.5q-42 0 -80 6t-61 19q-27 14 -27 35q0 22 12 31.5t30 9.5q13 0 34 -6q17 -5 38.5 -7.5t53.5 -2.5q50 0 70.5 16t20.5 43q0 32 -29.5 52t-70.5 40q-27 13 -55.5 28t-51 34.5t-37 46t-14.5 62.5q0 30 11.5 55.5
t33.5 45t55 30.5t77 11q16 0 34.5 -1.5t36.5 -5t34 -9t27 -13.5q19 -14 19 -35q0 -20 -11.5 -29.5t-25.5 -9.5q-7 0 -17 2t-22 5q-15 4 -34.5 7t-45.5 3q-23 0 -37.5 -5t-22.5 -13t-11.5 -18t-3.5 -20q0 -14 8 -25.5t21.5 -21.5t31 -19.5t37.5 -18.5q27 -13 55.5 -28
t51.5 -35t37.5 -46t14.5 -62zM336 700q0 -13 -5.5 -23.5t-26.5 -18.5l-129 -50q-8 -3 -15 -5t-16 -2q-16 0 -26 15t-10 31q0 9 4.5 18.5t23.5 17.5l134 52q10 4 17 6t13 2q16 0 26 -14.5t10 -28.5z" />
    <glyph glyph-name="Scedilla" unicode="&#x15e;" horiz-adv-x="481" 
d="M333 -104q0 -23 -10.5 -40t-27.5 -28q-29 -19 -66 -19q-22 0 -41.5 4.5t-30.5 15.5q-9 9 -9 21q0 10 6 17.5t20 7.5q6 0 11.5 -2t11.5 -4t14.5 -4t20.5 -2q29 0 29 26q0 9 -4.5 14.5t-11 8.5t-13 4t-10.5 1h-16q-8 0 -15 5t-7 16q0 7 2.5 12.5t5.5 10.5l20 31h-4
q-44 0 -85.5 7t-65.5 24q-22 16 -22 37q0 20 13 31.5t32 11.5q20 0 52 -8q18 -5 39 -8t45 -3q66 0 99 25.5t33 73.5q0 27 -14 48t-37 39.5t-52 35.5t-59 35q-28 17 -54 36t-45.5 42t-31.5 52t-12 66q0 44 16 78t44 57.5t66 35.5t83 12q40 0 76 -6.5t59 -19.5q25 -14 25 -38
q0 -19 -11.5 -32t-33.5 -13q-10 0 -23.5 2.5t-32.5 7.5q-13 3 -27.5 5t-31.5 2q-52 0 -82 -19.5t-30 -67.5q0 -23 11 -42t29.5 -35.5t42.5 -31.5t50 -30q31 -18 62 -38t55.5 -45.5t40 -57.5t15.5 -75q0 -80 -48.5 -128.5t-130.5 -60.5l-25 -40l2 -1q5 1 11 2t11 1
q27 0 44 -14q23 -17 23 -49z" />
    <glyph glyph-name="scedilla" unicode="&#x15f;" horiz-adv-x="445" 
d="M315 -104q0 -23 -10.5 -40t-27.5 -28q-29 -19 -66 -19q-22 0 -41.5 4.5t-30.5 15.5q-9 9 -9 21q0 10 6 17.5t20 7.5q6 0 11.5 -2t11.5 -4t14.5 -4t20.5 -2q29 0 29 26q0 9 -4.5 14.5t-11 8.5t-13 4t-10.5 1h-16q-8 0 -15 5t-7 16q0 7 2.5 12.5t5.5 10.5l20 31
q-37 2 -69.5 8t-52.5 17q-27 14 -27 35q0 22 12 31.5t30 9.5q13 0 34 -6q17 -5 38.5 -7.5t53.5 -2.5q50 0 70.5 16t20.5 43q0 32 -29.5 52t-70.5 40q-27 13 -55.5 28t-51 34.5t-37 46t-14.5 62.5q0 30 11.5 55.5t33.5 45t55 30.5t77 11q16 0 34.5 -1.5t36.5 -5t34 -9
t27 -13.5q19 -14 19 -35q0 -20 -11.5 -29.5t-25.5 -9.5q-7 0 -17 2t-22 5q-15 4 -34.5 7t-45.5 3q-23 0 -37.5 -5t-22.5 -13t-11.5 -18t-3.5 -20q0 -14 8 -25.5t21.5 -21.5t31 -19.5t37.5 -18.5q27 -13 55.5 -28t51.5 -35t37.5 -46t14.5 -62q0 -57 -40.5 -98.5t-112.5 -50.5
l-23 -37l2 -1q5 1 11 2t11 1q27 0 44 -14q23 -17 23 -49z" />
    <glyph glyph-name="Tcommaaccent" unicode="&#x162;" horiz-adv-x="491" 
d="M471 667q0 -17 -12.5 -30.5t-35.5 -13.5h-129v-573q0 -27 -12.5 -41.5t-35.5 -14.5q-22 0 -35.5 14.5t-13.5 41.5v573h-128q-24 0 -36.5 13.5t-12.5 30.5t13 31t35 14h355q22 0 35 -13.5t13 -31.5zM246 -50q16 0 26 -7.5t17 -20.5q10 -21 9 -42t-6 -48
q-3 -18 -13.5 -40.5t-25 -43t-32 -34.5t-35.5 -14t-29.5 11.5t-11.5 25.5q0 16 8.5 26.5t22.5 21.5q8 6 16.5 16t16.5 29q6 15 6.5 25t-1 18t-3.5 16t-2 18q0 14 9.5 28.5t27.5 14.5z" />
    <glyph glyph-name="tcommaaccent" unicode="&#x163;" horiz-adv-x="327" 
d="M302 491q0 -17 -10.5 -29t-32.5 -12h-49v-396q0 -27 -13 -42.5t-35 -15.5t-35 15.5t-13 42.5v397h-47q-23 0 -32.5 12t-9.5 28q0 15 10 28t31 13h48v107q0 27 13 42.5t35 15.5t35 -15.5t13 -42.5v-108h49q21 0 32 -11.5t11 -28.5zM164 -50q16 0 26 -7.5t17 -20.5
q10 -21 9 -42t-6 -48q-3 -18 -13.5 -40.5t-25 -43t-32 -34.5t-35.5 -14t-29.5 11.5t-11.5 25.5q0 16 8.5 26.5t22.5 21.5q8 6 16.5 16t16.5 29q6 15 6.5 25t-1 18t-3.5 16t-2 18q0 14 9.5 28.5t27.5 14.5z" />
    <glyph glyph-name="Tcaron" unicode="&#x164;" horiz-adv-x="491" 
d="M471 667q0 -17 -12.5 -30.5t-35.5 -13.5h-129v-573q0 -27 -12.5 -41.5t-35.5 -14.5q-22 0 -35.5 14.5t-13.5 41.5v573h-128q-24 0 -36.5 13.5t-12.5 30.5t13 31t35 14h355q22 0 35 -13.5t13 -31.5zM399 853q0 -14 -6.5 -25.5t-28.5 -19.5l-120 -47l-120 47
q-22 8 -28.5 19.5t-6.5 25.5t11.5 27.5t28.5 13.5q8 0 17.5 -2.5t17.5 -6.5l80 -37l80 36q8 4 17.5 7t17.5 3q17 0 28.5 -13.5t11.5 -27.5z" />
    <glyph glyph-name="tcaron" unicode="&#x165;" horiz-adv-x="560" 
d="M302 491q0 -17 -10.5 -29t-32.5 -12h-49v-396q0 -27 -13 -42.5t-35 -15.5t-35 15.5t-13 42.5v397h-47q-23 0 -32.5 12t-9.5 28q0 15 10 28t31 13h48v107q0 27 13 42.5t35 15.5t35 -15.5t13 -42.5v-108h49q21 0 32 -11.5t11 -28.5zM392 848q23 0 35 -20.5t6 -45.5
l-34 -145q-5 -18 -19 -27t-27 -9q-25 0 -37.5 21t-5.5 47l36 144q5 18 18.5 26.5t27.5 8.5z" />
    <glyph glyph-name="Umacron" unicode="&#x16a;" horiz-adv-x="651" 
d="M586 265q0 -60 -13.5 -110t-44 -86.5t-80 -56.5t-122.5 -20t-123 20t-80.5 56.5t-44 86.5t-13.5 110v397q0 27 13 41.5t36 14.5q22 0 35 -14.5t13 -41.5v-423q0 -78 42 -120t120 -42t121 42t43 120v423q0 27 12.5 41.5t35.5 14.5q22 0 36 -14.5t14 -41.5v-397v0zM470 806
q0 -21 -14 -32.5t-38 -11.5h-188q-24 0 -38 11t-14 33q0 21 14 32.5t38 11.5h188q24 0 38 -11t14 -33z" />
    <glyph glyph-name="umacron" unicode="&#x16b;" horiz-adv-x="557" 
d="M492 203q0 -48 -11.5 -87t-37 -66.5t-66 -42.5t-98.5 -15t-99 15t-66.5 42.5t-37 66.5t-11.5 87v278q0 27 13 42t35 15t35 -15t13 -42v-301q0 -54 31.5 -79.5t85.5 -25.5t86 25.5t32 79.5v301q0 27 13 42t35 15q23 0 35.5 -15t12.5 -42v-278v0zM423 645q0 -21 -14 -32.5
t-38 -11.5h-188q-24 0 -38 11t-14 33q0 21 14 32.5t38 11.5h188q24 0 38 -11t14 -33z" />
    <glyph glyph-name="Uring" unicode="&#x16e;" horiz-adv-x="651" 
d="M586 265q0 -60 -13.5 -110t-44 -86.5t-80 -56.5t-122.5 -20t-123 20t-80.5 56.5t-44 86.5t-13.5 110v397q0 27 13 41.5t36 14.5q22 0 35 -14.5t13 -41.5v-423q0 -78 42 -120t120 -42t121 42t43 120v423q0 27 12.5 41.5t35.5 14.5q22 0 36 -14.5t14 -41.5v-397v0zM419 814
q0 -20 -7.5 -37t-20 -30.5t-30 -21t-37.5 -7.5t-37 7.5t-30 20.5t-20.5 30t-7.5 37q0 40 27.5 68t67.5 28q19 0 36.5 -7.5t30.5 -20.5t20.5 -30.5t7.5 -36.5zM373 814q0 20 -14.5 34.5t-34.5 14.5t-34.5 -14.5t-14.5 -34.5t14.5 -35t34.5 -15t34.5 15t14.5 35z" />
    <glyph glyph-name="uring" unicode="&#x16f;" horiz-adv-x="557" 
d="M492 203q0 -48 -11.5 -87t-37 -66.5t-66 -42.5t-98.5 -15t-99 15t-66.5 42.5t-37 66.5t-11.5 87v278q0 27 13 42t35 15t35 -15t13 -42v-301q0 -54 31.5 -79.5t85.5 -25.5t86 25.5t32 79.5v301q0 27 13 42t35 15q23 0 35.5 -15t12.5 -42v-278v0zM372 634q0 -20 -7.5 -37
t-20 -30.5t-30 -21t-37.5 -7.5t-37 7.5t-30 20.5t-20.5 30t-7.5 37q0 40 27.5 68t67.5 28q19 0 36.5 -7.5t30.5 -20.5t20.5 -30.5t7.5 -36.5zM326 634q0 20 -14.5 34.5t-34.5 14.5t-34.5 -14.5t-14.5 -34.5t14.5 -35t34.5 -15t34.5 15t14.5 35z" />
    <glyph glyph-name="Uhungarumlaut" unicode="&#x170;" horiz-adv-x="651" 
d="M586 265q0 -60 -13.5 -110t-44 -86.5t-80 -56.5t-122.5 -20t-123 20t-80.5 56.5t-44 86.5t-13.5 110v397q0 27 13 41.5t36 14.5q22 0 35 -14.5t13 -41.5v-423q0 -78 42 -120t120 -42t121 42t43 120v423q0 27 12.5 41.5t35.5 14.5q22 0 36 -14.5t14 -41.5v-397v0zM553 861
q0 -13 -5.5 -23.5t-26.5 -18.5l-130 -50q-14 -5 -18 -6t-12 -1q-16 0 -26.5 15t-10.5 31q0 9 5 19t23 17l134 52q22 8 30 8q17 0 27 -14.5t10 -28.5zM328 861q0 -13 -6 -23.5t-27 -18.5l-129 -50q-14 -5 -18.5 -6t-12.5 -1q-16 0 -26 15t-10 31q0 9 5 19t23 17l134 52
q10 4 17 6t13 2q16 0 26.5 -14.5t10.5 -28.5z" />
    <glyph glyph-name="uhungarumlaut" unicode="&#x171;" horiz-adv-x="557" 
d="M492 203q0 -48 -11.5 -87t-37 -66.5t-66 -42.5t-98.5 -15t-99 15t-66.5 42.5t-37 66.5t-11.5 87v278q0 27 13 42t35 15t35 -15t13 -42v-301q0 -54 31.5 -79.5t85.5 -25.5t86 25.5t32 79.5v301q0 27 13 42t35 15q23 0 35.5 -15t12.5 -42v-278v0zM506 700q0 -13 -5.5 -23.5
t-26.5 -18.5l-130 -50q-14 -5 -18 -6t-12 -1q-16 0 -26.5 15t-10.5 31q0 9 5 19t23 17l134 52q22 8 30 8q17 0 27 -14.5t10 -28.5zM281 700q0 -13 -6 -23.5t-27 -18.5l-129 -50q-14 -5 -18.5 -6t-12.5 -1q-16 0 -26 15t-10 31q0 9 5 19t23 17l134 52q10 4 17 6t13 2
q16 0 26.5 -14.5t10.5 -28.5z" />
    <glyph glyph-name="Uogonek" unicode="&#x172;" horiz-adv-x="651" 
d="M418 -147q0 -13 -12 -23q-24 -21 -79 -21q-38 0 -62.5 16.5t-24.5 55.5q0 20 7.5 37t20.5 32q11 13 25 23.5t29 18.5q-72 1 -121 21.5t-79.5 56.5t-43.5 85.5t-13 109.5v397q0 27 13 41.5t36 14.5q22 0 35 -14.5t13 -41.5v-423q0 -78 42 -120t120 -42t121 42t43 120v423
q0 27 12.5 41.5t35.5 14.5q22 0 36 -14.5t14 -41.5v-397q0 -53 -10 -98t-33.5 -80t-60.5 -58t-91 -32q-28 -20 -51.5 -47t-23.5 -51q0 -32 30 -32q8 0 14.5 2t12.5 4q5 2 9.5 3t10.5 1q13 0 19 -7.5t6 -16.5z" />
    <glyph glyph-name="uogonek" unicode="&#x173;" horiz-adv-x="557" 
d="M370 -147q0 -13 -12 -23q-24 -21 -79 -21q-38 0 -62.5 16.5t-24.5 55.5q0 20 7.5 37t20.5 32q11 13 25 23.5t29 18.5q-57 1 -96.5 16t-64.5 42.5t-36.5 66t-11.5 86.5v278q0 27 13 42t35 15t35 -15t13 -42v-301q0 -54 31.5 -79.5t85.5 -25.5t86 25.5t32 79.5v301
q0 27 13 42t35 15q23 0 35.5 -15t12.5 -42v-278q0 -81 -34 -135t-113 -70q-14 -10 -27.5 -22.5t-24.5 -25.5t-18 -26t-7 -25q0 -32 30 -32q8 0 14.5 2t12.5 4q5 2 9.5 3t10.5 1q13 0 19 -7.5t6 -16.5z" />
    <glyph glyph-name="Zacute" unicode="&#x179;" horiz-adv-x="549" 
d="M514 44q0 -18 -14.5 -31t-34.5 -13h-362q-34 0 -51 14t-17 36q0 12 7 26.5t19 34.5l312 514h-277q-22 0 -35.5 11.5t-13.5 30.5t14 32t34 13h353q27 0 39 -13t12 -28q0 -11 -5 -22.5t-12 -22.5l-329 -539h312q22 0 35.5 -11.5t13.5 -31.5zM374 860q0 -13 -5.5 -23.5
t-26.5 -18.5l-129 -50q-8 -3 -15 -5t-16 -2q-16 0 -26 15t-10 31q0 9 4.5 18.5t23.5 17.5l134 52q10 4 17 6t13 2q16 0 26 -14.5t10 -28.5z" />
    <glyph glyph-name="zacute" unicode="&#x17a;" horiz-adv-x="474" 
d="M444 43q0 -19 -13.5 -31t-34.5 -12h-327q-21 0 -30 11t-9 31q0 15 4.5 24.5t11.5 19.5l265 358v2h-223q-20 0 -33.5 12t-13.5 31t13 31t34 12h303q20 0 31.5 -11t11.5 -31q0 -14 -4.5 -25t-10.5 -19l-265 -358v-2h242q20 0 34 -12t14 -31zM351 700q0 -13 -5.5 -23.5
t-26.5 -18.5l-129 -50q-8 -3 -15 -5t-16 -2q-16 0 -26 15t-10 31q0 9 4.5 18.5t23.5 17.5l134 52q10 4 17 6t13 2q16 0 26 -14.5t10 -28.5z" />
    <glyph glyph-name="Zdotaccent" unicode="&#x17b;" horiz-adv-x="549" 
d="M514 44q0 -18 -14.5 -31t-34.5 -13h-362q-34 0 -51 14t-17 36q0 12 7 26.5t19 34.5l312 514h-277q-22 0 -35.5 11.5t-13.5 30.5t14 32t34 13h353q27 0 39 -13t12 -28q0 -11 -5 -22.5t-12 -22.5l-329 -539h312q22 0 35.5 -11.5t13.5 -31.5zM316 819q0 -24 -16.5 -40.5
t-39.5 -16.5t-40 16.5t-17 39.5q0 24 17 40.5t40 16.5t39.5 -16.5t16.5 -39.5z" />
    <glyph glyph-name="zdotaccent" unicode="&#x17c;" horiz-adv-x="474" 
d="M444 43q0 -19 -13.5 -31t-34.5 -12h-327q-21 0 -30 11t-9 31q0 15 4.5 24.5t11.5 19.5l265 358v2h-223q-20 0 -33.5 12t-13.5 31t13 31t34 12h303q20 0 31.5 -11t11.5 -31q0 -14 -4.5 -25t-10.5 -19l-265 -358v-2h242q20 0 34 -12t14 -31zM293 658q0 -24 -16.5 -40.5
t-39.5 -16.5t-40 16.5t-17 39.5q0 24 17 40.5t40 16.5t39.5 -16.5t16.5 -39.5z" />
    <glyph glyph-name="Scommaaccent" unicode="&#x218;" horiz-adv-x="481" 
d="M446 186q0 -47 -17 -83t-48.5 -60.5t-75.5 -37.5t-97 -13q-44 0 -85.5 7t-65.5 24q-22 16 -22 37q0 20 13 31.5t32 11.5q20 0 52 -8q18 -5 39 -8t45 -3q66 0 99 25.5t33 73.5q0 27 -14 48t-37 39.5t-52 35.5t-59 35q-28 17 -54 36t-45.5 42t-31.5 52t-12 66q0 44 16 78
t44 57.5t66 35.5t83 12q40 0 76 -6.5t59 -19.5q25 -14 25 -38q0 -19 -11.5 -32t-33.5 -13q-10 0 -23.5 2.5t-32.5 7.5q-13 3 -27.5 5t-31.5 2q-52 0 -82 -19.5t-30 -67.5q0 -23 11 -42t29.5 -35.5t42.5 -31.5t50 -30q31 -18 62 -38t55.5 -45.5t40 -57.5t15.5 -75zM211 -50
q16 0 26 -7.5t17 -20.5q10 -21 9 -42t-6 -48q-3 -18 -13.5 -40.5t-25 -43t-32 -34.5t-35.5 -14t-29.5 11.5t-11.5 25.5q0 16 8.5 26.5t22.5 21.5q8 6 16.5 16t16.5 29q6 15 6.5 25t-1 18t-3.5 16t-2 18q0 14 9.5 28.5t27.5 14.5z" />
    <glyph glyph-name="scommaaccent" unicode="&#x219;" horiz-adv-x="445" 
d="M400 143q0 -32 -13 -59.5t-37 -48t-58.5 -32t-78.5 -11.5q-42 0 -80 6t-61 19q-27 14 -27 35q0 22 12 31.5t30 9.5q13 0 34 -6q17 -5 38.5 -7.5t53.5 -2.5q50 0 70.5 16t20.5 43q0 32 -29.5 52t-70.5 40q-27 13 -55.5 28t-51 34.5t-37 46t-14.5 62.5q0 30 11.5 55.5
t33.5 45t55 30.5t77 11q16 0 34.5 -1.5t36.5 -5t34 -9t27 -13.5q19 -14 19 -35q0 -20 -11.5 -29.5t-25.5 -9.5q-7 0 -17 2t-22 5q-15 4 -34.5 7t-45.5 3q-23 0 -37.5 -5t-22.5 -13t-11.5 -18t-3.5 -20q0 -14 8 -25.5t21.5 -21.5t31 -19.5t37.5 -18.5q27 -13 55.5 -28
t51.5 -35t37.5 -46t14.5 -62zM223 -50q16 0 26 -7.5t17 -20.5q10 -21 9 -42t-6 -48q-3 -18 -13.5 -40.5t-25 -43t-32 -34.5t-35.5 -14t-29.5 11.5t-11.5 25.5q0 16 8.5 26.5t22.5 21.5q8 6 16.5 16t16.5 29q6 15 6.5 25t-1 18t-3.5 16t-2 18q0 14 9.5 28.5t27.5 14.5z" />
    <glyph glyph-name="uni021A" unicode="&#x21a;" horiz-adv-x="491" 
d="M471 667q0 -17 -12.5 -30.5t-35.5 -13.5h-129v-573q0 -27 -12.5 -41.5t-35.5 -14.5q-22 0 -35.5 14.5t-13.5 41.5v573h-128q-24 0 -36.5 13.5t-12.5 30.5t13 31t35 14h355q22 0 35 -13.5t13 -31.5zM246 -50q16 0 26 -7.5t17 -20.5q10 -21 9 -42t-6 -48
q-3 -18 -13.5 -40.5t-25 -43t-32 -34.5t-35.5 -14t-29.5 11.5t-11.5 25.5q0 16 8.5 26.5t22.5 21.5q8 6 16.5 16t16.5 29q6 15 6.5 25t-1 18t-3.5 16t-2 18q0 14 9.5 28.5t27.5 14.5z" />
    <glyph glyph-name="uni021B" unicode="&#x21b;" horiz-adv-x="327" 
d="M302 491q0 -17 -10.5 -29t-32.5 -12h-49v-396q0 -27 -13 -42.5t-35 -15.5t-35 15.5t-13 42.5v397h-47q-23 0 -32.5 12t-9.5 28q0 15 10 28t31 13h48v107q0 27 13 42.5t35 15.5t35 -15.5t13 -42.5v-108h49q21 0 32 -11.5t11 -28.5zM164 -50q16 0 26 -7.5t17 -20.5
q10 -21 9 -42t-6 -48q-3 -18 -13.5 -40.5t-25 -43t-32 -34.5t-35.5 -14t-29.5 11.5t-11.5 25.5q0 16 8.5 26.5t22.5 21.5q8 6 16.5 16t16.5 29q6 15 6.5 25t-1 18t-3.5 16t-2 18q0 14 9.5 28.5t27.5 14.5z" />
    <glyph glyph-name="Edotaccent" unicode="&#x116;" horiz-adv-x="464" 
d="M424 45q0 -17 -13 -31t-36 -14h-250q-55 0 -55 50v608q0 25 13 39.5t42 14.5h240q23 0 36 -13.5t13 -31.5q0 -17 -13 -30.5t-36 -13.5h-197v-222h187q24 0 37 -13.5t13 -31.5q0 -17 -13 -30.5t-37 -13.5h-188v-223h208q23 0 36 -13t13 -31zM306 819q0 -24 -16.5 -40.5
t-39.5 -16.5t-40 16.5t-17 39.5q0 24 17 40.5t40 16.5t39.5 -16.5t16.5 -39.5z" />
    <glyph glyph-name="zero" unicode="0" 
d="M526 356q0 -101 -18 -170.5t-50 -112.5t-76.5 -62t-96.5 -19q-59 0 -104 19t-76 61.5t-47 112t-16 171.5q0 101 18 170.5t50.5 112.5t76.5 62t97 19q58 0 103 -19t76 -61.5t47 -112t16 -171.5zM422 356q0 63 -5.5 114t-20.5 87t-42 55.5t-69 19.5q-43 0 -70 -19.5
t-42.5 -55.5t-21 -87t-5.5 -114t5.5 -114t21 -87t42.5 -55.5t69 -19.5t69 19.5t42.5 55.5t21 87t5.5 114z" />
    <glyph glyph-name="one" unicode="1" 
d="M344 50q0 -27 -13 -41.5t-36 -14.5q-22 0 -35.5 14.5t-13.5 41.5v573h-80q-23 0 -35.5 13.5t-12.5 30.5t12.5 31t35.5 14h130q22 0 35 -13t13 -32v-617v0z" />
    <glyph glyph-name="two" unicode="2" 
d="M497 44q0 -20 -14 -32t-35 -12h-323q-26 0 -39.5 12.5t-13.5 41.5q0 14 4.5 25t14.5 24l207 264q25 32 39.5 56.5t22.5 44t10.5 34.5t2.5 28q0 43 -24.5 71.5t-87.5 28.5q-32 0 -56.5 -7t-56.5 -20q-5 -2 -11 -3t-11 -1q-18 0 -29.5 11t-11.5 29q0 24 22 39
q23 15 63 28.5t94 13.5q97 0 155 -46.5t58 -138.5q0 -52 -25 -105t-84 -125l-176 -216v-2h254q22 0 36.5 -11.5t14.5 -31.5z" />
    <glyph glyph-name="three" unicode="3" 
d="M486 206q0 -45 -15.5 -84t-45.5 -68t-73.5 -45.5t-99.5 -16.5q-51 0 -92 7.5t-60 21.5q-9 7 -13.5 14.5t-4.5 19.5q0 21 12 32.5t31 11.5q4 0 12.5 -1.5t16.5 -3.5q21 -6 44.5 -9.5t52.5 -3.5q66 0 100 35.5t34 92.5q0 63 -37 91t-107 28h-20q-21 0 -35 11.5t-14 31.5
q0 21 14 34t35 13h21q65 0 94.5 33t29.5 85q0 44 -26 69t-82 25q-23 0 -46.5 -6t-47.5 -15q-9 -4 -16.5 -5t-14.5 -1q-17 1 -28 11.5t-11 28.5q0 30 34 46q27 14 62.5 22.5t71.5 8.5q55 0 93.5 -14.5t62.5 -39t34.5 -57t10.5 -68.5q0 -50 -27.5 -94t-73.5 -61v-2
q38 -12 62.5 -30.5t38 -41.5t18.5 -50t5 -56z" />
    <glyph glyph-name="four" unicode="4" 
d="M534 224q0 -19 -13.5 -31.5t-34.5 -12.5h-37v-130q0 -56 -47 -56q-48 0 -48 56v130h-267q-27 0 -39.5 12.5t-12.5 35.5q0 24 21 58l249 389q12 20 27.5 32.5t41.5 12.5q75 0 75 -74v-379h36q22 0 35.5 -12t13.5 -31zM354 602h-2l-211 -333v-2h213v335z" />
    <glyph glyph-name="five" unicode="5" 
d="M494 225q0 -50 -16 -92.5t-47.5 -74t-78.5 -49t-108 -17.5q-51 0 -92 7.5t-60 21.5q-9 7 -13.5 14.5t-4.5 19.5q0 21 12 32.5t31 11.5q4 0 8 -0.5t9 -1.5q20 -5 47 -10.5t62 -5.5q69 0 108 36t39 111q0 65 -37.5 95.5t-109.5 30.5h-90q-20 0 -32.5 11.5t-12.5 29.5v256
q0 33 14 47t41 14h244q23 0 36 -12.5t13 -31.5q0 -20 -12.5 -32.5t-35.5 -12.5h-205v-179h59q115 0 173.5 -56t58.5 -163z" />
    <glyph glyph-name="six" unicode="6" 
d="M510 223q0 -48 -15 -90t-44 -73.5t-72.5 -49.5t-101.5 -18q-73 0 -116 26.5t-65.5 67t-29.5 88.5t-7 92q0 69 14.5 141.5t44.5 135t77 108.5t112 63q32 8 65 8q22 0 37 -11.5t15 -33.5t-13.5 -33t-34.5 -14q-71 -10 -123 -63t-75 -150l2 -2q12 10 28 17t32.5 11.5t32 6
t27.5 1.5q52 0 91.5 -17t65.5 -47.5t39.5 -72.5t13.5 -91zM406 222q0 63 -28 102t-94 39q-61 0 -94 -31.5t-33 -103.5q0 -29 6 -55.5t20.5 -47.5t37.5 -33.5t58 -12.5q58 0 92.5 33t34.5 110z" />
    <glyph glyph-name="seven" unicode="7" 
d="M510 674q0 -11 -4.5 -24t-10.5 -27l-260 -587q-11 -26 -23 -34t-29 -8q-23 0 -36.5 13.5t-13.5 28.5q0 7 3 15t9 22l248 550h-284q-25 0 -37.5 13.5t-12.5 30.5t12.5 31t37.5 14h354q25 0 36 -12t11 -26z" />
    <glyph glyph-name="eight" unicode="8" 
d="M518 199q0 -45 -14 -82.5t-43.5 -65.5t-73.5 -43.5t-104 -15.5q-62 0 -106.5 16t-72.5 43.5t-41 65t-13 81.5q0 151 123 186v1q-49 17 -73 58t-24 95q0 83 53.5 132.5t153.5 49.5t154 -49.5t54 -132.5q0 -52 -23 -94.5t-74 -58.5v-1q124 -32 124 -185zM393 532
q0 58 -31 80.5t-79 22.5q-47 0 -78 -22.5t-31 -80.5q0 -48 30 -78.5t79 -30.5q50 0 80 30.5t30 78.5zM413 212q0 63 -35 96.5t-95 33.5t-94.5 -34t-34.5 -96q0 -63 31.5 -98t97.5 -35t98 35t32 98z" />
    <glyph glyph-name="nine" unicode="9" 
d="M510 446q0 -69 -14 -141t-43.5 -134t-76 -108.5t-110.5 -63.5q-33 -9 -69 -9q-22 0 -37 11.5t-15 33.5t13.5 33t34.5 14q71 10 123 63t75 150l-2 2q-12 -11 -28 -17.5t-32.5 -11t-32 -6t-27.5 -1.5q-52 0 -91.5 17t-65.5 47.5t-39.5 72t-13.5 91.5q0 48 14.5 90t44 73.5
t73 49.5t101.5 18q73 0 116 -26.5t65.5 -67t29.5 -88.5t7 -92zM412 484q0 28 -6 55t-20.5 48t-38 33.5t-57.5 12.5q-59 0 -93 -33t-34 -110q0 -63 28 -102t94 -39q61 0 94 31.5t33 103.5z" />
    <glyph glyph-name="zero.tosf" 
d="M510 267q0 -134 -60.5 -204t-171.5 -70t-171.5 69.5t-60.5 204.5q0 62 15.5 112.5t45.5 86t73 55t98 19.5q54 0 97 -19.5t73 -55t46 -86t16 -112.5zM411 267q0 98 -36 142t-97 44t-97 -44t-36 -142q0 -96 35 -141.5t98 -45.5t98 45.5t35 141.5z" />
    <glyph glyph-name="one.tosf" 
d="M515 43q0 -17 -12 -30t-33 -13h-335q-20 0 -32 12.5t-12 29.5q0 18 11.5 31t32.5 13h121v357h-105q-23 0 -35.5 13.5t-12.5 30.5t12.5 31t35.5 14h155q22 0 35 -13t13 -32v-401h116q21 0 33 -12.5t12 -30.5z" />
    <glyph glyph-name="two.tosf" 
d="M497 44q0 -20 -14 -32t-35 -12h-323q-26 0 -39.5 12.5t-13.5 41.5q0 14 9.5 29.5t35.5 36.5l139 112q37 30 60 51t35.5 37t17 29t4.5 27q0 27 -26.5 50.5t-80.5 23.5q-36 0 -61 -7t-57 -20q-5 -2 -11 -3t-11 -1q-18 0 -29.5 11t-11.5 29q0 24 22 39q23 15 66.5 28.5
t96.5 13.5q46 0 84 -11.5t65 -33t41.5 -51.5t14.5 -66q0 -26 -9 -48.5t-28 -46.5t-50 -51t-74 -61l-105 -82v-2h237q22 0 36.5 -11.5t14.5 -31.5z" />
    <glyph glyph-name="three.tosf" 
d="M486 26q0 -45 -15.5 -84t-45.5 -68t-73.5 -45.5t-99.5 -16.5q-51 0 -92 7.5t-60 21.5q-9 7 -13.5 14.5t-4.5 19.5q0 21 12 32.5t31 11.5q4 0 12.5 -1.5t16.5 -3.5q21 -6 44.5 -9.5t52.5 -3.5q66 0 100 35.5t34 92.5q0 63 -37 91t-107 28h-20q-21 0 -35 11.5t-14 31.5
q0 21 14 34t35 13h21q65 0 94.5 33t29.5 85q0 44 -26 69t-82 25q-23 0 -46.5 -6t-47.5 -15q-9 -4 -16.5 -5t-14.5 -1q-17 1 -28 11.5t-11 28.5q0 30 34 46q27 14 62.5 22.5t71.5 8.5q55 0 93.5 -14.5t62.5 -39t34.5 -57t10.5 -68.5q0 -50 -27.5 -94t-73.5 -61v-2
q38 -12 62.5 -30.5t38 -41.5t18.5 -50t5 -56z" />
    <glyph glyph-name="four.tosf" 
d="M534 44q0 -19 -13.5 -31.5t-34.5 -12.5h-37v-130q0 -56 -47 -56q-48 0 -48 56v130h-267q-27 0 -39.5 12.5t-12.5 35.5q0 24 21 58l249 389q12 20 27.5 32.5t41.5 12.5q75 0 75 -74v-379h36q22 0 35.5 -12t13.5 -31zM354 422h-2l-211 -333v-2h213v335z" />
    <glyph glyph-name="five.tosf" 
d="M494 45q0 -50 -16 -92.5t-47.5 -74t-78.5 -49t-108 -17.5q-51 0 -92 7.5t-60 21.5q-9 7 -13.5 14.5t-4.5 19.5q0 21 12 32.5t31 11.5q4 0 8 -0.5t9 -1.5q20 -5 47 -10.5t62 -5.5q69 0 108 36t39 111q0 65 -37.5 95.5t-109.5 30.5h-90q-20 0 -32.5 11.5t-12.5 29.5v256
q0 33 14 47t41 14h244q23 0 36 -12.5t13 -31.5q0 -20 -12.5 -32.5t-35.5 -12.5h-205v-179h59q115 0 173.5 -56t58.5 -163z" />
    <glyph glyph-name="six.tosf" 
d="M510 223q0 -48 -15 -90t-44 -73.5t-72.5 -49.5t-101.5 -18q-73 0 -116 26.5t-65.5 67t-29.5 88.5t-7 92q0 69 14.5 141.5t44.5 135t77 108.5t112 63q32 8 65 8q22 0 37 -11.5t15 -33.5t-13.5 -33t-34.5 -14q-71 -10 -123 -63t-75 -150l2 -2q12 10 28 17t32.5 11.5t32 6
t27.5 1.5q52 0 91.5 -17t65.5 -47.5t39.5 -72.5t13.5 -91zM406 222q0 63 -28 102t-94 39q-61 0 -94 -31.5t-33 -103.5q0 -29 6 -55.5t20.5 -47.5t37.5 -33.5t58 -12.5q58 0 92.5 33t34.5 110z" />
    <glyph glyph-name="seven.tosf" 
d="M510 494q0 -11 -4.5 -24t-10.5 -27l-260 -587q-11 -26 -23 -34t-29 -8q-23 0 -36.5 13.5t-13.5 28.5q0 7 3 15t9 22l248 550h-284q-25 0 -37.5 13.5t-12.5 30.5t12.5 31t37.5 14h354q25 0 36 -12t11 -26z" />
    <glyph glyph-name="eight.tosf" 
d="M518 199q0 -45 -14 -82.5t-43.5 -65.5t-73.5 -43.5t-104 -15.5q-62 0 -106.5 16t-72.5 43.5t-41 65t-13 81.5q0 151 123 186v1q-49 17 -73 58t-24 95q0 83 53.5 132.5t153.5 49.5t154 -49.5t54 -132.5q0 -52 -23 -94.5t-74 -58.5v-1q124 -32 124 -185zM393 532
q0 58 -31 80.5t-79 22.5q-47 0 -78 -22.5t-31 -80.5q0 -48 30 -78.5t79 -30.5q50 0 80 30.5t30 78.5zM413 212q0 63 -35 96.5t-95 33.5t-94.5 -34t-34.5 -96q0 -63 31.5 -98t97.5 -35t98 35t32 98z" />
    <glyph glyph-name="nine.tosf" 
d="M510 266q0 -69 -14 -141t-43.5 -134t-76 -108.5t-110.5 -63.5q-33 -9 -69 -9q-22 0 -37 11.5t-15 33.5t13.5 33t34.5 14q71 10 123 63t75 150l-2 2q-12 -11 -28 -17.5t-32.5 -11t-32 -6t-27.5 -1.5q-52 0 -91.5 17t-65.5 47.5t-39.5 72t-13.5 91.5q0 48 14.5 90t44 73.5
t73 49.5t101.5 18q73 0 116 -26.5t65.5 -67t29.5 -88.5t7 -92zM412 304q0 28 -6 55t-20.5 48t-38 33.5t-57.5 12.5q-59 0 -93 -33t-34 -110q0 -63 28 -102t94 -39q61 0 94 31.5t33 103.5z" />
    <glyph glyph-name="sterling" unicode="&#xa3;" 
d="M504 46q0 -20 -13.5 -33t-32.5 -13h-320q-22 0 -30.5 14.5t-8.5 34.5q0 25 23 52q31 36 48 71.5t17 83.5q0 15 -1 30t-3 29h-73q-20 0 -33 12t-13 32t13 32.5t33 12.5h52q-11 29 -18 59.5t-7 66.5q0 97 52.5 143.5t140.5 46.5q38 0 70.5 -7t52.5 -21q21 -16 21 -36
q0 -43 -43 -43q-13 0 -33 5t-36 7.5t-34 2.5q-48 0 -72 -25.5t-24 -80.5q0 -27 6.5 -56.5t18.5 -61.5h110q20 0 33 -12.5t13 -32.5t-13 -32t-33 -12h-92q2 -11 3 -24.5t1 -28.5q0 -39 -13 -85t-50 -87h242q20 0 33 -12.5t13 -31.5z" />
    <glyph glyph-name="ampersand" unicode="&#x26;" horiz-adv-x="663" 
d="M633 42q0 -22 -13 -35.5t-34 -13.5q-11 0 -19.5 4.5t-19.5 17.5l-62 73q-47 -48 -100.5 -72t-116.5 -24q-111 0 -167 54t-56 147q0 67 37 120t112 98l-6 7q-39 46 -51 80.5t-12 69.5q0 37 14.5 65.5t40 47.5t60 29t73.5 10q44 0 81 -9t60 -21q24 -14 24 -40
q0 -19 -11.5 -30t-30.5 -11q-11 0 -18 3q-29 10 -56 14t-51 4q-18 0 -34 -3t-28.5 -10.5t-19.5 -21t-7 -33.5q0 -29 16.5 -55t45.5 -58l200 -218q11 19 17 38t11 45q4 20 10 29q5 8 14 13.5t23 5.5q19 0 30.5 -13t11.5 -35q0 -31 -11 -60t-23 -52q-6 -11 -12.5 -22
t-11.5 -17l72 -85q11 -12 14.5 -20t3.5 -16zM249 353q-53 -34 -78.5 -67t-25.5 -85q0 -57 30 -89t90 -32q51 0 92.5 20t70.5 53z" />
    <glyph glyph-name="quotedbl" unicode="&#x22;" horiz-adv-x="370" 
d="M300 530q0 -20 -11.5 -32.5t-29.5 -12.5q-19 0 -30.5 12.5t-11.5 32.5v145q0 20 11.5 32.5t29.5 12.5q19 0 30.5 -12.5t11.5 -32.5v-145zM154 530q0 -20 -11.5 -32.5t-30.5 -12.5q-17 0 -29.5 12.5t-12.5 32.5v145q0 20 12 32.5t30 12.5t30 -12.5t12 -32.5v-145z" />
    <glyph glyph-name="exclam" unicode="!" horiz-adv-x="245" 
d="M171 256q0 -26 -13 -40t-35 -14t-35 13.5t-13 39.5v412q0 26 13 39.5t35 13.5q21 0 34.5 -13.5t13.5 -39.5v-411zM175 51q0 -29 -14.5 -44t-38.5 -15q-23 0 -37.5 15t-14.5 43t14 44.5t38 16.5q23 0 38 -16.5t15 -43.5z" />
    </font>
</defs>
</svg>
