<?xml version="1.0" standalone="no"?>
<!DOCTYPE svg PUBLIC "-//W3C//DTD SVG 1.1//EN" "http://www.w3.org/Graphics/SVG/1.1/DTD/svg11.dtd" >
<svg>
<metadata>
Created by FontForge 20131121 at Thu Apr 02 17:17:57 2015

Copyright 2013 (c) Tate
</metadata>
<defs>
<font id="TateNewPro-ThinItalic" horiz-adv-x="535" >
  <font-face 
    font-family="Tate New Pro"
    font-weight="300"
    font-style="italic"
    font-stretch="normal"
    units-per-em="1000"
    panose-1="2 11 3 4 2 2 2 9 2 4"
    ascent="800"
    descent="-200"
    x-height="527"
    cap-height="711"
    bbox="-83 -264 1052 948"
    underline-thickness="50"
    underline-position="-50"
    slope="-11"
    unicode-range="U+000D-FB02"
  />
<missing-glyph horiz-adv-x="960" 
 />
    <glyph glyph-name="fi" unicode="fi" horiz-adv-x="472" 
d="M404 731q0 -16 -10.5 -23.5t-24.5 -7.5h-31q-23 0 -38 -10t-22 -47l-22 -117h50q17 0 26 -8.5t9 -21.5q0 -14 -9 -22.5t-26 -8.5h-61l-80 -424q-7 -42 -37 -42q-14 0 -22.5 9t-8.5 24v5t2 11l77 417h-33q-17 0 -24.5 9t-7.5 21t7.5 21.5t24.5 9.5h45l23 123
q13 67 47 91.5t82 24.5q13 0 22.5 -1t19.5 -4q22 -6 22 -29zM540 690q0 -24 -13 -41t-33 -17q-17 0 -28 10.5t-11 29.5q0 23 13 40.5t33 17.5q17 0 28 -10.5t11 -29.5zM496 498q0 -2 -0.5 -6t-1.5 -9l-82 -441q-7 -43 -37 -43q-15 0 -23 9t-8 24q0 6 2 16l82 441q7 42 38 42
q14 0 22 -9t8 -24z" />
    <glyph glyph-name="fl" unicode="fl" horiz-adv-x="495" 
d="M404 731q0 -16 -10.5 -23.5t-24.5 -7.5h-31q-23 0 -38 -10t-22 -47l-22 -117h50q17 0 26 -8.5t9 -21.5q0 -14 -9 -22.5t-26 -8.5h-61l-80 -424q-7 -42 -37 -42q-14 0 -22.5 9t-8.5 24v5t2 11l77 417h-33q-17 0 -24.5 9t-7.5 21t7.5 21.5t24.5 9.5h45l23 123
q13 67 47 91.5t82 24.5q13 0 22.5 -1t19.5 -4q22 -6 22 -29zM540 732v-6t-2 -12l-126 -673q-7 -42 -37 -42q-14 0 -22.5 9t-8.5 24v6t2 12l126 673q7 42 37 42q14 0 22.5 -9t8.5 -24z" />
    <glyph glyph-name=".notdef" horiz-adv-x="960" 
 />
    <glyph glyph-name=".null" horiz-adv-x="0" 
 />
    <glyph glyph-name=".null" horiz-adv-x="0" 
 />
    <glyph glyph-name="nonmarkingreturn" unicode="&#xd;" horiz-adv-x="239" 
 />
    <glyph glyph-name="space" unicode=" " horiz-adv-x="239" 
 />
    <glyph glyph-name="numbersign" unicode="#" horiz-adv-x="533" 
d="M597 466q0 -11 -7.5 -20t-21.5 -9h-89l-52 -163h71q15 0 22 -7.5t7 -18.5t-7 -20t-22 -9h-89l-60 -189q-5 -16 -11 -23.5t-17 -7.5q-13 0 -19.5 6.5t-6.5 15.5q0 10 8 34l51 164h-130l-60 -189q-5 -16 -11 -23.5t-17 -7.5q-13 0 -19.5 6.5t-6.5 15.5q0 10 8 34l51 164
h-73q-14 0 -21.5 7.5t-7.5 19.5q0 11 7 19.5t21 8.5h92l52 163h-74q-14 0 -21 8t-7 19t7 19.5t21 8.5h92l60 190q10 31 29 31q12 0 19 -6.5t7 -16.5q0 -9 -8 -33l-52 -165h130l60 190q10 31 29 31q12 0 19 -6.5t7 -16.5q0 -9 -8 -33l-52 -165h71q14 0 21.5 -7.5t7.5 -18.5z
M294 437l-52 -163h130l52 163h-130z" />
    <glyph glyph-name="dollar" unicode="$" 
d="M536 667q0 -14 -8.5 -23t-23.5 -9q-5 0 -12.5 1t-13.5 3q-35 10 -66 11l-49 -262q27 -18 51 -37t41.5 -41t27.5 -47.5t10 -56.5q0 -93 -54 -146t-148 -61l-8 -41q-6 -29 -27 -29q-10 0 -17 6t-7 17v4.5t1 6.5l6 35q-38 2 -74.5 9t-54.5 20q-12 9 -12 24t8.5 22.5
t22.5 7.5t38 -8q18 -6 40 -9.5t44 -4.5l53 284q-28 19 -51 38.5t-39.5 42t-26 48.5t-9.5 57q0 80 53 128.5t142 54.5l7 41q2 15 9.5 21.5t18.5 6.5t17.5 -6t6.5 -16v-4.5t-2 -10.5l-6 -32q27 -2 51.5 -7t43.5 -14q17 -8 17 -24zM361 651q-56 -5 -88.5 -35t-32.5 -80
q0 -41 20 -68.5t56 -53.5zM427 197q0 38 -19.5 64.5t-57.5 55.5l-48 -257q60 6 92.5 42.5t32.5 94.5z" />
    <glyph glyph-name="percent" unicode="%" horiz-adv-x="713" 
d="M420 583q0 -18 -3 -39q-7 -45 -22 -76t-35.5 -50.5t-46 -28t-52.5 -8.5q-23 0 -43.5 8.5t-36.5 25t-25 41.5t-9 57q0 18 3 39q7 45 22 76t35.5 50.5t46 28t52.5 8.5q23 0 43.5 -8.5t36.5 -25t25 -41.5t9 -57zM649 701q0 -11 -11 -29l-386 -661q-13 -22 -30 -22
q-11 0 -18.5 6.5t-7.5 16.5q0 7 2 13t8 16l387 661q13 22 30 22q11 0 18.5 -6.5t7.5 -16.5zM698 199q0 -18 -3 -39q-7 -44 -22 -75t-35.5 -50.5t-45.5 -28.5t-52 -9q-23 0 -44 8.5t-36.5 25t-24.5 41.5t-9 57q0 18 3 39q7 45 22 76t35.5 50.5t45.5 28.5t52 9q23 0 43.5 -8.5
t36.5 -25.5t25 -42t9 -57zM367 585q0 37 -16 57.5t-51 20.5q-42 0 -65 -27.5t-32 -89.5q-3 -18 -3 -35q0 -36 16 -57t51 -21q42 0 65 28t32 89q3 18 3 35zM646 201q0 37 -16.5 58t-51.5 21q-42 0 -65 -28t-32 -89q-3 -20 -3 -36q0 -36 16 -57t51 -21q42 0 65.5 28t32.5 89
q3 18 3 35z" />
    <glyph glyph-name="ampersand.sc" horiz-adv-x="504" 
d="M475 237q0 -24 -13 -49.5t-25 -42.5q-6 -8 -13 -17t-11 -14l38 -56q12 -17 12 -30q0 -33 -34 -33q-17 0 -30 19l-33 49q-41 -40 -81 -55.5t-86 -15.5q-63 0 -98 34.5t-35 94.5q0 59 32.5 103t96.5 82l-4 5q-19 28 -24.5 49t-5.5 42q0 63 41 98.5t106 35.5q28 0 57.5 -5
t45.5 -15q15 -8 15 -26q0 -34 -33 -34q-2 0 -8 1t-16 4q-15 4 -32.5 6.5t-34.5 2.5q-28 0 -51 -14.5t-23 -49.5q0 -18 8 -35.5t24 -39.5l118 -167q11 15 18.5 30t14.5 35q5 15 12 25t24 10q12 0 20 -7t8 -20zM230 260q-44 -26 -70.5 -55.5t-26.5 -71.5q0 -37 19 -57t54 -20
q36 0 66.5 14t59.5 42z" />
    <glyph glyph-name="quoteright" unicode="&#x2019;" horiz-adv-x="190" 
d="M276 686q0 -12 -9 -27l-76 -132q-7 -11 -14 -17t-18 -6q-14 0 -22 7.5t-8 18.5q0 12 9 27l76 132q7 11 14 17t18 6q14 0 22 -7.5t8 -18.5z" />
    <glyph glyph-name="parenleft" unicode="(" horiz-adv-x="206" 
d="M297 709q0 -12 -15 -37q-4 -7 -8.5 -16l-11.5 -23q-34 -74 -56.5 -155.5t-36.5 -156.5q-11 -60 -18 -124.5t-7 -127.5q0 -15 0.5 -36.5t3.5 -42.5q2 -13 3.5 -25t1.5 -21q0 -32 -27 -32q-24 0 -31 37q-5 26 -7.5 56.5t-2.5 64.5q0 63 6.5 129t16.5 122q7 42 19.5 93.5
t28.5 103t34.5 99t38.5 81.5q20 35 40 35q13 0 20.5 -7t7.5 -17z" />
    <glyph glyph-name="parenright" unicode=")" horiz-adv-x="206" 
d="M240 576q0 -63 -6.5 -129t-16.5 -122q-7 -42 -19.5 -93.5t-28.5 -103t-35 -99t-38 -81.5q-20 -35 -40 -35q-13 0 -20.5 7t-7.5 17q0 11 15 37q4 7 8.5 16l11.5 23q34 74 56.5 155.5t36.5 156.5q11 60 18 124.5t7 127.5q0 15 -0.5 36.5t-3.5 42.5q-2 13 -3.5 25t-1.5 21
q0 32 27 32q24 0 31 -37q5 -26 7.5 -56.5t2.5 -64.5z" />
    <glyph glyph-name="asterisk" unicode="*" horiz-adv-x="379" 
d="M450 610q0 -21 -21 -29l-106 -44l86 -44q16 -9 16 -25q0 -12 -7.5 -21t-21.5 -9q-12 0 -25 10l-68 55l-3 -47q0 -9 -1 -19t-1.5 -20t-1.5 -17t-1 -10q-2 -15 -10.5 -20.5t-20.5 -5.5q-11 0 -18.5 6t-7.5 17q0 8 2 15.5t7 27.5l19 74l-86 -56q-13 -9 -24 -9q-12 0 -20 7
t-8 20q0 21 21 29l106 44l-86 44q-16 9 -16 25q0 12 7.5 21t21.5 9q12 0 25 -10l68 -55l3 47q0 9 1 19t1.5 20t1.5 17t1 10q2 15 10.5 20.5t20.5 5.5q11 0 18.5 -6t7.5 -17q0 -8 -2 -15.5t-7 -27.5l-19 -74l86 56q13 9 24 9q12 0 20 -7t8 -20z" />
    <glyph glyph-name="plus" unicode="+" 
d="M571 253q0 -14 -9 -22.5t-24 -8.5h-184v-184q0 -15 -9 -24.5t-23 -9.5q-13 0 -22 9.5t-9 24.5v184h-184q-15 0 -24.5 8.5t-9.5 22.5t9.5 23t24.5 9h184v184q0 15 8.5 24t22.5 9t23 -9t9 -24v-184h184q15 0 24 -9t9 -23z" />
    <glyph glyph-name="comma" unicode="," horiz-adv-x="235" 
d="M173 65q0 -7 -2.5 -13t-7.5 -14l-74 -133q-12 -23 -33 -23q-13 0 -22 7.5t-9 18.5q0 7 2.5 13.5t7.5 14.5l76 133q6 11 13 17t18 6q13 0 22 -8t9 -19z" />
    <glyph glyph-name="hyphen" unicode="-" horiz-adv-x="348" 
d="M352 272q0 -12 -8 -22.5t-25 -10.5h-188q-17 0 -25.5 9t-8.5 21q0 13 8 23.5t25 10.5h188q17 0 25.5 -9t8.5 -22z" />
    <glyph glyph-name="period" unicode="." horiz-adv-x="234" 
d="M169 57q0 -25 -13 -42t-33 -17q-18 0 -29 10.5t-11 29.5q0 25 13 42t33 17q18 0 29 -10.5t11 -29.5z" />
    <glyph glyph-name="slash" unicode="/" horiz-adv-x="395" 
d="M484 693q0 -11 -9 -27l-370 -647q-7 -11 -14 -18t-21 -7q-12 0 -19.5 7t-7.5 18q0 13 8 26l371 648q7 11 14 17.5t20 6.5t20.5 -7t7.5 -17z" />
    <glyph glyph-name="zero.posf" horiz-adv-x="530" 
d="M514 335q0 -20 -1.5 -39t-5.5 -42q-11 -67 -34 -116t-55 -80.5t-71.5 -47t-84.5 -15.5q-39 0 -72.5 12.5t-58.5 37.5t-39 63t-14 88q0 19 1.5 37.5t5.5 42.5q10 67 32.5 116t55 80.5t72.5 47t85 15.5q39 0 73 -12.5t58.5 -37.5t38.5 -62.5t14 -87.5zM446 336
q0 69 -33 103.5t-86 34.5q-65 0 -110 -47t-64 -154q-4 -21 -5.5 -41.5t-1.5 -37.5q0 -69 33.5 -103.5t85.5 -34.5q65 0 110 47t64 154q4 21 5.5 41.5t1.5 37.5z" />
    <glyph glyph-name="one.posf" horiz-adv-x="297" 
d="M272 492q0 -3 -0.5 -7t-1.5 -9l-83 -435q-7 -42 -38 -42q-14 0 -23 9t-9 25q0 5 2 15l79 412h-79q-17 0 -26 9.5t-9 22.5t8.5 24t25.5 11h122q32 0 32 -35z" />
    <glyph glyph-name="two.posf" horiz-adv-x="461" 
d="M445 396q0 -32 -10.5 -59t-30.5 -52.5t-49.5 -51t-68.5 -54.5l-143 -109v-1h248q17 0 25.5 -9t8.5 -23q0 -12 -8.5 -23t-25.5 -11h-321q-16 0 -23.5 10t-7.5 23q0 15 5.5 25.5t19.5 21.5l179 142q28 22 52.5 42t42 39.5t27.5 39t10 40.5q0 39 -26 61.5t-86 22.5
q-26 0 -56 -7t-61 -20q-9 -4 -17 -4q-26 0 -26 27q0 22 23 35q26 16 67 25.5t88 9.5q78 0 121 -39.5t43 -100.5z" />
    <glyph glyph-name="three.posf" horiz-adv-x="441" 
d="M424 388q0 -32 -8.5 -62t-26 -55.5t-44 -45t-62.5 -29.5v-2q31 -8 52 -22t34 -32t18 -39t5 -43q0 -53 -17 -97t-48.5 -76.5t-78 -50.5t-104.5 -18q-41 0 -76.5 5.5t-54.5 19.5q-5 5 -9 10t-4 13q0 17 9.5 26t24.5 9q4 0 11 -2t13 -4q14 -5 38 -8t51 -3q83 0 129 46
t46 127q0 51 -35 77t-101 26h-15q-17 0 -26 9.5t-9 22.5q0 14 9 24.5t26 10.5h27q38 0 67.5 12t49.5 33t30.5 49t10.5 60q0 45 -27 68t-78 23q-44 0 -95 -19q-7 -2 -14.5 -4t-12.5 -2q-11 0 -17.5 7.5t-6.5 18.5q0 14 8.5 23.5t22.5 15.5q29 14 62 20t65 6q41 0 71 -11.5
t50 -31.5t30 -47t10 -58z" />
    <glyph glyph-name="four.posf" horiz-adv-x="500" 
d="M476 38q0 -13 -8.5 -23.5t-25.5 -10.5h-56l-26 -142q-7 -42 -37 -42q-14 0 -22.5 9t-8.5 23q0 7 2 17l24 135h-262q-17 0 -26 9.5t-9 23.5t5 24t18 27l330 414q12 15 24 24.5t31 9.5q44 0 44 -38v-9.5t-2 -12.5l-73 -407h44q17 0 25.5 -9.5t8.5 -21.5zM396 434l-291 -364
v-1h226l66 365h-1z" />
    <glyph glyph-name="five.posf" horiz-adv-x="448" 
d="M444 495q0 -13 -9 -24t-26 -11h-206l-41 -207h52q90 0 144 -38.5t54 -122.5q0 -58 -16.5 -108.5t-49.5 -88t-83 -59t-117 -21.5q-37 0 -71.5 5t-56.5 17q-17 9 -17 29q0 15 9.5 24t25.5 9q7 0 15.5 -2t16.5 -4q19 -6 37 -9t46 -3q91 0 140 55t49 147q0 44 -23 67
q-17 19 -46.5 28t-67.5 9h-78q-16 0 -24.5 8.5t-8.5 22.5v5t2 11l45 247q5 25 17 35.5t32 10.5h221q17 0 26 -9.5t9 -22.5z" />
    <glyph glyph-name="six.posf" horiz-adv-x="514" 
d="M490 267q0 -21 -3 -45q-7 -51 -25 -92.5t-46.5 -71.5t-67.5 -46.5t-88 -16.5q-47 0 -79.5 15t-53 42t-30 63t-9.5 78q0 17 1 34t3 34q9 70 31.5 141t59 132.5t87 106.5t116.5 63q14 4 28 6.5t30 3.5q15 0 26 -7t11 -24q0 -19 -12 -26t-30 -10q-50 -9 -89.5 -32.5
t-70 -57.5t-53 -77t-38.5 -91l2 -2q15 15 32 25.5t35 17t35.5 9t31.5 2.5q40 0 71 -13t52 -36t32 -55t11 -70zM420 258q0 55 -26.5 89t-83.5 34q-26 0 -50.5 -6.5t-45.5 -22.5t-36.5 -44.5t-22.5 -71.5q-2 -13 -2.5 -28t-0.5 -26q0 -57 28 -92t86 -35q63 0 102 41.5
t50 125.5q2 9 2 18v18z" />
    <glyph glyph-name="seven.posf" horiz-adv-x="481" 
d="M509 496q0 -11 -5.5 -23t-13.5 -26l-345 -596q-10 -17 -19.5 -24.5t-22.5 -7.5t-21.5 7.5t-8.5 21.5q0 7 2.5 13.5t10.5 19.5l339 579h-286q-18 0 -26.5 9.5t-8.5 22.5t8.5 24t25.5 11h339q17 0 24.5 -9.5t7.5 -21.5z" />
    <glyph glyph-name="eight.posf" 
d="M524 564q0 -68 -32 -116.5t-95 -64.5l1 -1q48 -14 74.5 -51.5t26.5 -97.5q0 -53 -15.5 -96.5t-45.5 -75t-74 -49t-101 -17.5q-88 0 -136 45.5t-48 120.5q0 42 9.5 80t29 67.5t48 49.5t66.5 27l-1 1q-39 14 -59.5 51.5t-20.5 81.5q0 47 15.5 83.5t43 61.5t64.5 38t80 13
q77 0 123.5 -39.5t46.5 -111.5zM456 558q0 50 -29.5 72t-74.5 22q-28 0 -52.5 -7t-43 -23t-29 -41.5t-10.5 -62.5q0 -48 28 -77.5t75 -29.5q63 0 99.5 38.5t36.5 108.5zM430 230q0 61 -32.5 92t-90.5 31q-72 0 -115.5 -46.5t-43.5 -131.5q0 -59 32.5 -88t89.5 -29
q81 0 120.5 45.5t39.5 126.5z" />
    <glyph glyph-name="nine.posf" horiz-adv-x="504" 
d="M486 338q0 -17 -1 -34t-3 -34q-9 -70 -31.5 -141t-59 -132.5t-87 -106.5t-116.5 -63q-14 -4 -28 -6.5t-30 -3.5q-15 0 -26 7t-11 24q0 19 12 26t30 10q49 9 88.5 32.5t70.5 57.5t53.5 77t38.5 91l-2 2q-15 -15 -32 -25.5t-35 -17t-35.5 -9t-31.5 -2.5q-40 0 -71 13
t-52 36t-32 55t-11 70q0 21 3 45q7 51 25 92.5t46.5 71.5t67.5 46.5t88 16.5q47 0 79.5 -15t53 -42t30 -63t9.5 -78zM422 349q0 57 -28 92t-86 35q-63 0 -102 -41.5t-50 -125.5q-2 -9 -2 -18v-18q0 -55 26.5 -89t83.5 -34q26 0 50.5 6.5t45.5 22.5t36 44t23 72q2 13 2.5 28
t0.5 26z" />
    <glyph glyph-name="colon" unicode=":" horiz-adv-x="234" 
d="M231 385q0 -24 -13 -41.5t-34 -17.5q-17 0 -28 10.5t-11 30.5q0 24 13 41.5t34 17.5q17 0 28 -10.5t11 -30.5zM169 57q0 -25 -13 -42t-33 -17q-18 0 -29 10.5t-11 29.5q0 24 13 41.5t34 17.5q17 0 28 -10.5t11 -29.5z" />
    <glyph glyph-name="semicolon" unicode=";" horiz-adv-x="236" 
d="M231 385q0 -24 -13 -41.5t-34 -17.5q-17 0 -28 10.5t-11 30.5q0 24 13 41.5t34 17.5q17 0 28 -10.5t11 -30.5zM173 65q0 -7 -2.5 -13t-7.5 -14l-74 -133q-12 -23 -33 -23q-13 0 -22 7.5t-9 18.5q0 7 2.5 13.5t7.5 14.5l76 133q6 11 13 17t18 6q13 0 22 -8t9 -19z" />
    <glyph glyph-name="less" unicode="&#x3c;" 
d="M557 33q0 -15 -8.5 -23t-19.5 -8t-26 7l-435 211q-23 11 -23 34q0 22 23 33l435 211q9 5 15 6t11 1q12 0 20 -7.5t8 -21.5q0 -21 -25 -33l-398 -189l399 -190q24 -11 24 -31z" />
    <glyph glyph-name="equal" unicode="=" 
d="M559 356q0 -14 -9.5 -23t-24.5 -9h-426q-14 0 -23.5 9t-9.5 23t9.5 23t23.5 9h426q15 0 24.5 -9t9.5 -23zM559 151q0 -14 -9.5 -23t-24.5 -9h-426q-14 0 -23.5 9t-9.5 23t9.5 23t23.5 9h426q15 0 24.5 -9t9.5 -23z" />
    <glyph glyph-name="greater" unicode="&#x3e;" 
d="M593 253q0 -22 -24 -33l-435 -211q-16 -8 -26 -8q-12 0 -20 8.5t-8 23.5q0 19 24 30l399 190l-398 190q-25 12 -25 33q0 14 8.5 21.5t19.5 7.5t27 -8l434 -210q24 -11 24 -34z" />
    <glyph glyph-name="question" unicode="?" horiz-adv-x="434" 
d="M504 578q0 -33 -10.5 -60.5t-27.5 -51t-39 -44.5t-44 -41q-16 -14 -32 -29t-30 -33t-25 -39t-18 -47q-7 -29 -34 -29q-11 0 -20 7t-9 21q0 10 4 26q7 29 20 52.5t29 43t34.5 36.5t36.5 32q39 34 67 70t28 81q0 32 -21.5 54.5t-76.5 22.5q-32 0 -60.5 -6.5t-61.5 -19.5
q-10 -4 -19 -4q-11 0 -18 8.5t-7 19.5t7 18.5t18 14.5q26 15 66.5 25t85.5 10q72 0 110 -31.5t45 -79.5q1 -7 1.5 -13.5t0.5 -13.5zM252 52q0 -23 -12 -38.5t-32 -15.5q-17 0 -26.5 9.5t-9.5 27.5q0 23 11.5 39t31.5 16q17 0 27 -10t10 -28z" />
    <glyph glyph-name="at" unicode="@" horiz-adv-x="809" 
d="M801 415q0 -64 -21 -112t-52 -80.5t-65.5 -49t-62.5 -16.5q-29 0 -43 12.5t-19 32.5q-2 5 -2 9.5v9.5h-2q-18 -28 -48.5 -45t-69.5 -17q-35 0 -62 13.5t-45.5 36.5t-28 53.5t-9.5 64.5q0 47 13.5 88.5t38 72.5t59.5 49t77 18q38 0 69 -17t49 -55h1l7 32q6 26 28 26
q12 0 19.5 -6t7.5 -17q0 -4 -1 -10.5t-3 -14.5l-44 -217q-5 -23 -5 -34t4.5 -18t18.5 -7q25 0 49.5 14t44 39.5t32 61.5t12.5 80q0 54 -19.5 99.5t-55.5 79.5t-87 53t-114 19q-69 0 -124.5 -28t-94 -73.5t-59 -103.5t-20.5 -117q0 -73 21.5 -127.5t59.5 -91t90 -54.5
t113 -18q67 0 122.5 17t92.5 43q18 12 33 26q10 9 21 9q8 0 15 -5t7 -16q0 -7 -4 -14t-15 -18q-42 -40 -113 -67t-158 -27q-75 0 -137.5 23t-107 67t-69.5 108t-25 146q0 70 25 137t71 119.5t111 85t144 32.5q74 0 135 -23.5t104.5 -64.5t67 -96t23.5 -117zM558 416
q0 37 -27 58.5t-69 21.5q-32 0 -56 -13t-41 -35.5t-25.5 -53.5t-8.5 -66q0 -46 23 -77.5t70 -31.5q44 0 74.5 22.5t40.5 70.5l16 77q2 7 2.5 14.5t0.5 12.5z" />
    <glyph glyph-name="A" unicode="A" horiz-adv-x="582" 
d="M557 36q0 -15 -8.5 -26t-26.5 -11q-16 0 -23.5 9.5t-9.5 23.5l-27 164h-295l-88 -168q-7 -12 -15.5 -20.5t-23.5 -8.5q-14 0 -22 7.5t-8 19.5q0 6 2 12.5t7 15.5l327 617q9 17 22 29t38 12q26 0 35 -13t12 -32l101 -609q3 -18 3 -22zM395 638h-2l-196 -381h257z" />
    <glyph glyph-name="B" unicode="B" horiz-adv-x="505" 
d="M523 569q0 -10 -1.5 -22.5t-3.5 -22.5q-21 -109 -118 -147v-1q53 -14 76.5 -50t23.5 -84q0 -12 -1 -24.5t-3 -24.5q-17 -96 -77.5 -143t-160.5 -47h-152q-32 0 -32 35q0 2 0.5 6t1.5 10l115 614q8 39 47 39h132q79 0 116 -39t37 -99zM454 562q0 38 -21.5 59.5t-70.5 21.5
h-107l-44 -238h116q44 0 78.5 29t45.5 95q3 18 3 33zM430 241q0 43 -26 72.5t-90 29.5h-115l-51 -276h117q27 0 52 5.5t46.5 19.5t37.5 39.5t24 66.5q5 23 5 43z" />
    <glyph glyph-name="C" unicode="C" 
d="M576 666q0 -18 -10.5 -26t-24.5 -8q-13 0 -31 5q-20 6 -39.5 8.5t-42.5 2.5q-107 0 -165.5 -74.5t-80.5 -213.5q-5 -26 -6.5 -50t-1.5 -45q0 -107 48 -155.5t135 -48.5q40 0 79 10q15 4 25 4q13 0 21.5 -6t8.5 -21q0 -13 -7.5 -21t-21.5 -14q-26 -11 -57.5 -14.5
t-66.5 -3.5q-50 0 -93.5 15t-75 47t-49.5 83t-18 122q0 23 2 47t6 51q13 91 41.5 158t70.5 111t95.5 65t116.5 21q36 0 68.5 -5t55.5 -17q8 -4 13 -10.5t5 -16.5z" />
    <glyph glyph-name="D" unicode="D" horiz-adv-x="579" 
d="M604 455q0 -23 -1.5 -48.5t-6.5 -51.5q-30 -184 -118.5 -268t-226.5 -84h-145q-32 0 -32 35v5t2 11l115 613q8 40 47 40h126q121 0 180.5 -65t59.5 -187zM533 460q0 42 -9 75.5t-29.5 57t-53 36t-78.5 12.5h-108l-107 -572h114q115 0 175 72t86 215q5 28 7.5 54.5
t2.5 49.5z" />
    <glyph glyph-name="E" unicode="E" horiz-adv-x="437" 
d="M504 675q0 -13 -9 -24t-26 -11h-214l-47 -251h192q18 0 26.5 -9t8.5 -23q0 -13 -8.5 -23.5t-25.5 -10.5h-206l-47 -253h214q17 0 26 -9.5t9 -22.5t-9 -24t-26 -11h-255q-32 0 -32 35v6t2 11l114 610q4 20 15.5 31t31.5 11h231q17 0 26 -9.5t9 -22.5z" />
    <glyph glyph-name="F" unicode="F" horiz-adv-x="437" 
d="M504 675q0 -13 -8.5 -24t-25.5 -11h-215l-47 -251h177q18 0 26.5 -9t8.5 -23q0 -13 -8.5 -23.5t-25.5 -10.5h-190l-53 -282q-7 -42 -38 -42t-31 34v5t2 11l116 619q3 17 15 28t28 11h234q17 0 26 -9.5t9 -22.5z" />
    <glyph glyph-name="G" unicode="G" horiz-adv-x="585" 
d="M591 663q0 -17 -10.5 -25.5t-24.5 -8.5q-7 0 -15 1t-20 5q-23 7 -43 10t-43 3q-112 0 -171 -72.5t-81 -215.5q-9 -57 -9 -105q0 -97 41.5 -146t131.5 -49q32 0 57 6t40 14q4 2 7 5.5t5 10.5l39 210h-109q-17 0 -26 9.5t-9 22.5t9 24t26 11h150q32 0 32 -35q0 -3 -0.5 -7
t-1.5 -9l-45 -246q-2 -13 -8 -22t-18 -17q-25 -15 -64.5 -28.5t-93.5 -13.5q-110 0 -172.5 62t-62.5 196q0 24 1.5 51t6.5 56q15 97 45.5 164.5t73.5 110t96.5 61.5t113.5 19q33 0 68.5 -6.5t60.5 -17.5q10 -5 16.5 -11t6.5 -17z" />
    <glyph glyph-name="H" unicode="H" horiz-adv-x="638" 
d="M664 679q0 -7 -2 -17l-116 -621q-7 -42 -38 -42q-14 0 -22.5 9t-8.5 23q0 7 2 17l52 282h-321l-54 -289q-7 -42 -38 -42q-14 0 -22.5 9t-8.5 23q0 7 2 17l116 621q7 42 38 42q14 0 22.5 -9t8.5 -23q0 -7 -2 -17l-50 -266h321l52 273q9 42 38 42q14 0 22.5 -9t8.5 -23z
" />
    <glyph glyph-name="I" unicode="I" horiz-adv-x="232" 
d="M261 679q0 -7 -2 -17l-116 -621q-7 -42 -38 -42q-14 0 -22.5 9t-8.5 23q0 7 2 17l116 621q7 42 38 42q14 0 22.5 -9t8.5 -23z" />
    <glyph glyph-name="J" unicode="J" horiz-adv-x="373" 
d="M402 679q0 -7 -2 -17l-92 -494q-16 -87 -60.5 -130t-113.5 -43q-30 0 -62 7.5t-52 22.5q-11 9 -11 23q0 16 9.5 24.5t25.5 8.5q7 0 14 -2.5t15 -5.5q31 -12 61 -12q25 0 43.5 9.5t31.5 26.5t21 39.5t13 48.5l90 484q7 42 38 42q14 0 22.5 -9t8.5 -23z" />
    <glyph glyph-name="K" unicode="K" horiz-adv-x="522" 
d="M593 684q0 -12 -5.5 -20.5t-15.5 -17.5l-308 -285l215 -302q9 -13 9 -25q0 -17 -10 -26t-24 -9q-20 0 -36 24l-218 320l-56 -302q-7 -42 -38 -42q-14 0 -22.5 9t-8.5 23q0 7 2 17l115 621q7 42 38 42q14 0 22.5 -9t8.5 -23q0 -7 -2 -17l-52 -279l322 310q11 11 18.5 15
t16.5 4q11 0 20 -7.5t9 -20.5z" />
    <glyph glyph-name="L" unicode="L" horiz-adv-x="392" 
d="M372 38q0 -13 -9 -24t-26 -11h-230q-32 0 -32 35q0 2 0.5 6.5t1.5 9.5l115 615q7 42 38 42q14 0 22.5 -9t8.5 -23q0 -7 -2 -17l-111 -592h189q17 0 26 -9.5t9 -22.5z" />
    <glyph glyph-name="M" unicode="M" horiz-adv-x="796" 
d="M799 666q0 -2 -0.5 -11t-1.5 -17l-53 -599q-3 -40 -37 -40q-32 0 -32 36v7.5t1 12.5l56 555h-2l-295 -580q-7 -13 -16 -21t-26 -8t-25.5 9.5t-10.5 22.5l-85 579h-2l-146 -574q-5 -18 -13 -28.5t-26 -10.5q-11 0 -20.5 7t-9.5 21q0 8 1.5 15.5t6.5 24.5l158 597
q7 26 21.5 37t37.5 11q20 0 31.5 -11.5t13.5 -28.5l81 -569h2l293 574q8 17 20.5 26t32.5 9q19 0 32 -11t13 -35z" />
    <glyph glyph-name="N" unicode="N" horiz-adv-x="612" 
d="M669 678q0 -2 -0.5 -6t-1.5 -9l-116 -623q-4 -21 -14.5 -29.5t-26.5 -8.5q-14 0 -23 8.5t-14 19.5l-232 559h-2l-100 -547q-7 -42 -37 -42q-13 0 -21.5 8.5t-8.5 22.5q0 4 0.5 8t1.5 9l117 623q4 22 15.5 31t27.5 9q11 0 20.5 -6.5t13.5 -16.5l232 -564h2l100 546
q7 41 38 41q14 0 21.5 -9t7.5 -24z" />
    <glyph glyph-name="O" unicode="O" horiz-adv-x="612" 
d="M637 461q0 -47 -9 -107q-28 -176 -108 -267.5t-208 -91.5q-105 0 -161 64t-56 190q0 48 9 108q27 175 107 266t208 91q106 0 162 -63.5t56 -189.5zM565 464q0 95 -38 139.5t-113 44.5q-97 0 -154 -67.5t-82 -220.5q-5 -33 -8 -61t-3 -53q0 -96 38 -140.5t113 -44.5
q97 0 153.5 68.5t82.5 221.5q5 32 8 60t3 53z" />
    <glyph glyph-name="P" unicode="P" horiz-adv-x="489" 
d="M543 543q0 -9 -0.5 -20.5t-2.5 -22.5q-15 -107 -79 -159t-165 -52h-106l-47 -248q-7 -42 -38 -42q-14 0 -22.5 9t-8.5 23q0 7 2 17l116 622q3 15 14.5 26t27.5 11h118q93 0 142 -41.5t49 -122.5zM472 544q0 55 -31.5 77t-86.5 22h-99l-53 -291h102q42 0 71 11.5t48 31.5
t30 48.5t16 61.5q3 22 3 39z" />
    <glyph glyph-name="Q" unicode="Q" horiz-adv-x="637" 
d="M642 464q0 -48 -9 -106q-35 -218 -154 -294v-3q12 2 28 3.5t32.5 2.5t31 1.5t23.5 0.5q17 0 26 -9.5t9 -22.5t-8.5 -23.5t-25.5 -10.5h-275q-105 0 -162.5 62.5t-57.5 187.5q0 26 2 51.5t7 55.5q27 175 107 264.5t208 89.5q106 0 162 -62t56 -188zM570 467q0 95 -38 138
t-113 43q-48 0 -86.5 -16t-67.5 -50.5t-49 -89t-33 -130.5q-5 -33 -8 -60t-3 -52q0 -95 39.5 -138t114.5 -43q48 0 85.5 16t66 51t48.5 89t33 131q5 32 8 59t3 52z" />
    <glyph glyph-name="R" unicode="R" horiz-adv-x="510" 
d="M547 550q0 -52 -19.5 -98.5t-57.5 -75.5q-50 -39 -129 -44l111 -278l4 -12t2 -12q0 -13 -8.5 -22t-25.5 -9q-14 0 -22.5 8.5t-11.5 17.5l-116 306h-76l-54 -290q-7 -42 -38 -42q-14 0 -22.5 9t-8.5 23q0 7 2 17l116 620q4 19 16.5 29t30.5 10h135q87 0 129.5 -43
t42.5 -114zM477 549q0 27 -9 45t-24 29t-35 15.5t-42 4.5h-111l-47 -251h125q56 0 92 30q26 21 38.5 55t12.5 72z" />
    <glyph glyph-name="S" unicode="S" horiz-adv-x="455" 
d="M493 667q0 -18 -10 -26t-26 -8q-7 0 -14.5 1.5t-20.5 4.5q-19 5 -39 7.5t-41 2.5q-66 0 -104.5 -28.5t-38.5 -84.5q0 -24 8.5 -43t24 -36t38 -33t49.5 -34t51 -37t41 -41t27 -48t10 -58q0 -50 -17 -89.5t-47.5 -66.5t-74.5 -41t-98 -14q-21 0 -43 2t-42.5 5.5t-37.5 9.5
t-27 14q-13 10 -13 25q0 16 10 24.5t24 8.5q8 0 17 -2.5t20 -5.5q21 -7 47 -11t55 -4q74 0 115 36t41 100q0 43 -29 75t-92 73q-27 18 -49.5 37t-39.5 41t-26.5 48t-9.5 58q0 42 15.5 76.5t43.5 59t68 37.5t88 13q35 0 70.5 -5.5t58.5 -16.5q18 -8 18 -26z" />
    <glyph glyph-name="T" unicode="T" horiz-adv-x="479" 
d="M562 675q0 -13 -8.5 -24t-25.5 -11h-143l-112 -599q-7 -42 -38 -42q-14 0 -22.5 9t-8.5 23q0 7 2 17l110 592h-135q-17 0 -26 9.5t-9 22.5t9 24t26 11h346q17 0 26 -9.5t9 -22.5z" />
    <glyph glyph-name="U" unicode="U" horiz-adv-x="619" 
d="M660 679q0 -7 -2 -17l-77 -417q-11 -58 -31 -104.5t-52.5 -79t-78.5 -50t-109 -17.5q-98 0 -150 48.5t-52 133.5q0 17 1.5 34.5t5.5 37.5l79 421q7 42 38 42q14 0 22.5 -9t8.5 -23q0 -7 -2 -17l-81 -434q-4 -23 -4 -47q0 -62 36 -92t105 -30q81 0 128 43.5t63 128.5
l83 438q7 42 38 42q14 0 22.5 -9t8.5 -23z" />
    <glyph glyph-name="V" unicode="V" horiz-adv-x="543" 
d="M647 682q0 -8 -3 -16.5t-11 -24.5l-301 -605q-7 -14 -19 -25t-34 -11q-21 0 -30.5 10.5t-11.5 25.5l-99 607q-2 14 -3 20t-1 11q0 14 9 25.5t26 11.5q16 0 24.5 -9.5t10.5 -24.5l86 -596h2l285 603q6 13 14.5 20t22.5 7t23.5 -7.5t9.5 -21.5z" />
    <glyph glyph-name="W" unicode="W" horiz-adv-x="820" 
d="M892 682q0 -8 -2.5 -16t-8.5 -24l-216 -604q-6 -17 -19 -28t-33 -11q-41 0 -44 40l-51 575h-2l-250 -579q-15 -36 -53 -36q-19 0 -31 11t-12 31l-9 617q0 23 6.5 38.5t29.5 15.5q18 0 26.5 -11t8.5 -28l-6 -582h2l251 585q5 12 17 22.5t33 10.5q20 0 30.5 -10t12.5 -27
l52 -580h1l196 587q5 14 14 23.5t23 9.5t24 -8t10 -22z" />
    <glyph glyph-name="X" unicode="X" horiz-adv-x="549" 
d="M623 684q0 -16 -14 -33l-240 -293l138 -304q5 -11 5 -22q0 -14 -9 -23.5t-25 -9.5q-23 0 -33 24l-123 280l-225 -282q-17 -22 -36 -22q-14 0 -22.5 8.5t-8.5 19.5q0 15 14 32l251 306l-129 290q-6 12 -6 24q0 14 9.5 23.5t24.5 9.5q22 0 32 -22l116 -269l213 268
q18 23 37 23q14 0 22.5 -8.5t8.5 -19.5z" />
    <glyph glyph-name="Y" unicode="Y" horiz-adv-x="475" 
d="M586 684q0 -9 -4.5 -18t-15.5 -23l-240 -305l-56 -297q-7 -42 -38 -42q-14 0 -22.5 9t-8.5 23q0 7 2 17l55 290l-129 312q-7 15 -7 27q0 14 9 24.5t26 10.5q13 0 20.5 -7t11.5 -17l113 -286l219 290q7 9 15 14.5t19 5.5q15 0 23 -8.5t8 -19.5z" />
    <glyph glyph-name="Z" unicode="Z" horiz-adv-x="507" 
d="M567 674q0 -13 -5 -23.5t-13 -21.5l-406 -560h313q17 0 25.5 -9.5t8.5 -22.5t-8.5 -23.5t-25.5 -10.5h-362q-21 0 -29 10t-8 24q0 13 4.5 23t18.5 28l399 553h-298q-17 0 -25.5 9.5t-8.5 22.5t8.5 23.5t25.5 10.5h352q19 0 26.5 -11t7.5 -22z" />
    <glyph glyph-name="bracketleft" unicode="[" horiz-adv-x="227" 
d="M335 684q0 -11 -8 -21t-23 -10h-45l-124 -666h35q16 0 24 -8.5t8 -19.5q0 -12 -8 -21.5t-23 -9.5h-71q-15 0 -24.5 9t-9.5 24q0 5 3 20l130 696q3 15 14 25.5t28 10.5h62q16 0 24 -9t8 -20z" />
    <glyph glyph-name="backslash" unicode="\" horiz-adv-x="395" 
d="M362 23q0 -12 -8 -20.5t-22 -8.5q-25 0 -31 29l-130 643q-2 8 -2.5 12.5t-0.5 10.5q0 12 8 20.5t22 8.5q25 0 31 -29l130 -643q2 -8 2.5 -12.5t0.5 -10.5z" />
    <glyph glyph-name="bracketright" unicode="]" horiz-adv-x="227" 
d="M280 680q0 -5 -3 -20l-130 -696q-3 -15 -14 -25.5t-28 -10.5h-62q-16 0 -24 9t-8 20t8 21t23 10h45l124 666h-35q-16 0 -24 8.5t-8 19.5q0 12 8 21.5t23 9.5h71q15 0 24.5 -9t9.5 -24z" />
    <glyph glyph-name="asciicircum" unicode="^" 
d="M585 303q0 -14 -9.5 -20.5t-20.5 -6.5q-12 0 -19 6.5t-13 17.5l-179 326l-178 -325q-6 -11 -14 -18t-20 -7q-11 0 -20 6.5t-9 19.5q0 10 7 23l200 364q7 12 15.5 16.5t18.5 4.5t18 -4.5t15 -16.5l202 -364q4 -7 5 -12t1 -10z" />
    <glyph glyph-name="underscore" unicode="_" horiz-adv-x="483" 
d="M482 -99q0 -8 -5.5 -15t-16.5 -7h-478q-11 0 -17 6t-6 14q0 9 5.5 16t16.5 7h479q11 0 16.5 -6.5t5.5 -14.5z" />
    <glyph glyph-name="quoteleft" unicode="&#x2018;" horiz-adv-x="190" 
d="M288 686q0 -12 -9 -27l-76 -132q-7 -11 -14 -17t-18 -6q-14 0 -22 7.5t-8 18.5q0 12 9 27l76 132q7 11 14 17t18 6q14 0 22 -7.5t8 -18.5z" />
    <glyph glyph-name="a" unicode="a" horiz-adv-x="463" 
d="M473 403q0 -18 -3 -36l-60 -326q-4 -20 -12.5 -30.5t-26.5 -10.5q-15 0 -24.5 10t-4.5 28l9 38q-25 -35 -66 -58.5t-92 -23.5q-35 0 -60.5 11t-43 30t-26 44t-8.5 53q0 87 63 132t184 50l92 4l8 43q3 16 3 29q0 38 -24.5 59t-81.5 21q-21 0 -43 -2.5t-54 -10.5
q-9 -2 -16 -3t-11 -1q-12 0 -20 7t-8 21q0 12 6.5 19.5t16.5 11.5q57 21 140 21q81 0 122 -35t41 -95zM307 260q-43 -2 -77 -9t-58 -21t-36.5 -36.5t-12.5 -56.5q0 -35 21 -58.5t67 -23.5q33 0 60 11.5t47 31t33 45t19 53.5l14 68z" />
    <glyph glyph-name="b" unicode="b" horiz-adv-x="536" 
d="M547 340q0 -17 -1 -36.5t-5 -39.5q-11 -60 -32 -109t-51.5 -84.5t-70 -55t-85.5 -19.5q-24 0 -48 7.5t-44.5 21t-36 32.5t-22.5 43l-11 -60q-4 -22 -13 -31t-24 -9q-31 0 -31 32q0 2 0.5 8t4.5 25l123 658q7 41 37 41q31 0 31 -32q0 -3 -0.5 -7.5t-1.5 -9.5l-49 -264
q30 40 73.5 62.5t88.5 22.5q81 0 124.5 -53t43.5 -143zM478 336q0 29 -6.5 54t-20.5 43.5t-36 29t-52 10.5q-28 0 -56 -12t-51.5 -33.5t-41 -52t-24.5 -66.5l-12 -61q-6 -30 -6 -55q0 -30 10.5 -55t28 -42.5t40.5 -27t48 -9.5q46 0 80 26.5t56 67.5t32.5 90t10.5 93z" />
    <glyph glyph-name="c" unicode="c" horiz-adv-x="421" 
d="M451 494q0 -17 -9 -25t-23 -8q-5 0 -13 1t-16 3q-14 3 -28.5 4.5t-27.5 1.5q-78 0 -124.5 -53t-60.5 -151q-2 -16 -3.5 -30.5t-1.5 -28.5q0 -73 35.5 -111t107.5 -38q14 0 28.5 2t27.5 5q8 2 14 3t11 1q12 0 20 -7t8 -19t-6 -19.5t-15 -12.5q-23 -11 -51 -14t-48 -3
q-102 0 -151.5 56.5t-49.5 151.5q0 15 1.5 31t3.5 33q8 60 28.5 110t53.5 85t78.5 54.5t104.5 19.5q20 0 45 -3.5t42 -11.5q8 -4 13.5 -10.5t5.5 -16.5z" />
    <glyph glyph-name="d" unicode="d" horiz-adv-x="540" 
d="M593 732q0 -2 -0.5 -8t-4.5 -25l-123 -658q-7 -41 -37 -41q-31 0 -31 32q0 2 0.5 7t1.5 10l6 32q-30 -40 -69.5 -62.5t-92.5 -22.5q-36 0 -67 14t-53.5 39.5t-35 61.5t-12.5 81q0 17 1 36t5 39q11 60 32 109.5t51.5 85t69.5 55t86 19.5q24 0 48 -7.5t44.5 -21t35.5 -32.5
t23 -43l54 292q4 22 13 31t24 9q31 0 31 -32zM450 339q0 30 -10.5 55t-28 42.5t-40.5 27t-48 9.5q-47 0 -80.5 -26.5t-55.5 -67.5t-32.5 -90t-10.5 -93q0 -29 6.5 -54t20.5 -43.5t36 -29t52 -10.5q32 0 60.5 12t51 33.5t38.5 52t23 66.5l12 61q3 14 4.5 29t1.5 26z" />
    <glyph glyph-name="e" unicode="e" horiz-adv-x="470" 
d="M480 358q0 -17 -1 -34t-5 -36q-3 -16 -14 -28t-34 -12h-283q-2 -11 -2 -22v-21q0 -75 38 -111.5t101 -36.5q14 0 35.5 1.5t36.5 5.5q7 2 14.5 3t12.5 1q28 0 28 -26q0 -22 -23 -32q-25 -10 -57 -12.5t-53 -2.5q-90 0 -144.5 53t-54.5 158q0 70 15.5 130t46 104t75.5 69.5
t103 25.5q82 0 123.5 -46.5t41.5 -130.5zM415 365q0 55 -25 83t-82 28q-67 0 -103.5 -45t-52.5 -128h256q7 32 7 62z" />
    <glyph glyph-name="f" unicode="f" horiz-adv-x="271" 
d="M404 731q0 -16 -10.5 -23.5t-24.5 -7.5h-31q-23 0 -38 -10t-22 -47l-22 -117h50q17 0 26 -8.5t9 -21.5q0 -14 -9 -22.5t-26 -8.5h-61l-80 -424q-7 -42 -37 -42q-14 0 -22.5 9t-8.5 24v5t2 11l77 417h-33q-17 0 -24.5 9t-7.5 21t7.5 21.5t24.5 9.5h45l23 123
q13 67 47 91.5t82 24.5q13 0 22.5 -1t19.5 -4q22 -6 22 -29z" />
    <glyph glyph-name="g" unicode="g" horiz-adv-x="515" 
d="M573 490q0 -13 -7.5 -21t-23.5 -8h-54q21 -35 21 -76q0 -102 -58 -152t-158 -50q-36 0 -60 4t-42 13q-27 -14 -27 -50q0 -15 10.5 -29t48.5 -14h112q83 0 118 -30t35 -92q0 -39 -15 -74.5t-45.5 -62t-76.5 -42.5t-108 -16q-92 0 -140.5 36.5t-48.5 103.5q0 96 74 146
q-14 11 -20 27.5t-6 35.5q0 58 47 90q-20 17 -29.5 42.5t-9.5 57.5q0 98 57 152.5t157 54.5q32 0 59.5 -4.5t50.5 -14.5h108q16 0 23.5 -7.5t7.5 -19.5zM442 386q0 51 -32.5 71t-91.5 20q-68 0 -104 -37t-36 -108q0 -48 30.5 -69t87.5 -21q77 0 111.5 34.5t34.5 109.5z
M419 -25q0 41 -22 56.5t-74 15.5h-92q-11 0 -25 1.5t-24 3.5q-26 -13 -43.5 -41.5t-17.5 -71.5q0 -45 32 -65.5t92 -20.5q87 0 130.5 34t43.5 88z" />
    <glyph glyph-name="h" unicode="h" horiz-adv-x="518" 
d="M524 409q0 -13 -1.5 -25.5t-3.5 -24.5l-60 -318q-7 -42 -37 -42q-14 0 -22.5 9t-8.5 24v6t2 12l59 312q3 16 3 30q0 41 -23 59.5t-67 18.5q-36 0 -70 -15.5t-60 -37.5q-12 -11 -20.5 -23t-10.5 -25l-62 -328q-7 -42 -37 -42q-14 0 -22.5 9t-8.5 24v6t2 12l126 673
q7 42 37 42q14 0 22.5 -9t8.5 -24v-6t-2 -12l-46 -251q30 32 71.5 52t89.5 20q63 0 102 -31.5t39 -94.5z" />
    <glyph glyph-name="i" unicode="i" horiz-adv-x="215" 
d="M271 690q0 -24 -13 -41t-33 -17q-17 0 -28 10.5t-11 29.5q0 23 13 40.5t33 17.5q17 0 28 -10.5t11 -29.5zM227 498q0 -2 -0.5 -6t-1.5 -9l-82 -441q-7 -43 -37 -43q-15 0 -23 9t-8 24q0 6 2 16l82 441q7 42 38 42q14 0 22 -9t8 -24z" />
    <glyph glyph-name="j" unicode="j" horiz-adv-x="215" 
d="M271 690q0 -24 -13 -41t-33 -17q-17 0 -28 10.5t-11 29.5q0 23 13 40.5t33 17.5q17 0 28 -10.5t11 -29.5zM228 498q0 -5 -2 -15l-93 -501q-3 -19 -9.5 -40t-18 -42.5t-29 -43t-42.5 -40.5q-14 -11 -23 -14.5t-17 -3.5q-14 0 -21.5 8t-7.5 22q0 11 7 19.5t16 16.5
q20 16 33.5 30t22.5 29t14 31.5t9 37.5l92 497q7 42 38 42q14 0 22.5 -9t8.5 -24z" />
    <glyph glyph-name="k" unicode="k" horiz-adv-x="469" 
d="M508 505q0 -11 -5.5 -19t-13.5 -14l-242 -179l177 -237q9 -13 9 -25q0 -14 -9 -23t-25 -9q-20 0 -31 16l-184 256l-43 -230q-7 -42 -37 -42q-14 0 -22.5 9t-8.5 24v6t2 12l126 673q7 42 37 42q14 0 22.5 -9t8.5 -24v-6t-2 -12l-73 -387l246 189q20 17 37 17q13 0 22 -8
t9 -20z" />
    <glyph glyph-name="l" unicode="l" horiz-adv-x="224" 
d="M269 732v-6t-2 -12l-126 -673q-7 -42 -37 -42q-14 0 -22.5 9t-8.5 24v6t2 12l126 673q7 42 37 42q14 0 22.5 -9t8.5 -24z" />
    <glyph glyph-name="m" unicode="m" horiz-adv-x="804" 
d="M800 409q0 -13 -1.5 -25.5t-3.5 -24.5l-60 -318q-7 -42 -37 -42q-14 0 -22.5 9t-8.5 24v6t2 12l59 312q3 16 3 30q0 38 -16 58t-60 20q-36 0 -67 -15.5t-57 -37.5q-12 -11 -20.5 -23t-10.5 -25l-62 -328q-7 -42 -37 -42q-14 0 -22.5 9t-8.5 24v6t2 12l59 312q3 16 3 30
q0 38 -16 58t-60 20q-36 0 -67 -15.5t-57 -37.5q-12 -11 -20.5 -23t-10.5 -25l-62 -328q-9 -42 -37 -42q-14 0 -22.5 9t-8.5 24v6t2 12l83 439q9 42 37 42q14 0 22.5 -9t8.5 -24v-6t-2 -12l-3 -17q29 32 68 52t87 20q51 0 81.5 -23t40.5 -64q40 46 83.5 66.5t91.5 20.5
q63 0 95 -34.5t32 -91.5z" />
    <glyph glyph-name="n" unicode="n" horiz-adv-x="518" 
d="M523 409q0 -13 -1.5 -25.5t-3.5 -24.5l-60 -318q-7 -42 -37 -42q-14 0 -22.5 9t-8.5 24v6t2 12l59 312q3 16 3 30q0 41 -23 59.5t-67 18.5q-36 0 -70 -15.5t-60 -37.5q-12 -11 -20.5 -23t-10.5 -25l-62 -328q-9 -42 -37 -42q-14 0 -22.5 9t-8.5 24v6t2 12l83 439
q9 42 37 42q14 0 22.5 -9t8.5 -24v-6t-2 -12l-3 -17q30 32 71.5 52t89.5 20q63 0 102 -31.5t39 -94.5z" />
    <glyph glyph-name="o" unicode="o" horiz-adv-x="493" 
d="M511 335q0 -20 -1.5 -39t-5.5 -42q-23 -135 -87 -197t-158 -62q-83 0 -133.5 50t-50.5 151q0 19 1.5 37.5t5.5 42.5q10 67 32 116t53.5 81t72 47t87.5 15q84 0 134 -49.5t50 -150.5zM443 336q0 138 -119 138q-72 0 -113.5 -47t-60.5 -154q-4 -21 -5.5 -41.5t-1.5 -37.5
q0 -138 119 -138q72 0 113.5 47t60.5 154q4 21 5.5 41.5t1.5 37.5z" />
    <glyph glyph-name="p" unicode="p" horiz-adv-x="529" 
d="M547 339q0 -17 -1 -36t-5 -39q-11 -60 -32 -109.5t-51.5 -85t-70 -55t-85.5 -19.5q-24 0 -48 7.5t-44.5 21t-36 32.5t-22.5 43l-50 -269q-4 -22 -13 -31t-24 -9q-31 0 -31 32q0 2 0.5 8t4.5 25l119 635q7 41 37 41q31 0 31 -32q0 -2 -0.5 -7t-1.5 -10l-6 -32
q30 40 69.5 62.5t92.5 22.5q36 0 67 -14t53.5 -39.5t35 -61.5t12.5 -81zM478 335q0 29 -6.5 54t-20.5 43.5t-36 29t-52 10.5q-32 0 -60.5 -12t-51 -33.5t-38.5 -52t-23 -66.5l-12 -61q-3 -14 -4.5 -29t-1.5 -26q0 -30 10.5 -55t28 -42.5t40.5 -27t48 -9.5q46 0 80 26.5
t56 67.5t32.5 90t10.5 93z" />
    <glyph glyph-name="q" unicode="q" horiz-adv-x="522" 
d="M550 499q0 -2 -0.5 -8t-4.5 -25l-119 -635q-7 -41 -37 -41q-31 0 -31 32q0 2 0.5 7t1.5 10l45 241q-30 -40 -73.5 -62.5t-88.5 -22.5q-81 0 -124.5 53t-43.5 143q0 17 1 36t5 39q10 60 31.5 109.5t52 85t69.5 55t86 19.5q24 0 48 -7.5t44.5 -21t35.5 -32.5t23 -43l11 60
q4 22 13 31t24 9q31 0 31 -32zM450 338q0 30 -10.5 55t-28 42.5t-40.5 27t-48 9.5q-47 0 -80.5 -26.5t-55.5 -67.5t-32.5 -90t-10.5 -93q0 -29 6.5 -54t20.5 -43.5t36 -29t52 -10.5q28 0 56 12t51.5 33.5t41 52t24.5 66.5l12 61q3 14 4.5 29t1.5 26z" />
    <glyph glyph-name="r" unicode="r" horiz-adv-x="323" 
d="M395 502q0 -22 -14 -29.5t-35 -9.5q-26 -2 -55.5 -11.5t-53.5 -31.5q-13 -11 -23 -26.5t-15 -41.5l-58 -311q-7 -42 -37 -42q-14 0 -22.5 9t-8.5 24v6t2 12l83 439q9 42 37 42q30 0 30 -28q0 -7 -3 -22l-4 -20h1q23 28 61.5 49.5t76.5 21.5q17 0 27.5 -7.5t10.5 -22.5z
" />
    <glyph glyph-name="s" unicode="s" horiz-adv-x="424" 
d="M429 488q0 -17 -9 -24.5t-22 -7.5q-12 0 -30 5t-38 8.5t-43 3.5q-49 0 -76 -20.5t-27 -54.5q0 -31 24 -53.5t67 -46.5q30 -17 52.5 -32.5t37.5 -32t22 -36.5t7 -45q0 -76 -51 -116.5t-139 -40.5q-81 0 -129 24q-16 8 -16 27q0 17 10.5 24.5t23.5 7.5q8 0 23 -5
q18 -7 39.5 -10.5t56.5 -3.5q56 0 86 22.5t30 64.5q0 28 -21 50t-70 49q-26 14 -47 28.5t-37 32t-24.5 38.5t-8.5 49q0 66 49 104.5t130 38.5q28 0 58.5 -5.5t54.5 -16.5q6 -3 11.5 -9.5t5.5 -16.5z" />
    <glyph glyph-name="t" unicode="t" horiz-adv-x="300" 
d="M357 496q0 -14 -9 -22.5t-26 -8.5h-63l-79 -424q-7 -42 -37 -42q-14 0 -22.5 9t-8.5 24v6t2 12l77 415h-48q-17 0 -24.5 9t-7.5 21t7.5 21.5t24.5 9.5h60l23 122q7 42 37 42q14 0 22.5 -9t8.5 -24v-6t-2 -12l-21 -113h51q17 0 26 -8.5t9 -21.5z" />
    <glyph glyph-name="u" unicode="u" horiz-adv-x="501" 
d="M527 499v-6t-2 -12l-54 -291q-17 -92 -68.5 -143.5t-153.5 -51.5q-80 0 -123 41t-43 112q0 11 1 23.5t4 26.5l54 292q7 42 37 42q14 0 22.5 -9t8.5 -24v-6t-2 -12l-53 -284q-2 -10 -4 -23.5t-2 -21.5q0 -50 30.5 -72t76.5 -22q29 0 53 7t42.5 23t31.5 42.5t21 65.5
l55 294q7 42 37 42q14 0 22.5 -9t8.5 -24z" />
    <glyph glyph-name="v" unicode="v" horiz-adv-x="426" 
d="M496 505q0 -8 -3 -15.5t-7 -14.5l-228 -441q-7 -14 -18.5 -24t-33.5 -10q-19 0 -28.5 10t-11.5 24l-57 427q-2 11 -2.5 19.5t-0.5 13.5q0 17 8.5 27.5t25.5 10.5q31 0 34 -32l43 -428h2l209 433q6 12 14.5 19.5t22.5 7.5t22.5 -7.5t8.5 -19.5z" />
    <glyph glyph-name="w" unicode="w" horiz-adv-x="675" 
d="M723 507q0 -8 -2.5 -16t-7.5 -21l-183 -436q-8 -18 -20.5 -26t-28.5 -8q-40 0 -43 42l-31 402h-1l-182 -410q-7 -16 -20 -25t-32 -9q-20 0 -29.5 10.5t-10.5 26.5q0 16 -1.5 55.5t-3 89.5t-3 103.5t-3 98.5t-2.5 74.5t-1 30.5q0 14 6.5 28.5t28.5 14.5q32 0 32 -36v-420
h2l182 420q8 17 19 25.5t31 8.5q17 0 28 -9.5t13 -29.5l30 -415h2l160 428q5 14 14 22t24 8q14 0 23.5 -7.5t9.5 -19.5z" />
    <glyph glyph-name="x" unicode="x" horiz-adv-x="452" 
d="M507 505q0 -9 -4 -16.5t-12 -17.5l-179 -206l117 -208q5 -10 6.5 -15t1.5 -12q0 -14 -8.5 -22.5t-22.5 -8.5q-19 0 -31 21l-106 197l-171 -201q-13 -16 -32 -16q-12 0 -19 7.5t-7 19.5q0 15 17 33l179 208l-115 206q-5 10 -6.5 15.5t-1.5 11.5q0 14 8.5 22.5t22.5 8.5
q20 0 31 -21l105 -194l169 199q7 8 13.5 12t17.5 4q12 0 19.5 -7.5t7.5 -19.5z" />
    <glyph glyph-name="y" unicode="y" horiz-adv-x="428" 
d="M498 505q0 -11 -9 -27l-343 -660q-7 -14 -15.5 -21.5t-22.5 -7.5q-11 0 -19.5 7t-8.5 18q0 7 1 13t6 14l93 179l-75 459q-1 5 -1.5 10t-0.5 9q0 16 9.5 25t24.5 9q27 0 32 -28l58 -398h2l202 399q14 27 36 27q14 0 22.5 -7.5t8.5 -19.5z" />
    <glyph glyph-name="z" unicode="z" horiz-adv-x="444" 
d="M462 496q0 -13 -6 -23t-12 -18l-312 -387v-2h243q17 0 25 -8.5t8 -21.5q0 -12 -8 -22t-25 -10h-306q-14 0 -21 8t-7 20q0 14 6 24t14 20l312 386v2h-227q-17 0 -25 9t-8 22q0 12 7.5 22t24.5 10h284q15 0 24 -8.5t9 -22.5z" />
    <glyph glyph-name="braceleft" unicode="{" horiz-adv-x="261" 
d="M376 684q0 -11 -7.5 -20.5t-22.5 -9.5h-24q-20 0 -33.5 -13.5t-19.5 -48.5l-24 -132q-6 -34 -17.5 -58.5t-25 -41t-28 -26t-26.5 -12.5v-2q17 -7 32.5 -28.5t15.5 -63.5q0 -10 -1 -21.5t-3 -24.5l-25 -132q-3 -18 -3 -30q0 -20 8.5 -27t24.5 -7h11q16 0 24 -8t8 -19
t-8 -21t-23 -10h-15q-38 0 -64.5 18t-26.5 60q0 15 3 33l26 144q2 13 3.5 25t1.5 24q0 52 -37 58q-16 2 -23 11.5t-7 20.5q0 32 35 34t52.5 32t27.5 83l24 132q11 60 40 85t74 25h22q16 0 23.5 -9t7.5 -20z" />
    <glyph glyph-name="bar" unicode="|" horiz-adv-x="214" 
d="M272 739q0 -3 -0.5 -7.5t-1.5 -9.5l-128 -688q-7 -36 -33 -36q-12 0 -20 6.5t-8 19.5q0 3 0.5 7.5t1.5 9.5l128 688q7 36 33 36q12 0 20 -6.5t8 -19.5z" />
    <glyph glyph-name="braceright" unicode="}" horiz-adv-x="261" 
d="M309 320q0 -32 -35 -34t-52.5 -32t-27.5 -83l-24 -132q-11 -60 -40 -85t-74 -25h-22q-16 0 -23.5 9t-7.5 20t7.5 20.5t22.5 9.5h24q20 0 33.5 13.5t19.5 48.5l24 132q6 34 17.5 58.5t25 41t28 26t26.5 12.5v2q-17 7 -32.5 28.5t-15.5 63.5q0 10 1 21.5t3 24.5l25 132
q3 18 3 30q0 20 -8.5 27t-24.5 7h-11q-16 0 -24 8t-8 19t8 21t23 10h15q38 0 64.5 -18t26.5 -60q0 -15 -3 -33l-26 -144q-2 -13 -3.5 -25t-1.5 -24q0 -52 37 -58q16 -2 23 -11.5t7 -20.5z" />
    <glyph glyph-name="asciitilde" unicode="~" 
d="M567 285q0 -10 -3.5 -19t-7.5 -17q-17 -30 -45.5 -50.5t-70.5 -20.5q-33 0 -65 12.5t-66 32.5q-25 14 -49 25t-45 11q-22 0 -36.5 -10.5t-25.5 -25.5l-13 -21q-11 -14 -28 -14q-11 0 -18.5 7.5t-7.5 19.5q0 10 3.5 19t7.5 17q17 30 45.5 50.5t70.5 20.5q33 0 65 -12.5
t66 -32.5q25 -14 49 -25t45 -11q22 0 36.5 10.5t25.5 25.5l13 21q11 14 28 14q11 0 18.5 -7.5t7.5 -19.5z" />
    <glyph glyph-name="exclamdown" unicode="&#xa1;" horiz-adv-x="276" 
d="M268 494q0 -23 -12 -39t-32 -16q-16 0 -26 10t-10 28q0 23 12 39t31 16q17 0 27 -10t10 -28zM225 291q0 -2 -0.5 -6t-1.5 -9l-77 -418q-5 -23 -13.5 -32.5t-24.5 -9.5q-14 0 -22.5 9t-8.5 24q0 6 2 16l77 417q5 23 13.5 32.5t24.5 9.5q14 0 22.5 -9t8.5 -24z" />
    <glyph glyph-name="cent" unicode="&#xa2;" 
d="M505 494q0 -17 -9 -25t-23 -8q-11 0 -27 4q-9 2 -20 4t-24 2l-77 -411q2 -1 7.5 -1h8.5q11 0 27 2t29 5q20 5 28 5q12 0 19.5 -7.5t7.5 -19.5q0 -13 -7 -20t-16 -12q-23 -11 -51 -14.5t-48 -3.5h-8t-9 1l-6 -34q-6 -36 -28 -36q-21 0 -21 22q0 6 2 16l7 38
q-72 17 -106 70t-34 132q0 15 1.5 31t3.5 33q15 113 73 184.5t161 82.5l8 40q3 17 9 26t19 9q21 0 21 -22q0 -7 -3 -19l-7 -33q20 -1 40 -4.5t34 -10.5q8 -4 13 -10t5 -16zM353 468q-63 -11 -100.5 -62.5t-49.5 -138.5q-2 -16 -3.5 -30.5t-1.5 -28.5q0 -112 82 -140z" />
    <glyph glyph-name="sterling.sc" 
d="M508 493q0 -17 -10 -26.5t-25 -9.5q-6 0 -11.5 0.5t-11.5 1.5q-16 2 -32.5 6t-49.5 4q-50 0 -79.5 -26.5t-29.5 -77.5q0 -17 1.5 -32.5t3.5 -31.5h143q17 0 25.5 -9.5t8.5 -22.5t-8 -24t-25 -11h-144q0 -12 -1.5 -23t-2.5 -18q-5 -29 -20 -63t-46 -64h244q17 0 25.5 -9.5
t8.5 -22.5q0 -12 -8 -23t-25 -11h-298q-17 0 -23.5 10t-6.5 22q0 11 4.5 21t17.5 22q26 28 41 53t23 63q4 15 6 43h-46q-17 0 -25.5 9.5t-8.5 23.5q0 12 8 23t25 11h43q-2 14 -3.5 31.5t-1.5 33.5q0 42 14.5 74t40 53t59.5 32t72 11q12 0 30 -1.5t35.5 -4.5t31.5 -7t20 -9
q11 -9 11 -21z" />
    <glyph glyph-name="fraction" unicode="&#x2044;" horiz-adv-x="160" 
d="M372 702q0 -5 -2.5 -11.5t-9.5 -17.5l-387 -662q-14 -23 -30 -23q-11 0 -18.5 6t-7.5 16q0 5 2.5 11.5t9.5 17.5l387 662q14 23 30 23q11 0 18.5 -6t7.5 -16z" />
    <glyph glyph-name="yen" unicode="&#xa5;" 
d="M620 684q0 -9 -5 -18t-16 -23l-206 -262h114q14 0 20.5 -7.5t6.5 -17.5q0 -11 -6.5 -19.5t-19.5 -8.5h-150l-15 -80h139q14 0 20.5 -7.5t6.5 -17.5q0 -11 -6.5 -19.5t-19.5 -8.5h-150l-29 -154q-7 -42 -38 -42q-32 0 -32 34q0 5 2 15l28 147h-135q-14 0 -20.5 7.5
t-6.5 18.5q0 10 6.5 18.5t20.5 8.5h145l15 80h-135q-14 0 -20.5 7.5t-6.5 18.5q0 10 6.5 18.5t19.5 8.5h120l-111 269q-7 18 -7 27q0 14 9 24.5t26 10.5q13 0 20.5 -7t11.5 -17l113 -286l219 289q7 9 15 15t19 6q16 0 24 -8.5t8 -19.5z" />
    <glyph glyph-name="florin" unicode="&#x192;" 
d="M623 723q0 -14 -9 -23t-27 -9h-25q-38 0 -63 -22t-44 -75l-45 -125h59q17 0 24.5 -8.5t7.5 -20.5t-7.5 -22t-23.5 -10h-81l-142 -396q-18 -50 -37.5 -84t-41.5 -54.5t-47 -29.5t-53 -9h-21q-17 0 -26 8.5t-9 22.5t9 23.5t26 9.5h31q12 0 24.5 4t26 16.5t26.5 35t27 60.5
l140 393h-53q-17 0 -24.5 8.5t-7.5 21.5q0 12 7.5 21.5t23.5 9.5h75l47 131q29 79 69 117t103 38h25q18 0 27 -9t9 -23z" />
    <glyph glyph-name="section" unicode="&#xa7;" horiz-adv-x="538" 
d="M561 663q0 -15 -8.5 -24.5t-25.5 -9.5q-8 0 -16.5 2.5t-18.5 5.5q-18 6 -36.5 9.5t-36.5 3.5q-28 0 -52.5 -6t-42.5 -18.5t-28 -32t-10 -47.5q0 -38 28.5 -66.5t75.5 -58.5q27 -18 51 -36t41 -39.5t27 -47.5t10 -58q0 -57 -32 -103.5t-83 -74.5q42 -40 42 -104
q0 -42 -17 -74t-45.5 -53.5t-66.5 -32.5t-80 -11q-33 0 -66.5 7t-56.5 19q-7 4 -12.5 10t-5.5 17q0 15 8.5 24.5t25.5 9.5q8 0 16.5 -2.5t18.5 -5.5q17 -6 38 -9.5t39 -3.5q28 0 52.5 6t42.5 18.5t28 32t10 47.5q0 38 -28.5 66.5t-75.5 58.5q-27 18 -51 36t-41.5 39.5
t-27.5 47.5t-10 58q0 57 32 103.5t83 74.5q-41 41 -41 104q0 42 16.5 74t45 53.5t66.5 32.5t80 11q34 0 65.5 -7t54.5 -19q7 -4 12.5 -10t5.5 -17zM450 233q0 40 -21 69t-74 61q-3 2 -11 7t-16 11t-15 11t-10 7q-42 -17 -67.5 -52.5t-25.5 -76.5q0 -20 5.5 -36.5t17 -31.5
t29.5 -30t44 -32l52 -36q41 17 66.5 52.5t25.5 76.5z" />
    <glyph glyph-name="currency" unicode="&#xa4;" horiz-adv-x="603" 
d="M491 268q0 -7 -2.5 -13.5t-10.5 -16.5l-113 -139q-8 -11 -16 -16t-19 -5q-15 0 -22.5 9t-7.5 20q0 5 2 11.5t8 14.5l88 107h-282q-15 0 -23 8t-8 20t8 20t23 8h282l-88 107q-6 8 -8 14.5t-2 11.5q0 11 7.5 20t22.5 9q11 0 19 -5t16 -16l113 -139q8 -10 10.5 -16.5
t2.5 -13.5z" />
    <glyph glyph-name="quotesingle" unicode="'" horiz-adv-x="192" 
d="M256 683q0 -6 -2 -16l-24 -127q-7 -37 -33 -37q-28 0 -28 27q0 6 2 16l24 127q7 37 33 37q28 0 28 -27z" />
    <glyph glyph-name="quotedblleft" unicode="&#x201c;" horiz-adv-x="316" 
d="M414 686q0 -12 -9 -27l-76 -132q-7 -11 -14 -17t-18 -6q-14 0 -22 7.5t-8 18.5q0 12 9 27l76 132q7 11 14 17t18 6q14 0 22 -7.5t8 -18.5zM288 686q0 -12 -9 -27l-76 -132q-7 -11 -14 -17t-18 -6q-14 0 -22 7.5t-8 18.5q0 12 9 27l76 132q7 11 14 17t18 6q14 0 22 -7.5
t8 -18.5z" />
    <glyph glyph-name="guillemotleft" unicode="&#xab;" horiz-adv-x="387" 
d="M430 443q0 -13 -13 -29l-119 -147l59 -145q5 -13 5 -21q0 -13 -7 -21.5t-23 -8.5q-10 0 -18 6t-14 22l-54 140q-4 10 -5 16t-1 10q0 15 15 35l117 149q7 8 13.5 13.5t17.5 5.5q12 0 19.5 -7.5t7.5 -17.5zM277 443q0 -13 -12 -29l-109 -142l55 -150q5 -13 5 -21
q0 -13 -7.5 -21.5t-22.5 -8.5q-11 0 -19 6t-13 22l-51 146q-4 10 -5 15.5t-1 9.5q0 8 4 16t12 19l106 143q6 8 13.5 14t17.5 6q13 0 20 -7.5t7 -17.5z" />
    <glyph glyph-name="guilsinglleft" unicode="&#x2039;" horiz-adv-x="245" 
d="M277 443q0 -13 -12 -29l-109 -142l55 -150q5 -13 5 -21q0 -13 -7.5 -21.5t-22.5 -8.5q-11 0 -19 6t-13 22l-51 146q-4 10 -5 15.5t-1 9.5q0 8 4 16t12 19l106 143q6 8 13.5 14t17.5 6q13 0 20 -7.5t7 -17.5z" />
    <glyph glyph-name="guilsinglright" unicode="&#x203a;" horiz-adv-x="245" 
d="M247 270q0 -8 -4 -16t-12 -19l-106 -143q-6 -8 -13.5 -14t-17.5 -6q-13 0 -20 7.5t-7 17.5q0 8 3 14.5t9 14.5l109 142l-55 150q-5 13 -5 21q0 13 7.5 21.5t22.5 8.5q11 0 19 -6t13 -22l51 -146q4 -10 5 -15.5t1 -9.5z" />
    <glyph glyph-name="endash" unicode="&#x2013;" horiz-adv-x="486" 
d="M530 273q0 -13 -8 -23t-24 -10h-407q-16 0 -24 8.5t-8 21.5q0 12 8 21.5t24 9.5h407q16 0 24 -8.5t8 -19.5z" />
    <glyph glyph-name="dagger" unicode="&#x2020;" horiz-adv-x="596" 
d="M640 427q0 -12 -8 -22.5t-25 -10.5h-205l-105 -565q-7 -40 -35 -40q-14 0 -22 7.5t-8 21.5q0 7 2 17l104 559h-189q-17 0 -25.5 9t-8.5 21q0 14 8 24t25 10h202l40 215q7 40 35 40q14 0 22 -7.5t8 -21.5q0 -7 -2 -17l-39 -209h192q17 0 25.5 -9t8.5 -22z" />
    <glyph glyph-name="daggerdbl" unicode="&#x2021;" horiz-adv-x="596" 
d="M645 451q0 -13 -8 -23t-25 -10h-206l-61 -329h192q17 0 25 -9.5t8 -21.5q0 -13 -8 -23.5t-25 -10.5h-203l-37 -194q-7 -40 -35 -40q-14 0 -22 7.5t-8 21.5q0 6 4 26l33 179h-190q-17 0 -25 9t-8 22t8 23.5t25 10.5h202l61 329h-188q-17 0 -25.5 9t-8.5 21q0 13 8 23.5
t25 10.5h201l36 191q7 40 35 40q14 0 22 -7.5t8 -21.5q0 -7 -4 -26l-33 -176h193q17 0 25.5 -9t8.5 -22z" />
    <glyph glyph-name="periodcentered" unicode="&#xb7;" horiz-adv-x="234" 
d="M205 323q0 -25 -13 -42t-34 -17q-17 0 -28 10.5t-11 29.5q0 24 13 41.5t33 17.5q18 0 29 -10.5t11 -29.5z" />
    <glyph glyph-name="paragraph" unicode="&#xb6;" horiz-adv-x="585" 
d="M618 679q0 -6 -3 -22l-155 -828q-7 -38 -34 -38q-12 0 -20 7t-8 21q0 4 1 9.5t3 17.5l152 806h-127l-154 -823q-7 -38 -34 -38q-12 0 -20 7t-8 21q0 4 1 9.5t3 17.5l93 497h-12q-39 0 -69 11.5t-50.5 32t-31.5 48t-11 59.5q0 53 18.5 93t51 66.5t75.5 40t93 13.5h210
q36 0 36 -28z" />
    <glyph glyph-name="bullet" unicode="&#x2022;" horiz-adv-x="471" 
d="M463 355q0 -34 -13 -64t-35.5 -52.5t-52.5 -35.5t-64 -13q-35 0 -65 13t-52.5 35.5t-35.5 52.5t-13 64t13 64.5t35.5 53t52.5 35.5t65 13q34 0 64 -13t52.5 -35.5t35.5 -53t13 -64.5z" />
    <glyph glyph-name="quotesinglbase" unicode="&#x201a;" horiz-adv-x="190" 
d="M171 67q0 -12 -9 -27l-76 -132q-7 -11 -14 -17t-18 -6q-14 0 -22 7.5t-8 18.5q0 12 9 27l76 132q7 11 14 17t18 6q14 0 22 -7.5t8 -18.5z" />
    <glyph glyph-name="quotedblbase" unicode="&#x201e;" horiz-adv-x="316" 
d="M298 67q0 -12 -9 -27l-76 -132q-7 -11 -14 -17t-18 -6q-14 0 -22 7.5t-8 18.5q0 12 9 27l76 132q7 11 14 17t18 6q14 0 22 -7.5t8 -18.5zM172 67q0 -12 -9 -27l-76 -132q-7 -11 -14 -17t-18 -6q-14 0 -22 7.5t-8 18.5q0 12 9 27l76 132q7 11 14 17t18 6q14 0 22 -7.5
t8 -18.5z" />
    <glyph glyph-name="quotedblright" unicode="&#x201d;" horiz-adv-x="316" 
d="M414 686q0 -12 -9 -27l-76 -132q-7 -11 -14 -17t-18 -6q-14 0 -22 7.5t-8 18.5q0 12 9 27l76 132q7 11 14 17t18 6q14 0 22 -7.5t8 -18.5zM288 686q0 -12 -9 -27l-76 -132q-7 -11 -14 -17t-18 -6q-14 0 -22 7.5t-8 18.5q0 12 9 27l76 132q7 11 14 17t18 6q14 0 22 -7.5
t8 -18.5z" />
    <glyph glyph-name="guillemotright" unicode="&#xbb;" horiz-adv-x="387" 
d="M391 270q0 -8 -4 -16t-12 -19l-106 -143q-6 -8 -13.5 -14t-17.5 -6q-13 0 -20 7.5t-7 17.5q0 8 3 14.5t9 14.5l109 142l-55 150q-5 13 -5 21q0 13 7.5 21.5t22.5 8.5q11 0 19 -6t13 -22l51 -146q4 -10 5 -15.5t1 -9.5zM248 275q0 -16 -15 -35l-117 -149
q-7 -8 -13.5 -13.5t-17.5 -5.5q-12 0 -19.5 7.5t-7.5 17.5q0 13 13 29l119 147l-59 145q-5 13 -5 21q0 13 7 21.5t23 8.5q10 0 18 -6t14 -22l54 -140q4 -10 5 -16t1 -10z" />
    <glyph glyph-name="ellipsis" unicode="&#x2026;" horiz-adv-x="873" 
d="M808 57q0 -25 -13 -42t-33 -17q-17 0 -28 10.5t-11 29.5q0 24 13 41.5t33 17.5q17 0 28 -10.5t11 -29.5zM489 57q0 -25 -13 -42t-33 -17q-17 0 -28 10.5t-11 29.5q0 24 13 41.5t33 17.5q17 0 28 -10.5t11 -29.5zM169 57q0 -25 -13 -42t-34 -17q-17 0 -28 10.5t-11 29.5
q0 24 13 41.5t34 17.5q17 0 28 -10.5t11 -29.5z" />
    <glyph glyph-name="perthousand" unicode="&#x2030;" horiz-adv-x="1049" 
d="M1018 199q0 -18 -3 -39q-7 -44 -22 -75t-35.5 -50.5t-45.5 -28.5t-52 -9q-23 0 -44 8.5t-36.5 25t-24.5 41.5t-9 57q0 18 3 39q7 45 22 76t35.5 50.5t45.5 28.5t52 9q23 0 43.5 -8.5t36.5 -25.5t25 -42t9 -57zM420 583q0 -18 -3 -39q-7 -45 -22 -76t-35.5 -50.5t-46 -28
t-52.5 -8.5q-23 0 -43.5 8.5t-36.5 25t-25 41.5t-9 57q0 18 3 39q7 45 22 76t35.5 50.5t46 28t52.5 8.5q23 0 43.5 -8.5t36.5 -25t25 -41.5t9 -57zM649 701q0 -11 -11 -29l-386 -661q-13 -22 -30 -22q-11 0 -18.5 6.5t-7.5 16.5q0 7 2 13t8 16l387 661q13 22 30 22
q11 0 18.5 -6.5t7.5 -16.5zM698 199q0 -18 -3 -39q-7 -44 -22 -75t-35.5 -50.5t-45.5 -28.5t-52 -9q-23 0 -44 8.5t-36.5 25t-24.5 41.5t-9 57q0 18 3 39q7 45 22 76t35.5 50.5t45.5 28.5t52 9q23 0 43.5 -8.5t36.5 -25.5t25 -42t9 -57zM966 201q0 37 -16.5 58t-51.5 21
q-42 0 -65 -28t-32 -89q-3 -20 -3 -36q0 -36 16 -57t51 -21q42 0 65.5 28t32.5 89q3 18 3 35zM367 585q0 37 -16 57.5t-51 20.5q-42 0 -65 -27.5t-32 -89.5q-3 -18 -3 -35q0 -36 16 -57t51 -21q42 0 65 28t32 89q3 18 3 35zM646 201q0 37 -16.5 58t-51.5 21q-42 0 -65 -28
t-32 -89q-3 -20 -3 -36q0 -36 16 -57t51 -21q42 0 65.5 28t32.5 89q3 18 3 35z" />
    <glyph glyph-name="questiondown" unicode="&#xbf;" horiz-adv-x="434" 
d="M362 494q0 -23 -11.5 -39t-31.5 -16q-17 0 -27 10t-10 28q0 23 12 38.5t32 15.5q17 0 26.5 -9.5t9.5 -27.5zM364 -119q0 -11 -7 -18.5t-18 -14.5q-26 -15 -66.5 -25t-85.5 -10q-72 0 -110 31.5t-45 79.5q-1 7 -1.5 13.5t-0.5 13.5q0 33 10.5 60.5t27.5 51t38.5 44.5
t44.5 41q16 14 32 29t30 33t25 39t18 47q7 29 34 29q11 0 20 -7t9 -21q0 -10 -4 -26q-7 -29 -20 -52.5t-29 -43t-34.5 -36.5t-36.5 -32q-39 -34 -67 -70t-28 -81q0 -32 21.5 -54.5t76.5 -22.5q32 0 60.5 6.5t61.5 19.5q10 4 19 4q11 0 18 -8.5t7 -19.5z" />
    <glyph glyph-name="grave" unicode="`" horiz-adv-x="208" 
d="M315 634q0 -13 -8 -21.5t-21 -8.5t-25 6l-119 54q-27 13 -27 33q0 13 8 21.5t21 8.5t25 -6l119 -54q27 -13 27 -33z" />
    <glyph glyph-name="acute" unicode="&#xb4;" horiz-adv-x="208" 
d="M333 697q0 -20 -28 -33l-128 -55q-13 -5 -22 -5q-13 0 -21 8.5t-8 21.5q0 22 27 33l128 55q7 3 12.5 4t10.5 1q12 0 20.5 -8.5t8.5 -21.5z" />
    <glyph glyph-name="circumflex" unicode="&#x2c6;" horiz-adv-x="215" 
d="M355 629q0 -14 -8 -21.5t-21 -7.5q-5 0 -10.5 1t-11.5 4l-86 43l-101 -42q-11 -4 -22 -4t-19 7t-8 20q0 12 6 20t21 14l133 51l101 -53q26 -13 26 -32z" />
    <glyph glyph-name="tilde" unicode="&#x2dc;" horiz-adv-x="215" 
d="M372 675q0 -9 -4 -16.5t-9 -12.5q-16 -17 -36 -25.5t-40 -8.5t-36.5 5t-33.5 12q-15 6 -26 9.5t-22 3.5t-20 -5t-19 -13q-12 -10 -26 -10q-12 0 -19 7.5t-7 18.5q0 9 4 16.5t9 12.5q16 17 36 25.5t40 8.5t36.5 -5t33.5 -12q15 -6 26 -9.5t22 -3.5t20 5t19 13q12 10 26 10
q12 0 19 -7.5t7 -18.5z" />
    <glyph glyph-name="macron" unicode="&#xaf;" horiz-adv-x="203" 
d="M348 637q0 -16 -10.5 -24.5t-28.5 -8.5h-194q-38 0 -38 32q0 33 38 33h194q18 0 28.5 -8t10.5 -24z" />
    <glyph glyph-name="breve" unicode="&#x2d8;" horiz-adv-x="256" 
d="M359 699q0 -13 -7.5 -25t-18.5 -23q-45 -47 -120 -47q-32 0 -61.5 15t-43.5 44q-2 6 -4 12.5t-2 14.5q0 30 26 30q10 0 16 -6t11 -15q11 -19 25.5 -28t42.5 -9t44 10t33 27q9 9 16.5 15t17.5 6q11 0 18 -5.5t7 -15.5z" />
    <glyph glyph-name="dotaccent" unicode="&#x2d9;" horiz-adv-x="215" 
d="M266 657q0 -25 -13 -42t-34 -17q-17 0 -28 10.5t-11 29.5q0 24 13 41.5t33 17.5q18 0 29 -10.5t11 -29.5z" />
    <glyph glyph-name="dieresis" unicode="&#xa8;" horiz-adv-x="202" 
d="M339 655q0 -22 -11.5 -37.5t-29.5 -15.5q-16 0 -26 9.5t-10 26.5q0 22 12 37.5t31 15.5q15 0 24.5 -9.5t9.5 -26.5zM154 655q0 -22 -11.5 -37.5t-29.5 -15.5q-16 0 -26 9.5t-10 26.5q0 22 12 37.5t31 15.5q15 0 24.5 -9.5t9.5 -26.5z" />
    <glyph glyph-name="ring" unicode="&#x2da;" horiz-adv-x="215" 
d="M305 688q0 -21 -7.5 -39.5t-21 -32t-31.5 -21t-38 -7.5q-34 0 -55.5 24t-21.5 57q0 21 7.5 39t21 31.5t31.5 21.5t38 8q34 0 55.5 -24t21.5 -57zM267 686q0 19 -12 32.5t-32 13.5q-24 0 -39.5 -18.5t-15.5 -42.5q0 -19 12 -32.5t32 -13.5q24 0 39.5 18.5t15.5 42.5z" />
    <glyph glyph-name="cedilla" unicode="&#xb8;" horiz-adv-x="215" 
d="M193 -99q0 -22 -8.5 -37.5t-22 -25.5t-31 -15t-35.5 -5q-8 0 -21 1t-26 5t-22.5 10.5t-9.5 18.5q0 22 21 22q10 0 24 -7q8 -4 16 -5t18 -1q19 0 30.5 8.5t11.5 23.5q0 10 -4.5 16t-11 9t-13.5 3.5t-13 0.5q-4 0 -8.5 -0.5t-8.5 -0.5q-15 0 -15 16q0 8 5 18l26 49h41
l-27 -49q5 1 12 1.5t12 0.5q23 0 41.5 -15.5t18.5 -41.5z" />
    <glyph glyph-name="hungarumlaut" unicode="&#x2dd;" horiz-adv-x="215" 
d="M435 699q0 -21 -27 -32l-121 -52q-13 -5 -22 -5q-13 0 -21 8.5t-8 21.5q0 22 27 33l121 51q15 6 23 6q12 0 20 -8.5t8 -22.5zM221 699q0 -21 -27 -32l-121 -52q-13 -5 -22 -5q-13 0 -21 8.5t-8 21.5q0 22 27 33l121 51q15 6 23 6q12 0 20 -8.5t8 -22.5z" />
    <glyph glyph-name="ogonek" unicode="&#x2db;" horiz-adv-x="215" 
d="M133 0q-19 -12 -36.5 -25.5t-31.5 -27.5t-22.5 -28.5t-8.5 -29.5q0 -23 26 -23q8 0 15.5 2t15.5 5q11 4 20 4t14 -6t5 -14q0 -13 -16 -23q-11 -7 -27 -11t-35 -4q-30 0 -52.5 13.5t-22.5 45.5q0 21 10.5 39.5t26.5 34t35 27.5t37 21h47v0z" />
    <glyph glyph-name="caron" unicode="&#x2c7;" horiz-adv-x="215" 
d="M359 685q0 -12 -6 -20t-21 -14l-133 -51l-101 53q-26 13 -26 32q0 14 8 21.5t21 7.5q5 0 10.5 -1t11.5 -4l86 -43l101 42q11 4 22 4t19 -7t8 -20z" />
    <glyph glyph-name="emdash" unicode="&#x2014;" horiz-adv-x="992" 
d="M1052 273q0 -13 -7.5 -23t-23.5 -10h-958q-17 0 -24.5 8.5t-7.5 21.5q0 12 7.5 21.5t23.5 9.5h958q17 0 24.5 -8.5t7.5 -19.5z" />
    <glyph glyph-name="AE" unicode="&#xc6;" horiz-adv-x="735" 
d="M808 675q0 -13 -8.5 -24t-25.5 -11h-214l-47 -251h192q17 0 26 -9t9 -23q0 -13 -8.5 -23.5t-25.5 -10.5h-206l-47 -253h213q18 0 26.5 -9.5t8.5 -22.5t-8.5 -24t-25.5 -11h-256q-31 0 -31 35q0 2 0.5 6t1.5 10l24 131h-213l-105 -156q-9 -14 -17.5 -22t-22.5 -8
t-23.5 7.5t-9.5 21.5q0 8 2.5 14.5t10.5 17.5l405 601q14 20 33.5 33t52.5 13h254q18 0 26.5 -9.5t8.5 -22.5zM490 643l-256 -395h183l75 395h-2z" />
    <glyph glyph-name="ordfeminine" unicode="&#xaa;" horiz-adv-x="352" 
d="M436 691v-6t-2 -12l-47 -248q-3 -14 -9 -23.5t-23 -9.5q-11 0 -17 6.5t-6 15.5q0 5 1 10l3 16h-1q-15 -20 -39.5 -34t-56.5 -14q-22 0 -41.5 7.5t-34 23t-23 39t-8.5 55.5q0 16 3 36q6 39 20 69.5t34.5 51t45.5 31t53 10.5q29 0 55 -11t36 -38h1l5 21q2 11 9 17.5t19 6.5
q23 0 23 -20zM362 592q0 38 -19 58t-50 20q-26 0 -46 -12.5t-33.5 -33.5t-20 -49t-6.5 -58q0 -38 17 -59t52 -21q45 0 69 33.5t34 85.5q3 18 3 36z" />
    <glyph glyph-name="Lslash" unicode="&#x141;" horiz-adv-x="404" 
d="M384 38q0 -13 -8.5 -24t-25.5 -11h-232q-14 0 -23 9t-9 26q0 6 2 16l49 259l-52 -30q-4 -2 -9 -4t-10 -2q-11 0 -17 7t-6 17q0 16 17 26l90 55l53 287q5 23 13.5 32.5t24.5 9.5q15 0 23.5 -9t8.5 -24q0 -6 -2 -16l-46 -242l105 62q10 5 18 5q11 0 18 -6.5t7 -16.5
q0 -14 -17 -25l-144 -89l-52 -280h189q17 0 26 -9.5t9 -22.5z" />
    <glyph glyph-name="Oslash" unicode="&#xd8;" horiz-adv-x="613" 
d="M715 701q0 -12 -13 -25l-87 -91q20 -50 20 -124q0 -25 -2.5 -52t-7.5 -57q-29 -176 -108 -266.5t-207 -90.5q-119 0 -173 81l-68 -72q-14 -14 -28 -14q-25 0 -25 23q0 12 13 25l82 87q-19 50 -19 124q0 25 2.5 52t7.5 57q29 175 108 265.5t207 90.5q118 0 172 -80l73 76
q14 14 28 14q25 0 25 -23zM539 580q-35 68 -128 68q-96 0 -152.5 -67.5t-83.5 -220.5q-6 -33 -8.5 -61t-2.5 -53q0 -34 6 -59zM563 464q0 31 -5 59l-372 -393q35 -69 130 -69q96 0 153 68t83 221q5 32 8 60.5t3 53.5z" />
    <glyph glyph-name="OE" unicode="&#x152;" horiz-adv-x="874" 
d="M927 674q0 -13 -9 -23.5t-26 -10.5h-214l-47 -251h192q18 0 26.5 -9.5t8.5 -22.5t-8.5 -24t-25.5 -11h-205l-47 -252h213q17 0 26 -9.5t9 -22.5q0 -14 -9 -24.5t-26 -10.5h-249q-14 0 -23 8t-9 22v3t1 6l9 53q-35 -51 -84.5 -75t-112.5 -24q-106 0 -162 63t-56 189
q0 25 2.5 52.5t7.5 56.5q29 176 108 266.5t206 90.5q72 0 118.5 -32t64.5 -95l15 78q8 41 47 41h224q17 0 26 -9t9 -23zM570 464q0 95 -38.5 139.5t-113.5 44.5q-96 0 -152 -68t-83 -221q-12 -65 -12 -114q0 -95 38.5 -139.5t113.5 -44.5q48 0 86 16.5t66.5 51.5t49 89.5
t33.5 131.5q12 64 12 114z" />
    <glyph glyph-name="ordmasculine" unicode="&#xba;" horiz-adv-x="341" 
d="M413 592q0 -11 -1 -23t-3 -24q-15 -81 -54.5 -117t-99.5 -36q-51 0 -84.5 30.5t-33.5 93.5q0 20 5 48q14 81 54 116.5t100 35.5q50 0 83.5 -30.5t33.5 -93.5zM360 592q0 78 -71 78q-38 0 -60.5 -25t-33.5 -82q-5 -28 -5 -46q0 -79 71 -79q38 0 60.5 25t33.5 82q5 28 5 47
z" />
    <glyph glyph-name="ae" unicode="&#xe6;" horiz-adv-x="760" 
d="M770 359q0 -17 -0.5 -31.5t-4.5 -33.5q-3 -16 -13.5 -28.5t-33.5 -12.5h-283q-2 -12 -2.5 -24.5t-0.5 -22.5q0 -75 37.5 -111.5t100.5 -36.5q14 0 36 1.5t37 4.5q7 2 14.5 3t12.5 1q27 0 27 -25q0 -21 -23 -32q-12 -5 -27.5 -8.5t-31.5 -5t-31 -2t-26 -0.5
q-69 0 -111 32.5t-57 93.5q-31 -65 -84 -96t-116 -31q-72 0 -109.5 39t-37.5 99q0 87 62.5 132t180.5 45h94l10 52q3 16 3 29q0 38 -25 59t-81 21q-23 0 -46.5 -3.5t-52.5 -9.5q-8 -2 -14 -3t-11 -1q-12 0 -20 7t-8 21q0 22 22 30q25 10 61.5 16t79.5 6q63 0 98.5 -23.5
t43.5 -62.5q51 88 165 88q83 0 124 -46t41 -130zM294 253q-42 0 -76 -5.5t-58 -18.5t-37 -35.5t-13 -56.5q0 -35 21 -58.5t68 -23.5q33 0 60 11.5t47 31t33.5 45t18.5 53.5l11 57h-75zM705 365q0 55 -25 83.5t-81 28.5q-60 0 -96 -35t-53 -105l-7 -28h256q4 17 5 29.5
t1 26.5z" />
    <glyph glyph-name="dotlessi" unicode="&#x131;" horiz-adv-x="202" 
d="M227 498q0 -2 -0.5 -6t-1.5 -9l-82 -441q-7 -43 -37 -43q-15 0 -23 9t-8 24q0 6 2 16l82 441q7 42 38 42q14 0 22 -9t8 -24z" />
    <glyph glyph-name="lslash" unicode="&#x142;" horiz-adv-x="244" 
d="M339 497q0 -12 -14 -24l-112 -93l-63 -339q-7 -42 -37 -42q-15 0 -23.5 9t-8.5 24q0 6 2 16l52 280l-52 -40q-11 -8 -22 -8t-16.5 7t-5.5 15q0 15 14 26l97 79l59 316q5 23 13.5 32.5t24.5 9.5q14 0 22.5 -9t8.5 -24q0 -5 -2 -15l-48 -257l66 52q5 4 9.5 6t10.5 2
q11 0 18 -6.5t7 -16.5z" />
    <glyph glyph-name="oslash" unicode="&#xf8;" horiz-adv-x="532" 
d="M592 530q0 -10 -9 -20l-68 -71q19 -44 19 -103q0 -20 -1.5 -39.5t-5.5 -42.5q-24 -135 -88.5 -197t-158.5 -62q-44 0 -80.5 13.5t-60.5 42.5l-56 -60q-12 -12 -25 -12q-10 0 -16 6.5t-6 15.5t9 20l68 70q-19 42 -19 104q0 20 1 39t6 43q23 135 87.5 196.5t159.5 61.5
q44 0 79.5 -13.5t60.5 -41.5l57 60q12 12 25 12q10 0 16 -6.5t6 -15.5zM440 431q-28 43 -95 43q-72 0 -113.5 -47t-60.5 -154q-4 -21 -5.5 -41.5t-1.5 -37.5q0 -23 5 -45zM464 336q0 25 -6 46l-271 -282q14 -22 38.5 -33t57.5 -11q72 0 113.5 47t60.5 154q4 21 5.5 41.5
t1.5 37.5z" />
    <glyph glyph-name="oe" unicode="&#x153;" horiz-adv-x="828" 
d="M838 359q0 -17 -1 -34t-5 -36q-3 -16 -14 -28.5t-34 -12.5h-283q-2 -11 -2 -21.5v-20.5q0 -75 38 -111.5t101 -36.5q14 0 35 1.5t37 4.5q8 2 15.5 3t12.5 1q26 0 26 -25q0 -22 -22 -32q-12 -6 -27.5 -9t-31.5 -4.5t-31.5 -2t-25.5 -0.5q-69 0 -112 32.5t-59 95.5
q-32 -69 -80.5 -98.5t-113.5 -29.5q-42 0 -76 12.5t-58.5 37t-38 62t-13.5 88.5q0 20 1.5 39t5.5 43q11 67 33.5 116t54 80.5t72 46.5t87.5 15q61 0 104 -27t57 -88q59 115 183 115q82 0 123.5 -46t41.5 -130zM773 365q0 55 -25 83.5t-82 28.5q-67 0 -103.5 -45t-52.5 -128
h256q7 32 7 61zM445 336q0 138 -119 138q-72 0 -113.5 -47t-60.5 -154q-4 -21 -5.5 -41.5t-1.5 -37.5q0 -69 30.5 -103.5t88.5 -34.5q72 0 113.5 47t60.5 154q4 21 5.5 41.5t1.5 37.5z" />
    <glyph glyph-name="germandbls" unicode="&#xdf;" 
d="M537 606q0 -63 -30 -113t-85 -76q58 -19 80 -61.5t22 -96.5q0 -51 -14.5 -98t-42.5 -83.5t-70 -58t-96 -21.5q-11 0 -20 0.5t-14 2.5q-23 6 -23 28q0 36 47 36h17.5t19.5 2q33 5 57 23t40 44t23.5 57.5t7.5 64.5q0 54 -24 84t-76 40q-17 3 -23.5 10.5t-6.5 17.5
q0 13 6.5 21t24.5 14q53 17 83.5 57.5t30.5 98.5q0 20 -5.5 38.5t-17.5 33t-30.5 23t-43.5 8.5q-31 0 -54.5 -10.5t-40 -30t-27 -46.5t-16.5 -59l-96 -515q-7 -42 -37 -42q-14 0 -22.5 9t-8.5 24q0 6 3 21l94 506q19 103 72.5 155.5t135.5 52.5q36 0 65.5 -12t50.5 -34
t32.5 -51.5t11.5 -63.5z" />
    <glyph glyph-name="logicalnot" unicode="&#xac;" 
d="M549 138q0 -15 -9 -24.5t-23 -9.5t-23 9.5t-9 24.5v185h-379q-16 0 -25 9t-9 23t9 23t25 9h404q39 0 39 -39v-210v0z" />
    <glyph glyph-name="mu" unicode="&#xb5;" horiz-adv-x="515" 
d="M541 498q0 -5 -2 -15l-83 -448q-3 -16 -12.5 -26t-25.5 -10q-12 0 -21 7.5t-9 23.5q0 6 1 12.5t3 12.5h-1q-50 -60 -132 -60q-40 0 -71 15t-44 48h-2l-42 -227q-7 -41 -37 -41q-14 0 -22.5 9t-8.5 24q0 2 0.5 7t3.5 20l119 640q7 41 37 41q15 0 23.5 -9t8.5 -24
q0 -5 -2 -15l-58 -307q-2 -11 -3 -19.5t-1 -13.5q0 -42 28.5 -65t77.5 -23q52 0 90.5 26.5t51.5 74.5q3 10 5 17.5t4 20.5l55 296q7 41 37 41q15 0 23.5 -9t8.5 -24z" />
    <glyph glyph-name="trademark" unicode="&#x2122;" horiz-adv-x="969" 
d="M954 337q0 -15 -8 -24t-22 -9q-31 0 -31 33v294h-2l-119 -297q-6 -16 -13 -23t-21 -7q-13 0 -20 7t-13 22l-120 298h-2v-294q0 -15 -8 -24t-22 -9q-32 0 -32 33v328q0 46 49 46q17 0 31 -7.5t25 -32.5l112 -274h1l111 274q11 26 25 33t31 7q23 0 35.5 -12t12.5 -34v-328z
M440 680q0 -10 -7 -18.5t-21 -8.5h-101v-315q0 -15 -8.5 -24.5t-22.5 -9.5t-22.5 9.5t-8.5 24.5v315h-101q-14 0 -21 8t-7 19t7 19.5t21 8.5h264q14 0 21 -8.5t7 -19.5z" />
    <glyph glyph-name="Eth" unicode="&#xd0;" horiz-adv-x="580" 
d="M605 455q0 -23 -2 -47.5t-6 -50.5q-29 -184 -118 -269t-227 -85h-145q-32 0 -32 35q0 2 0.5 6.5t1.5 9.5l51 275h-32q-16 0 -24 8.5t-8 20.5t8 22.5t24 10.5h44l52 276q8 40 47 40h126q121 0 180.5 -65t59.5 -187zM534 460q0 42 -9 75.5t-29.5 57t-53 36t-78.5 12.5h-108
l-47 -250h131q17 0 24.5 -9.5t7.5 -21.5q0 -11 -7.5 -21t-23.5 -10h-143l-49 -260h114q58 0 101 18.5t74.5 55t52 90.5t33.5 125q10 53 10 102z" />
    <glyph glyph-name="onehalf" unicode="&#xbd;" horiz-adv-x="767" 
d="M727 338q0 -38 -17.5 -70t-54.5 -75l-118 -137h134q14 0 20.5 -7.5t6.5 -18.5q0 -10 -6.5 -18t-19.5 -8h-183q-13 0 -19.5 8t-6.5 18t4.5 18t12.5 17l140 164q26 32 39 55t13 46q0 20 -12 31.5t-41 11.5t-67 -16q-6 -3 -13 -3q-10 0 -16 6.5t-6 17.5q0 16 17 26
q17 9 40.5 15t52.5 6q48 0 74 -24.5t26 -62.5zM618 702q0 -5 -2.5 -11.5t-9.5 -17.5l-387 -662q-14 -23 -30 -23q-11 0 -18.5 6t-7.5 16q0 5 2.5 11.5t9.5 17.5l387 662q14 23 30 23q11 0 18.5 -6t7.5 -16zM295 680v-5.5t-1 -7.5l-66 -349q-6 -30 -29 -30q-26 0 -26 26v5.5
t2 9.5l62 325h-37q-14 0 -20.5 7.5t-6.5 18.5q0 10 6.5 18.5t20.5 8.5h68q14 0 20.5 -8t6.5 -19z" />
    <glyph glyph-name="plusminus" unicode="&#xb1;" 
d="M552 311q0 -14 -9.5 -23t-24.5 -9h-183v-125q0 -15 -9 -24.5t-23 -9.5t-22.5 9.5t-8.5 24.5v125h-185q-14 0 -23.5 8.5t-9.5 22.5t9.5 23t23.5 9h184v127q0 15 9 24t23 9t22.5 -9t8.5 -24v-127h184q15 0 24.5 -8.5t9.5 -22.5zM552 38q0 -14 -9.5 -23t-24.5 -9h-431
q-14 0 -23.5 9t-9.5 23t9.5 23t23.5 9h431q15 0 24.5 -9t9.5 -23z" />
    <glyph glyph-name="Thorn" unicode="&#xde;" horiz-adv-x="489" 
d="M519 410q0 -20 -3 -41q-15 -107 -79.5 -160.5t-165.5 -53.5h-106l-21 -114q-7 -42 -38 -42q-14 0 -23 9t-9 23q0 7 2 17l116 618q9 43 38 43q14 0 22.5 -8t8.5 -22q0 -5 -0.5 -9.5t-1.5 -9.5l-16 -87h85q93 0 142 -41t49 -122zM448 410q0 55 -32 77t-86 22h-99l-54 -291
h102q42 0 71 11t48.5 31t30.5 48t16 61q3 22 3 41z" />
    <glyph glyph-name="onequarter" unicode="&#xbc;" horiz-adv-x="738" 
d="M674 137q0 -11 -7 -18.5t-20 -7.5h-26l-15 -81q-3 -15 -9.5 -22t-20.5 -7q-24 0 -24 25q0 3 0.5 8t1.5 10l13 67h-141q-14 0 -20.5 7t-6.5 18t4 17.5t12 17.5l185 230q8 10 17.5 16.5t20.5 6.5q32 0 32 -27q0 -7 -2 -17l-38 -218h16q14 0 21 -7.5t7 -17.5zM617 702
q0 -5 -2.5 -11.5t-9.5 -17.5l-387 -662q-14 -23 -30 -23q-11 0 -18.5 6t-7.5 16q0 5 2.5 11.5t9.5 17.5l387 662q14 23 30 23q11 0 18.5 -6t7.5 -16zM295 680v-5.5t-1 -7.5l-66 -349q-6 -30 -29 -30q-26 0 -26 26v5.5t2 9.5l62 325h-37q-14 0 -20.5 7.5t-6.5 18.5
q0 10 6.5 18.5t20.5 8.5h68q14 0 20.5 -8t6.5 -19zM465 162h111l35 183z" />
    <glyph glyph-name="divide" unicode="&#xf7;" 
d="M381 463q0 -24 -15.5 -40t-38.5 -16t-38.5 15.5t-15.5 40.5q0 23 15.5 39.5t38.5 16.5t38.5 -16t15.5 -40zM577 252q0 -14 -9 -22t-25 -8h-432q-16 0 -25 8t-9 22t9 23t25 9h432q16 0 25 -9t9 -23zM381 45q0 -24 -15.5 -40t-38.5 -16t-38.5 15.5t-15.5 39.5t15.5 40
t38.5 16t38.5 -16t15.5 -39z" />
    <glyph glyph-name="brokenbar" unicode="&#xa6;" horiz-adv-x="214" 
d="M275 738q0 -6 -2 -16l-39 -210q-7 -37 -33 -37q-28 0 -28 27q0 6 2 16l39 210q7 37 33 37q28 0 28 -27zM185 260q0 -6 -2 -16l-39 -210q-7 -37 -33 -37q-28 0 -28 27q0 6 2 16l39 210q7 37 33 37q28 0 28 -27z" />
    <glyph glyph-name="degree" unicode="&#xb0;" horiz-adv-x="398" 
d="M438 573q0 -30 -11 -56t-30.5 -45t-45 -30t-55.5 -11q-31 0 -56.5 11.5t-44 31t-29 45.5t-10.5 55q0 30 11 56t30.5 45t45 29.5t55.5 10.5q31 0 56.5 -11.5t44 -31t29 -45t10.5 -54.5zM391 573q0 19 -7 36.5t-19.5 31t-29.5 21t-37 7.5q-41 0 -68 -27.5t-27 -67.5
q0 -20 7 -37.5t19.5 -30.5t29.5 -21t37 -8q41 0 68 27.5t27 68.5z" />
    <glyph glyph-name="thorn" unicode="&#xfe;" horiz-adv-x="530" 
d="M548 339q0 -67 -18 -129t-51 -110t-79 -76.5t-101 -28.5q-49 0 -90.5 27t-56.5 75l-50 -265q-7 -42 -38 -42q-14 0 -22.5 9t-8.5 24v5t2 11l165 884q7 41 37 41q31 0 31 -32q0 -2 -0.5 -6.5t-1.5 -9.5l-48 -265q30 40 72 62t89 22q81 0 125 -53t44 -143zM478 336
q0 29 -6.5 54t-20.5 43.5t-36 29t-52 10.5q-28 0 -56 -12t-51.5 -33.5t-41 -52t-24.5 -66.5l-12 -61q-3 -14 -4.5 -29t-1.5 -26q0 -30 10.5 -55t28 -42.5t40.5 -27t48 -9.5q46 0 80 26.5t56 67.5t32.5 90t10.5 93z" />
    <glyph glyph-name="threequarters" unicode="&#xbe;" horiz-adv-x="796" 
d="M736 137q0 -11 -7 -18.5t-20 -7.5h-26l-15 -81q-3 -15 -9.5 -22t-20.5 -7q-24 0 -24 25q0 3 0.5 8t1.5 10l13 67h-141q-14 0 -20.5 7t-6.5 18t4 17.5t12 17.5l185 230q8 10 17.5 16.5t20.5 6.5q32 0 32 -27q0 -7 -2 -17l-38 -218h16q14 0 21 -7.5t7 -17.5zM680 702
q0 -5 -2.5 -11.5t-9.5 -17.5l-387 -662q-14 -23 -30 -23q-11 0 -18.5 6t-7.5 16q0 5 2.5 11.5t9.5 17.5l387 662q14 23 30 23q11 0 18.5 -6t7.5 -16zM383 623q0 -35 -18 -64.5t-57 -45.5q31 -11 44 -32.5t13 -46.5q0 -31 -10 -57.5t-29 -46t-47 -30.5t-63 -11q-23 0 -45 3.5
t-34 11.5q-10 6 -10 19q0 14 7.5 21t16.5 7q5 0 10.5 -1.5t13.5 -3.5q9 -2 18.5 -3.5t23.5 -1.5q45 0 69 24t24 67q0 52 -70 52h-10q-13 0 -19.5 7.5t-6.5 18.5q0 10 6.5 18.5t19.5 8.5h17q41 0 62 23.5t21 56.5q0 45 -53 45q-12 0 -24 -2t-29 -9q-9 -4 -17 -4q-9 0 -15 6
t-6 17q0 19 23 29q36 15 75 15q51 0 75 -26.5t24 -64.5zM527 162h111l35 183z" />
    <glyph glyph-name="registered" unicode="&#xae;" horiz-adv-x="804" 
d="M826 355q0 -75 -28 -140.5t-76.5 -114.5t-113.5 -77.5t-139 -28.5t-139 28.5t-113.5 77.5t-76.5 114.5t-28 140.5t28 140.5t76.5 114t113.5 77t139 28.5t139 -28.5t113.5 -77t76.5 -114t28 -140.5zM769 355q0 63 -23.5 118.5t-64.5 97.5t-95.5 66t-116.5 24t-116 -24
t-95 -65.5t-64.5 -97.5t-23.5 -119t23.5 -119t64.5 -97.5t95 -65.5t116 -24q61 0 116 24t95.5 65.5t64.5 97.5t24 119zM631 439q0 -51 -29 -79t-74 -33l89 -140q9 -14 9 -23q0 -11 -7.5 -17.5t-18.5 -6.5t-18 6t-12 14l-100 164h-78v-150q0 -14 -7 -23.5t-21 -9.5t-20.5 9
t-6.5 23v360q0 9 4.5 15t18.5 6h132q66 0 102.5 -29.5t36.5 -85.5zM577 439q0 21 -7.5 34.5t-20 21t-28.5 10.5t-32 3h-97v-138h90q18 0 35 2t30.5 9.5t21.5 21t8 36.5z" />
    <glyph glyph-name="minus" unicode="&#x2212;" 
d="M567 253q0 -14 -9.5 -23t-24.5 -9h-430q-15 0 -24.5 9t-9.5 23t9.5 22.5t24.5 8.5h430q15 0 24.5 -8.5t9.5 -22.5z" />
    <glyph glyph-name="eth" unicode="&#xf0;" horiz-adv-x="493" 
d="M533 740q0 -16 -17 -24l-84 -42q49 -55 69 -122t20 -142q0 -31 -3 -63t-8 -64q-12 -78 -37 -133t-58.5 -89.5t-74.5 -50t-86 -15.5q-86 0 -132.5 50.5t-46.5 146.5q0 17 1 32.5t2 23.5q9 73 30 126t53.5 87t74 50t90.5 16q18 0 38 -5.5t38.5 -16t33 -26t22.5 -35.5l2 1
q-3 56 -25 110.5t-61 89.5l-118 -58q-9 -4 -17 -4q-10 0 -15.5 7t-5.5 16q0 14 16 22l100 51q-14 11 -31 19.5l-33 16.5q-8 4 -13.5 10t-5.5 15q0 14 9.5 22t24.5 8q9 0 21 -4q24 -9 48 -23.5t44 -31.5l96 47q9 4 15 4q11 0 17.5 -6.5t6.5 -15.5zM445 322q0 63 -29.5 104
t-90.5 41q-78 0 -119 -51.5t-56 -152.5q-3 -20 -5 -38t-2 -35q0 -134 117 -134q43 0 74 17.5t52 46t34 66t20 77.5q2 15 3.5 30t1.5 29z" />
    <glyph glyph-name="multiply" unicode="&#xd7;" 
d="M531 60q0 -14 -9 -22.5t-23 -8.5q-12 0 -23 11l-169 169l-168 -169q-10 -11 -25 -11q-13 0 -22 8.5t-9 22.5q0 12 12 24l168 169l-168 169q-12 12 -12 24q0 14 9 22.5t23 8.5q12 0 23 -11l169 -169l168 169q10 11 25 11q13 0 22 -8.5t9 -22.5q0 -12 -12 -24l-168 -169
l168 -169q12 -12 12 -24z" />
    <glyph glyph-name="copyright" unicode="&#xa9;" horiz-adv-x="804" 
d="M826 355q0 -75 -28 -140.5t-76.5 -114.5t-113.5 -77.5t-138 -28.5q-74 0 -139.5 28.5t-114 77.5t-76.5 114.5t-28 140.5t28 140.5t76.5 114t114 77t139.5 28.5q73 0 138 -28.5t113.5 -77t76.5 -114t28 -140.5zM769 355q0 63 -23.5 118.5t-64.5 97.5t-95.5 66t-115.5 24
q-62 0 -116.5 -24t-95 -65.5t-64.5 -97.5t-24 -119t23.5 -119t64.5 -97.5t95.5 -65.5t116.5 -24q61 0 115.5 24t95.5 65.5t64.5 97.5t23.5 119zM610 179q0 -9 -4.5 -14.5t-11.5 -9.5q-18 -9 -44 -14t-55 -5q-43 0 -81.5 12t-67 38t-45.5 67t-17 100t17 100t45.5 67t67 38
t81.5 12q29 0 55 -4.5t44 -13.5q7 -4 11.5 -10t4.5 -15q0 -11 -7 -18.5t-18 -7.5q-5 0 -10 1t-15 4q-29 8 -63 8q-32 0 -59.5 -8t-48 -26.5t-32 -49.5t-11.5 -77t11.5 -77t32 -49.5t48 -26.5t59.5 -8q34 0 63 8q17 4 25 4q25 0 25 -25z" />
    <glyph glyph-name="Aacute" unicode="&#xc1;" horiz-adv-x="582" 
d="M557 36q0 -15 -8.5 -26t-26.5 -11q-16 0 -23.5 9.5t-9.5 23.5l-27 164h-295l-88 -168q-7 -12 -15.5 -20.5t-23.5 -8.5q-14 0 -22 7.5t-8 19.5q0 6 2 12.5t7 15.5l327 617q9 17 22 29t38 12q26 0 35 -13t12 -32l101 -609q3 -18 3 -22zM395 638h-2l-196 -381h257zM532 864
q0 -20 -28 -33l-128 -55q-13 -5 -22 -5q-13 0 -21 8.5t-8 21.5q0 22 27 33l128 55q7 3 12.5 4t10.5 1q12 0 20.5 -8.5t8.5 -21.5z" />
    <glyph glyph-name="Acircumflex" unicode="&#xc2;" horiz-adv-x="582" 
d="M557 36q0 -15 -8.5 -26t-26.5 -11q-16 0 -23.5 9.5t-9.5 23.5l-27 164h-295l-88 -168q-7 -12 -15.5 -20.5t-23.5 -8.5q-14 0 -22 7.5t-8 19.5q0 6 2 12.5t7 15.5l327 617q9 17 22 29t38 12q26 0 35 -13t12 -32l101 -609q3 -18 3 -22zM395 638h-2l-196 -381h257zM554 796
q0 -14 -8 -21.5t-21 -7.5q-5 0 -10.5 1t-11.5 4l-86 43l-101 -42q-11 -4 -22 -4t-19 7t-8 20q0 12 6 20t21 14l133 51l101 -53q26 -13 26 -32z" />
    <glyph glyph-name="Adieresis" unicode="&#xc4;" horiz-adv-x="582" 
d="M557 36q0 -15 -8.5 -26t-26.5 -11q-16 0 -23.5 9.5t-9.5 23.5l-27 164h-295l-88 -168q-7 -12 -15.5 -20.5t-23.5 -8.5q-14 0 -22 7.5t-8 19.5q0 6 2 12.5t7 15.5l327 617q9 17 22 29t38 12q26 0 35 -13t12 -32l101 -609q3 -18 3 -22zM395 638h-2l-196 -381h257zM553 822
q0 -22 -11.5 -37.5t-29.5 -15.5q-16 0 -26 9.5t-10 26.5q0 22 12 37.5t31 15.5q15 0 24.5 -9.5t9.5 -26.5zM368 822q0 -22 -11.5 -37.5t-29.5 -15.5q-16 0 -26 9.5t-10 26.5q0 22 12 37.5t31 15.5q15 0 24.5 -9.5t9.5 -26.5z" />
    <glyph glyph-name="Agrave" unicode="&#xc0;" horiz-adv-x="582" 
d="M557 36q0 -15 -8.5 -26t-26.5 -11q-16 0 -23.5 9.5t-9.5 23.5l-27 164h-295l-88 -168q-7 -12 -15.5 -20.5t-23.5 -8.5q-14 0 -22 7.5t-8 19.5q0 6 2 12.5t7 15.5l327 617q9 17 22 29t38 12q26 0 35 -13t12 -32l101 -609q3 -18 3 -22zM395 638h-2l-196 -381h257zM519 801
q0 -13 -8 -21.5t-21 -8.5t-25 6l-119 54q-27 13 -27 33q0 13 8 21.5t21 8.5t25 -6l119 -54q27 -13 27 -33z" />
    <glyph glyph-name="Aring" unicode="&#xc5;" horiz-adv-x="582" 
d="M557 36q0 -15 -8.5 -26t-26.5 -11q-16 0 -23.5 9.5t-9.5 23.5l-27 164h-295l-88 -168q-7 -12 -15.5 -20.5t-23.5 -8.5q-14 0 -22 7.5t-8 19.5q0 6 2 12.5t7 15.5l327 617q9 17 22 29t38 12q26 0 35 -13t12 -32l101 -609q3 -18 3 -22zM395 638h-2l-196 -381h257zM511 828
q0 -21 -7.5 -39.5t-21 -32t-31.5 -21t-38 -7.5q-34 0 -55.5 24t-21.5 57q0 21 7.5 39t21 31.5t31.5 21.5t38 8q34 0 55.5 -24t21.5 -57zM473 826q0 19 -12 32.5t-32 13.5q-24 0 -39.5 -18.5t-15.5 -42.5q0 -19 12 -32.5t32 -13.5q24 0 39.5 18.5t15.5 42.5z" />
    <glyph glyph-name="Atilde" unicode="&#xc3;" horiz-adv-x="582" 
d="M557 36q0 -15 -8.5 -26t-26.5 -11q-16 0 -23.5 9.5t-9.5 23.5l-27 164h-295l-88 -168q-7 -12 -15.5 -20.5t-23.5 -8.5q-14 0 -22 7.5t-8 19.5q0 6 2 12.5t7 15.5l327 617q9 17 22 29t38 12q26 0 35 -13t12 -32l101 -609q3 -18 3 -22zM395 638h-2l-196 -381h257zM564 842
q0 -9 -4 -16.5t-9 -12.5q-16 -17 -36 -25.5t-40 -8.5t-36.5 5t-33.5 12q-15 6 -26 9.5t-22 3.5t-20 -5t-19 -13q-12 -10 -26 -10q-12 0 -19 7.5t-7 18.5q0 9 4 16.5t9 12.5q16 17 36 25.5t40 8.5t36.5 -5t33.5 -12q15 -6 26 -9.5t22 -3.5t20 5t19 13q12 10 26 10
q12 0 19 -7.5t7 -18.5z" />
    <glyph glyph-name="Ccedilla" unicode="&#xc7;" 
d="M379 -99q0 -22 -8.5 -37.5t-22 -25.5t-31 -15t-35.5 -5q-8 0 -21 1t-26 5t-22.5 10.5t-9.5 18.5q0 22 21 22q10 0 24 -7q8 -4 16 -5t18 -1q19 0 30.5 8.5t11.5 23.5q0 10 -4.5 16t-11 9t-13.5 3.5t-13 0.5q-4 0 -8.5 -0.5t-8.5 -0.5q-15 0 -15 16q0 8 5 18l24 45
q-39 7 -71.5 26.5t-56 51.5t-36.5 77.5t-13 105.5q0 23 2 47t6 51q13 91 41.5 158t70.5 111t95.5 65t116.5 21q36 0 68.5 -5t55.5 -17q8 -4 13 -10.5t5 -16.5q0 -18 -10.5 -26t-24.5 -8q-13 0 -31 5q-20 6 -39.5 8.5t-42.5 2.5q-107 0 -165.5 -74.5t-80.5 -213.5
q-5 -26 -6.5 -50t-1.5 -45q0 -107 48 -155.5t135 -48.5q40 0 79 10q15 4 25 4q13 0 21.5 -6t8.5 -21q0 -13 -7.5 -21t-21.5 -14q-26 -11 -57.5 -14.5t-66.5 -3.5h-10.5t-10.5 1l-22 -40q5 1 12 1.5t12 0.5q23 0 41.5 -15.5t18.5 -41.5z" />
    <glyph glyph-name="Eacute" unicode="&#xc9;" horiz-adv-x="437" 
d="M504 675q0 -13 -9 -24t-26 -11h-214l-47 -251h192q18 0 26.5 -9t8.5 -23q0 -13 -8.5 -23.5t-25.5 -10.5h-206l-47 -253h214q17 0 26 -9.5t9 -22.5t-9 -24t-26 -11h-255q-32 0 -32 35v6t2 11l114 610q4 20 15.5 31t31.5 11h231q17 0 26 -9.5t9 -22.5zM496 864
q0 -20 -28 -33l-128 -55q-13 -5 -22 -5q-13 0 -21 8.5t-8 21.5q0 22 27 33l128 55q7 3 12.5 4t10.5 1q12 0 20.5 -8.5t8.5 -21.5z" />
    <glyph glyph-name="Ecircumflex" unicode="&#xca;" horiz-adv-x="437" 
d="M504 675q0 -13 -9 -24t-26 -11h-214l-47 -251h192q18 0 26.5 -9t8.5 -23q0 -13 -8.5 -23.5t-25.5 -10.5h-206l-47 -253h214q17 0 26 -9.5t9 -22.5t-9 -24t-26 -11h-255q-32 0 -32 35v6t2 11l114 610q4 20 15.5 31t31.5 11h231q17 0 26 -9.5t9 -22.5zM506 796
q0 -14 -8 -21.5t-21 -7.5q-5 0 -10.5 1t-11.5 4l-86 43l-101 -42q-11 -4 -22 -4t-19 7t-8 20q0 12 6 20t21 14l133 51l101 -53q26 -13 26 -32z" />
    <glyph glyph-name="Edieresis" unicode="&#xcb;" horiz-adv-x="437" 
d="M504 675q0 -13 -9 -24t-26 -11h-214l-47 -251h192q18 0 26.5 -9t8.5 -23q0 -13 -8.5 -23.5t-25.5 -10.5h-206l-47 -253h214q17 0 26 -9.5t9 -22.5t-9 -24t-26 -11h-255q-32 0 -32 35v6t2 11l114 610q4 20 15.5 31t31.5 11h231q17 0 26 -9.5t9 -22.5zM493 822
q0 -22 -11.5 -37.5t-29.5 -15.5q-16 0 -26 9.5t-10 26.5q0 22 12 37.5t31 15.5q15 0 24.5 -9.5t9.5 -26.5zM308 822q0 -22 -11.5 -37.5t-29.5 -15.5q-16 0 -26 9.5t-10 26.5q0 22 12 37.5t31 15.5q15 0 24.5 -9.5t9.5 -26.5z" />
    <glyph glyph-name="Egrave" unicode="&#xc8;" horiz-adv-x="437" 
d="M504 675q0 -13 -9 -24t-26 -11h-214l-47 -251h192q18 0 26.5 -9t8.5 -23q0 -13 -8.5 -23.5t-25.5 -10.5h-206l-47 -253h214q17 0 26 -9.5t9 -22.5t-9 -24t-26 -11h-255q-32 0 -32 35v6t2 11l114 610q4 20 15.5 31t31.5 11h231q17 0 26 -9.5t9 -22.5zM426 801
q0 -13 -8 -21.5t-21 -8.5t-25 6l-119 54q-27 13 -27 33q0 13 8 21.5t21 8.5t25 -6l119 -54q27 -13 27 -33z" />
    <glyph glyph-name="Iacute" unicode="&#xcd;" horiz-adv-x="232" 
d="M261 679q0 -7 -2 -17l-116 -621q-7 -42 -38 -42q-14 0 -22.5 9t-8.5 23q0 7 2 17l116 621q7 42 38 42q14 0 22.5 -9t8.5 -23zM383 864q0 -20 -28 -33l-128 -55q-13 -5 -22 -5q-13 0 -21 8.5t-8 21.5q0 22 27 33l128 55q7 3 12.5 4t10.5 1q12 0 20.5 -8.5t8.5 -21.5z" />
    <glyph glyph-name="Icircumflex" unicode="&#xce;" horiz-adv-x="232" 
d="M261 679q0 -7 -2 -17l-116 -621q-7 -42 -38 -42q-14 0 -22.5 9t-8.5 23q0 7 2 17l116 621q7 42 38 42q14 0 22.5 -9t8.5 -23zM389 796q0 -14 -8 -21.5t-21 -7.5q-5 0 -10.5 1t-11.5 4l-86 43l-101 -42q-11 -4 -22 -4t-19 7t-8 20q0 12 6 20t21 14l133 51l101 -53
q26 -13 26 -32z" />
    <glyph glyph-name="Idieresis" unicode="&#xcf;" horiz-adv-x="232" 
d="M261 679q0 -7 -2 -17l-116 -621q-7 -42 -38 -42q-14 0 -22.5 9t-8.5 23q0 7 2 17l116 621q7 42 38 42q14 0 22.5 -9t8.5 -23zM379 822q0 -22 -11.5 -37.5t-29.5 -15.5q-16 0 -26 9.5t-10 26.5q0 22 12 37.5t31 15.5q15 0 24.5 -9.5t9.5 -26.5zM194 822q0 -22 -11.5 -37.5
t-29.5 -15.5q-16 0 -26 9.5t-10 26.5q0 22 12 37.5t31 15.5q15 0 24.5 -9.5t9.5 -26.5z" />
    <glyph glyph-name="Igrave" unicode="&#xcc;" horiz-adv-x="232" 
d="M261 679q0 -7 -2 -17l-116 -621q-7 -42 -38 -42q-14 0 -22.5 9t-8.5 23q0 7 2 17l116 621q7 42 38 42q14 0 22.5 -9t8.5 -23zM334 801q0 -13 -8 -21.5t-21 -8.5t-25 6l-119 54q-27 13 -27 33q0 13 8 21.5t21 8.5t25 -6l119 -54q27 -13 27 -33z" />
    <glyph glyph-name="Ntilde" unicode="&#xd1;" horiz-adv-x="612" 
d="M669 678q0 -2 -0.5 -6t-1.5 -9l-116 -623q-4 -21 -14.5 -29.5t-26.5 -8.5q-14 0 -23 8.5t-14 19.5l-232 559h-2l-100 -547q-7 -42 -37 -42q-13 0 -21.5 8.5t-8.5 22.5q0 4 0.5 8t1.5 9l117 623q4 22 15.5 31t27.5 9q11 0 20.5 -6.5t13.5 -16.5l232 -564h2l100 546
q7 41 38 41q14 0 21.5 -9t7.5 -24zM600 842q0 -9 -4 -16.5t-9 -12.5q-16 -17 -36 -25.5t-40 -8.5t-36.5 5t-33.5 12q-15 6 -26 9.5t-22 3.5t-20 -5t-19 -13q-12 -10 -26 -10q-12 0 -19 7.5t-7 18.5q0 9 4 16.5t9 12.5q16 17 36 25.5t40 8.5t36.5 -5t33.5 -12q15 -6 26 -9.5
t22 -3.5t20 5t19 13q12 10 26 10q12 0 19 -7.5t7 -18.5z" />
    <glyph glyph-name="Oacute" unicode="&#xd3;" horiz-adv-x="612" 
d="M637 461q0 -47 -9 -107q-28 -176 -108 -267.5t-208 -91.5q-105 0 -161 64t-56 190q0 48 9 108q27 175 107 266t208 91q106 0 162 -63.5t56 -189.5zM565 464q0 95 -38 139.5t-113 44.5q-97 0 -154 -67.5t-82 -220.5q-5 -33 -8 -61t-3 -53q0 -96 38 -140.5t113 -44.5
q97 0 153.5 68.5t82.5 221.5q5 32 8 60t3 53zM591 864q0 -20 -28 -33l-128 -55q-13 -5 -22 -5q-13 0 -21 8.5t-8 21.5q0 22 27 33l128 55q7 3 12.5 4t10.5 1q12 0 20.5 -8.5t8.5 -21.5z" />
    <glyph glyph-name="Ocircumflex" unicode="&#xd4;" horiz-adv-x="612" 
d="M637 461q0 -47 -9 -107q-28 -176 -108 -267.5t-208 -91.5q-105 0 -161 64t-56 190q0 48 9 108q27 175 107 266t208 91q106 0 162 -63.5t56 -189.5zM565 464q0 95 -38 139.5t-113 44.5q-97 0 -154 -67.5t-82 -220.5q-5 -33 -8 -61t-3 -53q0 -96 38 -140.5t113 -44.5
q97 0 153.5 68.5t82.5 221.5q5 32 8 60t3 53zM581 796q0 -14 -8 -21.5t-21 -7.5q-5 0 -10.5 1t-11.5 4l-86 43l-101 -42q-11 -4 -22 -4t-19 7t-8 20q0 12 6 20t21 14l133 51l101 -53q26 -13 26 -32z" />
    <glyph glyph-name="Odieresis" unicode="&#xd6;" horiz-adv-x="612" 
d="M637 461q0 -47 -9 -107q-28 -176 -108 -267.5t-208 -91.5q-105 0 -161 64t-56 190q0 48 9 108q27 175 107 266t208 91q106 0 162 -63.5t56 -189.5zM565 464q0 95 -38 139.5t-113 44.5q-97 0 -154 -67.5t-82 -220.5q-5 -33 -8 -61t-3 -53q0 -96 38 -140.5t113 -44.5
q97 0 153.5 68.5t82.5 221.5q5 32 8 60t3 53zM576 822q0 -22 -11.5 -37.5t-29.5 -15.5q-16 0 -26 9.5t-10 26.5q0 22 12 37.5t31 15.5q15 0 24.5 -9.5t9.5 -26.5zM391 822q0 -22 -11.5 -37.5t-29.5 -15.5q-16 0 -26 9.5t-10 26.5q0 22 12 37.5t31 15.5q15 0 24.5 -9.5
t9.5 -26.5z" />
    <glyph glyph-name="Ograve" unicode="&#xd2;" horiz-adv-x="612" 
d="M637 461q0 -47 -9 -107q-28 -176 -108 -267.5t-208 -91.5q-105 0 -161 64t-56 190q0 48 9 108q27 175 107 266t208 91q106 0 162 -63.5t56 -189.5zM565 464q0 95 -38 139.5t-113 44.5q-97 0 -154 -67.5t-82 -220.5q-5 -33 -8 -61t-3 -53q0 -96 38 -140.5t113 -44.5
q97 0 153.5 68.5t82.5 221.5q5 32 8 60t3 53zM491 801q0 -13 -8 -21.5t-21 -8.5t-25 6l-119 54q-27 13 -27 33q0 13 8 21.5t21 8.5t25 -6l119 -54q27 -13 27 -33z" />
    <glyph glyph-name="Otilde" unicode="&#xd5;" horiz-adv-x="612" 
d="M637 461q0 -47 -9 -107q-28 -176 -108 -267.5t-208 -91.5q-105 0 -161 64t-56 190q0 48 9 108q27 175 107 266t208 91q106 0 162 -63.5t56 -189.5zM565 464q0 95 -38 139.5t-113 44.5q-97 0 -154 -67.5t-82 -220.5q-5 -33 -8 -61t-3 -53q0 -96 38 -140.5t113 -44.5
q97 0 153.5 68.5t82.5 221.5q5 32 8 60t3 53zM592 842q0 -9 -4 -16.5t-9 -12.5q-16 -17 -36 -25.5t-40 -8.5t-36.5 5t-33.5 12q-15 6 -26 9.5t-22 3.5t-20 -5t-19 -13q-12 -10 -26 -10q-12 0 -19 7.5t-7 18.5q0 9 4 16.5t9 12.5q16 17 36 25.5t40 8.5t36.5 -5t33.5 -12
q15 -6 26 -9.5t22 -3.5t20 5t19 13q12 10 26 10q12 0 19 -7.5t7 -18.5z" />
    <glyph glyph-name="Scaron" unicode="&#x160;" horiz-adv-x="451" 
d="M493 667q0 -18 -10 -26t-26 -8q-7 0 -14.5 1.5t-20.5 4.5q-19 5 -39 7.5t-41 2.5q-66 0 -104.5 -28.5t-38.5 -84.5q0 -24 8.5 -43t24 -36t38 -33t49.5 -34t51 -37t41 -41t27 -48t10 -58q0 -50 -17 -89.5t-47.5 -66.5t-74.5 -41t-98 -14q-21 0 -43 2t-42.5 5.5t-37.5 9.5
t-27 14q-13 10 -13 25q0 16 10 24.5t24 8.5q8 0 17 -2.5t20 -5.5q21 -7 47 -11t55 -4q74 0 115 36t41 100q0 43 -29 75t-92 73q-27 18 -49.5 37t-39.5 41t-26.5 48t-9.5 58q0 42 15.5 76.5t43.5 59t68 37.5t88 13q35 0 70.5 -5.5t58.5 -16.5q18 -8 18 -26zM501 852
q0 -12 -6 -20t-21 -14l-133 -51l-101 53q-26 13 -26 32q0 14 8 21.5t21 7.5q5 0 10.5 -1t11.5 -4l86 -43l101 42q11 4 22 4t19 -7t8 -20z" />
    <glyph glyph-name="Uacute" unicode="&#xda;" horiz-adv-x="619" 
d="M660 679q0 -7 -2 -17l-77 -417q-11 -58 -31 -104.5t-52.5 -79t-78.5 -50t-109 -17.5q-98 0 -150 48.5t-52 133.5q0 17 1.5 34.5t5.5 37.5l79 421q7 42 38 42q14 0 22.5 -9t8.5 -23q0 -7 -2 -17l-81 -434q-4 -23 -4 -47q0 -62 36 -92t105 -30q81 0 128 43.5t63 128.5
l83 438q7 42 38 42q14 0 22.5 -9t8.5 -23zM597 864q0 -20 -28 -33l-128 -55q-13 -5 -22 -5q-13 0 -21 8.5t-8 21.5q0 22 27 33l128 55q7 3 12.5 4t10.5 1q12 0 20.5 -8.5t8.5 -21.5z" />
    <glyph glyph-name="Ucircumflex" unicode="&#xdb;" horiz-adv-x="619" 
d="M660 679q0 -7 -2 -17l-77 -417q-11 -58 -31 -104.5t-52.5 -79t-78.5 -50t-109 -17.5q-98 0 -150 48.5t-52 133.5q0 17 1.5 34.5t5.5 37.5l79 421q7 42 38 42q14 0 22.5 -9t8.5 -23q0 -7 -2 -17l-81 -434q-4 -23 -4 -47q0 -62 36 -92t105 -30q81 0 128 43.5t63 128.5
l83 438q7 42 38 42q14 0 22.5 -9t8.5 -23zM585 796q0 -14 -8 -21.5t-21 -7.5q-5 0 -10.5 1t-11.5 4l-86 43l-101 -42q-11 -4 -22 -4t-19 7t-8 20q0 12 6 20t21 14l133 51l101 -53q26 -13 26 -32z" />
    <glyph glyph-name="Udieresis" unicode="&#xdc;" horiz-adv-x="619" 
d="M660 679q0 -7 -2 -17l-77 -417q-11 -58 -31 -104.5t-52.5 -79t-78.5 -50t-109 -17.5q-98 0 -150 48.5t-52 133.5q0 17 1.5 34.5t5.5 37.5l79 421q7 42 38 42q14 0 22.5 -9t8.5 -23q0 -7 -2 -17l-81 -434q-4 -23 -4 -47q0 -62 36 -92t105 -30q81 0 128 43.5t63 128.5
l83 438q7 42 38 42q14 0 22.5 -9t8.5 -23zM576 822q0 -22 -11.5 -37.5t-29.5 -15.5q-16 0 -26 9.5t-10 26.5q0 22 12 37.5t31 15.5q15 0 24.5 -9.5t9.5 -26.5zM391 822q0 -22 -11.5 -37.5t-29.5 -15.5q-16 0 -26 9.5t-10 26.5q0 22 12 37.5t31 15.5q15 0 24.5 -9.5
t9.5 -26.5z" />
    <glyph glyph-name="Ugrave" unicode="&#xd9;" horiz-adv-x="619" 
d="M660 679q0 -7 -2 -17l-77 -417q-11 -58 -31 -104.5t-52.5 -79t-78.5 -50t-109 -17.5q-98 0 -150 48.5t-52 133.5q0 17 1.5 34.5t5.5 37.5l79 421q7 42 38 42q14 0 22.5 -9t8.5 -23q0 -7 -2 -17l-81 -434q-4 -23 -4 -47q0 -62 36 -92t105 -30q81 0 128 43.5t63 128.5
l83 438q7 42 38 42q14 0 22.5 -9t8.5 -23zM482 801q0 -13 -8 -21.5t-21 -8.5t-25 6l-119 54q-27 13 -27 33q0 13 8 21.5t21 8.5t25 -6l119 -54q27 -13 27 -33z" />
    <glyph glyph-name="Yacute" unicode="&#xdd;" horiz-adv-x="475" 
d="M586 684q0 -9 -4.5 -18t-15.5 -23l-240 -305l-56 -297q-7 -42 -38 -42q-14 0 -22.5 9t-8.5 23q0 7 2 17l55 290l-129 312q-7 15 -7 27q0 14 9 24.5t26 10.5q13 0 20.5 -7t11.5 -17l113 -286l219 290q7 9 15 14.5t19 5.5q15 0 23 -8.5t8 -19.5zM526 864q0 -20 -28 -33
l-128 -55q-13 -5 -22 -5q-13 0 -21 8.5t-8 21.5q0 22 27 33l128 55q7 3 12.5 4t10.5 1q12 0 20.5 -8.5t8.5 -21.5z" />
    <glyph glyph-name="Ydieresis" unicode="&#x178;" horiz-adv-x="475" 
d="M586 684q0 -9 -4.5 -18t-15.5 -23l-240 -305l-56 -297q-7 -42 -38 -42q-14 0 -22.5 9t-8.5 23q0 7 2 17l55 290l-129 312q-7 15 -7 27q0 14 9 24.5t26 10.5q13 0 20.5 -7t11.5 -17l113 -286l219 290q7 9 15 14.5t19 5.5q15 0 23 -8.5t8 -19.5zM501 822q0 -22 -11.5 -37.5
t-29.5 -15.5q-16 0 -26 9.5t-10 26.5q0 22 12 37.5t31 15.5q15 0 24.5 -9.5t9.5 -26.5zM316 822q0 -22 -11.5 -37.5t-29.5 -15.5q-16 0 -26 9.5t-10 26.5q0 22 12 37.5t31 15.5q15 0 24.5 -9.5t9.5 -26.5z" />
    <glyph glyph-name="Zcaron" unicode="&#x17d;" horiz-adv-x="519" 
d="M567 674q0 -13 -5 -23.5t-13 -21.5l-406 -560h313q17 0 25.5 -9.5t8.5 -22.5t-8.5 -23.5t-25.5 -10.5h-362q-21 0 -29 10t-8 24q0 13 4.5 23t18.5 28l399 553h-298q-17 0 -25.5 9.5t-8.5 22.5t8.5 23.5t25.5 10.5h352q19 0 26.5 -11t7.5 -22zM519 852q0 -12 -6 -20
t-21 -14l-133 -51l-101 53q-26 13 -26 32q0 14 8 21.5t21 7.5q5 0 10.5 -1t11.5 -4l86 -43l101 42q11 4 22 4t19 -7t8 -20z" />
    <glyph glyph-name="aacute" unicode="&#xe1;" horiz-adv-x="463" 
d="M473 403q0 -18 -3 -36l-60 -326q-4 -20 -12.5 -30.5t-26.5 -10.5q-15 0 -24.5 10t-4.5 28l9 38q-25 -35 -66 -58.5t-92 -23.5q-35 0 -60.5 11t-43 30t-26 44t-8.5 53q0 87 63 132t184 50l92 4l8 43q3 16 3 29q0 38 -24.5 59t-81.5 21q-21 0 -43 -2.5t-54 -10.5
q-9 -2 -16 -3t-11 -1q-12 0 -20 7t-8 21q0 12 6.5 19.5t16.5 11.5q57 21 140 21q81 0 122 -35t41 -95zM307 260q-43 -2 -77 -9t-58 -21t-36.5 -36.5t-12.5 -56.5q0 -35 21 -58.5t67 -23.5q33 0 60 11.5t47 31t33 45t19 53.5l14 68zM472 697q0 -20 -28 -33l-128 -55
q-13 -5 -22 -5q-13 0 -21 8.5t-8 21.5q0 22 27 33l128 55q7 3 12.5 4t10.5 1q12 0 20.5 -8.5t8.5 -21.5z" />
    <glyph glyph-name="acircumflex" unicode="&#xe2;" horiz-adv-x="463" 
d="M473 403q0 -18 -3 -36l-60 -326q-4 -20 -12.5 -30.5t-26.5 -10.5q-15 0 -24.5 10t-4.5 28l9 38q-25 -35 -66 -58.5t-92 -23.5q-35 0 -60.5 11t-43 30t-26 44t-8.5 53q0 87 63 132t184 50l92 4l8 43q3 16 3 29q0 38 -24.5 59t-81.5 21q-21 0 -43 -2.5t-54 -10.5
q-9 -2 -16 -3t-11 -1q-12 0 -20 7t-8 21q0 12 6.5 19.5t16.5 11.5q57 21 140 21q81 0 122 -35t41 -95zM307 260q-43 -2 -77 -9t-58 -21t-36.5 -36.5t-12.5 -56.5q0 -35 21 -58.5t67 -23.5q33 0 60 11.5t47 31t33 45t19 53.5l14 68zM478 629q0 -14 -8 -21.5t-21 -7.5
q-5 0 -10.5 1t-11.5 4l-86 43l-101 -42q-11 -4 -22 -4t-19 7t-8 20q0 12 6 20t21 14l133 51l101 -53q26 -13 26 -32z" />
    <glyph glyph-name="adieresis" unicode="&#xe4;" horiz-adv-x="463" 
d="M473 403q0 -18 -3 -36l-60 -326q-4 -20 -12.5 -30.5t-26.5 -10.5q-15 0 -24.5 10t-4.5 28l9 38q-25 -35 -66 -58.5t-92 -23.5q-35 0 -60.5 11t-43 30t-26 44t-8.5 53q0 87 63 132t184 50l92 4l8 43q3 16 3 29q0 38 -24.5 59t-81.5 21q-21 0 -43 -2.5t-54 -10.5
q-9 -2 -16 -3t-11 -1q-12 0 -20 7t-8 21q0 12 6.5 19.5t16.5 11.5q57 21 140 21q81 0 122 -35t41 -95zM307 260q-43 -2 -77 -9t-58 -21t-36.5 -36.5t-12.5 -56.5q0 -35 21 -58.5t67 -23.5q33 0 60 11.5t47 31t33 45t19 53.5l14 68zM464 655q0 -22 -11.5 -37.5t-29.5 -15.5
q-16 0 -26 9.5t-10 26.5q0 22 12 37.5t31 15.5q15 0 24.5 -9.5t9.5 -26.5zM279 655q0 -22 -11.5 -37.5t-29.5 -15.5q-16 0 -26 9.5t-10 26.5q0 22 12 37.5t31 15.5q15 0 24.5 -9.5t9.5 -26.5z" />
    <glyph glyph-name="agrave" unicode="&#xe0;" horiz-adv-x="463" 
d="M473 403q0 -18 -3 -36l-60 -326q-4 -20 -12.5 -30.5t-26.5 -10.5q-15 0 -24.5 10t-4.5 28l9 38q-25 -35 -66 -58.5t-92 -23.5q-35 0 -60.5 11t-43 30t-26 44t-8.5 53q0 87 63 132t184 50l92 4l8 43q3 16 3 29q0 38 -24.5 59t-81.5 21q-21 0 -43 -2.5t-54 -10.5
q-9 -2 -16 -3t-11 -1q-12 0 -20 7t-8 21q0 12 6.5 19.5t16.5 11.5q57 21 140 21q81 0 122 -35t41 -95zM307 260q-43 -2 -77 -9t-58 -21t-36.5 -36.5t-12.5 -56.5q0 -35 21 -58.5t67 -23.5q33 0 60 11.5t47 31t33 45t19 53.5l14 68zM400 634q0 -13 -8 -21.5t-21 -8.5t-25 6
l-119 54q-27 13 -27 33q0 13 8 21.5t21 8.5t25 -6l119 -54q27 -13 27 -33z" />
    <glyph glyph-name="aring" unicode="&#xe5;" horiz-adv-x="463" 
d="M473 403q0 -18 -3 -36l-60 -326q-4 -20 -12.5 -30.5t-26.5 -10.5q-15 0 -24.5 10t-4.5 28l9 38q-25 -35 -66 -58.5t-92 -23.5q-35 0 -60.5 11t-43 30t-26 44t-8.5 53q0 87 63 132t184 50l92 4l8 43q3 16 3 29q0 38 -24.5 59t-81.5 21q-21 0 -43 -2.5t-54 -10.5
q-9 -2 -16 -3t-11 -1q-12 0 -20 7t-8 21q0 12 6.5 19.5t16.5 11.5q57 21 140 21q81 0 122 -35t41 -95zM307 260q-43 -2 -77 -9t-58 -21t-36.5 -36.5t-12.5 -56.5q0 -35 21 -58.5t67 -23.5q33 0 60 11.5t47 31t33 45t19 53.5l14 68zM428 688q0 -21 -7.5 -39.5t-21 -32
t-31.5 -21t-38 -7.5q-34 0 -55.5 24t-21.5 57q0 21 7.5 39t21 31.5t31.5 21.5t38 8q34 0 55.5 -24t21.5 -57zM390 686q0 19 -12 32.5t-32 13.5q-24 0 -39.5 -18.5t-15.5 -42.5q0 -19 12 -32.5t32 -13.5q24 0 39.5 18.5t15.5 42.5z" />
    <glyph glyph-name="atilde" unicode="&#xe3;" horiz-adv-x="463" 
d="M473 403q0 -18 -3 -36l-60 -326q-4 -20 -12.5 -30.5t-26.5 -10.5q-15 0 -24.5 10t-4.5 28l9 38q-25 -35 -66 -58.5t-92 -23.5q-35 0 -60.5 11t-43 30t-26 44t-8.5 53q0 87 63 132t184 50l92 4l8 43q3 16 3 29q0 38 -24.5 59t-81.5 21q-21 0 -43 -2.5t-54 -10.5
q-9 -2 -16 -3t-11 -1q-12 0 -20 7t-8 21q0 12 6.5 19.5t16.5 11.5q57 21 140 21q81 0 122 -35t41 -95zM307 260q-43 -2 -77 -9t-58 -21t-36.5 -36.5t-12.5 -56.5q0 -35 21 -58.5t67 -23.5q33 0 60 11.5t47 31t33 45t19 53.5l14 68zM479 675q0 -9 -4 -16.5t-9 -12.5
q-16 -17 -36 -25.5t-40 -8.5t-36.5 5t-33.5 12q-15 6 -26 9.5t-22 3.5t-20 -5t-19 -13q-12 -10 -26 -10q-12 0 -19 7.5t-7 18.5q0 9 4 16.5t9 12.5q16 17 36 25.5t40 8.5t36.5 -5t33.5 -12q15 -6 26 -9.5t22 -3.5t20 5t19 13q12 10 26 10q12 0 19 -7.5t7 -18.5z" />
    <glyph glyph-name="ccedilla" unicode="&#xe7;" horiz-adv-x="421" 
d="M324 -98q0 -22 -8.5 -37.5t-22 -25.5t-31 -15t-35.5 -5q-8 0 -21 1t-26 5t-22.5 10.5t-9.5 18.5q0 22 21 22q10 0 24 -7q8 -4 16 -5t18 -1q19 0 30.5 8.5t11.5 23.5q0 10 -4.5 16t-11 9t-13.5 3.5t-13 0.5q-4 0 -8.5 -0.5t-8.5 -0.5q-15 0 -15 16q0 8 5 18l23 43
q-75 14 -111.5 68t-36.5 135q0 15 1.5 31t3.5 33q8 60 28.5 110t53.5 85t78.5 54.5t104.5 19.5q20 0 45 -3.5t42 -11.5q8 -4 13.5 -10.5t5.5 -16.5q0 -17 -9 -25t-23 -8q-5 0 -13 1t-16 3q-14 3 -28.5 4.5t-27.5 1.5q-78 0 -124.5 -53t-60.5 -151q-2 -16 -3.5 -30.5
t-1.5 -28.5q0 -73 35.5 -111t107.5 -38q14 0 28.5 2t27.5 5q8 2 14 3t11 1q12 0 20 -7t8 -19t-6 -19.5t-15 -12.5q-23 -11 -51 -14t-48 -3h-15l-21 -38q5 1 12 1.5t12 0.5q23 0 41.5 -15.5t18.5 -41.5z" />
    <glyph glyph-name="eacute" unicode="&#xe9;" horiz-adv-x="470" 
d="M480 358q0 -17 -1 -34t-5 -36q-3 -16 -14 -28t-34 -12h-283q-2 -11 -2 -22v-21q0 -75 38 -111.5t101 -36.5q14 0 35.5 1.5t36.5 5.5q7 2 14.5 3t12.5 1q28 0 28 -26q0 -22 -23 -32q-25 -10 -57 -12.5t-53 -2.5q-90 0 -144.5 53t-54.5 158q0 70 15.5 130t46 104t75.5 69.5
t103 25.5q82 0 123.5 -46.5t41.5 -130.5zM415 365q0 55 -25 83t-82 28q-67 0 -103.5 -45t-52.5 -128h256q7 32 7 62zM463 697q0 -20 -28 -33l-128 -55q-13 -5 -22 -5q-13 0 -21 8.5t-8 21.5q0 22 27 33l128 55q7 3 12.5 4t10.5 1q12 0 20.5 -8.5t8.5 -21.5z" />
    <glyph glyph-name="ecircumflex" unicode="&#xea;" horiz-adv-x="470" 
d="M480 358q0 -17 -1 -34t-5 -36q-3 -16 -14 -28t-34 -12h-283q-2 -11 -2 -22v-21q0 -75 38 -111.5t101 -36.5q14 0 35.5 1.5t36.5 5.5q7 2 14.5 3t12.5 1q28 0 28 -26q0 -22 -23 -32q-25 -10 -57 -12.5t-53 -2.5q-90 0 -144.5 53t-54.5 158q0 70 15.5 130t46 104t75.5 69.5
t103 25.5q82 0 123.5 -46.5t41.5 -130.5zM415 365q0 55 -25 83t-82 28q-67 0 -103.5 -45t-52.5 -128h256q7 32 7 62zM466 629q0 -14 -8 -21.5t-21 -7.5q-5 0 -10.5 1t-11.5 4l-86 43l-101 -42q-11 -4 -22 -4t-19 7t-8 20q0 12 6 20t21 14l133 51l101 -53q26 -13 26 -32z" />
    <glyph glyph-name="edieresis" unicode="&#xeb;" horiz-adv-x="470" 
d="M480 358q0 -17 -1 -34t-5 -36q-3 -16 -14 -28t-34 -12h-283q-2 -11 -2 -22v-21q0 -75 38 -111.5t101 -36.5q14 0 35.5 1.5t36.5 5.5q7 2 14.5 3t12.5 1q28 0 28 -26q0 -22 -23 -32q-25 -10 -57 -12.5t-53 -2.5q-90 0 -144.5 53t-54.5 158q0 70 15.5 130t46 104t75.5 69.5
t103 25.5q82 0 123.5 -46.5t41.5 -130.5zM415 365q0 55 -25 83t-82 28q-67 0 -103.5 -45t-52.5 -128h256q7 32 7 62zM459 655q0 -22 -11.5 -37.5t-29.5 -15.5q-16 0 -26 9.5t-10 26.5q0 22 12 37.5t31 15.5q15 0 24.5 -9.5t9.5 -26.5zM274 655q0 -22 -11.5 -37.5
t-29.5 -15.5q-16 0 -26 9.5t-10 26.5q0 22 12 37.5t31 15.5q15 0 24.5 -9.5t9.5 -26.5z" />
    <glyph glyph-name="egrave" unicode="&#xe8;" horiz-adv-x="470" 
d="M480 358q0 -17 -1 -34t-5 -36q-3 -16 -14 -28t-34 -12h-283q-2 -11 -2 -22v-21q0 -75 38 -111.5t101 -36.5q14 0 35.5 1.5t36.5 5.5q7 2 14.5 3t12.5 1q28 0 28 -26q0 -22 -23 -32q-25 -10 -57 -12.5t-53 -2.5q-90 0 -144.5 53t-54.5 158q0 70 15.5 130t46 104t75.5 69.5
t103 25.5q82 0 123.5 -46.5t41.5 -130.5zM415 365q0 55 -25 83t-82 28q-67 0 -103.5 -45t-52.5 -128h256q7 32 7 62zM417 634q0 -13 -8 -21.5t-21 -8.5t-25 6l-119 54q-27 13 -27 33q0 13 8 21.5t21 8.5t25 -6l119 -54q27 -13 27 -33z" />
    <glyph glyph-name="iacute" unicode="&#xed;" horiz-adv-x="215" 
d="M227 498q0 -2 -0.5 -6t-1.5 -9l-82 -441q-7 -43 -37 -43q-15 0 -23 9t-8 24q0 6 2 16l82 441q7 42 38 42q14 0 22 -9t8 -24zM352 697q0 -20 -28 -33l-128 -55q-13 -5 -22 -5q-13 0 -21 8.5t-8 21.5q0 22 27 33l128 55q7 3 12.5 4t10.5 1q12 0 20.5 -8.5t8.5 -21.5z" />
    <glyph glyph-name="icircumflex" unicode="&#xee;" horiz-adv-x="215" 
d="M227 498q0 -2 -0.5 -6t-1.5 -9l-82 -441q-7 -43 -37 -43q-15 0 -23 9t-8 24q0 6 2 16l82 441q7 42 38 42q14 0 22 -9t8 -24zM353 629q0 -14 -8 -21.5t-21 -7.5q-5 0 -10.5 1t-11.5 4l-86 43l-101 -42q-11 -4 -22 -4t-19 7t-8 20q0 12 6 20t21 14l133 51l101 -53
q26 -13 26 -32z" />
    <glyph glyph-name="idieresis" unicode="&#xef;" horiz-adv-x="215" 
d="M227 498q0 -2 -0.5 -6t-1.5 -9l-82 -441q-7 -43 -37 -43q-15 0 -23 9t-8 24q0 6 2 16l82 441q7 42 38 42q14 0 22 -9t8 -24zM348 655q0 -22 -11.5 -37.5t-29.5 -15.5q-16 0 -26 9.5t-10 26.5q0 22 12 37.5t31 15.5q15 0 24.5 -9.5t9.5 -26.5zM163 655q0 -22 -11.5 -37.5
t-29.5 -15.5q-16 0 -26 9.5t-10 26.5q0 22 12 37.5t31 15.5q15 0 24.5 -9.5t9.5 -26.5z" />
    <glyph glyph-name="igrave" unicode="&#xec;" horiz-adv-x="215" 
d="M227 498q0 -2 -0.5 -6t-1.5 -9l-82 -441q-7 -43 -37 -43q-15 0 -23 9t-8 24q0 6 2 16l82 441q7 42 38 42q14 0 22 -9t8 -24zM310 634q0 -13 -8 -21.5t-21 -8.5t-25 6l-119 54q-27 13 -27 33q0 13 8 21.5t21 8.5t25 -6l119 -54q27 -13 27 -33z" />
    <glyph glyph-name="ntilde" unicode="&#xf1;" horiz-adv-x="518" 
d="M523 409q0 -13 -1.5 -25.5t-3.5 -24.5l-60 -318q-7 -42 -37 -42q-14 0 -22.5 9t-8.5 24v6t2 12l59 312q3 16 3 30q0 41 -23 59.5t-67 18.5q-36 0 -70 -15.5t-60 -37.5q-12 -11 -20.5 -23t-10.5 -25l-62 -328q-9 -42 -37 -42q-14 0 -22.5 9t-8.5 24v6t2 12l83 439
q9 42 37 42q14 0 22.5 -9t8.5 -24v-6t-2 -12l-3 -17q30 32 71.5 52t89.5 20q63 0 102 -31.5t39 -94.5zM530 675q0 -9 -4 -16.5t-9 -12.5q-16 -17 -36 -25.5t-40 -8.5t-36.5 5t-33.5 12q-15 6 -26 9.5t-22 3.5t-20 -5t-19 -13q-12 -10 -26 -10q-12 0 -19 7.5t-7 18.5
q0 9 4 16.5t9 12.5q16 17 36 25.5t40 8.5t36.5 -5t33.5 -12q15 -6 26 -9.5t22 -3.5t20 5t19 13q12 10 26 10q12 0 19 -7.5t7 -18.5z" />
    <glyph glyph-name="oacute" unicode="&#xf3;" horiz-adv-x="493" 
d="M511 335q0 -20 -1.5 -39t-5.5 -42q-23 -135 -87 -197t-158 -62q-83 0 -133.5 50t-50.5 151q0 19 1.5 37.5t5.5 42.5q10 67 32 116t53.5 81t72 47t87.5 15q84 0 134 -49.5t50 -150.5zM443 336q0 138 -119 138q-72 0 -113.5 -47t-60.5 -154q-4 -21 -5.5 -41.5t-1.5 -37.5
q0 -138 119 -138q72 0 113.5 47t60.5 154q4 21 5.5 41.5t1.5 37.5zM473 697q0 -20 -28 -33l-128 -55q-13 -5 -22 -5q-13 0 -21 8.5t-8 21.5q0 22 27 33l128 55q7 3 12.5 4t10.5 1q12 0 20.5 -8.5t8.5 -21.5z" />
    <glyph glyph-name="ocircumflex" unicode="&#xf4;" horiz-adv-x="493" 
d="M511 335q0 -20 -1.5 -39t-5.5 -42q-23 -135 -87 -197t-158 -62q-83 0 -133.5 50t-50.5 151q0 19 1.5 37.5t5.5 42.5q10 67 32 116t53.5 81t72 47t87.5 15q84 0 134 -49.5t50 -150.5zM443 336q0 138 -119 138q-72 0 -113.5 -47t-60.5 -154q-4 -21 -5.5 -41.5t-1.5 -37.5
q0 -138 119 -138q72 0 113.5 47t60.5 154q4 21 5.5 41.5t1.5 37.5zM487 629q0 -14 -8 -21.5t-21 -7.5q-5 0 -10.5 1t-11.5 4l-86 43l-101 -42q-11 -4 -22 -4t-19 7t-8 20q0 12 6 20t21 14l133 51l101 -53q26 -13 26 -32z" />
    <glyph glyph-name="odieresis" unicode="&#xf6;" horiz-adv-x="493" 
d="M511 335q0 -20 -1.5 -39t-5.5 -42q-23 -135 -87 -197t-158 -62q-83 0 -133.5 50t-50.5 151q0 19 1.5 37.5t5.5 42.5q10 67 32 116t53.5 81t72 47t87.5 15q84 0 134 -49.5t50 -150.5zM443 336q0 138 -119 138q-72 0 -113.5 -47t-60.5 -154q-4 -21 -5.5 -41.5t-1.5 -37.5
q0 -138 119 -138q72 0 113.5 47t60.5 154q4 21 5.5 41.5t1.5 37.5zM482 655q0 -22 -11.5 -37.5t-29.5 -15.5q-16 0 -26 9.5t-10 26.5q0 22 12 37.5t31 15.5q15 0 24.5 -9.5t9.5 -26.5zM297 655q0 -22 -11.5 -37.5t-29.5 -15.5q-16 0 -26 9.5t-10 26.5q0 22 12 37.5t31 15.5
q15 0 24.5 -9.5t9.5 -26.5z" />
    <glyph glyph-name="ograve" unicode="&#xf2;" horiz-adv-x="493" 
d="M511 335q0 -20 -1.5 -39t-5.5 -42q-23 -135 -87 -197t-158 -62q-83 0 -133.5 50t-50.5 151q0 19 1.5 37.5t5.5 42.5q10 67 32 116t53.5 81t72 47t87.5 15q84 0 134 -49.5t50 -150.5zM443 336q0 138 -119 138q-72 0 -113.5 -47t-60.5 -154q-4 -21 -5.5 -41.5t-1.5 -37.5
q0 -138 119 -138q72 0 113.5 47t60.5 154q4 21 5.5 41.5t1.5 37.5zM449 634q0 -13 -8 -21.5t-21 -8.5t-25 6l-119 54q-27 13 -27 33q0 13 8 21.5t21 8.5t25 -6l119 -54q27 -13 27 -33z" />
    <glyph glyph-name="otilde" unicode="&#xf5;" horiz-adv-x="493" 
d="M511 335q0 -20 -1.5 -39t-5.5 -42q-23 -135 -87 -197t-158 -62q-83 0 -133.5 50t-50.5 151q0 19 1.5 37.5t5.5 42.5q10 67 32 116t53.5 81t72 47t87.5 15q84 0 134 -49.5t50 -150.5zM443 336q0 138 -119 138q-72 0 -113.5 -47t-60.5 -154q-4 -21 -5.5 -41.5t-1.5 -37.5
q0 -138 119 -138q72 0 113.5 47t60.5 154q4 21 5.5 41.5t1.5 37.5zM505 675q0 -9 -4 -16.5t-9 -12.5q-16 -17 -36 -25.5t-40 -8.5t-36.5 5t-33.5 12q-15 6 -26 9.5t-22 3.5t-20 -5t-19 -13q-12 -10 -26 -10q-12 0 -19 7.5t-7 18.5q0 9 4 16.5t9 12.5q16 17 36 25.5t40 8.5
t36.5 -5t33.5 -12q15 -6 26 -9.5t22 -3.5t20 5t19 13q12 10 26 10q12 0 19 -7.5t7 -18.5z" />
    <glyph glyph-name="scaron" unicode="&#x161;" horiz-adv-x="424" 
d="M429 488q0 -17 -9 -24.5t-22 -7.5q-12 0 -30 5t-38 8.5t-43 3.5q-49 0 -76 -20.5t-27 -54.5q0 -31 24 -53.5t67 -46.5q30 -17 52.5 -32.5t37.5 -32t22 -36.5t7 -45q0 -76 -51 -116.5t-139 -40.5q-81 0 -129 24q-16 8 -16 27q0 17 10.5 24.5t23.5 7.5q8 0 23 -5
q18 -7 39.5 -10.5t56.5 -3.5q56 0 86 22.5t30 64.5q0 28 -21 50t-70 49q-26 14 -47 28.5t-37 32t-24.5 38.5t-8.5 49q0 66 49 104.5t130 38.5q28 0 58.5 -5.5t54.5 -16.5q6 -3 11.5 -9.5t5.5 -16.5zM459 685q0 -12 -6 -20t-21 -14l-133 -51l-101 53q-26 13 -26 32
q0 14 8 21.5t21 7.5q5 0 10.5 -1t11.5 -4l86 -43l101 42q11 4 22 4t19 -7t8 -20z" />
    <glyph glyph-name="uacute" unicode="&#xfa;" horiz-adv-x="501" 
d="M527 499v-6t-2 -12l-54 -291q-17 -92 -68.5 -143.5t-153.5 -51.5q-80 0 -123 41t-43 112q0 11 1 23.5t4 26.5l54 292q7 42 37 42q14 0 22.5 -9t8.5 -24v-6t-2 -12l-53 -284q-2 -10 -4 -23.5t-2 -21.5q0 -50 30.5 -72t76.5 -22q29 0 53 7t42.5 23t31.5 42.5t21 65.5
l55 294q7 42 37 42q14 0 22.5 -9t8.5 -24zM485 697q0 -20 -28 -33l-128 -55q-13 -5 -22 -5q-13 0 -21 8.5t-8 21.5q0 22 27 33l128 55q7 3 12.5 4t10.5 1q12 0 20.5 -8.5t8.5 -21.5z" />
    <glyph glyph-name="ucircumflex" unicode="&#xfb;" horiz-adv-x="501" 
d="M527 499v-6t-2 -12l-54 -291q-17 -92 -68.5 -143.5t-153.5 -51.5q-80 0 -123 41t-43 112q0 11 1 23.5t4 26.5l54 292q7 42 37 42q14 0 22.5 -9t8.5 -24v-6t-2 -12l-53 -284q-2 -10 -4 -23.5t-2 -21.5q0 -50 30.5 -72t76.5 -22q29 0 53 7t42.5 23t31.5 42.5t21 65.5
l55 294q7 42 37 42q14 0 22.5 -9t8.5 -24zM495 629q0 -14 -8 -21.5t-21 -7.5q-5 0 -10.5 1t-11.5 4l-86 43l-101 -42q-11 -4 -22 -4t-19 7t-8 20q0 12 6 20t21 14l133 51l101 -53q26 -13 26 -32z" />
    <glyph glyph-name="udieresis" unicode="&#xfc;" horiz-adv-x="501" 
d="M527 499v-6t-2 -12l-54 -291q-17 -92 -68.5 -143.5t-153.5 -51.5q-80 0 -123 41t-43 112q0 11 1 23.5t4 26.5l54 292q7 42 37 42q14 0 22.5 -9t8.5 -24v-6t-2 -12l-53 -284q-2 -10 -4 -23.5t-2 -21.5q0 -50 30.5 -72t76.5 -22q29 0 53 7t42.5 23t31.5 42.5t21 65.5
l55 294q7 42 37 42q14 0 22.5 -9t8.5 -24zM487 655q0 -22 -11.5 -37.5t-29.5 -15.5q-16 0 -26 9.5t-10 26.5q0 22 12 37.5t31 15.5q15 0 24.5 -9.5t9.5 -26.5zM302 655q0 -22 -11.5 -37.5t-29.5 -15.5q-16 0 -26 9.5t-10 26.5q0 22 12 37.5t31 15.5q15 0 24.5 -9.5
t9.5 -26.5z" />
    <glyph glyph-name="ugrave" unicode="&#xf9;" horiz-adv-x="501" 
d="M527 499v-6t-2 -12l-54 -291q-17 -92 -68.5 -143.5t-153.5 -51.5q-80 0 -123 41t-43 112q0 11 1 23.5t4 26.5l54 292q7 42 37 42q14 0 22.5 -9t8.5 -24v-6t-2 -12l-53 -284q-2 -10 -4 -23.5t-2 -21.5q0 -50 30.5 -72t76.5 -22q29 0 53 7t42.5 23t31.5 42.5t21 65.5
l55 294q7 42 37 42q14 0 22.5 -9t8.5 -24zM439 634q0 -13 -8 -21.5t-21 -8.5t-25 6l-119 54q-27 13 -27 33q0 13 8 21.5t21 8.5t25 -6l119 -54q27 -13 27 -33z" />
    <glyph glyph-name="yacute" unicode="&#xfd;" horiz-adv-x="428" 
d="M498 505q0 -11 -9 -27l-343 -660q-7 -14 -15.5 -21.5t-22.5 -7.5q-11 0 -19.5 7t-8.5 18q0 7 1 13t6 14l93 179l-75 459q-1 5 -1.5 10t-0.5 9q0 16 9.5 25t24.5 9q27 0 32 -28l58 -398h2l202 399q14 27 36 27q14 0 22.5 -7.5t8.5 -19.5zM454 697q0 -20 -28 -33l-128 -55
q-13 -5 -22 -5q-13 0 -21 8.5t-8 21.5q0 22 27 33l128 55q7 3 12.5 4t10.5 1q12 0 20.5 -8.5t8.5 -21.5z" />
    <glyph glyph-name="ydieresis" unicode="&#xff;" horiz-adv-x="428" 
d="M498 505q0 -11 -9 -27l-343 -660q-7 -14 -15.5 -21.5t-22.5 -7.5q-11 0 -19.5 7t-8.5 18q0 7 1 13t6 14l93 179l-75 459q-1 5 -1.5 10t-0.5 9q0 16 9.5 25t24.5 9q27 0 32 -28l58 -398h2l202 399q14 27 36 27q14 0 22.5 -7.5t8.5 -19.5zM453 655q0 -22 -11.5 -37.5
t-29.5 -15.5q-16 0 -26 9.5t-10 26.5q0 22 12 37.5t31 15.5q15 0 24.5 -9.5t9.5 -26.5zM268 655q0 -22 -11.5 -37.5t-29.5 -15.5q-16 0 -26 9.5t-10 26.5q0 22 12 37.5t31 15.5q15 0 24.5 -9.5t9.5 -26.5z" />
    <glyph glyph-name="zcaron" unicode="&#x17e;" horiz-adv-x="444" 
d="M462 496q0 -13 -6 -23t-12 -18l-312 -387v-2h243q17 0 25 -8.5t8 -21.5q0 -12 -8 -22t-25 -10h-306q-14 0 -21 8t-7 20q0 14 6 24t14 20l312 386v2h-227q-17 0 -25 9t-8 22q0 12 7.5 22t24.5 10h284q15 0 24 -8.5t9 -22.5zM449 685q0 -12 -6 -20t-21 -14l-133 -51
l-101 53q-26 13 -26 32q0 14 8 21.5t21 7.5q5 0 10.5 -1t11.5 -4l86 -43l101 42q11 4 22 4t19 -7t8 -20z" />
    <glyph glyph-name="oneeighth" unicode="&#x215b;" horiz-adv-x="736" 
d="M722 332q0 -35 -16.5 -63.5t-48.5 -39.5q28 -11 39.5 -34t11.5 -51q0 -63 -36.5 -102.5t-104.5 -39.5q-54 0 -82.5 27.5t-28.5 73.5q0 47 20.5 81.5t59.5 48.5q-22 13 -31 31.5t-9 41.5q0 57 35 87.5t87 30.5q48 0 76 -23.5t28 -68.5zM295 680v-5.5t-1 -7.5l-66 -349
q-6 -30 -29 -30q-26 0 -26 26v5.5t2 9.5l62 325h-37q-14 0 -20.5 7.5t-6.5 18.5q0 10 6.5 18.5t20.5 8.5h68q14 0 20.5 -8t6.5 -19zM602 702q0 -5 -2.5 -11.5t-9.5 -17.5l-387 -662q-14 -23 -30 -23q-11 0 -18.5 6t-7.5 16q0 5 2.5 11.5t9.5 17.5l387 662q14 23 30 23
q11 0 18.5 -6t7.5 -16zM669 326q0 26 -15.5 37t-39.5 11q-29 0 -47.5 -16t-18.5 -52q0 -24 13 -39t38 -15q32 0 51 19t19 55zM654 143q0 62 -62 62q-38 0 -61 -24.5t-23 -69.5q0 -30 16.5 -44.5t46.5 -14.5q42 0 62.5 24t20.5 67z" />
    <glyph glyph-name="threeeighths" unicode="&#x215c;" horiz-adv-x="808" 
d="M788 332q0 -35 -16.5 -63.5t-48.5 -39.5q28 -11 39.5 -34t11.5 -51q0 -63 -36 -102.5t-105 -39.5q-54 0 -82.5 27.5t-28.5 73.5q0 47 20.5 81.5t59.5 48.5q-22 13 -30.5 31.5t-8.5 41.5q0 57 35 87.5t87 30.5q47 0 75 -23.5t28 -68.5zM681 702q0 -5 -2.5 -11.5
t-9.5 -17.5l-387 -662q-14 -23 -30 -23q-11 0 -18.5 6t-7.5 16q0 5 2.5 11.5t9.5 17.5l387 662q14 23 30 23q11 0 18.5 -6t7.5 -16zM384 623q0 -35 -18.5 -64.5t-56.5 -45.5q31 -11 43.5 -32.5t12.5 -46.5q0 -31 -10 -57.5t-29 -46t-46.5 -30.5t-62.5 -11q-24 0 -46 3.5
t-33 11.5q-11 6 -11 19q0 14 8 21t17 7q5 0 9.5 -1t11.5 -3q19 -6 45 -6q45 0 69 24t24 67q0 52 -70 52h-10q-13 0 -19.5 7.5t-6.5 18.5q0 10 6.5 18.5t19.5 8.5h16q41 0 62.5 23.5t21.5 56.5q0 45 -53 45q-13 0 -26 -2.5t-28 -8.5q-8 -4 -16 -4q-9 0 -15.5 6t-6.5 17
t6.5 17.5t17.5 11.5q34 15 74 15q51 0 75.5 -26.5t24.5 -64.5zM736 326q0 26 -16 37t-39 11q-29 0 -48 -16t-19 -52q0 -24 13.5 -39t37.5 -15q33 0 52 19t19 55zM721 143q0 30 -16.5 46t-46.5 16q-38 0 -60.5 -24.5t-22.5 -69.5q0 -30 16.5 -44.5t45.5 -14.5q43 0 63.5 24
t20.5 67z" />
    <glyph glyph-name="fiveeighths" unicode="&#x215d;" horiz-adv-x="826" 
d="M806 332q0 -35 -16 -63.5t-48 -39.5q28 -11 39 -34t11 -51q0 -63 -36 -102.5t-104 -39.5q-54 0 -83 27.5t-29 73.5q0 47 20.5 81.5t60.5 48.5q-22 13 -31 31.5t-9 41.5q0 57 35 87.5t87 30.5q47 0 75 -23.5t28 -68.5zM702 702q0 -5 -2.5 -11.5t-9.5 -17.5l-387 -662
q-14 -23 -30 -23q-11 0 -18.5 6t-7.5 16q0 5 2.5 11.5t9.5 17.5l387 662q14 23 30 23q11 0 18.5 -6t7.5 -16zM414 685q0 -11 -6.5 -19t-19.5 -8h-115l-21 -103h21q54 0 86.5 -24t32.5 -75q0 -35 -10 -65t-29.5 -52t-49 -35t-68.5 -13q-21 0 -42.5 3t-34.5 11t-13 23
q0 11 7 18.5t18 7.5q5 0 11 -1.5t12 -3.5q11 -4 20.5 -5t23.5 -1q48 0 74 29.5t26 77.5q0 31 -19.5 42.5t-51.5 11.5h-44q-25 0 -25 24v4.5t1 7.5l26 137q6 32 34 32h130q13 0 19.5 -7t6.5 -17zM754 326q0 26 -16 37t-39 11q-29 0 -48 -16t-19 -52q0 -24 13.5 -39t37.5 -15
q33 0 52 19t19 55zM739 143q0 30 -16.5 46t-45.5 16q-38 0 -61 -24.5t-23 -69.5q0 -30 16.5 -44.5t45.5 -14.5q43 0 63.5 24t20.5 67z" />
    <glyph glyph-name="seveneighths" unicode="&#x215e;" horiz-adv-x="736" 
d="M717 332q0 -35 -16.5 -63.5t-48.5 -39.5q28 -11 39.5 -34t11.5 -51q0 -63 -36.5 -102.5t-104.5 -39.5q-54 0 -82.5 27.5t-28.5 73.5q0 47 20.5 81.5t59.5 48.5q-22 13 -31 31.5t-9 41.5q0 57 35 87.5t87 30.5q48 0 76 -23.5t28 -68.5zM410 684q0 -12 -11 -31l-196 -339
q-13 -22 -30 -22q-25 0 -25 23q0 8 10 25l185 317h-150q-14 0 -20.5 7t-6.5 18q0 10 6.5 18.5t19.5 8.5h193q14 0 19.5 -7t5.5 -18zM610 702q0 -5 -2.5 -11.5t-9.5 -17.5l-387 -662q-14 -23 -30 -23q-11 0 -18.5 6t-7.5 16q0 5 2.5 11.5t9.5 17.5l387 662q14 23 30 23
q11 0 18.5 -6t7.5 -16zM664 326q0 26 -15.5 37t-39.5 11q-29 0 -47.5 -16t-18.5 -52q0 -24 13 -39t38 -15q32 0 51 19t19 55zM649 143q0 62 -62 62q-38 0 -61 -24.5t-23 -69.5q0 -30 16.5 -44.5t46.5 -14.5q42 0 62.5 24t20.5 67z" />
    <glyph glyph-name="one.superior" unicode="&#xb9;" horiz-adv-x="269" 
d="M281 680v-6t-2 -12l-65 -344q-6 -30 -29 -30q-26 0 -26 26v5.5t2 11.5l62 323h-37q-14 0 -20.5 7.5t-6.5 18.5q0 10 6.5 18.5t20.5 8.5h69q13 0 19.5 -8t6.5 -19z" />
    <glyph glyph-name="two.superior" unicode="&#xb2;" horiz-adv-x="336" 
d="M367 626q0 -19 -4 -35.5t-13 -33.5t-22.5 -35.5t-32.5 -40.5l-118 -137h134q14 0 20.5 -7.5t6.5 -18.5q0 -10 -6.5 -18t-19.5 -8h-183q-13 0 -19.5 8t-6.5 18q0 11 4.5 18.5t12.5 16.5l139 164q27 32 40 55t13 46q0 20 -12 31.5t-41 11.5t-67 -16q-8 -3 -13 -3
q-10 0 -16 6.5t-6 17.5q0 18 17 26q17 9 40.5 15t51.5 6q48 0 74.5 -24.5t26.5 -62.5z" />
    <glyph glyph-name="three.superior" unicode="&#xb3;" horiz-adv-x="334" 
d="M367 623q0 -35 -18 -64.5t-57 -45.5q31 -11 44 -32.5t13 -46.5q0 -31 -10 -57.5t-29 -46t-47 -30.5t-63 -11q-23 0 -45 3.5t-34 11.5q-10 6 -10 19q0 14 7.5 21t16.5 7q5 0 10.5 -1.5t13.5 -3.5q9 -2 18.5 -3.5t23.5 -1.5q45 0 69 24t24 67q0 52 -70 52h-10
q-13 0 -19.5 7.5t-6.5 18.5q0 10 6.5 18.5t19.5 8.5h17q41 0 62 23.5t21 56.5q0 45 -53 45q-12 0 -24 -2t-29 -9q-9 -4 -17 -4q-9 0 -15 6t-6 17q0 19 23 29q36 15 75 15q51 0 75 -26.5t24 -64.5z" />
    <glyph glyph-name="Delta" unicode="&#x2206;" horiz-adv-x="624" 
d="M26 0v47l231 653h139l228 -653v-47h-598zM340 550q-6 19 -9.5 34t-6.5 25h-4q-2 -9 -6 -25t-9 -33l-160 -464h354z" />
    <glyph glyph-name="Omega" unicode="&#x2126;" horiz-adv-x="722" 
d="M423 0v86q21 19 44.5 45t43 61.5t32.5 80.5t13 102q0 53 -13 98t-37.5 77.5t-61.5 51t-85 18.5q-46 0 -83.5 -18t-64.5 -50.5t-41.5 -78t-14.5 -100.5q0 -56 13 -100.5t32.5 -79.5t43.5 -61.5t46 -45.5v-86h-245v86h153q-24 19 -51.5 46t-50 64.5t-37.5 86t-15 110.5
q0 69 23 127.5t64.5 101t99.5 66.5t129 24q75 0 132.5 -24t96.5 -66t59 -100t20 -126q0 -56 -13.5 -103.5t-35 -86t-49.5 -68.5t-57 -52h154v-86h-244z" />
    <glyph glyph-name="uni03BC" unicode="&#x3bc;" horiz-adv-x="515" 
d="M541 498q0 -5 -2 -15l-83 -448q-3 -16 -12.5 -26t-25.5 -10q-12 0 -21 7.5t-9 23.5q0 6 1 12.5t3 12.5h-1q-50 -60 -132 -60q-40 0 -71 15t-44 48h-2l-42 -227q-7 -41 -37 -41q-14 0 -22.5 9t-8.5 24q0 2 0.5 7t3.5 20l119 640q7 41 37 41q15 0 23.5 -9t8.5 -24
q0 -5 -2 -15l-58 -307q-2 -11 -3 -19.5t-1 -13.5q0 -42 28.5 -65t77.5 -23q52 0 90.5 26.5t51.5 74.5q3 10 5 17.5t4 20.5l55 296q7 41 37 41q15 0 23.5 -9t8.5 -24z" />
    <glyph glyph-name="pi" unicode="&#x3c0;" horiz-adv-x="673" 
d="M639 10q-11 -8 -32 -13t-44 -5q-36 0 -60 12t-39 31.5t-21 45.5t-6 53v292h-183v-289q0 -45 -3.5 -78t-10.5 -59h-101q8 31 12 67t4 75v284q-20 -1 -47 -7.5t-46 -16.5l-28 65q24 14 65 23.5t85 9.5h451v-74h-99v-279q0 -37 12.5 -59t42.5 -22q8 0 15.5 2.5t14.5 6.5
l18 -65v0z" />
    <glyph glyph-name="Euro" unicode="&#x20ac;" 
d="M593 668q0 -18 -10.5 -26t-24.5 -8q-13 0 -30 5q-19 5 -35.5 7t-39.5 2q-89 0 -141 -51.5t-78 -149.5h215q14 0 21.5 -7.5t7.5 -18.5t-7 -20t-21 -9h-229q-5 -18 -7.5 -39.5t-4.5 -42.5h185q15 0 22 -7.5t7 -17.5q0 -12 -7 -20.5t-21 -8.5h-187q0 -6 0.5 -14.5t1.5 -13.5
q11 -88 52.5 -127.5t119.5 -39.5q15 0 32 1.5t35 6.5q11 2 19 3.5t14 1.5q13 0 22 -6.5t9 -21.5q0 -13 -8 -21t-21 -13q-26 -10 -56 -13.5t-65 -3.5q-44 0 -81.5 11t-66.5 36t-48.5 65t-28.5 99q-2 8 -2.5 24.5t-0.5 25.5h-58q-15 0 -22 7.5t-7 18.5t7 19.5t21 8.5h60
q2 20 5 41.5t7 40.5h-46q-14 0 -21 8t-7 19t7 19.5t21 8.5h58q37 139 113 203.5t186 64.5q35 0 65 -5t51 -16q8 -5 13 -10.5t5 -15.5z" />
    <glyph glyph-name="afii61289" unicode="&#x2113;" horiz-adv-x="502" 
d="M416 49q-11 -10 -25 -21.5t-31.5 -21t-38 -15.5t-43.5 -6q-32 0 -54 9.5t-39 26.5q-20 20 -29.5 54t-9.5 71v90l-57 -59l-34 48l91 95v217q0 95 37 143t100 48q30 0 51 -11t33.5 -27.5t18 -37t5.5 -38.5q0 -73 -32.5 -135t-83.5 -125l-33 -40v-160q0 -51 17 -72t44 -21
q25 0 45.5 14.5t35.5 30.5q8 -14 16 -28.5t16 -28.5zM327 601q0 20 -8.5 36t-27.5 16q-23 0 -36 -24t-13 -79v-147q5 5 9.5 12t8.5 13q30 42 48.5 88t18.5 85z" />
    <glyph glyph-name="estimated" unicode="&#x212e;" horiz-adv-x="668" 
d="M164 292v-201q65 -65 160 -65q77 0 127.5 35.5t88.5 96.5q9 -5 18 -10.5t18 -11.5q-23 -34 -48 -61t-55 -46.5t-66.5 -30t-82.5 -10.5q-66 0 -118.5 24t-89.5 65t-57 96.5t-20 118.5t19.5 118.5t56.5 97t90 65t120 23.5q68 0 121 -23.5t90 -65t56.5 -97t21.5 -118.5h-450
zM486 493q-32 31 -73.5 48.5t-88.5 17.5q-96 0 -160 -65v-164h322v163z" />
    <glyph glyph-name="partialdiff" unicode="&#x2202;" horiz-adv-x="588" 
d="M548 474q0 -46 -6 -94t-19 -96q-15 -57 -40.5 -110t-61 -94.5t-81 -66t-101.5 -24.5q-43 0 -78.5 14.5t-61 40t-39.5 61.5t-14 80q0 75 23 132.5t60.5 97t84.5 60t94 20.5q51 0 84.5 -20.5t47.5 -46.5h2q2 14 3 29t1 33q0 78 -35.5 119t-98.5 41q-25 0 -51 -7.5
t-47 -19.5l-23 70q21 14 57.5 25t78.5 11q101 0 161 -65.5t60 -189.5zM429 343q-11 33 -36.5 55.5t-68.5 22.5q-34 0 -65.5 -18.5t-55.5 -51t-38.5 -76.5t-14.5 -95t24.5 -80.5t66.5 -29.5q34 0 64 21t54 57.5t42 86.5t28 108z" />
    <glyph glyph-name="product" unicode="&#x220f;" horiz-adv-x="734" 
d="M547 -230v839h-360v-839h-106v930h572v-930h-106z" />
    <glyph glyph-name="summation" unicode="&#x2211;" horiz-adv-x="644" 
d="M22 -230v53l314 416l-293 402v59h531v-86h-398q69 -94 136 -186t135 -186l-288 -386h437v-86h-574z" />
    <glyph glyph-name="radical" unicode="&#x221a;" horiz-adv-x="530" 
d="M342 -12h-83l-134 324l-55 -35l-33 55l134 85l128 -314l161 626h73z" />
    <glyph glyph-name="infinity" unicode="&#x221e;" horiz-adv-x="801" 
d="M752 294q0 -37 -12.5 -68.5t-35 -55t-53.5 -37t-69 -13.5q-59 0 -106.5 30.5t-77.5 78.5h-2q-32 -47 -78.5 -78t-103.5 -31q-36 0 -68 12t-55 34t-36.5 54t-13.5 71t13.5 71t36.5 54.5t54 34.5t67 12q31 0 58.5 -9t50.5 -24t41.5 -34.5t33.5 -41.5h2q12 18 29.5 37.5
t40.5 35t50.5 26t60.5 10.5q37 0 69 -12.5t55 -35t36 -53.5t13 -68zM669 293q0 39 -23 67.5t-73 28.5q-44 0 -76 -26.5t-60 -70.5q26 -46 61 -72.5t76 -26.5q24 0 42 8.5t30 22t17.5 31.5t5.5 38zM356 292q-26 42 -62 69.5t-75 27.5q-48 0 -71.5 -29t-23.5 -70
q0 -42 26.5 -69.5t68.5 -27.5q43 0 77.5 29.5t59.5 69.5z" />
    <glyph glyph-name="integral" unicode="&#x222b;" horiz-adv-x="500" 
d="M417 659q-7 4 -19 6.5t-25 2.5q-78 0 -78 -93v-622q0 -85 -41.5 -134.5t-125.5 -49.5q-20 0 -43.5 4t-36.5 9l20 76q9 -3 20.5 -5.5t25.5 -2.5q76 0 76 93v622q0 84 42 134t127 50q23 0 46 -4.5t34 -9.5q-5 -20 -10.5 -38.5t-11.5 -37.5z" />
    <glyph glyph-name="approxequal" unicode="&#x2248;" horiz-adv-x="568" 
d="M512 421q-25 -39 -55.5 -62.5t-75.5 -23.5q-54 0 -104 31q-20 13 -41 22t-44 9q-27 0 -47 -20.5t-34 -43.5l-54 62q23 35 53.5 60t78.5 25q29 0 54 -8t48 -22q25 -15 45 -23.5t42 -8.5q26 0 46 19.5t34 44.5zM512 197q-25 -38 -55.5 -62t-75.5 -24q-55 0 -104 32
q-20 13 -41 22t-44 9q-27 0 -47 -21t-34 -44l-54 63q23 35 53.5 60t78.5 25q29 0 54 -8.5t48 -22.5q25 -15 45 -23.5t42 -8.5q26 0 46 19.5t34 45.5z" />
    <glyph glyph-name="notequal" unicode="&#x2260;" horiz-adv-x="568" 
d="M261 143l-52 -116h-89l52 116h-91v83h127l62 141h-189v83h226l55 127h90l-56 -127h92v-83h-128l-63 -141h191v-83h-227z" />
    <glyph glyph-name="lessequal" unicode="&#x2264;" horiz-adv-x="568" 
d="M81 0v83h407v-83h-407zM81 322v70l407 184v-88l-299 -130v-2l299 -131v-87z" />
    <glyph glyph-name="greaterequal" unicode="&#x2265;" horiz-adv-x="568" 
d="M81 0v83h407v-83h-407zM81 139v88l299 130v2l-299 130v88l407 -184v-70z" />
    <glyph glyph-name="lozenge" unicode="&#x25ca;" horiz-adv-x="573" 
d="M301 0h-51l-206 349q51 88 103 175.5t103 175.5h51l208 -350zM276 606l-151 -256q38 -65 75.5 -128.5t75.5 -127.5l151 256z" />
    <glyph glyph-name="uni00A0" unicode="&#xa0;" horiz-adv-x="239" 
 />
    <glyph glyph-name="uni00AD" unicode="&#xad;" horiz-adv-x="348" 
d="M352 272q0 -12 -8 -22.5t-25 -10.5h-188q-17 0 -25.5 9t-8.5 21q0 13 8 23.5t25 10.5h188q17 0 25.5 -9t8.5 -22z" />
    <glyph glyph-name="uni203E" unicode="&#x203e;" horiz-adv-x="203" 
 />
    <glyph glyph-name="quotedbl" unicode="&#x22;" horiz-adv-x="317" 
d="M374 683q0 -6 -2 -16l-24 -127q-7 -37 -33 -37q-28 0 -28 27q0 6 2 16l24 127q7 37 33 37q28 0 28 -27zM256 683q0 -6 -2 -16l-24 -127q-7 -37 -33 -37q-28 0 -28 27q0 6 2 16l24 127q7 37 33 37q28 0 28 -27z" />
    <glyph glyph-name="exclam" unicode="!" horiz-adv-x="276" 
d="M298 682q0 -7 -2 -17l-77 -417q-7 -43 -37 -43q-14 0 -23 9t-9 23q0 7 2 17l77 418q7 42 38 42q14 0 22.5 -9t8.5 -23zM187 53q0 -23 -12 -39t-31 -16q-17 0 -27 10t-10 28q0 22 12 38.5t32 16.5q16 0 26 -10.5t10 -27.5z" />
    <glyph glyph-name="apple" unicode="&#xe002;" horiz-adv-x="603" 
d="M491 268q0 -7 -2.5 -13.5t-10.5 -16.5l-113 -139q-8 -11 -16 -16t-19 -5q-15 0 -22.5 9t-7.5 20q0 5 2 11.5t8 14.5l88 107h-282q-15 0 -23 8t-8 20t8 20t23 8h282l-88 107q-6 8 -8 14.5t-2 11.5q0 11 7.5 20t22.5 9q11 0 19 -5t16 -16l113 -139q8 -10 10.5 -16.5
t2.5 -13.5z" />
    <glyph glyph-name="periodcentered" unicode="&#xe003;" horiz-adv-x="239" 
 />
    <glyph glyph-name="uni03A9" unicode="&#x3a9;" horiz-adv-x="722" 
d="M423 0v86q21 19 44.5 45t43 61.5t32.5 80.5t13 102q0 53 -13 98t-37.5 77.5t-61.5 51t-85 18.5q-46 0 -83.5 -18t-64.5 -50.5t-41.5 -78t-14.5 -100.5q0 -56 13 -100.5t32.5 -79.5t43.5 -61.5t46 -45.5v-86h-245v86h153q-24 19 -51.5 46t-50 64.5t-37.5 86t-15 110.5
q0 69 23 127.5t64.5 101t99.5 66.5t129 24q75 0 132.5 -24t96.5 -66t59 -100t20 -126q0 -56 -13.5 -103.5t-35 -86t-49.5 -68.5t-57 -52h154v-86h-244z" />
    <glyph glyph-name="uni0312" unicode="&#x312;" horiz-adv-x="833" 
d="M417 -61q13 0 21.5 -6.5t13 -17t6 -22.5t1.5 -22q0 -23 -10 -47t-25.5 -43.5t-35 -32t-37.5 -12.5q-17 0 -25.5 11.5t-8.5 22.5q0 6 3.5 14t9.5 13q6 6 15.5 10t18.5 11.5t16 20t7 35.5q0 8 -2.5 15.5t-2.5 16.5q0 12 9.5 22.5t25.5 10.5z" />
    <glyph glyph-name="Amacron" unicode="&#x100;" horiz-adv-x="582" 
d="M557 36q0 -15 -8.5 -26t-26.5 -11q-16 0 -23.5 9.5t-9.5 23.5l-27 164h-295l-88 -168q-7 -12 -15.5 -20.5t-23.5 -8.5q-14 0 -22 7.5t-8 19.5q0 6 2 12.5t7 15.5l327 617q9 17 22 29t38 12q26 0 35 -13t12 -32l101 -609q3 -18 3 -22zM395 638h-2l-196 -381h257zM550 804
q0 -16 -10.5 -24.5t-28.5 -8.5h-194q-38 0 -38 32q0 33 38 33h194q18 0 28.5 -8t10.5 -24z" />
    <glyph glyph-name="Abreve" unicode="&#x102;" horiz-adv-x="582" 
d="M557 36q0 -15 -8.5 -26t-26.5 -11q-16 0 -23.5 9.5t-9.5 23.5l-27 164h-295l-88 -168q-7 -12 -15.5 -20.5t-23.5 -8.5q-14 0 -22 7.5t-8 19.5q0 6 2 12.5t7 15.5l327 617q9 17 22 29t38 12q26 0 35 -13t12 -32l101 -609q3 -18 3 -22zM395 638h-2l-196 -381h257zM561 866
q0 -13 -7.5 -25t-18.5 -23q-45 -47 -120 -47q-32 0 -61.5 15t-43.5 44q-2 6 -4 12.5t-2 14.5q0 30 26 30q10 0 16 -6t11 -15q11 -19 25.5 -28t42.5 -9t44 10t33 27q9 9 16.5 15t17.5 6q11 0 18 -5.5t7 -15.5z" />
    <glyph glyph-name="Aogonek" unicode="&#x104;" horiz-adv-x="582" 
d="M557 36q0 -25 -19 -34q-48 -30 -75.5 -58t-27.5 -55q0 -23 26 -23q8 0 15.5 2t15.5 5q11 4 20 4t14 -6t5 -14q0 -13 -16 -23q-11 -7 -27 -11t-35 -4q-30 0 -52.5 13.5t-22.5 45.5q0 23 12.5 43t31 36.5t40 28.5t39.5 20q-5 5 -8 12.5t-4 13.5l-27 164h-295l-88 -168
q-7 -12 -15.5 -20.5t-23.5 -8.5q-14 0 -22 7.5t-8 19.5q0 6 2 12.5t7 15.5l327 617q9 17 22 29t38 12q26 0 35 -13t12 -32l101 -609q3 -18 3 -22zM395 638h-2l-196 -381h257z" />
    <glyph glyph-name="aogonek" unicode="&#x105;" horiz-adv-x="463" 
d="M473 403q0 -18 -3 -36l-60 -326q-2 -14 -7.5 -23.5t-17.5 -15.5q-9 -5 -26.5 -16t-34.5 -26.5t-30 -34t-13 -36.5q0 -23 26 -23q8 0 15.5 2t15.5 5q11 4 20 4t14 -6t5 -14q0 -13 -16 -23q-11 -7 -27 -11t-35 -4q-30 0 -52.5 13.5t-22.5 45.5q0 24 13 44t31.5 36.5t40 29
t39.5 20.5q-5 5 -7 12.5t1 17.5l9 38q-25 -35 -66 -58.5t-92 -23.5q-35 0 -60.5 11t-43 30t-26 44t-8.5 53q0 87 63 132t184 50l92 4l8 43q3 16 3 29q0 38 -24.5 59t-81.5 21q-21 0 -43 -2.5t-54 -10.5q-9 -2 -16 -3t-11 -1q-12 0 -20 7t-8 21q0 12 6.5 19.5t16.5 11.5
q57 21 140 21q81 0 122 -35t41 -95zM307 260q-43 -2 -77 -9t-58 -21t-36.5 -36.5t-12.5 -56.5q0 -35 21 -58.5t67 -23.5q33 0 60 11.5t47 31t33 45t19 53.5l14 68z" />
    <glyph glyph-name="Cacute" unicode="&#x106;" 
d="M576 666q0 -18 -10.5 -26t-24.5 -8q-13 0 -31 5q-20 6 -39.5 8.5t-42.5 2.5q-107 0 -165.5 -74.5t-80.5 -213.5q-5 -26 -6.5 -50t-1.5 -45q0 -107 48 -155.5t135 -48.5q40 0 79 10q15 4 25 4q13 0 21.5 -6t8.5 -21q0 -13 -7.5 -21t-21.5 -14q-26 -11 -57.5 -14.5
t-66.5 -3.5q-50 0 -93.5 15t-75 47t-49.5 83t-18 122q0 23 2 47t6 51q13 91 41.5 158t70.5 111t95.5 65t116.5 21q36 0 68.5 -5t55.5 -17q8 -4 13 -10.5t5 -16.5zM559 864q0 -20 -28 -33l-128 -55q-13 -5 -22 -5q-13 0 -21 8.5t-8 21.5q0 22 27 33l128 55q7 3 12.5 4t10.5 1
q12 0 20.5 -8.5t8.5 -21.5z" />
    <glyph glyph-name="cacute" unicode="&#x107;" horiz-adv-x="421" 
d="M451 494q0 -17 -9 -25t-23 -8q-5 0 -13 1t-16 3q-14 3 -28.5 4.5t-27.5 1.5q-78 0 -124.5 -53t-60.5 -151q-2 -16 -3.5 -30.5t-1.5 -28.5q0 -73 35.5 -111t107.5 -38q14 0 28.5 2t27.5 5q8 2 14 3t11 1q12 0 20 -7t8 -19t-6 -19.5t-15 -12.5q-23 -11 -51 -14t-48 -3
q-102 0 -151.5 56.5t-49.5 151.5q0 15 1.5 31t3.5 33q8 60 28.5 110t53.5 85t78.5 54.5t104.5 19.5q20 0 45 -3.5t42 -11.5q8 -4 13.5 -10.5t5.5 -16.5zM470 697q0 -20 -28 -33l-128 -55q-13 -5 -22 -5q-13 0 -21 8.5t-8 21.5q0 22 27 33l128 55q7 3 12.5 4t10.5 1
q12 0 20.5 -8.5t8.5 -21.5z" />
    <glyph glyph-name="Ccaron" unicode="&#x10c;" 
d="M576 666q0 -18 -10.5 -26t-24.5 -8q-13 0 -31 5q-20 6 -39.5 8.5t-42.5 2.5q-107 0 -165.5 -74.5t-80.5 -213.5q-5 -26 -6.5 -50t-1.5 -45q0 -107 48 -155.5t135 -48.5q40 0 79 10q15 4 25 4q13 0 21.5 -6t8.5 -21q0 -13 -7.5 -21t-21.5 -14q-26 -11 -57.5 -14.5
t-66.5 -3.5q-50 0 -93.5 15t-75 47t-49.5 83t-18 122q0 23 2 47t6 51q13 91 41.5 158t70.5 111t95.5 65t116.5 21q36 0 68.5 -5t55.5 -17q8 -4 13 -10.5t5 -16.5zM606 856q0 -12 -6 -20t-21 -14l-133 -51l-101 53q-26 13 -26 32q0 14 8 21.5t21 7.5q5 0 10.5 -1t11.5 -4
l86 -43l101 42q11 4 22 4t19 -7t8 -20z" />
    <glyph glyph-name="ccaron" unicode="&#x10d;" horiz-adv-x="421" 
d="M451 494q0 -17 -9 -25t-23 -8q-5 0 -13 1t-16 3q-14 3 -28.5 4.5t-27.5 1.5q-78 0 -124.5 -53t-60.5 -151q-2 -16 -3.5 -30.5t-1.5 -28.5q0 -73 35.5 -111t107.5 -38q14 0 28.5 2t27.5 5q8 2 14 3t11 1q12 0 20 -7t8 -19t-6 -19.5t-15 -12.5q-23 -11 -51 -14t-48 -3
q-102 0 -151.5 56.5t-49.5 151.5q0 15 1.5 31t3.5 33q8 60 28.5 110t53.5 85t78.5 54.5t104.5 19.5q20 0 45 -3.5t42 -11.5q8 -4 13.5 -10.5t5.5 -16.5zM517 689q0 -12 -6 -20t-21 -14l-133 -51l-101 53q-26 13 -26 32q0 14 8 21.5t21 7.5q5 0 10.5 -1t11.5 -4l86 -43
l101 42q11 4 22 4t19 -7t8 -20z" />
    <glyph glyph-name="Dcaron" unicode="&#x10e;" horiz-adv-x="579" 
d="M604 455q0 -23 -1.5 -48.5t-6.5 -51.5q-30 -184 -118.5 -268t-226.5 -84h-145q-32 0 -32 35v5t2 11l115 613q8 40 47 40h126q121 0 180.5 -65t59.5 -187zM533 460q0 42 -9 75.5t-29.5 57t-53 36t-78.5 12.5h-108l-107 -572h114q115 0 175 72t86 215q5 28 7.5 54.5
t2.5 49.5zM542 856q0 -12 -6 -20t-21 -14l-133 -51l-101 53q-26 13 -26 32q0 14 8 21.5t21 7.5q5 0 10.5 -1t11.5 -4l86 -43l101 42q11 4 22 4t19 -7t8 -20z" />
    <glyph glyph-name="dcaron" unicode="&#x10f;" horiz-adv-x="730" 
d="M593 732q0 -2 -0.5 -8t-4.5 -25l-123 -658q-7 -41 -37 -41q-31 0 -31 32q0 2 0.5 7t1.5 10l6 32q-30 -40 -69.5 -62.5t-92.5 -22.5q-36 0 -67 14t-53.5 39.5t-35 61.5t-12.5 81q0 17 1 36t5 39q11 60 32 109.5t51.5 85t69.5 55t86 19.5q24 0 48 -7.5t44.5 -21t35.5 -32.5
t23 -43l54 292q4 22 13 31t24 9q31 0 31 -32zM450 339q0 30 -10.5 55t-28 42.5t-40.5 27t-48 9.5q-47 0 -80.5 -26.5t-55.5 -67.5t-32.5 -90t-10.5 -93q0 -29 6.5 -54t20.5 -43.5t36 -29t52 -10.5q32 0 60.5 12t51 33.5t38.5 52t23 66.5l12 61q3 14 4.5 29t1.5 26zM763 688
q0 -11 -6 -24l-64 -139q-11 -22 -31 -22q-14 0 -24 10t-11 21q0 11 6 25l63 139q5 11 13.5 16t17.5 5q15 0 25.5 -9.5t10.5 -21.5z" />
    <glyph glyph-name="Dcroat" unicode="&#x110;" horiz-adv-x="579" 
d="M605 455q0 -23 -2 -47.5t-6 -50.5q-29 -184 -118 -269t-227 -85h-145q-32 0 -32 35q0 2 0.5 6.5t1.5 9.5l51 275h-32q-16 0 -24 8.5t-8 20.5t8 22.5t24 10.5h44l52 276q8 40 47 40h126q121 0 180.5 -65t59.5 -187zM534 460q0 42 -9 75.5t-29.5 57t-53 36t-78.5 12.5h-108
l-47 -250h131q17 0 24.5 -9.5t7.5 -21.5q0 -11 -7.5 -21t-23.5 -10h-143l-49 -260h114q58 0 101 18.5t74.5 55t52 90.5t33.5 125q10 53 10 102z" />
    <glyph glyph-name="dcroat" unicode="&#x111;" horiz-adv-x="540" 
d="M593 732q0 -2 -0.5 -8t-4.5 -25l-7 -35h40q18 0 28.5 -8t10.5 -24t-10.5 -24.5t-28.5 -8.5h-52l-104 -558q-7 -41 -37 -41q-31 0 -31 32q0 2 0.5 7t1.5 10l6 32q-30 -40 -69.5 -62.5t-92.5 -22.5q-36 0 -67 14t-53.5 39.5t-35 61.5t-12.5 81q0 17 1 36t5 39
q11 60 32 109.5t51.5 85t69.5 55t86 19.5q24 0 48 -7.5t44.5 -21t35.5 -32.5t23 -43l31 167h-119q-38 0 -38 32q0 33 38 33h131l11 60q4 22 13 31t24 9q31 0 31 -32zM450 339q0 30 -10.5 55t-28 42.5t-40.5 27t-48 9.5q-47 0 -80.5 -26.5t-55.5 -67.5t-32.5 -90t-10.5 -93
q0 -29 6.5 -54t20.5 -43.5t36 -29t52 -10.5q32 0 60.5 12t51 33.5t38.5 52t23 66.5l12 61q3 14 4.5 29t1.5 26z" />
    <glyph glyph-name="Emacron" unicode="&#x112;" horiz-adv-x="437" 
d="M504 675q0 -13 -9 -24t-26 -11h-214l-47 -251h192q18 0 26.5 -9t8.5 -23q0 -13 -8.5 -23.5t-25.5 -10.5h-206l-47 -253h214q17 0 26 -9.5t9 -22.5t-9 -24t-26 -11h-255q-32 0 -32 35v6t2 11l114 610q4 20 15.5 31t31.5 11h231q17 0 26 -9.5t9 -22.5zM516 804
q0 -16 -10.5 -24.5t-28.5 -8.5h-194q-38 0 -38 32q0 33 38 33h194q18 0 28.5 -8t10.5 -24z" />
    <glyph glyph-name="emacron" unicode="&#x113;" horiz-adv-x="470" 
d="M480 358q0 -17 -1 -34t-5 -36q-3 -16 -14 -28t-34 -12h-283q-2 -11 -2 -22v-21q0 -75 38 -111.5t101 -36.5q14 0 35.5 1.5t36.5 5.5q7 2 14.5 3t12.5 1q28 0 28 -26q0 -22 -23 -32q-25 -10 -57 -12.5t-53 -2.5q-90 0 -144.5 53t-54.5 158q0 70 15.5 130t46 104t75.5 69.5
t103 25.5q82 0 123.5 -46.5t41.5 -130.5zM415 365q0 55 -25 83t-82 28q-67 0 -103.5 -45t-52.5 -128h256q7 32 7 62zM463 637q0 -16 -10.5 -24.5t-28.5 -8.5h-194q-38 0 -38 32q0 33 38 33h194q18 0 28.5 -8t10.5 -24z" />
    <glyph glyph-name="Edotaccent" unicode="&#x116;" horiz-adv-x="437" 
d="M504 675q0 -13 -9 -24t-26 -11h-214l-47 -251h192q18 0 26.5 -9t8.5 -23q0 -13 -8.5 -23.5t-25.5 -10.5h-206l-47 -253h214q17 0 26 -9.5t9 -22.5t-9 -24t-26 -11h-255q-32 0 -32 35v6t2 11l114 610q4 20 15.5 31t31.5 11h231q17 0 26 -9.5t9 -22.5zM428 830
q0 -25 -13 -42t-34 -17q-17 0 -28 10.5t-11 29.5q0 24 13 41.5t33 17.5q18 0 29 -10.5t11 -29.5z" />
    <glyph glyph-name="edotaccent" unicode="&#x117;" horiz-adv-x="470" 
d="M480 358q0 -17 -1 -34t-5 -36q-3 -16 -14 -28t-34 -12h-283q-2 -11 -2 -22v-21q0 -75 38 -111.5t101 -36.5q14 0 35.5 1.5t36.5 5.5q7 2 14.5 3t12.5 1q28 0 28 -26q0 -22 -23 -32q-25 -10 -57 -12.5t-53 -2.5q-90 0 -144.5 53t-54.5 158q0 70 15.5 130t46 104t75.5 69.5
t103 25.5q82 0 123.5 -46.5t41.5 -130.5zM415 365q0 55 -25 83t-82 28q-67 0 -103.5 -45t-52.5 -128h256q7 32 7 62zM375 663q0 -25 -13 -42t-34 -17q-17 0 -28 10.5t-11 29.5q0 24 13 41.5t33 17.5q18 0 29 -10.5t11 -29.5z" />
    <glyph glyph-name="Eogonek" unicode="&#x118;" horiz-adv-x="437" 
d="M504 675q0 -13 -9 -24t-26 -11h-214l-47 -251h192q18 0 26.5 -9t8.5 -23q0 -13 -8.5 -23.5t-25.5 -10.5h-206l-47 -253h214q17 0 26 -9.5t9 -22.5q0 -10 -5 -19t-16 -14q-51 -26 -81 -57.5t-30 -58.5q0 -23 26 -23q8 0 15.5 2t15.5 5q11 4 20 4t14 -6t5 -14
q0 -13 -16 -23q-11 -7 -27 -11t-35 -4q-30 0 -52.5 13.5t-22.5 45.5q0 22 11 41t28 34.5t37 28t39 21.5h-216q-32 0 -32 35v6t2 11l114 610q4 20 15.5 31t31.5 11h231q17 0 26 -9.5t9 -22.5z" />
    <glyph glyph-name="eogonek" unicode="&#x119;" horiz-adv-x="470" 
d="M341 -4q-8 -4 -23.5 -14.5t-31.5 -25.5t-27.5 -32.5t-11.5 -34.5q0 -23 26 -23q8 0 15.5 2t15.5 5q11 4 20 4t14 -6t5 -14q0 -13 -16 -23q-11 -7 -27 -11t-35 -4q-30 0 -52.5 13.5t-22.5 45.5q0 20 9 37.5t23 32t32 26.5t35 21h-15q-90 0 -144.5 53t-54.5 158
q0 70 15.5 130t46 104t75.5 69.5t103 25.5q82 0 123.5 -46.5t41.5 -130.5q0 -17 -1 -34t-5 -36q-3 -16 -14 -28t-34 -12h-283q-2 -11 -2 -22v-21q0 -75 38 -111.5t101 -36.5q14 0 35.5 1.5t36.5 5.5q7 2 14.5 3t12.5 1q28 0 28 -26q0 -22 -23 -32q-9 -4 -21.5 -6.5
t-21.5 -7.5zM415 365q0 55 -25 83t-82 28q-67 0 -103.5 -45t-52.5 -128h256q7 32 7 62z" />
    <glyph glyph-name="Ecaron" unicode="&#x11a;" horiz-adv-x="437" 
d="M504 675q0 -13 -9 -24t-26 -11h-214l-47 -251h192q18 0 26.5 -9t8.5 -23q0 -13 -8.5 -23.5t-25.5 -10.5h-206l-47 -253h214q17 0 26 -9.5t9 -22.5t-9 -24t-26 -11h-255q-32 0 -32 35v6t2 11l114 610q4 20 15.5 31t31.5 11h231q17 0 26 -9.5t9 -22.5zM541 856
q0 -12 -6 -20t-21 -14l-133 -51l-101 53q-26 13 -26 32q0 14 8 21.5t21 7.5q5 0 10.5 -1t11.5 -4l86 -43l101 42q11 4 22 4t19 -7t8 -20z" />
    <glyph glyph-name="ecaron" unicode="&#x11b;" horiz-adv-x="470" 
d="M480 358q0 -17 -1 -34t-5 -36q-3 -16 -14 -28t-34 -12h-283q-2 -11 -2 -22v-21q0 -75 38 -111.5t101 -36.5q14 0 35.5 1.5t36.5 5.5q7 2 14.5 3t12.5 1q28 0 28 -26q0 -22 -23 -32q-25 -10 -57 -12.5t-53 -2.5q-90 0 -144.5 53t-54.5 158q0 70 15.5 130t46 104t75.5 69.5
t103 25.5q82 0 123.5 -46.5t41.5 -130.5zM415 365q0 55 -25 83t-82 28q-67 0 -103.5 -45t-52.5 -128h256q7 32 7 62zM488 689q0 -12 -6 -20t-21 -14l-133 -51l-101 53q-26 13 -26 32q0 14 8 21.5t21 7.5q5 0 10.5 -1t11.5 -4l86 -43l101 42q11 4 22 4t19 -7t8 -20z" />
    <glyph glyph-name="Gbreve" unicode="&#x11e;" horiz-adv-x="585" 
d="M591 663q0 -17 -10.5 -25.5t-24.5 -8.5q-7 0 -15 1t-20 5q-23 7 -43 10t-43 3q-112 0 -171 -72.5t-81 -215.5q-9 -57 -9 -105q0 -97 41.5 -146t131.5 -49q32 0 57 6t40 14q4 2 7 5.5t5 10.5l39 210h-109q-17 0 -26 9.5t-9 22.5t9 24t26 11h150q32 0 32 -35q0 -3 -0.5 -7
t-1.5 -9l-45 -246q-2 -13 -8 -22t-18 -17q-25 -15 -64.5 -28.5t-93.5 -13.5q-110 0 -172.5 62t-62.5 196q0 24 1.5 51t6.5 56q15 97 45.5 164.5t73.5 110t96.5 61.5t113.5 19q33 0 68.5 -6.5t60.5 -17.5q10 -5 16.5 -11t6.5 -17zM593 866q0 -13 -7.5 -25t-18.5 -23
q-45 -47 -120 -47q-32 0 -61.5 15t-43.5 44q-2 6 -4 12.5t-2 14.5q0 30 26 30q10 0 16 -6t11 -15q11 -19 25.5 -28t42.5 -9t44 10t33 27q9 9 16.5 15t17.5 6q11 0 18 -5.5t7 -15.5z" />
    <glyph glyph-name="gbreve" unicode="&#x11f;" horiz-adv-x="515" 
d="M573 490q0 -13 -7.5 -21t-23.5 -8h-54q21 -35 21 -76q0 -102 -58 -152t-158 -50q-36 0 -60 4t-42 13q-27 -14 -27 -50q0 -15 10.5 -29t48.5 -14h112q83 0 118 -30t35 -92q0 -39 -15 -74.5t-45.5 -62t-76.5 -42.5t-108 -16q-92 0 -140.5 36.5t-48.5 103.5q0 96 74 146
q-14 11 -20 27.5t-6 35.5q0 58 47 90q-20 17 -29.5 42.5t-9.5 57.5q0 98 57 152.5t157 54.5q32 0 59.5 -4.5t50.5 -14.5h108q16 0 23.5 -7.5t7.5 -19.5zM442 386q0 51 -32.5 71t-91.5 20q-68 0 -104 -37t-36 -108q0 -48 30.5 -69t87.5 -21q77 0 111.5 34.5t34.5 109.5z
M419 -25q0 41 -22 56.5t-74 15.5h-92q-11 0 -25 1.5t-24 3.5q-26 -13 -43.5 -41.5t-17.5 -71.5q0 -45 32 -65.5t92 -20.5q87 0 130.5 34t43.5 88zM482 699q0 -13 -7.5 -25t-18.5 -23q-45 -47 -120 -47q-32 0 -61.5 15t-43.5 44q-2 6 -4 12.5t-2 14.5q0 30 26 30q10 0 16 -6
t11 -15q11 -19 25.5 -28t42.5 -9t44 10t33 27q9 9 16.5 15t17.5 6q11 0 18 -5.5t7 -15.5z" />
    <glyph glyph-name="Imacron" unicode="&#x12a;" horiz-adv-x="232" 
d="M261 679q0 -7 -2 -17l-116 -621q-7 -42 -38 -42q-14 0 -22.5 9t-8.5 23q0 7 2 17l116 621q7 42 38 42q14 0 22.5 -9t8.5 -23zM390 804q0 -16 -10.5 -24.5t-28.5 -8.5h-194q-38 0 -38 32q0 33 38 33h194q18 0 28.5 -8t10.5 -24z" />
    <glyph glyph-name="imacron" unicode="&#x12b;" horiz-adv-x="202" 
d="M227 498q0 -2 -0.5 -6t-1.5 -9l-82 -441q-7 -43 -37 -43q-15 0 -23 9t-8 24q0 6 2 16l82 441q7 42 38 42q14 0 22 -9t8 -24zM357 637q0 -16 -10.5 -24.5t-28.5 -8.5h-194q-38 0 -38 32q0 33 38 33h194q18 0 28.5 -8t10.5 -24z" />
    <glyph glyph-name="Iogonek" unicode="&#x12e;" horiz-adv-x="232" 
d="M261 679q0 -7 -2 -17l-116 -621q-3 -16 -7 -23t-9 -12q-12 -12 -29 -25.5t-32.5 -28t-26.5 -30.5t-11 -33q0 -23 26 -23q8 0 15.5 2t15.5 5q11 4 20 4t14 -6t5 -14q0 -13 -16 -23q-11 -7 -27 -11t-35 -4q-30 0 -52.5 13.5t-22.5 45.5q0 23 11.5 42t29 35t37.5 28t38 21
q-13 10 -13 27q0 7 2 17l116 621q7 42 38 42q14 0 22.5 -9t8.5 -23z" />
    <glyph glyph-name="iogonek" unicode="&#x12f;" horiz-adv-x="215" 
d="M227 498q0 -2 -0.5 -6t-1.5 -9l-82 -441q-3 -17 -7 -24.5t-13 -15.5q-17 -16 -34 -29.5t-30.5 -27t-22 -27t-8.5 -29.5q0 -23 26 -23q8 0 15.5 2t15.5 5q11 4 20 4t14 -6t5 -14q0 -13 -16 -23q-11 -7 -27 -11t-35 -4q-30 0 -52.5 13.5t-22.5 45.5q0 22 11.5 41.5t29 35
t37.5 28t38 21.5q-12 7 -12 28q0 6 2 16l82 441q7 42 38 42q14 0 22 -9t8 -24zM271 690q0 -24 -13 -41t-33 -17q-17 0 -28 10.5t-11 29.5q0 23 13 40.5t33 17.5q17 0 28 -10.5t11 -29.5z" />
    <glyph glyph-name="Idotaccent" unicode="&#x130;" horiz-adv-x="232" 
d="M261 679q0 -7 -2 -17l-116 -621q-7 -42 -38 -42q-14 0 -22.5 9t-8.5 23q0 7 2 17l116 621q7 42 38 42q14 0 22.5 -9t8.5 -23zM300 830q0 -25 -13 -42t-34 -17q-17 0 -28 10.5t-11 29.5q0 24 13 41.5t33 17.5q18 0 29 -10.5t11 -29.5z" />
    <glyph glyph-name="Lacute" unicode="&#x139;" horiz-adv-x="392" 
d="M372 38q0 -13 -9 -24t-26 -11h-230q-32 0 -32 35q0 2 0.5 6.5t1.5 9.5l115 615q7 42 38 42q14 0 22.5 -9t8.5 -23q0 -7 -2 -17l-111 -592h189q17 0 26 -9.5t9 -22.5zM435 864q0 -20 -28 -33l-128 -55q-13 -5 -22 -5q-13 0 -21 8.5t-8 21.5q0 22 27 33l128 55q7 3 12.5 4
t10.5 1q12 0 20.5 -8.5t8.5 -21.5z" />
    <glyph glyph-name="lacute" unicode="&#x13a;" horiz-adv-x="224" 
d="M269 732v-6t-2 -12l-126 -673q-7 -42 -37 -42q-14 0 -22.5 9t-8.5 24v6t2 12l126 673q7 42 37 42q14 0 22.5 -9t8.5 -24zM443 918q0 -20 -28 -33l-128 -55q-13 -5 -22 -5q-13 0 -21 8.5t-8 21.5q0 22 27 33l128 55q7 3 12.5 4t10.5 1q12 0 20.5 -8.5t8.5 -21.5z" />
    <glyph glyph-name="Lcaron" unicode="&#x13d;" horiz-adv-x="392" 
d="M372 38q0 -13 -9 -24t-26 -11h-230q-32 0 -32 35q0 2 0.5 6.5t1.5 9.5l115 615q7 42 38 42q14 0 22.5 -9t8.5 -23q0 -7 -2 -17l-111 -592h189q17 0 26 -9.5t9 -22.5zM441 688q0 -11 -6 -24l-64 -139q-11 -22 -31 -22q-14 0 -24 10t-11 21q0 11 6 25l63 139q5 11 13.5 16
t17.5 5q15 0 25.5 -9.5t10.5 -21.5z" />
    <glyph glyph-name="lcaron" unicode="&#x13e;" horiz-adv-x="414" 
d="M439 688q0 -11 -6 -24l-64 -139q-11 -22 -31 -22q-14 0 -24 10t-11 21q0 11 6 25l63 139q5 11 13.5 16t17.5 5q15 0 25.5 -9.5t10.5 -21.5zM269 732v-6t-2 -12l-126 -673q-7 -42 -37 -42q-14 0 -22.5 9t-8.5 24v6t2 12l126 673q7 42 37 42q14 0 22.5 -9t8.5 -24z" />
    <glyph glyph-name="Nacute" unicode="&#x143;" horiz-adv-x="612" 
d="M669 678q0 -2 -0.5 -6t-1.5 -9l-116 -623q-4 -21 -14.5 -29.5t-26.5 -8.5q-14 0 -23 8.5t-14 19.5l-232 559h-2l-100 -547q-7 -42 -37 -42q-13 0 -21.5 8.5t-8.5 22.5q0 4 0.5 8t1.5 9l117 623q4 22 15.5 31t27.5 9q11 0 20.5 -6.5t13.5 -16.5l232 -564h2l100 546
q7 41 38 41q14 0 21.5 -9t7.5 -24zM561 864q0 -20 -28 -33l-128 -55q-13 -5 -22 -5q-13 0 -21 8.5t-8 21.5q0 22 27 33l128 55q7 3 12.5 4t10.5 1q12 0 20.5 -8.5t8.5 -21.5z" />
    <glyph glyph-name="nacute" unicode="&#x144;" horiz-adv-x="518" 
d="M523 409q0 -13 -1.5 -25.5t-3.5 -24.5l-60 -318q-7 -42 -37 -42q-14 0 -22.5 9t-8.5 24v6t2 12l59 312q3 16 3 30q0 41 -23 59.5t-67 18.5q-36 0 -70 -15.5t-60 -37.5q-12 -11 -20.5 -23t-10.5 -25l-62 -328q-9 -42 -37 -42q-14 0 -22.5 9t-8.5 24v6t2 12l83 439
q9 42 37 42q14 0 22.5 -9t8.5 -24v-6t-2 -12l-3 -17q30 32 71.5 52t89.5 20q63 0 102 -31.5t39 -94.5zM508 697q0 -20 -28 -33l-128 -55q-13 -5 -22 -5q-13 0 -21 8.5t-8 21.5q0 22 27 33l128 55q7 3 12.5 4t10.5 1q12 0 20.5 -8.5t8.5 -21.5z" />
    <glyph glyph-name="Ncaron" unicode="&#x147;" horiz-adv-x="612" 
d="M669 678q0 -2 -0.5 -6t-1.5 -9l-116 -623q-4 -21 -14.5 -29.5t-26.5 -8.5q-14 0 -23 8.5t-14 19.5l-232 559h-2l-100 -547q-7 -42 -37 -42q-13 0 -21.5 8.5t-8.5 22.5q0 4 0.5 8t1.5 9l117 623q4 22 15.5 31t27.5 9q11 0 20.5 -6.5t13.5 -16.5l232 -564h2l100 546
q7 41 38 41q14 0 21.5 -9t7.5 -24zM608 856q0 -12 -6 -20t-21 -14l-133 -51l-101 53q-26 13 -26 32q0 14 8 21.5t21 7.5q5 0 10.5 -1t11.5 -4l86 -43l101 42q11 4 22 4t19 -7t8 -20z" />
    <glyph glyph-name="ncaron" unicode="&#x148;" horiz-adv-x="518" 
d="M523 409q0 -13 -1.5 -25.5t-3.5 -24.5l-60 -318q-7 -42 -37 -42q-14 0 -22.5 9t-8.5 24v6t2 12l59 312q3 16 3 30q0 41 -23 59.5t-67 18.5q-36 0 -70 -15.5t-60 -37.5q-12 -11 -20.5 -23t-10.5 -25l-62 -328q-9 -42 -37 -42q-14 0 -22.5 9t-8.5 24v6t2 12l83 439
q9 42 37 42q14 0 22.5 -9t8.5 -24v-6t-2 -12l-3 -17q30 32 71.5 52t89.5 20q63 0 102 -31.5t39 -94.5zM535 689q0 -12 -6 -20t-21 -14l-133 -51l-101 53q-26 13 -26 32q0 14 8 21.5t21 7.5q5 0 10.5 -1t11.5 -4l86 -43l101 42q11 4 22 4t19 -7t8 -20z" />
    <glyph glyph-name="Omacron" unicode="&#x14c;" horiz-adv-x="612" 
d="M637 461q0 -47 -9 -107q-28 -176 -108 -267.5t-208 -91.5q-105 0 -161 64t-56 190q0 48 9 108q27 175 107 266t208 91q106 0 162 -63.5t56 -189.5zM565 464q0 95 -38 139.5t-113 44.5q-97 0 -154 -67.5t-82 -220.5q-5 -33 -8 -61t-3 -53q0 -96 38 -140.5t113 -44.5
q97 0 153.5 68.5t82.5 221.5q5 32 8 60t3 53zM585 804q0 -16 -10.5 -24.5t-28.5 -8.5h-194q-38 0 -38 32q0 33 38 33h194q18 0 28.5 -8t10.5 -24z" />
    <glyph glyph-name="omacron" unicode="&#x14d;" horiz-adv-x="493" 
d="M511 335q0 -20 -1.5 -39t-5.5 -42q-23 -135 -87 -197t-158 -62q-83 0 -133.5 50t-50.5 151q0 19 1.5 37.5t5.5 42.5q10 67 32 116t53.5 81t72 47t87.5 15q84 0 134 -49.5t50 -150.5zM443 336q0 138 -119 138q-72 0 -113.5 -47t-60.5 -154q-4 -21 -5.5 -41.5t-1.5 -37.5
q0 -138 119 -138q72 0 113.5 47t60.5 154q4 21 5.5 41.5t1.5 37.5zM495 637q0 -16 -10.5 -24.5t-28.5 -8.5h-194q-38 0 -38 32q0 33 38 33h194q18 0 28.5 -8t10.5 -24z" />
    <glyph glyph-name="Ohungarumlaut" unicode="&#x150;" horiz-adv-x="612" 
d="M637 461q0 -47 -9 -107q-28 -176 -108 -267.5t-208 -91.5q-105 0 -161 64t-56 190q0 48 9 108q27 175 107 266t208 91q106 0 162 -63.5t56 -189.5zM565 464q0 95 -38 139.5t-113 44.5q-97 0 -154 -67.5t-82 -220.5q-5 -33 -8 -61t-3 -53q0 -96 38 -140.5t113 -44.5
q97 0 153.5 68.5t82.5 221.5q5 32 8 60t3 53zM665 860q0 -21 -27 -32l-121 -52q-13 -5 -22 -5q-13 0 -21 8.5t-8 21.5q0 22 27 33l121 51q15 6 23 6q12 0 20 -8.5t8 -22.5zM451 860q0 -21 -27 -32l-121 -52q-13 -5 -22 -5q-13 0 -21 8.5t-8 21.5q0 22 27 33l121 51
q15 6 23 6q12 0 20 -8.5t8 -22.5z" />
    <glyph glyph-name="ohungarumlaut" unicode="&#x151;" horiz-adv-x="493" 
d="M511 335q0 -20 -1.5 -39t-5.5 -42q-23 -135 -87 -197t-158 -62q-83 0 -133.5 50t-50.5 151q0 19 1.5 37.5t5.5 42.5q10 67 32 116t53.5 81t72 47t87.5 15q84 0 134 -49.5t50 -150.5zM443 336q0 138 -119 138q-72 0 -113.5 -47t-60.5 -154q-4 -21 -5.5 -41.5t-1.5 -37.5
q0 -138 119 -138q72 0 113.5 47t60.5 154q4 21 5.5 41.5t1.5 37.5zM567 693q0 -21 -27 -32l-121 -52q-13 -5 -22 -5q-13 0 -21 8.5t-8 21.5q0 22 27 33l121 51q15 6 23 6q12 0 20 -8.5t8 -22.5zM353 693q0 -21 -27 -32l-121 -52q-13 -5 -22 -5q-13 0 -21 8.5t-8 21.5
q0 22 27 33l121 51q15 6 23 6q12 0 20 -8.5t8 -22.5z" />
    <glyph glyph-name="Racute" unicode="&#x154;" horiz-adv-x="510" 
d="M547 550q0 -52 -19.5 -98.5t-57.5 -75.5q-50 -39 -129 -44l111 -278l4 -12t2 -12q0 -13 -8.5 -22t-25.5 -9q-14 0 -22.5 8.5t-11.5 17.5l-116 306h-76l-54 -290q-7 -42 -38 -42q-14 0 -22.5 9t-8.5 23q0 7 2 17l116 620q4 19 16.5 29t30.5 10h135q87 0 129.5 -43
t42.5 -114zM477 549q0 27 -9 45t-24 29t-35 15.5t-42 4.5h-111l-47 -251h125q56 0 92 30q26 21 38.5 55t12.5 72zM494 864q0 -20 -28 -33l-128 -55q-13 -5 -22 -5q-13 0 -21 8.5t-8 21.5q0 22 27 33l128 55q7 3 12.5 4t10.5 1q12 0 20.5 -8.5t8.5 -21.5z" />
    <glyph glyph-name="racute" unicode="&#x155;" horiz-adv-x="323" 
d="M395 502q0 -22 -14 -29.5t-35 -9.5q-26 -2 -55.5 -11.5t-53.5 -31.5q-13 -11 -23 -26.5t-15 -41.5l-58 -311q-7 -42 -37 -42q-14 0 -22.5 9t-8.5 24v6t2 12l83 439q9 42 37 42q30 0 30 -28q0 -7 -3 -22l-4 -20h1q23 28 61.5 49.5t76.5 21.5q17 0 27.5 -7.5t10.5 -22.5z
M406 697q0 -20 -28 -33l-128 -55q-13 -5 -22 -5q-13 0 -21 8.5t-8 21.5q0 22 27 33l128 55q7 3 12.5 4t10.5 1q12 0 20.5 -8.5t8.5 -21.5z" />
    <glyph glyph-name="Rcaron" unicode="&#x158;" horiz-adv-x="510" 
d="M547 550q0 -52 -19.5 -98.5t-57.5 -75.5q-50 -39 -129 -44l111 -278l4 -12t2 -12q0 -13 -8.5 -22t-25.5 -9q-14 0 -22.5 8.5t-11.5 17.5l-116 306h-76l-54 -290q-7 -42 -38 -42q-14 0 -22.5 9t-8.5 23q0 7 2 17l116 620q4 19 16.5 29t30.5 10h135q87 0 129.5 -43
t42.5 -114zM477 549q0 27 -9 45t-24 29t-35 15.5t-42 4.5h-111l-47 -251h125q56 0 92 30q26 21 38.5 55t12.5 72zM541 856q0 -12 -6 -20t-21 -14l-133 -51l-101 53q-26 13 -26 32q0 14 8 21.5t21 7.5q5 0 10.5 -1t11.5 -4l86 -43l101 42q11 4 22 4t19 -7t8 -20z" />
    <glyph glyph-name="rcaron" unicode="&#x159;" horiz-adv-x="323" 
d="M395 502q0 -22 -14 -29.5t-35 -9.5q-26 -2 -55.5 -11.5t-53.5 -31.5q-13 -11 -23 -26.5t-15 -41.5l-58 -311q-7 -42 -37 -42q-14 0 -22.5 9t-8.5 24v6t2 12l83 439q9 42 37 42q30 0 30 -28q0 -7 -3 -22l-4 -20h1q23 28 61.5 49.5t76.5 21.5q17 0 27.5 -7.5t10.5 -22.5z
M453 689q0 -12 -6 -20t-21 -14l-133 -51l-101 53q-26 13 -26 32q0 14 8 21.5t21 7.5q5 0 10.5 -1t11.5 -4l86 -43l101 42q11 4 22 4t19 -7t8 -20z" />
    <glyph glyph-name="Sacute" unicode="&#x15a;" horiz-adv-x="455" 
d="M493 667q0 -18 -10 -26t-26 -8q-7 0 -14.5 1.5t-20.5 4.5q-19 5 -39 7.5t-41 2.5q-66 0 -104.5 -28.5t-38.5 -84.5q0 -24 8.5 -43t24 -36t38 -33t49.5 -34t51 -37t41 -41t27 -48t10 -58q0 -50 -17 -89.5t-47.5 -66.5t-74.5 -41t-98 -14q-21 0 -43 2t-42.5 5.5t-37.5 9.5
t-27 14q-13 10 -13 25q0 16 10 24.5t24 8.5q8 0 17 -2.5t20 -5.5q21 -7 47 -11t55 -4q74 0 115 36t41 100q0 43 -29 75t-92 73q-27 18 -49.5 37t-39.5 41t-26.5 48t-9.5 58q0 42 15.5 76.5t43.5 59t68 37.5t88 13q35 0 70.5 -5.5t58.5 -16.5q18 -8 18 -26zM467 864
q0 -20 -28 -33l-128 -55q-13 -5 -22 -5q-13 0 -21 8.5t-8 21.5q0 22 27 33l128 55q7 3 12.5 4t10.5 1q12 0 20.5 -8.5t8.5 -21.5z" />
    <glyph glyph-name="sacute" unicode="&#x15b;" horiz-adv-x="424" 
d="M429 488q0 -17 -9 -24.5t-22 -7.5q-12 0 -30 5t-38 8.5t-43 3.5q-49 0 -76 -20.5t-27 -54.5q0 -31 24 -53.5t67 -46.5q30 -17 52.5 -32.5t37.5 -32t22 -36.5t7 -45q0 -76 -51 -116.5t-139 -40.5q-81 0 -129 24q-16 8 -16 27q0 17 10.5 24.5t23.5 7.5q8 0 23 -5
q18 -7 39.5 -10.5t56.5 -3.5q56 0 86 22.5t30 64.5q0 28 -21 50t-70 49q-26 14 -47 28.5t-37 32t-24.5 38.5t-8.5 49q0 66 49 104.5t130 38.5q28 0 58.5 -5.5t54.5 -16.5q6 -3 11.5 -9.5t5.5 -16.5zM424 697q0 -20 -28 -33l-128 -55q-13 -5 -22 -5q-13 0 -21 8.5t-8 21.5
q0 22 27 33l128 55q7 3 12.5 4t10.5 1q12 0 20.5 -8.5t8.5 -21.5z" />
    <glyph glyph-name="Scedilla" unicode="&#x15e;" horiz-adv-x="455" 
d="M315 -99q0 -22 -8.5 -37.5t-22 -25.5t-31 -15t-35.5 -5q-8 0 -21 1t-26 5t-22.5 10.5t-9.5 18.5q0 22 21 22q10 0 24 -7q8 -4 16 -5t18 -1q19 0 30.5 8.5t11.5 23.5q0 10 -4.5 16t-11 9t-13.5 3.5t-13 0.5q-4 0 -8.5 -0.5t-8.5 -0.5q-15 0 -15 16q0 8 5 18l20 39
q-21 0 -43 2t-42.5 5.5t-37.5 9.5t-27 14q-13 10 -13 25q0 16 10 24.5t24 8.5q8 0 17 -2.5t20 -5.5q21 -7 47 -11t55 -4q74 0 115 36t41 100q0 43 -29 75t-92 73q-27 18 -49.5 37t-39.5 41t-26.5 48t-9.5 58q0 42 15.5 76.5t43.5 59t68 37.5t88 13q35 0 70.5 -5.5
t58.5 -16.5q18 -8 18 -26t-10 -26t-26 -8q-7 0 -14.5 1.5t-20.5 4.5q-19 5 -39 7.5t-41 2.5q-66 0 -104.5 -28.5t-38.5 -84.5q0 -24 8.5 -43t24 -36t38 -33t49.5 -34t51 -37t41 -41t27 -48t10 -58q0 -91 -52 -144.5t-142 -63.5l-23 -42q5 1 12 1.5t12 0.5q23 0 41.5 -15.5
t18.5 -41.5z" />
    <glyph glyph-name="scedilla" unicode="&#x15f;" horiz-adv-x="424" 
d="M300 -99q0 -22 -8.5 -37.5t-22 -25.5t-31 -15t-35.5 -5q-8 0 -21 1t-26 5t-22.5 10.5t-9.5 18.5q0 22 21 22q10 0 24 -7q8 -4 16 -5t18 -1q19 0 30.5 8.5t11.5 23.5q0 10 -4.5 16t-11 9t-13.5 3.5t-13 0.5q-4 0 -8.5 -0.5t-8.5 -0.5q-15 0 -15 16q0 8 5 18l20 39
q-76 2 -121 24q-16 8 -16 27q0 17 10.5 24.5t23.5 7.5q8 0 23 -5q18 -7 39.5 -10.5t56.5 -3.5q56 0 86 22.5t30 64.5q0 28 -21 50t-70 49q-26 14 -47 28.5t-37 32t-24.5 38.5t-8.5 49q0 66 49 104.5t130 38.5q28 0 58.5 -5.5t54.5 -16.5q6 -3 11.5 -9.5t5.5 -16.5
q0 -17 -9 -24.5t-22 -7.5q-12 0 -30 5t-38 8.5t-43 3.5q-49 0 -76 -20.5t-27 -54.5q0 -31 24 -53.5t67 -46.5q30 -17 52.5 -32.5t37.5 -32t22 -36.5t7 -45q0 -69 -42 -108.5t-114 -46.5l-22 -41q5 1 12 1.5t12 0.5q23 0 41.5 -15.5t18.5 -41.5z" />
    <glyph glyph-name="Tcaron" unicode="&#x164;" horiz-adv-x="479" 
d="M562 675q0 -13 -8.5 -24t-25.5 -11h-143l-112 -599q-7 -42 -38 -42q-14 0 -22.5 9t-8.5 23q0 7 2 17l110 592h-135q-17 0 -26 9.5t-9 22.5t9 24t26 11h346q17 0 26 -9.5t9 -22.5zM532 856q0 -12 -6 -20t-21 -14l-133 -51l-101 53q-26 13 -26 32q0 14 8 21.5t21 7.5
q5 0 10.5 -1t11.5 -4l86 -43l101 42q11 4 22 4t19 -7t8 -20z" />
    <glyph glyph-name="tcaron" unicode="&#x165;" horiz-adv-x="490" 
d="M357 496q0 -14 -9 -22.5t-26 -8.5h-63l-79 -424q-7 -42 -37 -42q-14 0 -22.5 9t-8.5 24v6t2 12l77 415h-48q-17 0 -24.5 9t-7.5 21t7.5 21.5t24.5 9.5h60l23 122q7 42 37 42q14 0 22.5 -9t8.5 -24v-6t-2 -12l-21 -113h51q17 0 26 -8.5t9 -21.5zM495 788q0 -11 -6 -24
l-64 -139q-11 -22 -31 -22q-14 0 -24 10t-11 21q0 11 6 25l63 139q5 11 13.5 16t17.5 5q15 0 25.5 -9.5t10.5 -21.5z" />
    <glyph glyph-name="Umacron" unicode="&#x16a;" horiz-adv-x="619" 
d="M660 679q0 -7 -2 -17l-77 -417q-11 -58 -31 -104.5t-52.5 -79t-78.5 -50t-109 -17.5q-98 0 -150 48.5t-52 133.5q0 17 1.5 34.5t5.5 37.5l79 421q7 42 38 42q14 0 22.5 -9t8.5 -23q0 -7 -2 -17l-81 -434q-4 -23 -4 -47q0 -62 36 -92t105 -30q81 0 128 43.5t63 128.5
l83 438q7 42 38 42q14 0 22.5 -9t8.5 -23zM578 804q0 -16 -10.5 -24.5t-28.5 -8.5h-194q-38 0 -38 32q0 33 38 33h194q18 0 28.5 -8t10.5 -24z" />
    <glyph glyph-name="umacron" unicode="&#x16b;" horiz-adv-x="501" 
d="M527 499v-6t-2 -12l-54 -291q-17 -92 -68.5 -143.5t-153.5 -51.5q-80 0 -123 41t-43 112q0 11 1 23.5t4 26.5l54 292q7 42 37 42q14 0 22.5 -9t8.5 -24v-6t-2 -12l-53 -284q-2 -10 -4 -23.5t-2 -21.5q0 -50 30.5 -72t76.5 -22q29 0 53 7t42.5 23t31.5 42.5t21 65.5
l55 294q7 42 37 42q14 0 22.5 -9t8.5 -24zM488 637q0 -16 -10.5 -24.5t-28.5 -8.5h-194q-38 0 -38 32q0 33 38 33h194q18 0 28.5 -8t10.5 -24z" />
    <glyph glyph-name="Uring" unicode="&#x16e;" horiz-adv-x="619" 
d="M660 679q0 -7 -2 -17l-77 -417q-11 -58 -31 -104.5t-52.5 -79t-78.5 -50t-109 -17.5q-98 0 -150 48.5t-52 133.5q0 17 1.5 34.5t5.5 37.5l79 421q7 42 38 42q14 0 22.5 -9t8.5 -23q0 -7 -2 -17l-81 -434q-4 -23 -4 -47q0 -62 36 -92t105 -30q81 0 128 43.5t63 128.5
l83 438q7 42 38 42q14 0 22.5 -9t8.5 -23zM531 809q0 -21 -7.5 -39.5t-21 -32t-31.5 -21t-38 -7.5q-34 0 -55.5 24t-21.5 57q0 21 7.5 39t21 31.5t31.5 21.5t38 8q34 0 55.5 -24t21.5 -57zM493 807q0 19 -12 32.5t-32 13.5q-24 0 -39.5 -18.5t-15.5 -42.5q0 -19 12 -32.5
t32 -13.5q24 0 39.5 18.5t15.5 42.5z" />
    <glyph glyph-name="uring" unicode="&#x16f;" horiz-adv-x="501" 
d="M527 499v-6t-2 -12l-54 -291q-17 -92 -68.5 -143.5t-153.5 -51.5q-80 0 -123 41t-43 112q0 11 1 23.5t4 26.5l54 292q7 42 37 42q14 0 22.5 -9t8.5 -24v-6t-2 -12l-53 -284q-2 -10 -4 -23.5t-2 -21.5q0 -50 30.5 -72t76.5 -22q29 0 53 7t42.5 23t31.5 42.5t21 65.5
l55 294q7 42 37 42q14 0 22.5 -9t8.5 -24zM440 632q0 -21 -7.5 -39.5t-21 -32t-31.5 -21t-38 -7.5q-34 0 -55.5 24t-21.5 57q0 21 7.5 39t21 31.5t31.5 21.5t38 8q34 0 55.5 -24t21.5 -57zM402 630q0 19 -12 32.5t-32 13.5q-24 0 -39.5 -18.5t-15.5 -42.5q0 -19 12 -32.5
t32 -13.5q24 0 39.5 18.5t15.5 42.5z" />
    <glyph glyph-name="Uhungarumlaut" unicode="&#x170;" horiz-adv-x="619" 
d="M660 679q0 -7 -2 -17l-77 -417q-11 -58 -31 -104.5t-52.5 -79t-78.5 -50t-109 -17.5q-98 0 -150 48.5t-52 133.5q0 17 1.5 34.5t5.5 37.5l79 421q7 42 38 42q14 0 22.5 -9t8.5 -23q0 -7 -2 -17l-81 -434q-4 -23 -4 -47q0 -62 36 -92t105 -30q81 0 128 43.5t63 128.5
l83 438q7 42 38 42q14 0 22.5 -9t8.5 -23zM670 860q0 -21 -27 -32l-121 -52q-13 -5 -22 -5q-13 0 -21 8.5t-8 21.5q0 22 27 33l121 51q15 6 23 6q12 0 20 -8.5t8 -22.5zM456 860q0 -21 -27 -32l-121 -52q-13 -5 -22 -5q-13 0 -21 8.5t-8 21.5q0 22 27 33l121 51q15 6 23 6
q12 0 20 -8.5t8 -22.5z" />
    <glyph glyph-name="uhungarumlaut" unicode="&#x171;" horiz-adv-x="501" 
d="M527 499v-6t-2 -12l-54 -291q-17 -92 -68.5 -143.5t-153.5 -51.5q-80 0 -123 41t-43 112q0 11 1 23.5t4 26.5l54 292q7 42 37 42q14 0 22.5 -9t8.5 -24v-6t-2 -12l-53 -284q-2 -10 -4 -23.5t-2 -21.5q0 -50 30.5 -72t76.5 -22q29 0 53 7t42.5 23t31.5 42.5t21 65.5
l55 294q7 42 37 42q14 0 22.5 -9t8.5 -24zM580 693q0 -21 -27 -32l-121 -52q-13 -5 -22 -5q-13 0 -21 8.5t-8 21.5q0 22 27 33l121 51q15 6 23 6q12 0 20 -8.5t8 -22.5zM366 693q0 -21 -27 -32l-121 -52q-13 -5 -22 -5q-13 0 -21 8.5t-8 21.5q0 22 27 33l121 51q15 6 23 6
q12 0 20 -8.5t8 -22.5z" />
    <glyph glyph-name="Uogonek" unicode="&#x172;" horiz-adv-x="619" 
d="M377 0q-19 -12 -36.5 -25.5t-31.5 -27.5t-22.5 -28.5t-8.5 -29.5q0 -23 26 -23q8 0 15.5 2t15.5 5q11 4 20 4t14 -6t5 -14q0 -13 -16 -23q-11 -7 -27 -11t-35 -4q-30 0 -52.5 13.5t-22.5 45.5q0 20 9 37t23 31.5t31 26.5t34 21h-8q-98 0 -150 48.5t-52 133.5
q0 17 1.5 34.5t5.5 37.5l79 421q7 42 38 42q14 0 22.5 -9t8.5 -23q0 -7 -2 -17l-81 -434q-4 -23 -4 -47q0 -62 36 -92t105 -30q81 0 128 43.5t63 128.5l83 438q7 42 38 42q14 0 22.5 -9t8.5 -23q0 -7 -2 -17l-77 -417q-9 -50 -25 -91t-40.5 -72.5t-59 -52t-79.5 -29.5z" />
    <glyph glyph-name="uogonek" unicode="&#x173;" horiz-adv-x="501" 
d="M307 0q-19 -12 -36.5 -25.5t-31.5 -27.5t-22.5 -28.5t-8.5 -29.5q0 -23 26 -23q8 0 15.5 2t15.5 5q11 4 20 4t14 -6t5 -14q0 -13 -16 -23q-11 -7 -27 -11t-35 -4q-30 0 -52.5 13.5t-22.5 45.5q0 20 9 37.5t23 32t32 26.5t35 21h-1q-80 0 -123 41t-43 112q0 11 1 23.5
t4 26.5l54 292q7 42 37 42q14 0 22.5 -9t8.5 -24v-6t-2 -12l-53 -284q-2 -10 -4 -23.5t-2 -21.5q0 -50 30.5 -72t76.5 -22q29 0 53 7t42.5 23t31.5 42.5t21 65.5l55 294q7 42 37 42q14 0 22.5 -9t8.5 -24v-6t-2 -12l-54 -291q-15 -79 -53.5 -127.5t-110.5 -62.5z" />
    <glyph glyph-name="Zacute" unicode="&#x179;" horiz-adv-x="507" 
d="M567 674q0 -13 -5 -23.5t-13 -21.5l-406 -560h313q17 0 25.5 -9.5t8.5 -22.5t-8.5 -23.5t-25.5 -10.5h-362q-21 0 -29 10t-8 24q0 13 4.5 23t18.5 28l399 553h-298q-17 0 -25.5 9.5t-8.5 22.5t8.5 23.5t25.5 10.5h352q19 0 26.5 -11t7.5 -22zM493 864q0 -20 -28 -33
l-128 -55q-13 -5 -22 -5q-13 0 -21 8.5t-8 21.5q0 22 27 33l128 55q7 3 12.5 4t10.5 1q12 0 20.5 -8.5t8.5 -21.5z" />
    <glyph glyph-name="zacute" unicode="&#x17a;" horiz-adv-x="444" 
d="M462 496q0 -13 -6 -23t-12 -18l-312 -387v-2h243q17 0 25 -8.5t8 -21.5q0 -12 -8 -22t-25 -10h-306q-14 0 -21 8t-7 20q0 14 6 24t14 20l312 386v2h-227q-17 0 -25 9t-8 22q0 12 7.5 22t24.5 10h284q15 0 24 -8.5t9 -22.5zM425 697q0 -20 -28 -33l-128 -55q-13 -5 -22 -5
q-13 0 -21 8.5t-8 21.5q0 22 27 33l128 55q7 3 12.5 4t10.5 1q12 0 20.5 -8.5t8.5 -21.5z" />
    <glyph glyph-name="Zdotaccent" unicode="&#x17b;" horiz-adv-x="507" 
d="M567 674q0 -13 -5 -23.5t-13 -21.5l-406 -560h313q17 0 25.5 -9.5t8.5 -22.5t-8.5 -23.5t-25.5 -10.5h-362q-21 0 -29 10t-8 24q0 13 4.5 23t18.5 28l399 553h-298q-17 0 -25.5 9.5t-8.5 22.5t8.5 23.5t25.5 10.5h352q19 0 26.5 -11t7.5 -22zM417 830q0 -25 -13 -42
t-34 -17q-17 0 -28 10.5t-11 29.5q0 24 13 41.5t33 17.5q18 0 29 -10.5t11 -29.5z" />
    <glyph glyph-name="zdotaccent" unicode="&#x17c;" horiz-adv-x="444" 
d="M462 496q0 -13 -6 -23t-12 -18l-312 -387v-2h243q17 0 25 -8.5t8 -21.5q0 -12 -8 -22t-25 -10h-306q-14 0 -21 8t-7 20q0 14 6 24t14 20l312 386v2h-227q-17 0 -25 9t-8 22q0 12 7.5 22t24.5 10h284q15 0 24 -8.5t9 -22.5zM349 663q0 -25 -13 -42t-34 -17q-17 0 -28 10.5
t-11 29.5q0 24 13 41.5t33 17.5q18 0 29 -10.5t11 -29.5z" />
    <glyph glyph-name="Scommaaccent" unicode="&#x218;" horiz-adv-x="455" 
d="M493 667q0 -18 -10 -26t-26 -8q-7 0 -14.5 1.5t-20.5 4.5q-19 5 -39 7.5t-41 2.5q-66 0 -104.5 -28.5t-38.5 -84.5q0 -24 8.5 -43t24 -36t38 -33t49.5 -34t51 -37t41 -41t27 -48t10 -58q0 -50 -17 -89.5t-47.5 -66.5t-74.5 -41t-98 -14q-21 0 -43 2t-42.5 5.5t-37.5 9.5
t-27 14q-13 10 -13 25q0 16 10 24.5t24 8.5q8 0 17 -2.5t20 -5.5q21 -7 47 -11t55 -4q74 0 115 36t41 100q0 43 -29 75t-92 73q-27 18 -49.5 37t-39.5 41t-26.5 48t-9.5 58q0 42 15.5 76.5t43.5 59t68 37.5t88 13q35 0 70.5 -5.5t58.5 -16.5q18 -8 18 -26zM225 -61
q13 0 21.5 -6.5t13 -17t6 -22.5t1.5 -22q0 -23 -10 -47t-25.5 -43.5t-35 -32t-37.5 -12.5q-17 0 -25.5 11.5t-8.5 22.5q0 6 3.5 14t9.5 13q6 6 15.5 10t18.5 11.5t16 20t7 35.5q0 8 -2.5 15.5t-2.5 16.5q0 12 9.5 22.5t25.5 10.5z" />
    <glyph glyph-name="amacron" unicode="&#x101;" horiz-adv-x="463" 
d="M473 403q0 -18 -3 -36l-60 -326q-4 -20 -12.5 -30.5t-26.5 -10.5q-15 0 -24.5 10t-4.5 28l9 38q-25 -35 -66 -58.5t-92 -23.5q-35 0 -60.5 11t-43 30t-26 44t-8.5 53q0 87 63 132t184 50l92 4l8 43q3 16 3 29q0 38 -24.5 59t-81.5 21q-21 0 -43 -2.5t-54 -10.5
q-9 -2 -16 -3t-11 -1q-12 0 -20 7t-8 21q0 12 6.5 19.5t16.5 11.5q57 21 140 21q81 0 122 -35t41 -95zM307 260q-43 -2 -77 -9t-58 -21t-36.5 -36.5t-12.5 -56.5q0 -35 21 -58.5t67 -23.5q33 0 60 11.5t47 31t33 45t19 53.5l14 68zM470 637q0 -16 -10.5 -24.5t-28.5 -8.5
h-194q-38 0 -38 32q0 33 38 33h194q18 0 28.5 -8t10.5 -24z" />
    <glyph glyph-name="abreve" unicode="&#x103;" horiz-adv-x="463" 
d="M473 403q0 -18 -3 -36l-60 -326q-4 -20 -12.5 -30.5t-26.5 -10.5q-15 0 -24.5 10t-4.5 28l9 38q-25 -35 -66 -58.5t-92 -23.5q-35 0 -60.5 11t-43 30t-26 44t-8.5 53q0 87 63 132t184 50l92 4l8 43q3 16 3 29q0 38 -24.5 59t-81.5 21q-21 0 -43 -2.5t-54 -10.5
q-9 -2 -16 -3t-11 -1q-12 0 -20 7t-8 21q0 12 6.5 19.5t16.5 11.5q57 21 140 21q81 0 122 -35t41 -95zM307 260q-43 -2 -77 -9t-58 -21t-36.5 -36.5t-12.5 -56.5q0 -35 21 -58.5t67 -23.5q33 0 60 11.5t47 31t33 45t19 53.5l14 68zM481 699q0 -13 -7.5 -25t-18.5 -23
q-45 -47 -120 -47q-32 0 -61.5 15t-43.5 44q-2 6 -4 12.5t-2 14.5q0 30 26 30q10 0 16 -6t11 -15q11 -19 25.5 -28t42.5 -9t44 10t33 27q9 9 16.5 15t17.5 6q11 0 18 -5.5t7 -15.5z" />
    <glyph glyph-name="Gcommaaccent" unicode="&#x122;" horiz-adv-x="585" 
d="M591 663q0 -17 -10.5 -25.5t-24.5 -8.5q-7 0 -15 1t-20 5q-23 7 -43 10t-43 3q-112 0 -171 -72.5t-81 -215.5q-9 -57 -9 -105q0 -97 41.5 -146t131.5 -49q32 0 57 6t40 14q4 2 7 5.5t5 10.5l39 210h-109q-17 0 -26 9.5t-9 22.5t9 24t26 11h150q32 0 32 -35q0 -3 -0.5 -7
t-1.5 -9l-45 -246q-2 -13 -8 -22t-18 -17q-25 -15 -64.5 -28.5t-93.5 -13.5q-110 0 -172.5 62t-62.5 196q0 24 1.5 51t6.5 56q15 97 45.5 164.5t73.5 110t96.5 61.5t113.5 19q33 0 68.5 -6.5t60.5 -17.5q10 -5 16.5 -11t6.5 -17zM326 -61q13 0 21.5 -6.5t13 -17t6 -22.5
t1.5 -22q0 -23 -10 -47t-25.5 -43.5t-35 -32t-37.5 -12.5q-17 0 -25.5 11.5t-8.5 22.5q0 6 3.5 14t9.5 13q6 6 15.5 10t18.5 11.5t16 20t7 35.5q0 8 -2.5 15.5t-2.5 16.5q0 12 9.5 22.5t25.5 10.5z" />
    <glyph glyph-name="Ncommaaccent" unicode="&#x145;" horiz-adv-x="612" 
d="M669 678q0 -2 -0.5 -6t-1.5 -9l-116 -623q-4 -21 -14.5 -29.5t-26.5 -8.5q-14 0 -23 8.5t-14 19.5l-232 559h-2l-100 -547q-7 -42 -37 -42q-13 0 -21.5 8.5t-8.5 22.5q0 4 0.5 8t1.5 9l117 623q4 22 15.5 31t27.5 9q11 0 20.5 -6.5t13.5 -16.5l232 -564h2l100 546
q7 41 38 41q14 0 21.5 -9t7.5 -24zM301 -61q13 0 21.5 -6.5t13 -17t6 -22.5t1.5 -22q0 -23 -10 -47t-25.5 -43.5t-35 -32t-37.5 -12.5q-17 0 -25.5 11.5t-8.5 22.5q0 6 3.5 14t9.5 13q6 6 15.5 10t18.5 11.5t16 20t7 35.5q0 8 -2.5 15.5t-2.5 16.5q0 12 9.5 22.5t25.5 10.5z
" />
    <glyph glyph-name="gcommaaccent" unicode="&#x123;" horiz-adv-x="515" 
d="M573 490q0 -13 -7.5 -21t-23.5 -8h-54q21 -35 21 -76q0 -102 -58 -152t-158 -50q-36 0 -60 4t-42 13q-27 -14 -27 -50q0 -15 10.5 -29t48.5 -14h112q83 0 118 -30t35 -92q0 -39 -15 -74.5t-45.5 -62t-76.5 -42.5t-108 -16q-92 0 -140.5 36.5t-48.5 103.5q0 96 74 146
q-14 11 -20 27.5t-6 35.5q0 58 47 90q-20 17 -29.5 42.5t-9.5 57.5q0 98 57 152.5t157 54.5q32 0 59.5 -4.5t50.5 -14.5h108q16 0 23.5 -7.5t7.5 -19.5zM442 386q0 51 -32.5 71t-91.5 20q-68 0 -104 -37t-36 -108q0 -48 30.5 -69t87.5 -21q77 0 111.5 34.5t34.5 109.5z
M419 -25q0 41 -22 56.5t-74 15.5h-92q-11 0 -25 1.5t-24 3.5q-26 -13 -43.5 -41.5t-17.5 -71.5q0 -45 32 -65.5t92 -20.5q87 0 130.5 34t43.5 88zM387 801q13 0 21.5 -6.5t13 -17t6 -22.5t1.5 -22q0 -23 -10 -47t-25.5 -43.5t-35 -32t-37.5 -12.5q-17 0 -25.5 11.5
t-8.5 22.5q0 6 3.5 14t9.5 13q6 6 15.5 10t18.5 11.5t16 20t7 35.5q0 8 -2.5 15.5t-2.5 16.5q0 12 9.5 22.5t25.5 10.5z" />
    <glyph glyph-name="Kcommaaccent" unicode="&#x136;" horiz-adv-x="522" 
d="M593 684q0 -12 -5.5 -20.5t-15.5 -17.5l-308 -285l215 -302q9 -13 9 -25q0 -17 -10 -26t-24 -9q-20 0 -36 24l-218 320l-56 -302q-7 -42 -38 -42q-14 0 -22.5 9t-8.5 23q0 7 2 17l115 621q7 42 38 42q14 0 22.5 -9t8.5 -23q0 -7 -2 -17l-52 -279l322 310q11 11 18.5 15
t16.5 4q11 0 20 -7.5t9 -20.5zM236 -61q13 0 21.5 -6.5t13 -17t6 -22.5t1.5 -22q0 -23 -10 -47t-25.5 -43.5t-35 -32t-37.5 -12.5q-17 0 -25.5 11.5t-8.5 22.5q0 6 3.5 14t9.5 13q6 6 15.5 10t18.5 11.5t16 20t7 35.5q0 8 -2.5 15.5t-2.5 16.5q0 12 9.5 22.5t25.5 10.5z" />
    <glyph glyph-name="kcommaaccent" unicode="&#x137;" horiz-adv-x="469" 
d="M508 505q0 -11 -5.5 -19t-13.5 -14l-242 -179l177 -237q9 -13 9 -25q0 -14 -9 -23t-25 -9q-20 0 -31 16l-184 256l-43 -230q-7 -42 -37 -42q-14 0 -22.5 9t-8.5 24v6t2 12l126 673q7 42 37 42q14 0 22.5 -9t8.5 -24v-6t-2 -12l-73 -387l246 189q20 17 37 17q13 0 22 -8
t9 -20zM232 -61q13 0 21.5 -6.5t13 -17t6 -22.5t1.5 -22q0 -23 -10 -47t-25.5 -43.5t-35 -32t-37.5 -12.5q-17 0 -25.5 11.5t-8.5 22.5q0 6 3.5 14t9.5 13q6 6 15.5 10t18.5 11.5t16 20t7 35.5q0 8 -2.5 15.5t-2.5 16.5q0 12 9.5 22.5t25.5 10.5z" />
    <glyph glyph-name="Lcommaaccent" unicode="&#x13b;" horiz-adv-x="392" 
d="M372 38q0 -13 -9 -24t-26 -11h-230q-32 0 -32 35q0 2 0.5 6.5t1.5 9.5l115 615q7 42 38 42q14 0 22.5 -9t8.5 -23q0 -7 -2 -17l-111 -592h189q17 0 26 -9.5t9 -22.5zM235 -61q13 0 21.5 -6.5t13 -17t6 -22.5t1.5 -22q0 -23 -10 -47t-25.5 -43.5t-35 -32t-37.5 -12.5
q-17 0 -25.5 11.5t-8.5 22.5q0 6 3.5 14t9.5 13q6 6 15.5 10t18.5 11.5t16 20t7 35.5q0 8 -2.5 15.5t-2.5 16.5q0 12 9.5 22.5t25.5 10.5z" />
    <glyph glyph-name="lcommaaccent" unicode="&#x13c;" horiz-adv-x="224" 
d="M269 732v-6t-2 -12l-126 -673q-7 -42 -37 -42q-14 0 -22.5 9t-8.5 24v6t2 12l126 673q7 42 37 42q14 0 22.5 -9t8.5 -24zM94 -61q13 0 21.5 -6.5t13 -17t6 -22.5t1.5 -22q0 -23 -10 -47t-25.5 -43.5t-35 -32t-37.5 -12.5q-17 0 -25.5 11.5t-8.5 22.5q0 6 3.5 14t9.5 13
q6 6 15.5 10t18.5 11.5t16 20t7 35.5q0 8 -2.5 15.5t-2.5 16.5q0 12 9.5 22.5t25.5 10.5z" />
    <glyph glyph-name="ncommaaccent" unicode="&#x146;" horiz-adv-x="518" 
d="M523 409q0 -13 -1.5 -25.5t-3.5 -24.5l-60 -318q-7 -42 -37 -42q-14 0 -22.5 9t-8.5 24v6t2 12l59 312q3 16 3 30q0 41 -23 59.5t-67 18.5q-36 0 -70 -15.5t-60 -37.5q-12 -11 -20.5 -23t-10.5 -25l-62 -328q-9 -42 -37 -42q-14 0 -22.5 9t-8.5 24v6t2 12l83 439
q9 42 37 42q14 0 22.5 -9t8.5 -24v-6t-2 -12l-3 -17q30 32 71.5 52t89.5 20q63 0 102 -31.5t39 -94.5zM248 -61q13 0 21.5 -6.5t13 -17t6 -22.5t1.5 -22q0 -23 -10 -47t-25.5 -43.5t-35 -32t-37.5 -12.5q-17 0 -25.5 11.5t-8.5 22.5q0 6 3.5 14t9.5 13q6 6 15.5 10
t18.5 11.5t16 20t7 35.5q0 8 -2.5 15.5t-2.5 16.5q0 12 9.5 22.5t25.5 10.5z" />
    <glyph glyph-name="Rcommaaccent" unicode="&#x156;" horiz-adv-x="510" 
d="M547 550q0 -52 -19.5 -98.5t-57.5 -75.5q-50 -39 -129 -44l111 -278l4 -12t2 -12q0 -13 -8.5 -22t-25.5 -9q-14 0 -22.5 8.5t-11.5 17.5l-116 306h-76l-54 -290q-7 -42 -38 -42q-14 0 -22.5 9t-8.5 23q0 7 2 17l116 620q4 19 16.5 29t30.5 10h135q87 0 129.5 -43
t42.5 -114zM477 549q0 27 -9 45t-24 29t-35 15.5t-42 4.5h-111l-47 -251h125q56 0 92 30q26 21 38.5 55t12.5 72zM235 -61q13 0 21.5 -6.5t13 -17t6 -22.5t1.5 -22q0 -23 -10 -47t-25.5 -43.5t-35 -32t-37.5 -12.5q-17 0 -25.5 11.5t-8.5 22.5q0 6 3.5 14t9.5 13
q6 6 15.5 10t18.5 11.5t16 20t7 35.5q0 8 -2.5 15.5t-2.5 16.5q0 12 9.5 22.5t25.5 10.5z" />
    <glyph glyph-name="rcommaaccent" unicode="&#x157;" horiz-adv-x="323" 
d="M395 502q0 -22 -14 -29.5t-35 -9.5q-26 -2 -55.5 -11.5t-53.5 -31.5q-13 -11 -23 -26.5t-15 -41.5l-58 -311q-7 -42 -37 -42q-14 0 -22.5 9t-8.5 24v6t2 12l83 439q9 42 37 42q30 0 30 -28q0 -7 -3 -22l-4 -20h1q23 28 61.5 49.5t76.5 21.5q17 0 27.5 -7.5t10.5 -22.5z
M92 -61q13 0 21.5 -6.5t13 -17t6 -22.5t1.5 -22q0 -23 -10 -47t-25.5 -43.5t-35 -32t-37.5 -12.5q-17 0 -25.5 11.5t-8.5 22.5q0 6 3.5 14t9.5 13q6 6 15.5 10t18.5 11.5t16 20t7 35.5q0 8 -2.5 15.5t-2.5 16.5q0 12 9.5 22.5t25.5 10.5z" />
    <glyph glyph-name="Tcommaaccent" unicode="&#x162;" horiz-adv-x="479" 
d="M562 675q0 -13 -8.5 -24t-25.5 -11h-143l-112 -599q-7 -42 -38 -42q-14 0 -22.5 9t-8.5 23q0 7 2 17l110 592h-135q-17 0 -26 9.5t-9 22.5t9 24t26 11h346q17 0 26 -9.5t9 -22.5zM224 -61q13 0 21.5 -6.5t13 -17t6 -22.5t1.5 -22q0 -23 -10 -47t-25.5 -43.5t-35 -32
t-37.5 -12.5q-17 0 -25.5 11.5t-8.5 22.5q0 6 3.5 14t9.5 13q6 6 15.5 10t18.5 11.5t16 20t7 35.5q0 8 -2.5 15.5t-2.5 16.5q0 12 9.5 22.5t25.5 10.5z" />
    <glyph glyph-name="tcommaaccent" unicode="&#x163;" horiz-adv-x="300" 
d="M357 496q0 -14 -9 -22.5t-26 -8.5h-63l-79 -424q-7 -42 -37 -42q-14 0 -22.5 9t-8.5 24v6t2 12l77 415h-48q-17 0 -24.5 9t-7.5 21t7.5 21.5t24.5 9.5h60l23 122q7 42 37 42q14 0 22.5 -9t8.5 -24v-6t-2 -12l-21 -113h51q17 0 26 -8.5t9 -21.5zM132 -61q13 0 21.5 -6.5
t13 -17t6 -22.5t1.5 -22q0 -23 -10 -47t-25.5 -43.5t-35 -32t-37.5 -12.5q-17 0 -25.5 11.5t-8.5 22.5q0 6 3.5 14t9.5 13q6 6 15.5 10t18.5 11.5t16 20t7 35.5q0 8 -2.5 15.5t-2.5 16.5q0 12 9.5 22.5t25.5 10.5z" />
    <glyph glyph-name="scommaaccent" unicode="&#x219;" horiz-adv-x="424" 
d="M429 488q0 -17 -9 -24.5t-22 -7.5q-12 0 -30 5t-38 8.5t-43 3.5q-49 0 -76 -20.5t-27 -54.5q0 -31 24 -53.5t67 -46.5q30 -17 52.5 -32.5t37.5 -32t22 -36.5t7 -45q0 -76 -51 -116.5t-139 -40.5q-81 0 -129 24q-16 8 -16 27q0 17 10.5 24.5t23.5 7.5q8 0 23 -5
q18 -7 39.5 -10.5t56.5 -3.5q56 0 86 22.5t30 64.5q0 28 -21 50t-70 49q-26 14 -47 28.5t-37 32t-24.5 38.5t-8.5 49q0 66 49 104.5t130 38.5q28 0 58.5 -5.5t54.5 -16.5q6 -3 11.5 -9.5t5.5 -16.5zM195 -61q13 0 21.5 -6.5t13 -17t6 -22.5t1.5 -22q0 -23 -10 -47
t-25.5 -43.5t-35 -32t-37.5 -12.5q-17 0 -25.5 11.5t-8.5 22.5q0 6 3.5 14t9.5 13q6 6 15.5 10t18.5 11.5t16 20t7 35.5q0 8 -2.5 15.5t-2.5 16.5q0 12 9.5 22.5t25.5 10.5z" />
    <glyph glyph-name="uni021A" unicode="&#x21a;" horiz-adv-x="479" 
d="M562 675q0 -13 -8.5 -24t-25.5 -11h-143l-112 -599q-7 -42 -38 -42q-14 0 -22.5 9t-8.5 23q0 7 2 17l110 592h-135q-17 0 -26 9.5t-9 22.5t9 24t26 11h346q17 0 26 -9.5t9 -22.5zM229 -61q13 0 21.5 -6.5t13 -17t6 -22.5t1.5 -22q0 -23 -10 -47t-25.5 -43.5t-35 -32
t-37.5 -12.5q-17 0 -25.5 11.5t-8.5 22.5q0 6 3.5 14t9.5 13q6 6 15.5 10t18.5 11.5t16 20t7 35.5q0 8 -2.5 15.5t-2.5 16.5q0 12 9.5 22.5t25.5 10.5z" />
    <glyph glyph-name="uni021B" unicode="&#x21b;" horiz-adv-x="300" 
d="M357 496q0 -14 -9 -22.5t-26 -8.5h-63l-79 -424q-7 -42 -37 -42q-14 0 -22.5 9t-8.5 24v6t2 12l77 415h-48q-17 0 -24.5 9t-7.5 21t7.5 21.5t24.5 9.5h60l23 122q7 42 37 42q14 0 22.5 -9t8.5 -24v-6t-2 -12l-21 -113h51q17 0 26 -8.5t9 -21.5zM132 -61q13 0 21.5 -6.5
t13 -17t6 -22.5t1.5 -22q0 -23 -10 -47t-25.5 -43.5t-35 -32t-37.5 -12.5q-17 0 -25.5 11.5t-8.5 22.5q0 6 3.5 14t9.5 13q6 6 15.5 10t18.5 11.5t16 20t7 35.5q0 8 -2.5 15.5t-2.5 16.5q0 12 9.5 22.5t25.5 10.5z" />
    <glyph glyph-name="zero" unicode="0" 
d="M562 491q0 -29 -3 -63.5t-10 -73.5q-17 -103 -44 -172t-61.5 -111t-76 -59.5t-87.5 -17.5q-41 0 -74.5 11.5t-57.5 37.5t-37 69t-13 106q0 29 3 63.5t10 72.5q17 103 44 172.5t61.5 111.5t75.5 59.5t87 17.5q40 0 74 -11.5t58 -37.5t37.5 -69t13.5 -106zM491 494
q0 77 -26.5 116t-85.5 39q-43 0 -74 -19t-53.5 -56.5t-38.5 -92.5t-29 -127q-15 -78 -15 -139q0 -77 26.5 -116t85.5 -39q43 0 74 19t53.5 56.5t38.5 92t29 126.5q15 79 15 140z" />
    <glyph glyph-name="one" unicode="1" 
d="M441 672q0 -3 -0.5 -7t-1.5 -9l-115 -615q-7 -42 -38 -42q-14 0 -23 9t-9 25q0 5 2 15l111 592h-79q-17 0 -26 9.5t-9 22.5t8.5 24t25.5 11h122q32 0 32 -35z" />
    <glyph glyph-name="two" unicode="2" 
d="M534 575q0 -32 -7.5 -60.5t-22.5 -57t-38 -59t-55 -67.5l-225 -261v-1h263q17 0 25.5 -9t8.5 -23q0 -12 -8.5 -23t-25.5 -11h-321q-16 0 -23.5 10t-7.5 23q0 15 8 27.5t19 25.5l244 288q48 56 71.5 98.5t23.5 86.5q0 41 -25.5 64t-85.5 23q-26 0 -56 -7t-61 -20
q-9 -4 -17 -4q-26 0 -26 27q0 22 23 35q26 16 67 25.5t88 9.5q78 0 121 -39.5t43 -100.5z" />
    <glyph glyph-name="three" unicode="3" 
d="M522 567q0 -32 -8.5 -62t-26 -55.5t-44 -45t-62.5 -29.5v-2q31 -8 52 -22t34 -32t18 -39t5 -43q0 -53 -17 -97t-48.5 -76.5t-78 -50.5t-104.5 -18q-41 0 -76.5 5.5t-54.5 19.5q-5 5 -9 10t-4 13q0 17 9.5 26t24.5 9q4 0 11 -2t13 -4q14 -5 38 -8t51 -3q83 0 129 46
t46 127q0 51 -35 77t-101 26h-15q-17 0 -26 9.5t-9 22.5q0 14 9 24.5t26 10.5h27q38 0 67.5 12t49.5 33t30.5 49t10.5 60q0 45 -27 68t-78 23q-44 0 -95 -19q-7 -2 -14.5 -4t-12.5 -2q-11 0 -17.5 7.5t-6.5 18.5q0 14 8.5 23.5t22.5 15.5q29 14 62 20t65 6q41 0 71 -11.5
t50 -31.5t30 -47t10 -58z" />
    <glyph glyph-name="four" unicode="4" 
d="M536 226q0 -13 -8.5 -23.5t-25.5 -10.5h-56l-27 -151q-7 -42 -37 -42q-14 0 -22.5 9t-8.5 23q0 7 2 17l25 144h-262q-17 0 -26 9.5t-9 23.5t5 24t18 27l329 407q12 15 24 24.5t31 9.5q44 0 44 -38v-9.5t-2 -12.5l-72 -400h44q17 0 25.5 -9.5t8.5 -21.5zM455 615
l-290 -357v-1h226l65 358h-1z" />
    <glyph glyph-name="five" unicode="5" 
d="M536 675q0 -13 -9 -24t-26 -11h-206l-41 -207h52q90 0 144 -38.5t54 -122.5q0 -58 -16.5 -108.5t-49.5 -88t-83 -59t-117 -21.5q-37 0 -71.5 5t-56.5 17q-17 9 -17 29q0 15 9.5 24t25.5 9q7 0 15.5 -2t16.5 -4q19 -6 37 -9t46 -3q91 0 140 55t49 147q0 44 -23 67
q-17 19 -46.5 28t-67.5 9h-78q-16 0 -24.5 8.5t-8.5 22.5v5t2 11l45 247q5 25 17 35.5t32 10.5h221q17 0 26 -9.5t9 -22.5z" />
    <glyph glyph-name="six" unicode="6" 
d="M509 267q0 -21 -3 -45q-7 -51 -25 -92.5t-46.5 -71.5t-67.5 -46.5t-88 -16.5q-47 0 -79.5 15t-53 42t-30 63t-9.5 78q0 17 1 34t3 34q9 70 31.5 141t59 132.5t87 106.5t116.5 63q14 4 28 6.5t30 3.5q15 0 26 -7t11 -24q0 -19 -12 -26t-30 -10q-50 -9 -89.5 -32.5
t-70 -57.5t-53 -77t-38.5 -91l2 -2q15 15 32 25.5t35 17t35.5 9t31.5 2.5q40 0 71 -13t52 -36t32 -55t11 -70zM439 258q0 55 -26.5 89t-83.5 34q-26 0 -50.5 -6.5t-45.5 -22.5t-36.5 -44.5t-22.5 -71.5q-2 -13 -2.5 -28t-0.5 -26q0 -57 28 -92t86 -35q63 0 102 41.5
t50 125.5q2 9 2 18v18z" />
    <glyph glyph-name="seven" unicode="7" 
d="M586 676q0 -11 -5.5 -23t-13.5 -26l-345 -596q-10 -17 -19.5 -24.5t-22.5 -7.5t-21.5 7.5t-8.5 21.5q0 7 2.5 13.5t10.5 19.5l339 579h-286q-18 0 -26.5 9.5t-8.5 22.5t8.5 24t25.5 11h339q17 0 24.5 -9.5t7.5 -21.5z" />
    <glyph glyph-name="eight" unicode="8" 
d="M548 564q0 -68 -32 -116.5t-95 -64.5l1 -1q48 -14 74.5 -51.5t26.5 -97.5q0 -53 -15.5 -96.5t-45.5 -75t-74 -49t-101 -17.5q-88 0 -136 45.5t-48 120.5q0 42 9.5 80t29 67.5t48 49.5t66.5 27l-1 1q-39 14 -59.5 51.5t-20.5 81.5q0 47 15.5 83.5t43 61.5t64.5 38t80 13
q77 0 123.5 -39.5t46.5 -111.5zM480 558q0 50 -29.5 72t-74.5 22q-28 0 -52.5 -7t-43 -23t-29 -41.5t-10.5 -62.5q0 -48 28 -77.5t75 -29.5q63 0 99.5 38.5t36.5 108.5zM454 230q0 61 -32.5 92t-90.5 31q-72 0 -115.5 -46.5t-43.5 -131.5q0 -59 32.5 -88t89.5 -29
q81 0 120.5 45.5t39.5 126.5z" />
    <glyph glyph-name="nine" unicode="9" 
d="M551 517q0 -17 -1 -34t-3 -34q-9 -70 -31.5 -141t-59 -132.5t-87 -106.5t-116.5 -63q-14 -4 -28 -6.5t-30 -3.5q-15 0 -26 7t-11 24q0 19 12 26t30 10q49 9 88.5 32.5t70.5 57.5t53.5 77t38.5 91l-2 2q-15 -15 -32 -25.5t-35 -17t-35.5 -9t-31.5 -2.5q-40 0 -71 13
t-52 36t-32 55t-11 70q0 21 3 45q7 51 25 92.5t46.5 71.5t67.5 46.5t88 16.5q47 0 79.5 -15t53 -42t30 -63t9.5 -78zM487 528q0 57 -28 92t-86 35q-63 0 -102 -41.5t-50 -125.5q-2 -9 -2 -18v-18q0 -55 26.5 -89t83.5 -34q26 0 50.5 6.5t45.5 22.5t36 44t23 72q2 13 2.5 28
t0.5 26z" />
    <glyph glyph-name="zero.tosf" 
d="M536 335q0 -20 -1.5 -39t-5.5 -42q-11 -67 -34 -116t-55 -80.5t-71.5 -47t-84.5 -15.5q-39 0 -72.5 12.5t-58.5 37.5t-39 63t-14 88q0 19 1.5 37.5t5.5 42.5q10 67 32.5 116t55 80.5t72.5 47t85 15.5q39 0 73 -12.5t58.5 -37.5t38.5 -62.5t14 -87.5zM468 336
q0 69 -33 103.5t-86 34.5q-65 0 -110 -47t-64 -154q-4 -21 -5.5 -41.5t-1.5 -37.5q0 -69 33.5 -103.5t85.5 -34.5q65 0 110 47t64 154q4 21 5.5 41.5t1.5 37.5z" />
    <glyph glyph-name="one.tosf" 
d="M488 37q0 -12 -8 -22.5t-25 -10.5l-336 -1q-17 0 -25.5 9t-8.5 21q0 13 8 23.5t25 10.5h130l75 393h-134q-17 0 -26 9.5t-9 22.5t8.5 24t25.5 11h177q32 0 32 -35q0 -3 -0.5 -7t-1.5 -9l-78 -409l137 1q17 0 25.5 -9t8.5 -22z" />
    <glyph glyph-name="two.tosf" 
d="M503 396q0 -32 -10.5 -59t-30.5 -52.5t-49.5 -51t-68.5 -54.5l-143 -109v-1h248q17 0 25.5 -9t8.5 -23q0 -12 -8.5 -23t-25.5 -11h-321q-16 0 -23.5 10t-7.5 23q0 15 5.5 25.5t19.5 21.5l179 142q28 22 52.5 42t42 39.5t27.5 39t10 40.5q0 39 -26 61.5t-86 22.5
q-26 0 -56 -7t-61 -20q-9 -4 -17 -4q-26 0 -26 27q0 22 23 35q26 16 67 25.5t88 9.5q78 0 121 -39.5t43 -100.5z" />
    <glyph glyph-name="three.tosf" 
d="M491 388q0 -32 -8.5 -62t-26 -55.5t-44 -45t-62.5 -29.5v-2q31 -8 52 -22t34 -32t18 -39t5 -43q0 -53 -17 -97t-48.5 -76.5t-78 -50.5t-104.5 -18q-41 0 -76.5 5.5t-54.5 19.5q-5 5 -9 10t-4 13q0 17 9.5 26t24.5 9q4 0 11 -2t13 -4q14 -5 38 -8t51 -3q83 0 129 46
t46 127q0 51 -35 77t-101 26h-15q-17 0 -26 9.5t-9 22.5q0 14 9 24.5t26 10.5h27q38 0 67.5 12t49.5 33t30.5 49t10.5 60q0 45 -27 68t-78 23q-44 0 -95 -19q-7 -2 -14.5 -4t-12.5 -2q-11 0 -17.5 7.5t-6.5 18.5q0 14 8.5 23.5t22.5 15.5q29 14 62 20t65 6q41 0 71 -11.5
t50 -31.5t30 -47t10 -58z" />
    <glyph glyph-name="four.tosf" 
d="M503 38q0 -13 -8.5 -23.5t-25.5 -10.5h-56l-26 -142q-7 -42 -37 -42q-14 0 -22.5 9t-8.5 23q0 7 2 17l24 135h-262q-17 0 -26 9.5t-9 23.5t5 24t18 27l330 414q12 15 24 24.5t31 9.5q44 0 44 -38v-9.5t-2 -12.5l-73 -407h44q17 0 25.5 -9.5t8.5 -21.5zM423 434l-291 -364
v-1h226l66 365h-1z" />
    <glyph glyph-name="five.tosf" 
d="M502 495q0 -13 -9 -24t-26 -11h-206l-41 -207h52q90 0 144 -38.5t54 -122.5q0 -58 -16.5 -108.5t-49.5 -88t-83 -59t-117 -21.5q-37 0 -71.5 5t-56.5 17q-17 9 -17 29q0 15 9.5 24t25.5 9q7 0 15.5 -2t16.5 -4q19 -6 37 -9t46 -3q91 0 140 55t49 147q0 44 -23 67
q-17 19 -46.5 28t-67.5 9h-78q-16 0 -24.5 8.5t-8.5 22.5v5t2 11l45 247q5 25 17 35.5t32 10.5h221q17 0 26 -9.5t9 -22.5z" />
    <glyph glyph-name="six.tosf" 
d="M509 267q0 -21 -3 -45q-7 -51 -25 -92.5t-46.5 -71.5t-67.5 -46.5t-88 -16.5q-47 0 -79.5 15t-53 42t-30 63t-9.5 78q0 17 1 34t3 34q9 70 31.5 141t59 132.5t87 106.5t116.5 63q14 4 28 6.5t30 3.5q15 0 26 -7t11 -24q0 -19 -12 -26t-30 -10q-50 -9 -89.5 -32.5
t-70 -57.5t-53 -77t-38.5 -91l2 -2q15 15 32 25.5t35 17t35.5 9t31.5 2.5q40 0 71 -13t52 -36t32 -55t11 -70zM439 258q0 55 -26.5 89t-83.5 34q-26 0 -50.5 -6.5t-45.5 -22.5t-36.5 -44.5t-22.5 -71.5q-2 -13 -2.5 -28t-0.5 -26q0 -57 28 -92t86 -35q63 0 102 41.5
t50 125.5q2 9 2 18v18z" />
    <glyph glyph-name="seven.tosf" 
d="M554 496q0 -11 -5.5 -23t-13.5 -26l-345 -596q-10 -17 -19.5 -24.5t-22.5 -7.5t-21.5 7.5t-8.5 21.5q0 7 2.5 13.5t10.5 19.5l339 579h-286q-18 0 -26.5 9.5t-8.5 22.5t8.5 24t25.5 11h339q17 0 24.5 -9.5t7.5 -21.5z" />
    <glyph glyph-name="eight.tosf" 
d="M548 564q0 -68 -32 -116.5t-95 -64.5l1 -1q48 -14 74.5 -51.5t26.5 -97.5q0 -53 -15.5 -96.5t-45.5 -75t-74 -49t-101 -17.5q-88 0 -136 45.5t-48 120.5q0 42 9.5 80t29 67.5t48 49.5t66.5 27l-1 1q-39 14 -59.5 51.5t-20.5 81.5q0 47 15.5 83.5t43 61.5t64.5 38t80 13
q77 0 123.5 -39.5t46.5 -111.5zM480 558q0 50 -29.5 72t-74.5 22q-28 0 -52.5 -7t-43 -23t-29 -41.5t-10.5 -62.5q0 -48 28 -77.5t75 -29.5q63 0 99.5 38.5t36.5 108.5zM454 230q0 61 -32.5 92t-90.5 31q-72 0 -115.5 -46.5t-43.5 -131.5q0 -59 32.5 -88t89.5 -29
q81 0 120.5 45.5t39.5 126.5z" />
    <glyph glyph-name="nine.tosf" 
d="M519 338q0 -17 -1 -34t-3 -34q-9 -70 -31.5 -141t-59 -132.5t-87 -106.5t-116.5 -63q-14 -4 -28 -6.5t-30 -3.5q-15 0 -26 7t-11 24q0 19 12 26t30 10q49 9 88.5 32.5t70.5 57.5t53.5 77t38.5 91l-2 2q-15 -15 -32 -25.5t-35 -17t-35.5 -9t-31.5 -2.5q-40 0 -71 13
t-52 36t-32 55t-11 70q0 21 3 45q7 51 25 92.5t46.5 71.5t67.5 46.5t88 16.5q47 0 79.5 -15t53 -42t30 -63t9.5 -78zM455 349q0 57 -28 92t-86 35q-63 0 -102 -41.5t-50 -125.5q-2 -9 -2 -18v-18q0 -55 26.5 -89t83.5 -34q26 0 50.5 6.5t45.5 22.5t36 44t23 72q2 13 2.5 28
t0.5 26z" />
    <glyph glyph-name="sterling" unicode="&#xa3;" 
d="M559 669q0 -17 -10 -26t-25 -9q-5 0 -11.5 1t-12.5 3q-20 5 -37 8t-36 3q-70 0 -102.5 -41t-32.5 -115v-14.5t2 -22.5l7 -61h118q17 0 26 -9.5t9 -22.5q0 -14 -9 -24.5t-26 -10.5h-117q0 -34 -3 -59q-6 -45 -28.5 -96t-71.5 -103h255q17 0 26 -9t9 -23q0 -13 -9 -23.5
t-26 -10.5h-311q-17 0 -24.5 9.5t-7.5 23.5q0 21 21 43q41 45 65.5 89.5t33.5 95.5q2 14 3.5 29.5t1.5 33.5h-60q-18 0 -26.5 9.5t-8.5 22.5t8.5 24t25.5 11h57l-5 56q-1 8 -1.5 24t-0.5 24q0 54 15.5 94.5t43.5 68t65.5 41t82.5 13.5q34 0 64 -6t49 -17q14 -9 14 -24z" />
    <glyph glyph-name="ampersand" unicode="&#x26;" horiz-adv-x="649" 
d="M617 317q0 -26 -13.5 -60t-29.5 -61q-8 -14 -17 -26.5t-17 -23.5l60 -83q11 -16 11 -29q0 -17 -9.5 -25t-24.5 -8q-18 0 -30 18l-52 75q-51 -54 -105.5 -78t-118.5 -24q-85 0 -131.5 45t-46.5 120q0 42 12 77.5t34.5 66t55 57t74.5 51.5l-12 16q-24 32 -33.5 61t-9.5 58
q0 42 15 73.5t40.5 53.5t60 33t74.5 11q37 0 72.5 -7.5t62.5 -21.5q17 -9 17 -27q0 -34 -33 -34q-6 0 -25 6q-23 8 -48 12.5t-51 4.5q-50 0 -84 -24.5t-34 -76.5q0 -24 10.5 -48t31.5 -53l182 -249q17 25 28.5 51.5t19.5 61.5q4 15 11.5 25t24.5 10q12 0 20 -7t8 -21z
M305 361q-66 -38 -105.5 -83t-39.5 -109q0 -52 30.5 -82.5t87.5 -30.5q56 0 99 23t83 65z" />
    </font>
</defs>
</svg>
